<svg width="24" height="24" viewBox="0 0 24 24" fill="none" xmlns="http://www.w3.org/2000/svg">
<g clip-path="url(#clip0_14514_9711)">
<path fill-rule="evenodd" clip-rule="evenodd" d="M18.7643 14.4407C18.6527 14.371 18.5272 14.3152 18.4017 14.2594L18.2204 13.4226C18.1785 13.2134 17.9972 13.0739 17.788 13.0739H16.1701C15.9609 13.0739 15.7796 13.2134 15.7378 13.4226L15.5565 14.2594C15.4449 14.3012 15.3194 14.357 15.2078 14.4268C15.0962 14.4965 14.9847 14.5662 14.8731 14.6499L14.0642 14.3849C13.8689 14.3152 13.6457 14.3989 13.5481 14.5802L12.7392 15.9749C12.6416 16.1562 12.6695 16.3794 12.8229 16.5188L13.4505 17.0906C13.4365 17.2301 13.4365 17.3696 13.4365 17.4951C13.4365 17.6206 13.4505 17.7601 13.4644 17.8856L12.8229 18.4575C12.6695 18.5969 12.6276 18.8201 12.7392 19.0014L13.5481 20.3961C13.6457 20.5774 13.8689 20.6611 14.0642 20.5913L14.8731 20.3264C14.9847 20.41 15.0962 20.4798 15.2078 20.5495C15.3194 20.6053 15.431 20.675 15.5425 20.7169L15.7238 21.5537C15.7657 21.7629 15.947 21.9024 16.1562 21.9024H17.7741C17.9833 21.9024 18.1646 21.7629 18.2064 21.5537L18.3877 20.7169C18.5132 20.6611 18.6248 20.6053 18.7503 20.5356C18.8619 20.4658 18.9735 20.3961 19.0711 20.3264L19.8801 20.5913C20.0753 20.6611 20.2985 20.5774 20.3961 20.3961L21.205 19.0014C21.3026 18.8201 21.2748 18.5969 21.1213 18.4575L20.4937 17.8856C20.5077 17.7601 20.5216 17.6206 20.5216 17.4951C20.5216 17.3696 20.5077 17.2301 20.4937 17.1046L21.1213 16.5328C21.2748 16.3933 21.3166 16.1701 21.205 15.9888L20.3961 14.5941C20.2985 14.4128 20.0753 14.3291 19.8801 14.3989L19.0711 14.6639C18.9735 14.5662 18.8759 14.4965 18.7643 14.4407ZM16.9791 19.2664C17.9554 19.2664 18.7503 18.4714 18.7503 17.4951C18.7503 16.5188 17.9554 15.7238 16.9791 15.7238C16.0028 15.7238 15.2078 16.5188 15.2078 17.4951C15.2078 18.4714 16.0028 19.2664 16.9791 19.2664Z" fill="white"/>
<path d="M9.2664 11.6513C9.46166 11.6932 9.65692 11.6932 9.85218 11.7071C9.92191 11.7071 9.9777 11.7211 10.0474 11.7211C10.0474 11.7211 10.0474 11.7211 10.0614 11.7211C10.0614 11.7211 10.0614 11.7211 10.0753 11.7211C10.3543 11.7211 10.6332 11.6932 10.8982 11.6374C11.1074 11.5955 11.3027 11.5397 11.4979 11.484C11.4979 11.484 11.5258 11.484 11.5537 11.47H11.5398C13.4784 10.8285 14.901 9.02929 14.901 6.8675C14.901 4.17573 12.7253 2 10.0335 2C7.34172 2 5.17993 4.17573 5.17993 6.8675C5.17993 9.28033 6.9512 11.2748 9.2664 11.6513Z" fill="#A3A8AF"/>
<path d="M12.3347 21.1074L11.5258 19.7127C11.1074 19.0014 11.2329 18.0809 11.8187 17.4951C11.2329 16.9093 11.1074 16.0167 11.5258 15.2915L12.3347 13.8968C12.4742 13.6457 12.6834 13.4505 12.9205 13.297C12.5021 13.1297 12.0558 12.9902 11.6095 12.9065C11.6095 12.9065 11.6095 12.9065 11.6234 12.9065C11.6095 12.9065 11.5955 12.9065 11.5816 12.9065C11.4282 12.8786 11.2748 12.8507 11.1353 12.8368C10.7727 12.781 10.424 12.7531 10.0614 12.7531C10.0614 12.7531 10.0614 12.7531 10.0474 12.7531C10.0335 12.7531 10.0195 12.7531 10.0056 12.7531C9.67086 12.7531 9.35008 12.781 9.0293 12.8368C5.84938 13.2273 3.19945 15.3891 2.16738 18.318C1.52581 20.1171 2.90657 22 4.81731 22H13.7155C13.1437 21.9302 12.6276 21.6095 12.3347 21.1074Z" fill="#A3A8AF"/>
<path fill-rule="evenodd" clip-rule="evenodd" d="M18.7643 14.4407C18.6527 14.371 18.5272 14.3152 18.4017 14.2594L18.2204 13.4226C18.1785 13.2134 17.9972 13.0739 17.788 13.0739H16.1701C15.9609 13.0739 15.7796 13.2134 15.7378 13.4226L15.5565 14.2594C15.4449 14.3012 15.3194 14.357 15.2078 14.4268C15.0962 14.4965 14.9847 14.5662 14.8731 14.6499L14.0642 14.3849C13.8689 14.3152 13.6457 14.3989 13.5481 14.5802L12.7392 15.9749C12.6416 16.1562 12.6695 16.3794 12.8229 16.5188L13.4505 17.0906C13.4365 17.2301 13.4365 17.3696 13.4365 17.4951C13.4365 17.6206 13.4505 17.7601 13.4644 17.8856L12.8229 18.4575C12.6695 18.5969 12.6276 18.8201 12.7392 19.0014L13.5481 20.3961C13.6457 20.5774 13.8689 20.6611 14.0642 20.5913L14.8731 20.3264C14.9847 20.41 15.0962 20.4798 15.2078 20.5495C15.3194 20.6053 15.431 20.675 15.5425 20.7169L15.7238 21.5537C15.7657 21.7629 15.947 21.9024 16.1562 21.9024H17.7741C17.9833 21.9024 18.1646 21.7629 18.2064 21.5537L18.3877 20.7169C18.5132 20.6611 18.6248 20.6053 18.7503 20.5356C18.8619 20.4658 18.9735 20.3961 19.0711 20.3264L19.8801 20.5913C20.0753 20.6611 20.2985 20.5774 20.3961 20.3961L21.205 19.0014C21.3026 18.8201 21.2748 18.5969 21.1213 18.4575L20.4937 17.8856C20.5077 17.7601 20.5216 17.6206 20.5216 17.4951C20.5216 17.3696 20.5077 17.2301 20.4937 17.1046L21.1213 16.5328C21.2748 16.3933 21.3166 16.1701 21.205 15.9888L20.3961 14.5941C20.2985 14.4128 20.0753 14.3291 19.8801 14.3989L19.0711 14.6639C18.9735 14.5662 18.8759 14.4965 18.7643 14.4407ZM16.9791 19.2664C17.9554 19.2664 18.7503 18.4714 18.7503 17.4951C18.7503 16.5188 17.9554 15.7238 16.9791 15.7238C16.0028 15.7238 15.2078 16.5188 15.2078 17.4951C15.2078 18.4714 16.0028 19.2664 16.9791 19.2664Z" fill="#A3A8AF"/>
</g>
<defs>
<clipPath id="clip0_14514_9711">
<rect width="19.2748" height="20" fill="white" transform="translate(2 2)"/>
</clipPath>
</defs>
</svg>
