<svg width="24" height="24" viewBox="0 0 24 24" fill="none" xmlns="http://www.w3.org/2000/svg">
    <g clip-path="url(#clip0_7361_5801)">
        <path d="M21.7383 8.25026C21.5765 7.86844 21.2569 7.73563 20.8709 7.73563C20.0077 7.73148 19.1444 7.73148 18.277 7.73563C18.1318 7.73563 18.1069 7.70243 18.1484 7.56132C18.3642 6.86823 18.3974 6.17099 18.2604 5.45715C17.7873 2.96286 15.2142 1.42727 12.7987 2.19921C10.57 2.91305 9.32082 5.31604 10.0181 7.54887C10.0513 7.66093 10.0928 7.73563 9.91015 7.73563C8.92239 7.72733 7.93464 7.73148 6.94273 7.73563C6.82237 7.73563 6.77672 7.69828 6.74767 7.58207C6.62316 7.10895 6.48205 6.63997 6.35339 6.16684C6.22059 5.67711 5.94252 5.453 5.42789 5.453C4.92156 5.44885 4.41938 5.44885 3.91305 5.453C3.39012 5.45715 3.00415 5.80992 3 6.29135C2.99585 6.76448 3.39012 7.13385 3.91305 7.138C4.19112 7.14215 4.46504 7.14215 4.7431 7.138C4.86346 7.13385 4.91741 7.1795 4.94646 7.29156C5.06682 7.73978 5.19133 8.18386 5.31583 8.62793C6.05873 11.3214 6.80162 14.0108 7.54866 16.7043C7.70222 17.2521 7.95539 17.4389 8.51982 17.4389C10.1841 17.4389 11.8525 17.4389 13.5167 17.4389C15.1976 17.4389 16.8784 17.4389 18.5551 17.4389C19.0614 17.4389 19.3353 17.2397 19.4806 16.75C19.7089 15.9822 19.9288 15.2144 20.1529 14.4466C20.6925 12.5873 21.2278 10.7238 21.7632 8.86035C21.8172 8.65698 21.8255 8.45362 21.7383 8.25026ZM14.1102 3.66425C15.5171 3.66425 16.6875 4.87197 16.6833 6.3204C16.6792 7.71488 15.4922 8.8894 14.0894 8.88525C12.6618 8.8811 11.4997 7.71488 11.5038 6.2789C11.5038 4.84707 12.6825 3.66425 14.1102 3.66425ZM19.8043 9.61569C19.3893 11.0309 18.9826 12.4503 18.5717 13.8697C18.4098 14.4341 18.2438 14.9944 18.0903 15.5588C18.0488 15.7165 17.9782 15.7746 17.8081 15.7746C16.3762 15.7663 14.9444 15.7705 13.5167 15.7705C12.0932 15.7705 10.6696 15.7663 9.24611 15.7746C9.07595 15.7746 9.00955 15.7248 8.96389 15.563C8.47417 13.7659 7.97614 11.973 7.47811 10.1801C7.42416 9.98091 7.37435 9.77755 7.30795 9.58249C7.26645 9.45383 7.2955 9.41648 7.43246 9.41648C8.01349 9.42478 8.59452 9.42063 9.17556 9.42063C9.79809 9.42063 10.4206 9.42063 11.0432 9.42063C11.1428 9.42063 11.2258 9.43723 11.3088 9.50778C12.2094 10.288 13.2635 10.6325 14.4464 10.5412C15.3511 10.4706 16.1563 10.1303 16.8493 9.53684C16.9407 9.45798 17.0278 9.42063 17.144 9.42063C17.9824 9.42478 18.8166 9.42478 19.6549 9.42063C19.8126 9.41648 19.8541 9.44968 19.8043 9.61569Z" fill="#A3A8AF"/>
        <path d="M10.1177 18.0531C8.99709 18.049 8.13384 18.9081 8.12969 20.0245C8.12969 21.1243 9.00124 22 10.0969 22C11.1801 22 12.0724 21.1118 12.0766 20.0245C12.0807 18.9496 11.1967 18.0573 10.1177 18.0531ZM10.1052 20.3358C9.95165 20.3441 9.80224 20.2029 9.79809 20.0452C9.78979 19.8709 9.92675 19.7257 10.0969 19.7215C10.2588 19.7174 10.3957 19.8543 10.3999 20.0203C10.404 20.178 10.2671 20.3275 10.1052 20.3358Z" fill="#A3A8AF"/>
        <path d="M16.9489 18.0531C15.8408 18.0531 14.9734 18.9122 14.9734 20.0162C14.9734 21.1243 15.8367 22 16.9323 22C18.028 22 18.9245 21.1077 18.9203 20.012C18.9203 18.9371 18.0322 18.0531 16.9489 18.0531ZM16.9531 20.3358C16.7995 20.3441 16.6501 20.2071 16.6418 20.0452C16.6335 19.8709 16.7663 19.7257 16.9406 19.7215C17.1025 19.7174 17.2395 19.8502 17.2436 20.0203C17.2478 20.178 17.115 20.3233 16.9531 20.3358Z" fill="#A3A8AF"/>
        <path d="M13.5541 13.5833C12.2965 13.5833 11.039 13.5709 9.78149 13.5916C9.34571 13.5999 8.99294 13.2928 8.90164 12.8446C8.81863 12.4295 9.03444 11.9772 9.40382 11.8029C9.52832 11.7448 9.65698 11.7448 9.78979 11.7448C12.3131 11.7448 14.8365 11.7572 17.3598 11.7365C18.0031 11.7323 18.3849 12.3382 18.2438 12.9151C18.1484 13.2886 17.8579 13.5958 17.3764 13.5916C16.0982 13.5709 14.824 13.5833 13.5541 13.5833Z" fill="#A3A8AF"/>
        <path d="M14.0728 8.26686C13.6329 8.26271 13.2594 7.90579 13.2552 7.44511C13.2511 7.21685 13.2179 7.12554 12.9564 7.12969C12.5372 7.13384 12.1886 6.82258 12.1264 6.45321C12.0558 6.05063 12.2509 5.68956 12.6244 5.52355C12.7323 5.47375 12.8527 5.44055 12.9647 5.453C13.222 5.4862 13.2552 5.36999 13.2511 5.15003C13.2469 4.88441 13.359 4.652 13.579 4.48599C13.8446 4.28678 14.1351 4.26188 14.4381 4.39469C14.7825 4.54825 14.9278 4.84291 14.9278 5.19153C14.9278 5.4115 14.9983 5.44885 15.1975 5.44885C15.7122 5.453 16.0691 5.82652 16.0608 6.30795C16.0525 6.76862 15.6748 7.12139 15.1685 7.12554C15.0025 7.12554 14.9361 7.15045 14.9236 7.34551C14.9029 7.93484 14.5667 8.27516 14.0728 8.26686Z" fill="#A3A8AF"/>
    </g>
    <defs>
        <clipPath id="clip0_7361_5801">
            <rect width="18.8047" height="20" fill="white" transform="translate(3 2)"/>
        </clipPath>
    </defs>
</svg>