<svg viewBox="0 0 24 24" fill="none" xmlns="http://www.w3.org/2000/svg">
    <path fill-rule="evenodd" clip-rule="evenodd"
          d="M4.9079 19.0922C1.02222 15.2065 1.04755 8.88127 4.96447 4.96435C8.88139 1.04743 15.2067 1.0221 19.0923 4.90778C22.978 8.79346 22.9527 15.1187 19.0358 19.0356C15.1188 22.9526 8.79358 22.9779 4.9079 19.0922ZM8.00002 13H13.17L11.29 14.89C10.9 15.28 10.9 15.91 11.29 16.3C11.68 16.69 12.31 16.69 12.7 16.3L16.64 12.36C16.84 12.16 16.84 11.85 16.64 11.65L12.7 7.71C12.31 7.32 11.68 7.32 11.29 7.71C10.9 8.1 10.9 8.72999 11.29 9.11999L13.17 11H8.00002C7.45002 11 7.00002 11.45 7.00002 12C7.00002 12.55 7.45002 13 8.00002 13Z"
          fill="#A3A8AF"/>
</svg>
