<svg viewBox="0 0 24 24" fill="none" xmlns="http://www.w3.org/2000/svg">
    <path fill-rule="evenodd" clip-rule="evenodd"
          d="M4.91069 4.91078C8.80026 1.0212 15.1319 1.04655 19.0527 4.9674C22.9736 8.88825 22.9989 15.2199 19.1093 19.1094C15.2198 22.999 8.88816 22.9736 4.96731 19.0528C1.04646 15.132 1.02111 8.80035 4.91069 4.91078ZM7.71571 11.2693L11.6096 15.1632C11.7998 15.3534 12.1201 15.3534 12.3103 15.1632L16.2042 11.2593C16.5946 10.8689 16.5946 10.2382 16.2042 9.84784C15.8138 9.45745 15.1832 9.45745 14.7928 9.84784L11.96 12.6807L9.12712 9.85785C8.73673 9.46746 8.1061 9.46746 7.71571 9.85785C7.32532 10.2482 7.32532 10.8789 7.71571 11.2693Z"
          fill="currentColor"/>
</svg>
