<svg viewBox="0 0 24 24" fill="none" xmlns="http://www.w3.org/2000/svg">
    <path d="M11.6734 8.45959V5.5199C11.6734 5.31052 11.7991 5.12627 11.9917 5.04252C12.1843 4.95877 12.4021 5.00064 12.5528 5.1514L18.4322 10.8549C18.5327 10.9554 18.5913 11.0894 18.5913 11.2318C18.5913 11.3741 18.5327 11.5081 18.4322 11.6003L12.5528 17.3121C12.4021 17.4545 12.1843 17.4964 11.9917 17.421C11.7991 17.3373 11.6734 17.153 11.6734 16.9436V14.0039H10.6935C7.48584 14.0039 4.52941 15.746 2.98 18.5517L2.96325 18.5768C2.87112 18.7443 2.69524 18.8448 2.51099 18.8448C2.46912 18.8448 2.42724 18.8364 2.38536 18.828C2.15924 18.7694 2.00011 18.56 2.00011 18.3255C1.98336 12.9403 6.31332 8.55171 11.6734 8.45959Z"
          fill="#A3A8AF"/>
    <path d="M15.5765 17.2776C15.7356 17.2776 15.9031 17.219 16.0288 17.1018L21.7909 11.6579C21.9249 11.5323 22.0002 11.3648 22.0002 11.1805C22.0002 10.9963 21.9249 10.8288 21.7909 10.7031L16.0288 5.26766C15.7607 5.0164 15.3504 5.03315 15.0991 5.29278C14.8479 5.56079 14.8646 5.97117 15.1242 6.22243L20.3838 11.1805L15.1242 16.1386C14.8562 16.3899 14.8479 16.8086 15.0991 17.0683C15.2247 17.2106 15.4006 17.2776 15.5765 17.2776Z"
          fill="#A3A8AF"/>
</svg>
