<svg viewBox="0 0 24 24" fill="none" xmlns="http://www.w3.org/2000/svg">
    <path fill-rule="evenodd" clip-rule="evenodd"
          d="M19.0993 19.0993C15.2098 22.9889 8.87815 22.9635 4.9573 19.0427C1.03645 15.1219 1.0111 8.79025 4.90068 4.90068C8.79025 1.0111 15.1219 1.03645 19.0427 4.9573C22.9635 8.87815 22.9889 15.2098 19.0993 19.0993ZM16.2943 12.7408L12.4004 8.84694C12.2102 8.65675 11.8899 8.65675 11.6997 8.84694L7.8058 12.7509C7.41541 13.1412 7.41541 13.7719 7.8058 14.1623C8.19619 14.5527 8.82682 14.5527 9.21721 14.1623L12.0501 11.3294L14.8829 14.1523C15.2733 14.5426 15.9039 14.5426 16.2943 14.1523C16.6847 13.7619 16.6847 13.1312 16.2943 12.7408Z"
          fill="#A3A8AF"/>
</svg>
