<svg viewBox="0 0 24 24" fill="none" xmlns="http://www.w3.org/2000/svg">
    <path fill-rule="evenodd" clip-rule="evenodd"
          d="M4.91079 19.1093C1.02122 15.2198 1.04657 8.88816 4.96742 4.96731C8.88827 1.04647 15.2199 1.02112 19.1094 4.91069C22.999 8.80027 22.9737 15.1319 19.0528 19.0527C15.132 22.9736 8.80036 22.9989 4.91079 19.1093ZM11.2693 16.3043L15.1632 12.4104C15.3534 12.2202 15.3534 11.8999 15.1632 11.7097L11.2593 7.81581C10.8689 7.42542 10.2382 7.42542 9.84785 7.81581C9.45746 8.2062 9.45746 8.83683 9.84785 9.22723L12.6807 12.0601L9.85786 14.8929C9.46747 15.2833 9.46747 15.9139 9.85786 16.3043C10.2483 16.6947 10.8789 16.6947 11.2693 16.3043Z"
          fill="currentColor"/>
</svg>
