<svg viewBox="0 0 24 24" fill="none" xmlns="http://www.w3.org/2000/svg">
    <path fill-rule="evenodd" clip-rule="evenodd"
          d="M19.1092 4.91069C22.9988 8.80026 22.9734 15.1319 19.0526 19.0527C15.1317 22.9736 8.80014 22.9989 4.91056 19.1093C1.02099 15.2198 1.04634 8.88816 4.96719 4.96731C8.88804 1.04646 15.2196 1.02111 19.1092 4.91069ZM12.7507 7.71571L8.85683 11.6096C8.66664 11.7998 8.66664 12.1201 8.85683 12.3103L12.7607 16.2042C13.1511 16.5946 13.7818 16.5946 14.1722 16.2042C14.5625 15.8138 14.5625 15.1832 14.1722 14.7928L11.3393 11.96L14.1621 9.12712C14.5525 8.73673 14.5525 8.1061 14.1621 7.71571C13.7718 7.32532 13.1411 7.32532 12.7507 7.71571Z"
          fill="#A3A8AF"/>
</svg>
