<svg viewBox="0 0 24 24" fill="none" xmlns="http://www.w3.org/2000/svg">
    <path fill-rule="evenodd" clip-rule="evenodd"
          d="M19.1093 19.1092C15.2198 22.9988 8.88816 22.9735 4.96731 19.0526C1.04646 15.1318 1.02111 8.80017 4.91069 4.91059C8.80026 1.02102 15.1319 1.04637 19.0527 4.96722C22.9736 8.88807 22.9989 15.2197 19.1093 19.1092ZM13.011 16.014V10.8388L14.9029 12.7207C15.2933 13.1111 15.9239 13.1111 16.3143 12.7207C16.7047 12.3303 16.7047 11.6997 16.3143 11.3093L12.3704 7.36537C12.1702 7.16517 11.8599 7.16517 11.6597 7.36537L7.71571 11.3093C7.32532 11.6997 7.32532 12.3303 7.71571 12.7207C8.1061 13.1111 8.73673 13.1111 9.12712 12.7207L11.009 10.8388V16.014C11.009 16.5646 11.4595 17.015 12.01 17.015C12.5606 17.015 13.011 16.5646 13.011 16.014Z"
          fill="#A3A8AF"/>
</svg>
