<svg viewBox="0 0 24 24" fill="none" xmlns="http://www.w3.org/2000/svg">
    <path fill-rule="evenodd" clip-rule="evenodd"
          d="M19.0993 4.90068C22.9889 8.79025 22.9635 15.1219 19.0427 19.0427C15.1219 22.9635 8.79025 22.9889 4.90068 19.0993C1.0111 15.2098 1.03645 8.87815 4.9573 4.9573C8.87815 1.03645 15.2098 1.0111 19.0993 4.90068ZM16.0041 10.999H10.8289L12.7108 9.1071C13.1012 8.71671 13.1012 8.08608 12.7108 7.69569C12.3204 7.3053 11.6898 7.3053 11.2994 7.69569L7.35545 11.6396C7.15525 11.8398 7.15525 12.1502 7.35545 12.3504L11.2994 16.2943C11.6898 16.6847 12.3204 16.6847 12.7108 16.2943C13.1012 15.9039 13.1012 15.2733 12.7108 14.8829L10.8289 13.001H16.0041C16.5547 13.001 17.0051 12.5506 17.0051 12C17.0051 11.4494 16.5547 10.999 16.0041 10.999Z"
          fill="#A3A8AF"/>
</svg>
