<svg viewBox="0 0 24 24" fill="none" xmlns="http://www.w3.org/2000/svg">
    <path fill-rule="evenodd" clip-rule="evenodd"
          d="M4.90068 4.90068C8.79025 1.0111 15.1219 1.03645 19.0427 4.9573C22.9635 8.87815 22.9889 15.2098 19.0993 19.0993C15.2098 22.9889 8.87815 22.9635 4.9573 19.0427C1.03645 15.1219 1.0111 8.79025 4.90068 4.90068ZM10.999 7.99589L10.999 13.1711L9.1071 11.2892C8.71671 10.8988 8.08608 10.8988 7.69569 11.2892C7.3053 11.6796 7.3053 12.3102 7.69569 12.7006L11.6396 16.6446C11.8398 16.8448 12.1502 16.8448 12.3504 16.6446L16.2943 12.7006C16.6847 12.3102 16.6847 11.6796 16.2943 11.2892C15.9039 10.8988 15.2733 10.8988 14.8829 11.2892L13.001 13.1711V7.99589C13.001 7.44534 12.5506 6.99489 12 6.99489C11.4494 6.99489 10.999 7.44534 10.999 7.99589Z"
          fill="#A3A8AF"/>
</svg>
