<svg viewBox="0 0 24 24" fill="none" xmlns="http://www.w3.org/2000/svg">
    <path d="M3.25 20.125C3.20234 20.125 3.15422 20.1195 3.10656 20.1086C2.82453 20.0414 2.625 19.7899 2.625 19.5C2.625 13.8206 3.34344 9.0972 12 8.88235V4.50001C12 4.25157 12.147 4.02704 12.3742 3.92751C12.6006 3.8286 12.8661 3.87142 13.0492 4.0411L21.1742 11.5411C21.3023 11.6588 21.375 11.8255 21.375 12C21.375 12.1745 21.3023 12.3413 21.1742 12.4591L13.0492 19.9591C12.8667 20.1288 12.6012 20.1727 12.3742 20.0727C12.147 19.973 12 19.7484 12 19.5V15.1324C6.06187 15.2745 4.96625 17.4652 3.80906 19.7795C3.70172 19.995 3.4825 20.125 3.25 20.125ZM12.625 13.875C12.9705 13.875 13.25 14.1545 13.25 14.5V18.0724L19.8284 12L13.25 5.92767V9.50001C13.25 9.84548 12.9705 10.125 12.625 10.125C5.72062 10.125 4.23391 12.7953 3.94156 17.0605C5.23609 15.3216 7.4425 13.875 12.625 13.875Z"
          fill="#A3A8AF"/>
</svg>
