<svg viewBox="0 0 24 24" fill="none" xmlns="http://www.w3.org/2000/svg">
    <path fill-rule="evenodd" clip-rule="evenodd"
          d="M19.6053 7.23836L20.5373 18.4929C20.6096 19.3958 20.2834 20.2932 19.6423 20.9564C19.0013 21.6196 18.0926 22 17.1493 22H7.39803C6.45462 22 5.54598 21.6196 4.90501 20.9564C4.26397 20.2932 3.93772 19.3958 4.00986 18.4944L4.94206 7.23684C4.99998 6.51324 5.63989 5.94527 6.39869 5.94527H8.23958V5.86598C8.23958 3.73426 10.0492 2 12.2736 2C14.498 2 16.3077 3.73426 16.3077 5.86598V5.94527H18.1486C18.9074 5.94527 19.5473 6.51328 19.6053 7.23836ZM12.2736 3.17148C10.7233 3.17148 9.46199 4.38023 9.46199 5.86598V5.94527H15.0853V5.86598C15.0853 4.38027 13.824 3.17148 12.2736 3.17148ZM17.1493 20.8285C17.7621 20.8285 18.329 20.5912 18.7454 20.1604C19.1619 19.7294 19.3655 19.1696 19.3187 18.584L18.3867 7.32949C18.377 7.20953 18.2725 7.11676 18.1486 7.11676H16.3078V8.55953C16.3078 8.88301 16.0341 9.14527 15.6966 9.14527C15.359 9.14527 15.0854 8.88301 15.0854 8.55953V7.11676H9.46204V8.55953C9.46204 8.88301 9.18837 9.14527 8.85083 9.14527C8.51329 9.14527 8.23962 8.88301 8.23962 8.55953V7.11676H6.39873C6.27482 7.11676 6.17027 7.20953 6.16081 7.32797L5.22861 18.5855C5.18182 19.1696 5.38534 19.7295 5.80183 20.1603C6.21829 20.5912 6.78515 20.8285 7.39803 20.8285H17.1493ZM9.5439 13.9727C9.5439 12.5301 10.7685 11.3565 12.2738 11.3565C13.779 11.3565 15.0037 12.5301 15.0037 13.9727C15.0037 15.4153 13.779 16.5889 12.2738 16.5889C10.7685 16.5889 9.5439 15.4153 9.5439 13.9727ZM10.7663 13.9727C10.7663 14.7693 11.4426 15.4173 12.2738 15.4173C13.105 15.4173 13.7813 14.7693 13.7813 13.9727C13.7813 13.176 13.105 12.528 12.2738 12.528C11.4426 12.528 10.7663 13.176 10.7663 13.9727Z"
          fill="#A3A8AF"/>
    <path d="M20.5373 18.4929L20.7865 18.473L20.7865 18.4723L20.5373 18.4929ZM19.6053 7.23836L19.3561 7.25832L19.3562 7.25899L19.6053 7.23836ZM19.6423 20.9564L19.4626 20.7827H19.4626L19.6423 20.9564ZM4.90501 20.9564L5.08478 20.7826L5.08477 20.7826L4.90501 20.9564ZM4.00986 18.4944L3.76071 18.4738L3.76066 18.4745L4.00986 18.4944ZM4.94206 7.23684L5.19121 7.25747L5.19127 7.25678L4.94206 7.23684ZM8.23958 5.94527V6.19527H8.48958V5.94527H8.23958ZM16.3077 5.94527H16.0577V6.19527H16.3077V5.94527ZM9.46199 5.94527H9.21199V6.19527H9.46199V5.94527ZM15.0853 5.94527V6.19527H15.3353V5.94527H15.0853ZM18.7454 20.1604L18.9252 20.3341L18.9252 20.3341L18.7454 20.1604ZM19.3187 18.584L19.5679 18.5641L19.5678 18.5634L19.3187 18.584ZM18.3867 7.32949L18.1375 7.34948L18.1375 7.35012L18.3867 7.32949ZM16.3078 7.11676V6.86676H16.0578V7.11676H16.3078ZM15.0854 7.11676H15.3354V6.86676H15.0854V7.11676ZM9.46204 7.11676V6.86676H9.21204V7.11676H9.46204ZM8.23962 7.11676H8.48962V6.86676H8.23962V7.11676ZM6.16081 7.32797L6.40996 7.3486L6.41002 7.34787L6.16081 7.32797ZM5.22861 18.5855L4.97946 18.5649L4.97941 18.5656L5.22861 18.5855ZM5.80183 20.1603L5.9816 19.9866L5.98158 19.9866L5.80183 20.1603ZM20.7865 18.4723L19.8545 7.21773L19.3562 7.25899L20.2882 18.5135L20.7865 18.4723ZM19.8221 21.1302C20.5119 20.4165 20.8646 19.4489 20.7865 18.473L20.2881 18.5128C20.3545 19.3426 20.0548 20.1699 19.4626 20.7827L19.8221 21.1302ZM17.1493 22.25C18.1587 22.25 19.1328 21.8433 19.8221 21.1302L19.4626 20.7827C18.8698 21.3959 18.0266 21.75 17.1493 21.75V22.25ZM7.39803 22.25H17.1493V21.75H7.39803V22.25ZM4.72524 21.1301C5.41451 21.8433 6.38857 22.25 7.39803 22.25V21.75C6.52066 21.75 5.67744 21.3959 5.08478 20.7826L4.72524 21.1301ZM3.76066 18.4745C3.68266 19.449 4.03547 20.4165 4.72526 21.1301L5.08477 20.7826C4.49246 20.1698 4.19277 19.3426 4.25906 18.5144L3.76066 18.4745ZM4.69292 7.21621L3.76071 18.4738L4.25901 18.515L5.19121 7.25747L4.69292 7.21621ZM6.39869 5.69527C5.51868 5.69527 4.76189 6.35447 4.69286 7.21689L5.19127 7.25678C5.23808 6.67201 5.7611 6.19527 6.39869 6.19527V5.69527ZM8.23958 5.69527H6.39869V6.19527H8.23958V5.69527ZM7.98958 5.86598V5.94527H8.48958V5.86598H7.98958ZM12.2736 1.75C9.9213 1.75 7.98958 3.58627 7.98958 5.86598H8.48958C8.48958 3.88225 10.1772 2.25 12.2736 2.25V1.75ZM16.5577 5.86598C16.5577 3.58626 14.626 1.75 12.2736 1.75V2.25C14.3701 2.25 16.0577 3.88225 16.0577 5.86598H16.5577ZM16.5577 5.94527V5.86598H16.0577V5.94527H16.5577ZM18.1486 5.69527H16.3077V6.19527H18.1486V5.69527ZM19.8545 7.2184C19.7853 6.35469 19.0288 5.69527 18.1486 5.69527V6.19527C18.786 6.19527 19.3092 6.67187 19.3561 7.25832L19.8545 7.2184ZM9.71199 5.86598C9.71199 4.52823 10.8512 3.42148 12.2736 3.42148V2.92148C10.5954 2.92148 9.21199 4.23224 9.21199 5.86598H9.71199ZM9.71199 5.94527V5.86598H9.21199V5.94527H9.71199ZM15.0853 5.69527H9.46199V6.19527H15.0853V5.69527ZM14.8353 5.86598V5.94527H15.3353V5.86598H14.8353ZM12.2736 3.42148C13.6961 3.42148 14.8353 4.52827 14.8353 5.86598H15.3353C15.3353 4.23228 13.952 2.92148 12.2736 2.92148V3.42148ZM18.5657 19.9866C18.1975 20.3675 17.6961 20.5785 17.1493 20.5785V21.0785C17.8282 21.0785 18.4604 20.815 18.9252 20.3341L18.5657 19.9866ZM19.0695 18.6039C19.1104 19.1164 18.9334 19.6061 18.5657 19.9866L18.9252 20.3341C19.3904 19.8527 19.6206 19.2228 19.5679 18.5641L19.0695 18.6039ZM18.1375 7.35012L19.0695 18.6046L19.5678 18.5634L18.6358 7.30886L18.1375 7.35012ZM18.1486 7.36676C18.1476 7.36676 18.1459 7.36632 18.1441 7.36472C18.1421 7.36296 18.1381 7.35778 18.1375 7.34948L18.6359 7.30951C18.6152 7.05199 18.395 6.86676 18.1486 6.86676V7.36676ZM16.3078 7.36676H18.1486V6.86676H16.3078V7.36676ZM16.5578 8.55953V7.11676H16.0578V8.55953H16.5578ZM15.6966 9.39527C16.1621 9.39527 16.5578 9.031 16.5578 8.55953H16.0578C16.0578 8.73502 15.9062 8.89527 15.6966 8.89527V9.39527ZM14.8354 8.55953C14.8354 9.031 15.2311 9.39527 15.6966 9.39527V8.89527C15.487 8.89527 15.3354 8.73502 15.3354 8.55953H14.8354ZM14.8354 7.11676V8.55953H15.3354V7.11676H14.8354ZM9.46204 7.36676H15.0854V6.86676H9.46204V7.36676ZM9.71204 8.55953V7.11676H9.21204V8.55953H9.71204ZM8.85083 9.39527C9.3163 9.39527 9.71204 9.031 9.71204 8.55953H9.21204C9.21204 8.73502 9.06043 8.89527 8.85083 8.89527V9.39527ZM7.98962 8.55953C7.98962 9.031 8.38535 9.39527 8.85083 9.39527V8.89527C8.64122 8.89527 8.48962 8.73502 8.48962 8.55953H7.98962ZM7.98962 7.11676V8.55953H8.48962V7.11676H7.98962ZM6.39873 7.36676H8.23962V6.86676H6.39873V7.36676ZM6.41002 7.34787C6.40923 7.3578 6.40455 7.36337 6.40281 7.36492C6.40117 7.36638 6.39965 7.36676 6.39873 7.36676V6.86676C6.15347 6.86676 5.93214 7.05091 5.91161 7.30807L6.41002 7.34787ZM5.47776 18.6062L6.40996 7.3486L5.91167 7.30734L4.97946 18.5649L5.47776 18.6062ZM5.98158 19.9866C5.61376 19.6061 5.43689 19.1163 5.47781 18.6055L4.97941 18.5656C4.92675 19.2229 5.15691 19.8528 5.62208 20.3341L5.98158 19.9866ZM7.39803 20.5785C6.85119 20.5785 6.34975 20.3675 5.9816 19.9866L5.62207 20.3341C6.08682 20.8149 6.7191 21.0785 7.39803 21.0785V20.5785ZM17.1493 20.5785H7.39803V21.0785H17.1493V20.5785ZM12.2738 11.1065C10.6406 11.1065 9.2939 12.3821 9.2939 13.9727H9.7939C9.7939 12.6781 10.8965 11.6065 12.2738 11.6065V11.1065ZM15.2537 13.9727C15.2537 12.3821 13.9069 11.1065 12.2738 11.1065V11.6065C13.6511 11.6065 14.7537 12.6781 14.7537 13.9727H15.2537ZM12.2738 16.8389C13.907 16.8389 15.2537 15.5633 15.2537 13.9727H14.7537C14.7537 15.2673 13.6511 16.3389 12.2738 16.3389V16.8389ZM9.2939 13.9727C9.2939 15.5633 10.6406 16.8389 12.2738 16.8389V16.3389C10.8965 16.3389 9.7939 15.2673 9.7939 13.9727H9.2939ZM12.2738 15.1673C11.5705 15.1673 11.0163 14.6213 11.0163 13.9727H10.5163C10.5163 14.9173 11.3146 15.6673 12.2738 15.6673V15.1673ZM13.5313 13.9727C13.5313 14.6213 12.977 15.1673 12.2738 15.1673V15.6673C13.2329 15.6673 14.0313 14.9173 14.0313 13.9727H13.5313ZM12.2738 12.778C12.977 12.778 13.5313 13.324 13.5313 13.9727H14.0313C14.0313 13.028 13.2329 12.278 12.2738 12.278V12.778ZM11.0163 13.9727C11.0163 13.324 11.5705 12.778 12.2738 12.778V12.278C11.3146 12.278 10.5163 13.028 10.5163 13.9727H11.0163Z"
          fill="#A3A8AF"/>
</svg>
