<svg viewBox="0 0 24 24" fill="none" xmlns="http://www.w3.org/2000/svg">
    <mask id="path-1-inside-1_1_1769" fill="white">
        <path fill-rule="evenodd" clip-rule="evenodd"
              d="M19.8483 18.4929L18.9552 7.2384C18.8995 6.51328 18.2863 5.94531 17.5591 5.94531H15.795V5.86602C15.795 3.73426 14.0607 2 11.929 2C9.79726 2 8.06301 3.73426 8.06301 5.86598V5.94527H6.29886C5.57164 5.94527 4.9584 6.51324 4.90293 7.23684L4.00945 18.4944C3.94031 19.3958 4.253 20.2932 4.8673 20.9564C5.4816 21.6196 6.35242 22 7.25644 22H16.6014C17.5054 22 18.3763 21.6196 18.9906 20.9564C19.6048 20.2931 19.9175 19.3958 19.8483 18.4929ZM9.23445 5.86598C9.23445 4.38023 10.4432 3.17148 11.9289 3.17148C13.4146 3.17148 14.6234 4.38027 14.6234 5.86598V5.94527H9.23445V5.86598ZM18.1311 20.1604C17.732 20.5912 17.1888 20.8285 16.6014 20.8285H7.25648C6.66914 20.8285 6.12593 20.5912 5.72679 20.1604C5.32769 19.7295 5.13261 19.1696 5.17746 18.5855L6.07082 7.32793C6.07988 7.20949 6.18004 7.11676 6.29883 7.11676H8.06297V8.55953C8.06297 8.88301 8.32523 9.14527 8.64871 9.14527C8.97219 9.14527 9.23445 8.88301 9.23445 8.55953V7.11676H14.6235V8.55953C14.6235 8.88301 14.8857 9.14527 15.2092 9.14527C15.5327 9.14527 15.795 8.88301 15.795 8.55953V7.11676H17.5591C17.6779 7.11676 17.778 7.20949 17.7872 7.32949L18.6804 18.584C18.7253 19.1696 18.5302 19.7294 18.1311 20.1604ZM11.929 10.175C10.0681 10.175 8.55424 11.689 8.55424 13.5498C8.55424 15.34 10.1688 16.7603 11.0362 17.5232C11.1482 17.6218 11.2449 17.7068 11.3194 17.7764C11.4903 17.9361 11.7097 18.016 11.929 18.016C12.1484 18.016 12.3678 17.9361 12.5387 17.7765C12.6126 17.7074 12.7085 17.623 12.8194 17.5254L12.8219 17.5232L12.8221 17.5231C13.6895 16.76 15.3038 15.3399 15.3038 13.5498C15.3037 11.689 13.7898 10.175 11.929 10.175ZM12.0283 16.6611C11.9938 16.6914 11.9607 16.7205 11.929 16.7486C11.8913 16.7152 11.8516 16.6803 11.8099 16.6436C11.0815 16.0029 9.72573 14.8103 9.72573 13.5498C9.72573 12.3349 10.7141 11.3465 11.929 11.3465C13.1439 11.3465 14.1323 12.3349 14.1323 13.5498C14.1323 14.8103 12.7765 16.0029 12.0481 16.6436L12.0283 16.6611ZM10.4969 13.496C10.4969 12.7064 11.1393 12.0639 11.929 12.0639C12.7186 12.0639 13.361 12.7064 13.361 13.496C13.361 14.2857 12.7186 14.9281 11.929 14.9281C11.1393 14.9281 10.4969 14.2856 10.4969 13.496ZM11.6684 13.496C11.6684 13.6396 11.7852 13.7565 11.929 13.7565C12.0726 13.7565 12.1895 13.6396 12.1895 13.496C12.1895 13.3523 12.0726 13.2354 11.929 13.2354C11.7853 13.2354 11.6684 13.3523 11.6684 13.496Z"/>
    </mask>
    <path fill-rule="evenodd" clip-rule="evenodd"
          d="M19.8483 18.4929L18.9552 7.2384C18.8995 6.51328 18.2863 5.94531 17.5591 5.94531H15.795V5.86602C15.795 3.73426 14.0607 2 11.929 2C9.79726 2 8.06301 3.73426 8.06301 5.86598V5.94527H6.29886C5.57164 5.94527 4.9584 6.51324 4.90293 7.23684L4.00945 18.4944C3.94031 19.3958 4.253 20.2932 4.8673 20.9564C5.4816 21.6196 6.35242 22 7.25644 22H16.6014C17.5054 22 18.3763 21.6196 18.9906 20.9564C19.6048 20.2931 19.9175 19.3958 19.8483 18.4929ZM9.23445 5.86598C9.23445 4.38023 10.4432 3.17148 11.9289 3.17148C13.4146 3.17148 14.6234 4.38027 14.6234 5.86598V5.94527H9.23445V5.86598ZM18.1311 20.1604C17.732 20.5912 17.1888 20.8285 16.6014 20.8285H7.25648C6.66914 20.8285 6.12593 20.5912 5.72679 20.1604C5.32769 19.7295 5.13261 19.1696 5.17746 18.5855L6.07082 7.32793C6.07988 7.20949 6.18004 7.11676 6.29883 7.11676H8.06297V8.55953C8.06297 8.88301 8.32523 9.14527 8.64871 9.14527C8.97219 9.14527 9.23445 8.88301 9.23445 8.55953V7.11676H14.6235V8.55953C14.6235 8.88301 14.8857 9.14527 15.2092 9.14527C15.5327 9.14527 15.795 8.88301 15.795 8.55953V7.11676H17.5591C17.6779 7.11676 17.778 7.20949 17.7872 7.32949L18.6804 18.584C18.7253 19.1696 18.5302 19.7294 18.1311 20.1604ZM11.929 10.175C10.0681 10.175 8.55424 11.689 8.55424 13.5498C8.55424 15.34 10.1688 16.7603 11.0362 17.5232C11.1482 17.6218 11.2449 17.7068 11.3194 17.7764C11.4903 17.9361 11.7097 18.016 11.929 18.016C12.1484 18.016 12.3678 17.9361 12.5387 17.7765C12.6126 17.7074 12.7085 17.623 12.8194 17.5254L12.8219 17.5232L12.8221 17.5231C13.6895 16.76 15.3038 15.3399 15.3038 13.5498C15.3037 11.689 13.7898 10.175 11.929 10.175ZM12.0283 16.6611C11.9938 16.6914 11.9607 16.7205 11.929 16.7486C11.8913 16.7152 11.8516 16.6803 11.8099 16.6436C11.0815 16.0029 9.72573 14.8103 9.72573 13.5498C9.72573 12.3349 10.7141 11.3465 11.929 11.3465C13.1439 11.3465 14.1323 12.3349 14.1323 13.5498C14.1323 14.8103 12.7765 16.0029 12.0481 16.6436L12.0283 16.6611ZM10.4969 13.496C10.4969 12.7064 11.1393 12.0639 11.929 12.0639C12.7186 12.0639 13.361 12.7064 13.361 13.496C13.361 14.2857 12.7186 14.9281 11.929 14.9281C11.1393 14.9281 10.4969 14.2856 10.4969 13.496ZM11.6684 13.496C11.6684 13.6396 11.7852 13.7565 11.929 13.7565C12.0726 13.7565 12.1895 13.6396 12.1895 13.496C12.1895 13.3523 12.0726 13.2354 11.929 13.2354C11.7853 13.2354 11.6684 13.3523 11.6684 13.496Z"
          fill="#A3A8AF"/>
    <path d="M18.9552 7.2384L17.9581 7.31489L17.9583 7.31751L18.9552 7.2384ZM19.8483 18.4929L20.8454 18.4165L20.8452 18.4138L19.8483 18.4929ZM15.795 5.94531H14.795V6.94531H15.795V5.94531ZM8.06301 5.94527V6.94527H9.06301V5.94527H8.06301ZM4.90293 7.23684L5.8998 7.31595L5.9 7.31327L4.90293 7.23684ZM4.00945 18.4944L3.01258 18.4153L3.01238 18.4179L4.00945 18.4944ZM4.8673 20.9564L4.13366 21.6359H4.13366L4.8673 20.9564ZM18.9906 20.9564L19.7242 21.6359L19.7243 21.6359L18.9906 20.9564ZM14.6234 5.94527V6.94527H15.6234V5.94527H14.6234ZM9.23445 5.94527H8.23445V6.94527H9.23445V5.94527ZM18.1311 20.1604L18.8647 20.8399L18.8649 20.8398L18.1311 20.1604ZM5.72679 20.1604L4.99314 20.8399L4.9932 20.8399L5.72679 20.1604ZM5.17746 18.5855L4.18059 18.5064L4.18039 18.509L5.17746 18.5855ZM6.07082 7.32793L7.06769 7.40704L7.0679 7.40422L6.07082 7.32793ZM8.06297 7.11676H9.06297V6.11676H8.06297V7.11676ZM9.23445 7.11676V6.11676H8.23445V7.11676H9.23445ZM14.6235 7.11676H15.6235V6.11676H14.6235V7.11676ZM15.795 7.11676V6.11676H14.795V7.11676H15.795ZM17.7872 7.32949L16.7902 7.40609L16.7904 7.4086L17.7872 7.32949ZM18.6804 18.584L19.6775 18.5075L19.6773 18.5049L18.6804 18.584ZM11.0362 17.5232L10.3757 18.2741L10.3758 18.2742L11.0362 17.5232ZM11.3194 17.7764L10.6366 18.5071L10.6367 18.5072L11.3194 17.7764ZM12.5387 17.7765L13.2214 18.5071L13.2214 18.5071L12.5387 17.7765ZM12.8194 17.5254L13.4799 18.2762L13.4799 18.2762L12.8194 17.5254ZM12.8219 17.5232L12.1618 16.7721L12.1614 16.7724L12.8219 17.5232ZM12.8221 17.5231L13.4822 18.2742L13.4826 18.2739L12.8221 17.5231ZM15.3038 13.5498H16.3038V13.5498L15.3038 13.5498ZM11.929 16.7486L11.2662 17.4974L11.929 18.084L12.5918 17.4974L11.929 16.7486ZM12.0283 16.6611L12.6888 17.4119L12.6889 17.4119L12.0283 16.6611ZM11.8099 16.6436L11.1494 17.3945L11.1497 17.3947L11.8099 16.6436ZM14.1323 13.5498L15.1323 13.5498V13.5498H14.1323ZM12.0481 16.6436L11.3876 15.8928L11.3875 15.8929L12.0481 16.6436ZM13.361 13.496H14.361V13.496L13.361 13.496ZM17.9583 7.31751L18.8515 18.572L20.8452 18.4138L19.952 7.15929L17.9583 7.31751ZM17.5591 6.94531C17.7637 6.94531 17.9424 7.11086 17.9581 7.31489L19.9522 7.16191C19.8566 5.9157 18.8089 4.94531 17.5591 4.94531V6.94531ZM15.795 6.94531H17.5591V4.94531H15.795V6.94531ZM14.795 5.86602V5.94531H16.795V5.86602H14.795ZM11.929 3C13.5084 3 14.795 4.28654 14.795 5.86602H16.795C16.795 3.18198 14.613 1 11.929 1V3ZM9.06301 5.86598C9.06301 4.28654 10.3495 3 11.929 3V1C9.24498 1 7.06301 3.18197 7.06301 5.86598H9.06301ZM9.06301 5.94527V5.86598H7.06301V5.94527H9.06301ZM6.29886 6.94527H8.06301V4.94527H6.29886V6.94527ZM5.9 7.31327C5.91547 7.11152 6.09353 6.94527 6.29886 6.94527V4.94527C5.04974 4.94527 4.00132 5.91496 3.90585 7.1604L5.9 7.31327ZM5.00632 18.5735L5.89979 7.31595L3.90606 7.15772L3.01258 18.4153L5.00632 18.5735ZM5.60094 20.2768C5.1759 19.818 4.95868 19.1946 5.00652 18.5709L3.01238 18.4179C2.92194 19.597 3.33011 20.7684 4.13366 21.6359L5.60094 20.2768ZM7.25644 21C6.63095 21 6.02601 20.7357 5.60094 20.2768L4.13366 21.6359C4.93719 22.5034 6.07389 23 7.25644 23V21ZM16.6014 21H7.25644V23H16.6014V21ZM18.2569 20.2768C17.8319 20.7358 17.2269 21 16.6014 21V23C17.7839 23 18.9207 22.5035 19.7242 21.6359L18.2569 20.2768ZM18.8512 18.5693C18.8992 19.1948 18.6818 19.8181 18.2569 20.2769L19.7243 21.6359C20.5279 20.7681 20.9359 19.5968 20.8454 18.4165L18.8512 18.5693ZM11.9289 2.17148C9.89097 2.17148 8.23445 3.82794 8.23445 5.86598H10.2345C10.2345 4.93253 10.9955 4.17148 11.9289 4.17148V2.17148ZM15.6234 5.86598C15.6234 3.82799 13.9669 2.17148 11.9289 2.17148V4.17148C12.8624 4.17148 13.6234 4.93256 13.6234 5.86598H15.6234ZM15.6234 5.94527V5.86598H13.6234V5.94527H15.6234ZM9.23445 6.94527H14.6234V4.94527H9.23445V6.94527ZM8.23445 5.86598V5.94527H10.2345V5.86598H8.23445ZM16.6014 21.8285C17.4673 21.8285 18.2764 21.475 18.8647 20.8399L17.3975 19.4808C17.1876 19.7074 16.9103 19.8285 16.6014 19.8285V21.8285ZM7.25648 21.8285H16.6014V19.8285H7.25648V21.8285ZM4.9932 20.8399C5.58155 21.475 6.39061 21.8285 7.25648 21.8285V19.8285C6.94767 19.8285 6.67032 19.7074 6.46039 19.4808L4.9932 20.8399ZM4.18039 18.509C4.11419 19.3712 4.40507 20.205 4.99314 20.8399L6.46045 19.4808C6.25031 19.254 6.15104 18.968 6.17452 18.6621L4.18039 18.509ZM5.07395 7.24882L4.18059 18.5064L6.17432 18.6647L7.06768 7.40704L5.07395 7.24882ZM6.29883 6.11676C5.65767 6.11676 5.1227 6.61171 5.07373 7.25164L7.0679 7.40422C7.03706 7.80727 6.70241 8.11676 6.29883 8.11676V6.11676ZM8.06297 6.11676H6.29883V8.11676H8.06297V6.11676ZM9.06297 8.55953V7.11676H7.06297V8.55953H9.06297ZM8.64871 8.14527C8.87752 8.14527 9.06297 8.33072 9.06297 8.55953H7.06297C7.06297 9.43529 7.77295 10.1453 8.64871 10.1453V8.14527ZM8.23445 8.55953C8.23445 8.33072 8.4199 8.14527 8.64871 8.14527V10.1453C9.52447 10.1453 10.2345 9.43529 10.2345 8.55953H8.23445ZM8.23445 7.11676V8.55953H10.2345V7.11676H8.23445ZM14.6235 6.11676H9.23445V8.11676H14.6235V6.11676ZM15.6235 8.55953V7.11676H13.6235V8.55953H15.6235ZM15.2092 8.14527C15.438 8.14527 15.6235 8.33072 15.6235 8.55953H13.6235C13.6235 9.43529 14.3335 10.1453 15.2092 10.1453V8.14527ZM14.795 8.55953C14.795 8.33072 14.9804 8.14527 15.2092 8.14527V10.1453C16.085 10.1453 16.795 9.43529 16.795 8.55953H14.795ZM14.795 7.11676V8.55953H16.795V7.11676H14.795ZM17.5591 6.11676H15.795V8.11676H17.5591V6.11676ZM18.7843 7.25289C18.7354 6.61624 18.2049 6.11676 17.5591 6.11676V8.11676C17.1509 8.11676 16.8206 7.80274 16.7902 7.40609L18.7843 7.25289ZM19.6773 18.5049L18.7841 7.25038L16.7904 7.4086L17.6835 18.6631L19.6773 18.5049ZM18.8649 20.8398C19.453 20.2046 19.7437 19.3709 19.6775 18.5075L17.6833 18.6605C17.7069 18.9683 17.6073 19.2542 17.3974 19.4809L18.8649 20.8398ZM9.55424 13.5498C9.55424 12.2412 10.6204 11.175 11.929 11.175V9.17505C9.51586 9.17505 7.55424 11.1367 7.55424 13.5498H9.55424ZM11.6966 16.7724C11.2575 16.3861 10.7097 15.9008 10.2663 15.3169C9.82156 14.7314 9.55424 14.1393 9.55424 13.5498H7.55424C7.55424 14.7505 8.09418 15.7637 8.67357 16.5266C9.25424 17.2911 9.94743 17.8974 10.3757 18.2741L11.6966 16.7724ZM12.0021 17.0458C11.9141 16.9636 11.8045 16.8672 11.6965 16.7723L10.3758 18.2742C10.4919 18.3763 10.5757 18.4501 10.6366 18.5071L12.0021 17.0458ZM11.929 17.016C11.9516 17.016 11.9796 17.0247 12.002 17.0457L10.6367 18.5072C11.0011 18.8476 11.4677 19.016 11.929 19.016V17.016ZM11.8559 17.0458C11.8785 17.0246 11.9065 17.016 11.929 17.016V19.016C12.3903 19.016 12.857 18.8476 13.2214 18.5071L11.8559 17.0458ZM12.159 16.7746C12.0522 16.8685 11.9433 16.9642 11.8559 17.0458L13.2214 18.5071C13.2818 18.4506 13.3648 18.3775 13.4799 18.2762L12.159 16.7746ZM12.1614 16.7724L12.159 16.7746L13.4799 18.2762L13.4824 18.2741L12.1614 16.7724ZM12.162 16.7719L12.1618 16.7721L13.482 18.2744L13.4822 18.2742L12.162 16.7719ZM14.3038 13.5498C14.3038 14.1393 14.0365 14.7312 13.5919 15.3168C13.1485 15.9006 12.6007 16.3859 12.1616 16.7723L13.4826 18.2739C13.9109 17.8972 14.604 17.2909 15.1846 16.5264C15.7639 15.7635 16.3038 14.7504 16.3038 13.5498H14.3038ZM11.929 11.175C13.2375 11.175 14.3038 12.2412 14.3038 13.5499L16.3038 13.5498C16.3037 11.1367 14.3421 9.17505 11.929 9.17505V11.175ZM12.5918 17.4974C12.6222 17.4705 12.6541 17.4424 12.6888 17.4119L11.3677 15.9104C11.3334 15.9405 11.2992 15.9706 11.2662 15.9998L12.5918 17.4974ZM11.1497 17.3947C11.1913 17.4313 11.2299 17.4652 11.2662 17.4974L12.5918 15.9998C12.5527 15.9652 12.5119 15.9293 12.4701 15.8926L11.1497 17.3947ZM8.72573 13.5498C8.72573 14.5241 9.23813 15.3611 9.71475 15.955C10.2067 16.5681 10.7916 17.0797 11.1494 17.3945L12.4704 15.8928C12.0998 15.5669 11.6426 15.1618 11.2746 14.7032C10.8912 14.2255 10.7257 13.836 10.7257 13.5498H8.72573ZM11.929 10.3465C10.1619 10.3465 8.72573 11.7826 8.72573 13.5498H10.7257C10.7257 12.8872 11.2664 12.3465 11.929 12.3465V10.3465ZM15.1323 13.5498C15.1323 11.7826 13.6962 10.3465 11.929 10.3465V12.3465C12.5916 12.3465 13.1323 12.8872 13.1323 13.5498H15.1323ZM12.7086 17.3945C13.0664 17.0797 13.6513 16.568 14.1432 15.955C14.6199 15.3611 15.1323 14.5241 15.1323 13.5498L13.1323 13.5497C13.1323 13.836 12.9668 14.2255 12.5834 14.7032C12.2154 15.1618 11.7582 15.5668 11.3876 15.8928L12.7086 17.3945ZM12.6889 17.4119L12.7087 17.3944L11.3875 15.8929L11.3677 15.9104L12.6889 17.4119ZM11.929 11.0639C10.587 11.0639 9.49689 12.1541 9.49689 13.496H11.4969C11.4969 13.2586 11.6916 13.0639 11.929 13.0639V11.0639ZM14.361 13.496C14.361 12.1541 13.2709 11.0639 11.929 11.0639V13.0639C12.1663 13.0639 12.361 13.2586 12.361 13.4961L14.361 13.496ZM11.929 15.9281C13.2708 15.9281 14.361 14.838 14.361 13.496H12.361C12.361 13.7333 12.1663 13.9281 11.929 13.9281V15.9281ZM9.49689 13.496C9.49689 14.8379 10.587 15.9281 11.929 15.9281V13.9281C11.6916 13.9281 11.4969 13.7333 11.4969 13.496H9.49689ZM11.929 12.7565C12.3376 12.7565 12.6684 13.0874 12.6684 13.496H10.6684C10.6684 14.1918 11.2329 14.7565 11.929 14.7565V12.7565ZM11.1895 13.496C11.1895 13.0873 11.5203 12.7565 11.929 12.7565V14.7565C12.6249 14.7565 13.1895 14.1919 13.1895 13.496H11.1895ZM11.929 14.2354C11.5203 14.2354 11.1895 13.9046 11.1895 13.496H13.1895C13.1895 12.8 12.6249 12.2354 11.929 12.2354V14.2354ZM12.6684 13.496C12.6684 13.9046 12.3376 14.2354 11.929 14.2354V12.2354C11.233 12.2354 10.6684 12.8 10.6684 13.496H12.6684Z"
          fill="#A3A8AF" mask="url(#path-1-inside-1_1_1769)"/>
</svg>
