<svg viewBox="0 0 24 24" fill="none" xmlns="http://www.w3.org/2000/svg">
    <path fill-rule="evenodd" clip-rule="evenodd"
          d="M18.9552 7.2384L19.8483 18.4929C19.9175 19.3958 19.6048 20.2931 18.9906 20.9564C18.3763 21.6196 17.5054 22 16.6014 22H7.25644C6.35242 22 5.4816 21.6196 4.8673 20.9564C4.253 20.2932 3.94031 19.3958 4.00945 18.4944L4.90293 7.23684C4.9584 6.51324 5.57164 5.94527 6.29886 5.94527H8.063V5.86598C8.063 3.73426 9.79726 2 11.929 2C14.0607 2 15.795 3.73426 15.795 5.86602V5.94531H17.5591C18.2863 5.94531 18.8995 6.51328 18.9552 7.2384ZM11.9289 3.17148C10.4432 3.17148 9.23445 4.38023 9.23445 5.86598V5.94527H14.6234V5.86598C14.6234 4.38027 13.4146 3.17148 11.9289 3.17148ZM16.6014 20.8285C17.1888 20.8285 17.732 20.5912 18.1311 20.1604C18.5302 19.7294 18.7253 19.1696 18.6804 18.584L17.7873 7.32949C17.778 7.20949 17.6779 7.11676 17.5591 7.11676H15.795V8.55953C15.795 8.88301 15.5327 9.14527 15.2093 9.14527C14.8858 9.14527 14.6235 8.88301 14.6235 8.55953V7.11676H9.23449V8.55953C9.23449 8.88301 8.97222 9.14527 8.64875 9.14527C8.32527 9.14527 8.063 8.88301 8.063 8.55953V7.11676H6.29886C6.18008 7.11676 6.07992 7.20949 6.07086 7.32793L5.17746 18.5855C5.13261 19.1696 5.32769 19.7295 5.72679 20.1604C6.12593 20.5912 6.66914 20.8285 7.25648 20.8285H16.6014ZM14.6106 12.4072L12.8341 14.1837L14.6105 15.9601C14.8393 16.1889 14.8393 16.5597 14.6105 16.7885C14.4962 16.9029 14.3463 16.9601 14.1964 16.9601C14.0465 16.9601 13.8966 16.9028 13.7822 16.7885L12.0058 15.012L10.2293 16.7885C10.115 16.9029 9.96504 16.9601 9.8152 16.9601C9.66535 16.9601 9.51543 16.9028 9.40105 16.7885C9.1723 16.5597 9.1723 16.1889 9.40105 15.9601L11.1775 14.1837L9.40105 12.4072C9.1723 12.1785 9.1723 11.8076 9.40105 11.5789C9.62981 11.3501 10.0007 11.3501 10.2294 11.5789L12.0059 13.3553L13.7823 11.5789C14.0111 11.3501 14.382 11.3501 14.6107 11.5789C14.8394 11.8076 14.8394 12.1785 14.6106 12.4072Z"
          fill="#A3A8AF"/>
    <path d="M19.8483 18.4929L20.0976 18.4738L20.0975 18.4731L19.8483 18.4929ZM18.9552 7.2384L18.7059 7.25752L18.7059 7.25818L18.9552 7.2384ZM18.9906 20.9564L19.174 21.1262L19.174 21.1262L18.9906 20.9564ZM4.8673 20.9564L4.68389 21.1263L4.68389 21.1263L4.8673 20.9564ZM4.00945 18.4944L3.76023 18.4746L3.76018 18.4753L4.00945 18.4944ZM4.90293 7.23684L5.15214 7.25662L5.1522 7.25594L4.90293 7.23684ZM8.063 5.94527V6.19527H8.313V5.94527H8.063ZM15.795 5.94531H15.545V6.19531H15.795V5.94531ZM9.23445 5.94527H8.98445V6.19527H9.23445V5.94527ZM14.6234 5.94527V6.19527H14.8734V5.94527H14.6234ZM18.1311 20.1604L18.3145 20.3302L18.3146 20.3302L18.1311 20.1604ZM18.6804 18.584L18.9297 18.5649L18.9296 18.5642L18.6804 18.584ZM17.7873 7.32949L17.538 7.34864L17.538 7.34927L17.7873 7.32949ZM15.795 7.11676V6.86676H15.545V7.11676H15.795ZM14.6235 7.11676H14.8735V6.86676H14.6235V7.11676ZM9.23449 7.11676V6.86676H8.98449V7.11676H9.23449ZM8.063 7.11676H8.313V6.86676H8.063V7.11676ZM6.07086 7.32793L6.32007 7.34771L6.32013 7.347L6.07086 7.32793ZM5.17746 18.5855L4.92824 18.5658L4.92819 18.5664L5.17746 18.5855ZM5.72679 20.1604L5.54338 20.3302L5.5434 20.3302L5.72679 20.1604ZM12.8341 14.1837L12.6574 14.0069L12.4806 14.1837L12.6574 14.3604L12.8341 14.1837ZM14.6106 12.4072L14.4338 12.2304L14.4338 12.2304L14.6106 12.4072ZM14.6105 15.9601L14.4337 16.1369L14.4337 16.1369L14.6105 15.9601ZM14.6105 16.7885L14.4337 16.6117L14.4337 16.6118L14.6105 16.7885ZM13.7822 16.7885L13.6055 16.9652L13.6055 16.9652L13.7822 16.7885ZM12.0058 15.012L12.1826 14.8352L12.0058 14.6585L11.829 14.8352L12.0058 15.012ZM10.2293 16.7885L10.0526 16.6117L10.0525 16.6118L10.2293 16.7885ZM9.40105 16.7885L9.22428 16.9652L9.22428 16.9652L9.40105 16.7885ZM9.40105 15.9601L9.22428 15.7833L9.40105 15.9601ZM11.1775 14.1837L11.3543 14.3604L11.5311 14.1837L11.3543 14.0069L11.1775 14.1837ZM9.40105 12.4072L9.57783 12.2304L9.40105 12.4072ZM9.40105 11.5789L9.22428 11.4021H9.22428L9.40105 11.5789ZM10.2294 11.5789L10.0526 11.7556L10.0526 11.7556L10.2294 11.5789ZM12.0059 13.3553L11.8291 13.5321L12.0059 13.7089L12.1826 13.5321L12.0059 13.3553ZM13.7823 11.5789L13.6055 11.4021H13.6055L13.7823 11.5789ZM14.6107 11.5789L14.7875 11.4021H14.7875L14.6107 11.5789ZM20.0975 18.4731L19.2044 7.21862L18.7059 7.25818L19.5991 18.5127L20.0975 18.4731ZM19.174 21.1262C19.8356 20.4119 20.1721 19.446 20.0976 18.4738L19.599 18.512C19.6629 19.3455 19.3741 20.1744 18.8072 20.7865L19.174 21.1262ZM16.6014 22.25C17.5751 22.25 18.5124 21.8406 19.174 21.1262L18.8072 20.7865C18.2402 21.3986 17.4358 21.75 16.6014 21.75V22.25ZM7.25644 22.25H16.6014V21.75H7.25644V22.25ZM4.68389 21.1263C5.3455 21.8405 6.28279 22.25 7.25644 22.25V21.75C6.42205 21.75 5.6177 21.3986 5.05071 20.7865L4.68389 21.1263ZM3.76018 18.4753C3.68572 19.4461 4.02228 20.412 4.68389 21.1263L5.05071 20.7865C4.48373 20.1744 4.1949 19.3455 4.25872 18.5135L3.76018 18.4753ZM4.65371 7.21706L3.76023 18.4746L4.25867 18.5142L5.15214 7.25662L4.65371 7.21706ZM6.29886 5.69527C5.44116 5.69527 4.71913 6.36367 4.65366 7.21773L5.1522 7.25594C5.19766 6.66281 5.70211 6.19527 6.29886 6.19527V5.69527ZM8.063 5.69527H6.29886V6.19527H8.063V5.69527ZM7.813 5.86598V5.94527H8.313V5.86598H7.813ZM11.929 1.75C9.65919 1.75 7.813 3.59619 7.813 5.86598H8.313C8.313 3.87233 9.93533 2.25 11.929 2.25V1.75ZM16.045 5.86602C16.045 3.59619 14.1988 1.75 11.929 1.75V2.25C13.9226 2.25 15.545 3.87233 15.545 5.86602H16.045ZM16.045 5.94531V5.86602H15.545V5.94531H16.045ZM17.5591 5.69531H15.795V6.19531H17.5591V5.69531ZM19.2044 7.21928C19.1388 6.36389 18.4169 5.69531 17.5591 5.69531V6.19531C18.1556 6.19531 18.6603 6.66268 18.7059 7.25752L19.2044 7.21928ZM9.48445 5.86598C9.48445 4.51831 10.5813 3.42148 11.9289 3.42148V2.92148C10.3052 2.92148 8.98445 4.24216 8.98445 5.86598H9.48445ZM9.48445 5.94527V5.86598H8.98445V5.94527H9.48445ZM14.6234 5.69527H9.23445V6.19527H14.6234V5.69527ZM14.3734 5.86598V5.94527H14.8734V5.86598H14.3734ZM11.9289 3.42148C13.2766 3.42148 14.3734 4.51834 14.3734 5.86598H14.8734C14.8734 4.2422 13.5527 2.92148 11.9289 2.92148V3.42148ZM17.9477 19.9905C17.5959 20.3703 17.1192 20.5785 16.6014 20.5785V21.0785C17.2584 21.0785 17.8681 20.8122 18.3145 20.3302L17.9477 19.9905ZM18.4312 18.6031C18.4707 19.1193 18.2995 19.6106 17.9477 19.9905L18.3146 20.3302C18.7609 19.8482 18.9799 19.2199 18.9297 18.5649L18.4312 18.6031ZM17.538 7.34927L18.4312 18.6038L18.9296 18.5642L18.0365 7.30971L17.538 7.34927ZM17.5591 7.36676C17.5524 7.36676 17.547 7.36398 17.544 7.36114C17.5409 7.35825 17.5384 7.35369 17.538 7.34864L18.0365 7.31034C18.0174 7.06118 17.8097 6.86676 17.5591 6.86676V7.36676ZM15.795 7.36676H17.5591V6.86676H15.795V7.36676ZM16.045 8.55953V7.11676H15.545V8.55953H16.045ZM15.2093 9.39527C15.6708 9.39527 16.045 9.02108 16.045 8.55953H15.545C15.545 8.74494 15.3947 8.89527 15.2093 8.89527V9.39527ZM14.3735 8.55953C14.3735 9.02108 14.7477 9.39527 15.2093 9.39527V8.89527C15.0238 8.89527 14.8735 8.74494 14.8735 8.55953H14.3735ZM14.3735 7.11676V8.55953H14.8735V7.11676H14.3735ZM9.23449 7.36676H14.6235V6.86676H9.23449V7.36676ZM9.48449 8.55953V7.11676H8.98449V8.55953H9.48449ZM8.64875 9.39527C9.11029 9.39527 9.48449 9.02108 9.48449 8.55953H8.98449C8.98449 8.74494 8.83415 8.89527 8.64875 8.89527V9.39527ZM7.813 8.55953C7.813 9.02108 8.1872 9.39527 8.64875 9.39527V8.89527C8.46334 8.89527 8.313 8.74494 8.313 8.55953H7.813ZM7.813 7.11676V8.55953H8.313V7.11676H7.813ZM6.29886 7.36676H8.063V6.86676H6.29886V7.36676ZM6.32013 7.347C6.31962 7.35369 6.31648 7.35867 6.31358 7.36136C6.31068 7.36404 6.30551 7.36676 6.29886 7.36676V6.86676C6.04948 6.86676 5.84062 7.06005 5.82158 7.30886L6.32013 7.347ZM5.42667 18.6053L6.32007 7.34771L5.82164 7.30815L4.92824 18.5658L5.42667 18.6053ZM5.91021 19.9905C5.55835 19.6106 5.38722 19.1192 5.42672 18.6047L4.92819 18.5664C4.87801 19.22 5.09704 19.8483 5.54338 20.3302L5.91021 19.9905ZM7.25648 20.5785C6.73877 20.5785 6.26203 20.3703 5.91019 19.9905L5.5434 20.3302C5.98984 20.8122 6.5995 21.0785 7.25648 21.0785V20.5785ZM16.6014 20.5785H7.25648V21.0785H16.6014V20.5785ZM13.0109 14.3604L14.7874 12.584L14.4338 12.2304L12.6574 14.0069L13.0109 14.3604ZM14.7873 15.7833L13.0109 14.0069L12.6574 14.3604L14.4337 16.1369L14.7873 15.7833ZM14.7873 16.9652C15.1137 16.6389 15.1137 16.1097 14.7873 15.7833L14.4337 16.1369C14.5649 16.268 14.5649 16.4806 14.4337 16.6117L14.7873 16.9652ZM14.1964 17.2101C14.4098 17.2101 14.6242 17.1284 14.7873 16.9652L14.4337 16.6118C14.3681 16.6773 14.2827 16.7101 14.1964 16.7101V17.2101ZM13.6055 16.9652C13.7686 17.1284 13.9829 17.2101 14.1964 17.2101V16.7101C14.1102 16.7101 14.0246 16.6773 13.959 16.6117L13.6055 16.9652ZM11.829 15.1888L13.6055 16.9652L13.959 16.6117L12.1826 14.8352L11.829 15.1888ZM10.4061 16.9652L12.1826 15.1888L11.829 14.8352L10.0526 16.6117L10.4061 16.9652ZM9.8152 17.2101C10.0286 17.2101 10.243 17.1284 10.4062 16.9652L10.0525 16.6118C9.98696 16.6773 9.90146 16.7101 9.8152 16.7101V17.2101ZM9.22428 16.9652C9.38738 17.1284 9.60171 17.2101 9.8152 17.2101V16.7101C9.729 16.7101 9.64348 16.6773 9.57783 16.6117L9.22428 16.9652ZM9.22428 15.7833C8.8979 16.1097 8.8979 16.6389 9.22428 16.9652L9.57783 16.6117C9.44671 16.4806 9.44671 16.268 9.57783 16.1369L9.22428 15.7833ZM11.0007 14.0069L9.22428 15.7833L9.57783 16.1369L11.3543 14.3604L11.0007 14.0069ZM9.22428 12.584L11.0007 14.3604L11.3543 14.0069L9.57783 12.2304L9.22428 12.584ZM9.22428 11.4021C8.8979 11.7285 8.8979 12.2576 9.22428 12.584L9.57783 12.2304C9.44671 12.0993 9.44671 11.8868 9.57783 11.7556L9.22428 11.4021ZM10.4062 11.4021C10.0799 11.0757 9.55065 11.0757 9.22428 11.4021L9.57783 11.7556C9.70896 11.6245 9.92155 11.6245 10.0526 11.7556L10.4062 11.4021ZM12.1826 13.1785L10.4062 11.4021L10.0526 11.7556L11.8291 13.5321L12.1826 13.1785ZM13.6055 11.4021L11.8291 13.1785L12.1826 13.5321L13.9591 11.7556L13.6055 11.4021ZM14.7875 11.4021C14.4611 11.0757 13.9319 11.0757 13.6055 11.4021L13.9591 11.7556C14.0902 11.6245 14.3028 11.6245 14.4339 11.7556L14.7875 11.4021ZM14.7874 12.584C15.1138 12.2576 15.1138 11.7285 14.7875 11.4021L14.4339 11.7556C14.565 11.8867 14.565 12.0993 14.4338 12.2304L14.7874 12.584Z"
          fill="#A3A8AF"/>
</svg>
