<svg viewBox="0 0 24 24" fill="none" xmlns="http://www.w3.org/2000/svg">
    <path fill-rule="evenodd" clip-rule="evenodd"
          d="M18.9552 7.23836L19.8483 18.4929C19.9175 19.3958 19.6049 20.2931 18.9906 20.9564C18.3762 21.6196 17.5054 22 16.6014 22H7.25644C6.35242 22 5.4816 21.6196 4.8673 20.9564C4.253 20.2932 3.94031 19.3958 4.00945 18.4944L4.90289 7.23684C4.95836 6.51324 5.5716 5.94527 6.29883 5.94527H8.06297V5.86598C8.06297 3.73426 9.79722 2 11.9289 2C14.0607 2 15.7949 3.73426 15.7949 5.86598V5.94527H17.5591C18.2863 5.94527 18.8995 6.51328 18.9552 7.23836ZM11.9289 3.17148C10.4432 3.17148 9.23445 4.38023 9.23445 5.86598V5.94527H14.6234V5.86598C14.6234 4.38027 13.4146 3.17148 11.9289 3.17148ZM16.6014 20.8285C17.1887 20.8285 17.7319 20.5912 18.1311 20.1604C18.5302 19.7294 18.7253 19.1696 18.6804 18.584L17.7872 7.32949C17.778 7.20953 17.6778 7.11676 17.5591 7.11676H15.7949V8.55953C15.7949 8.88301 15.5327 9.14527 15.2092 9.14527C14.8857 9.14527 14.6234 8.88301 14.6234 8.55953V7.11676H9.23445V8.55953C9.23445 8.88301 8.97218 9.14527 8.64871 9.14527C8.32523 9.14527 8.06297 8.88301 8.06297 8.55953V7.11676H6.29883C6.18004 7.11676 6.07988 7.20949 6.07082 7.32793L5.17746 18.5855C5.13261 19.1696 5.32769 19.7295 5.72679 20.1604C6.12593 20.5912 6.66914 20.8285 7.25648 20.8285H16.6014ZM13.7396 11.933C13.9683 11.7042 14.3392 11.7042 14.5678 11.933C14.7966 12.1617 14.7966 12.5326 14.5678 12.7614L11.5382 15.791C11.4239 15.9054 11.2739 15.9626 11.124 15.9626C10.9742 15.9626 10.8243 15.9054 10.7099 15.791L9.29002 14.3711C9.06127 14.1424 9.06127 13.7715 9.29002 13.5428C9.51877 13.314 9.88967 13.314 10.1184 13.5428L11.1241 14.5485L13.7396 11.933Z"
          fill="#A3A8AF"/>
    <path d="M19.8483 18.4929L20.0976 18.4738L20.0975 18.4731L19.8483 18.4929ZM18.9552 7.23836L18.7059 7.2575L18.7059 7.25814L18.9552 7.23836ZM18.9906 20.9564L19.174 21.1263L19.174 21.1262L18.9906 20.9564ZM4.8673 20.9564L4.68389 21.1263L4.68389 21.1263L4.8673 20.9564ZM4.00945 18.4944L3.76023 18.4746L3.76018 18.4753L4.00945 18.4944ZM4.90289 7.23684L5.1521 7.25661L5.15216 7.25594L4.90289 7.23684ZM8.06297 5.94527V6.19527H8.31297V5.94527H8.06297ZM15.7949 5.94527H15.5449V6.19527H15.7949V5.94527ZM9.23445 5.94527H8.98445V6.19527H9.23445V5.94527ZM14.6234 5.94527V6.19527H14.8734V5.94527H14.6234ZM18.1311 20.1604L18.3145 20.3302L18.3145 20.3302L18.1311 20.1604ZM18.6804 18.584L18.9297 18.5649L18.9296 18.5642L18.6804 18.584ZM17.7872 7.32949L17.538 7.34865L17.538 7.34927L17.7872 7.32949ZM15.7949 7.11676V6.86676H15.5449V7.11676H15.7949ZM14.6234 7.11676H14.8734V6.86676H14.6234V7.11676ZM9.23445 7.11676V6.86676H8.98445V7.11676H9.23445ZM8.06297 7.11676H8.31297V6.86676H8.06297V7.11676ZM6.07082 7.32793L6.32003 7.34771L6.32009 7.347L6.07082 7.32793ZM5.17746 18.5855L4.92824 18.5658L4.92819 18.5664L5.17746 18.5855ZM5.72679 20.1604L5.54338 20.3302L5.5434 20.3302L5.72679 20.1604ZM14.5678 11.933L14.391 12.1097L14.3911 12.1098L14.5678 11.933ZM13.7396 11.933L13.9163 12.1098L13.9163 12.1098L13.7396 11.933ZM14.5678 12.7614L14.391 12.5846H14.391L14.5678 12.7614ZM11.5382 15.791L11.3614 15.6142L11.3614 15.6143L11.5382 15.791ZM10.7099 15.791L10.8867 15.6142V15.6142L10.7099 15.791ZM9.29002 13.5428L9.4668 13.7195L9.29002 13.5428ZM10.1184 13.5428L9.94159 13.7195L9.94161 13.7195L10.1184 13.5428ZM11.1241 14.5485L10.9473 14.7252L11.1241 14.902L11.3009 14.7252L11.1241 14.5485ZM20.0975 18.4731L19.2044 7.21858L18.7059 7.25814L19.5991 18.5127L20.0975 18.4731ZM19.174 21.1262C19.8356 20.4119 20.1721 19.446 20.0976 18.4738L19.599 18.512C19.663 19.3455 19.3741 20.1744 18.8072 20.7865L19.174 21.1262ZM16.6014 22.25C17.575 22.25 18.5123 21.8406 19.174 21.1263L18.8072 20.7865C18.2401 21.3986 17.4358 21.75 16.6014 21.75V22.25ZM7.25644 22.25H16.6014V21.75H7.25644V22.25ZM4.68389 21.1263C5.3455 21.8405 6.28279 22.25 7.25644 22.25V21.75C6.42205 21.75 5.6177 21.3986 5.05071 20.7865L4.68389 21.1263ZM3.76018 18.4753C3.68572 19.4461 4.02228 20.412 4.68389 21.1263L5.05071 20.7865C4.48373 20.1744 4.1949 19.3455 4.25872 18.5135L3.76018 18.4753ZM4.65367 7.21706L3.76023 18.4746L4.25867 18.5142L5.1521 7.25661L4.65367 7.21706ZM6.29883 5.69527C5.44112 5.69527 4.71909 6.36367 4.65362 7.21773L5.15216 7.25594C5.19762 6.66281 5.70207 6.19527 6.29883 6.19527V5.69527ZM8.06297 5.69527H6.29883V6.19527H8.06297V5.69527ZM7.81297 5.86598V5.94527H8.31297V5.86598H7.81297ZM11.9289 1.75C9.65915 1.75 7.81297 3.59619 7.81297 5.86598H8.31297C8.31297 3.87233 9.93529 2.25 11.9289 2.25V1.75ZM16.0449 5.86598C16.0449 3.59619 14.1987 1.75 11.9289 1.75V2.25C13.9226 2.25 15.5449 3.87233 15.5449 5.86598H16.0449ZM16.0449 5.94527V5.86598H15.5449V5.94527H16.0449ZM17.5591 5.69527H15.7949V6.19527H17.5591V5.69527ZM19.2044 7.21922C19.1388 6.3639 18.417 5.69527 17.5591 5.69527V6.19527C18.1556 6.19527 18.6602 6.66266 18.7059 7.2575L19.2044 7.21922ZM9.48445 5.86598C9.48445 4.51831 10.5813 3.42148 11.9289 3.42148V2.92148C10.3052 2.92148 8.98445 4.24216 8.98445 5.86598H9.48445ZM9.48445 5.94527V5.86598H8.98445V5.94527H9.48445ZM14.6234 5.69527H9.23445V6.19527H14.6234V5.69527ZM14.3734 5.86598V5.94527H14.8734V5.86598H14.3734ZM11.9289 3.42148C13.2766 3.42148 14.3734 4.51834 14.3734 5.86598H14.8734C14.8734 4.2422 13.5527 2.92148 11.9289 2.92148V3.42148ZM17.9477 19.9905C17.5959 20.3703 17.1191 20.5785 16.6014 20.5785V21.0785C17.2584 21.0785 17.868 20.8122 18.3145 20.3302L17.9477 19.9905ZM18.4311 18.6031C18.4707 19.1193 18.2995 19.6106 17.9477 19.9905L18.3145 20.3302C18.7609 19.8482 18.9799 19.2199 18.9297 18.5649L18.4311 18.6031ZM17.538 7.34927L18.4312 18.6038L18.9296 18.5642L18.0364 7.30971L17.538 7.34927ZM17.5591 7.36676C17.5523 7.36676 17.5469 7.36396 17.5439 7.36115C17.5409 7.3583 17.5384 7.35375 17.538 7.34865L18.0365 7.31034C18.0173 7.06122 17.8096 6.86676 17.5591 6.86676V7.36676ZM15.7949 7.36676H17.5591V6.86676H15.7949V7.36676ZM16.0449 8.55953V7.11676H15.5449V8.55953H16.0449ZM15.2092 9.39527C15.6707 9.39527 16.0449 9.02108 16.0449 8.55953H15.5449C15.5449 8.74494 15.3946 8.89527 15.2092 8.89527V9.39527ZM14.3734 8.55953C14.3734 9.02108 14.7476 9.39527 15.2092 9.39527V8.89527C15.0238 8.89527 14.8734 8.74494 14.8734 8.55953H14.3734ZM14.3734 7.11676V8.55953H14.8734V7.11676H14.3734ZM9.23445 7.36676H14.6234V6.86676H9.23445V7.36676ZM9.48445 8.55953V7.11676H8.98445V8.55953H9.48445ZM8.64871 9.39527C9.11026 9.39527 9.48445 9.02108 9.48445 8.55953H8.98445C8.98445 8.74494 8.83411 8.89527 8.64871 8.89527V9.39527ZM7.81297 8.55953C7.81297 9.02108 8.18716 9.39527 8.64871 9.39527V8.89527C8.4633 8.89527 8.31297 8.74494 8.31297 8.55953H7.81297ZM7.81297 7.11676V8.55953H8.31297V7.11676H7.81297ZM6.29883 7.36676H8.06297V6.86676H6.29883V7.36676ZM6.32009 7.347C6.31958 7.35369 6.31645 7.35867 6.31354 7.36136C6.31064 7.36404 6.30547 7.36676 6.29883 7.36676V6.86676C6.04944 6.86676 5.84058 7.06005 5.82155 7.30886L6.32009 7.347ZM5.42667 18.6053L6.32003 7.34771L5.8216 7.30815L4.92824 18.5658L5.42667 18.6053ZM5.91021 19.9905C5.55835 19.6106 5.38722 19.1192 5.42672 18.6047L4.92819 18.5664C4.87801 19.22 5.09704 19.8483 5.54338 20.3302L5.91021 19.9905ZM7.25648 20.5785C6.73877 20.5785 6.26203 20.3703 5.91019 19.9905L5.5434 20.3302C5.98984 20.8122 6.5995 21.0785 7.25648 21.0785V20.5785ZM16.6014 20.5785H7.25648V21.0785H16.6014V20.5785ZM14.7446 11.7562C14.4183 11.4298 13.8891 11.4298 13.5628 11.7562L13.9163 12.1098C14.0474 11.9786 14.26 11.9787 14.391 12.1097L14.7446 11.7562ZM14.7446 12.9382C15.071 12.6118 15.071 12.0826 14.7446 11.7562L14.3911 12.1098C14.5222 12.2409 14.5222 12.4534 14.391 12.5846L14.7446 12.9382ZM11.715 15.9678L14.7446 12.9382L14.391 12.5846L11.3614 15.6142L11.715 15.9678ZM11.124 16.2126C11.3375 16.2126 11.5519 16.131 11.715 15.9677L11.3614 15.6143C11.2958 15.6799 11.2103 15.7126 11.124 15.7126V16.2126ZM10.5331 15.9678C10.6962 16.1309 10.9106 16.2126 11.124 16.2126V15.7126C11.0378 15.7126 10.9523 15.6799 10.8867 15.6142L10.5331 15.9678ZM9.11325 14.5479L10.5331 15.9678L10.8867 15.6142L9.4668 14.1943L9.11325 14.5479ZM9.11325 13.366C8.78687 13.6924 8.78687 14.2215 9.11325 14.5479L9.4668 14.1943C9.33568 14.0632 9.33568 13.8507 9.4668 13.7195L9.11325 13.366ZM10.2952 13.366C9.96882 13.0396 9.43962 13.0396 9.11325 13.366L9.4668 13.7195C9.59793 13.5884 9.81052 13.5884 9.94159 13.7195L10.2952 13.366ZM11.3009 14.3717L10.2952 13.366L9.94161 13.7195L10.9473 14.7252L11.3009 14.3717ZM13.5628 11.7562L10.9473 14.3717L11.3009 14.7252L13.9163 12.1098L13.5628 11.7562Z"
          fill="#A3A8AF"/>
</svg>
