<svg viewBox="0 0 24 24" fill="none" xmlns="http://www.w3.org/2000/svg">
    <g clip-path="url(#clip0_2202_5777)">
        <path d="M2.80664 22C2.35587 22 2 21.6441 2 21.1934C2 20.7426 2.35587 20.3867 2.80664 20.3867H21.1934C21.6441 20.3867 22 20.7426 22 21.1934C22 21.6441 21.6441 22 21.1934 22H2.80664Z"
              fill="#A3A8AF"/>
        <path d="M2.80667 21.6442C2.54569 21.6442 2.3559 21.4306 2.3559 21.1934C2.3559 20.9324 2.56942 20.7426 2.80667 20.7426H21.1934C21.4544 20.7426 21.6442 20.9561 21.6442 21.1934C21.6442 21.4544 21.4306 21.6442 21.1934 21.6442H2.80667Z"
              fill="#A3A8AF"/>
        <path d="M2.80668 21.9525C2.37963 21.9525 2.04749 21.6204 2.04749 21.1933C2.04749 20.7663 2.37963 20.4341 2.80668 20.4341H21.1934C21.6204 20.4341 21.9526 20.7663 21.9526 21.1933C21.9526 21.6204 21.6204 21.9525 21.1934 21.9525H2.80668Z"
              fill="#A3A8AF"/>
        <path d="M21.1934 20.79H2.8067C2.59318 20.79 2.40338 20.9798 2.40338 21.1934C2.40338 21.4069 2.59318 21.5967 2.8067 21.5967H21.1934C21.4069 21.5967 21.5967 21.4069 21.5967 21.1934C21.5967 20.9798 21.4069 20.79 21.1934 20.79Z"
              fill="#A3A8AF"/>
        <path d="M3.61328 22C3.16251 22 2.80664 21.6441 2.80664 21.1934V16.4009C2.80664 15.9502 3.16251 15.5943 3.61328 15.5943H6.00949C6.46026 15.5943 6.81613 15.9502 6.81613 16.4009V21.1934C6.81613 21.6441 6.46026 22 6.00949 22H3.61328ZM5.20284 20.3867V17.2076H4.41993V20.3867H5.20284Z"
              fill="#A3A8AF"/>
        <path d="M3.61331 21.6441C3.35233 21.6441 3.16254 21.4306 3.16254 21.1934V16.401C3.16254 16.14 3.37606 15.9502 3.61331 15.9502H6.00951C6.27048 15.9502 6.46028 16.1637 6.46028 16.401V21.1934C6.46028 21.4543 6.24676 21.6441 6.00951 21.6441H3.61331ZM5.55874 20.7426V16.8517H4.06408V20.7426H5.55874Z"
              fill="#A3A8AF"/>
        <path d="M3.61332 21.9525C3.18627 21.9525 2.85413 21.6204 2.85413 21.1933V16.4009C2.85413 15.9739 3.18627 15.6417 3.61332 15.6417H6.00952C6.43657 15.6417 6.76872 15.9739 6.76872 16.4009V21.1933C6.76872 21.6204 6.43657 21.9525 6.00952 21.9525H3.61332ZM5.25033 20.4341V17.1601H4.37251V20.4341H5.25033Z"
              fill="#A3A8AF"/>
        <path d="M6.00955 15.9976H3.61334C3.39982 15.9976 3.21002 16.1874 3.21002 16.4009V21.1934C3.21002 21.4069 3.39982 21.5967 3.61334 21.5967H6.00955C6.22307 21.5967 6.41287 21.4069 6.41287 21.1934V16.4009C6.41287 16.1637 6.22307 15.9976 6.00955 15.9976ZM5.60623 20.79H4.01666V16.8043H5.60623V20.79Z"
              fill="#A3A8AF"/>
        <path d="M8.4057 22C7.95493 22 7.59906 21.6441 7.59906 21.1933V12.4152C7.59906 11.9644 7.95493 11.6085 8.4057 11.6085H10.8019C11.2527 11.6085 11.6086 11.9644 11.6086 12.4152V21.1933C11.6086 21.6441 11.2527 22 10.8019 22H8.4057ZM9.99527 20.3867V13.2218H9.21235V20.3867H9.99527Z"
              fill="#A3A8AF"/>
        <path d="M8.40573 21.6441C8.14475 21.6441 7.95496 21.4306 7.95496 21.1934V12.4152C7.95496 12.1542 8.16848 11.9644 8.40573 11.9644H10.8019C11.0629 11.9644 11.2527 12.1779 11.2527 12.4152V21.1934C11.2527 21.4543 11.0392 21.6441 10.8019 21.6441H8.40573ZM10.3512 20.7426V12.866H8.8565V20.7426H10.3512Z"
              fill="#A3A8AF"/>
        <path d="M8.40574 21.9525C7.97869 21.9525 7.64655 21.6204 7.64655 21.1933V12.4151C7.64655 11.9881 7.97869 11.6559 8.40574 11.6559H10.8019C11.229 11.6559 11.5611 11.9881 11.5611 12.4151V21.1933C11.5611 21.6204 11.229 21.9525 10.8019 21.9525H8.40574ZM10.0428 20.4341V13.1506H9.16493V20.4341H10.0428Z"
              fill="#A3A8AF"/>
        <path d="M10.802 12.0118H8.40576C8.19224 12.0118 8.00244 12.2016 8.00244 12.4152V21.1933C8.00244 21.4069 8.19224 21.5967 8.40576 21.5967H10.802C11.0155 21.5967 11.2053 21.4069 11.2053 21.1933V12.4152C11.2053 12.1779 11.0155 12.0118 10.802 12.0118ZM10.3986 20.79H8.80908V12.7948H10.3986V20.79Z"
              fill="#A3A8AF"/>
        <path d="M13.1981 22C12.7473 22 12.3914 21.6441 12.3914 21.1934V14.0048C12.3914 13.554 12.7473 13.1981 13.1981 13.1981H15.5943C16.045 13.1981 16.4009 13.554 16.4009 14.0048V21.1934C16.4009 21.6441 16.045 22 15.5943 22H13.1981ZM14.7876 20.3867V14.8114H14.0047V20.3867H14.7876Z"
              fill="#A3A8AF"/>
        <path d="M13.1981 21.6442C12.9371 21.6442 12.7473 21.4307 12.7473 21.1934V14.0048C12.7473 13.7438 12.9608 13.554 13.1981 13.554H15.5943C15.8553 13.554 16.0451 13.7675 16.0451 14.0048V21.1934C16.0451 21.4544 15.8315 21.6442 15.5943 21.6442H13.1981ZM15.1435 20.7426V14.4556H13.6489V20.7426H15.1435Z"
              fill="#A3A8AF"/>
        <path d="M13.1981 21.9525C12.7711 21.9525 12.4389 21.6204 12.4389 21.1933V14.0047C12.4389 13.5777 12.7711 13.2455 13.1981 13.2455H15.5943C16.0213 13.2455 16.3535 13.5777 16.3535 14.0047V21.1933C16.3535 21.6204 16.0213 21.9525 15.5943 21.9525H13.1981ZM14.8351 20.4342V14.7639H13.9573V20.4342H14.8351Z"
              fill="#A3A8AF"/>
        <path d="M15.5943 13.6014H13.1981C12.9846 13.6014 12.7948 13.7912 12.7948 14.0048V21.1934C12.7948 21.4069 12.9846 21.5967 13.1981 21.5967H15.5943C15.8078 21.5967 15.9976 21.4069 15.9976 21.1934V14.0048C15.9976 13.7675 15.8078 13.6014 15.5943 13.6014ZM15.191 20.7901H13.6014V14.4081H15.191V20.7901Z"
              fill="#A3A8AF"/>
        <path d="M17.9905 22C17.5398 22 17.1839 21.6441 17.1839 21.1934V9.21234C17.1839 8.76157 17.5398 8.4057 17.9905 8.4057H20.3867C20.8375 8.4057 21.1934 8.76157 21.1934 9.21234V21.1934C21.1934 21.6441 20.8375 22 20.3867 22H17.9905ZM19.5801 20.3867V10.019H18.7972V20.3867H19.5801Z"
              fill="#A3A8AF"/>
        <path d="M17.9906 21.6442C17.7296 21.6442 17.5398 21.4306 17.5398 21.1934V9.21237C17.5398 8.95139 17.7533 8.7616 17.9906 8.7616H20.3868C20.6477 8.7616 20.8375 8.97512 20.8375 9.21237V21.1934C20.8375 21.4544 20.624 21.6442 20.3868 21.6442H17.9906ZM19.936 20.7426V9.66314H18.4413V20.7426H19.936Z"
              fill="#A3A8AF"/>
        <path d="M17.9906 21.9525C17.5635 21.9525 17.2314 21.6204 17.2314 21.1933V9.21232C17.2314 8.78527 17.5635 8.45312 17.9906 8.45312H20.3868C20.8138 8.45312 21.146 8.78527 21.146 9.21232V21.1933C21.146 21.6204 20.8138 21.9525 20.3868 21.9525H17.9906ZM19.6276 20.4341V9.94779H18.7498V20.4341H19.6276Z"
              fill="#A3A8AF"/>
        <path d="M20.3868 8.80902H17.9906C17.7771 8.80902 17.5873 8.99882 17.5873 9.21234V21.1934C17.5873 21.4069 17.7771 21.5967 17.9906 21.5967H20.3868C20.6003 21.5967 20.7901 21.4069 20.7901 21.1934V9.21234C20.7901 8.97509 20.6003 8.80902 20.3868 8.80902ZM19.9835 20.79H18.3939V9.59194H19.9835V20.79Z"
              fill="#A3A8AF"/>
        <path d="M4.79951 13.2218C3.68444 13.2218 2.7829 12.3203 2.7829 11.2052C2.7829 10.0901 3.68444 9.1886 4.79951 9.1886C5.91457 9.1886 6.81611 10.0901 6.81611 11.2052C6.81611 12.3203 5.91457 13.2218 4.79951 13.2218ZM4.79951 10.8256C4.58598 10.8256 4.41991 10.9917 4.41991 11.2052C4.41991 11.4187 4.58598 11.5848 4.79951 11.5848C5.01303 11.5848 5.1791 11.4187 5.1791 11.2052C5.1791 10.9917 5.01303 10.8256 4.79951 10.8256Z"
              fill="#A3A8AF"/>
        <path d="M4.79953 12.866C3.89799 12.866 3.13879 12.1305 3.13879 11.2052C3.13879 10.3037 3.87426 9.54449 4.79953 9.54449C5.7248 9.54449 6.46026 10.28 6.46026 11.2052C6.46026 12.1068 5.7248 12.866 4.79953 12.866ZM4.79953 10.4698C4.39621 10.4698 4.06406 10.8019 4.06406 11.2052C4.06406 11.6086 4.39621 11.9407 4.79953 11.9407C5.20285 11.9407 5.535 11.6086 5.535 11.2052C5.55872 10.8019 5.22658 10.4698 4.79953 10.4698Z"
              fill="#A3A8AF"/>
        <path d="M4.7995 13.1506C3.73188 13.1506 2.85406 12.2728 2.85406 11.2052C2.85406 10.1376 3.73188 9.25977 4.7995 9.25977C5.86711 9.25977 6.74493 10.1376 6.74493 11.2052C6.76865 12.2728 5.89084 13.1506 4.7995 13.1506ZM4.7995 10.7544C4.56225 10.7544 4.34873 10.9442 4.34873 11.2052C4.34873 11.4424 4.53853 11.656 4.7995 11.656C5.03675 11.656 5.25027 11.4662 5.25027 11.2052C5.25027 10.9679 5.06047 10.7544 4.7995 10.7544Z"
              fill="#A3A8AF"/>
        <path d="M4.79946 9.59192C3.92164 9.59192 3.2099 10.3037 3.2099 11.1815C3.2099 12.0593 3.92164 12.771 4.79946 12.771C5.67728 12.771 6.38902 12.0593 6.38902 11.1815C6.41275 10.3274 5.701 9.59192 4.79946 9.59192ZM4.79946 12.0118C4.34869 12.0118 3.99282 11.656 3.99282 11.2052C3.99282 10.7544 4.34869 10.3986 4.79946 10.3986C5.25023 10.3986 5.6061 10.7544 5.6061 11.2052C5.6061 11.6323 5.25023 12.0118 4.79946 12.0118Z"
              fill="#A3A8AF"/>
        <path d="M9.59192 9.21229C8.47686 9.21229 7.57532 8.31075 7.57532 7.19568C7.57532 6.08062 8.47686 5.17908 9.59192 5.17908C10.707 5.17908 11.6085 6.08062 11.6085 7.19568C11.6085 8.31075 10.707 9.21229 9.59192 9.21229ZM9.59192 6.81609C9.3784 6.81609 9.21233 6.98216 9.21233 7.19568C9.21233 7.40921 9.3784 7.57528 9.59192 7.57528C9.80545 7.57528 9.97152 7.40921 9.97152 7.19568C9.97152 6.98216 9.80545 6.81609 9.59192 6.81609Z"
              fill="#A3A8AF"/>
        <path d="M9.59195 8.85644C8.69041 8.85644 7.93121 8.12098 7.93121 7.19571C7.93121 6.27044 8.66668 5.53497 9.59195 5.53497C10.5172 5.53497 11.2527 6.27044 11.2527 7.19571C11.2527 8.12098 10.5172 8.85644 9.59195 8.85644ZM9.59195 6.46024C9.18863 6.46024 8.85648 6.79239 8.85648 7.19571C8.85648 7.59903 9.18863 7.93118 9.59195 7.93118C9.99527 7.93118 10.3274 7.59903 10.3274 7.19571C10.3511 6.79239 10.019 6.46024 9.59195 6.46024Z"
              fill="#A3A8AF"/>
        <path d="M9.59192 9.16485C8.5243 9.16485 7.64648 8.28704 7.64648 7.21942C7.64648 6.1518 8.5243 5.27399 9.59192 5.27399C10.6595 5.27399 11.5374 6.1518 11.5374 7.21942C11.5374 8.28704 10.6833 9.16485 9.59192 9.16485ZM9.59192 6.76865C9.35467 6.76865 9.14115 6.95845 9.14115 7.21942C9.14115 7.48039 9.33094 7.67019 9.59192 7.67019C9.82917 7.67019 10.0427 7.48039 10.0427 7.21942C10.0427 6.95845 9.85289 6.76865 9.59192 6.76865Z"
              fill="#A3A8AF"/>
        <path d="M9.59188 5.60614C8.71406 5.60614 8.00232 6.31788 8.00232 7.1957C8.00232 8.07352 8.71406 8.78526 9.59188 8.78526C10.4697 8.78526 11.1814 8.07352 11.1814 7.1957C11.1814 6.31788 10.4934 5.60614 9.59188 5.60614ZM9.59188 8.00234C9.14111 8.00234 8.78524 7.64647 8.78524 7.1957C8.78524 6.74493 9.14111 6.38906 9.59188 6.38906C10.0427 6.38906 10.3985 6.74493 10.3985 7.1957C10.3985 7.64647 10.0427 8.00234 9.59188 8.00234Z"
              fill="#A3A8AF"/>
        <path d="M14.408 10.8256C13.293 10.8256 12.3914 9.92409 12.3914 8.80903C12.3914 7.69396 13.293 6.79242 14.408 6.79242C15.5231 6.79242 16.4246 7.69396 16.4246 8.80903C16.4246 9.92409 15.4994 10.8256 14.408 10.8256ZM14.408 8.40571C14.1945 8.40571 14.0284 8.57178 14.0284 8.7853C14.0284 8.99882 14.1945 9.1649 14.408 9.1649C14.6215 9.1649 14.7876 8.99882 14.7876 8.7853C14.7876 8.57178 14.6215 8.40571 14.408 8.40571Z"
              fill="#A3A8AF"/>
        <path d="M14.4081 10.4698C13.5065 10.4698 12.7473 9.73432 12.7473 8.80905C12.7473 7.88378 13.4828 7.14832 14.4081 7.14832C15.3333 7.14832 16.0688 7.88378 16.0688 8.80905C16.0688 9.73432 15.3096 10.4698 14.4081 10.4698ZM14.4081 8.04986C14.0047 8.04986 13.6726 8.382 13.6726 8.78533C13.6726 9.18865 14.0047 9.52079 14.4081 9.52079C14.8114 9.52079 15.1435 9.18865 15.1435 8.78533C15.1435 8.382 14.8114 8.04986 14.4081 8.04986Z"
              fill="#A3A8AF"/>
        <path d="M14.408 10.7545C13.3403 10.7545 12.4625 9.87663 12.4625 8.80902C12.4625 7.7414 13.3403 6.86359 14.408 6.86359C15.4756 6.86359 16.3534 7.7414 16.3534 8.80902C16.3534 9.87663 15.4756 10.7545 14.408 10.7545ZM14.408 8.35825C14.1707 8.35825 13.9572 8.54805 13.9572 8.80902C13.9572 9.04627 14.147 9.25979 14.408 9.25979C14.6452 9.25979 14.8587 9.06999 14.8587 8.80902C14.835 8.57177 14.6452 8.35825 14.408 8.35825Z"
              fill="#A3A8AF"/>
        <path d="M14.408 7.19574C13.5302 7.19574 12.8184 7.90748 12.8184 8.7853C12.8184 9.66312 13.5302 10.3749 14.408 10.3749C15.2858 10.3749 15.9975 9.66312 15.9975 8.7853C15.9975 7.90748 15.2858 7.19574 14.408 7.19574ZM14.408 9.59194C13.9572 9.59194 13.6013 9.23607 13.6013 8.7853C13.6013 8.33453 13.9572 7.97866 14.408 7.97866C14.8588 7.97866 15.2146 8.33453 15.2146 8.7853C15.2146 9.23607 14.835 9.59194 14.408 9.59194Z"
              fill="#A3A8AF"/>
        <path d="M19.2005 6.00949C18.0854 6.00949 17.1839 5.10795 17.1839 3.99288C17.1839 2.87782 18.0854 2 19.2005 2C20.3156 2 21.2171 2.90154 21.2171 4.01661C21.2171 5.13167 20.2918 6.00949 19.2005 6.00949ZM19.2005 3.61329C18.987 3.61329 18.8209 3.77936 18.8209 3.99288C18.8209 4.20641 18.987 4.37248 19.2005 4.37248C19.414 4.37248 19.5801 4.20641 19.5801 3.99288C19.5801 3.77936 19.414 3.61329 19.2005 3.61329Z"
              fill="#A3A8AF"/>
        <path d="M19.2005 5.65362C18.299 5.65362 17.5398 4.91816 17.5398 3.99289C17.5398 3.06762 18.2753 2.33215 19.2005 2.33215C20.1021 2.33215 20.8613 3.06762 20.8613 3.99289C20.8613 4.91816 20.1021 5.65362 19.2005 5.65362ZM19.2005 3.25742C18.7972 3.25742 18.4651 3.58957 18.4651 3.99289C18.4651 4.39621 18.7972 4.72836 19.2005 4.72836C19.6039 4.72836 19.936 4.39621 19.936 3.99289C19.936 3.58957 19.6039 3.25742 19.2005 3.25742Z"
              fill="#A3A8AF"/>
        <path d="M19.2004 5.96203C18.1328 5.96203 17.255 5.08422 17.255 4.0166C17.255 2.94898 18.1328 2.07117 19.2004 2.07117C20.2681 2.07117 21.1459 2.94898 21.1459 4.0166C21.1459 5.08422 20.2681 5.96203 19.2004 5.96203ZM19.2004 3.56583C18.9632 3.56583 18.7497 3.75563 18.7497 4.0166C18.7497 4.27757 18.9395 4.46737 19.2004 4.46737C19.4614 4.46737 19.6512 4.27757 19.6512 4.0166C19.6512 3.75563 19.4377 3.56583 19.2004 3.56583Z"
              fill="#A3A8AF"/>
        <path d="M19.2005 2.40332C18.3226 2.40332 17.6109 3.11506 17.6109 3.99288C17.6109 4.8707 18.3226 5.58244 19.2005 5.58244C20.0783 5.58244 20.79 4.8707 20.79 3.99288C20.79 3.11506 20.0783 2.40332 19.2005 2.40332ZM19.2005 4.79952C18.7497 4.79952 18.3938 4.44365 18.3938 3.99288C18.3938 3.54211 18.7497 3.18624 19.2005 3.18624C19.6512 3.18624 20.0071 3.54211 20.0071 3.99288C20.0071 4.44365 19.6275 4.79952 19.2005 4.79952Z"
              fill="#A3A8AF"/>
        <path d="M15.2384 8.76158C15.0249 8.76158 14.8114 8.66668 14.669 8.52433C14.5029 8.35826 14.4318 8.16846 14.4318 7.95493C14.4318 7.74141 14.5267 7.52789 14.669 7.38554L17.777 4.27759C17.9193 4.13524 18.1328 4.04034 18.3464 4.04034C18.5599 4.04034 18.7734 4.13524 18.9157 4.27759C19.2242 4.58601 19.2242 5.10796 18.9157 5.41638L15.8078 8.52433C15.6655 8.6904 15.4519 8.76158 15.2384 8.76158Z"
              fill="#A3A8AF"/>
        <path d="M15.2384 8.40569C15.1198 8.40569 15.0012 8.35824 14.9063 8.26335C14.8114 8.16845 14.7639 8.07355 14.7639 7.9312C14.7639 7.81257 14.8114 7.69395 14.9063 7.59905L18.0142 4.4911C18.1091 4.3962 18.204 4.34875 18.3464 4.34875C18.4887 4.34875 18.5836 4.3962 18.6785 4.4911C18.8446 4.65718 18.8446 4.9656 18.6785 5.13167L15.5706 8.28707C15.4757 8.35824 15.357 8.40569 15.2384 8.40569Z"
              fill="#A3A8AF"/>
        <path d="M15.2384 8.71412C15.0486 8.71412 14.8588 8.64295 14.7165 8.5006C14.5741 8.35825 14.5029 8.16845 14.5029 7.95493C14.5029 7.7414 14.5741 7.55161 14.7165 7.40926L17.8007 4.32503C17.943 4.18269 18.1328 4.11151 18.3463 4.11151C18.5599 4.11151 18.7497 4.18269 18.892 4.32503C19.0344 4.46738 19.1055 4.65718 19.1055 4.8707C19.1055 5.08423 19.0344 5.27403 18.892 5.41637L15.7841 8.5006C15.6417 8.64295 15.4519 8.71412 15.2384 8.71412Z"
              fill="#A3A8AF"/>
        <path d="M18.631 4.58598C18.4649 4.41991 18.2277 4.41991 18.0616 4.58598L14.9537 7.6702C14.7876 7.83628 14.7876 8.07353 14.9537 8.2396C15.0248 8.31077 15.1435 8.35822 15.2384 8.35822C15.3333 8.35822 15.4519 8.31077 15.5231 8.2396L18.631 5.13165C18.7733 4.9893 18.7733 4.72833 18.631 4.58598Z"
              fill="#A3A8AF"/>
        <path d="M13.3167 9.06995C13.2456 9.06995 13.1744 9.06995 13.1032 9.04622L10.5409 8.31075C10.1139 8.19213 9.85293 7.74136 9.99527 7.31431C10.0902 6.95844 10.4223 6.72119 10.7782 6.72119C10.8494 6.72119 10.9205 6.72119 11.0154 6.74492L13.5777 7.48038C13.7912 7.55156 13.9573 7.67018 14.0759 7.85998C14.1708 8.04978 14.1946 8.2633 14.1471 8.47683C14.0048 8.8327 13.6726 9.06995 13.3167 9.06995Z"
              fill="#A3A8AF"/>
        <path d="M13.3167 8.71408C13.2693 8.71408 13.2218 8.71408 13.1981 8.69036L10.6358 7.95489C10.3986 7.88371 10.2562 7.62274 10.3274 7.38549C10.3749 7.19569 10.5647 7.05334 10.7545 7.05334C10.8019 7.05334 10.8494 7.05334 10.8731 7.07707L13.4354 7.81254C13.554 7.83626 13.6489 7.93116 13.7201 8.02606C13.7675 8.12096 13.7912 8.26331 13.7675 8.38193C13.6963 8.59546 13.5303 8.71408 13.3167 8.71408Z"
              fill="#A3A8AF"/>
        <path d="M13.3167 9.02249C13.2455 9.02249 13.1743 9.02249 13.1032 8.99876L10.5409 8.2633C10.1376 8.14467 9.90032 7.74135 10.0189 7.33803C10.1138 7.00588 10.3985 6.79236 10.7307 6.79236C10.8019 6.79236 10.873 6.79236 10.9442 6.81608L13.5065 7.55155C13.6963 7.599 13.8624 7.74135 13.9573 7.90742C14.0522 8.0735 14.0759 8.28702 14.0284 8.47682C13.9573 8.78524 13.6488 9.02249 13.3167 9.02249Z"
              fill="#A3A8AF"/>
        <path d="M13.4353 7.88368L10.8731 7.14821C10.6595 7.07704 10.446 7.21939 10.3748 7.43291C10.3037 7.64644 10.446 7.85996 10.6595 7.93113L13.2218 8.64288C13.2693 8.64288 13.293 8.6666 13.3404 8.6666C13.5065 8.6666 13.6726 8.54798 13.72 8.3819C13.7675 8.16838 13.6489 7.93113 13.4353 7.88368Z"
              fill="#A3A8AF"/>
        <path d="M5.65358 11.1577C5.41633 11.1577 5.17908 11.0391 5.01301 10.8493C4.72831 10.4934 4.79949 9.99523 5.13163 9.71053L8.16841 7.31433C8.31075 7.1957 8.50055 7.14825 8.66663 7.14825C8.90387 7.14825 9.14112 7.26688 9.30719 7.45668C9.44954 7.62275 9.49699 7.83627 9.47327 8.0498C9.44954 8.26332 9.33092 8.45312 9.16485 8.59547L6.1518 10.9917C6.00945 11.1103 5.84338 11.1577 5.65358 11.1577Z"
              fill="#A3A8AF"/>
        <path d="M5.65363 10.8019C5.51128 10.8019 5.39266 10.7307 5.29776 10.6358C5.13169 10.446 5.17914 10.1613 5.36893 9.99525L8.38198 7.59905C8.45316 7.52788 8.57178 7.50415 8.66668 7.50415C8.80903 7.50415 8.92765 7.57532 9.02255 7.67022C9.09373 7.76512 9.14118 7.88375 9.11745 8.00237C9.09373 8.12099 9.04628 8.23962 8.95138 8.31079L5.93833 10.707C5.86715 10.7782 5.74853 10.8019 5.65363 10.8019Z"
              fill="#A3A8AF"/>
        <path d="M5.65357 11.1103C5.41632 11.1103 5.2028 11.0154 5.06045 10.8256C4.94183 10.6595 4.87065 10.4697 4.89438 10.2799C4.9181 10.0901 5.013 9.90032 5.17907 9.7817L8.19212 7.3855C8.33447 7.2906 8.50055 7.21942 8.66662 7.21942C8.90387 7.21942 9.11739 7.31432 9.25974 7.50412C9.52071 7.83627 9.47326 8.31076 9.14112 8.57173L6.12807 10.9442C5.98572 11.0628 5.81964 11.1103 5.65357 11.1103Z"
              fill="#A3A8AF"/>
        <path d="M8.97503 7.6939C8.83268 7.52782 8.59543 7.5041 8.40563 7.62272L5.41631 10.0427C5.25024 10.185 5.22651 10.4222 5.34514 10.612C5.41631 10.7069 5.53493 10.7544 5.65356 10.7544C5.74846 10.7544 5.81963 10.7307 5.89081 10.6595L8.90385 8.26329C9.09365 8.12094 9.11738 7.8837 8.97503 7.6939Z"
              fill="#A3A8AF"/>
    </g>
    <defs>
        <clipPath id="clip0_2202_5777">
            <rect width="20" height="20" fill="white" transform="translate(2 2)"/>
        </clipPath>
    </defs>
</svg>
