<svg viewBox="0 0 24 24" fill="none" xmlns="http://www.w3.org/2000/svg">
    <g clip-path="url(#clip0_1_1654)">
        <path d="M7.64324 2H6.70486C6.31568 2 6 2.31568 6 2.70486V7.17622C6 7.56541 6.31568 7.88108 6.70486 7.88108H7.64324C8.03243 7.88108 8.34811 7.56541 8.34811 7.17622V2.70486C8.34811 2.31568 8.03243 2 7.64324 2Z"
              fill="#A3A8AF"/>
        <path d="M11.0941 2H10.2941C9.86597 2 9.52002 2.34595 9.52002 2.77405V5.93081C9.52002 6.35892 9.86597 6.70486 10.2941 6.70486H11.0941C11.5222 6.70486 11.8681 6.35892 11.8681 5.93081V2.77405C11.8681 2.34595 11.5222 2 11.0941 2Z"
              fill="#A3A8AF"/>
        <path d="M14.8 2H13.6281C13.3038 2 13.04 2.26378 13.04 2.58811V7.29297C13.04 7.6173 13.3038 7.88108 13.6281 7.88108H14.8C15.1244 7.88108 15.3881 7.6173 15.3881 7.29297V2.58811C15.3881 2.26378 15.1244 2 14.8 2Z"
              fill="#A3A8AF"/>
        <path d="M18.2985 2H17.1828C16.8412 2 16.5687 2.27676 16.5687 2.61405V6.09081C16.5687 6.43243 16.8455 6.70486 17.1828 6.70486H18.2985C18.6401 6.70486 18.9125 6.42811 18.9125 6.09081V2.61405C18.9125 2.27676 18.6358 2 18.2985 2Z"
              fill="#A3A8AF"/>
        <path d="M17.8919 9.06165H7.02054C6.45838 9.06165 6 9.43786 6 9.90489V10.5492C6 11.2973 6.50595 11.9762 7.31459 12.3092L8.38703 12.7546C9.42487 13.1784 10.0822 14.0562 10.0778 15.0206V17.8789C10.0735 18.9298 10.5622 19.9416 11.4357 20.7027V21.7189C11.4357 21.8746 11.587 22 11.7773 22H13.1351C13.3254 22 13.4724 21.8746 13.4724 21.7189V20.7027C14.3459 19.9416 14.8346 18.9298 14.8303 17.8789V15.0206C14.8259 14.0606 15.4832 13.1827 16.5168 12.7546L17.5892 12.3135C18.4022 11.9806 18.9124 11.2973 18.9081 10.5492V9.90489C18.9124 9.43786 18.4541 9.06165 17.8919 9.06165ZM17.1481 11.4141H7.76432C7.44 11.4141 7.17622 11.1503 7.17622 10.826C7.17622 10.5016 7.44 10.2379 7.76432 10.2379H17.1524C17.4768 10.2379 17.7405 10.5016 17.7405 10.826C17.7362 11.1503 17.4724 11.4141 17.1481 11.4141Z"
              fill="#A3A8AF"/>
    </g>
    <defs>
        <clipPath id="clip0_1_1654">
            <rect width="12.9124" height="20" fill="white" transform="translate(6 2)"/>
        </clipPath>
    </defs>
</svg>
