<svg viewBox="0 0 24 24" fill="none" xmlns="http://www.w3.org/2000/svg">
    <path d="M5.50006 3.9H2.50006C2.16871 3.9 1.9 4.16871 1.9 4.50006V7.50006C1.9 7.83141 2.16871 8.10012 2.50006 8.10012C2.83146 8.10012 3.09994 7.83136 3.09994 7.50006V5.10012H5.50006C5.83146 5.10012 6.09994 4.83136 6.09994 4.50006C6.09994 4.16876 5.83146 3.9 5.50006 3.9Z"
          fill="#A3A8AF" stroke="#A3A8AF" stroke-width="0.2"/>
    <path d="M5.50006 18.9H3.09994V16.5001C3.09994 16.1688 2.83146 15.9 2.50006 15.9C2.16871 15.9 1.9 16.1687 1.9 16.5001V19.5001C1.9 19.8314 2.16871 20.1001 2.50006 20.1001H5.50006C5.83146 20.1001 6.09994 19.8314 6.09994 19.5001C6.09994 19.1688 5.83146 18.9 5.50006 18.9Z"
          fill="#A3A8AF" stroke="#A3A8AF" stroke-width="0.2"/>
    <path d="M21.5001 3.9H18.5001C18.1687 3.9 17.9 4.16871 17.9 4.50006C17.9 4.83141 18.1687 5.10012 18.5001 5.10012H20.9V7.50006C20.9 7.83141 21.1687 8.10012 21.5001 8.10012C21.8314 8.10012 22.1001 7.83141 22.1001 7.50006V4.50006C22.1001 4.16871 21.8314 3.9 21.5001 3.9Z"
          fill="#A3A8AF" stroke="#A3A8AF" stroke-width="0.2"/>
    <path d="M21.5001 15.9C21.1687 15.9 20.9 16.1687 20.9 16.5001V18.9H18.5001C18.1687 18.9 17.9 19.1687 17.9 19.5001C17.9 19.8314 18.1687 20.1001 18.5001 20.1001H21.5001C21.8314 20.1001 22.1001 19.8314 22.1001 19.5001V16.5001C22.1001 16.1687 21.8314 15.9 21.5001 15.9Z"
          fill="#A3A8AF" stroke="#A3A8AF" stroke-width="0.2"/>
    <path d="M5.50006 6.9C5.16871 6.9 4.9 7.16871 4.9 7.50006V16.5001C4.9 16.8314 5.16871 17.1001 5.50006 17.1001C5.83146 17.1001 6.09994 16.8314 6.09994 16.5001V7.50006C6.09994 7.16876 5.83146 6.9 5.50006 6.9Z"
          fill="#A3A8AF" stroke="#A3A8AF" stroke-width="0.2"/>
    <path d="M8.5 6.9H7.49988C7.16848 6.9 6.9 7.16876 6.9 7.50006V16.5001C6.9 16.8314 7.16848 17.1001 7.49988 17.1001H8.5C8.8314 17.1001 9.09988 16.8314 9.09988 16.5001V7.50006C9.09988 7.16876 8.8314 6.9 8.5 6.9Z"
          fill="#A3A8AF" stroke="#A3A8AF" stroke-width="0.2"/>
    <path d="M10.4999 6.9C10.1685 6.9 9.9 7.16876 9.9 7.50006V16.5001C9.9 16.8314 10.1685 17.1001 10.4999 17.1001C10.8312 17.1001 11.0999 16.8314 11.0999 16.5001V7.50006C11.0999 7.16871 10.8312 6.9 10.4999 6.9Z"
          fill="#A3A8AF" stroke="#A3A8AF" stroke-width="0.2"/>
    <path d="M13.5 6.9H12.5001C12.1687 6.9 11.9 7.16871 11.9 7.50006V16.5001C11.9 16.8314 12.1687 17.1001 12.5001 17.1001H13.5C13.8314 17.1001 14.1001 16.8314 14.1001 16.5001V7.50006C14.1001 7.16871 13.8314 6.9 13.5 6.9Z"
          fill="#A3A8AF" stroke="#A3A8AF" stroke-width="0.2"/>
    <path d="M15.5001 6.9C15.1687 6.9 14.9 7.16871 14.9 7.50006V16.5001C14.9 16.8314 15.1687 17.1001 15.5001 17.1001C15.8314 17.1001 16.1001 16.8314 16.1001 16.5001V7.50006C16.1001 7.16871 15.8314 6.9 15.5001 6.9Z"
          fill="#A3A8AF" stroke="#A3A8AF" stroke-width="0.2"/>
    <path d="M18.5 6.9H17.5001C17.1687 6.9 16.9 7.16871 16.9 7.50006V16.5001C16.9 16.8314 17.1687 17.1001 17.5001 17.1001H18.5C18.8314 17.1001 19.1001 16.8314 19.1001 16.5001V7.50006C19.1001 7.16871 18.8314 6.9 18.5 6.9Z"
          fill="#A3A8AF" stroke="#A3A8AF" stroke-width="0.2"/>
</svg>
