<svg width="24" height="24" viewBox="0 0 24 24" fill="none" xmlns="http://www.w3.org/2000/svg">
<path opacity="0.35" d="M0.5 8.99998C0.5 7.80336 1.47005 6.83331 2.66667 6.83331H19.0367C20.2333 6.83331 21.2034 7.80336 21.2034 8.99998V14.8472C21.2034 16.0438 20.2333 17.0138 19.0367 17.0138H2.66666C1.47005 17.0138 0.5 16.0438 0.5 14.8472V8.99998Z" fill="#EEEFEF" stroke="#3D3D3D"/>
<path d="M22.6899 9.95056V13.8966C23.4838 13.5624 24 12.785 24 11.9236C24 11.0622 23.4838 10.2848 22.6899 9.95056Z" fill="#A3A8AF"/>
<path d="M1.97302 9.63967C1.97302 8.90329 2.56998 8.30634 3.30636 8.30634H18.397C19.1334 8.30634 19.7303 8.90329 19.7303 9.63967V14.2075C19.7303 14.9438 19.1334 15.5408 18.397 15.5408H3.30636C2.56998 15.5408 1.97302 14.9438 1.97302 14.2075V9.63967Z" fill="#A3A8AF"/>
</svg>
