<svg viewBox="0 0 24 24" fill="none" xmlns="http://www.w3.org/2000/svg">
    <path fill-rule="evenodd" clip-rule="evenodd"
          d="M5 3C5 2.44772 5.44772 2 6 2H18.7273C19.2796 2 19.7273 2.44772 19.7273 3V3.81818C19.7273 4.6922 19.6937 5.57949 19.6223 6.46838C19.6315 6.52299 19.6363 6.57912 19.6363 6.63636C19.6363 6.75535 19.6155 6.86949 19.5774 6.97534C19.4316 8.48346 19.1744 9.98976 18.785 11.4372C18.173 13.7994 17.9091 16.1673 17.9091 18.5455V19.3636C17.9091 20.9159 16.6432 22.1818 15.0909 22.1818H9.63636C8.08408 22.1818 6.81818 20.9159 6.81818 19.3636V18.5455C6.81818 16.1607 6.55276 13.7048 5.94348 11.4418L5.94105 11.4328L5.94109 11.4328C5.28117 8.88736 5 6.34767 5 3.81818V3ZM17.7268 4C17.7237 4.54316 17.7068 5.08965 17.6751 5.63636H10.5455H7.05293C7.02075 5.0914 7.00362 4.54597 7.00052 4H17.7268ZM9.54545 7.63636V9.36364C9.54545 9.91592 9.99317 10.3636 10.5455 10.3636C11.0977 10.3636 11.5455 9.91592 11.5455 9.36364V7.63636H17.4912C17.3486 8.75579 17.1384 9.86004 16.8526 10.9218L16.8525 10.9218L16.8502 10.9309C16.1903 13.4763 15.9091 16.016 15.9091 18.5455V19.3636C15.9091 19.8114 15.5386 20.1818 15.0909 20.1818H9.63636C9.18865 20.1818 8.81818 19.8114 8.81818 19.3636V18.5455C8.81818 16.0227 8.5385 13.3893 7.87594 10.9264C7.59217 9.83112 7.38323 8.73458 7.24074 7.63636H9.54545Z"
          fill="#A3A8AF"/>
</svg>
