<svg viewBox="0 0 24 24" fill="none" xmlns="http://www.w3.org/2000/svg">
    <path fill-rule="evenodd" clip-rule="evenodd"
          d="M8.3538 4.77209C8.65929 4.31385 9.27477 4 9.95652 4C10.5832 4 11.2492 4.36125 11.5913 4.81739C11.7747 5.062 12.06 5.20923 12.3657 5.21706C12.6713 5.2249 12.9638 5.09246 13.1595 4.85758C13.3534 4.62486 13.7287 4.43478 14.3043 4.43478C15.2303 4.43478 15.913 5.1175 15.913 6.04348C15.913 6.44845 15.7825 6.80689 15.5581 7.08205C15.4241 7.15656 15.3091 7.26096 15.2219 7.38622C14.966 7.55575 14.6523 7.65217 14.3043 7.65217C13.8498 7.65217 13.4623 7.46039 13.0315 7.10134C12.8209 6.92587 12.5475 6.84452 12.2753 6.87632C12.003 6.90812 11.7558 7.05028 11.5913 7.26957C11.2394 7.73877 10.6548 8.08696 9.95652 8.08696C9.25821 8.08696 8.67365 7.73877 8.32175 7.26957C8.1383 7.02496 7.85302 6.87773 7.54737 6.86989C7.24171 6.86206 6.94927 6.99449 6.75353 7.22938C6.5596 7.46209 6.18437 7.65217 5.6087 7.65217C5.2607 7.65217 4.94706 7.55575 4.6911 7.38622C4.60398 7.26096 4.48894 7.15656 4.35499 7.08205C4.13058 6.80689 4 6.44845 4 6.04348C4 5.1175 4.68272 4.43478 5.6087 4.43478C6.0632 4.43478 6.45071 4.62656 6.88157 4.98561C7.09956 5.16727 7.38446 5.24777 7.66528 5.20704C7.9461 5.16631 8.1964 5.00819 8.3538 4.77209ZM2.86957 8.42292C2.32491 7.79302 2 6.96482 2 6.04348C2 4.01293 3.57815 2.43478 5.6087 2.43478C6.30257 2.43478 6.88685 2.63142 7.37703 2.90348C8.1059 2.30175 9.0492 2 9.95652 2C10.873 2 11.7696 2.34633 12.4631 2.88373C13.0231 2.57143 13.6692 2.43478 14.3043 2.43478C16.3349 2.43478 17.913 4.01293 17.913 6.04348C17.913 6.96482 17.5881 7.79302 17.0435 8.42292V8.95652H19.5217C21.0305 8.95652 22.2609 10.1868 22.2609 11.6957V16.0435C22.2609 17.5523 21.0305 18.7826 19.5217 18.7826H17.0404C16.9719 20.2313 15.7694 21.3913 14.3043 21.3913H5.6087C4.09989 21.3913 2.86957 20.161 2.86957 18.6522V8.42292ZM4.86957 9.58018V18.6522C4.86957 19.0564 5.20446 19.3913 5.6087 19.3913H14.3043C14.7086 19.3913 15.0435 19.0564 15.0435 18.6522V17.7826V9.95652V9.58018C14.8057 9.62744 14.5586 9.65217 14.3043 9.65217C13.6012 9.65217 13.0105 9.45022 12.5163 9.17248C11.8434 9.72298 10.9612 10.087 9.95652 10.087C8.97371 10.087 8.10816 9.73868 7.44101 9.20821C6.88309 9.51698 6.24048 9.65217 5.6087 9.65217C5.35449 9.65217 5.10738 9.62744 4.86957 9.58018ZM19.5217 16.7826H17.0435V10.9565H19.5217C19.926 10.9565 20.2609 11.2914 20.2609 11.6957V16.0435C20.2609 16.4477 19.926 16.7826 19.5217 16.7826Z"
          fill="#A3A8AF"/>
</svg>
