<svg viewBox="0 0 24 24" fill="none" xmlns="http://www.w3.org/2000/svg">
    <path d="M9.37948 11.7152C9.26555 11.5169 9.12425 11.3654 8.95582 11.2608C8.78724 11.1562 8.60445 11.0592 8.40748 10.9698C8.21042 10.8806 8.02763 10.8064 7.85917 10.7475C7.69062 10.6887 7.54942 10.6125 7.43548 10.5187C7.32155 10.425 7.26459 10.315 7.26459 10.1885C7.26459 10.0316 7.33456 9.90845 7.47466 9.81904C7.61463 9.72975 7.8129 9.68501 8.0693 9.68501C8.3018 9.68501 8.51313 9.72651 8.70303 9.80926C8.89283 9.89211 9.00927 9.9335 9.05196 9.9335C9.16589 9.9335 9.25603 9.8817 9.32258 9.77803C9.38896 9.67432 9.4223 9.57388 9.4223 9.47684C9.4223 9.37384 9.37358 9.28435 9.2763 9.20824C9.17896 9.13225 9.05307 9.07625 8.89889 9.0404C8.74455 9.00463 8.59855 8.9789 8.46093 8.96316C8.42824 8.95944 8.39602 8.95624 8.36414 8.9534V8.25872C8.36414 8.02382 8.15673 7.83337 7.90091 7.83337C7.64509 7.83337 7.43768 8.02382 7.43768 8.25872V9.0124C7.2475 9.05898 7.06879 9.13092 6.90145 9.22832C6.73055 9.32783 6.59401 9.46719 6.49197 9.64638C6.38981 9.82557 6.33887 10.0324 6.33887 10.2669C6.33887 10.4762 6.38039 10.6625 6.46349 10.826C6.5465 10.9894 6.65576 11.1202 6.79104 11.2183C6.92632 11.3163 7.0759 11.4046 7.23963 11.4831C7.40342 11.5616 7.56594 11.6325 7.72745 11.6956C7.88877 11.7588 8.03721 11.8242 8.17248 11.8917C8.30779 11.9594 8.41694 12.0444 8.50004 12.1467C8.58304 12.2492 8.62466 12.3658 8.62466 12.4966C8.62466 12.6841 8.54866 12.8257 8.39676 12.9216C8.24477 13.0175 8.05497 13.0654 7.82708 13.0654C7.66085 13.0654 7.50895 13.0382 7.37135 12.9839C7.23357 12.9295 7.12801 12.8695 7.05443 12.8039C6.98078 12.7383 6.90491 12.6782 6.82653 12.6238C6.74822 12.5695 6.67813 12.5423 6.61647 12.5423C6.51196 12.5423 6.41817 12.5936 6.33519 12.696C6.25209 12.7985 6.21057 12.8998 6.21057 13C6.21057 13.2006 6.37192 13.3857 6.69481 13.5558C6.91306 13.6707 7.1607 13.7466 7.43759 13.7839V14.4392C7.43759 14.6741 7.645 14.8645 7.90082 14.8645C8.15664 14.8645 8.36405 14.6741 8.36405 14.4392V13.7636C8.64443 13.7078 8.88452 13.6022 9.08393 13.4464C9.3948 13.2036 9.55038 12.8586 9.55038 12.4115C9.55038 12.1457 9.49341 11.9136 9.37948 11.7152Z"
          fill="#A3A8AF" stroke="#A3A8AF" stroke-width="0.5"/>
    <path d="M18.1336 3.18926H15.0076C14.8507 2.50899 14.2395 2 13.511 2H10.5212C9.79276 2 9.18154 2.50899 9.02471 3.18926H5.97692C4.8868 3.18926 4 4.07438 4 5.16235V20.0269C4 21.1149 4.88684 22 5.97692 22H18.1336C19.2238 22 20.1105 21.1149 20.1105 20.0269V5.16235C20.1105 4.07434 19.2237 3.18926 18.1336 3.18926ZM10.1581 3.53305C10.1581 3.33321 10.321 3.17059 10.5212 3.17059H13.511C13.7112 3.17059 13.8742 3.33317 13.8742 3.53305V4.25012C13.8742 4.44997 13.7113 4.61258 13.511 4.61258H10.5212C10.3211 4.61258 10.1581 4.45001 10.1581 4.25012V3.53305ZM18.1336 20.8294H5.97688C5.53348 20.8294 5.17282 20.4694 5.17282 20.0269V5.16235C5.17282 4.71981 5.53352 4.35985 5.97688 4.35985H8.9896C9.0462 5.15411 9.71131 5.78321 10.5212 5.78321H13.511C14.321 5.78321 14.986 5.15411 15.0426 4.35985H18.1335C18.5769 4.35985 18.9376 4.71985 18.9376 5.16235V20.0269H18.9376C18.9376 20.4695 18.5769 20.8294 18.1336 20.8294Z"
          fill="#A3A8AF" stroke="#A3A8AF" stroke-width="0.5"/>
    <path d="M17.1398 8.4364H11.4251C11.1012 8.4364 10.8386 8.69898 10.8386 9.02285C10.8386 9.34672 11.1012 9.6093 11.4251 9.6093H17.1398C17.4636 9.6093 17.7262 9.34672 17.7262 9.02285C17.7262 8.69898 17.4637 8.4364 17.1398 8.4364Z"
          fill="#A3A8AF" stroke="#A3A8AF" stroke-width="0.5"/>
    <path d="M17.1398 12.5133H11.4251C11.1012 12.5133 10.8386 12.7759 10.8386 13.0998C10.8386 13.4236 11.1012 13.6862 11.4251 13.6862H17.1398C17.4636 13.6862 17.7262 13.4236 17.7262 13.0998C17.7262 12.7758 17.4637 12.5133 17.1398 12.5133Z"
          fill="#A3A8AF" stroke="#A3A8AF" stroke-width="0.5"/>
    <path d="M17.1398 16.5714H11.4251C11.1012 16.5714 10.8386 16.834 10.8386 17.1579C10.8386 17.4817 11.1012 17.7443 11.4251 17.7443H17.1398C17.4636 17.7443 17.7262 17.4817 17.7262 17.1579C17.7262 16.834 17.4637 16.5714 17.1398 16.5714Z"
          fill="#A3A8AF" stroke="#A3A8AF" stroke-width="0.5"/>
    <path d="M9.1566 16.4985H6.76931C6.44544 16.4985 6.18286 16.7611 6.18286 17.085C6.18286 17.4089 6.44544 17.6714 6.76931 17.6714H9.15664C9.48051 17.6714 9.74309 17.4089 9.74309 17.085C9.74309 16.7611 9.48047 16.4985 9.1566 16.4985Z"
          fill="#A3A8AF" stroke="#A3A8AF" stroke-width="0.5"/>
</svg>
