<svg viewBox="0 0 24 24" fill="none" xmlns="http://www.w3.org/2000/svg">
    <path d="M16.0903 11.2831C17.1596 11.2831 18.1559 11.5504 19.0389 12.0284V5.27258C19.0389 4.61644 18.7392 4.04131 18.2693 3.65249V3.63629H18.2369C17.8724 3.34467 17.4188 3.15836 16.9166 3.15836H14.0328C13.806 2.47793 13.158 2 12.4289 2H9.52896C8.79182 2 8.15189 2.46983 7.92507 3.15836H5.12232C3.94775 3.15836 3 4.10612 3 5.27258V19.7238C3 20.8902 3.94775 21.8461 5.12232 21.8461H11.708C10.5901 20.7282 9.90158 19.181 9.90158 17.4719C9.90158 14.0535 12.6719 11.2831 16.0903 11.2831Z"
          fill="#A3A8AF"/>
    <path d="M16.0247 7.646H11.0592C10.7756 7.646 10.5488 7.89711 10.5488 8.21303C10.5488 8.52895 10.7756 8.78006 11.0592 8.78006H16.0247C16.3082 8.78006 16.5351 8.52895 16.5351 8.21303C16.5351 7.89711 16.3082 7.646 16.0247 7.646Z"
          fill="white" stroke="white" stroke-width="0.5"/>
    <path d="M9.54425 3.53906C9.46324 3.53906 9.39844 3.60387 9.39844 3.69297V4.38961C9.39844 4.47061 9.46324 4.54352 9.54425 4.54352H12.4442C12.5252 4.54352 12.59 4.47871 12.59 4.38961V3.69297C12.59 3.61197 12.5252 3.53906 12.4442 3.53906H9.54425Z"
          fill="white"/>
    <path d="M16.1714 12.7979C13.6278 12.7979 11.5703 14.8554 11.5703 17.3989C11.5703 19.9424 13.6278 22 16.1714 22C18.7149 22 20.7724 19.9424 20.7724 17.3989C20.7724 14.8554 18.7068 12.7979 16.1714 12.7979ZM18.4476 19.0757H15.977C15.5395 19.0757 15.1912 18.7112 15.1912 18.2576V15.5196C15.1912 15.066 15.5476 14.7015 15.977 14.7015C16.4063 14.7015 16.7627 15.066 16.7627 15.5196V17.4313H18.4476C18.885 17.4313 19.2333 17.7958 19.2333 18.2495C19.2333 18.7031 18.8769 19.0757 18.4476 19.0757Z"
          fill="#A3A8AF"/>
    <path d="M8.35356 10.9186C8.24015 10.7242 8.10245 10.5784 7.94044 10.4731C7.77843 10.3678 7.60022 10.2787 7.40581 10.1896C7.2114 10.1005 7.04129 10.0276 6.87118 9.97085C6.70917 9.91415 6.57146 9.84125 6.45806 9.75214C6.34465 9.66304 6.29605 9.55773 6.29605 9.42813C6.29605 9.27422 6.36085 9.15271 6.49856 9.0717C6.64437 8.9826 6.83878 8.9421 7.08179 8.9421C7.3086 8.9421 7.51111 8.9826 7.69742 9.06361C7.88374 9.14461 7.99714 9.18511 8.03764 9.18511C8.15105 9.18511 8.23205 9.13651 8.29686 9.0312C8.36166 8.934 8.39406 8.83679 8.39406 8.73959C8.39406 8.64238 8.35356 8.55328 8.25636 8.48037C8.15915 8.40747 8.03764 8.35077 7.89184 8.31836C7.73793 8.27786 7.60022 8.25356 7.46251 8.23736C7.43011 8.23736 7.39771 8.23736 7.37341 8.22926V7.55692C7.37341 7.33011 7.1709 7.1438 6.92788 7.1438C6.67677 7.1438 6.48236 7.33011 6.48236 7.55692V8.28596C6.28795 8.33456 6.11784 8.40747 5.94773 8.49657C5.78572 8.59378 5.64801 8.73149 5.55081 8.9016C5.4536 9.07981 5.405 9.28232 5.405 9.50913C5.405 9.71164 5.4455 9.88985 5.5265 10.0519C5.60751 10.2139 5.71281 10.3354 5.84242 10.4326C5.97203 10.5298 6.11784 10.6108 6.27985 10.6918C6.44186 10.7647 6.59576 10.8376 6.74967 10.9024C6.90358 10.9672 7.04939 11.0239 7.179 11.0968C7.3086 11.1616 7.41391 11.2426 7.49491 11.3479C7.57592 11.4451 7.61642 11.5585 7.61642 11.6881C7.61642 11.8664 7.54352 12.0041 7.39771 12.1013C7.2519 12.1985 7.06559 12.239 6.84688 12.239C6.68487 12.239 6.53906 12.2147 6.40135 12.158C6.26365 12.1013 6.16644 12.0446 6.09354 11.9798C6.02063 11.915 5.94773 11.8583 5.87482 11.8016C5.80192 11.7449 5.73712 11.7206 5.67231 11.7206C5.56701 11.7206 5.4779 11.7692 5.3969 11.8664C5.31589 11.9636 5.27539 12.0608 5.27539 12.158C5.27539 12.3524 5.4293 12.5306 5.74522 12.7007C5.95583 12.8141 6.19884 12.887 6.46616 12.9194V13.5594C6.46616 13.7862 6.66867 13.9725 6.91168 13.9725C7.1628 13.9725 7.35721 13.7862 7.35721 13.5594V12.9032C7.63262 12.8465 7.85943 12.7493 8.05384 12.5954C8.35356 12.3605 8.50747 12.0203 8.50747 11.5909C8.52367 11.3317 8.46697 11.1049 8.35356 10.9186Z"
          fill="white" stroke="white" stroke-width="0.5"/>
    <path d="M8.14352 15.5682H5.8268C5.51088 15.5682 5.25977 15.8194 5.25977 16.1353C5.25977 16.4512 5.51088 16.7023 5.8268 16.7023H8.14352C8.45944 16.7023 8.71056 16.4512 8.71056 16.1353C8.71056 15.8194 8.45134 15.5682 8.14352 15.5682Z"
          fill="white" stroke="white" stroke-width="0.5"/>
</svg>
