<svg viewBox="0 0 24 24" fill="none" xmlns="http://www.w3.org/2000/svg">
    <path d="M18.3 3.7C17.9 3.4 17.5 3.2 16.9 3.2H14C13.8 2.5 13.1 2 12.4 2H9.49999C8.79999 2 8.09999 2.5 7.89999 3.2H5.1C3.9 3.2 3 4.1 3 5.29999V19.8C3 21 3.9 21.9 5.1 21.9H11.7C10.6 20.8 9.89998 19.2 9.89998 17.5C9.89998 14.1 12.7 11.3 16.1 11.3C17.2 11.3 18.2 11.6 19 12V5.2C19 4.6 18.7 4 18.3 3.7ZM8.19999 12.8C7.99999 12.9 7.8 13 7.6 13.1V13.6C7.6 14 7.29999 14.3 6.89999 14.3C6.49999 14.3 6.19999 14 6.19999 13.6V13.2C5.99999 13.2 5.8 13.1 5.6 13C5.5 12.9 5 12.7 5 12.2C5 12 5.09999 11.9 5.19999 11.7C5.39999 11.5 5.49999 11.5 5.69999 11.5C5.89999 11.5 5.9 11.5 6.1 11.6C6.2 11.7 6.3 11.7 6.3 11.8C6.4 11.8 6.4 11.9 6.49999 11.9C6.69999 12 7.1 12 7.3 11.9C7.4 11.8 7.39999 11.8 7.39999 11.7C7.39999 11.6 7.4 11.6 7.3 11.5C7.2 11.4 7.2 11.4 7.1 11.3C7 11.2 6.9 11.2 6.8 11.1H6.69999C6.59999 11.1 6.49999 11 6.39999 11L6.19999 10.9C5.99999 10.8 5.89999 10.7 5.69999 10.6C5.49999 10.5 5.4 10.3 5.3 10.1C5.2 9.89999 5.19999 9.69999 5.19999 9.39999C5.19999 9.09999 5.29999 8.89999 5.39999 8.69999C5.49999 8.49999 5.69999 8.29999 5.89999 8.19999C6.09999 8.09999 6.2 8.09999 6.3 7.99999V7.49999C6.3 7.09999 6.59999 6.79999 6.99999 6.79999C7.39999 6.79999 7.69999 7.09999 7.69999 7.49999V7.99999C7.79999 7.99999 7.89999 7.99999 7.99999 8.09999C8.19999 8.09999 8.29999 8.19999 8.49999 8.29999C8.69999 8.39999 8.69999 8.59999 8.69999 8.79999C8.69999 8.89999 8.7 9.09999 8.6 9.19999C8.5 9.39999 8.3 9.49999 8.1 9.49999C8 9.49999 7.99999 9.49999 7.69999 9.39999C7.39999 9.29999 6.89999 9.29999 6.69999 9.39999C6.59999 9.39999 6.6 9.49999 6.6 9.49999C6.6 9.49999 6.59999 9.59999 6.69999 9.59999C6.79999 9.69999 6.89999 9.69999 6.99999 9.79999C7.19999 9.89999 7.4 9.89999 7.6 9.99999C7.8 10.1 7.99999 10.2 8.19999 10.3C8.39999 10.4 8.59999 10.6 8.69999 10.8C8.79999 11 8.89999 11.3 8.89999 11.6C8.79999 12.1 8.59999 12.5 8.19999 12.8ZM9.49999 4.5C9.39999 4.5 9.39998 4.4 9.39998 4.3V3.6C9.39998 3.5 9.49999 3.4 9.49999 3.4H12.4C12.5 3.4 12.5 3.5 12.5 3.6V4.3C12.5 4.4 12.4 4.5 12.4 4.5H9.49999ZM16 8.99999H11C10.6 8.99999 10.2 8.59999 10.2 8.19999C10.2 7.79999 10.5 7.39999 11 7.39999H16C16.4 7.39999 16.8 7.79999 16.8 8.19999C16.8 8.59999 16.4 8.99999 16 8.99999Z"
          fill="#A3A8AF"/>
    <path d="M15.6 12.8C13.1 12.8 11 14.9 11 17.4C11 19.9 13.1 22 15.6 22C18.1 22 20.2 19.9 20.2 17.4C20.2 14.9 18.1 12.8 15.6 12.8ZM18.1 18H16.2V19.9C16.2 20.2 15.9 20.5 15.6 20.5C15.3 20.5 15 20.2 15 19.9V18H13.1C12.8 18 12.5 17.7 12.5 17.4C12.5 17.1 12.8 16.8 13.1 16.8H15V14.9C15 14.6 15.3 14.3 15.6 14.3C15.9 14.3 16.2 14.6 16.2 14.9V16.8H18.1C18.4 16.8 18.7 17.1 18.7 17.4C18.7 17.7 18.4 18 18.1 18Z"
          fill="#A3A8AF"/>
</svg>
