<svg viewBox="0 0 24 24" fill="none" xmlns="http://www.w3.org/2000/svg">
    <path d="M10 12.2172C10 13.2908 10.8959 14.162 12 14.162C12.3668 14.162 12.6667 14.4535 12.6667 14.8102C12.6667 15.1669 12.3668 15.4585 12 15.4585C11.7637 15.4585 11.5414 15.335 11.4215 15.1326C11.2381 14.8239 10.8289 14.7176 10.5115 14.896C10.194 15.0743 10.0847 15.4722 10.2681 15.7809C10.5079 16.1856 10.8924 16.4874 11.3333 16.6418V17.3518C11.3333 17.7085 11.6332 18 12 18C12.3668 18 12.6667 17.7085 12.6667 17.3518V16.6452C13.4427 16.3777 14 15.6574 14 14.8102C14 13.7367 13.1041 12.8655 12 12.8655C11.6332 12.8655 11.3333 12.5739 11.3333 12.2172C11.3333 11.8605 11.6332 11.569 12 11.569C12.2363 11.569 12.4586 11.6925 12.5785 11.8948C12.7619 12.2035 13.1711 12.3098 13.4885 12.1315C13.806 11.9531 13.9153 11.5553 13.7319 11.2466C13.4921 10.8418 13.1076 10.54 12.6667 10.3857V9.64825C12.6667 9.29154 12.3668 9 12 9C11.6332 9 11.3333 9.29154 11.3333 9.64825V10.3822C10.5573 10.6498 10 11.37 10 12.2172Z"
          fill="#A3A8AF" stroke="#A3A8AF" stroke-width="0.5"/>
    <path d="M19.7882 5.68922V2.9091C19.7882 2.40703 19.3804 2 18.8773 2H6.7326C5.22585 2 3.5 3.22344 3.5 4.72727V19.2727C3.5 20.7766 5.22581 22 6.73256 22H19.4845C19.9876 22 20.5 21.593 20.5 21.0909V6.54547C20.5 6.1498 20.1417 5.81418 19.7882 5.68922ZM6.7326 4C7.23486 4 17.9665 4 17.9665 4V5.5C17.9665 5.5 7.23486 5.5 6.7326 5.5C6.23034 5.5 5.82173 5.22852 5.82173 4.72723C5.82173 4.22594 6.23034 4 6.7326 4ZM18.5 20H6.7326C6.23034 20 5.82173 19.5922 5.82173 19.0909V7.34363C6.10682 7.44453 6.41331 7.5 6.7326 7.5H18.5V20Z"
          fill="#A3A8AF"/>
</svg>
