<svg viewBox="0 0 24 24" fill="none" xmlns="http://www.w3.org/2000/svg">
    <path fill-rule="evenodd" clip-rule="evenodd"
          d="M13.4168 2C12.0184 2 10.6252 2.82665 10.0584 4.41367L10.0506 4.43632L7.04175 13.5441L2.79302 17.7929C2.27814 18.3078 2.00012 18.9764 2.00012 19.6667C2.00012 21.1356 3.19784 22.3333 4.66679 22.3333C5.35444 22.3333 6.0893 22.1069 6.5831 21.4979L10.7893 17.2917L19.8882 14.2858C21.4168 13.8103 22.3335 12.4011 22.3335 10.9167C22.3335 9.96745 21.9655 9.13447 21.2906 8.45956L15.8739 3.04289C15.186 2.35498 14.2648 2 13.4168 2ZM8.86631 14.397L11.9455 5.0762C12.2139 4.33694 12.8179 4 13.4168 4C13.7354 4 14.1476 4.14501 14.4597 4.4571L19.8764 9.87377C20.2014 10.1989 20.3335 10.5325 20.3335 10.9167C20.3335 11.5955 19.921 12.1832 19.2894 12.3776L19.2698 12.3838L9.93645 15.4671C9.78818 15.5161 9.65344 15.5991 9.54303 15.7096L5.12635 20.1262C5.09289 20.1597 5.06184 20.1955 5.03345 20.2333C5.02672 20.2423 4.95535 20.3333 4.66679 20.3333C4.30241 20.3333 4.00012 20.031 4.00012 19.6667C4.00012 19.5236 4.05544 19.3589 4.20724 19.2071L8.62389 14.7904C8.73431 14.68 8.81733 14.5453 8.86631 14.397ZM14.4572 6.37622C14.2122 6.13115 13.8577 6.03045 13.5204 6.11008C13.1831 6.18971 12.911 6.43831 12.8014 6.7671L11.6348 10.2671C11.515 10.6264 11.6085 11.0226 11.8763 11.2904L13.043 12.4571C13.3108 12.7249 13.707 12.8185 14.0663 12.6987L17.5664 11.532C17.8951 11.4224 18.1437 11.1504 18.2234 10.8131C18.303 10.4758 18.2023 10.1213 17.9572 9.87623L14.4572 6.37622ZM13.7276 10.3132L14.1871 8.93456L15.3989 10.1463L14.0202 10.6059L13.7276 10.3132Z"
          fill="#A3A8AF"/>
</svg>
