<svg viewBox="0 0 24 24" fill="none" xmlns="http://www.w3.org/2000/svg">
    <g clip-path="url(#clip0_1_1699)">
        <path fill-rule="evenodd" clip-rule="evenodd"
              d="M12.7005 3.12004C12.9008 2.8657 13.2694 2.82184 13.5237 3.02219C13.7781 3.22246 13.8219 3.59105 13.6215 3.84543L12.3056 5.51641C12.1986 5.6523 12.0435 5.72727 11.8835 5.73785C11.8811 5.73806 11.8786 5.73817 11.8762 5.73828C11.8744 5.73836 11.8727 5.73844 11.8709 5.73855C11.8675 5.73871 11.8641 5.73896 11.8607 5.73921C11.8554 5.7396 11.85 5.74 11.8446 5.74L11.8414 5.73988L11.8395 5.73996L11.8377 5.73988L11.8344 5.74C11.8289 5.74 11.8235 5.73959 11.8181 5.73919C11.8146 5.73893 11.8112 5.73867 11.8077 5.73852C11.8033 5.73824 11.7989 5.73816 11.7945 5.73777C11.79 5.73746 11.7854 5.73738 11.7809 5.73699L11.7795 5.73691C11.6228 5.72223 11.4722 5.64531 11.3688 5.51047L10.0874 3.83949C9.89033 3.58262 9.93888 3.21461 10.1958 3.01758C10.4527 2.82051 10.8206 2.86906 11.0178 3.12598L11.2533 3.43316V0.594063C11.2533 0.270273 11.5158 0.0078125 11.8396 0.0078125C12.1634 0.0078125 12.4258 0.270313 12.4258 0.594063V3.46879L12.7005 3.12004ZM2.58625 7.1835H21.4137C21.7375 7.1835 22 7.44596 22 7.76971C22 8.0935 21.7375 8.35596 21.4137 8.35596H18.8806V18.3935C18.8806 19.2763 18.1624 19.9944 17.2796 19.9944H6.72035C5.83758 19.9944 5.11941 19.2763 5.11941 18.3935V8.35596H2.58625C2.26246 8.35596 2 8.09346 2 7.76971C2 7.44596 2.26246 7.1835 2.58625 7.1835ZM11.2453 14.4017H6.29187V16.2378H11.2453C11.3606 16.2378 11.4543 16.144 11.4543 16.0287V14.6108C11.4543 14.4955 11.3606 14.4017 11.2453 14.4017ZM17.2796 18.822C17.5159 18.822 17.7081 18.6297 17.7081 18.3935V8.35596H6.29187V11.0635H8.87336C9.19715 11.0635 9.45961 11.326 9.45961 11.6498C9.45961 11.9736 9.19711 12.236 8.87336 12.236H6.29187V13.2293H11.2453C12.0071 13.2293 12.6268 13.849 12.6268 14.6108V16.0287C12.6268 16.7905 12.0071 17.4102 11.2453 17.4102H6.29187V18.3935C6.29187 18.6297 6.4841 18.822 6.72035 18.822H17.2796Z"
              fill="#A3A8AF"/>
        <path d="M13.5237 3.02219L13.369 3.21858L13.3691 3.2186L13.5237 3.02219ZM12.7005 3.12004L12.8969 3.27471L12.8969 3.2747L12.7005 3.12004ZM13.6215 3.84543L13.4251 3.69072L13.4251 3.69075L13.6215 3.84543ZM12.3056 5.51641L12.1092 5.36173L12.1091 5.36176L12.3056 5.51641ZM11.8835 5.73785L11.867 5.48836L11.8625 5.48873L11.8835 5.73785ZM11.8762 5.73828L11.8648 5.48854H11.8648L11.8762 5.73828ZM11.8709 5.73855L11.882 5.98836L11.8873 5.98802L11.8709 5.73855ZM11.8607 5.73921L11.8423 5.48989L11.8423 5.48989L11.8607 5.73921ZM11.8446 5.74L11.8355 5.99H11.8446V5.74ZM11.8414 5.73988L11.8505 5.49005L11.8406 5.48969L11.8308 5.49011L11.8414 5.73988ZM11.8395 5.73996L11.8287 5.98973L11.8394 5.99019L11.8501 5.98974L11.8395 5.73996ZM11.8377 5.73988L11.8484 5.49011L11.8386 5.48969L11.8287 5.49004L11.8377 5.73988ZM11.8344 5.74V5.99016L11.8434 5.98984L11.8344 5.74ZM11.8181 5.73919L11.7994 5.98849L11.7995 5.98849L11.8181 5.73919ZM11.8077 5.73852L11.7922 5.98808L11.7967 5.98828L11.8077 5.73852ZM11.7945 5.73777L11.8167 5.48871L11.8117 5.48837L11.7945 5.73777ZM11.7809 5.73699L11.8024 5.48781L11.7951 5.4874L11.7809 5.73699ZM11.7795 5.73691L11.7562 5.98599L11.7653 5.98651L11.7795 5.73691ZM11.3688 5.51047L11.5672 5.35834L11.5672 5.35833L11.3688 5.51047ZM10.0874 3.83949L10.2858 3.68736L10.2858 3.68732L10.0874 3.83949ZM10.1958 3.01758L10.3479 3.21596L10.348 3.21594L10.1958 3.01758ZM11.0178 3.12598L11.2161 2.97384L11.2161 2.9738L11.0178 3.12598ZM11.2533 3.43316L11.055 3.5853L11.5033 4.16995V3.43316H11.2533ZM12.4258 3.46879H12.1758V4.19031L12.6222 3.62346L12.4258 3.46879ZM22 7.76971H22.25V7.76968L22 7.76971ZM18.8806 8.35596V8.10596H18.6306V8.35596H18.8806ZM5.11941 8.35596H5.36941V8.10596H5.11941V8.35596ZM6.29187 14.4017V14.1517H6.04187V14.4017H6.29187ZM6.29187 16.2378H6.04187V16.4878H6.29187V16.2378ZM17.7081 8.35596H17.9581V8.10596H17.7081V8.35596ZM6.29187 8.35596V8.10596H6.04187V8.35596H6.29187ZM6.29187 11.0635H6.04187V11.3135H6.29187V11.0635ZM6.29187 12.236V11.986H6.04187V12.236H6.29187ZM6.29187 13.2293H6.04187V13.4793H6.29187V13.2293ZM6.29187 17.4102V17.1602H6.04187V17.4102H6.29187ZM13.6784 2.82579C13.3155 2.53999 12.7898 2.60257 12.5041 2.96537L12.8969 3.2747C13.0118 3.12884 13.2232 3.10368 13.369 3.21858L13.6784 2.82579ZM13.8179 4.00014C14.1037 3.63729 14.0412 3.11148 13.6784 2.82577L13.3691 3.2186C13.5149 3.33344 13.5401 3.54482 13.4251 3.69072L13.8179 4.00014ZM12.502 5.67108L13.8179 4.0001L13.4251 3.69075L12.1092 5.36173L12.502 5.67108ZM11.9 5.98731C12.1268 5.9723 12.3488 5.8656 12.502 5.67105L12.1091 5.36176C12.0483 5.43901 11.9602 5.48223 11.867 5.4884L11.9 5.98731ZM11.8876 5.98802C11.8892 5.98794 11.8965 5.98764 11.9044 5.98697L11.8625 5.48873C11.8644 5.48857 11.8657 5.4885 11.866 5.48848C11.8662 5.48847 11.8662 5.48848 11.8648 5.48854L11.8876 5.98802ZM11.8873 5.98802L11.8876 5.98802L11.8648 5.48854C11.8634 5.4886 11.8592 5.48879 11.8546 5.48909L11.8873 5.98802ZM11.8792 5.98853C11.8832 5.98823 11.8829 5.98827 11.882 5.98831L11.8598 5.4888C11.8521 5.48914 11.8451 5.48968 11.8423 5.48989L11.8792 5.98853ZM11.8446 5.99C11.8608 5.99 11.8753 5.98881 11.8792 5.98853L11.8423 5.48989C11.8392 5.49012 11.8388 5.49014 11.8389 5.49014C11.8391 5.49012 11.8413 5.49 11.8446 5.49V5.99ZM11.8323 5.98972L11.8356 5.98984L11.8537 5.49017L11.8505 5.49005L11.8323 5.98972ZM11.8501 5.98974L11.8519 5.98966L11.8308 5.49011L11.829 5.49018L11.8501 5.98974ZM11.8269 5.98965L11.8287 5.98973L11.8503 5.49019L11.8484 5.49011L11.8269 5.98965ZM11.8434 5.98984L11.8466 5.98972L11.8287 5.49004L11.8254 5.49016L11.8434 5.98984ZM11.7995 5.98849C11.8033 5.98878 11.818 5.99 11.8344 5.99V5.49C11.8378 5.49 11.84 5.49012 11.8402 5.49014C11.8402 5.49014 11.8399 5.49012 11.8368 5.48989L11.7995 5.98849ZM11.7967 5.98828C11.7957 5.98823 11.7953 5.98818 11.7994 5.98849L11.8368 5.48989C11.8339 5.48968 11.8266 5.48911 11.8186 5.48876L11.7967 5.98828ZM11.7723 5.98678C11.7799 5.98747 11.7865 5.98778 11.7894 5.98792C11.7902 5.98795 11.7909 5.98799 11.7914 5.98801C11.792 5.98803 11.7923 5.98805 11.7926 5.98806C11.7931 5.98809 11.7929 5.98808 11.7922 5.98804L11.8231 5.48899C11.8203 5.48882 11.8178 5.4887 11.8162 5.48862C11.8153 5.48858 11.8145 5.48854 11.814 5.48852C11.8134 5.48849 11.8131 5.48848 11.8128 5.48846C11.8113 5.48839 11.8134 5.48847 11.8167 5.48876L11.7723 5.98678ZM11.7594 5.98607C11.7669 5.98672 11.7734 5.98702 11.7759 5.98713C11.7778 5.98722 11.7779 5.98723 11.7785 5.98726C11.7788 5.98727 11.7783 5.98725 11.7773 5.98718L11.8117 5.48837C11.8085 5.48814 11.8057 5.48799 11.8037 5.48789C11.802 5.48781 11.7999 5.48771 11.7995 5.48769C11.7974 5.48759 11.7994 5.48766 11.8023 5.48792L11.7594 5.98607ZM11.7653 5.98651L11.7667 5.98659L11.7951 5.4874L11.7937 5.48732L11.7653 5.98651ZM11.1705 5.66259C11.3183 5.85535 11.5336 5.96497 11.7562 5.98582L11.8028 5.488C11.7119 5.47949 11.6262 5.43527 11.5672 5.35834L11.1705 5.66259ZM9.88902 3.99163L11.1705 5.6626L11.5672 5.35833L10.2858 3.68736L9.88902 3.99163ZM10.0437 2.8192C9.6772 3.10024 9.6079 3.6252 9.88905 3.99166L10.2858 3.68732C10.1728 3.54003 10.2006 3.32897 10.3479 3.21596L10.0437 2.8192ZM11.2161 2.9738C10.935 2.6074 10.4101 2.53808 10.0436 2.81921L10.348 3.21594C10.4953 3.10294 10.7063 3.13073 10.8194 3.27815L11.2161 2.9738ZM11.4517 3.28103L11.2161 2.97384L10.8194 3.27812L11.055 3.5853L11.4517 3.28103ZM11.0033 0.594063V3.43316H11.5033V0.594063H11.0033ZM11.8396 -0.242188C11.3778 -0.242188 11.0033 0.132192 11.0033 0.594063H11.5033C11.5033 0.408355 11.6539 0.257812 11.8396 0.257812V-0.242188ZM12.6758 0.594063C12.6758 0.132252 12.3015 -0.242188 11.8396 -0.242188V0.257812C12.0253 0.257812 12.1758 0.408373 12.1758 0.594063H12.6758ZM12.6758 3.46879V0.594063H12.1758V3.46879H12.6758ZM12.5041 2.96536L12.2294 3.31411L12.6222 3.62346L12.8969 3.27471L12.5041 2.96536ZM21.4137 6.9335H2.58625V7.4335H21.4137V6.9335ZM22.25 7.76968C22.2499 7.3079 21.8756 6.9335 21.4137 6.9335V7.4335C21.5995 7.4335 21.75 7.58402 21.75 7.76974L22.25 7.76968ZM21.4137 8.60596C21.8756 8.60596 22.25 8.23158 22.25 7.76971H21.75C21.75 7.95542 21.5994 8.10596 21.4137 8.10596V8.60596ZM18.8806 8.60596H21.4137V8.10596H18.8806V8.60596ZM19.1306 18.3935V8.35596H18.6306V18.3935H19.1306ZM17.2796 20.2444C18.3005 20.2444 19.1306 19.4143 19.1306 18.3935H18.6306C18.6306 19.1382 18.0244 19.7444 17.2796 19.7444V20.2444ZM6.72035 20.2444H17.2796V19.7444H6.72035V20.2444ZM4.86941 18.3935C4.86941 19.4143 5.69951 20.2444 6.72035 20.2444V19.7444C5.97565 19.7444 5.36941 19.1382 5.36941 18.3935H4.86941ZM4.86941 8.35596V18.3935H5.36941V8.35596H4.86941ZM2.58625 8.60596H5.11941V8.10596H2.58625V8.60596ZM1.75 7.76971C1.75 8.23152 2.12438 8.60596 2.58625 8.60596V8.10596C2.40054 8.10596 2.25 7.9554 2.25 7.76971H1.75ZM2.58625 6.9335C2.1244 6.9335 1.75 7.30788 1.75 7.76971H2.25C2.25 7.58404 2.40052 7.4335 2.58625 7.4335V6.9335ZM6.29187 14.6517H11.2453V14.1517H6.29187V14.6517ZM6.54187 16.2378V14.4017H6.04187V16.2378H6.54187ZM11.2453 15.9878H6.29187V16.4878H11.2453V15.9878ZM11.2043 16.0287C11.2043 16.006 11.2225 15.9878 11.2453 15.9878V16.4878C11.4987 16.4878 11.7043 16.282 11.7043 16.0287H11.2043ZM11.2043 14.6108V16.0287H11.7043V14.6108H11.2043ZM11.2453 14.6517C11.2225 14.6517 11.2043 14.6336 11.2043 14.6108H11.7043C11.7043 14.3574 11.4987 14.1517 11.2453 14.1517V14.6517ZM17.4581 18.3935C17.4581 18.4917 17.3778 18.572 17.2796 18.572V19.072C17.654 19.072 17.9581 18.7678 17.9581 18.3935H17.4581ZM17.4581 8.35596V18.3935H17.9581V8.35596H17.4581ZM6.29187 8.60596H17.7081V8.10596H6.29187V8.60596ZM6.54187 11.0635V8.35596H6.04187V11.0635H6.54187ZM8.87336 10.8135H6.29187V11.3135H8.87336V10.8135ZM9.70961 11.6498C9.70961 11.188 9.33523 10.8135 8.87336 10.8135V11.3135C9.05907 11.3135 9.20961 11.4641 9.20961 11.6498H9.70961ZM8.87336 12.486C9.33517 12.486 9.70961 12.1117 9.70961 11.6498H9.20961C9.20961 11.8355 9.05905 11.986 8.87336 11.986V12.486ZM6.29187 12.486H8.87336V11.986H6.29187V12.486ZM6.54187 13.2293V12.236H6.04187V13.2293H6.54187ZM11.2453 12.9793H6.29187V13.4793H11.2453V12.9793ZM12.8768 14.6108C12.8768 13.7109 12.1451 12.9793 11.2453 12.9793V13.4793C11.869 13.4793 12.3768 13.9871 12.3768 14.6108H12.8768ZM12.8768 16.0287V14.6108H12.3768V16.0287H12.8768ZM11.2453 17.6602C12.1451 17.6602 12.8768 16.9286 12.8768 16.0287H12.3768C12.3768 16.6524 11.869 17.1602 11.2453 17.1602V17.6602ZM6.29187 17.6602H11.2453V17.1602H6.29187V17.6602ZM6.54187 18.3935V17.4102H6.04187V18.3935H6.54187ZM6.72035 18.572C6.62217 18.572 6.54187 18.4917 6.54187 18.3935H6.04187C6.04187 18.7678 6.34603 19.072 6.72035 19.072V18.572ZM17.2796 18.572H6.72035V19.072H17.2796V18.572Z"
              fill="#A3A8AF"/>
    </g>
    <defs>
        <clipPath id="clip0_1_1699">
            <rect width="24" height="24" fill="white"/>
        </clipPath>
    </defs>
</svg>
