<svg viewBox="0 0 24 24" fill="none" xmlns="http://www.w3.org/2000/svg">
    <path fill-rule="evenodd" clip-rule="evenodd"
          d="M12.5236 2.22965L13.7034 3.90177C13.8848 4.15882 13.8401 4.52707 13.6036 4.7242C13.5057 4.80586 13.3902 4.84542 13.2756 4.84542C13.1135 4.84542 12.9532 4.76638 12.8469 4.61573L12.63 4.30829V7.14937C12.63 7.47338 12.3884 7.73602 12.0903 7.73602C11.7923 7.73602 11.5506 7.47334 11.5506 7.14937V4.27272L11.2978 4.62171C11.1913 4.76868 11.0331 4.84546 10.8734 4.84546C10.7565 4.84546 10.6388 4.80433 10.5398 4.71963C10.3056 4.51918 10.2653 4.15029 10.4497 3.89582L11.6612 2.22371C11.7563 2.09248 11.8926 2.01779 12.0343 2.00317L12.0382 2.00285C12.053 2.00145 12.0677 2.00051 12.0826 2.00043C12.0838 2.00041 12.085 2.00031 12.0862 2.00022C12.0876 2.00011 12.0889 2 12.0903 2C12.0921 2 12.0939 2.00014 12.0957 2.00028C12.0972 2.0004 12.0987 2.00051 12.1003 2.00055C12.114 2.00066 12.1275 2.00152 12.1411 2.00278L12.1476 2.00336C12.2912 2.01857 12.429 2.09534 12.5236 2.22965ZM3.53972 9.18029H20.8728C21.1709 9.18029 21.4126 9.44293 21.4126 9.76694C21.4126 10.0909 21.1709 10.3536 20.8728 10.3536H18.5408V20.398C18.5408 21.2813 17.8796 22 17.0669 22H7.34569C6.53294 22 5.87178 21.2813 5.87178 20.398V10.3536H3.53972C3.24163 10.3536 3 10.0909 3 9.76694C3 9.44293 3.24163 9.18029 3.53972 9.18029ZM11.5115 16.4035H6.95118V18.2408H11.5115C11.6176 18.2408 11.7039 18.1469 11.7039 18.0316V16.6127C11.7039 16.4973 11.6176 16.4035 11.5115 16.4035ZM17.0669 20.8267C17.2844 20.8267 17.4614 20.6344 17.4614 20.398V10.3536H6.95118V13.063H9.3278C9.62586 13.063 9.86752 13.3257 9.86752 13.6497C9.86752 13.9737 9.62586 14.2363 9.3278 14.2363H6.95118V15.2302H11.5115C12.2128 15.2302 12.7833 15.8504 12.7833 16.6127V18.0316C12.7833 18.7939 12.2128 19.414 11.5115 19.414H6.95118V20.398C6.95118 20.6344 7.12815 20.8267 7.34569 20.8267H17.0669Z"
          fill="#A3A8AF"/>
    <path d="M13.7034 3.90177L13.4991 4.04589L13.4991 4.04591L13.7034 3.90177ZM12.5236 2.22965L12.3193 2.3737L12.3194 2.37377L12.5236 2.22965ZM13.6036 4.7242L13.4435 4.53217L13.4435 4.5322L13.6036 4.7242ZM12.8469 4.61573L13.0512 4.47162L13.0512 4.47161L12.8469 4.61573ZM12.63 4.30829L12.8343 4.16418L12.38 3.52024V4.30829H12.63ZM11.5506 4.27272H11.8006V3.50156L11.3482 4.12604L11.5506 4.27272ZM11.2978 4.62171L11.0953 4.47503L11.0953 4.47507L11.2978 4.62171ZM10.5398 4.71963L10.7024 4.52973L10.7024 4.5297L10.5398 4.71963ZM10.4497 3.89582L10.6522 4.04254L10.6522 4.0425L10.4497 3.89582ZM11.6612 2.22371L11.8637 2.37039L11.8637 2.37036L11.6612 2.22371ZM12.0343 2.00317L12.0143 1.75391L12.0087 1.75449L12.0343 2.00317ZM12.0382 2.00285L12.0583 2.25207L12.062 2.25172L12.0382 2.00285ZM12.0826 2.00043L12.0839 2.25044L12.0863 2.2504L12.0826 2.00043ZM12.0862 2.00022L12.0662 1.75102L12.0661 1.75102L12.0862 2.00022ZM12.0957 2.00028L12.115 1.75102L12.115 1.75102L12.0957 2.00028ZM12.1003 2.00055L12.0944 2.25051L12.0981 2.25054L12.1003 2.00055ZM12.1411 2.00278L12.1182 2.25172L12.1186 2.25176L12.1411 2.00278ZM12.1476 2.00336L12.1739 1.75472L12.1701 1.75438L12.1476 2.00336ZM18.5408 10.3536V10.1036H18.2908V10.3536H18.5408ZM5.87178 10.3536H6.12178V10.1036H5.87178V10.3536ZM6.95118 16.4035V16.1535H6.70118V16.4035H6.95118ZM6.95118 18.2408H6.70118V18.4908H6.95118V18.2408ZM17.4614 10.3536H17.7114V10.1036H17.4614V10.3536ZM6.95118 10.3536V10.1036H6.70118V10.3536H6.95118ZM6.95118 13.063H6.70118V13.313H6.95118V13.063ZM6.95118 14.2363V13.9863H6.70118V14.2363H6.95118ZM6.95118 15.2302H6.70118V15.4802H6.95118V15.2302ZM6.95118 19.414V19.164H6.70118V19.414H6.95118ZM13.9076 3.75764L12.7279 2.08553L12.3194 2.37377L13.4991 4.04589L13.9076 3.75764ZM13.7637 4.91623C14.1037 4.6328 14.1615 4.1174 13.9076 3.75762L13.4991 4.04591C13.608 4.20023 13.5765 4.42135 13.4435 4.53217L13.7637 4.91623ZM13.2756 5.09542C13.4488 5.09542 13.6209 5.03529 13.7637 4.91621L13.4435 4.5322C13.3905 4.57643 13.3316 4.59542 13.2756 4.59542V5.09542ZM12.6426 4.75983C12.7948 4.97546 13.0305 5.09542 13.2756 5.09542V4.59542C13.1965 4.59542 13.1117 4.55729 13.0512 4.47162L12.6426 4.75983ZM12.4258 4.45241L12.6427 4.75984L13.0512 4.47161L12.8343 4.16418L12.4258 4.45241ZM12.88 7.14937V4.30829H12.38V7.14937H12.88ZM12.0903 7.98602C12.5457 7.98602 12.88 7.59143 12.88 7.14937H12.38C12.38 7.35533 12.2311 7.48602 12.0903 7.48602V7.98602ZM11.3006 7.14937C11.3006 7.59138 11.635 7.98602 12.0903 7.98602V7.48602C11.9496 7.48602 11.8006 7.3553 11.8006 7.14937H11.3006ZM11.3006 4.27272V7.14937H11.8006V4.27272H11.3006ZM11.5002 4.76839L11.7531 4.4194L11.3482 4.12604L11.0953 4.47503L11.5002 4.76839ZM10.8734 5.09546C11.1148 5.09546 11.3477 4.97895 11.5002 4.76835L11.0953 4.47507C11.0349 4.55841 10.9513 4.59546 10.8734 4.59546V5.09546ZM10.3772 4.90953C10.5214 5.03295 10.6967 5.09546 10.8734 5.09546V4.59546C10.8162 4.59546 10.7561 4.57571 10.7024 4.52973L10.3772 4.90953ZM10.2473 3.7491C9.98881 4.10575 10.0411 4.62179 10.3773 4.90955L10.7024 4.5297C10.5702 4.41656 10.5418 4.19484 10.6522 4.04254L10.2473 3.7491ZM11.4588 2.07703L10.2473 3.74915L10.6522 4.0425L11.8637 2.37039L11.4588 2.07703ZM12.0087 1.75449C11.7955 1.77647 11.5951 1.88878 11.4588 2.07705L11.8637 2.37036C11.9174 2.29619 11.9897 2.2591 12.06 2.25185L12.0087 1.75449ZM12.0182 1.75366L12.0143 1.75397L12.0544 2.25236L12.0583 2.25205L12.0182 1.75366ZM12.0812 1.75043C12.0569 1.75056 12.0343 1.75209 12.0145 1.75398L12.062 2.25172C12.0716 2.2508 12.0786 2.25045 12.0839 2.25043L12.0812 1.75043ZM12.0661 1.75102C12.0652 1.7511 12.0667 1.75098 12.0685 1.75086C12.0706 1.75073 12.0742 1.75053 12.0788 1.75046L12.0863 2.2504C12.097 2.25024 12.1063 2.24941 12.1063 2.24941L12.0661 1.75102ZM12.0903 1.75C12.0832 1.75 12.0773 1.75028 12.0733 1.75052C12.0696 1.75074 12.0664 1.751 12.0662 1.75102L12.1063 2.24941C12.1074 2.24932 12.1055 2.24948 12.1032 2.24962C12.1006 2.24978 12.096 2.25 12.0903 2.25V1.75ZM12.115 1.75102C12.1147 1.751 12.1034 1.75 12.0903 1.75V2.25C12.0849 2.25 12.0808 2.2498 12.0786 2.24967C12.0767 2.24956 12.0751 2.24943 12.0765 2.24953L12.115 1.75102ZM12.1061 1.75062C12.1097 1.7507 12.1125 1.75086 12.1139 1.75095C12.1151 1.75103 12.116 1.7511 12.115 1.75102L12.0765 2.24953C12.0769 2.24957 12.0851 2.25026 12.0944 2.25048L12.1061 1.75062ZM12.164 1.75383C12.1459 1.75216 12.125 1.75075 12.1024 1.75056L12.0981 2.25054C12.1029 2.25058 12.1092 2.25089 12.1182 2.25172L12.164 1.75383ZM12.1701 1.75438L12.1637 1.75379L12.1186 2.25176L12.125 2.25234L12.1701 1.75438ZM12.728 2.0856C12.5922 1.89297 12.3898 1.77761 12.1739 1.75475L12.1213 2.25197C12.1926 2.25953 12.2657 2.29771 12.3193 2.3737L12.728 2.0856ZM20.8728 8.93029H3.53972V9.43029H20.8728V8.93029ZM21.6626 9.76694C21.6626 9.32489 21.3282 8.93029 20.8728 8.93029V9.43029C21.0136 9.43029 21.1626 9.56096 21.1626 9.76694H21.6626ZM20.8728 10.6036C21.3282 10.6036 21.6626 10.209 21.6626 9.76694H21.1626C21.1626 9.9729 21.0136 10.1036 20.8728 10.1036V10.6036ZM18.5408 10.6036H20.8728V10.1036H18.5408V10.6036ZM18.7908 20.398V10.3536H18.2908V20.398H18.7908ZM17.0669 22.25C18.0369 22.25 18.7908 21.3993 18.7908 20.398H18.2908C18.2908 21.1633 17.7223 21.75 17.0669 21.75V22.25ZM7.34569 22.25H17.0669V21.75H7.34569V22.25ZM5.62178 20.398C5.62178 21.3994 6.37566 22.25 7.34569 22.25V21.75C6.69023 21.75 6.12178 21.1633 6.12178 20.398H5.62178ZM5.62178 10.3536V20.398H6.12178V10.3536H5.62178ZM3.53972 10.6036H5.87178V10.1036H3.53972V10.6036ZM2.75 9.76694C2.75 10.2089 3.08433 10.6036 3.53972 10.6036V10.1036C3.39893 10.1036 3.25 9.97288 3.25 9.76694H2.75ZM3.53972 8.93029C3.08434 8.93029 2.75 9.32489 2.75 9.76694H3.25C3.25 9.56096 3.39892 9.43029 3.53972 9.43029V8.93029ZM6.95118 16.6535H11.5115V16.1535H6.95118V16.6535ZM7.20118 18.2408V16.4035H6.70118V18.2408H7.20118ZM11.5115 17.9908H6.95118V18.4908H11.5115V17.9908ZM11.4539 18.0316C11.4539 18.0267 11.4558 18.0185 11.4635 18.0102C11.4715 18.0015 11.4882 17.9908 11.5115 17.9908V18.4908C11.775 18.4908 11.9539 18.2649 11.9539 18.0316H11.4539ZM11.4539 16.6127V18.0316H11.9539V16.6127H11.4539ZM11.5115 16.6535C11.4882 16.6535 11.4715 16.6427 11.4635 16.6341C11.4558 16.6257 11.4539 16.6176 11.4539 16.6127H11.9539C11.9539 16.3793 11.7749 16.1535 11.5115 16.1535V16.6535ZM17.2114 20.398C17.2114 20.5163 17.1271 20.5767 17.0669 20.5767V21.0767C17.4417 21.0767 17.7114 20.7524 17.7114 20.398H17.2114ZM17.2114 10.3536V20.398H17.7114V10.3536H17.2114ZM6.95118 10.6036H17.4614V10.1036H6.95118V10.6036ZM7.20118 13.063V10.3536H6.70118V13.063H7.20118ZM9.3278 12.813H6.95118V13.313H9.3278V12.813ZM10.1175 13.6497C10.1175 13.2077 9.78314 12.813 9.3278 12.813V13.313C9.46857 13.313 9.61752 13.4437 9.61752 13.6497H10.1175ZM9.3278 14.4863C9.78313 14.4863 10.1175 14.0917 10.1175 13.6497H9.61752C9.61752 13.8556 9.46858 13.9863 9.3278 13.9863V14.4863ZM6.95118 14.4863H9.3278V13.9863H6.95118V14.4863ZM7.20118 15.2302V14.2363H6.70118V15.2302H7.20118ZM11.5115 14.9802H6.95118V15.4802H11.5115V14.9802ZM13.0333 16.6127C13.0333 15.7323 12.3701 14.9802 11.5115 14.9802V15.4802C12.0555 15.4802 12.5333 15.9684 12.5333 16.6127H13.0333ZM13.0333 18.0316V16.6127H12.5333V18.0316H13.0333ZM11.5115 19.664C12.3701 19.664 13.0333 18.9119 13.0333 18.0316H12.5333C12.5333 18.6758 12.0555 19.164 11.5115 19.164V19.664ZM6.95118 19.664H11.5115V19.164H6.95118V19.664ZM7.20118 20.398V19.414H6.70118V20.398H7.20118ZM7.34569 20.5767C7.28542 20.5767 7.20118 20.5163 7.20118 20.398H6.70118C6.70118 20.7524 6.97088 21.0767 7.34569 21.0767V20.5767ZM17.0669 20.5767H7.34569V21.0767H17.0669V20.5767Z"
          fill="#A3A8AF"/>
</svg>
