<svg viewBox="0 0 24 24" fill="none" xmlns="http://www.w3.org/2000/svg">
    <path fill-rule="evenodd" clip-rule="evenodd"
          d="M12.4081 2.14564L21.2403 6.62078C21.7097 6.85552 22.0012 7.32711 22.0012 7.8521V16.1479C22.0012 16.6729 21.7097 17.1444 21.2403 17.3792L12.4045 21.8562C12.2118 21.9521 12.0014 22 11.791 22C11.572 22 11.353 21.9481 11.1544 21.8445L11.1506 21.8425L2.73817 17.3777C2.28283 17.1393 2 16.6722 2 16.1581V7.84191C2 7.32778 2.28283 6.86064 2.73817 6.62227C2.76633 6.60414 11.1237 2.16849 11.1544 2.15552C11.544 1.95238 12.0112 1.94801 12.4045 2.1438L12.4081 2.14564ZM11.8811 3.19199C11.8233 3.16359 11.7547 3.16417 11.6973 3.19363L8.84837 4.70567L16.9308 8.98276L20.1484 7.38086L11.8811 3.19199ZM3.28562 16.342L11.1968 20.5408V12.5553L3.17151 8.37057V16.1581C3.17151 16.2348 3.21382 16.3045 3.28183 16.34L3.28562 16.342ZM3.80761 7.38098L11.7887 11.5427L15.6403 9.62533L7.59783 5.36942L3.80761 7.38098ZM20.7159 16.3315C20.786 16.2966 20.8296 16.2262 20.8296 16.1479V8.35049L17.3833 10.0662V12.6556C17.3833 12.9791 17.121 13.2414 16.7975 13.2414C16.4741 13.2414 16.2118 12.9791 16.2118 12.6556V10.6495L12.3683 12.5629V20.5611L20.7159 16.3315ZM8.27982 13.2912C8.55886 13.1275 8.91779 13.221 9.08147 13.5C9.24519 13.7791 9.15167 14.138 8.87286 14.3018L6.54011 15.6704C6.53722 15.6721 6.53425 15.6735 6.53132 15.6751C6.52972 15.676 6.52831 15.6771 6.52675 15.6779C6.52304 15.68 6.51921 15.6818 6.51546 15.6837C6.50983 15.6867 6.50421 15.6896 6.4985 15.6924C6.4926 15.6953 6.48663 15.6979 6.48069 15.7006C6.47483 15.7031 6.46901 15.7058 6.46311 15.7081C6.45781 15.7103 6.45249 15.7123 6.44716 15.7142L6.44498 15.715C6.43909 15.7172 6.43323 15.7194 6.42729 15.7214C6.42104 15.7234 6.41479 15.7252 6.4085 15.7271L6.40564 15.7279C6.40082 15.7293 6.39601 15.7308 6.39115 15.7321C6.38443 15.7338 6.37768 15.7353 6.37092 15.7368C6.3693 15.7371 6.36768 15.7375 6.36606 15.7379C6.36229 15.7388 6.35852 15.7396 6.35474 15.7404C6.34849 15.7416 6.34223 15.7425 6.33596 15.7435L6.33209 15.7441C6.33032 15.7444 6.32856 15.7446 6.32679 15.7449C6.3239 15.7454 6.32101 15.7459 6.3181 15.7463C6.30902 15.7474 6.29994 15.7482 6.29086 15.7489L6.2908 15.7489C6.28763 15.7492 6.28447 15.7496 6.2813 15.7498C6.26892 15.7506 6.25654 15.751 6.24415 15.751C6.23897 15.751 6.23381 15.7508 6.22864 15.7506C6.22648 15.7505 6.22432 15.7504 6.22216 15.7503C6.22019 15.7502 6.21821 15.7502 6.21624 15.7501C6.21294 15.7501 6.20964 15.75 6.20634 15.7498C6.20159 15.7495 6.19684 15.749 6.19209 15.7485C6.1902 15.7483 6.18831 15.7481 6.18641 15.7479C6.1804 15.7473 6.17442 15.7469 6.16845 15.7461C6.16219 15.7453 6.15606 15.7441 6.14985 15.7431C6.14775 15.7427 6.14564 15.7424 6.14353 15.7421C6.1393 15.7414 6.13506 15.7407 6.13086 15.7399C6.12683 15.7391 6.12281 15.7382 6.1188 15.7372C6.11707 15.7368 6.11533 15.7364 6.1136 15.736C6.107 15.7345 6.10036 15.7331 6.09379 15.7314C6.09011 15.7304 6.08647 15.7293 6.08285 15.7282C6.08101 15.7276 6.07918 15.7271 6.07735 15.7265C6.07597 15.7261 6.07459 15.7257 6.07321 15.7253C6.06792 15.7238 6.06262 15.7222 6.05738 15.7205C6.05207 15.7187 6.04688 15.7166 6.0416 15.7147C6.03985 15.714 6.03809 15.7134 6.03632 15.7127C6.03142 15.7109 6.02651 15.7092 6.02168 15.7072C6.01822 15.7058 6.01482 15.7042 6.01141 15.7027C6.00981 15.702 6.00821 15.7012 6.0066 15.7005C6.00527 15.6999 6.00394 15.6994 6.00261 15.6988C5.99733 15.6964 5.99205 15.6941 5.98687 15.6916C5.98348 15.6899 5.98015 15.6882 5.97682 15.6864C5.97527 15.6856 5.97373 15.6848 5.97218 15.684L5.96944 15.6825C5.96398 15.6797 5.95851 15.6769 5.95316 15.6738C5.9495 15.6717 5.94591 15.6695 5.94232 15.6673C5.94111 15.6666 5.93991 15.6658 5.9387 15.6651L5.9368 15.6639C5.93134 15.6606 5.9259 15.6573 5.92058 15.6538C5.91691 15.6514 5.91333 15.6489 5.90973 15.6463C5.90862 15.6455 5.90751 15.6447 5.9064 15.644C5.90066 15.6399 5.89491 15.6359 5.88929 15.6317C5.88577 15.629 5.88233 15.6262 5.8789 15.6234C5.87773 15.6225 5.87656 15.6215 5.87538 15.6206L5.87291 15.6186C5.86837 15.6149 5.86384 15.6112 5.85944 15.6074C5.85572 15.6041 5.85207 15.6008 5.84841 15.5974L5.84569 15.5949L5.84424 15.5935C5.83984 15.5894 5.83542 15.5853 5.83112 15.5811C5.827 15.577 5.823 15.5727 5.81902 15.5685L5.81772 15.5671C5.81319 15.5624 5.8087 15.5576 5.80432 15.5526C5.80046 15.5482 5.79673 15.5437 5.79298 15.5392L5.79159 15.5375L5.79011 15.5357C5.78646 15.5312 5.78279 15.5267 5.77924 15.5221C5.77518 15.5168 5.77127 15.5113 5.76737 15.5058C5.7635 15.5004 5.75967 15.495 5.75596 15.4894C5.75229 15.4839 5.74877 15.4783 5.7453 15.4726C5.74433 15.471 5.74334 15.4695 5.74235 15.468C5.74095 15.4658 5.73956 15.4637 5.73826 15.4615L5.73561 15.4564C5.73488 15.4551 5.73411 15.4539 5.73334 15.4526C5.73242 15.4511 5.7315 15.4496 5.73065 15.4481L5.05916 14.2315C4.90282 13.9483 5.00572 13.5919 5.28894 13.4356C5.57212 13.2793 5.92851 13.3822 6.08485 13.6654L6.46577 14.3555L8.27982 13.2912Z"
          fill="#A3A8AF"/>
    <path d="M21.2403 6.62078L21.1273 6.84379L21.1285 6.84438L21.2403 6.62078ZM12.4081 2.14564L12.5211 1.92263L12.5209 1.92251L12.4081 2.14564ZM21.2403 17.3792L21.1285 17.1556L21.1273 17.1562L21.2403 17.3792ZM12.4045 21.8562L12.5159 22.08L12.5175 22.0792L12.4045 21.8562ZM11.1544 21.8445L11.038 22.0657L11.0388 22.0662L11.1544 21.8445ZM11.1506 21.8425L11.0334 22.0633L11.0342 22.0637L11.1506 21.8425ZM2.73817 17.3777L2.85537 17.1569L2.85413 17.1562L2.73817 17.3777ZM2.73817 6.62227L2.85412 6.84375L2.86404 6.83855L2.87346 6.83249L2.73817 6.62227ZM11.1544 2.15552L11.2517 2.38577L11.261 2.38185L11.2699 2.3772L11.1544 2.15552ZM12.4045 2.1438L12.5173 1.92066L12.5159 1.92L12.4045 2.1438ZM11.6973 3.19363L11.5832 2.97119L11.5801 2.9728L11.6973 3.19363ZM11.8811 3.19199L11.9941 2.96896L11.9913 2.96757L11.8811 3.19199ZM8.84837 4.70567L8.73117 4.48484L8.31449 4.70599L8.73144 4.92664L8.84837 4.70567ZM16.9308 8.98276L16.8139 9.20372L16.9273 9.26376L17.0422 9.20655L16.9308 8.98276ZM20.1484 7.38086L20.2598 7.60466L20.7054 7.38283L20.2614 7.15786L20.1484 7.38086ZM11.1968 20.5408L11.0796 20.7616L11.4468 20.9565V20.5408H11.1968ZM3.28562 16.342L3.40282 16.1211L3.40205 16.1207L3.28562 16.342ZM11.1968 12.5553H11.4468V12.4038L11.3124 12.3337L11.1968 12.5553ZM3.17151 8.37057L3.28711 8.1489L2.92151 7.95826V8.37057H3.17151ZM3.28183 16.34L3.39826 16.1187L3.39754 16.1184L3.28183 16.34ZM11.7887 11.5427L11.6731 11.7644L11.7861 11.8233L11.9002 11.7665L11.7887 11.5427ZM3.80761 7.38098L3.69041 7.16015L3.27065 7.38293L3.69201 7.60265L3.80761 7.38098ZM15.6403 9.62533L15.7517 9.84913L16.1876 9.63212L15.7572 9.40436L15.6403 9.62533ZM7.59783 5.36942L7.71476 5.14845L7.59766 5.08648L7.48063 5.14859L7.59783 5.36942ZM20.7159 16.3315L20.6045 16.1077L20.6029 16.1085L20.7159 16.3315ZM20.8296 8.35049H21.0796V7.94676L20.7182 8.12669L20.8296 8.35049ZM17.3833 10.0662L17.2719 9.84242L17.1333 9.91141V10.0662H17.3833ZM16.2118 10.6495H16.4618V10.2457L16.1004 10.4257L16.2118 10.6495ZM12.3683 12.5629L12.2569 12.3391L12.1183 12.4081V12.5629H12.3683ZM12.3683 20.5611H12.1183V20.9681L12.4813 20.7841L12.3683 20.5611ZM9.08147 13.5L8.86582 13.6265L8.86584 13.6266L9.08147 13.5ZM8.27982 13.2912L8.15333 13.0756L8.15331 13.0756L8.27982 13.2912ZM8.87286 14.3018L8.99937 14.5174L8.9995 14.5174L8.87286 14.3018ZM6.54011 15.6704L6.4136 15.4547L6.41235 15.4555L6.54011 15.6704ZM6.53132 15.6751L6.64952 15.8955L6.65344 15.8933L6.53132 15.6751ZM6.52675 15.6779L6.40628 15.4589L6.40495 15.4596L6.52675 15.6779ZM6.51546 15.6837L6.39998 15.462L6.39877 15.4626L6.51546 15.6837ZM6.4985 15.6924L6.60731 15.9175L6.60783 15.9172L6.4985 15.6924ZM6.48069 15.7006L6.58137 15.9294L6.5828 15.9288L6.48069 15.7006ZM6.46311 15.7081L6.36949 15.4763L6.36842 15.4768L6.46311 15.7081ZM6.44716 15.7142L6.53325 15.9489L6.53331 15.9489L6.44716 15.7142ZM6.44498 15.715L6.53055 15.9499L6.53107 15.9497L6.44498 15.715ZM6.42729 15.7214L6.34918 15.4839L6.34868 15.484L6.42729 15.7214ZM6.4085 15.7271L6.33845 15.4871L6.33708 15.4875L6.4085 15.7271ZM6.40564 15.7279L6.33422 15.4883L6.33406 15.4884L6.40564 15.7279ZM6.39115 15.7321L6.45442 15.9739L6.45447 15.9739L6.39115 15.7321ZM6.37092 15.7368L6.4257 15.9807L6.42588 15.9807L6.37092 15.7368ZM6.36606 15.7379L6.30977 15.4943L6.30973 15.4943L6.36606 15.7379ZM6.35474 15.7404L6.40183 15.9859L6.40274 15.9857L6.35474 15.7404ZM6.33596 15.7435L6.29815 15.4964L6.29801 15.4964L6.33596 15.7435ZM6.33209 15.7441L6.36948 15.9913L6.37004 15.9912L6.33209 15.7441ZM6.32679 15.7449L6.36801 15.9915L6.36803 15.9915L6.32679 15.7449ZM6.3181 15.7463L6.2871 15.4982L6.28618 15.4983L6.3181 15.7463ZM6.29086 15.7489L6.27053 15.4997L6.26822 15.5L6.29086 15.7489ZM6.2908 15.7489L6.31227 15.998L6.31343 15.9979L6.2908 15.7489ZM6.2813 15.7498L6.26589 15.5003L6.26557 15.5003L6.2813 15.7498ZM6.22864 15.7506L6.23993 15.5008L6.23989 15.5008L6.22864 15.7506ZM6.22216 15.7503L6.23152 15.5005L6.23134 15.5005L6.22216 15.7503ZM6.21624 15.7501L6.21111 16.0001L6.21117 16.0001L6.21624 15.7501ZM6.20634 15.7498L6.22298 15.5003L6.22247 15.5003L6.20634 15.7498ZM6.19209 15.7485L6.16553 15.9971L6.16558 15.9971L6.19209 15.7485ZM6.18641 15.7479L6.16059 15.9965L6.16146 15.9966L6.18641 15.7479ZM6.16845 15.7461L6.13592 15.994L6.13601 15.994L6.16845 15.7461ZM6.14985 15.7431L6.1088 15.9897L6.10947 15.9898L6.14985 15.7431ZM6.14353 15.7421L6.1821 15.4951L6.18203 15.495L6.14353 15.7421ZM6.13086 15.7399L6.17959 15.4947L6.17893 15.4946L6.13086 15.7399ZM6.1188 15.7372L6.06058 15.9803L6.06058 15.9803L6.1188 15.7372ZM6.1136 15.736L6.16997 15.4924L6.16846 15.4921L6.1136 15.736ZM6.09379 15.7314L6.15712 15.4895L6.15683 15.4894L6.09379 15.7314ZM6.08285 15.7282L6.15605 15.4891L6.15598 15.4891L6.08285 15.7282ZM6.07735 15.7265L6.14914 15.487L6.14793 15.4867L6.07735 15.7265ZM6.07321 15.7253L6.14311 15.4853L6.14302 15.4852L6.07321 15.7253ZM6.05738 15.7205L5.97729 15.9573L5.97748 15.9573L6.05738 15.7205ZM6.0416 15.7147L5.95471 15.9491L5.95631 15.9497L6.0416 15.7147ZM6.03632 15.7127L6.12203 15.4779L6.122 15.4779L6.03632 15.7127ZM6.02168 15.7072L6.11664 15.4759L6.11603 15.4757L6.02168 15.7072ZM6.01141 15.7027L5.90849 15.9305L5.90853 15.9305L6.01141 15.7027ZM6.0066 15.7005L5.90514 15.929L5.90554 15.9292L6.0066 15.7005ZM6.00261 15.6988L5.90177 15.9275L5.90179 15.9275L6.00261 15.6988ZM5.98687 15.6916L5.87717 15.9162L5.87723 15.9163L5.98687 15.6916ZM5.97682 15.6864L6.0937 15.4654L5.97682 15.6864ZM5.97218 15.684L5.85671 15.9057L5.85686 15.9058L5.97218 15.684ZM5.96944 15.6825L6.08491 15.4608L6.08481 15.4607L5.96944 15.6825ZM5.95316 15.6738L6.07673 15.4565L6.07664 15.4564L5.95316 15.6738ZM5.94232 15.6673L5.81131 15.8802L5.81137 15.8803L5.94232 15.6673ZM5.9387 15.6651L6.06889 15.4517L6.06865 15.4515L5.9387 15.6651ZM5.9368 15.6639L6.06674 15.4504L6.06671 15.4503L5.9368 15.6639ZM5.92058 15.6538L5.78306 15.8626L5.78317 15.8627L5.92058 15.6538ZM5.90973 15.6463L6.05412 15.4422L6.05403 15.4422L5.90973 15.6463ZM5.9064 15.644L6.0501 15.4394L6.04985 15.4392L5.9064 15.644ZM5.88929 15.6317L5.73795 15.8306L5.7384 15.831L5.88929 15.6317ZM5.8789 15.6234L6.03636 15.4292L6.03634 15.4292L5.8789 15.6234ZM5.87538 15.6206L5.71817 15.8149L5.71857 15.8153L5.87538 15.6206ZM5.87291 15.6186L6.03012 15.4242L6.03006 15.4241L5.87291 15.6186ZM5.85944 15.6074L5.69494 15.7957L5.69511 15.7958L5.85944 15.6074ZM5.84841 15.5974L6.0183 15.414L6.0182 15.4139L5.84841 15.5974ZM5.84569 15.5949L5.67572 15.7782L5.67591 15.7784L5.84569 15.5949ZM5.84424 15.5935L5.67424 15.7768L5.67427 15.7768L5.84424 15.5935ZM5.83112 15.5811L6.00719 15.4036L6.00714 15.4035L5.83112 15.5811ZM5.81902 15.5685L5.63695 15.7398L5.63697 15.7398L5.81902 15.5685ZM5.81772 15.5671L5.9998 15.3958L5.99891 15.3949L5.81772 15.5671ZM5.80432 15.5526L5.61673 15.7179L5.61683 15.718L5.80432 15.5526ZM5.79298 15.5392L5.98596 15.3802L5.98593 15.3802L5.79298 15.5392ZM5.79159 15.5375L5.59789 15.6955L5.59864 15.6964L5.79159 15.5375ZM5.79011 15.5357L5.9838 15.3776L5.98377 15.3776L5.79011 15.5357ZM5.77924 15.5221L5.58066 15.674L5.58103 15.6744L5.77924 15.5221ZM5.76737 15.5058L5.97079 15.3605L5.9705 15.3601L5.76737 15.5058ZM5.75596 15.4894L5.9642 15.3511L5.96398 15.3508L5.75596 15.4894ZM5.7453 15.4726L5.95836 15.3418L5.95828 15.3417L5.7453 15.4726ZM5.74235 15.468L5.95194 15.3317L5.95191 15.3316L5.74235 15.468ZM5.73826 15.4615L5.5165 15.5774L5.52216 15.5872L5.73826 15.4615ZM5.73561 15.4564L5.95729 15.3404L5.95283 15.3326L5.73561 15.4564ZM5.73334 15.4526L5.52092 15.5844L5.52095 15.5845L5.73334 15.4526ZM5.73065 15.4481L5.94989 15.328L5.94952 15.3273L5.73065 15.4481ZM5.05916 14.2315L5.27804 14.1107L5.27803 14.1107L5.05916 14.2315ZM5.28894 13.4356L5.40976 13.6545L5.40977 13.6545L5.28894 13.4356ZM6.08485 13.6654L6.30372 13.5446L6.30372 13.5446L6.08485 13.6654ZM6.46577 14.3555L6.24689 14.4763L6.37091 14.701L6.59227 14.5711L6.46577 14.3555ZM21.3533 6.39777L12.5211 1.92263L12.2952 2.36864L21.1273 6.84379L21.3533 6.39777ZM22.2512 7.8521C22.2512 7.23242 21.9062 6.67427 21.3521 6.39718L21.1285 6.84438C21.5132 7.03677 21.7512 7.4218 21.7512 7.8521H22.2512ZM22.2512 16.1479V7.8521H21.7512V16.1479H22.2512ZM21.3521 17.6028C21.9062 17.3257 22.2512 16.7675 22.2512 16.1479H21.7512C21.7512 16.5782 21.5132 16.9632 21.1285 17.1556L21.3521 17.6028ZM12.5175 22.0792L21.3533 17.6022L21.1273 17.1562L12.2915 21.6332L12.5175 22.0792ZM11.791 22.25C12.0392 22.25 12.2879 22.1935 12.5159 22.08L12.2931 21.6324C12.1357 21.7107 11.9635 21.75 11.791 21.75V22.25ZM11.0388 22.0662C11.2739 22.1888 11.5326 22.25 11.791 22.25V21.75C11.6114 21.75 11.4322 21.7074 11.27 21.6228L11.0388 22.0662ZM11.0342 22.0637L11.038 22.0657L11.2708 21.6232L11.267 21.6212L11.0342 22.0637ZM2.62097 17.5985L11.0334 22.0633L11.2678 21.6217L2.85537 17.1569L2.62097 17.5985ZM1.75 16.1581C1.75 16.7652 2.0845 17.3176 2.6222 17.5992L2.85413 17.1562C2.48116 16.9609 2.25 16.5791 2.25 16.1581H1.75ZM1.75 7.84191V16.1581H2.25V7.84191H1.75ZM2.62222 6.40078C2.08449 6.68229 1.75 7.23474 1.75 7.84191H2.25C2.25 7.42081 2.48117 7.03899 2.85412 6.84375L2.62222 6.40078ZM11.057 1.92527C11.0533 1.92685 11.048 1.92929 11.0462 1.93014C11.0451 1.93067 11.0433 1.93154 11.0425 1.93194C11.0409 1.93273 11.0395 1.93346 11.0385 1.93395C11.0364 1.935 11.034 1.93623 11.0316 1.93749C11.0267 1.94007 11.0198 1.94364 11.0114 1.94807C10.9944 1.95698 10.9699 1.96991 10.9384 1.98653C10.8754 2.01981 10.7839 2.06819 10.6681 2.12948C10.4365 2.25208 10.1074 2.42652 9.71325 2.6355C8.92495 3.05347 7.87649 3.60972 6.82813 4.16613C5.77976 4.72254 4.73146 5.27912 3.94348 5.69773C3.5495 5.90704 3.22055 6.08187 2.98921 6.20496C2.87355 6.26649 2.78221 6.31513 2.71931 6.34869C2.68789 6.36545 2.66343 6.37852 2.64654 6.38758C2.63814 6.39209 2.63137 6.39573 2.62647 6.39838C2.62408 6.39968 2.62175 6.40094 2.61976 6.40204C2.61882 6.40256 2.61744 6.40332 2.61596 6.40416C2.61518 6.4046 2.61354 6.40554 2.61252 6.40613C2.61088 6.4071 2.60608 6.41001 2.60287 6.41204L2.87346 6.83249C2.8635 6.8389 2.85297 6.84433 2.86458 6.83805C2.86857 6.83588 2.87463 6.83262 2.88287 6.82821C2.89926 6.81941 2.92333 6.80655 2.95467 6.78983C3.0173 6.75641 3.10844 6.70788 3.22405 6.64637C3.45526 6.52336 3.7841 6.34858 4.17806 6.13929C4.96596 5.72072 6.0142 5.16417 7.06253 4.60778C8.11086 4.05139 9.15925 3.49517 9.94747 3.07724C10.3416 2.86828 10.6706 2.6939 10.9021 2.57138C11.0178 2.51011 11.109 2.46184 11.1718 2.42871C11.2032 2.41213 11.2274 2.39941 11.2438 2.39078C11.2521 2.38644 11.2582 2.38326 11.2622 2.38117C11.2742 2.3749 11.2632 2.38093 11.2517 2.38577L11.057 1.92527ZM12.5159 1.92C12.051 1.68854 11.4993 1.69371 11.0388 1.93384L11.2699 2.3772C11.5886 2.21106 11.9714 2.20748 12.2931 2.3676L12.5159 1.92ZM12.5209 1.92251L12.5173 1.92067L12.2918 2.36693L12.2954 2.36877L12.5209 1.92251ZM11.8115 3.41604C11.7986 3.42267 11.784 3.42279 11.771 3.4164L11.9913 2.96757C11.8626 2.90439 11.7109 2.90568 11.5832 2.97121L11.8115 3.41604ZM8.96557 4.92649L11.8145 3.41445L11.5801 2.9728L8.73117 4.48484L8.96557 4.92649ZM17.0477 8.76179L8.9653 4.4847L8.73144 4.92664L16.8139 9.20372L17.0477 8.76179ZM20.0369 7.15707L16.8194 8.75896L17.0422 9.20655L20.2598 7.60466L20.0369 7.15707ZM11.7681 3.41499L20.0354 7.60387L20.2614 7.15786L11.9941 2.96898L11.7681 3.41499ZM11.314 20.32L3.40282 16.1212L3.16842 16.5628L11.0796 20.7616L11.314 20.32ZM10.9468 12.5553V20.5408H11.4468V12.5553H10.9468ZM3.05592 8.59224L11.0812 12.777L11.3124 12.3337L3.28711 8.1489L3.05592 8.59224ZM3.42151 16.1581V8.37057H2.92151V16.1581H3.42151ZM3.39754 16.1184C3.41187 16.1259 3.42151 16.1415 3.42151 16.1581H2.92151C2.92151 16.3282 3.01577 16.4831 3.16613 16.5616L3.39754 16.1184ZM3.40205 16.1207L3.39826 16.1187L3.16541 16.5612L3.1692 16.5632L3.40205 16.1207ZM11.9043 11.3211L3.9232 7.15931L3.69201 7.60265L11.6731 11.7644L11.9043 11.3211ZM15.5289 9.40153L11.6773 11.3189L11.9002 11.7665L15.7517 9.84913L15.5289 9.40153ZM7.4809 5.59039L15.5234 9.8463L15.7572 9.40436L7.71476 5.14845L7.4809 5.59039ZM3.9248 7.60181L7.71503 5.59025L7.48063 5.14859L3.69041 7.16015L3.9248 7.60181ZM20.5796 16.1479C20.5796 16.1313 20.5898 16.1151 20.6045 16.1077L20.8273 16.5554C20.9823 16.4782 21.0796 16.3211 21.0796 16.1479H20.5796ZM20.5796 8.35049V16.1479H21.0796V8.35049H20.5796ZM17.4947 10.29L20.941 8.57429L20.7182 8.12669L17.2719 9.84242L17.4947 10.29ZM17.6333 12.6556V10.0662H17.1333V12.6556H17.6333ZM16.7975 13.4914C17.2591 13.4914 17.6333 13.1172 17.6333 12.6556H17.1333C17.1333 12.8411 16.983 12.9914 16.7975 12.9914V13.4914ZM15.9618 12.6556C15.9618 13.1172 16.336 13.4914 16.7975 13.4914V12.9914C16.6121 12.9914 16.4618 12.841 16.4618 12.6556H15.9618ZM15.9618 10.6495V12.6556H16.4618V10.6495H15.9618ZM12.4798 12.7867L16.3232 10.8733L16.1004 10.4257L12.2569 12.3391L12.4798 12.7867ZM12.6183 20.5611V12.5629H12.1183V20.5611H12.6183ZM20.6029 16.1085L12.2553 20.3381L12.4813 20.7841L20.8289 16.5546L20.6029 16.1085ZM9.29711 13.3736C9.06355 12.9753 8.55141 12.8421 8.15333 13.0756L8.40631 13.5068C8.5663 13.413 8.77202 13.4666 8.86582 13.6265L9.29711 13.3736ZM8.9995 14.5174C9.39724 14.2837 9.53069 13.7717 9.29709 13.3735L8.86584 13.6266C8.95968 13.7865 8.90609 13.9923 8.74622 14.0863L8.9995 14.5174ZM6.66661 15.886L8.99937 14.5174L8.74636 14.0862L6.4136 15.4547L6.66661 15.886ZM6.65344 15.8933C6.65182 15.8942 6.65067 15.8948 6.65047 15.8949C6.65036 15.895 6.65036 15.895 6.65062 15.8948C6.6507 15.8948 6.65144 15.8944 6.65189 15.8942C6.65383 15.8931 6.66031 15.8898 6.66786 15.8853L6.41235 15.4555C6.41701 15.4527 6.42056 15.4509 6.41956 15.4514C6.41928 15.4516 6.41928 15.4516 6.41863 15.4519C6.41815 15.4521 6.41741 15.4525 6.41657 15.453C6.4149 15.4539 6.41228 15.4553 6.4092 15.457L6.65344 15.8933ZM6.64721 15.897C6.65325 15.8937 6.65806 15.8907 6.66101 15.8889C6.66251 15.8879 6.66375 15.8871 6.66451 15.8866C6.66491 15.8864 6.66524 15.8862 6.66545 15.886C6.66555 15.886 6.66565 15.8859 6.66571 15.8859C6.66581 15.8858 6.66578 15.8858 6.66584 15.8858C6.66631 15.8855 6.66444 15.8867 6.66203 15.8882C6.65942 15.8898 6.65507 15.8924 6.6495 15.8954L6.41313 15.4548C6.40676 15.4583 6.40164 15.4613 6.39826 15.4634C6.3951 15.4654 6.39248 15.4671 6.3922 15.4673C6.39119 15.468 6.39289 15.4668 6.39478 15.4657C6.39698 15.4643 6.40102 15.4618 6.40629 15.4589L6.64721 15.897ZM6.63093 15.9055C6.63011 15.9059 6.62966 15.9061 6.63002 15.9059C6.6302 15.9058 6.63043 15.9057 6.6309 15.9055C6.6313 15.9053 6.63199 15.905 6.63268 15.9046C6.63526 15.9033 6.64141 15.9003 6.64855 15.8963L6.40495 15.4596C6.40837 15.4577 6.41075 15.4566 6.40955 15.4572C6.4093 15.4573 6.40904 15.4574 6.4085 15.4577C6.40803 15.4579 6.40731 15.4583 6.40654 15.4587C6.40501 15.4594 6.40268 15.4606 6.39998 15.462L6.63093 15.9055ZM6.60783 15.9172C6.6174 15.9126 6.62601 15.9081 6.63214 15.9048L6.39877 15.4626C6.39365 15.4653 6.39102 15.4667 6.38918 15.4676L6.60783 15.9172ZM6.5828 15.9288C6.58758 15.9266 6.59735 15.9223 6.60731 15.9175L6.3897 15.4673C6.38785 15.4682 6.38567 15.4692 6.37858 15.4724L6.5828 15.9288ZM6.55673 15.94C6.56723 15.9357 6.57814 15.9308 6.58136 15.9294L6.38002 15.4717C6.37838 15.4725 6.37655 15.4733 6.37536 15.4738C6.374 15.4744 6.37297 15.4748 6.37205 15.4752C6.37116 15.4756 6.37054 15.4759 6.37009 15.4761C6.36966 15.4763 6.36948 15.4763 6.36949 15.4763L6.55673 15.94ZM6.53331 15.9489C6.53793 15.9472 6.54756 15.9437 6.5578 15.9395L6.36842 15.4768C6.36853 15.4767 6.36812 15.4769 6.36684 15.4774C6.36544 15.4779 6.36386 15.4785 6.361 15.4795L6.53331 15.9489ZM6.53107 15.9497L6.53325 15.9489L6.36107 15.4795L6.3589 15.4803L6.53107 15.9497ZM6.5054 15.9588C6.51632 15.9552 6.52901 15.9505 6.53055 15.9499L6.35942 15.4801C6.35749 15.4808 6.3556 15.4815 6.35425 15.482C6.35275 15.4826 6.35173 15.4829 6.35081 15.4833C6.34895 15.484 6.34869 15.484 6.34918 15.4839L6.5054 15.9588ZM6.47855 15.967C6.48318 15.9657 6.49441 15.9625 6.5059 15.9587L6.34868 15.484C6.34859 15.4841 6.34792 15.4843 6.34616 15.4848C6.34413 15.4854 6.34225 15.486 6.33845 15.4871L6.47855 15.967ZM6.47706 15.9675L6.47992 15.9666L6.33708 15.4875L6.33422 15.4883L6.47706 15.9675ZM6.45447 15.9739C6.46416 15.9714 6.47305 15.9687 6.47721 15.9674L6.33406 15.4884C6.3315 15.4891 6.33011 15.4896 6.32891 15.4899C6.32782 15.4902 6.32757 15.4903 6.32784 15.4902L6.45447 15.9739ZM6.42588 15.9807C6.42902 15.98 6.44228 15.9771 6.45442 15.9739L6.32789 15.4902C6.32802 15.4902 6.32743 15.4903 6.32533 15.4908C6.32429 15.491 6.32311 15.4913 6.3215 15.4917C6.32006 15.492 6.31796 15.4924 6.31596 15.4929L6.42588 15.9807ZM6.42236 15.9815C6.42409 15.9811 6.42496 15.9809 6.4257 15.9807L6.31614 15.4929C6.31364 15.4934 6.31127 15.494 6.30977 15.4943L6.42236 15.9815ZM6.40274 15.9857C6.4114 15.984 6.41934 15.9822 6.42239 15.9815L6.30973 15.4943C6.30525 15.4954 6.30563 15.4952 6.30675 15.495L6.40274 15.9857ZM6.37376 15.9906C6.3793 15.9898 6.39019 15.9881 6.40183 15.9859L6.30766 15.4949C6.30679 15.495 6.30517 15.4953 6.29815 15.4964L6.37376 15.9906ZM6.37004 15.9912L6.37391 15.9906L6.29801 15.4964L6.29414 15.497L6.37004 15.9912ZM6.36803 15.9915C6.37005 15.9912 6.36994 15.9912 6.36948 15.9913L6.2947 15.4969C6.29071 15.4975 6.28707 15.4981 6.28555 15.4984L6.36803 15.9915ZM6.3491 15.9943C6.35799 15.9932 6.36597 15.9919 6.36801 15.9915L6.28557 15.4984C6.28392 15.4986 6.28374 15.4987 6.28378 15.4987C6.28397 15.4986 6.28521 15.4984 6.2871 15.4982L6.3491 15.9943ZM6.31119 15.9981C6.31932 15.9974 6.33421 15.9963 6.35003 15.9942L6.28618 15.4983C6.28384 15.4986 6.28056 15.4989 6.27053 15.4998L6.31119 15.9981ZM6.31343 15.9979L6.31349 15.9979L6.26822 15.5L6.26816 15.5L6.31343 15.9979ZM6.29672 15.9994C6.30397 15.9989 6.31003 15.9983 6.31215 15.998C6.31419 15.9978 6.31334 15.9979 6.31412 15.9978C6.31421 15.9978 6.31345 15.9979 6.31227 15.998L6.26933 15.4999C6.26656 15.5001 6.26422 15.5003 6.26273 15.5005C6.26198 15.5006 6.2613 15.5006 6.26087 15.5007C6.26033 15.5007 6.26017 15.5008 6.25995 15.5008C6.2589 15.5009 6.2618 15.5006 6.26589 15.5003L6.29672 15.9994ZM6.24415 16.001C6.2623 16.001 6.27996 16.0004 6.29704 15.9993L6.26557 15.5003C6.25788 15.5008 6.25077 15.501 6.24415 15.501V16.001ZM6.21735 16.0003C6.22162 16.0005 6.2324 16.001 6.24415 16.001V15.501C6.24523 15.501 6.24562 15.5011 6.24484 15.501C6.24391 15.501 6.24274 15.501 6.23993 15.5008L6.21735 16.0003ZM6.2128 16.0001C6.21386 16.0002 6.21508 16.0002 6.21739 16.0003L6.23989 15.5008C6.23788 15.5007 6.23478 15.5006 6.23152 15.5005L6.2128 16.0001ZM6.21117 16.0001C6.21348 16.0001 6.2134 16.0001 6.21298 16.0001L6.23134 15.5005C6.22697 15.5003 6.22295 15.5002 6.22132 15.5002L6.21117 16.0001ZM6.18969 15.9992C6.19973 15.9999 6.20884 16 6.21111 16.0001L6.22137 15.5002C6.21944 15.5002 6.21924 15.5002 6.21927 15.5002C6.21946 15.5002 6.22086 15.5002 6.22298 15.5003L6.18969 15.9992ZM6.16558 15.9971C6.16941 15.9975 6.17937 15.9986 6.19021 15.9993L6.22247 15.5003C6.22351 15.5004 6.22389 15.5004 6.22316 15.5004C6.22229 15.5003 6.22121 15.5002 6.2186 15.4999L6.16558 15.9971ZM6.16146 15.9966C6.16242 15.9967 6.1635 15.9968 6.16553 15.9971L6.21865 15.4999C6.2169 15.4997 6.2142 15.4994 6.21137 15.4991L6.16146 15.9966ZM6.13601 15.994C6.14399 15.995 6.15092 15.9957 6.15468 15.996C6.15567 15.9961 6.15663 15.9962 6.15735 15.9962C6.15815 15.9963 6.1587 15.9964 6.15923 15.9964C6.16028 15.9965 6.1606 15.9965 6.16059 15.9965L6.21223 15.4992C6.20922 15.4989 6.20654 15.4986 6.20459 15.4985C6.20362 15.4984 6.20267 15.4983 6.20197 15.4982C6.2012 15.4982 6.20065 15.4981 6.20015 15.4981C6.19792 15.4979 6.19887 15.4979 6.20088 15.4982L6.13601 15.994ZM6.10947 15.9898C6.11218 15.9902 6.11131 15.9901 6.11747 15.9912C6.12164 15.9919 6.12826 15.9929 6.13592 15.994L6.20097 15.4982C6.20238 15.4984 6.2028 15.4985 6.20079 15.4981C6.19969 15.498 6.19879 15.4978 6.19682 15.4975C6.19513 15.4972 6.19279 15.4968 6.19023 15.4964L6.10947 15.9898ZM6.10496 15.9891C6.10728 15.9894 6.10815 15.9896 6.10881 15.9897L6.1909 15.4965C6.18735 15.4959 6.184 15.4954 6.1821 15.4951L6.10496 15.9891ZM6.08214 15.9851C6.09227 15.9871 6.10161 15.9885 6.10503 15.9891L6.18203 15.495C6.17972 15.4947 6.17888 15.4946 6.17827 15.4944C6.17779 15.4944 6.17838 15.4945 6.17959 15.4947L6.08214 15.9851ZM6.06058 15.9803C6.0637 15.9811 6.07279 15.9833 6.0828 15.9852L6.17893 15.4946C6.18026 15.4948 6.18094 15.495 6.18054 15.4949C6.18 15.4948 6.17926 15.4946 6.17703 15.4941L6.06058 15.9803ZM6.05723 15.9795C6.05786 15.9797 6.05864 15.9799 6.06058 15.9803L6.17703 15.4941C6.1755 15.4937 6.1728 15.4931 6.16997 15.4924L6.05723 15.9795ZM6.03047 15.9732C6.04259 15.9764 6.05626 15.9793 6.05874 15.9799L6.16846 15.4921C6.16641 15.4916 6.16433 15.4911 6.16289 15.4908C6.16128 15.4905 6.16014 15.4902 6.15914 15.49C6.15711 15.4895 6.15672 15.4894 6.15712 15.4895L6.03047 15.9732ZM6.00964 15.9672C6.01332 15.9683 6.02144 15.9708 6.03075 15.9733L6.15683 15.4894L6.15605 15.4891L6.00964 15.9672ZM6.00555 15.966C6.00651 15.9663 6.00731 15.9665 6.00971 15.9672L6.15598 15.4891C6.15471 15.4887 6.15186 15.4879 6.14914 15.487L6.00555 15.966ZM6.0033 15.9653C6.00483 15.9658 6.00581 15.9661 6.00676 15.9663L6.14793 15.4867C6.14613 15.4861 6.14435 15.4856 6.14311 15.4853L6.0033 15.9653ZM5.97748 15.9573C5.98855 15.9611 5.99893 15.9641 6.00339 15.9654L6.14302 15.4852C6.14018 15.4844 6.1388 15.484 6.13764 15.4837C6.13662 15.4834 6.13664 15.4833 6.13729 15.4836L5.97748 15.9573ZM5.95631 15.9497C5.95737 15.9501 5.95748 15.9501 5.96182 15.9517C5.96504 15.9529 5.97071 15.955 5.97729 15.9573L6.13748 15.4836C6.13875 15.4841 6.13916 15.4842 6.13713 15.4835C6.13667 15.4833 6.13617 15.4831 6.1355 15.4829C6.13488 15.4826 6.13408 15.4823 6.13325 15.482C6.1316 15.4814 6.12938 15.4806 6.12689 15.4797L5.95631 15.9497ZM5.95062 15.9476C5.95256 15.9483 5.95367 15.9487 5.95472 15.9491L6.12849 15.4803C6.12602 15.4793 6.12362 15.4785 6.12203 15.4779L5.95062 15.9476ZM5.92672 15.9384C5.93692 15.9426 5.94651 15.9461 5.95065 15.9476L6.122 15.4779C6.11936 15.4769 6.11807 15.4764 6.11699 15.476C6.11603 15.4757 6.11605 15.4757 6.11664 15.4759L5.92672 15.9384ZM5.90853 15.9305C5.91121 15.9317 5.91885 15.9352 5.92732 15.9387L6.11603 15.4757C6.1176 15.4763 6.11843 15.4767 6.11429 15.4748L5.90853 15.9305ZM5.90554 15.9292C5.90606 15.9294 5.90673 15.9297 5.90849 15.9305L6.11433 15.4749C6.11289 15.4742 6.11036 15.4731 6.10766 15.4719L5.90554 15.9292ZM5.90179 15.9275C5.90317 15.9281 5.90418 15.9286 5.90514 15.929L6.10806 15.472C6.10636 15.4713 6.10471 15.4706 6.10343 15.47L5.90179 15.9275ZM5.87723 15.9163C5.8875 15.9213 5.89723 15.9255 5.90177 15.9275L6.10344 15.47C6.10062 15.4688 6.09909 15.4681 6.09776 15.4675C6.09654 15.4669 6.09625 15.4668 6.09651 15.4669L5.87723 15.9163ZM5.85993 15.9074C5.86266 15.9088 5.86955 15.9125 5.87717 15.9162L6.09658 15.4669C6.09741 15.4673 6.09763 15.4675 6.0937 15.4654L5.85993 15.9074ZM5.85686 15.9058C5.85748 15.9061 5.85819 15.9065 5.85993 15.9074L6.0937 15.4654C6.09236 15.4647 6.08998 15.4634 6.0875 15.4622L5.85686 15.9058ZM5.85397 15.9043L5.85671 15.9057L6.08766 15.4622L6.08491 15.4608L5.85397 15.9043ZM5.82958 15.8911C5.83968 15.8969 5.84932 15.9019 5.85408 15.9043L6.08481 15.4607C6.0819 15.4592 6.0802 15.4584 6.07869 15.4575C6.07801 15.4572 6.07753 15.4569 6.07719 15.4567C6.07686 15.4566 6.07672 15.4565 6.07673 15.4565L5.82958 15.8911ZM5.81137 15.8803C5.81431 15.8821 5.82161 15.8866 5.82967 15.8912L6.07664 15.4564C6.07739 15.4569 6.07751 15.457 6.07326 15.4543L5.81137 15.8803ZM5.80852 15.8785C5.80925 15.879 5.81004 15.8795 5.81131 15.8802L6.07332 15.4544C6.07219 15.4537 6.07057 15.4527 6.06889 15.4517L5.80852 15.8785ZM5.80685 15.8775L5.80876 15.8787L6.06865 15.4515L6.06674 15.4504L5.80685 15.8775ZM5.78317 15.8627C5.79281 15.869 5.80206 15.8746 5.80688 15.8775L6.06671 15.4503C6.06062 15.4466 6.05898 15.4456 6.05799 15.445L5.78317 15.8627ZM5.76535 15.8504C5.76842 15.8526 5.77535 15.8575 5.78306 15.8626L6.05809 15.445C6.05846 15.4453 6.05823 15.4451 6.05412 15.4422L5.76535 15.8504ZM5.7627 15.8485C5.76346 15.8491 5.76427 15.8496 5.76544 15.8505L6.05403 15.4422C6.05298 15.4414 6.05157 15.4404 6.0501 15.4394L5.7627 15.8485ZM5.7384 15.831C5.7483 15.8385 5.75781 15.8451 5.76294 15.8487L6.04985 15.4392C6.0435 15.4348 6.04153 15.4334 6.04018 15.4323L5.7384 15.831ZM5.72145 15.8176C5.72434 15.8199 5.7308 15.8252 5.73795 15.8306L6.04063 15.4327C6.04073 15.4327 6.04032 15.4324 6.03636 15.4292L5.72145 15.8176ZM5.71857 15.8153C5.71936 15.8159 5.72017 15.8166 5.72146 15.8176L6.03634 15.4292C6.03528 15.4284 6.03375 15.4271 6.03219 15.4259L5.71857 15.8153ZM5.71569 15.8129L5.71817 15.8149L6.03259 15.4262L6.03012 15.4242L5.71569 15.8129ZM5.69511 15.7958C5.70363 15.8032 5.71185 15.8098 5.71575 15.813L6.03006 15.4241C6.02763 15.4222 6.02628 15.4211 6.02508 15.4201C6.02399 15.4192 6.02366 15.4189 6.02378 15.419L5.69511 15.7958ZM5.67852 15.7808C5.68169 15.7837 5.68802 15.7896 5.69494 15.7957L6.02394 15.4191C6.02342 15.4187 6.02244 15.4178 6.0183 15.414L5.67852 15.7808ZM5.67591 15.7784L5.67862 15.7809L6.0182 15.4139L6.01548 15.4114L5.67591 15.7784ZM5.67427 15.7768L5.67572 15.7782L6.01567 15.4115L6.01422 15.4102L5.67427 15.7768ZM5.65505 15.7585C5.66283 15.7663 5.67036 15.7732 5.67424 15.7768L6.01425 15.4102C6.00931 15.4056 6.008 15.4044 6.00719 15.4036L5.65505 15.7585ZM5.63697 15.7398C5.64043 15.7435 5.64739 15.751 5.6551 15.7586L6.00714 15.4035C6.00714 15.4035 6.00713 15.4035 6.00712 15.4035C6.0071 15.4035 6.00708 15.4035 6.00704 15.4034C6.00698 15.4034 6.00688 15.4033 6.00675 15.4031C6.00649 15.4029 6.00611 15.4025 6.0056 15.402C6.00445 15.4008 6.0032 15.3994 6.00107 15.3972L5.63697 15.7398ZM5.63565 15.7384L5.63695 15.7398L6.0011 15.3972L5.9998 15.3958L5.63565 15.7384ZM5.61683 15.718C5.62454 15.7267 5.63183 15.7344 5.63653 15.7394L5.99891 15.3949C5.99455 15.3903 5.99285 15.3884 5.99182 15.3873L5.61683 15.718ZM5.6 15.6981C5.6033 15.7021 5.60966 15.7099 5.61673 15.7179L5.99192 15.3874C5.99126 15.3866 5.99016 15.3853 5.98596 15.3802L5.6 15.6981ZM5.59864 15.6964L5.60003 15.6981L5.98593 15.3802L5.98454 15.3785L5.59864 15.6964ZM5.59642 15.6937L5.5979 15.6955L5.98528 15.3794L5.9838 15.3776L5.59642 15.6937ZM5.58103 15.6744C5.58717 15.6824 5.59317 15.6897 5.59645 15.6938L5.98377 15.3776C5.97975 15.3726 5.9784 15.371 5.97746 15.3697L5.58103 15.6744ZM5.56394 15.6512C5.56743 15.656 5.5737 15.6649 5.58066 15.674L5.97782 15.3702C5.97666 15.3687 5.97511 15.3666 5.97079 15.3605L5.56394 15.6512ZM5.54772 15.6278C5.55386 15.637 5.55968 15.6452 5.56423 15.6516L5.9705 15.3601C5.96732 15.3557 5.96549 15.353 5.9642 15.3511L5.54772 15.6278ZM5.53223 15.6034C5.53592 15.6094 5.5415 15.6184 5.54794 15.6281L5.96398 15.3508C5.96308 15.3494 5.96162 15.3471 5.95836 15.3418L5.53223 15.6034ZM5.53275 15.6042L5.53231 15.6035L5.95828 15.3417C5.95538 15.337 5.95264 15.3328 5.95194 15.3317L5.53275 15.6042ZM5.52216 15.5872C5.52711 15.5957 5.53193 15.603 5.53278 15.6043L5.95191 15.3316C5.95107 15.3304 5.95123 15.3306 5.95153 15.3311C5.95193 15.3317 5.95298 15.3334 5.95437 15.3358L5.52216 15.5872ZM5.51407 15.5722L5.51673 15.5773L5.9598 15.3456L5.95714 15.3405L5.51407 15.5722ZM5.52095 15.5845C5.5221 15.5863 5.52037 15.5836 5.51838 15.5801L5.95283 15.3326C5.94939 15.3266 5.94613 15.3214 5.94574 15.3208L5.52095 15.5845ZM5.5114 15.5682C5.51604 15.5767 5.52056 15.5839 5.52092 15.5844L5.94576 15.3208C5.94515 15.3198 5.9456 15.3205 5.94617 15.3215C5.94685 15.3226 5.94821 15.3249 5.94989 15.328L5.5114 15.5682ZM4.84029 14.3523L5.51177 15.5689L5.94952 15.3273L5.27804 14.1107L4.84029 14.3523ZM5.16812 13.2167C4.76405 13.4398 4.61722 13.9482 4.84029 14.3523L5.27803 14.1107C5.18843 13.9484 5.24739 13.7441 5.40976 13.6545L5.16812 13.2167ZM6.30372 13.5446C6.08067 13.1405 5.5722 12.9936 5.16811 13.2167L5.40977 13.6545C5.57204 13.5649 5.77635 13.6238 5.86598 13.7862L6.30372 13.5446ZM6.68464 14.2347L6.30372 13.5446L5.86597 13.7862L6.24689 14.4763L6.68464 14.2347ZM8.15331 13.0756L6.33926 14.1399L6.59227 14.5711L8.40633 13.5068L8.15331 13.0756Z"
          fill="#A3A8AF"/>
</svg>
