<svg viewBox="0 0 24 24" fill="none" xmlns="http://www.w3.org/2000/svg">
    <path d="M21.902 12.6401L19.7341 9.44879L21.902 6.25748C22.0036 6.10514 22.027 5.91374 21.9684 5.74187C21.9098 5.57 21.7731 5.43329 21.6013 5.3747L14.5312 3.03102C14.2773 2.94509 14.0038 3.04274 13.8593 3.26148L12 6.05046L10.1446 3.26539C9.99616 3.04274 9.72273 2.94899 9.47274 3.03493L2.40265 5.3786C2.23078 5.4372 2.09407 5.57 2.03547 5.74578C1.97688 5.91765 2.00032 6.10905 2.10188 6.26139L4.26587 9.44879L2.09797 12.6401C1.99641 12.7924 1.97298 12.9838 2.03157 13.1557C2.09016 13.3276 2.22688 13.4643 2.39874 13.5229L9.46883 15.8665C9.71882 15.9486 9.99616 15.8587 10.1407 15.6361L11.9961 12.851L13.8515 15.6361C13.9999 15.8587 14.2773 15.9486 14.5234 15.8665L21.5934 13.5229C21.7653 13.4643 21.902 13.3315 21.9606 13.1557C22.027 12.9838 22.0036 12.7924 21.902 12.6401ZM12 11.1753L6.82048 9.44879L12 7.72228L17.1795 9.44879L12 11.1753Z"
          fill="#A3A8AF"/>
    <path d="M14.8981 16.9759C14.1598 17.222 13.3278 16.9564 12.8786 16.2845L11.9998 14.9603L11.117 16.2845C10.6717 16.9564 9.83576 17.2259 9.0936 16.9759L4.38281 15.4056V18.8235C4.38281 19.0774 4.54296 19.3 4.78514 19.3781L11.8123 21.7218C11.8318 21.7296 11.8552 21.7335 11.8748 21.7413C11.9177 21.7492 11.9568 21.7531 11.9998 21.7531C12.0427 21.7531 12.0857 21.7492 12.1326 21.7374C12.1521 21.7335 12.1716 21.7296 12.1912 21.7218L19.2183 19.3781C19.4566 19.3 19.6206 19.0735 19.6206 18.8235V15.4017L14.8981 16.9759Z"
          fill="#A3A8AF"/>
</svg>
