<svg viewBox="0 0 24 24" fill="none" xmlns="http://www.w3.org/2000/svg">
    <path fill-rule="evenodd" clip-rule="evenodd"
          d="M12.4075 2.14564L21.2391 6.62078C21.7085 6.85548 22 7.32711 22 7.8521V16.1479C22 16.6729 21.7085 17.1444 21.2391 17.3792L12.4039 21.8562C12.2112 21.9521 12.0008 22 11.7904 22C11.5714 22 11.3525 21.9481 11.1538 21.8445L11.15 21.8425L2.73812 17.3777C2.28281 17.1393 2 16.6722 2 16.1581V7.84191C2 7.32778 2.28281 6.86064 2.73812 6.62223L7.27727 4.21302C7.30559 4.19482 7.33516 4.179 7.36594 4.16595L11.1538 2.15552C11.5434 1.95238 12.0106 1.94801 12.4039 2.1438L12.4075 2.14564ZM11.8805 3.19195C11.8227 3.16355 11.7541 3.16413 11.6968 3.19359L8.84797 4.70563L16.93 8.98272L20.1473 7.38086L11.8805 3.19195ZM3.28555 16.3419L11.1962 20.5407V12.5553L3.17145 8.37053V16.1581C3.17145 16.2348 3.21375 16.3044 3.28176 16.3399L3.28555 16.3419ZM3.8075 7.38098L11.7882 11.5427L15.6395 9.62525L7.5975 5.36942L3.8075 7.38098ZM20.7148 16.3315C20.7849 16.2966 20.8285 16.2262 20.8285 16.1478V8.35037L17.3824 10.0661V12.6555C17.3824 12.979 17.1202 13.2413 16.7967 13.2413C16.4732 13.2413 16.2109 12.979 16.2109 12.6555V10.6494L12.3677 12.5628V20.5611L20.7148 16.3315ZM8.18851 13.3227C8.48706 13.1982 8.83007 13.3391 8.95468 13.6376C9.07929 13.9361 8.93831 14.2792 8.63972 14.4039L7.86234 14.7284L8.67917 16.0252C8.85159 16.2989 8.76948 16.6606 8.49577 16.833C8.39882 16.8941 8.29081 16.9232 8.18413 16.9232C7.98956 16.9232 7.79933 16.8264 7.68796 16.6496L6.76609 15.186L5.85718 15.5655C5.78347 15.5963 5.70698 15.6109 5.63179 15.6109C5.40253 15.6109 5.18484 15.4754 5.09101 15.2506C4.9664 14.9521 5.10738 14.609 5.40589 14.4844L6.13292 14.1809L5.32741 12.9021C5.15499 12.6284 5.2371 12.2667 5.51081 12.0943C5.78456 11.9219 6.1462 12.0039 6.31863 12.2777L7.22917 13.7232L8.18851 13.3227Z"
          fill="#A3A8AF"/>
    <path d="M21.2391 6.62078L21.1261 6.84379L21.1273 6.84439L21.2391 6.62078ZM12.4075 2.14564L12.5205 1.92263L12.5193 1.92202L12.4075 2.14564ZM21.2391 17.3792L21.1273 17.1556L21.1261 17.1562L21.2391 17.3792ZM12.4039 21.8562L12.5153 22.08L12.5169 22.0792L12.4039 21.8562ZM11.1538 21.8445L11.0374 22.0657L11.0382 22.0662L11.1538 21.8445ZM11.15 21.8425L11.0328 22.0633L11.0336 22.0637L11.15 21.8425ZM2.73812 17.3777L2.85533 17.1569L2.85409 17.1562L2.73812 17.3777ZM2.73812 6.62223L2.8541 6.8437L2.85533 6.84305L2.73812 6.62223ZM7.27727 4.21302L7.39447 4.43385L7.40368 4.42896L7.41245 4.42332L7.27727 4.21302ZM7.36594 4.16595L7.4635 4.39612L7.47353 4.39188L7.48314 4.38677L7.36594 4.16595ZM11.1538 2.15552L11.0382 1.93384L11.0366 1.9347L11.1538 2.15552ZM12.4039 2.1438L12.5157 1.92019L12.5153 1.92L12.4039 2.1438ZM11.6968 3.19359L11.5826 2.97116L11.5796 2.97276L11.6968 3.19359ZM11.8805 3.19195L11.9936 2.96892L11.9907 2.9675L11.8805 3.19195ZM8.84797 4.70563L8.73076 4.48481L8.31411 4.70595L8.73103 4.92659L8.84797 4.70563ZM16.93 8.98272L16.813 9.20368L16.9265 9.26372L17.0414 9.20651L16.93 8.98272ZM20.1473 7.38086L20.2587 7.60466L20.7043 7.38283L20.2603 7.15786L20.1473 7.38086ZM11.1962 20.5407L11.079 20.7616L11.4462 20.9565V20.5407H11.1962ZM3.28555 16.3419L3.40275 16.1211L3.40189 16.1207L3.28555 16.3419ZM11.1962 12.5553H11.4462V12.4037L11.3118 12.3336L11.1962 12.5553ZM3.17145 8.37053L3.28704 8.14886L2.92145 7.95821V8.37053H3.17145ZM3.28176 16.3399L3.3981 16.1187L3.39747 16.1183L3.28176 16.3399ZM11.7882 11.5427L11.6726 11.7644L11.7855 11.8233L11.8996 11.7665L11.7882 11.5427ZM3.8075 7.38098L3.6903 7.16016L3.27057 7.38293L3.6919 7.60265L3.8075 7.38098ZM15.6395 9.62525L15.7509 9.84905L16.1868 9.63204L15.7564 9.40429L15.6395 9.62525ZM7.5975 5.36942L7.71444 5.14845L7.59733 5.08648L7.4803 5.14859L7.5975 5.36942ZM20.8285 16.1478H20.5785V16.148L20.8285 16.1478ZM20.7148 16.3315L20.6034 16.1077L20.6018 16.1085L20.7148 16.3315ZM20.8285 8.35037H21.0785V7.94663L20.7171 8.12658L20.8285 8.35037ZM17.3824 10.0661L17.271 9.8423L17.1324 9.9113V10.0661H17.3824ZM16.2109 10.6494H16.4609V10.2456L16.0995 10.4256L16.2109 10.6494ZM12.3677 12.5628L12.2563 12.3391L12.1177 12.408V12.5628H12.3677ZM12.3677 20.5611H12.1177V20.9681L12.4807 20.7841L12.3677 20.5611ZM8.95468 13.6376L8.72397 13.7339L8.72398 13.7339L8.95468 13.6376ZM8.18851 13.3227L8.09226 13.092L8.0922 13.092L8.18851 13.3227ZM8.63972 14.4039L8.54341 14.1731L8.5434 14.1732L8.63972 14.4039ZM7.86234 14.7284L7.76602 14.4977L7.49328 14.6116L7.6508 14.8616L7.86234 14.7284ZM8.67917 16.0252L8.8907 15.8919L8.8907 15.8919L8.67917 16.0252ZM8.49577 16.833L8.629 17.0446L8.62903 17.0445L8.49577 16.833ZM7.68796 16.6496L7.8995 16.5163L7.89949 16.5163L7.68796 16.6496ZM6.76609 15.186L6.97762 15.0528L6.86491 14.8739L6.66977 14.9553L6.76609 15.186ZM5.85718 15.5655L5.76086 15.3348L5.76084 15.3348L5.85718 15.5655ZM5.09101 15.2506L5.32172 15.1543L5.32172 15.1543L5.09101 15.2506ZM5.40589 14.4844L5.30958 14.2537L5.30958 14.2537L5.40589 14.4844ZM6.13292 14.1809L6.22923 14.4116L6.50199 14.2978L6.34446 14.0477L6.13292 14.1809ZM5.32741 12.9021L5.53895 12.7689H5.53895L5.32741 12.9021ZM5.51081 12.0943L5.37761 11.8827L5.37756 11.8827L5.51081 12.0943ZM6.31863 12.2777L6.10708 12.4109L6.10709 12.4109L6.31863 12.2777ZM7.22917 13.7232L7.01764 13.8564L7.13034 14.0353L7.32548 13.9539L7.22917 13.7232ZM21.3521 6.39778L12.5205 1.92263L12.2945 2.36864L21.1261 6.84379L21.3521 6.39778ZM22.25 7.8521C22.25 7.23244 21.905 6.67424 21.351 6.39718L21.1273 6.84439C21.512 7.03673 21.75 7.42178 21.75 7.8521H22.25ZM22.25 16.1479V7.8521H21.75V16.1479H22.25ZM21.351 17.6028C21.905 17.3257 22.25 16.7675 22.25 16.1479H21.75C21.75 16.5782 21.512 16.9632 21.1273 17.1556L21.351 17.6028ZM12.5169 22.0792L21.3521 17.6022L21.1261 17.1562L12.2909 21.6332L12.5169 22.0792ZM11.7904 22.25C12.0386 22.25 12.2873 22.1935 12.5153 22.08L12.2924 21.6324C12.1351 21.7107 11.9629 21.75 11.7904 21.75V22.25ZM11.0382 22.0662C11.2733 22.1888 11.532 22.25 11.7904 22.25V21.75C11.6108 21.75 11.4317 21.7074 11.2694 21.6228L11.0382 22.0662ZM11.0336 22.0637L11.0374 22.0657L11.2702 21.6232L11.2664 21.6212L11.0336 22.0637ZM2.62092 17.5985L11.0328 22.0633L11.2672 21.6217L2.85533 17.1569L2.62092 17.5985ZM1.75 16.1581C1.75 16.7652 2.08447 17.3176 2.62216 17.5992L2.85409 17.1562C2.48115 16.9609 2.25 16.5792 2.25 16.1581H1.75ZM1.75 7.84191V16.1581H2.25V7.84191H1.75ZM2.62216 6.40075C2.08446 6.6823 1.75 7.23475 1.75 7.84191H2.25C2.25 7.42081 2.48116 7.03898 2.85409 6.8437L2.62216 6.40075ZM7.16006 3.9922L2.62092 6.4014L2.85533 6.84305L7.39447 4.43385L7.16006 3.9922ZM7.26837 3.93577C7.22368 3.95472 7.18157 3.97734 7.14209 4.00272L7.41245 4.42332C7.4296 4.4123 7.44663 4.40328 7.4635 4.39612L7.26837 3.93577ZM11.0366 1.9347L7.24873 3.94513L7.48314 4.38677L11.271 2.37634L11.0366 1.9347ZM12.5153 1.92C12.0504 1.68853 11.4987 1.69371 11.0382 1.93385L11.2694 2.37719C11.588 2.21106 11.9709 2.20748 12.2924 2.36759L12.5153 1.92ZM12.5193 1.92202L12.5157 1.92019L12.2921 2.36741L12.2957 2.36925L12.5193 1.92202ZM11.8109 3.416C11.798 3.42264 11.7833 3.42273 11.7704 3.41639L11.9907 2.9675C11.862 2.90437 11.7103 2.90562 11.5826 2.97118L11.8109 3.416ZM8.96517 4.92645L11.814 3.41441L11.5796 2.97276L8.73076 4.48481L8.96517 4.92645ZM17.0469 8.76175L8.96491 4.48466L8.73103 4.92659L16.813 9.20368L17.0469 8.76175ZM20.0359 7.15707L16.8185 8.75892L17.0414 9.20651L20.2587 7.60466L20.0359 7.15707ZM11.7675 3.41495L20.0343 7.60387L20.2603 7.15786L11.9935 2.96894L11.7675 3.41495ZM11.3135 20.3199L3.40275 16.1211L3.16834 16.5628L11.079 20.7616L11.3135 20.3199ZM10.9462 12.5553V20.5407H11.4462V12.5553H10.9462ZM3.05585 8.5922L11.0807 12.777L11.3118 12.3336L3.28704 8.14886L3.05585 8.5922ZM3.42145 16.1581V8.37053H2.92145V16.1581H3.42145ZM3.39747 16.1183C3.41181 16.1258 3.42145 16.1414 3.42145 16.1581H2.92145C2.92145 16.3281 3.01569 16.483 3.16605 16.5616L3.39747 16.1183ZM3.40189 16.1207L3.3981 16.1187L3.16541 16.5612L3.1692 16.5632L3.40189 16.1207ZM11.9038 11.3211L3.9231 7.15931L3.6919 7.60265L11.6726 11.7644L11.9038 11.3211ZM15.5281 9.40146L11.6767 11.319L11.8996 11.7665L15.7509 9.84905L15.5281 9.40146ZM7.48056 5.59038L15.5226 9.84622L15.7564 9.40429L7.71444 5.14845L7.48056 5.59038ZM3.9247 7.60181L7.7147 5.59024L7.4803 5.14859L3.6903 7.16016L3.9247 7.60181ZM20.5785 16.148C20.5785 16.1314 20.5886 16.1151 20.6034 16.1077L20.8262 16.5553C20.9813 16.4781 21.0786 16.321 21.0785 16.1477L20.5785 16.148ZM20.5785 8.35037V16.1478H21.0785V8.35037H20.5785ZM17.4938 10.2899L20.9399 8.57417L20.7171 8.12658L17.271 9.8423L17.4938 10.2899ZM17.6324 12.6555V10.0661H17.1324V12.6555H17.6324ZM16.7967 13.4913C17.2582 13.4913 17.6324 13.1171 17.6324 12.6555H17.1324C17.1324 12.841 16.9821 12.9913 16.7967 12.9913V13.4913ZM15.9609 12.6555C15.9609 13.1171 16.3351 13.4913 16.7967 13.4913V12.9913C16.6113 12.9913 16.4609 12.841 16.4609 12.6555H15.9609ZM15.9609 10.6494V12.6555H16.4609V10.6494H15.9609ZM12.4792 12.7866L16.3224 10.8732L16.0995 10.4256L12.2563 12.3391L12.4792 12.7866ZM12.6177 20.5611V12.5628H12.1177V20.5611H12.6177ZM20.6018 16.1085L12.2547 20.3381L12.4807 20.7841L20.8278 16.5545L20.6018 16.1085ZM9.18539 13.5413C9.00757 13.1153 8.51814 12.9144 8.09226 13.092L8.28475 13.5535C8.45598 13.482 8.65257 13.5629 8.72397 13.7339L9.18539 13.5413ZM8.73603 14.6346C9.16202 14.4567 9.36319 13.9673 9.18538 13.5413L8.72398 13.7339C8.79539 13.905 8.71461 14.1017 8.54341 14.1731L8.73603 14.6346ZM7.95865 14.9591L8.73603 14.6346L8.5434 14.1732L7.76602 14.4977L7.95865 14.9591ZM8.8907 15.8919L8.07387 14.5952L7.6508 14.8616L8.46764 16.1584L8.8907 15.8919ZM8.62903 17.0445C9.01957 16.7985 9.13671 16.2825 8.8907 15.8919L8.46764 16.1584C8.56648 16.3153 8.5194 16.5227 8.36252 16.6215L8.62903 17.0445ZM8.18413 17.1732C8.33658 17.1732 8.491 17.1315 8.629 17.0446L8.36255 16.6215C8.30664 16.6567 8.24504 16.6732 8.18413 16.6732V17.1732ZM7.47643 16.7828C7.63546 17.0353 7.90729 17.1732 8.18413 17.1732V16.6732C8.07184 16.6732 7.9632 16.6175 7.8995 16.5163L7.47643 16.7828ZM6.55455 15.3193L7.47643 16.7828L7.89949 16.5163L6.97762 15.0528L6.55455 15.3193ZM5.9535 15.7962L6.86241 15.4167L6.66977 14.9553L5.76086 15.3348L5.9535 15.7962ZM5.63179 15.8609C5.73952 15.8609 5.84879 15.8399 5.95352 15.7962L5.76084 15.3348C5.71814 15.3527 5.67445 15.3609 5.63179 15.3609V15.8609ZM4.8603 15.3469C4.99432 15.668 5.3052 15.8609 5.63179 15.8609V15.3609C5.49986 15.3609 5.37535 15.2828 5.32172 15.1543L4.8603 15.3469ZM5.30958 14.2537C4.88364 14.4315 4.68252 14.921 4.8603 15.3469L5.32172 15.1543C5.25028 14.9832 5.33112 14.7865 5.5022 14.7151L5.30958 14.2537ZM6.03662 13.9502L5.30958 14.2537L5.5022 14.7151L6.22923 14.4116L6.03662 13.9502ZM5.11588 13.0354L5.92139 14.3142L6.34446 14.0477L5.53895 12.7689L5.11588 13.0354ZM5.37756 11.8827C4.98702 12.1288 4.86988 12.6448 5.11588 13.0354L5.53895 12.7689C5.44011 12.612 5.48719 12.4046 5.64407 12.3058L5.37756 11.8827ZM6.53017 12.1444C6.28411 11.7538 5.76809 11.6369 5.37761 11.8827L5.64401 12.3058C5.80103 12.207 6.0083 12.2541 6.10708 12.4109L6.53017 12.1444ZM7.4407 13.5899L6.53016 12.1444L6.10709 12.4109L7.01764 13.8564L7.4407 13.5899ZM8.0922 13.092L7.13287 13.4925L7.32548 13.9539L8.28481 13.5534L8.0922 13.092Z"
          fill="#A3A8AF"/>
</svg>
