<svg width="24" height="25" viewBox="0 0 24 25" fill="none" xmlns="http://www.w3.org/2000/svg">
<path d="M11.0241 18.4164C11.0241 18.0494 11.0564 17.6933 11.1104 17.348C8.77933 17.294 6.90153 15.3946 6.90153 13.042C6.90153 10.6569 8.83329 8.72518 11.2183 8.72518C13.204 8.72518 14.866 10.0742 15.3624 11.9088C16.1934 11.5635 17.1107 11.3692 18.0712 11.3692C18.8159 11.3692 19.5389 11.4879 20.2188 11.7038L21.3304 10.6893C21.7081 10.344 21.7944 9.79358 21.5354 9.35111L19.5713 5.95164C19.3231 5.50917 18.7943 5.30413 18.3086 5.466L16.3229 6.09194C16.0747 5.90847 15.8157 5.7358 15.5459 5.58472C15.2653 5.42284 14.9631 5.27175 14.6609 5.13145L14.2401 3.10256C14.1321 2.60613 13.6897 2.25 13.1825 2.25H9.25418C8.74695 2.25 8.31528 2.60613 8.20736 3.10256L7.76489 5.13145C7.4735 5.26096 7.19291 5.40125 6.92311 5.55234C6.64252 5.71422 6.36193 5.89768 6.10292 6.09194L4.1172 5.45521C3.64236 5.30413 3.11355 5.50917 2.85454 5.94085L0.890407 9.35111C0.642191 9.78279 0.728527 10.344 1.10625 10.6893L2.6387 12.0923C2.60633 12.4052 2.58474 12.729 2.58474 13.042C2.58474 13.3549 2.60633 13.6787 2.6387 14.0024L1.10625 15.4054C0.728527 15.7507 0.642191 16.3011 0.901199 16.7436L2.86534 20.1431C3.11355 20.5855 3.64236 20.7906 4.128 20.6287L6.11372 20.0028C6.38351 20.197 6.66411 20.3805 6.9447 20.5424C7.2145 20.6935 7.48429 20.8338 7.76489 20.9633L8.20736 22.9921C8.31528 23.4778 8.74695 23.8339 9.25418 23.8339H13.1825C13.2904 23.8339 13.3983 23.8123 13.4954 23.78C11.9845 22.4849 11.0241 20.564 11.0241 18.4164Z" fill="#0088FF"/>
<path fill-rule="evenodd" clip-rule="evenodd" d="M20.2308 14.6826C20.0905 14.5963 19.9503 14.5315 19.7992 14.4668L19.5833 13.4631C19.5294 13.2149 19.3135 13.0422 19.0653 13.0422H17.1336C16.8853 13.0422 16.6695 13.2149 16.6155 13.4631L16.3997 14.4668C16.2594 14.5315 16.1191 14.5963 15.9896 14.6718C15.8493 14.7474 15.7198 14.8337 15.5903 14.9308L14.619 14.6179C14.3816 14.5423 14.1226 14.6394 14.0039 14.8553L13.0434 16.528C12.9139 16.7439 12.9571 17.0137 13.1405 17.1864L13.896 17.877C13.8744 18.0389 13.8744 18.19 13.8744 18.3519C13.8744 18.503 13.8852 18.6648 13.896 18.8267L13.1405 19.5174C12.9571 19.6901 12.9139 19.9599 13.0434 20.1757L14.0039 21.8485C14.1334 22.0643 14.3816 22.1614 14.619 22.0859L15.5903 21.7729C15.7198 21.8701 15.8601 21.9564 16.0004 22.0427C16.1299 22.1183 16.2702 22.183 16.4105 22.2478L16.6263 23.2514C16.6803 23.4996 16.8961 23.6723 17.1443 23.6723H19.0761C19.3243 23.6723 19.5402 23.4996 19.5941 23.2514L19.81 22.2478C19.961 22.183 20.1013 22.1075 20.2416 22.0319C20.3711 21.9564 20.5006 21.8701 20.6301 21.7837L21.6014 22.0967C21.8388 22.1722 22.0979 22.0751 22.2166 21.8593L23.1771 20.1865C23.3066 19.9707 23.2634 19.7009 23.0799 19.5282L22.3245 18.8375C22.3353 18.6541 22.3353 18.503 22.3353 18.3411C22.3353 18.19 22.3245 18.0281 22.3137 17.877L23.0691 17.1864C23.2526 17.0137 23.2958 16.7439 23.1663 16.528L22.2058 14.8553C22.0763 14.6394 21.8281 14.5423 21.5906 14.6179L20.6194 14.9308C20.4899 14.8337 20.3603 14.7582 20.2308 14.6826ZM18.094 20.4671C19.2704 20.4671 20.2201 19.5174 20.2201 18.3411C20.2201 17.1648 19.2704 16.2151 18.094 16.2151C16.9177 16.2151 15.968 17.1648 15.968 18.3411C15.9788 19.5174 16.9285 20.4671 18.094 20.4671Z" fill="#0088FF"/>
</svg>
