<svg viewBox="0 0 24 24" fill="none" xmlns="http://www.w3.org/2000/svg">
    <path d="M8.04243 15.9082C7.51353 15.6051 7.1561 15.0352 7.1561 14.3828C7.1561 11.6902 9.34634 9.5 12.0389 9.5H14.051L14.1459 7.9375H2.74438L3.56313 21.4496C3.58228 21.7586 3.83853 22 4.14829 22H7.7436C7.37485 21.5102 7.1561 20.9012 7.1561 20.2422C7.1561 19.4824 7.64087 18.834 8.31704 18.5891C8.0772 18.2215 7.93735 17.7832 7.93735 17.3125C7.93735 16.8414 8.07759 16.4027 8.31782 16.0348C8.12681 15.9918 8.02056 15.9496 8.04243 15.9082Z"
          fill="#A3A8AF"/>
    <path d="M8.44453 6.76562C8.44492 6.76562 8.44531 6.76562 8.44609 6.76562H14.3047C14.6285 6.76562 14.8906 6.50352 14.8906 6.17969C14.8906 5.85586 14.6285 5.59375 14.3047 5.59375H9.52695L11.1062 3.17188H13.1328C13.4566 3.17188 13.7188 2.90977 13.7188 2.58594C13.7188 2.26211 13.4566 2 13.1328 2H10.7891C10.591 2 10.4062 2.1 10.2984 2.26562L8.12813 5.59375H2.58594C2.26211 5.59375 2 5.85586 2 6.17969C2 6.50352 2.26211 6.76562 2.58594 6.76562H8.44258C8.44336 6.76562 8.44414 6.76562 8.44453 6.76562Z"
          fill="#A3A8AF"/>
    <path d="M8.32812 14.3828C8.32812 14.7066 8.59023 14.9688 8.91406 14.9688H21.4141C21.7379 14.9688 22 14.7066 22 14.3828C22 12.3367 20.3352 10.6719 18.2891 10.6719H12.0391C9.99297 10.6719 8.32812 12.3367 8.32812 14.3828Z"
          fill="#A3A8AF"/>
    <path d="M10.2812 16.1406C9.63398 16.1406 9.10938 16.6652 9.10938 17.3125C9.10938 17.9598 9.63398 18.4844 10.2812 18.4844H20.0469C20.6941 18.4844 21.2188 17.9598 21.2188 17.3125C21.2188 16.6652 20.6941 16.1406 20.0469 16.1406H10.2812Z"
          fill="#A3A8AF"/>
    <path d="M21.4141 19.6562H8.91406C8.59023 19.6562 8.32812 19.9184 8.32812 20.2422C8.32812 21.2113 9.1168 22 10.0859 22H20.2422C21.2113 22 22 21.2113 22 20.2422C22 19.9184 21.7379 19.6562 21.4141 19.6562Z"
          fill="#A3A8AF"/>
</svg>
