<svg viewBox="0 0 24 24" fill="none" xmlns="http://www.w3.org/2000/svg">
    <path fill-rule="evenodd" clip-rule="evenodd"
          d="M7.73285 2H15.4338C18.5948 2 21.1666 4.68359 21.1666 7.98215V16.0179C21.1666 19.3164 18.5948 22 15.4337 22H7.73281C4.57174 22 2 19.3164 2 16.0179V7.98215C2 4.68359 4.57174 2 7.73285 2ZM15.4338 20.8285C17.9758 20.8285 20.044 18.6704 20.044 16.0179H20.0439V7.98215C20.0439 5.32957 17.9758 3.17148 15.4338 3.17148H7.73285C5.19076 3.17148 3.12263 5.32957 3.12263 7.98215V16.0179C3.12263 18.6704 5.19076 20.8285 7.73285 20.8285H15.4338ZM8.17026 7.45387H9.71119C10.0212 7.45387 10.2725 7.71609 10.2725 8.03957C10.2725 8.36304 10.0212 8.62531 9.71115 8.62531H8.17026V10.2332C8.17026 10.5567 7.91892 10.8189 7.60892 10.8189C7.29892 10.8189 7.04758 10.5567 7.04758 10.2332V8.62531H5.50669C5.19669 8.62531 4.94535 8.36304 4.94535 8.03957C4.94535 7.71609 5.19669 7.45383 5.50669 7.45383H7.04758V5.84594C7.04758 5.52246 7.29892 5.26019 7.60892 5.26019C7.91892 5.26019 8.17026 5.52246 8.17026 5.84594V7.45387ZM17.5177 7.4539H13.3133C13.0033 7.4539 12.752 7.71616 12.752 8.03964C12.752 8.36312 13.0033 8.62538 13.3133 8.62538H17.5178C17.8278 8.62538 18.0791 8.36312 18.0791 8.03964C18.0791 7.71616 17.8278 7.4539 17.5177 7.4539ZM9.49239 15.2063L8.40281 16.3433L9.49231 17.4802C9.71153 17.709 9.71153 18.0799 9.49231 18.3086C9.38274 18.423 9.23903 18.4802 9.09543 18.4802C8.95183 18.4802 8.80815 18.423 8.69854 18.3086L7.60896 17.1717L6.51938 18.3086C6.40981 18.423 6.26613 18.4802 6.1225 18.4802C5.97886 18.4802 5.83522 18.423 5.72561 18.3086C5.50639 18.0799 5.50639 17.709 5.72561 17.4802L6.81519 16.3433L5.72561 15.2063C5.50639 14.9776 5.50639 14.6067 5.72561 14.378C5.94483 14.1492 6.30028 14.1492 6.51946 14.378L7.60904 15.5149L8.69862 14.378C8.9178 14.1492 9.27324 14.1492 9.49246 14.378C9.71168 14.6067 9.71168 14.9776 9.49239 15.2063ZM17.5177 14.5861H13.3133C13.0033 14.5861 12.752 14.8484 12.752 15.1719C12.752 15.4953 13.0033 15.7576 13.3133 15.7576H17.5178C17.8278 15.7576 18.0791 15.4953 18.0791 15.1719C18.0791 14.8484 17.8278 14.5861 17.5177 14.5861ZM13.3133 16.9291H17.5177C17.8278 16.9291 18.0791 17.1914 18.0791 17.5148C18.0791 17.8383 17.8278 18.1006 17.5178 18.1006H13.3133C13.0033 18.1006 12.752 17.8383 12.752 17.5148C12.752 17.1914 13.0033 16.9291 13.3133 16.9291Z"
          fill="#A3A8AF"/>
    <path d="M21.1666 7.98215L20.9166 7.98215V7.98215H21.1666ZM20.044 16.0179H20.294V15.7679H20.044V16.0179ZM20.0439 16.0179H19.7939V16.2679H20.0439V16.0179ZM8.17026 7.45387H7.92026V7.70387H8.17026V7.45387ZM10.2725 8.03957L10.0225 8.03954V8.03957H10.2725ZM8.17026 8.62531V8.37531H7.92026V8.62531H8.17026ZM7.04758 8.62531H7.29758V8.37531H7.04758V8.62531ZM7.04758 7.45383V7.70383H7.29758V7.45383H7.04758ZM8.40281 16.3433L8.22231 16.1703L8.05655 16.3433L8.2223 16.5163L8.40281 16.3433ZM9.49239 15.2063L9.31192 15.0333L9.31189 15.0334L9.49239 15.2063ZM9.49231 17.4802L9.31181 17.6532L9.31182 17.6532L9.49231 17.4802ZM9.49231 18.3086L9.31182 18.1356L9.31176 18.1357L9.49231 18.3086ZM8.69854 18.3086L8.51805 18.4816L8.51805 18.4816L8.69854 18.3086ZM7.60896 17.1717L7.78946 16.9987L7.60896 16.8103L7.42847 16.9987L7.60896 17.1717ZM6.51938 18.3086L6.33888 18.1356L6.33883 18.1357L6.51938 18.3086ZM5.72561 18.3086L5.54511 18.4816L5.54512 18.4816L5.72561 18.3086ZM5.72561 17.4802L5.90611 17.6532L5.72561 17.4802ZM6.81519 16.3433L6.99569 16.5163L7.16146 16.3433L6.99569 16.1703L6.81519 16.3433ZM5.72561 15.2063L5.54511 15.3793H5.54512L5.72561 15.2063ZM5.72561 14.378L5.54512 14.205H5.54511L5.72561 14.378ZM6.51946 14.378L6.33895 14.5509L6.33896 14.551L6.51946 14.378ZM7.60904 15.5149L7.42854 15.6879L7.60904 15.8763L7.78953 15.6879L7.60904 15.5149ZM8.69862 14.378L8.87912 14.551L8.87913 14.5509L8.69862 14.378ZM9.49246 14.378L9.67296 14.205H9.67296L9.49246 14.378ZM15.4338 1.75H7.73285V2.25H15.4338V1.75ZM21.4166 7.98215C21.4166 4.55566 18.7428 1.75 15.4338 1.75V2.25C18.4468 2.25 20.9166 4.81153 20.9166 7.98215L21.4166 7.98215ZM21.4166 16.0179V7.98215H20.9166V16.0179H21.4166ZM15.4337 22.25C18.7428 22.25 21.4166 19.4443 21.4166 16.0179H20.9166C20.9166 19.1885 18.4468 21.75 15.4337 21.75V22.25ZM7.73281 22.25H15.4337V21.75H7.73281V22.25ZM1.75 16.0179C1.75 19.4443 4.42374 22.25 7.73281 22.25V21.75C4.71973 21.75 2.25 19.1885 2.25 16.0179H1.75ZM1.75 7.98215V16.0179H2.25V7.98215H1.75ZM7.73285 1.75C4.42374 1.75 1.75 4.55566 1.75 7.98215H2.25C2.25 4.81153 4.71973 2.25 7.73285 2.25V1.75ZM19.794 16.0179C19.794 18.5425 17.8278 20.5785 15.4338 20.5785V21.0785C18.1238 21.0785 20.294 18.7984 20.294 16.0179H19.794ZM20.0439 16.2679H20.044V15.7679H20.0439V16.2679ZM19.7939 7.98215V16.0179H20.2939V7.98215H19.7939ZM15.4338 3.42148C17.8278 3.42148 19.7939 5.4575 19.7939 7.98215H20.2939C20.2939 5.20164 18.1238 2.92148 15.4338 2.92148V3.42148ZM7.73285 3.42148H15.4338V2.92148H7.73285V3.42148ZM3.37263 7.98215C3.37263 5.45751 5.33876 3.42148 7.73285 3.42148V2.92148C5.04277 2.92148 2.87263 5.20164 2.87263 7.98215H3.37263ZM3.37263 16.0179V7.98215H2.87263V16.0179H3.37263ZM7.73285 20.5785C5.33876 20.5785 3.37263 18.5425 3.37263 16.0179H2.87263C2.87263 18.7984 5.04277 21.0785 7.73285 21.0785V20.5785ZM15.4338 20.5785H7.73285V21.0785H15.4338V20.5785ZM9.71119 7.20387H8.17026V7.70387H9.71119V7.20387ZM10.5225 8.0396C10.5225 7.58813 10.1692 7.20387 9.71119 7.20387V7.70387C9.87322 7.70387 10.0225 7.84405 10.0225 8.03954L10.5225 8.0396ZM9.71115 8.87531C10.1691 8.87531 10.5225 8.49098 10.5225 8.03957H10.0225C10.0225 8.23511 9.87316 8.37531 9.71115 8.37531V8.87531ZM8.17026 8.87531H9.71115V8.37531H8.17026V8.87531ZM8.42026 10.2332V8.62531H7.92026V10.2332H8.42026ZM7.60892 11.0689C8.06691 11.0689 8.42026 10.6846 8.42026 10.2332H7.92026C7.92026 10.4287 7.77093 10.5689 7.60892 10.5689V11.0689ZM6.79758 10.2332C6.79758 10.6846 7.15093 11.0689 7.60892 11.0689V10.5689C7.44691 10.5689 7.29758 10.4287 7.29758 10.2332H6.79758ZM6.79758 8.62531V10.2332H7.29758V8.62531H6.79758ZM5.50669 8.87531H7.04758V8.37531H5.50669V8.87531ZM4.69535 8.03957C4.69535 8.49098 5.0487 8.87531 5.50669 8.87531V8.37531C5.34468 8.37531 5.19535 8.23511 5.19535 8.03957H4.69535ZM5.50669 7.20383C5.0487 7.20383 4.69535 7.58815 4.69535 8.03957H5.19535C5.19535 7.84403 5.34468 7.70383 5.50669 7.70383V7.20383ZM7.04758 7.20383H5.50669V7.70383H7.04758V7.20383ZM6.79758 5.84594V7.45383H7.29758V5.84594H6.79758ZM7.60892 5.01019C7.15093 5.01019 6.79758 5.39452 6.79758 5.84594H7.29758C7.29758 5.6504 7.44691 5.51019 7.60892 5.51019V5.01019ZM8.42026 5.84594C8.42026 5.39452 8.06691 5.01019 7.60892 5.01019V5.51019C7.77093 5.51019 7.92026 5.6504 7.92026 5.84594H8.42026ZM8.42026 7.45387V5.84594H7.92026V7.45387H8.42026ZM13.3133 7.7039H17.5177V7.2039H13.3133V7.7039ZM13.002 8.03964C13.002 7.8441 13.1513 7.7039 13.3133 7.7039V7.2039C12.8553 7.2039 12.502 7.58823 12.502 8.03964H13.002ZM13.3133 8.37538C13.1513 8.37538 13.002 8.23518 13.002 8.03964H12.502C12.502 8.49105 12.8553 8.87538 13.3133 8.87538V8.37538ZM17.5178 8.37538H13.3133V8.87538H17.5178V8.37538ZM17.8291 8.03964C17.8291 8.23518 17.6798 8.37538 17.5178 8.37538V8.87538C17.9758 8.87538 18.3291 8.49105 18.3291 8.03964H17.8291ZM17.5177 7.7039C17.6798 7.7039 17.8291 7.84411 17.8291 8.03964H18.3291C18.3291 7.58822 17.9758 7.2039 17.5177 7.2039V7.7039ZM8.5833 16.5163L9.67288 15.3793L9.31189 15.0334L8.22231 16.1703L8.5833 16.5163ZM9.67282 17.3073L8.58331 16.1703L8.2223 16.5163L9.31181 17.6532L9.67282 17.3073ZM9.67281 18.4816C9.9847 18.1561 9.9847 17.6327 9.67281 17.3073L9.31182 17.6532C9.43836 17.7853 9.43836 18.0036 9.31182 18.1356L9.67281 18.4816ZM9.09543 18.7302C9.30606 18.7302 9.51536 18.646 9.67287 18.4815L9.31176 18.1357C9.25013 18.2 9.17199 18.2302 9.09543 18.2302V18.7302ZM8.51805 18.4816C8.67553 18.6459 8.88473 18.7302 9.09543 18.7302V18.2302C9.01893 18.2302 8.94077 18.2001 8.87904 18.1356L8.51805 18.4816ZM7.42847 17.3446L8.51805 18.4816L8.87904 18.1356L7.78946 16.9987L7.42847 17.3446ZM6.69988 18.4816L7.78946 17.3446L7.42847 16.9987L6.33888 18.1356L6.69988 18.4816ZM6.1225 18.7302C6.33318 18.7302 6.54243 18.646 6.69994 18.4815L6.33883 18.1357C6.27719 18.2001 6.19909 18.2302 6.1225 18.2302V18.7302ZM5.54512 18.4816C5.70259 18.6459 5.91175 18.7302 6.1225 18.7302V18.2302C6.04597 18.2302 5.96785 18.2001 5.90611 18.1356L5.54512 18.4816ZM5.54511 17.3073C5.23323 17.6327 5.23323 18.1561 5.54511 18.4816L5.90611 18.1356C5.77956 18.0036 5.77956 17.7853 5.90611 17.6532L5.54511 17.3073ZM6.6347 16.1703L5.54511 17.3073L5.90611 17.6532L6.99569 16.5163L6.6347 16.1703ZM5.54512 15.3793L6.6347 16.5163L6.99569 16.1703L5.90611 15.0334L5.54512 15.3793ZM5.54511 14.205C5.23323 14.5305 5.23323 15.0539 5.54511 15.3793L5.90611 15.0334C5.77956 14.9013 5.77956 14.683 5.90611 14.551L5.54511 14.205ZM6.69997 14.205C6.38236 13.8735 5.86274 13.8736 5.54512 14.205L5.90611 14.551C6.02692 14.4249 6.21819 14.4249 6.33895 14.5509L6.69997 14.205ZM7.78953 15.342L6.69995 14.205L6.33896 14.551L7.42854 15.6879L7.78953 15.342ZM8.51812 14.205L7.42854 15.342L7.78953 15.6879L8.87912 14.551L8.51812 14.205ZM9.67296 14.205C9.35533 13.8736 8.83572 13.8735 8.51811 14.205L8.87913 14.5509C8.99988 14.4249 9.19116 14.4249 9.31197 14.551L9.67296 14.205ZM9.67286 15.3793C9.98485 15.0539 9.98485 14.5305 9.67296 14.205L9.31197 14.551C9.43851 14.683 9.43851 14.9013 9.31192 15.0333L9.67286 15.3793ZM13.3133 14.8361H17.5177V14.3361H13.3133V14.8361ZM13.002 15.1719C13.002 14.9763 13.1513 14.8361 13.3133 14.8361V14.3361C12.8553 14.3361 12.502 14.7204 12.502 15.1719H13.002ZM13.3133 15.5076C13.1513 15.5076 13.002 15.3674 13.002 15.1719H12.502C12.502 15.6233 12.8553 16.0076 13.3133 16.0076V15.5076ZM17.5178 15.5076H13.3133V16.0076H17.5178V15.5076ZM17.8291 15.1719C17.8291 15.3674 17.6798 15.5076 17.5178 15.5076V16.0076C17.9758 16.0076 18.3291 15.6233 18.3291 15.1719H17.8291ZM17.5177 14.8361C17.6798 14.8361 17.8291 14.9763 17.8291 15.1719H18.3291C18.3291 14.7204 17.9758 14.3361 17.5177 14.3361V14.8361ZM17.5177 16.6791H13.3133V17.1791H17.5177V16.6791ZM18.3291 17.5148C18.3291 17.0634 17.9758 16.6791 17.5177 16.6791V17.1791C17.6798 17.1791 17.8291 17.3193 17.8291 17.5148H18.3291ZM17.5178 18.3506C17.9758 18.3506 18.3291 17.9663 18.3291 17.5148H17.8291C17.8291 17.7104 17.6798 17.8506 17.5178 17.8506V18.3506ZM13.3133 18.3506H17.5178V17.8506H13.3133V18.3506ZM12.502 17.5148C12.502 17.9663 12.8553 18.3506 13.3133 18.3506V17.8506C13.1513 17.8506 13.002 17.7104 13.002 17.5148H12.502ZM13.3133 16.6791C12.8553 16.6791 12.502 17.0634 12.502 17.5148H13.002C13.002 17.3193 13.1513 17.1791 13.3133 17.1791V16.6791Z"
          fill="#A3A8AF"/>
</svg>
