<svg viewBox="0 0 24 25" fill="none" xmlns="http://www.w3.org/2000/svg">
    <path d="M7 12.5H9V14.5H7V12.5Z" fill="currentColor"/>
    <path d="M7 16.5H9V18.5H7V16.5Z" fill="currentColor"/>
    <path d="M13 12.5H11V14.5H13V12.5Z" fill="currentColor"/>
    <path d="M11 16.5H13V18.5H11V16.5Z" fill="currentColor"/>
    <path d="M17 12.5H15V14.5H17V12.5Z" fill="currentColor"/>
    <path d="M15 16.5H17V18.5H15V16.5Z" fill="currentColor"/>
    <path fill-rule="evenodd" clip-rule="evenodd"
          d="M19 22.5H5C3.897 22.5 3 21.603 3 20.5V6.5C3 5.397 3.897 4.5 5 4.5H7V2.5H9V4.5H15V2.5H17V4.5H19C20.103 4.5 21 5.397 21 6.5V20.5C21 21.603 20.103 22.5 19 22.5ZM19.0001 8.5L19 6.5H5V8.5H19.0001ZM19.0003 10.5L19.001 20.5H5V10.5H19.0003Z"
          fill="currentColor"/>
</svg>
