<svg viewBox="0 0 24 24" fill="none" xmlns="http://www.w3.org/2000/svg">
    <path d="M17.2895 9.85815C17.7008 9.24918 17.8849 8.51926 17.8107 7.79216C17.7365 7.06507 17.4085 6.38555 16.8823 5.86884C16.3562 5.35213 15.6642 5.03003 14.9238 4.95716C14.1834 4.88429 13.4401 5.06513 12.82 5.46903C10.3694 3.0619 10.3694 2.93542 9.92438 3.01142C9.47937 3.08743 9.76476 2.71989 5.41137 11.7707C2.83198 14.3043 2 14.7852 2 16.2043C2 17.6234 2.92207 18.1638 4.57938 19.7889C4.98408 20.1841 5.51077 20.4365 6.07705 20.5064C6.64333 20.5763 7.21724 20.4599 7.70899 20.1754C10.0066 22.4175 10.3694 23 11.4076 23C11.79 22.9997 12.1637 22.8881 12.4816 22.6794C12.7995 22.4706 13.0473 22.174 13.1936 21.8271C13.34 21.4801 13.3783 21.0983 13.3039 20.73C13.2294 20.3616 13.0455 20.0232 12.7752 19.7574L10.4903 17.5154L10.8706 17.1478C20.1065 12.8472 19.7129 13.1577 19.7903 12.7142C19.8676 12.2706 19.803 12.3342 17.2877 9.85815H17.2895ZM16.3414 8.93306L13.762 6.40005C14.123 6.23094 14.5285 6.17584 14.9227 6.24235C15.3169 6.30885 15.6804 6.49369 15.9632 6.77142C16.2461 7.04916 16.4343 7.40614 16.502 7.79325C16.5697 8.18036 16.5136 8.57856 16.3414 8.93306ZM5.47183 18.8579C2.41478 15.8558 2.42748 16.4828 5.92954 13.039L9.58337 16.6223L7.30025 18.8579C7.0583 19.0953 6.73023 19.2287 6.38816 19.2287C6.04609 19.2287 5.71802 19.0953 5.47606 18.8579H5.47183ZM9.58337 18.4143L11.8598 20.6505C11.9713 20.7705 12.0315 20.928 12.0281 21.0904C12.0246 21.2529 11.9578 21.4078 11.8414 21.5232C11.7249 21.6386 11.5678 21.7057 11.4025 21.7106C11.2371 21.7154 11.0762 21.6578 10.9529 21.5494L8.66976 19.3074L9.58337 18.4143ZM10.6282 15.8813L6.71255 12.0112L10.2273 4.71494L18.0574 12.4042L10.6282 15.8813Z"
          fill="#A3A8AF"/>
    <path d="M18.246 5.31332C18.6009 5.31332 18.6136 5.21179 20.0714 3.78022C20.1366 3.72293 20.1893 3.65322 20.2262 3.57533C20.2631 3.49744 20.2834 3.41299 20.2861 3.32712C20.2887 3.24125 20.2735 3.15575 20.2415 3.07582C20.2094 2.99589 20.1611 2.9232 20.0995 2.86218C20.038 2.80115 19.9644 2.75305 19.8833 2.72082C19.8022 2.68858 19.7153 2.67288 19.6278 2.67466C19.5404 2.67645 19.4542 2.69568 19.3745 2.7312C19.2949 2.76671 19.2234 2.81777 19.1645 2.88125L17.7968 4.22376C17.704 4.31165 17.6401 4.42482 17.6134 4.54868C17.5868 4.67253 17.5985 4.8014 17.6471 4.91866C17.6957 5.03592 17.779 5.13618 17.8861 5.20653C17.9933 5.27687 18.1195 5.31407 18.2484 5.31332H18.246Z"
          fill="#A3A8AF"/>
    <path d="M16.1757 3.51421V1.61416C16.1706 1.44956 16.1004 1.2934 15.98 1.17876C15.8597 1.06411 15.6986 1 15.5309 1C15.3632 1 15.2021 1.06411 15.0817 1.17876C14.9614 1.2934 14.8912 1.44956 14.886 1.61416V3.51421C14.8834 3.599 14.8981 3.68345 14.9293 3.76255C14.9606 3.84165 15.0076 3.91378 15.0678 3.97468C15.1279 4.03558 15.1999 4.08399 15.2794 4.11705C15.359 4.15012 15.4445 4.16715 15.5309 4.16715C15.6173 4.16715 15.7028 4.15012 15.7823 4.11705C15.8619 4.08399 15.9339 4.03558 15.994 3.97468C16.0541 3.91378 16.1012 3.84165 16.1324 3.76255C16.1637 3.68345 16.1784 3.599 16.1757 3.51421Z"
          fill="#A3A8AF"/>
    <path d="M19.4003 7.94787H21.3351C21.4214 7.95047 21.5074 7.93601 21.588 7.90535C21.6685 7.8747 21.742 7.82847 21.804 7.76941C21.866 7.71035 21.9153 7.63966 21.949 7.56154C21.9827 7.48342 22 7.39945 22 7.31462C22 7.22979 21.9827 7.14582 21.949 7.06769C21.9153 6.98957 21.866 6.91888 21.804 6.85982C21.742 6.80077 21.6685 6.75454 21.588 6.72388C21.5074 6.69323 21.4214 6.67877 21.3351 6.68136H19.4003C19.2327 6.6864 19.0736 6.75533 18.9569 6.87354C18.8402 6.99175 18.7749 7.14995 18.7749 7.31462C18.7749 7.47929 18.8402 7.63749 18.9569 7.75569C19.0736 7.8739 19.2327 7.94283 19.4003 7.94787Z"
          fill="#A3A8AF"/>
    <path d="M17.2895 9.85815C17.7008 9.24918 17.8849 8.51926 17.8107 7.79216C17.7365 7.06507 17.4085 6.38555 16.8823 5.86884C16.3562 5.35213 15.6642 5.03003 14.9238 4.95716C14.1834 4.88429 13.4401 5.06513 12.82 5.46903C10.3694 3.0619 10.3694 2.93542 9.92438 3.01142C9.47937 3.08743 9.76476 2.71989 5.41137 11.7707C2.83198 14.3043 2 14.7852 2 16.2043C2 17.6234 2.92207 18.1638 4.57938 19.7889C4.98408 20.1841 5.51077 20.4365 6.07705 20.5064C6.64333 20.5763 7.21724 20.4599 7.70899 20.1754C10.0066 22.4175 10.3694 23 11.4076 23C11.79 22.9997 12.1637 22.8881 12.4816 22.6794C12.7995 22.4706 13.0473 22.174 13.1936 21.8271C13.34 21.4801 13.3783 21.0983 13.3039 20.73C13.2294 20.3616 13.0455 20.0232 12.7752 19.7574L10.4903 17.5154L10.8706 17.1478C20.1065 12.8472 19.7129 13.1577 19.7903 12.7142C19.8676 12.2706 19.803 12.3342 17.2877 9.85815H17.2895ZM16.3414 8.93306L13.762 6.40005C14.123 6.23094 14.5285 6.17584 14.9227 6.24235C15.3169 6.30885 15.6804 6.49369 15.9632 6.77142C16.2461 7.04916 16.4343 7.40614 16.502 7.79325C16.5697 8.18036 16.5136 8.57856 16.3414 8.93306ZM5.47183 18.8579C2.41478 15.8558 2.42748 16.4828 5.92954 13.039L9.58337 16.6223L7.30025 18.8579C7.0583 19.0953 6.73023 19.2287 6.38816 19.2287C6.04609 19.2287 5.71802 19.0953 5.47606 18.8579H5.47183ZM9.58337 18.4143L11.8598 20.6505C11.9713 20.7705 12.0315 20.928 12.0281 21.0904C12.0246 21.2529 11.9578 21.4078 11.8414 21.5232C11.7249 21.6386 11.5678 21.7057 11.4025 21.7106C11.2371 21.7154 11.0762 21.6578 10.9529 21.5494L8.66976 19.3074L9.58337 18.4143ZM10.6282 15.8813L6.71255 12.0112L10.2273 4.71494L18.0574 12.4042L10.6282 15.8813Z"
          stroke="#A3A8AF" stroke-width="0.5"/>
    <path d="M18.246 5.31332C18.6009 5.31332 18.6136 5.21179 20.0714 3.78022C20.1366 3.72293 20.1893 3.65322 20.2262 3.57533C20.2631 3.49744 20.2834 3.41299 20.2861 3.32712C20.2887 3.24125 20.2735 3.15575 20.2415 3.07582C20.2094 2.99589 20.1611 2.9232 20.0995 2.86218C20.038 2.80115 19.9644 2.75305 19.8833 2.72082C19.8022 2.68858 19.7153 2.67288 19.6278 2.67466C19.5404 2.67645 19.4542 2.69568 19.3745 2.7312C19.2949 2.76671 19.2234 2.81777 19.1645 2.88125L17.7968 4.22376C17.704 4.31165 17.6401 4.42482 17.6134 4.54868C17.5868 4.67253 17.5985 4.8014 17.6471 4.91866C17.6957 5.03592 17.779 5.13618 17.8861 5.20653C17.9933 5.27687 18.1195 5.31407 18.2484 5.31332H18.246Z"
          stroke="#A3A8AF" stroke-width="0.5"/>
    <path d="M16.1757 3.51421V1.61416C16.1706 1.44956 16.1004 1.2934 15.98 1.17876C15.8597 1.06411 15.6986 1 15.5309 1C15.3632 1 15.2021 1.06411 15.0817 1.17876C14.9614 1.2934 14.8912 1.44956 14.886 1.61416V3.51421C14.8834 3.599 14.8981 3.68345 14.9293 3.76255C14.9606 3.84165 15.0076 3.91378 15.0678 3.97468C15.1279 4.03558 15.1999 4.08399 15.2794 4.11705C15.359 4.15012 15.4445 4.16715 15.5309 4.16715C15.6173 4.16715 15.7028 4.15012 15.7823 4.11705C15.8619 4.08399 15.9339 4.03558 15.994 3.97468C16.0541 3.91378 16.1012 3.84165 16.1324 3.76255C16.1637 3.68345 16.1784 3.599 16.1757 3.51421Z"
          stroke="#A3A8AF" stroke-width="0.5"/>
    <path d="M19.4003 7.94787H21.3351C21.4214 7.95047 21.5074 7.93601 21.588 7.90535C21.6685 7.8747 21.742 7.82847 21.804 7.76941C21.866 7.71035 21.9153 7.63966 21.949 7.56154C21.9827 7.48342 22 7.39945 22 7.31462C22 7.22979 21.9827 7.14582 21.949 7.06769C21.9153 6.98957 21.866 6.91888 21.804 6.85982C21.742 6.80077 21.6685 6.75454 21.588 6.72388C21.5074 6.69323 21.4214 6.67877 21.3351 6.68136H19.4003C19.2327 6.6864 19.0736 6.75533 18.9569 6.87354C18.8402 6.99175 18.7749 7.14995 18.7749 7.31462C18.7749 7.47929 18.8402 7.63749 18.9569 7.75569C19.0736 7.8739 19.2327 7.94283 19.4003 7.94787Z"
          stroke="#A3A8AF" stroke-width="0.5"/>
</svg>
