<svg viewBox="0 0 24 24" fill="none" xmlns="http://www.w3.org/2000/svg">
    <g clip-path="url(#clip0_7748_5804)">
        <path d="M4.87 13.0647L2.57011 15.3579C2.20505 15.7233 2 16.2188 2 16.7353C2 17.2519 2.20505 17.7473 2.57011 18.1128L4.40832 19.951C4.77377 20.316 5.2692 20.5211 5.78575 20.5211C6.3023 20.5211 6.79773 20.316 7.16319 19.951L9.46308 17.6578L4.87 13.0647Z"
              fill="#A3A8AF"/>
        <path d="M9.91611 19.0349L8.08887 20.8762L9.91611 22.7034C10.1656 22.9055 10.4811 23.008 10.8017 22.9912C11.1223 22.9744 11.4254 22.8395 11.6524 22.6124C11.8794 22.3854 12.0143 22.0824 12.0311 21.7618C12.0479 21.4411 11.9454 21.1257 11.7434 20.8762L9.91611 19.0349Z"
              fill="#A3A8AF"/>
        <path d="M5.62354 11.9793L10.5419 16.8976L18.6499 13.0604L9.46318 3.87122L5.62354 11.9793Z" fill="#A3A8AF"/>
        <path d="M13.3806 5.9567L16.5643 9.14037C16.6825 8.6996 16.6827 8.23546 16.5646 7.79463C16.4466 7.3538 16.2145 6.95183 15.8918 6.62913C15.5692 6.30644 15.1672 6.0744 14.7264 5.95636C14.2855 5.83832 13.8214 5.83844 13.3806 5.9567Z"
              fill="#A3A8AF"/>
        <path d="M17.727 5.44391C18.0845 5.44391 18.0973 5.33976 19.5658 3.87127C19.6315 3.8125 19.6845 3.741 19.7217 3.6611C19.7588 3.5812 19.7794 3.49457 19.782 3.40649C19.7847 3.3184 19.7694 3.2307 19.7371 3.1487C19.7048 3.06671 19.6561 2.99215 19.5941 2.92955C19.5321 2.86694 19.458 2.81761 19.3763 2.78454C19.2946 2.75148 19.207 2.73537 19.1189 2.7372C19.0308 2.73903 18.944 2.75876 18.8638 2.79519C18.7835 2.83162 18.7115 2.88399 18.6522 2.94912L17.2744 4.32625C17.181 4.4164 17.1166 4.53249 17.0898 4.65954C17.0629 4.7866 17.0747 4.91879 17.1236 5.03907C17.1726 5.15935 17.2565 5.2622 17.3645 5.33436C17.4724 5.40652 17.5995 5.44468 17.7294 5.44391H17.727Z"
              fill="#A3A8AF"/>
        <path d="M15.6415 3.59834V1.64928C15.6363 1.48045 15.5656 1.32025 15.4444 1.20265C15.3231 1.08505 15.1608 1.01929 14.9919 1.01929C14.823 1.01929 14.6607 1.08505 14.5395 1.20265C14.4182 1.32025 14.3475 1.48045 14.3423 1.64928V3.59834C14.3397 3.68532 14.3545 3.77195 14.386 3.85309C14.4174 3.93422 14.4648 4.00822 14.5254 4.07069C14.586 4.13315 14.6585 4.18282 14.7386 4.21673C14.8188 4.25065 14.9049 4.26812 14.9919 4.26812C15.0789 4.26812 15.1651 4.25065 15.2452 4.21673C15.3254 4.18282 15.3979 4.13315 15.4585 4.07069C15.519 4.00822 15.5665 3.93422 15.5979 3.85309C15.6293 3.77195 15.6442 3.68532 15.6415 3.59834Z"
              fill="#A3A8AF"/>
        <path d="M20.8388 6.84723H18.8898C18.7209 6.8524 18.5607 6.9231 18.4431 7.04436C18.3255 7.16562 18.2598 7.3279 18.2598 7.49681C18.2598 7.66573 18.3255 7.82801 18.4431 7.94927C18.5607 8.07052 18.7209 8.14123 18.8898 8.1464H20.8388C20.9258 8.14906 21.0124 8.13423 21.0936 8.10278C21.1747 8.07134 21.2487 8.02392 21.3112 7.96333C21.3736 7.90275 21.4233 7.83024 21.4572 7.7501C21.4911 7.66997 21.5086 7.58383 21.5086 7.49681C21.5086 7.40979 21.4911 7.32366 21.4572 7.24352C21.4233 7.16339 21.3736 7.09087 21.3112 7.03029C21.2487 6.96971 21.1747 6.92229 21.0936 6.89084C21.0124 6.8594 20.9258 6.84456 20.8388 6.84723Z"
              fill="#A3A8AF"/>
    </g>
    <defs>
        <clipPath id="clip0_7748_5804">
            <rect width="19.4888" height="22" fill="white" transform="translate(2 1)"/>
        </clipPath>
    </defs>
</svg>
