<svg viewBox="0 0 24 24" fill="none" xmlns="http://www.w3.org/2000/svg">
    <path d="M19.7309 10.913C19.4067 10.913 19.144 11.1758 19.144 11.4999V13.5446C19.144 14.2262 18.5895 14.7807 17.9079 14.7807H8.77343C8.09183 14.7807 7.53734 14.2262 7.53734 13.5446V4.54701C7.53734 3.89408 7.1271 3.30006 6.51656 3.06889L3.79492 2.03819C3.49179 1.92342 3.15301 2.07608 3.0382 2.37916C2.9234 2.68233 3.07609 3.02107 3.37918 3.13588L6.10082 4.16654C6.25796 4.22603 6.36351 4.37893 6.36351 4.54697V16.9426C6.36351 18.1914 7.35972 19.2112 8.59909 19.2507C8.49249 19.4922 8.43288 19.7589 8.43288 20.0394C8.43288 21.1205 9.31241 22 10.3935 22C11.4746 22 12.3541 21.1205 12.3541 20.0394C12.3541 19.7596 12.2948 19.4936 12.1888 19.2526H15.6919C15.5859 19.4936 15.5266 19.7596 15.5266 20.0394C15.5266 21.1205 16.4061 22 17.4872 22C18.5683 22 19.4478 21.1205 19.4478 20.0394C19.4478 18.9583 18.5683 18.0788 17.4872 18.0788C17.4798 18.0788 17.4725 18.0792 17.4651 18.0793C17.4614 18.0792 17.4577 18.0788 17.454 18.0788H8.67355C8.04706 18.0788 7.5373 17.5691 7.5373 16.9425V15.6123C7.89898 15.8293 8.32179 15.9544 8.77339 15.9544H17.9079C19.2367 15.9544 20.3178 14.8733 20.3178 13.5445V11.4998C20.3178 11.1758 20.055 10.913 19.7309 10.913ZM17.4872 19.2526C17.921 19.2526 18.274 19.6056 18.274 20.0394C18.274 20.4732 17.921 20.8262 17.4872 20.8262C17.0533 20.8262 16.7004 20.4732 16.7004 20.0394C16.7004 19.6056 17.0533 19.2526 17.4872 19.2526ZM10.3935 19.2526C10.8274 19.2526 11.1803 19.6056 11.1803 20.0394C11.1803 20.4732 10.8274 20.8262 10.3935 20.8262C9.95972 20.8262 9.60675 20.4732 9.60675 20.0394C9.60675 19.6056 9.95972 19.2526 10.3935 19.2526Z"
          fill="#A3A8AF" stroke="#A3A8AF" stroke-width="0.5"/>
    <path d="M15.655 9.39907C15.4004 9.19856 15.0314 9.24243 14.8308 9.49703L14.2647 10.2158V4.76672C14.2647 4.44258 14.0019 4.17981 13.6778 4.17981C13.3537 4.17981 13.0909 4.44258 13.0909 4.76672V10.1803L12.5715 9.50301C12.3742 9.24582 12.0058 9.19723 11.7486 9.39446C11.4914 9.59172 11.4428 9.96016 11.64 10.2173L13.2053 12.2584C13.3132 12.399 13.4723 12.4763 13.6363 12.4862C13.6366 12.4862 13.6369 12.4862 13.6372 12.4862C13.6486 12.4869 13.66 12.4881 13.6714 12.4881C13.6728 12.4881 13.674 12.488 13.6754 12.488C13.6762 12.488 13.6769 12.4881 13.6777 12.4881C13.6786 12.4881 13.6794 12.488 13.6803 12.488C13.6816 12.488 13.6828 12.4881 13.684 12.4881C13.6945 12.4881 13.7049 12.487 13.7153 12.4864C13.7165 12.4863 13.7176 12.4863 13.7188 12.4862C13.8805 12.4767 14.0374 12.4015 14.1455 12.2643L15.7529 10.2233C15.9535 9.96864 15.9097 9.59961 15.655 9.39907Z"
          fill="#A3A8AF" stroke="#A3A8AF" stroke-width="0.5"/>
</svg>
