<svg viewBox="0 0 24 24" fill="none" xmlns="http://www.w3.org/2000/svg">
    <path d="M20.4583 10.913C20.1201 10.913 19.8459 11.1757 19.8459 11.4999V13.5446C19.8459 14.2262 19.2673 14.7807 18.5561 14.7807H9.02445C8.31322 14.7807 7.73462 14.2262 7.73462 13.5446V4.547C7.73462 3.89407 7.30655 3.30004 6.66945 3.06887L3.82948 2.03817C3.51314 1.92344 3.15962 2.07606 3.03986 2.37918C2.92007 2.68235 3.0794 3.0211 3.39566 3.1359L6.23564 4.16657C6.39962 4.22606 6.50975 4.37895 6.50975 4.547V16.9426C6.50975 18.1914 7.54928 19.2112 8.84254 19.2507C8.7313 19.4922 8.6691 19.7589 8.6691 20.0394C8.6691 21.1205 9.58687 22 10.715 22C11.8431 22 12.7608 21.1205 12.7608 20.0394C12.7608 19.7596 12.699 19.4936 12.5883 19.2526H16.2438C16.1331 19.4936 16.0712 19.7596 16.0712 20.0394C16.0712 21.1205 16.989 22 18.1171 22C19.2452 22 20.163 21.1205 20.163 20.0394C20.163 18.9583 19.2452 18.0788 18.1171 18.0788C18.1094 18.0788 18.1017 18.0792 18.094 18.0793C18.0901 18.0792 18.0863 18.0788 18.0824 18.0788H8.92023C8.2665 18.0788 7.73458 17.5691 7.73458 16.9425V15.6123C8.11198 15.8293 8.55318 15.9544 9.02441 15.9544H18.5561C19.9427 15.9544 21.0708 14.8733 21.0708 13.5445V11.4998C21.0708 11.1757 20.7966 10.913 20.4583 10.913ZM18.1171 19.2526C18.5698 19.2526 18.9381 19.6056 18.9381 20.0394C18.9381 20.4732 18.5698 20.8262 18.1171 20.8262C17.6644 20.8262 17.2961 20.4732 17.2961 20.0394C17.2961 19.6055 17.6643 19.2526 18.1171 19.2526ZM10.715 19.2526C11.1677 19.2526 11.536 19.6056 11.536 20.0394C11.536 20.4732 11.1677 20.8262 10.715 20.8262C10.2623 20.8262 9.894 20.4732 9.894 20.0394C9.894 19.6055 10.2623 19.2526 10.715 19.2526Z"
          fill="#A3A8AF" stroke="#A3A8AF" stroke-width="0.5"/>
    <path d="M16.2624 8.83936C16.1118 8.56573 15.9249 8.35671 15.7023 8.21237C15.4794 8.06803 15.2377 7.93421 14.9773 7.81089C14.7168 7.68768 14.4752 7.5853 14.2524 7.50413C14.0296 7.42292 13.8429 7.31776 13.6923 7.18835C13.5417 7.05909 13.4663 6.90725 13.4663 6.73272C13.4663 6.5162 13.5589 6.34635 13.744 6.22299C13.9291 6.09979 14.1912 6.03803 14.5302 6.03803C14.8376 6.03803 15.117 6.09526 15.368 6.20944C15.619 6.32378 15.7729 6.38085 15.8294 6.38085C15.98 6.38085 16.0992 6.30936 16.1871 6.16631C16.2749 6.02323 16.3189 5.88463 16.3189 5.75069C16.3189 5.60858 16.2545 5.4851 16.1259 5.38006C15.9972 5.27522 15.8308 5.19792 15.6269 5.14846C15.4229 5.09913 15.2299 5.06358 15.0479 5.04186C15.0047 5.03674 14.9621 5.03233 14.92 5.02838V4.06995C14.92 3.74581 14.6458 3.48303 14.3076 3.48303C13.9693 3.48303 13.6951 3.74581 13.6951 4.06995V5.10995C13.4437 5.17424 13.2074 5.27342 12.9862 5.40792C12.7602 5.54522 12.5797 5.73753 12.4448 5.98475C12.3098 6.23198 12.2424 6.51745 12.2424 6.841C12.2424 7.12971 12.2973 7.38682 12.4072 7.61237C12.5169 7.83796 12.6613 8.01835 12.8402 8.1537C13.0191 8.28905 13.2168 8.41085 13.4333 8.51909C13.6499 8.62737 13.8647 8.72522 14.0782 8.81229C14.2915 8.89956 14.4878 8.98975 14.6666 9.08292C14.8455 9.17624 14.9898 9.29354 15.0997 9.43479C15.2094 9.5762 15.2645 9.73706 15.2645 9.91745C15.2645 10.1762 15.164 10.3717 14.9632 10.5039C14.7622 10.6363 14.5113 10.7024 14.2101 10.7024C13.9903 10.7024 13.7895 10.6649 13.6076 10.5899C13.4254 10.5149 13.2858 10.4321 13.1886 10.3415C13.0912 10.251 12.9909 10.1681 12.8873 10.0931C12.7838 10.0181 12.6911 9.98061 12.6096 9.98061C12.4714 9.98061 12.3474 10.0514 12.2378 10.1926C12.1279 10.3341 12.073 10.4739 12.073 10.6122C12.0731 10.889 12.2864 11.1445 12.7133 11.3791C13.0018 11.5377 13.3292 11.6425 13.6952 11.6938V12.5981C13.6952 12.9222 13.9694 13.185 14.3077 13.185C14.6459 13.185 14.9201 12.9222 14.9201 12.5981V11.6659C15.2908 11.5888 15.6082 11.4432 15.8718 11.2283C16.2828 10.8932 16.4885 10.4171 16.4885 9.80022C16.4884 9.43343 16.4131 9.11315 16.2624 8.83936Z"
          fill="#A3A8AF" stroke="#A3A8AF" stroke-width="0.5"/>
</svg>
