<svg viewBox="0 0 24 24" fill="none" xmlns="http://www.w3.org/2000/svg">
    <path d="M20.4583 10.913C20.1201 10.913 19.8459 11.1758 19.8459 11.4999V13.5446C19.8459 14.2262 19.2673 14.7807 18.556 14.7807H9.02445C8.31321 14.7807 7.73461 14.2262 7.73461 13.5446V4.54701C7.73461 3.89408 7.30654 3.30006 6.66945 3.06889L3.82948 2.03819C3.51318 1.92342 3.15962 2.07608 3.03986 2.37916C2.92007 2.68233 3.0794 3.02107 3.39566 3.13588L6.23563 4.16654C6.39961 4.22603 6.50975 4.37893 6.50975 4.54697V16.9426C6.50975 18.1914 7.54927 19.2112 8.84253 19.2507C8.7313 19.4922 8.6691 19.7589 8.6691 20.0394C8.6691 21.1205 9.58687 22 10.715 22C11.8431 22 12.7608 21.1205 12.7608 20.0394C12.7608 19.7596 12.699 19.4936 12.5883 19.2526H16.2437C16.1331 19.4936 16.0712 19.7596 16.0712 20.0394C16.0712 21.1205 16.989 22 18.1171 22C19.2451 22 20.1629 21.1205 20.1629 20.0394C20.1629 18.9583 19.2451 18.0788 18.1171 18.0788C18.1093 18.0788 18.1017 18.0792 18.0939 18.0793C18.0901 18.0792 18.0863 18.0788 18.0824 18.0788H8.92022C8.2665 18.0788 7.73457 17.5691 7.73457 16.9425V15.6123C8.11198 15.8293 8.55317 15.9544 9.02441 15.9544H18.556C19.9426 15.9544 21.0707 14.8733 21.0707 13.5445V11.4998C21.0707 11.1758 20.7965 10.913 20.4583 10.913ZM18.1171 19.2526C18.5698 19.2526 18.9381 19.6056 18.9381 20.0394C18.9381 20.4732 18.5697 20.8262 18.1171 20.8262C17.6644 20.8262 17.2961 20.4732 17.2961 20.0394C17.2961 19.6056 17.6644 19.2526 18.1171 19.2526ZM10.715 19.2526C11.1677 19.2526 11.536 19.6056 11.536 20.0394C11.536 20.4732 11.1677 20.8262 10.715 20.8262C10.2623 20.8262 9.894 20.4732 9.894 20.0394C9.894 19.6056 10.2623 19.2526 10.715 19.2526Z"
          fill="#A3A8AF" stroke="#A3A8AF" stroke-width="0.5"/>
    <path d="M14.7548 8.334L16.6121 6.55404C16.8513 6.32482 16.8513 5.95326 16.6121 5.72404C16.373 5.49482 15.9852 5.49482 15.746 5.72404L13.8887 7.504L12.0313 5.72404C11.7922 5.49482 11.4044 5.49482 11.1652 5.72404C10.926 5.95326 10.926 6.32482 11.1652 6.55404L13.0226 8.334L11.1652 10.114C10.9261 10.3432 10.9261 10.7147 11.1653 10.944C11.2849 11.0586 11.4416 11.1159 11.5984 11.1159C11.755 11.1159 11.9118 11.0586 12.0314 10.944L13.8887 9.164L15.7461 10.944C15.8656 11.0586 16.0224 11.1159 16.1791 11.1159C16.3358 11.1159 16.4926 11.0586 16.6121 10.944C16.8513 10.7147 16.8513 10.3432 16.6121 10.114L14.7548 8.334Z"
          fill="#A3A8AF" stroke="#A3A8AF" stroke-width="0.5"/>
</svg>
