<svg viewBox="0 0 24 24" fill="none" xmlns="http://www.w3.org/2000/svg">
    <mask id="path-1-outside-1_1_1625" maskUnits="userSpaceOnUse" x="4" y="1" width="16" height="22" fill="black">
        <rect fill="white" x="4" y="1" width="16" height="22"/>
        <path fill-rule="evenodd" clip-rule="evenodd"
              d="M17.9157 2H8.52245C7.55131 2 6.76123 2.78855 6.76123 3.75781V6.76562H6.36984C5.61451 6.76562 5 7.37895 5 8.13281V20.6328C5 21.3867 5.61451 22 6.36984 22H17.72C18.4753 22 19.0898 21.3867 19.0898 20.6328V8.13281C19.0898 7.37895 18.4753 6.76562 17.72 6.76562H17.3286V5.51562H19.0898C19.414 5.51562 19.6769 5.25328 19.6769 4.92969V3.75781C19.6769 2.78855 18.8868 2 17.9157 2ZM7.93538 3.75781C7.93538 3.43473 8.19874 3.17188 8.52245 3.17188H16.255C16.1899 3.3552 16.1544 3.55246 16.1544 3.75781V6.76562H7.93538V3.75781ZM17.72 7.9375C17.8279 7.9375 17.9157 8.02512 17.9157 8.13281V20.6328C17.9157 20.7405 17.8279 20.8281 17.72 20.8281H6.36984C6.26194 20.8281 6.17415 20.7405 6.17415 20.6328V8.13281C6.17415 8.02512 6.26194 7.9375 6.36984 7.9375H17.72ZM18.5027 4.34375H17.3286V3.75781C17.3286 3.43473 17.5919 3.17188 17.9157 3.17188C18.2394 3.17188 18.5027 3.43473 18.5027 3.75781V4.34375ZM15.5 13H8.5C8.22387 13 8 12.7761 8 12.5V10.5C8 10.2239 8.22387 10 8.5 10H15.5C15.7761 10 16 10.2239 16 10.5V12.5C16 12.7761 15.7761 13 15.5 13ZM15 11H9V12H15V11ZM7.93534 16.1742H9.10949C9.43371 16.1742 9.69657 15.9113 9.69657 15.5871C9.69657 15.2629 9.43371 15 9.10949 15H7.93534C7.61112 15 7.34827 15.2629 7.34827 15.5871C7.34827 15.9113 7.61112 16.1742 7.93534 16.1742ZM7.93534 18.6585H9.10949C9.43371 18.6585 9.69657 18.3957 9.69657 18.0714C9.69657 17.7472 9.43371 17.4844 9.10949 17.4844H7.93534C7.61112 17.4844 7.34827 17.7472 7.34827 18.0714C7.34827 18.3957 7.61112 18.6585 7.93534 18.6585ZM16.1544 17.4844H14.9803C14.656 17.4844 14.3932 17.7472 14.3932 18.0714C14.3932 18.3957 14.656 18.6585 14.9803 18.6585H16.1544C16.4786 18.6585 16.7415 18.3957 16.7415 18.0714C16.7415 17.7472 16.4786 17.4844 16.1544 17.4844ZM11.4578 17.4844H12.632C12.9562 17.4844 13.219 17.7472 13.219 18.0714C13.219 18.3957 12.9562 18.6585 12.632 18.6585H11.4578C11.1336 18.6585 10.8707 18.3957 10.8707 18.0714C10.8707 17.7472 11.1336 17.4844 11.4578 17.4844ZM14.9803 15H16.1544C16.4786 15 16.7415 15.2629 16.7415 15.5871C16.7415 15.9113 16.4786 16.1742 16.1544 16.1742H14.9803C14.656 16.1742 14.3932 15.9113 14.3932 15.5871C14.3932 15.2629 14.656 15 14.9803 15ZM12.632 15H11.4578C11.1336 15 10.8707 15.2629 10.8707 15.5871C10.8707 15.9113 11.1336 16.1742 11.4578 16.1742H12.632C12.9562 16.1742 13.219 15.9113 13.219 15.5871C13.219 15.2629 12.9562 15 12.632 15ZM9.69657 4.38281H14.3932C14.7174 4.38281 14.9802 4.64567 14.9802 4.96989C14.9802 5.29411 14.7174 5.55696 14.3932 5.55696H9.69657C9.37235 5.55696 9.1095 5.29411 9.1095 4.96989C9.1095 4.64567 9.37235 4.38281 9.69657 4.38281Z"/>
    </mask>
    <path fill-rule="evenodd" clip-rule="evenodd"
          d="M17.9157 2H8.52245C7.55131 2 6.76123 2.78855 6.76123 3.75781V6.76562H6.36984C5.61451 6.76562 5 7.37895 5 8.13281V20.6328C5 21.3867 5.61451 22 6.36984 22H17.72C18.4753 22 19.0898 21.3867 19.0898 20.6328V8.13281C19.0898 7.37895 18.4753 6.76562 17.72 6.76562H17.3286V5.51562H19.0898C19.414 5.51562 19.6769 5.25328 19.6769 4.92969V3.75781C19.6769 2.78855 18.8868 2 17.9157 2ZM7.93538 3.75781C7.93538 3.43473 8.19874 3.17188 8.52245 3.17188H16.255C16.1899 3.3552 16.1544 3.55246 16.1544 3.75781V6.76562H7.93538V3.75781ZM17.72 7.9375C17.8279 7.9375 17.9157 8.02512 17.9157 8.13281V20.6328C17.9157 20.7405 17.8279 20.8281 17.72 20.8281H6.36984C6.26194 20.8281 6.17415 20.7405 6.17415 20.6328V8.13281C6.17415 8.02512 6.26194 7.9375 6.36984 7.9375H17.72ZM18.5027 4.34375H17.3286V3.75781C17.3286 3.43473 17.5919 3.17188 17.9157 3.17188C18.2394 3.17188 18.5027 3.43473 18.5027 3.75781V4.34375ZM15.5 13H8.5C8.22387 13 8 12.7761 8 12.5V10.5C8 10.2239 8.22387 10 8.5 10H15.5C15.7761 10 16 10.2239 16 10.5V12.5C16 12.7761 15.7761 13 15.5 13ZM15 11H9V12H15V11ZM7.93534 16.1742H9.10949C9.43371 16.1742 9.69657 15.9113 9.69657 15.5871C9.69657 15.2629 9.43371 15 9.10949 15H7.93534C7.61112 15 7.34827 15.2629 7.34827 15.5871C7.34827 15.9113 7.61112 16.1742 7.93534 16.1742ZM7.93534 18.6585H9.10949C9.43371 18.6585 9.69657 18.3957 9.69657 18.0714C9.69657 17.7472 9.43371 17.4844 9.10949 17.4844H7.93534C7.61112 17.4844 7.34827 17.7472 7.34827 18.0714C7.34827 18.3957 7.61112 18.6585 7.93534 18.6585ZM16.1544 17.4844H14.9803C14.656 17.4844 14.3932 17.7472 14.3932 18.0714C14.3932 18.3957 14.656 18.6585 14.9803 18.6585H16.1544C16.4786 18.6585 16.7415 18.3957 16.7415 18.0714C16.7415 17.7472 16.4786 17.4844 16.1544 17.4844ZM11.4578 17.4844H12.632C12.9562 17.4844 13.219 17.7472 13.219 18.0714C13.219 18.3957 12.9562 18.6585 12.632 18.6585H11.4578C11.1336 18.6585 10.8707 18.3957 10.8707 18.0714C10.8707 17.7472 11.1336 17.4844 11.4578 17.4844ZM14.9803 15H16.1544C16.4786 15 16.7415 15.2629 16.7415 15.5871C16.7415 15.9113 16.4786 16.1742 16.1544 16.1742H14.9803C14.656 16.1742 14.3932 15.9113 14.3932 15.5871C14.3932 15.2629 14.656 15 14.9803 15ZM12.632 15H11.4578C11.1336 15 10.8707 15.2629 10.8707 15.5871C10.8707 15.9113 11.1336 16.1742 11.4578 16.1742H12.632C12.9562 16.1742 13.219 15.9113 13.219 15.5871C13.219 15.2629 12.9562 15 12.632 15ZM9.69657 4.38281H14.3932C14.7174 4.38281 14.9802 4.64567 14.9802 4.96989C14.9802 5.29411 14.7174 5.55696 14.3932 5.55696H9.69657C9.37235 5.55696 9.1095 5.29411 9.1095 4.96989C9.1095 4.64567 9.37235 4.38281 9.69657 4.38281Z"
          fill="#A3A8AF"/>
    <path d="M6.76123 6.76562V7.06563H7.06123V6.76562H6.76123ZM17.3286 6.76562H17.0286V7.06563H17.3286V6.76562ZM17.3286 5.51562V5.21563H17.0286V5.51562H17.3286ZM16.255 3.17188L16.5377 3.2723L16.68 2.87187H16.255V3.17188ZM16.1544 6.76562V7.06563H16.4544V6.76562H16.1544ZM7.93538 6.76562H7.63538V7.06563H7.93538V6.76562ZM17.3286 4.34375H17.0286V4.64375H17.3286V4.34375ZM18.5027 4.34375V4.64375H18.8027V4.34375H18.5027ZM9 11V10.7H8.7V11H9ZM15 11H15.3V10.7H15V11ZM9 12H8.7V12.3H9V12ZM15 12V12.3H15.3V12H15ZM8.52245 2.3H17.9157V1.7H8.52245V2.3ZM7.06123 3.75781C7.06123 2.95479 7.71645 2.3 8.52245 2.3V1.7C7.38617 1.7 6.46123 2.62232 6.46123 3.75781H7.06123ZM7.06123 6.76562V3.75781H6.46123V6.76562H7.06123ZM6.36984 7.06563H6.76123V6.46562H6.36984V7.06563ZM5.3 8.13281C5.3 7.54518 5.77965 7.06563 6.36984 7.06563V6.46562C5.44937 6.46562 4.7 7.21271 4.7 8.13281H5.3ZM5.3 20.6328V8.13281H4.7V20.6328H5.3ZM6.36984 21.7C5.77965 21.7 5.3 21.2204 5.3 20.6328H4.7C4.7 21.5529 5.44937 22.3 6.36984 22.3V21.7ZM17.72 21.7H6.36984V22.3H17.72V21.7ZM18.7898 20.6328C18.7898 21.2204 18.3102 21.7 17.72 21.7V22.3C18.6404 22.3 19.3898 21.5529 19.3898 20.6328H18.7898ZM18.7898 8.13281V20.6328H19.3898V8.13281H18.7898ZM17.72 7.06563C18.3102 7.06563 18.7898 7.54518 18.7898 8.13281H19.3898C19.3898 7.21271 18.6404 6.46562 17.72 6.46562V7.06563ZM17.3286 7.06563H17.72V6.46562H17.3286V7.06563ZM17.0286 5.51562V6.76562H17.6286V5.51562H17.0286ZM19.0898 5.21563H17.3286V5.81562H19.0898V5.21563ZM19.3769 4.92969C19.3769 5.08705 19.2489 5.21563 19.0898 5.21563V5.81562C19.5792 5.81562 19.9769 5.41952 19.9769 4.92969H19.3769ZM19.3769 3.75781V4.92969H19.9769V3.75781H19.3769ZM17.9157 2.3C18.7217 2.3 19.3769 2.95479 19.3769 3.75781H19.9769C19.9769 2.62232 19.0519 1.7 17.9157 1.7V2.3ZM8.52245 2.87187C8.0336 2.87187 7.63538 3.26849 7.63538 3.75781H8.23538C8.23538 3.60096 8.36387 3.47187 8.52245 3.47187V2.87187ZM16.255 2.87187H8.52245V3.47187H16.255V2.87187ZM16.4544 3.75781C16.4544 3.58721 16.4839 3.42388 16.5377 3.2723L15.9723 3.07145C15.8959 3.28651 15.8544 3.51771 15.8544 3.75781H16.4544ZM16.4544 6.76562V3.75781H15.8544V6.76562H16.4544ZM7.93538 7.06563H16.1544V6.46562H7.93538V7.06563ZM7.63538 3.75781V6.76562H8.23538V3.75781H7.63538ZM18.2157 8.13281C18.2157 7.85888 17.993 7.6375 17.72 7.6375V8.2375C17.6627 8.2375 17.6157 8.19135 17.6157 8.13281H18.2157ZM18.2157 20.6328V8.13281H17.6157V20.6328H18.2157ZM17.72 21.1281C17.993 21.1281 18.2157 20.9067 18.2157 20.6328H17.6157C17.6157 20.5743 17.6627 20.5281 17.72 20.5281V21.1281ZM6.36984 21.1281H17.72V20.5281H6.36984V21.1281ZM5.87415 20.6328C5.87415 20.9067 6.0968 21.1281 6.36984 21.1281V20.5281C6.42707 20.5281 6.47415 20.5743 6.47415 20.6328H5.87415ZM5.87415 8.13281V20.6328H6.47415V8.13281H5.87415ZM6.36984 7.6375C6.0968 7.6375 5.87415 7.85888 5.87415 8.13281H6.47415C6.47415 8.19135 6.42707 8.2375 6.36984 8.2375V7.6375ZM17.72 7.6375H6.36984V8.2375H17.72V7.6375ZM17.3286 4.64375H18.5027V4.04375H17.3286V4.64375ZM17.0286 3.75781V4.34375H17.6286V3.75781H17.0286ZM17.9157 2.87187C17.4268 2.87187 17.0286 3.26849 17.0286 3.75781H17.6286C17.6286 3.60096 17.7571 3.47187 17.9157 3.47187V2.87187ZM18.8027 3.75781C18.8027 3.26849 18.4045 2.87187 17.9157 2.87187V3.47187C18.0742 3.47187 18.2027 3.60096 18.2027 3.75781H18.8027ZM18.8027 4.34375V3.75781H18.2027V4.34375H18.8027ZM8.5 13.3H15.5V12.7H8.5V13.3ZM7.7 12.5C7.7 12.9418 8.05818 13.3 8.5 13.3V12.7C8.38955 12.7 8.3 12.6104 8.3 12.5H7.7ZM7.7 10.5V12.5H8.3V10.5H7.7ZM8.5 9.7C8.05818 9.7 7.7 10.0582 7.7 10.5H8.3C8.3 10.3896 8.38955 10.3 8.5 10.3V9.7ZM15.5 9.7H8.5V10.3H15.5V9.7ZM16.3 10.5C16.3 10.0582 15.9418 9.7 15.5 9.7V10.3C15.6104 10.3 15.7 10.3896 15.7 10.5H16.3ZM16.3 12.5V10.5H15.7V12.5H16.3ZM15.5 13.3C15.9418 13.3 16.3 12.9418 16.3 12.5H15.7C15.7 12.6104 15.6104 12.7 15.5 12.7V13.3ZM9 11.3H15V10.7H9V11.3ZM9.3 12V11H8.7V12H9.3ZM15 11.7H9V12.3H15V11.7ZM14.7 11V12H15.3V11H14.7ZM9.10949 15.8742H7.93534V16.4742H9.10949V15.8742ZM9.39657 15.5871C9.39657 15.7456 9.26803 15.8742 9.10949 15.8742V16.4742C9.5994 16.4742 9.99657 16.077 9.99657 15.5871H9.39657ZM9.10949 15.3C9.26803 15.3 9.39657 15.4285 9.39657 15.5871H9.99657C9.99657 15.0972 9.5994 14.7 9.10949 14.7V15.3ZM7.93534 15.3H9.10949V14.7H7.93534V15.3ZM7.64827 15.5871C7.64827 15.4285 7.7768 15.3 7.93534 15.3V14.7C7.44543 14.7 7.04827 15.0972 7.04827 15.5871H7.64827ZM7.93534 15.8742C7.77681 15.8742 7.64827 15.7456 7.64827 15.5871H7.04827C7.04827 16.077 7.44543 16.4742 7.93534 16.4742V15.8742ZM9.10949 18.3585H7.93534V18.9585H9.10949V18.3585ZM9.39657 18.0714C9.39657 18.23 9.26803 18.3585 9.10949 18.3585V18.9585C9.5994 18.9585 9.99657 18.5614 9.99657 18.0714H9.39657ZM9.10949 17.7844C9.26803 17.7844 9.39657 17.9129 9.39657 18.0714H9.99657C9.99657 17.5815 9.5994 17.1844 9.10949 17.1844V17.7844ZM7.93534 17.7844H9.10949V17.1844H7.93534V17.7844ZM7.64827 18.0714C7.64827 17.9129 7.7768 17.7844 7.93534 17.7844V17.1844C7.44543 17.1844 7.04827 17.5815 7.04827 18.0714H7.64827ZM7.93534 18.3585C7.77681 18.3585 7.64827 18.23 7.64827 18.0714H7.04827C7.04827 18.5614 7.44543 18.9585 7.93534 18.9585V18.3585ZM14.9803 17.7844H16.1544V17.1844H14.9803V17.7844ZM14.6932 18.0714C14.6932 17.9129 14.8217 17.7844 14.9803 17.7844V17.1844C14.4904 17.1844 14.0932 17.5815 14.0932 18.0714H14.6932ZM14.9803 18.3585C14.8217 18.3585 14.6932 18.23 14.6932 18.0714H14.0932C14.0932 18.5614 14.4904 18.9585 14.9803 18.9585V18.3585ZM16.1544 18.3585H14.9803V18.9585H16.1544V18.3585ZM16.4415 18.0714C16.4415 18.23 16.313 18.3585 16.1544 18.3585V18.9585C16.6443 18.9585 17.0415 18.5614 17.0415 18.0714H16.4415ZM16.1544 17.7844C16.313 17.7844 16.4415 17.9129 16.4415 18.0714H17.0415C17.0415 17.5815 16.6443 17.1844 16.1544 17.1844V17.7844ZM12.632 17.1844H11.4578V17.7844H12.632V17.1844ZM13.519 18.0714C13.519 17.5815 13.1219 17.1844 12.632 17.1844V17.7844C12.7905 17.7844 12.919 17.9129 12.919 18.0714H13.519ZM12.632 18.9585C13.1219 18.9585 13.519 18.5614 13.519 18.0714H12.919C12.919 18.23 12.7905 18.3585 12.632 18.3585V18.9585ZM11.4578 18.9585H12.632V18.3585H11.4578V18.9585ZM10.5707 18.0714C10.5707 18.5614 10.9679 18.9585 11.4578 18.9585V18.3585C11.2993 18.3585 11.1707 18.23 11.1707 18.0714H10.5707ZM11.4578 17.1844C10.9679 17.1844 10.5707 17.5815 10.5707 18.0714H11.1707C11.1707 17.9129 11.2993 17.7844 11.4578 17.7844V17.1844ZM16.1544 14.7H14.9803V15.3H16.1544V14.7ZM17.0415 15.5871C17.0415 15.0972 16.6443 14.7 16.1544 14.7V15.3C16.313 15.3 16.4415 15.4285 16.4415 15.5871H17.0415ZM16.1544 16.4742C16.6443 16.4742 17.0415 16.077 17.0415 15.5871H16.4415C16.4415 15.7456 16.313 15.8742 16.1544 15.8742V16.4742ZM14.9803 16.4742H16.1544V15.8742H14.9803V16.4742ZM14.0932 15.5871C14.0932 16.077 14.4904 16.4742 14.9803 16.4742V15.8742C14.8217 15.8742 14.6932 15.7456 14.6932 15.5871H14.0932ZM14.9803 14.7C14.4904 14.7 14.0932 15.0972 14.0932 15.5871H14.6932C14.6932 15.4285 14.8217 15.3 14.9803 15.3V14.7ZM11.4578 15.3H12.632V14.7H11.4578V15.3ZM11.1707 15.5871C11.1707 15.4285 11.2993 15.3 11.4578 15.3V14.7C10.9679 14.7 10.5707 15.0972 10.5707 15.5871H11.1707ZM11.4578 15.8742C11.2993 15.8742 11.1707 15.7456 11.1707 15.5871H10.5707C10.5707 16.077 10.9679 16.4742 11.4578 16.4742V15.8742ZM12.632 15.8742H11.4578V16.4742H12.632V15.8742ZM12.919 15.5871C12.919 15.7456 12.7905 15.8742 12.632 15.8742V16.4742C13.1219 16.4742 13.519 16.077 13.519 15.5871H12.919ZM12.632 15.3C12.7905 15.3 12.919 15.4285 12.919 15.5871H13.519C13.519 15.0972 13.1219 14.7 12.632 14.7V15.3ZM14.3932 4.08281H9.69657V4.68281H14.3932V4.08281ZM15.2802 4.96989C15.2802 4.47998 14.8831 4.08281 14.3932 4.08281V4.68281C14.5517 4.68281 14.6802 4.81135 14.6802 4.96989H15.2802ZM14.3932 5.85696C14.8831 5.85696 15.2802 5.4598 15.2802 4.96989H14.6802C14.6802 5.12842 14.5517 5.25696 14.3932 5.25696V5.85696ZM9.69657 5.85696H14.3932V5.25696H9.69657V5.85696ZM8.8095 4.96989C8.8095 5.4598 9.20667 5.85696 9.69657 5.85696V5.25696C9.53804 5.25696 9.4095 5.12842 9.4095 4.96989H8.8095ZM9.69657 4.08281C9.20666 4.08281 8.8095 4.47998 8.8095 4.96989H9.4095C9.4095 4.81135 9.53804 4.68281 9.69657 4.68281V4.08281Z"
          fill="#A3A8AF" mask="url(#path-1-outside-1_1_1625)"/>
</svg>
