<svg viewBox="0 0 24 24" fill="none" xmlns="http://www.w3.org/2000/svg">
    <path fill-rule="evenodd" clip-rule="evenodd"
          d="M7.64354 2.65826C7.78725 2.26307 8.16283 2 8.58333 2H15.4167C15.8372 2 16.2128 2.26307 16.3565 2.65826C17.3925 5.50743 18 9.03958 18 11.3333C18 13.5922 17.3876 15.3309 16.2502 16.5075C15.3545 17.4341 14.213 17.9295 13 18.0988V20.3333H14.5C15.0523 20.3333 15.5 20.781 15.5 21.3333C15.5 21.8856 15.0523 22.3333 14.5 22.3333H12.002L12 22.3333L11.998 22.3333H9.5C8.94772 22.3333 8.5 21.8856 8.5 21.3333C8.5 20.781 8.94772 20.3333 9.5 20.3333H11V18.0988C9.78705 17.9295 8.64549 17.4341 7.74976 16.5075C6.61239 15.3309 6 13.5922 6 11.3333C6 9.03958 6.60748 5.50743 7.64354 2.65826ZM14.8123 15.1175C14.1386 15.8143 13.1749 16.1667 12 16.1667C10.8251 16.1667 9.86138 15.8143 9.18774 15.1175C8.51261 14.4191 8 13.2411 8 11.3333C8 10.2575 8.15559 8.83062 8.4441 7.33333H15.5559C15.8444 8.83062 16 10.2575 16 11.3333C16 13.2411 15.4874 14.4191 14.8123 15.1175ZM15.098 5.33333H8.90196C9.02249 4.88154 9.1541 4.43456 9.29618 4H14.7038C14.8459 4.43456 14.9775 4.88154 15.098 5.33333ZM13.25 10.6667C13.5722 10.6667 13.8333 10.4055 13.8333 10.0833C13.8333 9.76117 13.5722 9.5 13.25 9.5C12.9278 9.5 12.6667 9.76117 12.6667 10.0833C12.6667 10.4055 12.9278 10.6667 13.25 10.6667ZM11.8333 10.0833C11.8333 9.30093 12.4676 8.66667 13.25 8.66667C14.0324 8.66667 14.6667 9.30093 14.6667 10.0833C14.6667 10.8657 14.0324 11.5 13.25 11.5C12.4676 11.5 11.8333 10.8657 11.8333 10.0833ZM11.3333 12.5833C11.3333 12.9055 11.0722 13.1667 10.75 13.1667C10.4278 13.1667 10.1667 12.9055 10.1667 12.5833C10.1667 12.2612 10.4278 12 10.75 12C11.0722 12 11.3333 12.2612 11.3333 12.5833ZM10.75 11.1667C9.9676 11.1667 9.33333 11.8009 9.33333 12.5833C9.33333 13.3657 9.9676 14 10.75 14C11.5324 14 12.1667 13.3657 12.1667 12.5833C12.1667 11.8009 11.5324 11.1667 10.75 11.1667Z"
          fill="#A3A8AF"/>
</svg>
