<svg viewBox="0 0 24 24" fill="none" xmlns="http://www.w3.org/2000/svg">
    <path d="M5.77778 5H18.2222C18.4285 5 18.6263 5.08194 18.7722 5.22781C18.9181 5.37367 19 5.5715 19 5.77778V18.2222C19 18.4285 18.9181 18.6263 18.7722 18.7722C18.6263 18.9181 18.4285 19 18.2222 19H5.77778C5.5715 19 5.37367 18.9181 5.22781 18.7722C5.08194 18.6263 5 18.4285 5 18.2222V5.77778C5 5.5715 5.08194 5.37367 5.22781 5.22781C5.37367 5.08194 5.5715 5 5.77778 5ZM8.11111 11.2222V12.7778H15.8889V11.2222H8.11111Z"
          fill="#A3A8AF"/>
</svg>
