<svg viewBox="0 0 24 24" fill="none" xmlns="http://www.w3.org/2000/svg">
    <path d="M16.0904 11.2831C17.1596 11.2831 18.156 11.5504 19.0389 12.0284V5.27259C19.0389 4.61645 18.7392 4.04132 18.2694 3.65249V3.63629H18.237C17.8725 3.34468 17.4188 3.15837 16.9166 3.15837H14.0328C13.806 2.47793 13.158 2 12.4289 2H9.52898C8.79183 2 8.1519 2.46983 7.92508 3.15837H5.12232C3.94775 3.15837 3 4.10612 3 5.27259V19.7238C3 20.8903 3.94775 21.8461 5.12232 21.8461H11.708C10.5901 20.7283 9.9016 19.1811 9.9016 17.4719C9.9016 14.0535 12.672 11.2831 16.0904 11.2831Z"
          fill="#A3A8AF"/>
    <path d="M16.0247 7.646H11.0592C10.7756 7.646 10.5488 7.89711 10.5488 8.21303C10.5488 8.52895 10.7756 8.78006 11.0592 8.78006H16.0247C16.3083 8.78006 16.5351 8.52895 16.5351 8.21303C16.5351 7.89711 16.3083 7.646 16.0247 7.646Z"
          fill="white" stroke="white" stroke-width="0.5"/>
    <path d="M9.54425 3.53906C9.46324 3.53906 9.39844 3.60387 9.39844 3.69297V4.38961C9.39844 4.47062 9.46324 4.54352 9.54425 4.54352H12.4442C12.5252 4.54352 12.59 4.47872 12.59 4.38961V3.69297C12.59 3.61197 12.5252 3.53906 12.4442 3.53906H9.54425Z"
          fill="white"/>
    <path d="M8.71915 7.24095C8.56524 7.09514 8.32223 7.09514 8.17642 7.24095L6.45102 8.89344L5.79488 8.26161C5.64097 8.1158 5.39796 8.1158 5.25215 8.26161C5.09824 8.40742 5.09824 8.64233 5.25215 8.78004L6.1837 9.67109C6.25661 9.74399 6.35381 9.77639 6.45912 9.77639C6.55633 9.77639 6.65353 9.74399 6.73454 9.67109L8.72725 7.75938C8.86496 7.62167 8.86496 7.38676 8.71915 7.24095Z"
          fill="white" stroke="white" stroke-width="0.5"/>
    <path d="M8.71915 11.996C8.56524 11.8501 8.32223 11.8501 8.17642 11.996L6.45912 13.6403L5.79488 13.0085C5.64097 12.8627 5.39796 12.8627 5.25215 13.0085C5.09824 13.1543 5.09824 13.3892 5.25215 13.5269L6.1837 14.418C6.25661 14.4909 6.35381 14.5233 6.45912 14.5233C6.55633 14.5233 6.65353 14.4909 6.73454 14.418L8.72725 12.5063C8.86496 12.3767 8.86496 12.1418 8.71915 11.996Z"
          fill="white" stroke="white" stroke-width="0.5"/>
    <path d="M16.1714 12.7979C13.6278 12.7979 11.5703 14.8554 11.5703 17.3989C11.5703 19.9425 13.6278 22 16.1714 22C18.7149 22 20.7724 19.9425 20.7724 17.3989C20.7724 14.8554 18.7068 12.7979 16.1714 12.7979ZM18.4476 19.0757H15.977C15.5395 19.0757 15.1912 18.7112 15.1912 18.2576V15.5196C15.1912 15.066 15.5476 14.7015 15.977 14.7015C16.4063 14.7015 16.7627 15.066 16.7627 15.5196V17.4313H18.4476C18.885 17.4313 19.2334 17.7958 19.2334 18.2495C19.2334 18.7031 18.8769 19.0757 18.4476 19.0757Z"
          fill="#A3A8AF"/>
</svg>
