<svg width="24" height="24" viewBox="0 0 24 24" fill="none" xmlns="http://www.w3.org/2000/svg">
<path d="M20.2008 3.4125C19.7508 3.075 19.1883 2.85 18.6258 2.85H15.3633C15.1383 2.0625 14.3508 1.5 13.5633 1.5H10.3008C9.51328 1.5 8.72578 2.0625 8.50078 2.85H5.35078C4.00078 2.85 2.98828 3.975 2.98828 5.2125V21.6375C2.98828 22.9875 4.11328 24 5.35078 24H18.6258C19.9758 24 20.9883 22.875 20.9883 21.6375V5.2125C21.1008 4.425 20.7633 3.8625 20.2008 3.4125ZM9.51328 19.275L7.26328 21.4125C7.15078 21.525 6.92578 21.6375 6.70078 21.6375C6.47578 21.6375 6.36328 21.525 6.13828 21.4125L5.12578 20.4C5.01328 20.2875 4.90078 20.0625 4.90078 19.95C4.90078 19.725 5.01328 19.6125 5.12578 19.3875C5.35078 19.1625 5.80078 19.1625 6.13828 19.3875L6.70078 19.95L8.50078 18.2625C8.72578 18.0375 9.17578 18.0375 9.51328 18.2625C9.62578 18.375 9.62578 18.6 9.62578 18.825C9.62578 18.9375 9.62578 19.1625 9.51328 19.275ZM9.51328 13.7625L7.26328 15.9C7.03828 16.125 6.92578 16.125 6.70078 16.125C6.47578 16.125 6.36328 16.0125 6.13828 15.9L5.12578 15C5.01328 14.8875 4.90078 14.6625 4.90078 14.55C4.90078 14.325 5.01328 14.2125 5.12578 13.9875C5.35078 13.7625 5.80078 13.7625 6.13828 13.9875L6.70078 14.55L8.50078 12.8625C8.72578 12.6375 9.17578 12.6375 9.51328 12.8625C9.62578 12.975 9.73828 13.2 9.73828 13.425C9.62578 13.5375 9.62578 13.65 9.51328 13.7625ZM9.51328 8.25L7.26328 10.3875C7.15078 10.5 6.92578 10.6125 6.70078 10.6125C6.47578 10.6125 6.36328 10.5 6.13828 10.3875L5.12578 9.375C5.01328 9.2625 4.90078 9.0375 4.90078 8.925C4.90078 8.7 5.01328 8.5875 5.12578 8.3625C5.35078 8.1375 5.80078 8.1375 6.13828 8.3625L6.70078 8.925L8.50078 7.2375C8.72578 7.0125 9.17578 7.0125 9.51328 7.2375C9.73828 7.4625 9.73828 7.9125 9.51328 8.25ZM10.0758 4.2V3.4125C10.0758 3.3 10.1883 3.1875 10.1883 3.1875H13.4508C13.5633 3.1875 13.5633 3.3 13.5633 3.4125V4.2C13.5633 4.3125 13.4508 4.425 13.4508 4.425H10.1883C10.1883 4.425 10.0758 4.3125 10.0758 4.2ZM17.7258 20.5125H12.4383C11.9883 20.5125 11.6508 20.0625 11.6508 19.6125C11.6508 19.1625 11.9883 18.7125 12.4383 18.7125H17.7258C18.1758 18.7125 18.5133 19.1625 18.5133 19.6125C18.5133 20.0625 18.1758 20.5125 17.7258 20.5125ZM17.7258 15.1125H12.4383C11.9883 15.1125 11.6508 14.6625 11.6508 14.2125C11.6508 13.7625 11.9883 13.3125 12.4383 13.3125H17.7258C18.1758 13.3125 18.5133 13.7625 18.5133 14.2125C18.5133 14.6625 18.1758 15.1125 17.7258 15.1125ZM17.7258 10.3875H12.4383C11.9883 10.3875 11.6508 9.9375 11.6508 9.4875C11.6508 8.925 11.9883 8.5875 12.4383 8.5875H17.7258C18.1758 8.5875 18.5133 9.0375 18.5133 9.4875C18.5133 9.9375 18.1758 10.3875 17.7258 10.3875Z" fill="#A3A8AF"/>
</svg>
