<svg viewBox="0 0 24 24" fill="none" xmlns="http://www.w3.org/2000/svg">
    <path d="M19.3005 3.7C18.9005 3.4 18.4005 3.2 17.9005 3.2H15.0005C14.8005 2.5 14.1005 2 13.4005 2H10.5005C9.80049 2 9.10049 2.5 8.90049 3.2H6.10049C4.90049 3.2 4.00049 4.2 4.00049 5.3V19.9C4.00049 21.1 5.00049 22 6.10049 22H17.9005C19.1005 22 20.0005 21 20.0005 19.9V5.3C20.1005 4.6 19.8005 4.1 19.3005 3.7ZM9.80049 17.8L7.80049 19.7C7.70049 19.8 7.50049 19.9 7.30049 19.9C7.10049 19.9 7.00049 19.8 6.80049 19.7L5.90049 18.8C5.80049 18.7 5.70049 18.5 5.70049 18.4C5.70049 18.2 5.80049 18.1 5.90049 17.9C6.10049 17.7 6.50049 17.7 6.80049 17.9L7.30049 18.4L8.90049 16.9C9.10049 16.7 9.50049 16.7 9.80049 16.9C9.90049 17 9.90049 17.2 9.90049 17.4C9.90049 17.5 9.90049 17.7 9.80049 17.8ZM9.80049 12.9L7.80049 14.8C7.60049 15 7.50049 15 7.30049 15C7.10049 15 7.00049 14.9 6.80049 14.8L5.90049 14C5.80049 13.9 5.70049 13.7 5.70049 13.6C5.70049 13.4 5.80049 13.3 5.90049 13.1C6.10049 12.9 6.50049 12.9 6.80049 13.1L7.30049 13.6L8.90049 12.1C9.10049 11.9 9.50049 11.9 9.80049 12.1C9.90049 12.2 10.0005 12.4 10.0005 12.6C9.90049 12.7 9.90049 12.8 9.80049 12.9ZM9.80049 8L7.80049 9.9C7.70049 10 7.50049 10.1 7.30049 10.1C7.10049 10.1 7.00049 10 6.80049 9.9L5.90049 9C5.80049 8.9 5.70049 8.7 5.70049 8.6C5.70049 8.4 5.80049 8.3 5.90049 8.1C6.10049 7.9 6.50049 7.9 6.80049 8.1L7.30049 8.6L8.90049 7.1C9.10049 6.9 9.50049 6.9 9.80049 7.1C10.0005 7.3 10.0005 7.7 9.80049 8ZM10.3005 4.4V3.7C10.3005 3.6 10.4005 3.5 10.4005 3.5H13.3005C13.4005 3.5 13.4005 3.6 13.4005 3.7V4.4C13.4005 4.5 13.3005 4.6 13.3005 4.6H10.4005C10.4005 4.6 10.3005 4.5 10.3005 4.4ZM17.1005 18.9H12.4005C12.0005 18.9 11.7005 18.5 11.7005 18.1C11.7005 17.7 12.0005 17.3 12.4005 17.3H17.1005C17.5005 17.3 17.8005 17.7 17.8005 18.1C17.8005 18.5 17.5005 18.9 17.1005 18.9ZM17.1005 14.1H12.4005C12.0005 14.1 11.7005 13.7 11.7005 13.3C11.7005 12.9 12.0005 12.5 12.4005 12.5H17.1005C17.5005 12.5 17.8005 12.9 17.8005 13.3C17.8005 13.7 17.5005 14.1 17.1005 14.1ZM17.1005 9.9H12.4005C12.0005 9.9 11.7005 9.5 11.7005 9.1C11.7005 8.6 12.0005 8.3 12.4005 8.3H17.1005C17.5005 8.3 17.8005 8.7 17.8005 9.1C17.8005 9.5 17.5005 9.9 17.1005 9.9Z"
          fill="#A3A8AF"/>
</svg>
