<svg viewBox="0 0 24 24" fill="none" xmlns="http://www.w3.org/2000/svg">
    <path d="M20.25 4.49288C20.1032 4.49147 19.96 4.44698 19.8382 4.36492C19.7164 4.28287 19.6213 4.16685 19.5649 4.03127C19.5084 3.89569 19.493 3.74651 19.5205 3.60225C19.5481 3.45799 19.6173 3.32499 19.7198 3.21975L21.9698 0.96975C22.1112 0.833132 22.3007 0.757536 22.4973 0.759245C22.694 0.760953 22.8821 0.83983 23.0212 0.978886C23.1602 1.11794 23.2391 1.30605 23.2408 1.5027C23.2425 1.69935 23.1669 1.8888 23.0303 2.03025L20.7803 4.28025C20.6386 4.41846 20.448 4.49492 20.25 4.49288Z"
          fill="#A3A8AF"/>
    <path d="M22.4465 8.25H21C20.8011 8.25 20.6103 8.17098 20.4697 8.03033C20.329 7.88968 20.25 7.69891 20.25 7.5C20.25 7.30109 20.329 7.11032 20.4697 6.96967C20.6103 6.82902 20.8011 6.75 21 6.75H22.4465C22.6454 6.75 22.8362 6.82902 22.9769 6.96967C23.1175 7.11032 23.1965 7.30109 23.1965 7.5C23.1965 7.69891 23.1175 7.88968 22.9769 8.03033C22.8362 8.17098 22.6454 8.25 22.4465 8.25Z"
          fill="#A3A8AF"/>
    <path d="M16.5 3.74999C16.3011 3.74999 16.1103 3.67097 15.9697 3.53032C15.829 3.38967 15.75 3.1989 15.75 2.99999V1.55347C15.75 1.35455 15.829 1.16379 15.9697 1.02314C16.1103 0.882484 16.3011 0.803467 16.5 0.803467C16.6989 0.803467 16.8897 0.882484 17.0303 1.02314C17.171 1.16379 17.25 1.35455 17.25 1.55347V2.99999C17.25 3.1989 17.171 3.38967 17.0303 3.53032C16.8897 3.67097 16.6989 3.74999 16.5 3.74999Z"
          fill="#A3A8AF"/>
    <path d="M22.4999 14.2448C22.4018 14.2456 22.3044 14.2271 22.2134 14.1903C22.1225 14.1535 22.0396 14.0991 21.9697 14.0303L19.7197 11.7802C19.5831 11.6388 19.5075 11.4493 19.5092 11.2527C19.5109 11.0561 19.5898 10.8679 19.7288 10.7289C19.8679 10.5898 20.056 10.511 20.2526 10.5092C20.4493 10.5075 20.6387 10.5831 20.7802 10.7198L23.0302 12.9697C23.1318 13.0755 23.2003 13.2085 23.2273 13.3526C23.2544 13.4967 23.2388 13.6455 23.1825 13.7809C23.1263 13.9162 23.0317 14.0322 22.9104 14.1146C22.7892 14.197 22.6465 14.2422 22.4999 14.2448Z"
          fill="#A3A8AF"/>
    <path d="M12.7501 4.49558C12.6518 4.49639 12.5544 4.47778 12.4634 4.44083C12.3725 4.40387 12.2897 4.3493 12.2198 4.28025L9.96981 2.03025C9.83319 1.8888 9.7576 1.69935 9.75931 1.5027C9.76101 1.30605 9.83989 1.11794 9.97895 0.978886C10.118 0.83983 10.3061 0.760953 10.5028 0.759245C10.6994 0.757536 10.8889 0.833132 11.0303 0.96975L13.2803 3.21975C13.382 3.32547 13.4507 3.45859 13.4778 3.60276C13.5049 3.74693 13.4894 3.89588 13.4331 4.03135C13.3768 4.16682 13.2822 4.28291 13.1608 4.36537C13.0395 4.44783 12.8967 4.49309 12.7501 4.49558Z"
          fill="#A3A8AF"/>
    <path d="M17.5246 6.47574C17.3052 6.25322 17.0254 6.09984 16.7197 6.03453C16.4141 5.96922 16.0961 5.99485 15.8048 6.10824L1.79072 11.4467C1.47503 11.5669 1.20492 11.7829 1.0183 12.0645C0.831687 12.346 0.737936 12.679 0.750214 13.0165C0.762493 13.3541 0.880183 13.6794 1.08676 13.9466C1.29334 14.2139 1.57844 14.4097 1.90202 14.5067L7.68159 16.2407C7.7001 16.2461 7.71696 16.2561 7.73064 16.2698C7.74432 16.2834 7.7544 16.3002 7.75997 16.3187L9.49359 22.0982C9.58793 22.4232 9.78305 22.7097 10.0508 22.9166C10.3185 23.1235 10.6451 23.2399 10.9833 23.2492C11.3207 23.2605 11.6532 23.1665 11.9347 22.9801C12.2161 22.7937 12.4325 22.5242 12.5537 22.2092L17.8922 8.19467C18.0058 7.90359 18.0314 7.58561 17.9661 7.28009C17.9008 6.97457 17.7472 6.69492 17.5246 6.47574Z"
          fill="#A3A8AF"/>
</svg>
