<svg viewBox="0 0 24 24" fill="none" xmlns="http://www.w3.org/2000/svg">
    <path fill-rule="evenodd" clip-rule="evenodd"
          d="M16.4389 2.55279C16.6083 2.214 16.9546 2 17.3334 2H19.8334C20.3857 2 20.8334 2.44772 20.8334 3C20.8334 3.55228 20.3857 4 19.8334 4H17.9514L17.0932 5.71649C17.6956 6.57249 18.1055 7.57604 18.2622 8.66667H19C19.5523 8.66667 20 9.11438 20 9.66667C20 10.219 19.5523 10.6667 19 10.6667H18.2006L16.6566 21.4748C16.5862 21.9674 16.1643 22.3333 15.6667 22.3333H7.33333C6.83568 22.3333 6.41376 21.9674 6.34338 21.4748L4.79937 10.6667H4C3.44772 10.6667 3 10.219 3 9.66667C3 9.11438 3.44772 8.66667 4 8.66667H4.73778C5.21497 5.34649 8.03776 2.83333 11.5 2.83333C13.0524 2.83333 14.4762 3.33858 15.6177 4.19528L16.4389 2.55279ZM15.149 6.47451C14.2675 5.4647 12.9668 4.83333 11.5 4.83333C9.14582 4.83333 7.21969 6.45968 6.76731 8.66667H16.2327C16.0648 7.84737 15.6937 7.10809 15.1731 6.50232C15.1649 6.49319 15.1568 6.48391 15.149 6.47451ZM6.81968 10.6667L8.20063 20.3333H14.7994L16.1803 10.6667H6.81968Z"
          fill="#A3A8AF"/>
</svg>
