<svg viewBox="0 0 24 24" fill="none" xmlns="http://www.w3.org/2000/svg">
    <path fill-rule="evenodd" clip-rule="evenodd"
          d="M2 6C2 5.44772 2.44772 5 3 5H16.3333H16.3334H18.4167C20.5523 5 22.3333 6.78105 22.3333 8.91667C22.3333 11.0523 20.5523 12.8333 18.4167 12.8333H15.3201C13.9161 14.3678 11.8994 15.3333 9.66668 15.3333C5.44772 15.3333 2 11.8856 2 7.66667V6ZM14.1906 11.0672C14.0922 11.1499 14.0099 11.2512 13.9492 11.3657C12.9077 12.5687 11.3714 13.3333 9.66668 13.3333C6.55229 13.3333 4 10.7811 4 7.66667V7H15.3334V7.66667C15.3334 8.93929 14.9072 10.1181 14.1906 11.0672ZM16.6455 10.8333H18.4167C19.4477 10.8333 20.3333 9.94772 20.3333 8.91667C20.3333 7.88562 19.4477 7 18.4167 7H17.3334V7.66667C17.3334 8.79437 17.087 9.86696 16.6455 10.8333ZM2 17.6667C2 17.1144 2.44772 16.6667 3 16.6667H19.6667C20.219 16.6667 20.6667 17.1144 20.6667 17.6667C20.6667 18.219 20.219 18.6667 19.6667 18.6667H3C2.44772 18.6667 2 18.219 2 17.6667Z"
          fill="#A3A8AF"/>
</svg>
