<svg viewBox="0 0 24 24" fill="none" xmlns="http://www.w3.org/2000/svg">
    <path fill-rule="evenodd" clip-rule="evenodd"
          d="M2 5C2 4.44772 2.44772 4 3 4H16.3333C16.8856 4 17.3333 4.44772 17.3333 5V5.66667H18.4167C20.5523 5.66667 22.3333 7.44772 22.3333 9.58333C22.3333 11.719 20.5523 13.5 18.4167 13.5H17.2396C16.7828 15.8954 14.7095 17.6667 12.1667 17.6667H7.16667C4.28105 17.6667 2 15.3856 2 12.5V5ZM17.3333 11.5H18.4167C19.4477 11.5 20.3333 10.6144 20.3333 9.58333C20.3333 8.55228 19.4477 7.66667 18.4167 7.66667H17.3333V11.5ZM15.3333 6.66667L15.3333 12.5C15.3333 14.281 13.9477 15.6667 12.1667 15.6667H7.16667C5.38562 15.6667 4 14.281 4 12.5V6H15.3333L15.3333 6.66667ZM2 20C2 19.4477 2.44772 19 3 19H19.6667C20.219 19 20.6667 19.4477 20.6667 20C20.6667 20.5523 20.219 21 19.6667 21H3C2.44772 21 2 20.5523 2 20Z"
          fill="#A3A8AF"/>
</svg>
