<svg viewBox="0 0 24 24" fill="none" xmlns="http://www.w3.org/2000/svg">
    <path fill-rule="evenodd" clip-rule="evenodd"
          d="M7.43903 2.55279C7.60842 2.214 7.95468 2 8.33346 2H16.6668C17.0456 2 17.3918 2.214 17.5612 2.55279L18.9515 5.33333H20.0001C20.5524 5.33333 21.0001 5.78105 21.0001 6.33333C21.0001 6.88562 20.5524 7.33333 20.0001 7.33333H19.2206L18.9606 9.5H19.1668C19.4536 9.5 19.7266 9.62317 19.9165 9.8382C20.1063 10.0532 20.1946 10.3394 20.1591 10.624L19.3257 17.2907C19.2632 17.7911 18.8378 18.1667 18.3335 18.1667H18.0539L17.6596 21.4525C17.5993 21.9551 17.1729 22.3333 16.6667 22.3333H8.33337C7.82717 22.3333 7.40081 21.9551 7.3405 21.4525L6.9462 18.1667H6.66679C6.16247 18.1667 5.73706 17.7911 5.67451 17.2907L4.84118 10.624C4.8056 10.3394 4.89395 10.0532 5.08378 9.8382C5.2736 9.62317 5.54662 9.5 5.83346 9.5H6.03961L5.77961 7.33333H5.00012C4.44784 7.33333 4.00012 6.88562 4.00012 6.33333C4.00012 5.78105 4.44784 5.33333 5.00012 5.33333H6.04875L7.43903 2.55279ZM7.15151 11.5C7.16084 11.5001 7.17019 11.5001 7.17957 11.5H17.8207C17.8301 11.5001 17.8394 11.5001 17.8487 11.5H18.034L17.4507 16.1667H17.1795C17.1701 16.1665 17.1608 16.1665 17.1514 16.1667H7.84865C7.83932 16.1665 7.82997 16.1665 7.8206 16.1667H7.54957L6.96624 11.5H7.15151ZM8.96055 18.1667L9.22055 20.3333H15.7795L16.0395 18.1667H8.96055ZM16.9463 9.5H8.05396L7.79396 7.33333H17.2063L16.9463 9.5ZM16.0488 4L16.7154 5.33333H8.28482L8.95149 4H16.0488Z"
          fill="#A3A8AF"/>
</svg>
