<svg viewBox="0 0 24 24" fill="none" xmlns="http://www.w3.org/2000/svg">
    <path fill-rule="evenodd" clip-rule="evenodd"
          d="M7.20922 3C6.83045 3 6.48419 3.214 6.3148 3.55279L4.9866 6.20918H4C3.44772 6.20918 3 6.6569 3 7.20918C3 7.76146 3.44772 8.20918 4 8.20918H4.72184L6.21695 20.17C6.2795 20.6705 6.7049 21.046 7.20922 21.046H16.8368C17.3412 21.046 17.7666 20.6705 17.8291 20.17L19.3242 8.20918H20.046C20.5983 8.20918 21.046 7.76146 21.046 7.20918C21.046 6.6569 20.5983 6.20918 20.046 6.20918H19.0595L17.7313 3.55279C17.5619 3.214 17.2156 3 16.8368 3H7.20922ZM8.09201 19.046L6.7374 8.20918H17.3087L15.9541 19.046H8.09201ZM16.8234 6.20918L16.2188 5H7.82726L7.22267 6.20918H16.8234ZM11.4182 13.6276C11.4182 13.2937 11.6889 13.023 12.0228 13.023C12.3568 13.023 12.6274 13.2937 12.6274 13.6276C12.6274 13.9616 12.3568 14.2322 12.0228 14.2322C11.6889 14.2322 11.4182 13.9616 11.4182 13.6276ZM12.0228 11.023C10.5844 11.023 9.41824 12.1892 9.41824 13.6276C9.41824 15.0661 10.5844 16.2322 12.0228 16.2322C13.4613 16.2322 14.6274 15.0661 14.6274 13.6276C14.6274 12.1892 13.4613 11.023 12.0228 11.023Z"
          fill="#A3A8AF"/>
</svg>
