<svg viewBox="0 0 24 24" fill="none" xmlns="http://www.w3.org/2000/svg">
    <path fill-rule="evenodd" clip-rule="evenodd"
          d="M19.0711 4.92895C17.1823 3.0402 14.6711 2 12 2C9.32892 2 6.81774 3.0402 4.92895 4.92895C3.04016 6.8177 2 9.32891 2 12C2 14.6711 3.04024 17.1823 4.92895 19.0711C6.81771 20.9598 9.32896 22 12 22C14.6711 22 17.1823 20.9598 19.0711 19.0711C20.9598 17.1823 22 14.6711 22 12C22 9.32883 20.9598 6.8177 19.0711 4.92895ZM18.2428 18.2427C16.5753 19.9102 14.3582 20.8285 12.0001 20.8285C9.64189 20.8285 7.42485 19.9102 5.75735 18.2427C4.08985 16.5752 3.17149 14.3582 3.17149 12C3.17149 9.6418 4.08981 7.4248 5.75731 5.7573C7.42482 4.0898 9.64185 3.17148 12 3.17148C14.3582 3.17148 16.5753 4.0898 18.2428 5.7573C19.9103 7.4248 20.8286 9.64184 20.8286 12C20.8286 14.3582 19.9102 16.5752 18.2428 18.2427ZM13.8322 12.4856C13.6881 12.2126 13.5095 12.004 13.2965 11.8599C13.0833 11.7159 12.8522 11.5823 12.6031 11.4592C12.3539 11.3363 12.1228 11.2341 11.9098 11.1531C11.6967 11.072 11.5181 10.9671 11.3741 10.8379C11.23 10.7089 11.158 10.5574 11.158 10.3832C11.158 10.1671 11.2464 9.99759 11.4236 9.87446C11.6006 9.7515 11.8513 9.68989 12.1755 9.68989C12.4695 9.68989 12.7367 9.74704 12.9768 9.86099C13.2168 9.97509 13.3641 10.0321 13.4181 10.0321C13.5621 10.0321 13.6761 9.96075 13.7602 9.81798C13.8442 9.67517 13.8863 9.53685 13.8863 9.40321C13.8863 9.26138 13.8247 9.13814 13.7017 9.03333C13.5786 8.92868 13.4195 8.85157 13.2245 8.8022C13.0293 8.75294 12.8447 8.71751 12.6707 8.69583C12.6294 8.69071 12.5886 8.6863 12.5483 8.68239V7.72575C12.5483 7.40228 12.2861 7.14001 11.9626 7.14001C11.6391 7.14001 11.3768 7.40228 11.3768 7.72575V8.76364C11.1364 8.82779 10.9104 8.92685 10.6988 9.06099C10.4827 9.19802 10.31 9.38993 10.181 9.63669C10.0518 9.88345 9.98742 10.1683 9.98742 10.4913C9.98742 10.7794 10.0399 11.036 10.145 11.2611C10.25 11.4862 10.3881 11.6663 10.5592 11.8013C10.7302 11.9364 10.9194 12.058 11.1264 12.166C11.3335 12.2741 11.539 12.3717 11.7432 12.4586C11.9472 12.5457 12.1349 12.6358 12.306 12.7288C12.4771 12.8219 12.6151 12.939 12.7202 13.0799C12.8251 13.2211 12.8777 13.3816 12.8777 13.5617C12.8777 13.8199 12.7816 14.015 12.5896 14.1469C12.3974 14.279 12.1574 14.345 11.8692 14.345C11.659 14.345 11.467 14.3076 11.293 14.2327C11.1188 14.1579 10.9853 14.0753 10.8922 13.9849C10.7991 13.8945 10.7032 13.8118 10.6041 13.7369C10.505 13.6621 10.4164 13.6247 10.3384 13.6247C10.2063 13.6247 10.0877 13.6953 9.98277 13.8363C9.8777 13.9774 9.8252 14.117 9.8252 14.2549C9.8252 14.5311 10.0292 14.7861 10.4375 15.0203C10.7135 15.1786 11.0266 15.2831 11.3767 15.3344V16.2368C11.3767 16.5603 11.639 16.8226 11.9625 16.8226C12.2859 16.8226 12.5482 16.5603 12.5482 16.2368V15.3065C12.9027 15.2296 13.2063 15.0843 13.4585 14.8697C13.8516 14.5353 14.0483 14.0602 14.0483 13.4445C14.0483 13.0785 13.9763 12.7588 13.8322 12.4856ZM4.38318 12C4.38318 7.80015 7.80002 4.38335 11.9999 4.38335C16.1997 4.38335 19.6166 7.80019 19.6166 12C19.6166 16.1999 16.1997 19.6167 11.9999 19.6167C7.80002 19.6167 4.38318 16.1999 4.38318 12ZM5.55467 12C5.55467 15.5539 8.44596 18.4452 11.9999 18.4452C15.5538 18.4452 18.4451 15.5539 18.4451 12C18.4451 8.44612 15.5537 5.55484 11.9999 5.55484C8.446 5.55484 5.55467 8.44612 5.55467 12Z"
          fill="#A3A8AF"/>
    <path d="M19.0711 4.92895L19.2479 4.75217L19.2479 4.75217L19.0711 4.92895ZM4.92895 4.92895L5.10573 5.10572L4.92895 4.92895ZM4.92895 19.0711L4.75217 19.2478L4.75217 19.2478L4.92895 19.0711ZM19.0711 19.0711L18.8943 18.8943L18.8943 18.8943L19.0711 19.0711ZM18.2428 18.2427L18.4195 18.4195L18.4195 18.4195L18.2428 18.2427ZM5.75731 5.7573L5.93409 5.93408H5.93409L5.75731 5.7573ZM18.2428 5.7573L18.4195 5.58053L18.2428 5.7573ZM13.2965 11.8599L13.4366 11.6529L13.4365 11.6528L13.2965 11.8599ZM13.8322 12.4856L14.0533 12.369L14.0533 12.3689L13.8322 12.4856ZM12.6031 11.4592L12.7139 11.2351L12.7138 11.235L12.6031 11.4592ZM11.9098 11.1531L11.9987 10.9194L11.9987 10.9194L11.9098 11.1531ZM11.3741 10.8379L11.541 10.6518L11.5409 10.6517L11.3741 10.8379ZM11.4236 9.87446L11.281 9.66915L11.2809 9.66918L11.4236 9.87446ZM12.9768 9.86099L13.0842 9.63521L13.084 9.63513L12.9768 9.86099ZM13.7602 9.81798L13.9756 9.94491L13.9758 9.94467L13.7602 9.81798ZM13.7017 9.03333L13.8639 8.84304L13.8637 8.84287L13.7017 9.03333ZM13.2245 8.8022L13.2859 8.55985L13.2857 8.5598L13.2245 8.8022ZM12.6707 8.69583L12.7016 8.44775L12.7014 8.44773L12.6707 8.69583ZM12.5483 8.68239H12.2983V8.90934L12.5242 8.93123L12.5483 8.68239ZM11.3768 8.76364L11.4413 9.0052L11.6268 8.9557V8.76364H11.3768ZM10.6988 9.06099L10.5649 8.84984L10.5649 8.84986L10.6988 9.06099ZM10.181 9.63669L10.4025 9.75264L10.4026 9.75253L10.181 9.63669ZM10.145 11.2611L10.3716 11.1555L10.3715 11.1554L10.145 11.2611ZM11.1264 12.166L11.0107 12.3877L11.0108 12.3877L11.1264 12.166ZM11.7432 12.4586L11.8414 12.2287L11.8411 12.2286L11.7432 12.4586ZM12.306 12.7288L12.4255 12.5092L12.4254 12.5091L12.306 12.7288ZM12.7202 13.0799L12.9208 12.9307L12.9206 12.9305L12.7202 13.0799ZM12.5896 14.1469L12.448 13.9409L12.448 13.9409L12.5896 14.1469ZM11.293 14.2327L11.3918 14.0031L11.3917 14.003L11.293 14.2327ZM10.8922 13.9849L11.0665 13.8056L11.0663 13.8054L10.8922 13.9849ZM10.6041 13.7369L10.4533 13.9364L10.4534 13.9364L10.6041 13.7369ZM9.98277 13.8363L10.1833 13.9856L10.1833 13.9855L9.98277 13.8363ZM10.4375 15.0203L10.5619 14.8034L10.5619 14.8034L10.4375 15.0203ZM11.3767 15.3344H11.6267V15.1183L11.4129 15.087L11.3767 15.3344ZM12.5482 15.3065L12.4952 15.0622L12.2982 15.1049V15.3065H12.5482ZM13.4585 14.8697L13.2965 14.6793L13.2965 14.6793L13.4585 14.8697ZM12 2.25C14.6048 2.25 17.0524 3.26386 18.8944 5.10572L19.2479 4.75217C17.3122 2.81654 14.7374 1.75 12 1.75V2.25ZM5.10573 5.10572C6.94764 3.26385 9.39523 2.25 12 2.25V1.75C9.26261 1.75 6.68785 2.81654 4.75218 4.75217L5.10573 5.10572ZM2.25 12C2.25 9.39521 3.26382 6.94759 5.10573 5.10572L4.75218 4.75217C2.8165 6.6878 1.75 9.2626 1.75 12H2.25ZM5.10573 18.8943C3.26389 17.0524 2.25 14.6048 2.25 12H1.75C1.75 14.7374 2.81658 17.3122 4.75217 19.2478L5.10573 18.8943ZM12 21.75C9.39526 21.75 6.9476 20.7362 5.10573 18.8943L4.75217 19.2478C6.68781 21.1835 9.26266 22.25 12 22.25V21.75ZM18.8943 18.8943C17.0524 20.7361 14.6048 21.75 12 21.75V22.25C14.7374 22.25 17.3122 21.1835 19.2478 19.2478L18.8943 18.8943ZM21.75 12C21.75 14.6048 20.7361 17.0524 18.8943 18.8943L19.2478 19.2478C21.1835 17.3122 22.25 14.7374 22.25 12H21.75ZM18.8943 5.10572C20.7362 6.94759 21.75 9.39513 21.75 12H22.25C22.25 9.26252 21.1835 6.6878 19.2479 4.75217L18.8943 5.10572ZM12.0001 21.0785C14.4245 21.0785 16.7052 20.1339 18.4195 18.4195L18.066 18.0659C16.4454 19.6865 14.2919 20.5785 12.0001 20.5785V21.0785ZM5.58057 18.4195C7.29496 20.1339 9.57559 21.0785 12.0001 21.0785V20.5785C9.70819 20.5785 7.55475 19.6865 5.93413 18.0659L5.58057 18.4195ZM2.92149 12C2.92149 14.4245 3.86619 16.7051 5.58057 18.4195L5.93413 18.0659C4.31351 16.4453 3.42149 14.2919 3.42149 12H2.92149ZM5.58054 5.58053C3.86615 7.29491 2.92149 9.57549 2.92149 12H3.42149C3.42149 9.7081 4.31347 7.5547 5.93409 5.93408L5.58054 5.58053ZM12 2.92148C9.57555 2.92148 7.29492 3.86614 5.58054 5.58053L5.93409 5.93408C7.55471 4.31347 9.70816 3.42148 12 3.42148V2.92148ZM18.4195 5.58053C16.7052 3.86614 14.4245 2.92148 12 2.92148V3.42148C14.2919 3.42148 16.4454 4.31347 18.066 5.93408L18.4195 5.58053ZM21.0786 12C21.0786 9.57553 20.1339 7.29491 18.4195 5.58053L18.066 5.93408C19.6866 7.5547 20.5786 9.70814 20.5786 12H21.0786ZM18.4195 18.4195C20.1339 16.7051 21.0786 14.4245 21.0786 12H20.5786C20.5786 14.2919 19.6866 16.4453 18.066 18.0659L18.4195 18.4195ZM13.1564 12.067C13.3292 12.1839 13.4824 12.3584 13.6111 12.6023L14.0533 12.3689C13.8939 12.0668 13.6897 11.8241 13.4366 11.6529L13.1564 12.067ZM12.4924 11.6834C12.7321 11.8018 12.9534 11.9298 13.1565 12.0671L13.4365 11.6528C13.2132 11.5019 12.9723 11.3628 12.7139 11.2351L12.4924 11.6834ZM11.8209 11.3868C12.0251 11.4644 12.2489 11.5632 12.4925 11.6834L12.7138 11.235C12.459 11.1093 12.2206 11.0038 11.9987 10.9194L11.8209 11.3868ZM11.2072 11.0241C11.3779 11.1771 11.5842 11.2968 11.8209 11.3868L11.9987 10.9194C11.8091 10.8473 11.6584 10.7571 11.541 10.6518L11.2072 11.0241ZM10.908 10.3832C10.908 10.6368 11.0168 10.8536 11.2073 11.0242L11.5409 10.6517C11.4432 10.5642 11.408 10.478 11.408 10.3832H10.908ZM11.2809 9.66918C11.0364 9.83915 10.908 10.0855 10.908 10.3832H11.408C11.408 10.2488 11.4565 10.156 11.5663 10.0798L11.2809 9.66918ZM12.1755 9.43989C11.8244 9.43989 11.516 9.50583 11.281 9.66915L11.5662 10.0798C11.6851 9.99716 11.8781 9.93989 12.1755 9.93989V9.43989ZM13.084 9.63513C12.8071 9.5037 12.5027 9.43989 12.1755 9.43989V9.93989C12.4363 9.93989 12.6664 9.99038 12.8697 10.0868L13.084 9.63513ZM13.4181 9.78208C13.4401 9.78208 13.4478 9.78641 13.4283 9.78087C13.4134 9.77664 13.3903 9.76891 13.3576 9.75622C13.2923 9.73092 13.2018 9.69112 13.0842 9.63521L12.8695 10.0868C12.9919 10.145 13.095 10.1907 13.1769 10.2224C13.2177 10.2382 13.2565 10.2519 13.2919 10.2619C13.3226 10.2706 13.369 10.2821 13.4181 10.2821V9.78208ZM13.5449 9.69105C13.4976 9.77124 13.4588 9.78208 13.4181 9.78208V10.2821C13.6654 10.2821 13.8546 10.1503 13.9756 9.94491L13.5449 9.69105ZM13.6363 9.40321C13.6363 9.48264 13.6116 9.57759 13.5447 9.69129L13.9758 9.94467C14.0768 9.77274 14.1363 9.59106 14.1363 9.40321H13.6363ZM13.5396 9.22363C13.6157 9.28844 13.6363 9.34545 13.6363 9.40321H14.1363C14.1363 9.17731 14.0338 8.98784 13.8639 8.84304L13.5396 9.22363ZM13.1631 9.04455C13.3299 9.08678 13.4521 9.1492 13.5398 9.2238L13.8637 8.84287C13.7052 8.70817 13.509 8.61637 13.2859 8.55985L13.1631 9.04455ZM12.6398 8.94391C12.8023 8.96416 12.9767 8.99751 13.1633 9.0446L13.2857 8.5598C13.0819 8.50838 12.8872 8.47086 12.7016 8.44775L12.6398 8.94391ZM12.5242 8.93123C12.5626 8.93495 12.6011 8.93913 12.64 8.94394L12.7014 8.44773C12.6576 8.4423 12.6146 8.43765 12.5724 8.43356L12.5242 8.93123ZM12.2983 7.72575V8.68239H12.7983V7.72575H12.2983ZM11.9626 7.39001C12.148 7.39001 12.2983 7.54035 12.2983 7.72575H12.7983C12.7983 7.26421 12.4241 6.89001 11.9626 6.89001V7.39001ZM11.6268 7.72575C11.6268 7.54035 11.7772 7.39001 11.9626 7.39001V6.89001C11.501 6.89001 11.1268 7.26421 11.1268 7.72575H11.6268ZM11.6268 8.76364V7.72575H11.1268V8.76364H11.6268ZM10.8326 9.27214C11.0229 9.15153 11.2255 9.06276 11.4413 9.0052L11.3124 8.52209C11.0473 8.59282 10.7979 8.70217 10.5649 8.84984L10.8326 9.27214ZM10.4026 9.75253C10.5131 9.54118 10.6569 9.38361 10.8327 9.27212L10.5649 8.84986C10.3085 9.01243 10.107 9.23868 9.95947 9.52085L10.4026 9.75253ZM10.2374 10.4913C10.2374 10.2021 10.2949 9.95822 10.4025 9.75264L9.95953 9.52074C9.80879 9.80868 9.73742 10.1345 9.73742 10.4913H10.2374ZM10.3715 11.1554C10.2842 10.9683 10.2374 10.7487 10.2374 10.4913H9.73742C9.73742 10.8101 9.79564 11.1037 9.91847 11.3668L10.3715 11.1554ZM10.7141 11.6051C10.5776 11.4974 10.4623 11.3501 10.3716 11.1555L9.91842 11.3667C10.0376 11.6224 10.1986 11.8352 10.4043 11.9976L10.7141 11.6051ZM11.2421 11.9444C11.0479 11.8431 10.872 11.7298 10.7141 11.6051L10.4043 11.9976C10.5884 12.1429 10.7908 12.2729 11.0107 12.3877L11.2421 11.9444ZM11.8411 12.2286C11.6434 12.1445 11.4438 12.0496 11.242 11.9444L11.0108 12.3877C11.2232 12.4985 11.4347 12.599 11.6453 12.6887L11.8411 12.2286ZM12.4254 12.5091C12.2465 12.4119 12.0516 12.3184 11.8414 12.2287L11.6451 12.6886C11.8429 12.773 12.0234 12.8597 12.1866 12.9484L12.4254 12.5091ZM12.9206 12.9305C12.7917 12.7576 12.6249 12.6177 12.4255 12.5092L12.1865 12.9483C12.3292 13.026 12.4384 13.1203 12.5197 13.2293L12.9206 12.9305ZM13.1277 13.5617C13.1277 13.329 13.0585 13.116 12.9208 12.9307L12.5196 13.2291C12.5917 13.3262 12.6277 13.4341 12.6277 13.5617H13.1277ZM12.7311 14.353C12.9992 14.1688 13.1277 13.8918 13.1277 13.5617H12.6277C12.6277 13.7479 12.5641 13.8611 12.448 13.9409L12.7311 14.353ZM11.8692 14.595C12.1959 14.595 12.4884 14.5198 12.7312 14.3529L12.448 13.9409C12.3064 14.0382 12.1189 14.095 11.8692 14.095V14.595ZM11.1942 14.4624C11.4026 14.5521 11.6288 14.595 11.8692 14.595V14.095C11.6893 14.095 11.5313 14.0631 11.3918 14.0031L11.1942 14.4624ZM10.718 14.1641C10.8405 14.2832 11.0037 14.3806 11.1943 14.4624L11.3917 14.003C11.2338 13.9352 11.13 13.8674 11.0665 13.8056L10.718 14.1641ZM10.4534 13.9364C10.5437 14.0046 10.6318 14.0806 10.7182 14.1643L11.0663 13.8054C10.9664 13.7085 10.8627 13.6189 10.7547 13.5374L10.4534 13.9364ZM10.3384 13.8747C10.3372 13.8747 10.3456 13.8744 10.3661 13.883C10.3868 13.8918 10.4158 13.908 10.4533 13.9364L10.7548 13.5375C10.6361 13.4478 10.4945 13.3747 10.3384 13.3747V13.8747ZM10.1833 13.9855C10.2581 13.8851 10.31 13.8747 10.3384 13.8747V13.3747C10.1026 13.3747 9.91732 13.5055 9.78222 13.687L10.1833 13.9855ZM10.0752 14.2549C10.0752 14.1839 10.1015 14.0955 10.1833 13.9856L9.78225 13.687C9.65392 13.8593 9.5752 14.05 9.5752 14.2549H10.0752ZM10.5619 14.8034C10.175 14.5816 10.0752 14.3915 10.0752 14.2549H9.5752C9.5752 14.6707 9.88344 14.9907 10.3131 15.2372L10.5619 14.8034ZM11.4129 15.087C11.0903 15.0398 10.8077 14.9444 10.5619 14.8034L10.3131 15.2371C10.6193 15.4127 10.9629 15.5265 11.3405 15.5817L11.4129 15.087ZM11.6267 16.2368V15.3344H11.1267V16.2368H11.6267ZM11.9625 16.5726C11.7771 16.5726 11.6267 16.4223 11.6267 16.2368H11.1267C11.1267 16.6984 11.5009 17.0726 11.9625 17.0726V16.5726ZM12.2982 16.2368C12.2982 16.4223 12.1479 16.5726 11.9625 16.5726V17.0726C12.424 17.0726 12.7982 16.6984 12.7982 16.2368H12.2982ZM12.2982 15.3065V16.2368H12.7982V15.3065H12.2982ZM13.2965 14.6793C13.0788 14.8645 12.8137 14.9931 12.4952 15.0622L12.6012 15.5508C12.9918 15.4661 13.3339 15.304 13.6205 15.0601L13.2965 14.6793ZM13.7983 13.4445C13.7983 14.0024 13.6229 14.4016 13.2965 14.6793L13.6205 15.0602C14.0802 14.669 14.2983 14.118 14.2983 13.4445H13.7983ZM13.611 12.6022C13.7329 12.8334 13.7983 13.1116 13.7983 13.4445H14.2983C14.2983 13.0454 14.2196 12.6843 14.0533 12.369L13.611 12.6022ZM11.9999 4.13335C7.66195 4.13335 4.13318 7.66208 4.13318 12H4.63318C4.63318 7.93822 7.93809 4.63335 11.9999 4.63335V4.13335ZM19.8666 12C19.8666 7.66212 16.3378 4.13335 11.9999 4.13335V4.63335C16.0617 4.63335 19.3666 7.93826 19.3666 12H19.8666ZM11.9999 19.8667C16.3378 19.8667 19.8666 16.3379 19.8666 12H19.3666C19.3666 16.0618 16.0617 19.3667 11.9999 19.3667V19.8667ZM4.13318 12C4.13318 16.338 7.66195 19.8667 11.9999 19.8667V19.3667C7.93809 19.3667 4.63318 16.0618 4.63318 12H4.13318ZM11.9999 18.1952C8.58403 18.1952 5.80467 15.4159 5.80467 12H5.30467C5.30467 15.692 8.30789 18.6952 11.9999 18.6952V18.1952ZM18.1951 12C18.1951 15.4159 15.4157 18.1952 11.9999 18.1952V18.6952C15.6919 18.6952 18.6951 15.692 18.6951 12H18.1951ZM11.9999 5.80484C15.4157 5.80484 18.1951 8.5842 18.1951 12H18.6951C18.6951 8.30805 15.6918 5.30484 11.9999 5.30484V5.80484ZM5.80467 12C5.80467 8.5842 8.58407 5.80484 11.9999 5.80484V5.30484C8.30793 5.30484 5.30467 8.30805 5.30467 12H5.80467Z"
          fill="#A3A8AF"/>
</svg>
