<svg viewBox="0 0 24 24" fill="none" xmlns="http://www.w3.org/2000/svg">
    <path d="M11.9529 16.4723L12.3826 18.3008L11.9529 19.9612C10.953 19.9612 9.74123 20.1942 8.86983 19.8374C7.94557 19.459 7.37194 18.4707 6.677 17.7758L7.53638 16.0573L9.14448 15.3088C9.86288 16.0277 10.8561 16.4723 11.9529 16.4723Z"
          fill="#EE61EB"/>
    <path d="M9.14453 15.3084V15.3089L6.67705 17.7759C6.00201 17.1008 5.02602 16.34 4.64845 15.4474C4.27084 14.5547 4.49166 13.5302 4.49166 12.5L6.34241 12.0703L7.98107 12.5C7.98111 13.5963 8.42566 14.5895 9.14453 15.3084Z"
          fill="#0065A3"/>
    <path d="M9.14454 9.69156C8.42567 10.4104 7.98107 11.4036 7.98107 12.5H4.49167C4.49167 11.5712 4.18874 10.3813 4.49884 9.56115C4.87667 8.56182 5.93554 7.96563 6.67706 7.22412L8.50538 8.19311L9.14454 9.69156Z"
          fill="#99EEFF"/>
    <path d="M11.9529 5.03871L12.3826 6.78509L11.9529 8.52764C10.8557 8.52764 9.86292 8.97267 9.14448 9.69154L6.677 7.22406C7.35204 6.54902 7.72626 5.57298 8.61893 5.19538C9.51161 4.81781 10.9227 5.03871 11.9529 5.03871Z"
          fill="#93E300"/>
    <path d="M17.2288 7.22412L16.3648 8.94747L14.7617 9.69113C14.0429 8.97226 13.0497 8.52767 11.9529 8.52767V5.03873C12.9466 5.03873 14.3245 4.80335 15.1916 5.15599C16.1222 5.53451 16.5296 6.52515 17.2288 7.22412Z"
          fill="#FFF375"/>
    <path d="M19.4148 12.5L17.6577 12.9297L15.9254 12.5C15.9254 11.4032 15.4809 10.41 14.762 9.69113L17.229 7.22412H17.2294C17.9284 7.92309 18.9191 8.33048 19.2976 9.26118C19.6502 10.1282 19.4148 11.5063 19.4148 12.5Z"
          fill="#FFC34D"/>
    <path d="M19.4148 12.5C19.4148 13.4937 19.9511 14.7428 19.5985 15.6098C19.2199 16.5407 17.9283 17.0771 17.229 17.7759L15.6003 17.0066L14.762 15.3089C15.4808 14.59 15.9254 13.5968 15.9254 12.5H19.4148V12.5Z"
          fill="#FF3377"/>
    <path d="M17.2288 17.7759C16.5535 18.451 15.8785 19.427 14.9859 19.8046C14.0933 20.1821 12.9831 19.9613 11.9529 19.9613V16.4723C13.0497 16.4723 14.0429 16.0277 14.7617 15.3088L17.2288 17.7759Z"
          fill="#FF5CA8"/>
    <path d="M11.953 19.9613L12.3827 21.7955L11.953 23.4995C8.9219 23.4872 6.18054 22.2489 4.19873 20.2543L5.0013 18.5924L6.67717 17.7759C8.02729 19.126 9.89269 19.9613 11.953 19.9613Z"
          fill="#C331C8"/>
    <path d="M19.7542 20.3013C17.7655 22.2781 15.0256 23.5 11.9999 23.5C11.9844 23.5 11.9684 23.5 11.9529 23.4995V19.9613C14.0132 19.9613 15.8782 19.126 17.2288 17.7759L19.0518 18.7396L19.7542 20.3013Z"
          fill="#FF3377"/>
    <path d="M22.9999 12.5C22.9999 15.5494 21.7589 18.3095 19.7542 20.3013L17.2288 17.7759C18.5794 16.4262 19.4146 14.5608 19.4146 12.5L21.2382 12.0703L22.9999 12.5Z"
          fill="#E50048"/>
    <path d="M22.9999 12.5001H19.4146C19.4146 10.4397 18.5794 8.5743 17.2292 7.22418L18.0781 5.51574L19.7542 4.69873C21.7589 6.69059 22.9999 9.45064 22.9999 12.5001Z"
          fill="#FF9933"/>
    <path d="M19.7542 4.69868L17.2292 7.22412H17.2288C15.8782 5.874 14.0132 5.03873 11.9529 5.03873L11.5232 3.43364L11.9529 1.50047C11.9684 1.5 11.9844 1.5 11.9999 1.5C15.0256 1.5 17.7655 2.72186 19.7542 4.69868Z"
          fill="#FFDE46"/>
    <path d="M11.953 1.50049V5.03875C9.89273 5.03875 8.02729 5.87402 6.67717 7.22414L5.03005 6.4364L4.19873 4.7457C6.18054 2.75109 8.9219 1.51278 11.953 1.50049Z"
          fill="#00DA26"/>
    <path d="M6.67712 7.22417C5.32695 8.57429 4.49168 10.4397 4.49168 12.5L2.6185 12.9297L1 12.5C1 9.47435 2.22186 6.73441 4.19868 4.74573L6.67712 7.22417Z"
          fill="#33DDFF"/>
    <path d="M6.67712 17.7759L4.19868 20.2543C2.22186 18.2656 1 15.5257 1 12.5H4.49168C4.49168 14.5604 5.32695 16.4258 6.67712 17.7759Z"
          fill="#194D80"/>
</svg>
