<svg viewBox="0 0 24 24" fill="none" xmlns="http://www.w3.org/2000/svg">
    <path d="M19.5312 17.0624L19.5363 16.9376C22.9703 17.0793 22.9712 21.9827 19.5364 22.1247L19.5324 22.1249V22.1248C17.5621 22.1442 16.3031 19.9493 17.2643 18.2697L15.9655 16.9711C13.7573 18.8057 10.2432 18.806 8.0346 16.9711L6.7358 18.2697C7.69697 19.949 6.4381 22.1436 4.46821 22.1249C4.46801 22.1249 4.46782 22.1248 4.46762 22.1248L4.46884 21.9999C3.10757 21.9999 2.00012 20.8924 2.00012 19.5312L19.5312 17.0624ZM19.5312 17.0624V16.9374C19.074 16.9374 18.6439 17.0565 18.2704 17.2651L16.9709 15.9658C18.8061 13.7571 18.8058 10.2427 16.971 8.03444L18.2696 6.7358M19.5312 17.0624L18.2696 6.7358M22.1249 4.46823C22.1246 3.03844 20.9616 1.87549 19.5318 1.87516C17.5619 1.8564 16.303 4.05108 17.2642 5.7304L21.9999 4.46884M22.1249 4.46823C22.1249 4.46843 22.1249 4.46864 22.1249 4.46884H21.9999M22.1249 4.46823C22.1249 4.46802 22.1249 4.46782 22.1249 4.46761L21.9999 4.46884M22.1249 4.46823C22.1439 6.43822 19.9489 7.69688 18.2696 6.7358M21.9999 4.46884C22.0187 6.37421 19.8558 7.5815 18.2502 6.57851L18.3386 6.6669L18.2696 6.7358M12 8.15114C9.75711 8.14609 8.60363 10.8305 10.0468 12.4513C9.08154 13.0222 8.38524 14.0024 8.20028 15.1523C5.56697 12.0403 7.79949 7.0493 11.9997 7.0626L12.0005 7.0626C16.2005 7.04926 18.4333 12.0411 15.7998 15.1524C15.6148 14.0024 14.9185 13.0222 13.9533 12.4512C15.3963 10.8302 14.243 8.14613 12 8.15114ZM12 8.15114C12.0001 8.15114 12.0002 8.15114 12.0003 8.15114L12 8.27614L11.9997 8.15114C11.9998 8.15114 11.9999 8.15114 12 8.15114ZM19.5312 3.29698C20.1764 3.29698 20.7016 3.82141 20.703 4.46627C20.6361 6.0234 18.426 6.02313 18.3593 4.46629C18.3607 3.82142 18.8859 3.29698 19.5312 3.29698ZM4.46884 5.6407C3.82363 5.6407 3.29838 5.11627 3.29699 4.47141C3.36393 2.91428 5.57401 2.91456 5.6407 4.47141C5.63935 5.1163 5.11407 5.6407 4.46884 5.6407ZM4.46884 20.703C3.82363 20.703 3.29838 20.1786 3.29699 19.5337C3.36393 17.9766 5.57401 17.9769 5.6407 19.5337C5.63935 20.1786 5.11407 20.703 4.46884 20.703ZM14.427 15.7682V16.3006C12.9602 17.1464 11.0398 17.1464 9.57296 16.3006V15.7682C9.70919 12.5453 14.292 12.5471 14.427 15.7682ZM10.8281 10.7448C10.8281 10.0996 11.3526 9.57436 11.9974 9.57297C13.5545 9.6399 13.5543 11.85 11.9974 11.9166C11.3526 11.9153 10.8281 11.39 10.8281 10.7448ZM19.5312 20.703C18.886 20.703 18.3607 20.1786 18.3593 19.5337C18.4262 17.9766 20.6363 17.9769 20.703 19.5337C20.7016 20.1786 20.1764 20.703 19.5312 20.703Z"
          fill="#A3A8AF" stroke="#A3A8AF" stroke-width="0.25"/>
</svg>
