<svg viewBox="0 0 24 24" fill="none" xmlns="http://www.w3.org/2000/svg">
    <path fill-rule="evenodd" clip-rule="evenodd"
          d="M16.9827 10.9962H20.0244C21.1138 10.9962 22 11.847 22 12.8928V19.3057C22 20.3515 21.1138 21.2024 20.0243 21.2024H3.97563C2.88628 21.2024 2 20.3516 2 19.3057V12.8928C2 11.847 2.88624 10.9962 3.97563 10.9962H6.92068L10.2615 7.90825C10.1502 7.68037 10.0876 7.42643 10.0876 7.15854C10.0876 6.84789 10.35 6.596 10.6736 6.596C10.9972 6.596 11.2596 6.84789 11.2596 7.15854C11.2596 7.51524 11.5618 7.80538 11.9334 7.80538C12.3049 7.80538 12.6072 7.5152 12.6072 7.15854C12.6072 6.80187 12.3049 6.51169 11.9334 6.51169C11.6098 6.51169 11.3474 6.25981 11.3474 5.94916V5.01125C10.7781 4.89194 10.3504 4.4045 10.3504 3.82269V3.21672C10.3504 2.54584 10.9189 2 11.6178 2H12.249C12.9479 2 13.5164 2.54584 13.5164 3.21672V3.82265C13.5164 4.4045 13.0887 4.89194 12.5193 5.01121V5.47867C13.2506 5.71442 13.7791 6.37806 13.7791 7.1585C13.7791 7.4172 13.7206 7.66286 13.6164 7.88466L16.9827 10.9962ZM12.249 3.91431C12.3016 3.91431 12.3444 3.87324 12.3444 3.82269V3.21672C12.3444 3.16621 12.3017 3.12506 12.249 3.12506H11.6177C11.5651 3.12506 11.5223 3.16617 11.5223 3.21672V3.82269C11.5223 3.87321 11.5651 3.91431 11.6177 3.91431H12.249ZM11.9334 8.9304C11.6213 8.9304 11.3272 8.85536 11.0692 8.72353L8.61042 10.9962H15.2929L12.8211 8.71141C12.5575 8.85086 12.255 8.9304 11.9334 8.9304ZM20.0243 20.0773C20.4675 20.0773 20.8281 19.7312 20.8281 19.3057V12.8928C20.8281 12.4674 20.4675 12.1212 20.0243 12.1212H3.97563C3.53242 12.1212 3.1719 12.4674 3.1719 12.8928V19.3057C3.1719 19.7312 3.53245 20.0773 3.97563 20.0773H20.0243ZM4.40049 13.737C4.40049 13.4263 4.66287 13.1744 4.98646 13.1744C5.31006 13.1744 5.57243 13.4263 5.57243 13.737V18.4616C5.57243 18.7722 5.31006 19.0241 4.98646 19.0241C4.66287 19.0241 4.40049 18.7722 4.40049 18.4616V13.737ZM19.0096 13.1744C18.686 13.1744 18.4236 13.4263 18.4236 13.737V18.4616C18.4236 18.7722 18.686 19.0241 19.0096 19.0241C19.3332 19.0241 19.5955 18.7722 19.5955 18.4616V13.737C19.5955 13.4263 19.3332 13.1744 19.0096 13.1744ZM11.412 13.737C11.412 13.4263 11.6744 13.1744 11.998 13.1744C12.3216 13.1744 12.5839 13.4263 12.5839 13.737V18.4616C12.5839 18.7722 12.3216 19.0241 11.998 19.0241C11.6744 19.0241 11.412 18.7722 11.412 18.4616V13.737ZM8.49226 13.1536C8.16867 13.1536 7.90629 13.4055 7.90629 13.7162V18.4408C7.90629 18.7514 8.16867 19.0033 8.49226 19.0033C8.81586 19.0033 9.07823 18.7514 9.07823 18.4408V13.7162C9.07823 13.4055 8.8159 13.1536 8.49226 13.1536ZM14.9023 13.7162C14.9023 13.4055 15.1646 13.1536 15.4882 13.1536C15.8118 13.1536 16.0742 13.4055 16.0742 13.7162V18.4408C16.0742 18.7514 15.8118 19.0033 15.4882 19.0033C15.1646 19.0033 14.9023 18.7514 14.9023 18.4408V13.7162Z"
          fill="#A3A8AF"/>
    <path d="M16.9827 10.9962L16.813 11.1797L16.8848 11.2462H16.9827V10.9962ZM22 12.8928L21.75 12.8928V12.8928H22ZM6.92068 10.9962V11.2462H7.01853L7.09038 11.1798L6.92068 10.9962ZM10.2615 7.90825L10.4312 8.09184L10.5678 7.96562L10.4862 7.79853L10.2615 7.90825ZM11.3474 5.01125H11.5974V4.8082L11.3987 4.76656L11.3474 5.01125ZM12.5193 5.01121L12.4681 4.76652L12.2693 4.80815V5.01121H12.5193ZM12.5193 5.47867H12.2693V5.66074L12.4426 5.71661L12.5193 5.47867ZM13.6164 7.88466L13.3901 7.7783L13.3122 7.94398L13.4467 8.06825L13.6164 7.88466ZM11.0692 8.72353L11.1829 8.5009L11.0276 8.42154L10.8995 8.53994L11.0692 8.72353ZM8.61042 10.9962L8.44073 10.8126L7.97164 11.2462H8.61042V10.9962ZM15.2929 10.9962V11.2462H15.9317L15.4626 10.8126L15.2929 10.9962ZM12.8211 8.71141L12.9908 8.52783L12.8607 8.40761L12.7042 8.49044L12.8211 8.71141ZM20.0244 10.7462H16.9827V11.2462H20.0244V10.7462ZM22.25 12.8929C22.25 11.6994 21.2422 10.7462 20.0244 10.7462V11.2462C20.9854 11.2462 21.75 11.9946 21.75 12.8928L22.25 12.8929ZM22.25 19.3057V12.8928H21.75V19.3057H22.25ZM20.0243 21.4524C21.2421 21.4524 22.25 20.4991 22.25 19.3057H21.75C21.75 20.2039 20.9854 20.9524 20.0243 20.9524V21.4524ZM3.97563 21.4524H20.0243V20.9524H3.97563V21.4524ZM1.75 19.3057C1.75 20.4992 2.75793 21.4524 3.97563 21.4524V20.9524C3.01464 20.9524 2.25 20.204 2.25 19.3057H1.75ZM1.75 12.8928V19.3057H2.25V12.8928H1.75ZM3.97563 10.7462C2.75788 10.7462 1.75 11.6994 1.75 12.8928H2.25C2.25 11.9946 3.0146 11.2462 3.97563 11.2462V10.7462ZM6.92068 10.7462H3.97563V11.2462H6.92068V10.7462ZM10.0918 7.72466L6.75099 10.8126L7.09038 11.1798L10.4312 8.09184L10.0918 7.72466ZM9.83764 7.15854C9.83764 7.46589 9.90954 7.75723 10.0369 8.01797L10.4862 7.79853C10.3909 7.60352 10.3376 7.38698 10.3376 7.15854H9.83764ZM10.6736 6.346C10.2217 6.346 9.83764 6.70029 9.83764 7.15854H10.3376C10.3376 6.99548 10.4784 6.846 10.6736 6.846V6.346ZM11.5096 7.15854C11.5096 6.70029 11.1256 6.346 10.6736 6.346V6.846C10.8688 6.846 11.0096 6.99548 11.0096 7.15854H11.5096ZM11.9334 7.55538C11.6902 7.55538 11.5096 7.36764 11.5096 7.15854H11.0096C11.0096 7.66284 11.4335 8.05538 11.9334 8.05538V7.55538ZM12.3572 7.15854C12.3572 7.3676 12.1766 7.55538 11.9334 7.55538V8.05538C12.4333 8.05538 12.8572 7.66281 12.8572 7.15854H12.3572ZM11.9334 6.76169C12.1766 6.76169 12.3572 6.94948 12.3572 7.15854H12.8572C12.8572 6.65426 12.4332 6.26169 11.9334 6.26169V6.76169ZM11.0974 5.94916C11.0974 6.4074 11.4814 6.76169 11.9334 6.76169V6.26169C11.7381 6.26169 11.5974 6.11222 11.5974 5.94916H11.0974ZM11.0974 5.01125V5.94916H11.5974V5.01125H11.0974ZM10.1004 3.82269C10.1004 4.53229 10.6205 5.11436 11.2961 5.25593L11.3987 4.76656C10.9356 4.66952 10.6004 4.2767 10.6004 3.82269H10.1004ZM10.1004 3.21672V3.82269H10.6004V3.21672H10.1004ZM11.6178 1.75C10.7905 1.75 10.1004 2.39827 10.1004 3.21672H10.6004C10.6004 2.69342 11.0473 2.25 11.6178 2.25V1.75ZM12.249 1.75H11.6178V2.25H12.249V1.75ZM13.7664 3.21672C13.7664 2.39827 13.0762 1.75 12.249 1.75V2.25C12.8195 2.25 13.2664 2.69341 13.2664 3.21672H13.7664ZM13.7664 3.82265V3.21672H13.2664V3.82265H13.7664ZM12.5706 5.2559C13.2462 5.11437 13.7664 4.53229 13.7664 3.82265H13.2664C13.2664 4.27671 12.9312 4.66951 12.4681 4.76652L12.5706 5.2559ZM12.7693 5.47867V5.01121H12.2693V5.47867H12.7693ZM14.0291 7.1585C14.0291 6.26047 13.4217 5.5069 12.596 5.24072L12.4426 5.71661C13.0796 5.92194 13.5291 6.49566 13.5291 7.1585H14.0291ZM13.8426 7.99102C13.9619 7.73725 14.0291 7.45539 14.0291 7.1585H13.5291C13.5291 7.37902 13.4793 7.58847 13.3901 7.7783L13.8426 7.99102ZM17.1524 10.8126L13.786 7.70107L13.4467 8.06825L16.813 11.1797L17.1524 10.8126ZM12.0944 3.82269C12.0944 3.72558 12.1733 3.66431 12.249 3.66431V4.16431C12.4299 4.16431 12.5944 4.0209 12.5944 3.82269H12.0944ZM12.0944 3.21672V3.82269H12.5944V3.21672H12.0944ZM12.249 3.37506C12.1731 3.37506 12.0944 3.31361 12.0944 3.21672H12.5944C12.5944 3.01881 12.4302 2.87506 12.249 2.87506V3.37506ZM11.6177 3.37506H12.249V2.87506H11.6177V3.37506ZM11.7723 3.21672C11.7723 3.3137 11.6935 3.37506 11.6177 3.37506V2.87506C11.4367 2.87506 11.2723 3.01864 11.2723 3.21672H11.7723ZM11.7723 3.82269V3.21672H11.2723V3.82269H11.7723ZM11.6177 3.66431C11.6935 3.66431 11.7723 3.72568 11.7723 3.82269H11.2723C11.2723 4.02073 11.4367 4.16431 11.6177 4.16431V3.66431ZM12.249 3.66431H11.6177V4.16431H12.249V3.66431ZM10.9554 8.94616C11.2479 9.09557 11.5808 9.1804 11.9334 9.1804V8.6804C11.6617 8.6804 11.4065 8.61515 11.1829 8.5009L10.9554 8.94616ZM8.78012 11.1797L11.2389 8.90712L10.8995 8.53994L8.44073 10.8126L8.78012 11.1797ZM15.2929 10.7462H8.61042V11.2462H15.2929V10.7462ZM12.6514 8.895L15.1232 11.1797L15.4626 10.8126L12.9908 8.52783L12.6514 8.895ZM11.9334 9.1804C12.2966 9.1804 12.6392 9.0905 12.938 8.93239L12.7042 8.49044C12.4759 8.61121 12.2134 8.6804 11.9334 8.6804V9.1804ZM20.5781 19.3057C20.5781 19.5836 20.3392 19.8273 20.0243 19.8273V20.3273C20.5959 20.3273 21.0781 19.8788 21.0781 19.3057H20.5781ZM20.5781 12.8928V19.3057H21.0781V12.8928H20.5781ZM20.0243 12.3712C20.3392 12.3712 20.5781 12.615 20.5781 12.8928H21.0781C21.0781 12.3198 20.5959 11.8712 20.0243 11.8712V12.3712ZM3.97563 12.3712H20.0243V11.8712H3.97563V12.3712ZM3.4219 12.8928C3.4219 12.615 3.66079 12.3712 3.97563 12.3712V11.8712C3.40404 11.8712 2.9219 12.3198 2.9219 12.8928H3.4219ZM3.4219 19.3057V12.8928H2.9219V19.3057H3.4219ZM3.97563 19.8273C3.66081 19.8273 3.4219 19.5837 3.4219 19.3057H2.9219C2.9219 19.8788 3.4041 20.3273 3.97563 20.3273V19.8273ZM20.0243 19.8273H3.97563V20.3273H20.0243V19.8273ZM4.98646 12.9244C4.53451 12.9244 4.15049 13.2787 4.15049 13.737H4.65049C4.65049 13.5739 4.79122 13.4244 4.98646 13.4244V12.9244ZM5.82243 13.737C5.82243 13.2787 5.43841 12.9244 4.98646 12.9244V13.4244C5.1817 13.4244 5.32243 13.5739 5.32243 13.737H5.82243ZM5.82243 18.4616V13.737H5.32243V18.4616H5.82243ZM4.98646 19.2741C5.43841 19.2741 5.82243 18.9198 5.82243 18.4616H5.32243C5.32243 18.6246 5.1817 18.7741 4.98646 18.7741V19.2741ZM4.15049 18.4616C4.15049 18.9198 4.53451 19.2741 4.98646 19.2741V18.7741C4.79122 18.7741 4.65049 18.6246 4.65049 18.4616H4.15049ZM4.15049 13.737V18.4616H4.65049V13.737H4.15049ZM18.6736 13.737C18.6736 13.5739 18.8143 13.4244 19.0096 13.4244V12.9244C18.5576 12.9244 18.1736 13.2787 18.1736 13.737H18.6736ZM18.6736 18.4616V13.737H18.1736V18.4616H18.6736ZM19.0096 18.7741C18.8143 18.7741 18.6736 18.6246 18.6736 18.4616H18.1736C18.1736 18.9198 18.5576 19.2741 19.0096 19.2741V18.7741ZM19.3455 18.4616C19.3455 18.6246 19.2048 18.7741 19.0096 18.7741V19.2741C19.4615 19.2741 19.8455 18.9198 19.8455 18.4616H19.3455ZM19.3455 13.737V18.4616H19.8455V13.737H19.3455ZM19.0096 13.4244C19.2048 13.4244 19.3455 13.5739 19.3455 13.737H19.8455C19.8455 13.2787 19.4616 12.9244 19.0096 12.9244V13.4244ZM11.998 12.9244C11.546 12.9244 11.162 13.2787 11.162 13.737H11.662C11.662 13.5739 11.8027 13.4244 11.998 13.4244V12.9244ZM12.8339 13.737C12.8339 13.2787 12.45 12.9244 11.998 12.9244V13.4244C12.1932 13.4244 12.3339 13.5739 12.3339 13.737H12.8339ZM12.8339 18.4616V13.737H12.3339V18.4616H12.8339ZM11.998 19.2741C12.4499 19.2741 12.8339 18.9198 12.8339 18.4616H12.3339C12.3339 18.6246 12.1932 18.7741 11.998 18.7741V19.2741ZM11.162 18.4616C11.162 18.9198 11.546 19.2741 11.998 19.2741V18.7741C11.8027 18.7741 11.662 18.6246 11.662 18.4616H11.162ZM11.162 13.737V18.4616H11.662V13.737H11.162ZM8.15629 13.7162C8.15629 13.5531 8.29703 13.4036 8.49226 13.4036V12.9036C8.04032 12.9036 7.65629 13.2579 7.65629 13.7162H8.15629ZM8.15629 18.4408V13.7162H7.65629V18.4408H8.15629ZM8.49226 18.7533C8.29702 18.7533 8.15629 18.6039 8.15629 18.4408H7.65629C7.65629 18.899 8.04032 19.2533 8.49226 19.2533V18.7533ZM8.82823 18.4408C8.82823 18.6039 8.6875 18.7533 8.49226 18.7533V19.2533C8.94421 19.2533 9.32823 18.899 9.32823 18.4408H8.82823ZM8.82823 13.7162V18.4408H9.32823V13.7162H8.82823ZM8.49226 13.4036C8.68753 13.4036 8.82823 13.5531 8.82823 13.7162H9.32823C9.32823 13.2579 8.94426 12.9036 8.49226 12.9036V13.4036ZM15.4882 12.9036C15.0363 12.9036 14.6523 13.2579 14.6523 13.7162H15.1523C15.1523 13.5531 15.293 13.4036 15.4882 13.4036V12.9036ZM16.3242 13.7162C16.3242 13.2579 15.9402 12.9036 15.4882 12.9036V13.4036C15.6835 13.4036 15.8242 13.5531 15.8242 13.7162H16.3242ZM16.3242 18.4408V13.7162H15.8242V18.4408H16.3242ZM15.4882 19.2533C15.9402 19.2533 16.3242 18.899 16.3242 18.4408H15.8242C15.8242 18.6039 15.6835 18.7533 15.4882 18.7533V19.2533ZM14.6523 18.4408C14.6523 18.899 15.0363 19.2533 15.4882 19.2533V18.7533C15.293 18.7533 15.1523 18.6039 15.1523 18.4408H14.6523ZM14.6523 13.7162V18.4408H15.1523V13.7162H14.6523Z"
          fill="#A3A8AF"/>
</svg>
