<svg viewBox="0 0 24 24" fill="none" xmlns="http://www.w3.org/2000/svg">
    <path d="M21.8083 6.19183L17.8083 2.19184C17.6833 2.06684 17.5125 1.99601 17.3333 2.00017H16V7.3335C16 8.071 15.4042 8.66683 14.6667 8.66683H9.33333C8.59583 8.66683 8 8.071 8 7.3335V2.00017H4C2.89583 2.00017 2 2.89601 2 4.00017V20.0001C2 21.1043 2.89583 22.0001 4 22.0001H5.33333V16.0002C5.33333 14.896 6.22917 14.0002 7.33333 14.0002H16.6667C17.7708 14.0002 18.6667 14.896 18.6667 16.0002V22.0001H20C21.1042 22.0001 22 21.1043 22 20.0001V6.66683C22 6.48767 21.9333 6.321 21.8083 6.19183Z"
          fill="#A3A8AF"/>
    <path d="M9 2.00024H14.3333V7.33358H9V2.00024Z" fill="#A3A8AF"/>
    <path d="M17 15.3336H7.66667C7.3 15.3336 7 15.6336 7 16.0003V22.0003H17.6667V16.0003C17.6667 15.6336 17.3667 15.3336 17 15.3336Z"
          fill="#A3A8AF"/>
</svg>
