<svg viewBox="0 0 24 24" fill="none" xmlns="http://www.w3.org/2000/svg">
    <path d="M21.4231 10.2692C21.7417 10.2692 22 10.0109 22 9.69228V6.61537C22 6.29673 21.7417 6.03845 21.4231 6.03845H2.57691C2.25832 6.03845 2 6.29673 2 6.61537V9.69228C2 10.0109 2.25832 10.2692 2.57691 10.2692C3.53125 10.2692 4.3077 11.0456 4.3077 12C4.3077 12.9543 3.53129 13.7308 2.57691 13.7308C2.25832 13.7308 2 13.989 2 14.3077V17.3846C2 17.7032 2.25832 17.9615 2.57691 17.9615H21.4231C21.7417 17.9615 22 17.7032 22 17.3846V14.3077C22 13.989 21.7417 13.7308 21.4231 13.7308C20.4688 13.7308 19.6923 12.9543 19.6923 12C19.6923 11.0456 20.4687 10.2692 21.4231 10.2692ZM20.8462 14.8266V16.8077H8.73078V15.0769C8.73078 14.7583 8.47246 14.5 8.15387 14.5C7.83527 14.5 7.57695 14.7583 7.57695 15.0769V16.8077H3.15383V14.8266C4.46887 14.5586 5.46152 13.393 5.46152 12C5.46152 10.607 4.46887 9.44134 3.15383 9.17333V7.19228H7.57691V8.92306C7.57691 9.24169 7.83523 9.49997 8.15383 9.49997C8.47242 9.49997 8.73074 9.24165 8.73074 8.92306V7.19228H20.8461V9.17333C19.5311 9.44138 18.5384 10.607 18.5384 12C18.5384 13.393 19.5311 14.5586 20.8462 14.8266Z"
          fill="#A3A8AF"/>
    <path d="M8.15382 10.6539C7.83519 10.6539 7.5769 10.9122 7.5769 11.2308V12.7693C7.5769 13.0879 7.83522 13.3462 8.15382 13.3462C8.47241 13.3462 8.73073 13.0879 8.73073 12.7693V11.2308C8.73077 10.9122 8.47245 10.6539 8.15382 10.6539Z"
          fill="#A3A8AF"/>
</svg>
