<svg viewBox="0 0 24 24" fill="none" xmlns="http://www.w3.org/2000/svg">
    <path fill-rule="evenodd" clip-rule="evenodd"
          d="M20 4H4C2.9 4 2 4.9 2 6V18C2 19.1 2.9 20 4 20H20C21.1 20 22 19.1 22 18V6C22 4.9 21.1 4 20 4ZM16.8201 17C18.2001 17 19.3201 15.88 19.3201 14.5C19.3201 13.12 18.2001 12 16.8201 12C15.4401 12 14.3201 13.12 14.3201 14.5C14.3201 15.88 15.4401 17 16.8201 17ZM14.3201 12.51C13.7201 12.97 13.3201 13.69 13.3201 14.5C13.3201 15.31 13.7201 16.03 14.3201 16.49C13.9001 16.81 13.3801 17 12.8201 17C11.4401 17 10.3201 15.88 10.3201 14.5C10.3201 13.12 11.4401 12 12.8201 12C13.3901 12 13.9001 12.19 14.3201 12.51Z"
          fill="#A3A8AF"/>
</svg>
