<svg viewBox="0 0 24 24" fill="none" xmlns="http://www.w3.org/2000/svg">
    <path d="M21.8169 18.8982C21.3678 18.4899 20.7798 18.2609 20.1614 18.2532C19.5434 18.2452 18.949 18.4597 18.489 18.8566C18.3283 18.9951 18.1388 19.0881 17.9393 19.1351L19.1363 10.9681C19.224 10.3696 18.8327 9.79618 18.2261 9.63429L17.1245 9.34033V6.04152C17.1245 5.37458 16.5593 4.83199 15.8647 4.83199H14.8881V4.06635C14.8881 3.47835 14.3898 3 13.7773 3H10.313C9.70053 3 9.20225 3.47839 9.20225 4.06635V4.83195H8.19838C7.50365 4.83195 6.93846 5.37454 6.93846 6.04148V9.34033L5.83853 9.63384C5.23021 9.7961 4.83912 10.371 4.92884 10.971L6.14974 19.135C5.91357 19.0996 5.68592 19.0005 5.49599 18.8385L5.48537 18.8293C4.53705 18.0201 3.1195 18.0335 2.18806 18.8606C1.95052 19.0716 1.93606 19.4275 2.15579 19.6556C2.37548 19.8836 2.74622 19.8975 2.98384 19.6865C3.4706 19.2543 4.2113 19.2474 4.70626 19.6698L4.71689 19.6789C5.61037 20.4413 6.93826 20.4766 7.87424 19.7628L8.27268 19.459C8.72276 19.1157 9.36155 19.103 9.82608 19.4282L10.5322 19.9225C10.9607 20.2224 11.4693 20.3718 11.9777 20.3718C12.5081 20.3718 13.0382 20.2091 13.4764 19.885L14.0681 19.4473C14.523 19.1109 15.1614 19.107 15.6207 19.4379L16.1586 19.8253C17.0934 20.4988 18.4029 20.4433 19.2723 19.6933C19.7658 19.2676 20.5295 19.2773 21.0113 19.7151C21.2463 19.9287 21.6172 19.9189 21.8396 19.6933C22.062 19.4678 22.0519 19.1118 21.8169 18.8982ZM10.3742 4.12508H13.7161V4.83199H10.3742V4.12508ZM11.4456 19.1371C11.3681 19.1034 11.2932 19.0628 11.2227 19.0135L10.5166 18.5192C9.6276 17.8969 8.40518 17.9212 7.54373 18.5781L7.28045 18.7789L6.08889 10.8112C6.08264 10.7693 6.1099 10.7291 6.1524 10.7179L11.4456 9.30526V19.1371ZM11.6941 8.07121L8.11045 9.02758V6.04148H8.11041C8.11041 5.99491 8.14987 5.95703 8.19838 5.95703H9.20225V6.78035C9.20225 7.091 9.4646 7.34289 9.78823 7.34289C10.1119 7.34289 10.3742 7.09103 10.3742 6.78035V5.95703H11.4455V6.78035C11.4455 7.091 11.7079 7.34289 12.0315 7.34289C12.3552 7.34289 12.6175 7.09103 12.6175 6.78035V5.95703H13.7161V6.78035C13.7161 7.091 13.9785 7.34289 14.3021 7.34289C14.6257 7.34289 14.8881 7.09103 14.8881 6.78035V5.95703H15.8647C15.9131 5.95703 15.9526 5.99491 15.9526 6.04148V9.02754L12.3689 8.07121C12.1482 8.0123 11.9148 8.01237 11.6941 8.07121ZM16.7938 18.8764L16.3241 18.538C15.4452 17.9048 14.2232 17.9122 13.3527 18.5562L12.761 18.9939C12.7151 19.0278 12.6669 19.0575 12.6175 19.0847V9.30526L17.9122 10.7182C17.9546 10.7295 17.9819 10.7696 17.9758 10.8113L16.7938 18.8764Z"
          fill="#A3A8AF" stroke="#A3A8AF" stroke-width="0.5"/>
</svg>
