<svg width="25" height="24" viewBox="0 0 25 24" fill="none" xmlns="http://www.w3.org/2000/svg">
<path d="M12.8039 12.72C13.3375 12.2581 13.7655 11.6869 14.0588 11.045C14.3521 10.4032 14.5039 9.70571 14.5039 9C14.5039 7.67392 13.9771 6.40215 13.0394 5.46447C12.1018 4.52678 10.83 4 9.50391 4C8.17782 4 6.90605 4.52678 5.96837 5.46447C5.03069 6.40215 4.50391 7.67392 4.50391 9C4.5039 9.70571 4.65571 10.4032 4.94903 11.045C5.24236 11.6869 5.67033 12.2581 6.20391 12.72C4.80405 13.3539 3.61637 14.3775 2.78289 15.6685C1.9494 16.9596 1.50538 18.4633 1.50391 20C1.50391 20.2652 1.60926 20.5196 1.7968 20.7071C1.98434 20.8946 2.23869 21 2.50391 21C2.76912 21 3.02348 20.8946 3.21101 20.7071C3.39855 20.5196 3.50391 20.2652 3.50391 20C3.50391 18.4087 4.13605 16.8826 5.26127 15.7574C6.38648 14.6321 7.91261 14 9.50391 14C11.0952 14 12.6213 14.6321 13.7465 15.7574C14.8718 16.8826 15.5039 18.4087 15.5039 20C15.5039 20.2652 15.6093 20.5196 15.7968 20.7071C15.9843 20.8946 16.2387 21 16.5039 21C16.7691 21 17.0235 20.8946 17.211 20.7071C17.3986 20.5196 17.5039 20.2652 17.5039 20C17.5024 18.4633 17.0584 16.9596 16.2249 15.6685C15.3914 14.3775 14.2038 13.3539 12.8039 12.72ZM9.50391 12C8.91056 12 8.33054 11.8241 7.8372 11.4944C7.34385 11.1648 6.95933 10.6962 6.73227 10.1481C6.50521 9.59987 6.4458 8.99667 6.56155 8.41473C6.67731 7.83279 6.96303 7.29824 7.38259 6.87868C7.80214 6.45912 8.33669 6.1734 8.91864 6.05764C9.50058 5.94189 10.1038 6.0013 10.652 6.22836C11.2001 6.45542 11.6687 6.83994 11.9983 7.33329C12.328 7.82664 12.5039 8.40666 12.5039 9C12.5039 9.79565 12.1878 10.5587 11.6252 11.1213C11.0626 11.6839 10.2996 12 9.50391 12ZM19.2439 12.32C19.8839 11.5993 20.3019 10.7091 20.4477 9.75634C20.5935 8.80362 20.4608 7.82907 20.0657 6.95C19.6705 6.07093 19.0297 5.3248 18.2204 4.80142C17.4111 4.27805 16.4677 3.99974 15.5039 4C15.2387 4 14.9843 4.10536 14.7968 4.29289C14.6093 4.48043 14.5039 4.73478 14.5039 5C14.5039 5.26522 14.6093 5.51957 14.7968 5.70711C14.9843 5.89464 15.2387 6 15.5039 6C16.2996 6 17.0626 6.31607 17.6252 6.87868C18.1878 7.44129 18.5039 8.20435 18.5039 9C18.5025 9.52524 18.3632 10.0409 18.1 10.4954C17.8367 10.9499 17.4588 11.3274 17.0039 11.59C16.8556 11.6755 16.7318 11.7977 16.6443 11.9447C16.5567 12.0918 16.5084 12.2589 16.5039 12.43C16.4997 12.5998 16.5388 12.7678 16.6176 12.9183C16.6963 13.0687 16.812 13.1967 16.9539 13.29L17.3439 13.55L17.4739 13.62C18.6793 14.1917 19.6962 15.096 20.4049 16.2263C21.1136 17.3566 21.4845 18.6659 21.4739 20C21.4739 20.2652 21.5793 20.5196 21.7668 20.7071C21.9543 20.8946 22.2087 21 22.4739 21C22.7391 21 22.9935 20.8946 23.181 20.7071C23.3685 20.5196 23.4739 20.2652 23.4739 20C23.4821 18.4654 23.0977 16.9543 22.3574 15.6101C21.617 14.2659 20.5453 13.1333 19.2439 12.32Z" fill="#A3A8AF"/>
</svg>
