<svg viewBox="0 0 24 24" fill="none" xmlns="http://www.w3.org/2000/svg">
    <path d="M20.851 13.7644C21.5275 13.6535 22 13.1167 22 12.459C22 11.8013 21.5275 11.2645 20.851 11.1536C20.7256 11.1331 20.6911 11.0436 20.6815 10.992C20.672 10.9405 20.6727 10.845 20.7831 10.7846C21.3793 10.4587 21.6316 9.79941 21.3969 9.18132C21.1622 8.56327 20.5267 8.21363 19.8514 8.33125C19.7236 8.35345 19.6582 8.27989 19.6305 8.23407C19.598 8.1802 19.5754 8.0978 19.6519 8.01137L19.6584 8.00395C20.0996 7.50248 20.1007 6.80192 19.6604 6.29902C19.2193 5.79518 18.4974 5.67494 17.9047 6.0068C17.7948 6.06823 17.7083 6.02107 17.6664 5.98741C17.6246 5.95376 17.561 5.88027 17.6052 5.76595C17.8432 5.14909 17.5943 4.48852 17 4.15969C16.4056 3.83086 15.6842 3.95455 15.2458 4.46055C15.1645 4.55437 15.0664 4.53831 15.015 4.52041C14.9637 4.50252 14.8778 4.45426 14.8784 4.33241C14.8819 3.67472 14.4123 3.13558 13.7364 3.02137C13.0605 2.90716 12.4269 3.25983 12.1954 3.87904C12.1525 3.99378 12.0546 4.01092 12 4.01092C11.9454 4.01092 11.8474 3.99378 11.8045 3.879C11.5731 3.25983 10.9394 2.90704 10.2635 3.02137C9.58758 3.13555 9.11797 3.67468 9.12148 4.33241C9.12215 4.46003 9.0343 4.50978 8.98191 4.52805C8.92316 4.54853 8.8377 4.55511 8.7641 4.47017L8.74676 4.45018L8.73434 4.43828C8.2943 3.95095 7.58555 3.83565 7 4.15965C6.40566 4.48852 6.15676 5.14906 6.39484 5.76591C6.43895 5.88024 6.37535 5.95372 6.33355 5.98737C6.29172 6.02099 6.20519 6.06816 6.09531 6.00677C5.5027 5.67498 4.78074 5.79511 4.33957 6.29902C3.89926 6.80192 3.90027 7.50244 4.3416 8.00388L4.35621 8.02072C4.41492 8.08713 4.42211 8.1583 4.37754 8.23227C4.35477 8.27004 4.28691 8.35536 4.14863 8.33125C3.47336 8.21378 2.83785 8.56331 2.60309 9.18136C2.36832 9.79941 2.62074 10.4587 3.21688 10.7847C3.32738 10.8451 3.32797 10.9406 3.31848 10.992C3.30898 11.0436 3.27437 11.1331 3.14898 11.1537C2.47246 11.2645 2 11.8013 2 12.459C2 13.1167 2.47246 13.6535 3.14898 13.7644C3.27437 13.785 3.30898 13.8745 3.31848 13.926C3.32797 13.9776 3.32734 14.073 3.21688 14.1334C2.62074 14.4593 2.36836 15.1186 2.60309 15.7367C2.83781 16.3547 3.47348 16.7042 4.14863 16.5868C4.27375 16.565 4.33824 16.6377 4.36555 16.683C4.39285 16.7284 4.42637 16.8182 4.34414 16.9113C3.90027 17.4129 3.8984 18.1152 4.33957 18.619C4.78074 19.1228 5.50273 19.2431 6.09531 18.9112C6.20519 18.8498 6.29172 18.897 6.33355 18.9306C6.37535 18.9643 6.43898 19.0378 6.39484 19.1521C6.1559 19.7712 6.40555 20.4341 7.0018 20.764C7.59359 21.0915 8.31215 20.9681 8.74902 20.4639L8.75977 20.4512C8.83992 20.3644 8.93484 20.3801 8.98496 20.3976C9.03629 20.4155 9.12223 20.4637 9.1216 20.5856C9.11809 21.2433 9.5877 21.7825 10.2636 21.8967C10.3486 21.9111 10.4328 21.918 10.5157 21.918C11.0924 21.918 11.6023 21.5803 11.8046 21.039C11.8475 20.9242 11.9454 20.9071 12 20.9071C12.0546 20.9071 12.1526 20.9242 12.1955 21.039C12.427 21.6581 13.0607 22.011 13.7365 21.8966C14.4124 21.7824 14.882 21.2433 14.8785 20.5856C14.8779 20.4636 14.9638 20.4155 15.0151 20.3976C15.0665 20.3797 15.1646 20.3636 15.2459 20.4574C15.6843 20.9634 16.4057 21.0872 17 20.7583C17.5944 20.4294 17.8433 19.7689 17.6052 19.152C17.5611 19.0377 17.6247 18.9642 17.6665 18.9306C17.7083 18.8969 17.7949 18.8497 17.9048 18.9112C18.4974 19.243 19.2193 19.1228 19.6605 18.6189C20.1016 18.1151 20.0998 17.4128 19.656 16.9112C19.5737 16.8182 19.6072 16.7283 19.6345 16.683C19.6618 16.6376 19.7264 16.5649 19.8514 16.5867C20.5268 16.7042 21.1623 16.3546 21.397 15.7366C21.6317 15.1185 21.3793 14.4592 20.7832 14.1333C20.6727 14.0729 20.6721 13.9774 20.6816 13.9259C20.6911 13.8745 20.7256 13.785 20.851 13.7644ZM20.6531 12.6551C20.0705 12.7505 19.6278 13.1727 19.5251 13.7305C19.4225 14.2883 19.6879 14.8301 20.2013 15.1107C20.3022 15.1659 20.3332 15.247 20.2935 15.3516C20.2537 15.4565 20.1755 15.4995 20.0612 15.4795C19.4795 15.3783 18.9129 15.6299 18.6174 16.1204C18.3219 16.6109 18.3779 17.207 18.7602 17.639C18.8353 17.724 18.8355 17.8103 18.7608 17.8956C18.6861 17.981 18.5973 17.9957 18.497 17.9395C17.9867 17.6538 17.3644 17.7044 16.9116 18.0685C16.4589 18.4326 16.2988 19.0111 16.5037 19.5424C16.5441 19.6468 16.5135 19.728 16.4128 19.7837C16.3122 19.8394 16.2235 19.8242 16.1493 19.7385C15.7717 19.3027 15.1688 19.1463 14.6134 19.3401C14.0581 19.5338 13.7011 20.025 13.7042 20.5914C13.7048 20.7027 13.6471 20.769 13.5326 20.7883C13.4181 20.8076 13.3402 20.7643 13.3011 20.6595C13.1017 20.1262 12.5911 19.7816 12 19.7816C11.409 19.7816 10.8984 20.1262 10.699 20.6595C10.6598 20.7643 10.582 20.8076 10.4675 20.7883C10.353 20.769 10.2953 20.7027 10.2959 20.5913C10.2989 20.0249 9.94199 19.5338 9.38664 19.3401C8.83125 19.1463 8.2284 19.3027 7.85082 19.7385L7.83988 19.7514C7.76859 19.8293 7.68422 19.8421 7.58902 19.7894C7.51832 19.7503 7.44484 19.6757 7.49629 19.5423C7.70129 19.0111 7.54113 18.4326 7.0884 18.0684C6.63562 17.7043 6.01328 17.6537 5.50301 17.9395C5.4027 17.9957 5.31391 17.9809 5.23918 17.8956C5.16449 17.8103 5.16473 17.7239 5.23988 17.6389C5.62207 17.2069 5.67813 16.6108 5.38262 16.1203C5.08711 15.6298 4.5202 15.3783 3.93887 15.4794C3.82445 15.4995 3.74641 15.4564 3.70664 15.3517C3.66688 15.247 3.69793 15.166 3.79887 15.1108C4.31223 14.8301 4.57762 14.2883 4.475 13.7306C4.37238 13.1727 3.92961 12.7506 3.34703 12.6551C3.2325 12.6364 3.17437 12.5703 3.17437 12.459C3.17437 12.3476 3.23246 12.2816 3.34703 12.2628C3.92961 12.1674 4.37234 11.7452 4.475 11.1874C4.57766 10.6296 4.31223 10.0878 3.79891 9.80712C3.69797 9.75194 3.66691 9.67086 3.70668 9.56623C3.74641 9.46156 3.82445 9.41858 3.93891 9.4385C4.52605 9.54069 5.0975 9.28812 5.39461 8.79492C5.68586 8.31144 5.63082 7.72345 5.25453 7.2958L5.23992 7.27892C5.16477 7.19394 5.16453 7.10765 5.23922 7.02234C5.31395 6.93706 5.4027 6.92227 5.50305 6.97846C6.01332 7.26417 6.63566 7.21355 7.08844 6.8495C7.54121 6.48545 7.70129 5.90689 7.49633 5.37558C7.45602 5.27109 7.4866 5.18994 7.58727 5.13423C7.68789 5.07853 7.7766 5.09377 7.85082 5.17945L7.86816 5.19948L7.88066 5.21146C8.2566 5.62714 8.8432 5.77403 9.38371 5.58555C9.94094 5.39119 10.299 4.89704 10.2959 4.32661C10.2954 4.21524 10.353 4.14895 10.4675 4.12959C10.5818 4.11028 10.6599 4.15359 10.6991 4.25848C10.8984 4.7917 11.4091 5.13629 12.0001 5.13629C12.5911 5.13629 13.1018 4.79174 13.3011 4.25848C13.3403 4.15363 13.4181 4.11028 13.5326 4.12959C13.6471 4.14895 13.7048 4.21524 13.7042 4.32661C13.7012 4.893 14.0581 5.38415 14.6135 5.57787C15.1689 5.77171 15.7717 5.61523 16.1493 5.17945C16.2235 5.09377 16.3122 5.07853 16.4129 5.13423C16.5135 5.1899 16.5441 5.27113 16.5038 5.37558C16.2988 5.90681 16.4589 6.48533 16.9117 6.84946C17.3645 7.21355 17.9868 7.2642 18.4971 6.97843C18.5975 6.92224 18.6862 6.93706 18.7609 7.0223C18.8356 7.10761 18.8354 7.19394 18.7602 7.27888L18.7537 7.28629C18.375 7.71675 18.3198 8.30916 18.6136 8.79668C18.9096 9.28808 19.4779 9.53995 20.0612 9.43842C20.1755 9.41851 20.2537 9.46148 20.2934 9.56615C20.3332 9.67082 20.3021 9.75186 20.2012 9.80704C19.6879 10.0878 19.4225 10.6295 19.5251 11.1873C19.6277 11.7452 20.0705 12.1673 20.6531 12.2627C20.7676 12.2815 20.8257 12.3475 20.8257 12.4589C20.8257 12.5703 20.7677 12.6363 20.6531 12.6551Z"
          fill="#A3A8AF" stroke="#A3A8AF" stroke-width="0.5"/>
    <path d="M13.9603 12.9485C13.8159 12.6861 13.6368 12.4857 13.4233 12.3473C13.2096 12.2089 12.9779 12.0806 12.7283 11.9624C12.4785 11.8442 12.2468 11.7461 12.0333 11.6683C11.8196 11.5904 11.6406 11.4896 11.4962 11.3655C11.3518 11.2416 11.2796 11.096 11.2796 10.9287C11.2796 10.7211 11.3683 10.5583 11.5459 10.44C11.7233 10.3218 11.9746 10.2627 12.2996 10.2627C12.5943 10.2627 12.8622 10.3175 13.1029 10.427C13.3435 10.5366 13.491 10.5913 13.5451 10.5913C13.6895 10.5913 13.8038 10.5228 13.8881 10.3857C13.9723 10.2485 14.0145 10.1156 14.0145 9.98722C14.0145 9.85095 13.9528 9.73258 13.8295 9.63188C13.7061 9.53133 13.5465 9.45725 13.3511 9.40986C13.1555 9.36254 12.9704 9.32847 12.796 9.30766C12.7545 9.30276 12.7137 9.29849 12.6733 9.29475V8.37579C12.6733 8.06505 12.4104 7.81311 12.0861 7.81311C11.7619 7.81311 11.499 8.06505 11.499 8.37579V9.37287C11.258 9.43449 11.0314 9.52965 10.8193 9.65854C10.6027 9.79016 10.4296 9.97453 10.3003 10.2116C10.1708 10.4486 10.1062 10.7223 10.1062 11.0325C10.1062 11.3093 10.1588 11.5558 10.2642 11.7721C10.3694 11.9883 10.5079 12.1613 10.6794 12.2911C10.8508 12.4208 11.0404 12.5376 11.2479 12.6414C11.4556 12.7452 11.6616 12.839 11.8663 12.9225C12.0708 13.0062 12.2589 13.0927 12.4304 13.182C12.6019 13.2715 12.7402 13.3839 12.8456 13.5193C12.9508 13.6549 13.0035 13.8091 13.0035 13.9821C13.0035 14.2302 12.9072 14.4176 12.7147 14.5444C12.522 14.6713 12.2814 14.7347 11.9926 14.7347C11.7819 14.7347 11.5894 14.6987 11.4149 14.6268C11.2403 14.5549 11.1065 14.4756 11.0133 14.3887C10.9199 14.3019 10.8237 14.2225 10.7244 14.1505C10.6252 14.0786 10.5363 14.0427 10.4582 14.0427C10.3257 14.0427 10.2069 14.1106 10.1017 14.246C9.9963 14.3815 9.94373 14.5156 9.94373 14.6482C9.94373 14.9135 10.1483 15.1585 10.5575 15.3834C10.8342 15.5354 11.148 15.6359 11.499 15.6852V16.5521C11.499 16.8629 11.7619 17.1148 12.0861 17.1148C12.4104 17.1148 12.6733 16.8629 12.6733 16.5521V15.6584C13.0286 15.5845 13.333 15.4449 13.5857 15.2388C13.9797 14.9176 14.1769 14.4612 14.1769 13.8697C14.1769 13.518 14.1047 13.211 13.9603 12.9485Z"
          fill="#A3A8AF" stroke="#A3A8AF" stroke-width="0.5"/>
</svg>
