<svg viewBox="0 0 24 24" fill="none" xmlns="http://www.w3.org/2000/svg">
    <path d="M18.6483 6.06029L14.8818 2.49693C14.458 2.09595 13.9028 1.875 13.3194 1.875H6.14844C4.89475 1.875 3.875 2.89475 3.875 4.14844V19.8516C3.875 21.1052 4.89475 22.125 6.14844 22.125H17.0859C18.3396 22.125 19.3594 21.1052 19.3594 19.8516V7.7118C19.3594 7.08959 19.1003 6.48788 18.6483 6.06029ZM14.4375 4.03393L17.1102 6.5625H14.5078C14.4692 6.5625 14.4375 6.53085 14.4375 6.49219V4.03393ZM17.0859 20.7031H6.14844C5.679 20.7031 5.29688 20.321 5.29688 19.8516V4.14844C5.29688 3.679 5.679 3.29688 6.14844 3.29688H13.0156V6.49219C13.0156 7.31509 13.6849 7.98438 14.5078 7.98438H17.9375V19.8516C17.9375 20.321 17.5554 20.7031 17.0859 20.7031Z"
          fill="#A3A8AF" stroke="#A3A8AF" stroke-width="0.25"/>
    <path d="M15.7969 9.6875H7.20312C6.8105 9.6875 6.49219 10.0058 6.49219 10.3984C6.49219 10.7911 6.8105 11.1094 7.20312 11.1094H15.7969C16.1895 11.1094 16.5078 10.7911 16.5078 10.3984C16.5078 10.0058 16.1895 9.6875 15.7969 9.6875Z"
          fill="#A3A8AF" stroke="#A3A8AF" stroke-width="0.25"/>
    <path d="M15.7969 12.8125H7.20312C6.8105 12.8125 6.49219 13.1308 6.49219 13.5234C6.49219 13.9161 6.8105 14.2344 7.20312 14.2344H15.7969C16.1895 14.2344 16.5078 13.9161 16.5078 13.5234C16.5078 13.1308 16.1895 12.8125 15.7969 12.8125Z"
          fill="#A3A8AF" stroke="#A3A8AF" stroke-width="0.25"/>
    <path d="M10.0437 15.9375H7.20312C6.8105 15.9375 6.49219 16.2558 6.49219 16.6484C6.49219 17.0411 6.8105 17.3594 7.20312 17.3594H10.0437C10.4364 17.3594 10.7547 17.0411 10.7547 16.6484C10.7547 16.2558 10.4364 15.9375 10.0437 15.9375Z"
          fill="#A3A8AF" stroke="#A3A8AF" stroke-width="0.25"/>
</svg>
