<svg viewBox="0 0 24 24" fill="none" xmlns="http://www.w3.org/2000/svg">
    <path d="M5 2H16.1227C16.9272 2 17.6988 2.3196 18.2677 2.88848C18.8365 3.45736 19.1561 4.22894 19.1561 5.03346V19.1896C19.1561 19.4578 19.0496 19.715 18.86 19.9046C18.6704 20.0942 18.4132 20.2008 18.145 20.2008H15.1115"
          stroke="#A3A8AF" stroke-width="2" stroke-linecap="round" stroke-linejoin="round"/>
    <path d="M5 2L12.6726 3.53493C13.3602 3.67236 13.979 4.04375 14.4236 4.58592C14.8682 5.12808 15.1113 5.80755 15.1115 6.50873V20.9895C15.1114 21.139 15.0782 21.2867 15.0142 21.4218C14.9501 21.5569 14.8569 21.6762 14.7412 21.771C14.6256 21.8657 14.4903 21.9337 14.3452 21.9699C14.2001 22.0061 14.0488 22.0097 13.9022 21.9804L6.62593 20.5263C6.16732 20.4347 5.75465 20.1869 5.45819 19.8252C5.16174 19.4634 4.99981 19.0102 5 18.5425V2Z"
          stroke="#A3A8AF" stroke-width="2" stroke-linecap="round" stroke-linejoin="round"/>
    <path d="M12.0781 12.1115V14.1338" stroke="#A3A8AF" stroke-width="2" stroke-linecap="round"
          stroke-linejoin="round"/>
</svg>
