<svg width="24" height="25" viewBox="0 0 24 25" fill="none" xmlns="http://www.w3.org/2000/svg">
<path d="M20.6319 9.66937H20.1107V15.728C20.1107 16.6401 19.5895 17.487 18.4821 17.487H7.66772V17.7475C7.66772 18.5945 8.57978 19.4414 9.55698 19.4414H17.7654L20.8925 21.2655L20.4365 19.4414H20.5667C21.5439 19.4414 22 18.5945 22 17.7475V11.1026C22 10.3208 21.6091 9.66937 20.6319 9.66937Z" fill="#A3A8AF"/>
<path d="M16.8534 5.5H4.34528C3.23778 5.5 2 6.4772 2 7.38925V14.9463C2 15.7932 3.04235 16.4446 4.08469 16.5098L3.43322 19.0505L7.7329 16.5749H16.8534C17.9609 16.5749 18.9381 15.9235 18.9381 14.9463V8.88762V7.38925C18.9381 6.4772 17.8958 5.5 16.8534 5.5ZM6.23453 11.8844C5.58306 11.8844 5.12704 11.3632 5.12704 10.7769C5.12704 10.1906 5.64821 9.66938 6.23453 9.66938C6.88599 9.66938 7.34202 10.1906 7.34202 10.7769C7.34202 11.3632 6.88599 11.8844 6.23453 11.8844ZM10.4691 11.8844C9.81759 11.8844 9.36156 11.3632 9.36156 10.7769C9.36156 10.1906 9.81759 9.60423 10.4691 9.60423C11.1205 9.60423 11.5765 10.1254 11.5765 10.7117C11.5765 11.298 11.1205 11.8844 10.4691 11.8844ZM14.7036 11.8844C14.0521 11.8844 13.5961 11.3632 13.5961 10.7769C13.5961 10.1906 14.1173 9.66938 14.7036 9.66938C15.355 9.66938 15.8111 10.1906 15.8111 10.7769C15.8111 11.3632 15.2899 11.8844 14.7036 11.8844Z" fill="#A3A8AF"/>
</svg>
