<svg width="30" height="31" viewBox="0 0 30 31" fill="none" xmlns="http://www.w3.org/2000/svg">
    <path d="M23.1919 6.1625C22.7425 5.825 22.293 5.6 21.6188 5.6H18.3602C18.1355 4.8125 17.3489 4.25 16.5624 4.25H13.3038C12.5172 4.25 11.7306 4.8125 11.5059 5.6H8.35967C7.01129 5.6 6 6.725 6 7.9625V24.3875C6 25.7375 7.12365 26.75 8.35967 26.75H21.6188C22.9672 26.75 23.9785 25.625 23.9785 24.3875V7.9625C24.0908 7.175 23.7537 6.6125 23.1919 6.1625ZM8.47204 16.0625C8.69678 15.725 9.03387 15.725 9.37096 15.95C9.48333 15.95 9.5957 16.0625 9.5957 16.175C9.70806 16.2875 9.70806 16.2875 9.82043 16.2875C10.0452 16.4 10.4946 16.4 10.7194 16.2875C10.8317 16.175 10.8317 16.175 10.8317 16.0625C10.8317 15.95 10.8317 15.95 10.7194 15.8375C10.607 15.725 10.607 15.725 10.4946 15.6125C10.3823 15.5 10.2699 15.5 10.1575 15.3875H10.0452C9.93279 15.3875 9.82043 15.275 9.70806 15.275L9.48333 15.1625C9.2586 15.05 9.03386 14.9375 8.9215 14.825C8.69677 14.7125 8.58441 14.4875 8.47204 14.2625C8.35968 14.0375 8.35967 13.8125 8.35967 13.475C8.35967 13.1375 8.47204 12.9125 8.58441 12.6875C8.69677 12.4625 8.9215 12.2375 9.14624 12.125C9.2586 12.0125 9.48333 12.0125 9.5957 11.9V11.3375C9.5957 10.8875 9.93279 10.55 10.3823 10.55C10.8317 10.55 11.1688 10.8875 11.1688 11.3375V11.9C11.2812 11.9 11.3935 11.9 11.5059 12.0125C11.7306 12.125 11.9554 12.125 12.0677 12.2375C12.2925 12.35 12.2925 12.575 12.2925 12.8C12.2925 12.9125 12.2925 13.1375 12.1801 13.25C12.0677 13.475 11.843 13.5875 11.6183 13.5875C11.5059 13.5875 11.3935 13.5875 11.1688 13.475C10.8317 13.3625 10.2699 13.3625 10.0452 13.475C9.93279 13.475 9.93279 13.5875 9.93279 13.5875C9.93279 13.5875 9.93279 13.7 10.0452 13.7C10.1575 13.8125 10.2699 13.8125 10.3823 13.925C10.607 14.0375 10.8317 14.0375 11.0564 14.15C11.2812 14.2625 11.5059 14.375 11.7306 14.4875C11.9554 14.6 12.1801 14.825 12.2925 15.05C12.4048 15.3875 12.5172 15.6125 12.5172 15.95C12.5172 16.5125 12.2925 16.9625 11.843 17.3C11.6183 17.4125 11.3935 17.525 11.1688 17.6375V18.2C11.1688 18.65 10.8317 18.9875 10.3823 18.9875C9.93279 18.9875 9.5957 18.65 9.5957 18.2V17.75C9.37097 17.75 9.14623 17.6375 8.9215 17.525C8.69677 17.4125 8.24731 17.1875 8.24731 16.625C8.24731 16.4 8.35968 16.2875 8.47204 16.0625ZM11.843 22.025H9.2586C8.69677 22.025 8.35967 21.575 8.35967 21.125C8.35967 20.675 8.80914 20.225 9.2586 20.225H11.843C12.4048 20.225 12.7419 20.675 12.7419 21.125C12.7419 21.575 12.2925 22.025 11.843 22.025ZM13.079 6.05H16.6747V7.175H16.1129H13.079V6.05ZM20.6075 22.1375H14.315C13.7532 22.1375 13.4161 21.6875 13.4161 21.2375C13.4161 20.675 13.8656 20.3375 14.315 20.3375H20.6075C20.8322 20.3375 21.057 20.45 21.2817 20.5625C21.5064 20.7875 21.5064 21.0125 21.5064 21.2375C21.5064 21.6875 21.057 22.1375 20.6075 22.1375ZM20.6075 17.6375H14.315C13.7532 17.6375 13.4161 17.1875 13.4161 16.7375C13.4161 16.175 13.8656 15.8375 14.315 15.8375H20.6075C20.8322 15.8375 21.057 15.95 21.2817 16.0625C21.5064 16.2875 21.5064 16.5125 21.5064 16.7375C21.5064 17.1875 21.057 17.6375 20.6075 17.6375ZM20.6075 13.1375H14.315C13.7532 13.1375 13.4161 12.6875 13.4161 12.2375C13.4161 11.675 13.8656 11.3375 14.315 11.3375H20.6075C21.057 11.3375 21.5064 11.7875 21.5064 12.2375C21.5064 12.6875 21.057 13.1375 20.6075 13.1375Z" fill="#A3A8AF"/>
</svg>
