<svg viewBox="0 0 24 24" fill="none" xmlns="http://www.w3.org/2000/svg">
    <path fill-rule="evenodd" clip-rule="evenodd"
          d="M16.8025 2.00011H7.74265C7.73291 1.99996 7.72319 1.99996 7.71347 2.00011H4.99988C4.44759 2.00011 3.99988 2.44782 3.99988 3.00011C3.99988 3.55239 4.44759 4.00011 4.99988 4.00011H5.85862L4.16783 6.5363C4.05832 6.70056 3.99988 6.89357 3.99988 7.091V19.3637C3.99988 20.9159 5.26577 22.1818 6.81805 22.1818H17.7271C19.2794 22.1818 20.5453 20.9159 20.5453 19.3637V7.091C20.5453 6.89357 20.4868 6.70056 20.3773 6.5363L18.6865 4.00011H19.5453C20.0975 4.00011 20.5453 3.55239 20.5453 3.00011C20.5453 2.44782 20.0975 2.00011 19.5453 2.00011H16.8317C16.822 1.99996 16.8122 1.99996 16.8025 2.00011ZM5.99988 7.39377L8.26232 4.00011H16.2828L18.5453 7.39377V19.3637C18.5453 19.8114 18.1748 20.1818 17.7271 20.1818H6.81805C6.37034 20.1818 5.99988 19.8114 5.99988 19.3637V7.39377ZM13.167 9.81093C13.414 9.31695 13.2138 8.71627 12.7198 8.46928C12.2258 8.2223 11.6251 8.42252 11.3781 8.9165L9.55997 12.5528C9.40498 12.8628 9.42154 13.231 9.60375 13.5258C9.78595 13.8206 10.1078 14.0001 10.4544 14.0001H12.4727L11.3781 16.1892C11.1312 16.6832 11.3314 17.2838 11.8254 17.5308C12.3193 17.7778 12.92 17.5776 13.167 17.0836L14.9852 13.4473C15.1402 13.1373 15.1236 12.7691 14.9414 12.4743C14.7592 12.1795 14.4373 12.0001 14.0907 12.0001H12.0724L13.167 9.81093Z"
          fill="#A3A8AF"/>
</svg>
