<svg  viewBox="0 0 56 56" fill="none" xmlns="http://www.w3.org/2000/svg">
    <path d="M2.51472 32.9312C2.51009 32.9173 2.51008 32.9033 2.50545 32.8893C2.50544 32.8753 2.50081 32.8613 2.49618 32.8427L2.47763 32.7541C2.38023 32.218 1.86673 31.8683 1.33497 31.9662C0.80321 32.0688 0.452031 32.5863 0.554058 33.1224L0.572607 33.2156C0.577239 33.2296 0.577249 33.2482 0.581881 33.2622C0.586513 33.2762 0.586523 33.2949 0.591155 33.3089L0.609703 33.4021C0.702446 33.8729 1.1142 34.1993 1.57202 34.1993C1.63676 34.1993 1.7015 34.1946 1.76624 34.1806C2.29799 34.0734 2.64454 33.5513 2.53789 33.0152L2.51472 32.9312Z" fill="url(#paint0_linear_2295_26052)"/>
    <path d="M53.627 23.3987C53.6316 23.4127 53.6316 23.4267 53.6363 23.4407C53.6363 23.4547 53.6409 23.4733 53.6455 23.4873L53.6641 23.5759C53.7522 24.0514 54.164 24.3824 54.6264 24.3824C54.6865 24.3824 54.7466 24.3777 54.8114 24.3637C55.3431 24.2612 55.6943 23.7437 55.5923 23.2076L55.5737 23.1144C55.5691 23.1004 55.5691 23.0817 55.5645 23.0677C55.5644 23.0491 55.5598 23.0351 55.5552 23.0165L55.5366 22.9232C55.43 22.3871 54.9118 22.0375 54.3801 22.1447C53.8483 22.2519 53.5018 22.774 53.6084 23.3102L53.627 23.3987Z" fill="url(#paint1_linear_2295_26052)"/>
    <path d="M24.96 0.185861C18.167 0.861823 11.8887 4.0505 7.27162 9.15983C2.63143 14.3018 0.0730717 20.9682 0.0768158 27.9283L0.0768308 27.9562C0.0771243 28.5017 0.516686 28.9445 1.05775 28.9445C1.59881 28.9445 2.03789 28.5017 2.0376 27.9562L2.03759 27.9283C2.03039 14.5535 11.967 3.47243 25.1506 2.1578C25.6917 2.10186 26.0845 1.61703 26.0287 1.07627C25.9822 0.530834 25.501 0.134581 24.96 0.185861Z" fill="url(#paint2_linear_2295_26052)"/>
    <path d="M56.0695 28.369C56.0692 27.8235 55.6296 27.3807 55.0885 27.3807C54.5475 27.3807 54.1084 27.8282 54.1087 28.3736L54.1087 28.4296C54.116 41.8183 44.1655 52.8994 30.968 54.2047C30.427 54.256 30.0341 54.7409 30.0853 55.2863C30.1364 55.7991 30.5621 56.1814 31.0615 56.1814C31.0939 56.1814 31.1263 56.1814 31.1587 56.1767C37.9562 55.5054 44.2438 52.3213 48.8655 47.212C53.5149 42.07 56.0733 35.399 56.0695 28.4342L56.0695 28.369Z" fill="url(#paint3_linear_2295_26052)"/>
    <defs>
        <linearGradient id="paint0_linear_2295_26052" x1="1.21043" y1="33.8145" x2="2.95409" y2="33.1068" gradientUnits="userSpaceOnUse">
            <stop stop-color="#0088ff"/>
            <stop offset="1" stop-color="#33A0FF"/>
        </linearGradient>
        <linearGradient id="paint1_linear_2295_26052" x1="54.2632" y1="23.9963" x2="56.0085" y2="23.2903" gradientUnits="userSpaceOnUse">
            <stop stop-color="#0088ff"/>
            <stop offset="1" stop-color="#33A0FF"/>
        </linearGradient>
        <linearGradient id="paint2_linear_2295_26052" x1="8.7319" y1="24.0245" x2="31.1109" y2="14.8941" gradientUnits="userSpaceOnUse">
            <stop stop-color="#0088ff"/>
            <stop offset="1" stop-color="#33A0FF"/>
        </linearGradient>
        <linearGradient id="paint3_linear_2295_26052" x1="38.7464" y1="51.2549" x2="61.1531" y2="42.1139" gradientUnits="userSpaceOnUse">
            <stop stop-color="#0088ff"/>
            <stop offset="1" stop-color="#33A0ff"/>
        </linearGradient>
    </defs>
</svg>
