<svg viewBox="0 0 24 24" fill="none" xmlns="http://www.w3.org/2000/svg">
    <path d="M22 11.2727V17.8182C21.9739 18.5167 21.6724 19.1765 21.1614 19.6535C20.6504 20.1304 19.9714 20.3857 19.2727 20.3636H4.72727C4.02861 20.3857 3.34959 20.1304 2.83857 19.6535C2.32755 19.1765 2.02607 18.5167 2 17.8182V11.2727C2 11.0316 2.09578 10.8004 2.26627 10.6299C2.43675 10.4594 2.66799 10.3636 2.90909 10.3636C3.1502 10.3636 3.38143 10.4594 3.55192 10.6299C3.7224 10.8004 3.81818 11.0316 3.81818 11.2727V17.8182C3.84769 18.0328 3.95845 18.2279 4.12761 18.3632C4.29677 18.4985 4.51142 18.5638 4.72727 18.5455H19.2727C19.4886 18.5638 19.7032 18.4985 19.8724 18.3632C20.0416 18.2279 20.1523 18.0328 20.1818 17.8182V11.2727C20.1818 11.0316 20.2776 10.8004 20.4481 10.6299C20.6186 10.4594 20.8498 10.3636 21.0909 10.3636C21.332 10.3636 21.5632 10.4594 21.7337 10.6299C21.9042 10.8004 22 11.0316 22 11.2727ZM9.80909 8.39091L11.0909 7.1V14.9091C11.0909 15.1502 11.1867 15.3814 11.3572 15.5519C11.5277 15.7224 11.7589 15.8182 12 15.8182C12.2411 15.8182 12.4723 15.7224 12.6428 15.5519C12.8133 15.3814 12.9091 15.1502 12.9091 14.9091V7.1L14.1909 8.39091C14.2754 8.47612 14.376 8.54375 14.4867 8.5899C14.5975 8.63605 14.7164 8.65982 14.8364 8.65982C14.9564 8.65982 15.0752 8.63605 15.186 8.5899C15.2968 8.54375 15.3973 8.47612 15.4818 8.39091C15.5661 8.30596 15.6327 8.20522 15.678 8.09446C15.7232 7.9837 15.7461 7.8651 15.7455 7.74545C15.7461 7.62581 15.7232 7.50721 15.678 7.39645C15.6327 7.28569 15.5661 7.18495 15.4818 7.1L12.6455 4.26364C12.4898 4.10827 12.2831 4.01461 12.0636 4H11.8909C11.709 4.02161 11.5379 4.09766 11.4 4.21818H11.3545L8.51818 7.1C8.347 7.27119 8.25083 7.50336 8.25083 7.74545C8.25083 7.98755 8.347 8.21972 8.51818 8.39091C8.68937 8.56209 8.92154 8.65827 9.16364 8.65827C9.40573 8.65827 9.63791 8.56209 9.80909 8.39091Z"
          fill="#A3A8AF"/>
</svg>
