<svg viewBox="0 0 24 24" fill="none" xmlns="http://www.w3.org/2000/svg">
    <path d="M3.14575 5.56296H3.14575V5.56339V15.789C3.14575 15.9718 3.21789 16.1473 3.34657 16.2768C3.47527 16.4064 3.65 16.4793 3.83238 16.4793H20.1673C20.3493 16.4793 20.5237 16.4067 20.6523 16.2777C20.7809 16.1487 20.8533 15.9738 20.854 15.7914V15.7909V5.56536C20.854 5.38253 20.7818 5.20702 20.6531 5.07749C20.5244 4.94794 20.3497 4.875 20.1673 4.875H3.83238C3.65042 4.875 3.47604 4.9476 3.34741 5.07664C3.2188 5.20565 3.14638 5.38055 3.14575 5.56296ZM19.4817 6.25375V15.0986H4.51804L4.51899 6.25375H19.4817Z"
          fill="#A3A8AF" stroke="#A3A8AF" stroke-width="0.25"/>
    <path d="M1.5616 22.125H22.4384C22.6311 22.125 22.8081 22.0283 22.9335 21.8702C23.0582 21.7129 23.125 21.5046 23.125 21.2918V15.7082C23.125 15.4954 23.0582 15.2871 22.9335 15.1298C22.8081 14.9717 22.6311 14.875 22.4384 14.875H1.5616C1.36891 14.875 1.19188 14.9717 1.06655 15.1298C0.941796 15.2871 0.875 15.4954 0.875 15.7082V21.2918C0.875 21.5046 0.941796 21.7129 1.06655 21.8702C1.19188 22.0283 1.36891 22.125 1.5616 22.125ZM21.7508 16.5414V20.4586H2.2482V16.5414H21.7508Z"
          fill="#A3A8AF" stroke="#A3A8AF" stroke-width="0.25"/>
    <path d="M6.49569 13.125H10.5043C10.6619 13.125 10.8168 13.0737 10.9343 12.977C11.0524 12.8798 11.125 12.7421 11.125 12.592V8.40797C11.125 8.25789 11.0524 8.12021 10.9343 8.02298C10.8168 7.92632 10.6619 7.875 10.5043 7.875H6.49569C6.3381 7.875 6.18319 7.92632 6.06575 8.02298C5.94762 8.12021 5.875 8.25789 5.875 8.40797V12.592C5.875 12.7421 5.94762 12.8798 6.06575 12.977C6.18319 13.0737 6.3381 13.125 6.49569 13.125ZM9.88362 8.94095V12.0591H7.11638V8.94095H9.88362Z"
          fill="#A3A8AF" stroke="#A3A8AF" stroke-width="0.25"/>
    <path d="M13.6593 10.4524C14.0932 10.4524 14.4436 10.0985 14.4436 9.66368C14.4436 9.22889 14.0932 8.875 13.6593 8.875C13.2254 8.875 12.875 9.22889 12.875 9.66368C12.875 10.0985 13.2254 10.4524 13.6593 10.4524Z"
          fill="#A3A8AF" stroke="#A3A8AF" stroke-width="0.25"/>
    <path d="M16.4728 10.3833C16.9067 10.3833 17.2571 10.0294 17.2571 9.59459C17.2571 9.15979 16.9067 8.80591 16.4728 8.80591C16.0388 8.80591 15.6885 9.15979 15.6885 9.59459C15.6885 10.0294 16.0388 10.3833 16.4728 10.3833Z"
          fill="#A3A8AF" stroke="#A3A8AF" stroke-width="0.25"/>
    <path d="M13.6593 12.7231C14.0932 12.7231 14.4436 12.3692 14.4436 11.9344C14.4436 11.4996 14.0932 11.1458 13.6593 11.1458C13.2254 11.1458 12.875 11.4996 12.875 11.9344C12.875 12.3692 13.2254 12.7231 13.6593 12.7231Z"
          fill="#A3A8AF" stroke="#A3A8AF" stroke-width="0.25"/>
    <path d="M16.4728 12.654C16.9067 12.654 17.2571 12.3001 17.2571 11.8653C17.2571 11.4305 16.9067 11.0767 16.4728 11.0767C16.0388 11.0767 15.6885 11.4305 15.6885 11.8653C15.6885 12.3001 16.0388 12.654 16.4728 12.654Z"
          fill="#A3A8AF" stroke="#A3A8AF" stroke-width="0.25"/>
    <path d="M9.56162 19.2557H14.1035C14.2858 19.2557 14.4606 19.1828 14.5893 19.0532C14.7179 18.9237 14.7901 18.7482 14.7901 18.5654C14.7901 18.3825 14.7179 18.207 14.5893 18.0775C14.4606 17.9479 14.2858 17.875 14.1035 17.875H9.56162C9.37925 17.875 9.20452 17.9479 9.07582 18.0775C8.94714 18.207 8.875 18.3825 8.875 18.5654C8.875 18.7482 8.94714 18.9237 9.07582 19.0532C9.20452 19.1828 9.37925 19.2557 9.56162 19.2557Z"
          fill="#A3A8AF" stroke="#A3A8AF" stroke-width="0.25"/>
    <path d="M15.3235 6H12.6765C12.4971 6 12.325 5.93641 12.1981 5.82321C12.0713 5.71001 12 5.55649 12 5.3964V2.6036C12 2.44351 12.0713 2.28999 12.1981 2.17679C12.325 2.06359 12.4971 2 12.6765 2H15.3235C15.5029 2 15.675 2.06359 15.8019 2.17679C15.9287 2.28999 16 2.44351 16 2.6036V5.3964C16 5.55649 15.9287 5.71001 15.8019 5.82321C15.675 5.93641 15.5029 6 15.3235 6ZM13.3529 4.79281H14.6471V3.20719H13.3529V4.79281Z"
          fill="#A3A8AF"/>
    <path d="M15.3235 6H12.6765C12.4971 6 12.325 5.93641 12.1981 5.82321C12.0713 5.71001 12 5.55649 12 5.3964V2.6036C12 2.44351 12.0713 2.28999 12.1981 2.17679C12.325 2.06359 12.4971 2 12.6765 2H15.3235C15.5029 2 15.675 2.06359 15.8019 2.17679C15.9287 2.28999 16 2.44351 16 2.6036V5.3964C16 5.55649 15.9287 5.71001 15.8019 5.82321C15.675 5.93641 15.5029 6 15.3235 6ZM13.3529 4.79281H14.6471V3.20719H13.3529V4.79281Z"
          stroke="#A3A8AF"/>
</svg>
