<svg viewBox="0 0 24 24" fill="none" xmlns="http://www.w3.org/2000/svg">
    <path d="M21.2735 16.8834H20.5485L19.8181 6.93753C19.8047 6.75279 19.7226 6.58 19.5883 6.45388C19.4539 6.32777 19.2773 6.25768 19.0938 6.25771H16.4902V5.1091H17.9391C18.0345 5.1092 18.129 5.0903 18.2172 5.0535C18.3053 5.01669 18.3854 4.9627 18.4529 4.89461C18.5204 4.82651 18.5739 4.74566 18.6104 4.65666C18.6469 4.56767 18.6656 4.47228 18.6656 4.37596V1.73534C18.6659 1.63884 18.6474 1.54321 18.611 1.45396C18.5746 1.36472 18.5212 1.2836 18.4537 1.21527C18.3862 1.14695 18.306 1.09276 18.2177 1.05581C18.1294 1.01887 18.0347 0.999903 17.9391 1H13.5887C13.4932 0.999903 13.3985 1.01887 13.3102 1.05581C13.2219 1.09276 13.1417 1.14695 13.0742 1.21527C13.0067 1.2836 12.9532 1.36472 12.9169 1.45396C12.8805 1.54321 12.8619 1.63884 12.8623 1.73534V4.37596C12.8622 4.47228 12.881 4.56767 12.9175 4.65666C12.954 4.74566 13.0075 4.82651 13.075 4.89461C13.1424 4.9627 13.2226 5.01669 13.3107 5.0535C13.3989 5.0903 13.4933 5.1092 13.5887 5.1091H15.0362V6.25771H11.9155V2.55635C11.9147 2.41005 11.8706 2.26732 11.789 2.14644C11.7073 2.02555 11.5918 1.93201 11.4573 1.87776C11.3227 1.82352 11.1751 1.81105 11.0335 1.84194C10.8919 1.87283 10.7626 1.94568 10.6622 2.05117L9.31265 3.48803L7.96279 2.05117C7.86238 1.94568 7.73309 1.87283 7.59145 1.84194C7.44981 1.81105 7.30227 1.82352 7.16769 1.87776C7.03311 1.93201 6.91761 2.02555 6.83598 2.14644C6.75434 2.26732 6.71028 2.41005 6.70942 2.55635V6.25771H4.90584C4.72256 6.25766 4.54605 6.32759 4.41172 6.45348C4.27738 6.57936 4.19517 6.75189 4.18156 6.93643L3.4511 16.8834H2.72828C2.63286 16.8831 2.5383 16.9017 2.45003 16.9383C2.36176 16.975 2.2815 17.0288 2.21385 17.0967C2.14621 17.1647 2.0925 17.2455 2.0558 17.3344C2.01911 17.4234 2.00015 17.5187 2 17.6151V22.2665C1.99967 22.3632 2.01828 22.4589 2.05476 22.5483C2.09124 22.6377 2.14487 22.7189 2.21256 22.7872C2.28026 22.8556 2.36067 22.9097 2.44919 22.9466C2.5377 22.9834 2.63255 23.0022 2.72828 23.0018H21.2735C21.3693 23.0021 21.4641 22.9833 21.5526 22.9465C21.6411 22.9096 21.7215 22.8555 21.7892 22.7871C21.8568 22.7188 21.9105 22.6376 21.947 22.5482C21.9835 22.4589 22.0021 22.3631 22.0018 22.2665V17.6151C22.0016 17.5187 21.9826 17.4234 21.9459 17.3345C21.9092 17.2455 21.8555 17.1648 21.7879 17.0968C21.7202 17.0289 21.64 16.9751 21.5517 16.9384C21.4635 16.9018 21.369 16.8831 21.2735 16.8834ZM14.3148 2.46664H17.213V3.64319H14.3148V2.46664ZM8.78538 5.05836C9.05921 5.3525 9.56573 5.3525 9.83956 5.05836L10.463 4.39435V6.98496C10.463 6.98753 10.463 6.98937 10.463 6.99195C10.463 6.99452 10.463 6.99673 10.463 6.99893V9.45645H8.16197V7.00261C8.16197 6.99893 8.16416 6.99562 8.16416 6.99195C8.16416 6.98827 8.16197 6.98496 8.16197 6.98128V4.39435L8.78538 5.05836ZM5.58095 7.72545H6.70978V9.45645H6.62458C6.43477 9.46074 6.25417 9.53989 6.12144 9.67694C5.9887 9.814 5.91438 9.99808 5.91438 10.1898C5.91438 10.3815 5.9887 10.5655 6.12144 10.7026C6.25417 10.8397 6.43477 10.9188 6.62458 10.9231H12C12.1898 10.9188 12.3704 10.8397 12.5031 10.7026C12.6359 10.5655 12.7102 10.3815 12.7102 10.1898C12.7102 9.99808 12.6359 9.814 12.5031 9.67694C12.3704 9.53989 12.1898 9.46074 12 9.45645H11.9155V7.72545H18.4194L19.092 16.8783H4.90802L5.58095 7.72545ZM20.5471 21.5334H3.45256V18.3486H20.5471V21.5334Z"
          fill="#A3A8AF"/>
    <path d="M16.0631 9.45648H15.4659C15.3691 9.4543 15.2729 9.47165 15.1829 9.50752C15.0929 9.54339 15.0109 9.59705 14.9417 9.66536C14.8725 9.73368 14.8175 9.81526 14.78 9.90531C14.7425 9.99537 14.7231 10.0921 14.7231 10.1898C14.7231 10.2875 14.7425 10.3842 14.78 10.4743C14.8175 10.5644 14.8725 10.6459 14.9417 10.7142C15.0109 10.7826 15.0929 10.8362 15.1829 10.8721C15.2729 10.908 15.3691 10.9253 15.4659 10.9231H16.0631C16.2529 10.9188 16.4335 10.8397 16.5662 10.7026C16.6989 10.5656 16.7732 10.3815 16.7732 10.1898C16.7732 9.99811 16.6989 9.81403 16.5662 9.67698C16.4335 9.53992 16.2529 9.46077 16.0631 9.45648Z"
          fill="#A3A8AF"/>
</svg>
