<svg viewBox="0 0 25 24" fill="none" xmlns="http://www.w3.org/2000/svg">
    <path fill-rule="evenodd" clip-rule="evenodd"
          d="M7.002 22C5.34515 22 4.002 20.6569 4.002 19V13H3.002C2.1111 13 1.66493 11.9229 2.2949 11.2929L11.2949 2.29289C11.6854 1.90237 12.3186 1.90237 12.7091 2.29289L21.7091 11.2929C22.3391 11.9229 21.8929 13 21.002 13H20.002V19C20.002 20.6569 18.6589 22 17.002 22H7.002ZM12.0026 4.41428L5.35354 11.0634C5.73273 11.2055 6.00263 11.5713 6.00263 12.0001V19.0001C6.00263 19.5524 6.45035 20.0001 7.00263 20.0001L9.00263 19.9991L9.00263 16.0001C9.00263 14.8955 9.89806 14.0001 11.0026 14.0001H13.0026C14.1072 14.0001 15.0026 14.8955 15.0026 16.0001L15.0026 19.9991L17.0026 20.0001C17.5549 20.0001 18.0026 19.5524 18.0026 19.0001V12.0001C18.0026 11.5713 18.2725 11.2055 18.6517 11.0634L12.0026 4.41428ZM13.0026 16.0001H11.0026L11.0026 19.9991H13.0026L13.0026 16.0001Z"
          fill="#A3A8AF"/>
</svg>
