<svg viewBox="0 0 24 24" fill="none" xmlns="http://www.w3.org/2000/svg">
    <path d="M6.75 3V8.25H5.25C4.01625 8.25 3 9.26625 3 10.5V18H6.75V21H17.25V18H21V10.5C21 9.26625 19.9837 8.25 18.75 8.25H17.25V3H6.75ZM8.25 4.5H15.75V8.25H8.25V4.5ZM5.25 9.75H18.75C19.1745 9.75 19.5 10.0755 19.5 10.5V16.5H17.25V13.5H6.75V16.5H4.5V10.5C4.5 10.0755 4.8255 9.75 5.25 9.75ZM6 10.5C5.5875 10.5 5.25 10.8375 5.25 11.25C5.25 11.6625 5.5875 12 6 12C6.4125 12 6.75 11.6625 6.75 11.25C6.75 10.8375 6.4125 10.5 6 10.5ZM8.25 15H15.75V19.5H8.25V15Z"
          fill="#A3A8AF"/>
</svg>
