<svg viewBox="0 0 24 24" fill="none" xmlns="http://www.w3.org/2000/svg">
    <path d="M18.4869 0.0049936L15.3746 0C11.8782 0 9.61858 2.31828 9.61858 5.90643V8.62969H6.48937C6.21897 8.62969 6 8.84891 6 9.11932V13.065C6 13.3354 6.21922 13.5544 6.48937 13.5544H9.61858V23.5106C9.61858 23.781 9.83754 24 10.1079 24H14.1907C14.4611 24 14.68 23.7808 14.68 23.5106V13.5544H18.3388C18.6092 13.5544 18.8282 13.3354 18.8282 13.065L18.8297 9.11932C18.8297 8.98948 18.778 8.86514 18.6864 8.77326C18.5947 8.68138 18.4699 8.62969 18.3401 8.62969H14.68V6.32115C14.68 5.21157 14.9444 4.64829 16.3898 4.64829L18.4864 4.64755C18.7565 4.64755 18.9755 4.42833 18.9755 4.15817V0.494367C18.9755 0.224462 18.7568 0.00549296 18.4869 0.0049936Z"
          fill="#A3A8AF"/>
</svg>
