<svg viewBox="0 0 24 24" fill="none" xmlns="http://www.w3.org/2000/svg">
    <path d="M13.6777 1.3223C13.472 1.1155 13.1926 1 12.9 1H5.2C3.9867 1 3 1.9867 3 3.2V20.8C3 22.0133 3.9867 23 5.2 23H18.4C19.6133 23 20.6 22.0133 20.6 20.8V8.7C20.6 8.4074 20.4845 8.128 20.2777 7.9223L13.6777 1.3223ZM5.2 3.2H12.4446L18.4 9.1554L18.4022 19.2468L15.5774 16.422C15.9624 15.7675 16.2 15.0129 16.2 14.2C16.2 11.7734 14.2266 9.8 11.8 9.8C9.3734 9.8 7.4 11.7734 7.4 14.2C7.4 16.6266 9.3734 18.6 11.8 18.6C12.6129 18.6 13.3675 18.3624 14.022 17.9774L16.8446 20.8H5.2V3.2ZM11.8 16.4C10.5867 16.4 9.6 15.4133 9.6 14.2C9.6 12.9867 10.5867 12 11.8 12C13.0133 12 14 12.9867 14 14.2C14 15.4133 13.0133 16.4 11.8 16.4Z"
          fill="#A3A8AF"/>
</svg>
