<svg viewBox="0 0 24 24" fill="none" xmlns="http://www.w3.org/2000/svg">
    <path d="M20.5307 8.348C20.5186 8.3128 20.5087 8.2787 20.4944 8.2446C20.4405 8.128 20.3734 8.0169 20.2788 7.9223L13.6788 1.3223C13.5842 1.2277 13.4731 1.1606 13.3565 1.1067C13.3235 1.0913 13.2883 1.0825 13.2531 1.0704C13.1607 1.0396 13.0661 1.0198 12.9682 1.0143C12.944 1.0121 12.9231 1 12.9 1H5.2C3.9867 1 3 1.9867 3 3.2V20.8C3 22.0133 3.9867 23 5.2 23H18.4C19.6133 23 20.6 22.0133 20.6 20.8V8.7C20.6 8.6769 20.5879 8.656 20.5857 8.6318C20.5802 8.535 20.5615 8.4404 20.5307 8.348ZM16.8446 7.6H14V4.7554L16.8446 7.6ZM5.2 20.8V3.2H11.8V8.7C11.8 9.3083 12.2917 9.8 12.9 9.8H18.4L18.4022 20.8H5.2Z"
          fill="#A3A8AF"/>
    <path d="M8.5 14.2V16.4H15.1V14.2H8.5Z" fill="#A3A8AF"/>
</svg>
