<svg viewBox="0 0 24 24" fill="none" xmlns="http://www.w3.org/2000/svg">
    <g clip-path="url(#clip0_2202_4250)">
        <path d="M4.34783 22C3.04348 22 2 20.9565 2 19.6522V4.34783C2 3.04348 3.04348 2 4.34783 2H17.1014C17.3913 2 17.6522 2.11594 17.8551 2.31884L21.7101 6.14493C21.913 6.34783 22.029 6.63768 22.029 6.89855V19.6522C22.029 20.9565 20.9855 22 19.6812 22H4.34783ZM19.6522 19.8551C19.7681 19.8551 19.8551 19.7681 19.8551 19.6522V7.33333L16.6667 4.14493H16.2609V7.53623C16.2609 8.49275 15.5072 9.24638 14.5507 9.24638H9.44928C8.49275 9.24638 7.73913 8.49275 7.73913 7.53623V4.14493H4.34783C4.23188 4.14493 4.14493 4.23188 4.14493 4.34783V19.6522C4.14493 19.7681 4.23188 19.8551 4.34783 19.8551H5.18841V15.8261C5.18841 14.5217 6.23188 13.4783 7.53623 13.4783H16.4638C17.7681 13.4783 18.8116 14.5217 18.8116 15.8261V19.8551H19.6522ZM16.6667 19.8551V15.8261C16.6667 15.7101 16.5797 15.6232 16.4638 15.6232H7.53623C7.42029 15.6232 7.33333 15.7101 7.33333 15.8261V19.8551H16.6667ZM14.1159 7.10145V4.14493H9.88406V7.10145H14.1159Z"
              fill="#A3A8AF"/>
        <path d="M21.3913 6.43475L17.5653 2.60867C17.4493 2.49272 17.2754 2.43475 17.1015 2.43475H4.34786C3.30438 2.43475 2.43481 3.30432 2.43481 4.3478V19.6521C2.43481 20.6956 3.30438 21.5652 4.34786 21.5652H19.6522C20.6957 21.5652 21.5653 20.6956 21.5653 19.6521V6.89852C21.5653 6.72461 21.5073 6.57968 21.3913 6.43475ZM14.5508 3.71012V7.5362H9.44931V3.71012H14.5508ZM6.89858 20.2898V15.8261C6.89858 15.4782 7.18844 15.1884 7.53626 15.1884H16.4638C16.8116 15.1884 17.1015 15.4782 17.1015 15.8261V20.2898H6.89858ZM20.2899 19.6521C20.2899 20 20 20.2898 19.6522 20.2898H18.3768V15.8261C18.3768 14.7826 17.5073 13.913 16.4638 13.913H7.53626C6.49279 13.913 5.62322 14.7826 5.62322 15.8261V20.2898H4.34786C4.00003 20.2898 3.71018 20 3.71018 19.6521V4.3478C3.71018 3.99997 4.00003 3.71012 4.34786 3.71012H8.17394V7.5362C8.17394 8.23186 8.75366 8.81157 9.44931 8.81157H14.5508C15.2464 8.81157 15.8261 8.23186 15.8261 7.5362V3.71012H16.8406L20.2899 7.15939V19.6521Z"
              fill="#A3A8AF"/>
    </g>
    <defs>
        <clipPath id="clip0_2202_4250">
            <rect width="20" height="20" fill="white" transform="translate(2 2)"/>
        </clipPath>
    </defs>
</svg>
