<svg viewBox="0 0 24 24" fill="none" xmlns="http://www.w3.org/2000/svg">
    <path d="M11.715 23H19.0622C19.8187 23 20.4326 22.386 20.4326 21.6295V3.80829V2.37047C20.4326 1.61399 19.8187 1 19.0622 1H11.715H9.27202V1.45337C9.2772 1.5 9.27979 1.54922 9.27979 1.59845V4.58549V5.35233C9.27979 6.4171 8.41451 7.28238 7.34974 7.28238H6.5829H3.59585C3.55699 7.28238 3.51554 7.27979 3.47668 7.2772H3V21.6295C3 22.386 3.61399 23 4.37047 23H5.87306H11.715ZM11.9922 18.342H7.20207C6.84456 18.342 6.5544 18.0518 6.5544 17.6943C6.5544 17.3368 6.84456 17.0466 7.20207 17.0466H11.9948C12.3523 17.0466 12.6425 17.3368 12.6425 17.6943C12.6425 18.0518 12.3497 18.342 11.9922 18.342ZM16.785 15.0363H7.20207C6.84456 15.0363 6.5544 14.7461 6.5544 14.3886C6.5544 14.0311 6.84456 13.7409 7.20207 13.7409H16.785C17.1425 13.7409 17.4326 14.0311 17.4326 14.3886C17.4326 14.7461 17.1425 15.0363 16.785 15.0363ZM7.20207 10.2306H16.785C17.1425 10.2306 17.4326 10.5207 17.4326 10.8782C17.4326 11.2358 17.1425 11.5259 16.785 11.5259H7.20207C6.84456 11.5259 6.5544 11.2358 6.5544 10.8782C6.5544 10.5207 6.84456 10.2306 7.20207 10.2306Z"
          fill="#A3A8AF"/>
    <path d="M3.59572 6.50537H7.34961C7.3522 6.50537 7.35738 6.50537 7.35997 6.50537C7.98691 6.50019 8.49469 5.99242 8.49987 5.36548C8.49987 5.36289 8.49987 5.35771 8.49987 5.35512V1.59865C8.49987 1.2515 8.21489 1.02094 7.91956 1.02094C7.77707 1.02094 7.63458 1.07275 7.51541 1.19192L3.18639 5.52092C2.8237 5.88361 3.08018 6.50537 3.59572 6.50537Z"
          fill="#A3A8AF"/>
</svg>
