<svg viewBox="0 0 24 24" fill="none" xmlns="http://www.w3.org/2000/svg">
    <path d="M20.49 8.37C20.49 8.26 20.49 8.26 20.49 8.37C20.38 8.15 20.38 8.04 20.27 7.93L13.67 1.33C13.56 1.22 13.45 1.11 13.34 1.11H13.23C13.12 1 13.12 1 13.01 1C12.9 1 12.9 1 12.9 1H5.2C3.99 1 3 1.99 3 3.2V20.8C3 22.01 3.99 23 5.2 23H18.4C19.61 23 20.6 22.01 20.6 20.8V8.7C20.6 8.7 20.6 8.7 20.6 8.59C20.6 8.48 20.6 8.48 20.49 8.37ZM16.86 7.6H14V4.74L16.86 7.6ZM5.2 20.8V3.2H11.8V8.7C11.8 9.36 12.24 9.8 12.9 9.8H18.4V20.8H5.2Z"
          fill="#A3A8AF"/>
    <path d="M8.5 16.5099V18.7099H15.1V16.5099H8.5Z" fill="#A3A8AF"/>
    <path d="M8.5 12.55V14.75H15.1V12.55H8.5Z" fill="#A3A8AF"/>
</svg>
