<svg viewBox="0 0 24 24" fill="none" xmlns="http://www.w3.org/2000/svg">
    <path d="M14.0581 9.31687L13.952 9.42294C14.1303 9.60123 14.227 9.84914 14.2188 10.1243L14.2188 10.1245C14.2106 10.4128 14.0898 10.6893 13.8764 10.9027L7.70204 17.0771C7.39908 17.38 7.39908 17.87 7.70204 18.1729C8.00499 18.4759 8.49497 18.4759 8.79792 18.1729L14.9723 11.9986C15.4645 11.5063 15.7475 10.8564 15.768 10.1701L15.768 10.17C15.7886 9.46815 15.5337 8.8128 15.0479 8.32706L15.0478 8.32699C14.052 7.33245 12.4047 7.37285 11.3736 8.39734L11.3736 8.39738L4.86734 14.8668L4.86704 14.8671C3.34657 16.3875 3.3466 18.8612 4.86702 20.3823L4.86704 20.3823C5.62701 21.1423 6.62569 21.5225 7.62373 21.5225C8.62303 21.5225 9.62359 21.1416 10.3854 20.3798L10.386 20.3792L19.3917 11.2667C19.3918 11.2666 19.3919 11.2665 19.392 11.2664C20.3643 10.2939 20.9 9.00026 20.9 7.625C20.9 6.24964 20.3642 4.95587 19.3917 3.98397C18.4192 3.0108 17.1254 2.475 15.75 2.475C14.3747 2.475 13.081 3.0107 12.1103 3.98191C12.1103 3.98197 12.1102 3.98203 12.1101 3.98209L3.3293 12.6998L3.32918 12.6999C3.0256 13.0019 3.02391 13.4917 3.32525 13.7955C3.62689 14.1003 4.11687 14.1015 4.42113 13.8004L4.42129 13.8002L13.2038 5.08019L13.2042 5.07982C13.8848 4.39918 14.7879 4.025 15.75 4.025C16.712 4.025 17.6152 4.39918 18.2958 5.07982C18.9758 5.75981 19.35 6.66291 19.35 7.625C19.35 8.587 18.9759 9.49012 18.2927 10.1733L18.292 10.1739L9.28645 19.2864C9.28634 19.2865 9.28624 19.2866 9.28613 19.2867C8.36968 20.2022 6.87921 20.2021 5.96289 19.2864C5.04709 18.3706 5.04715 16.8793 5.9617 15.9642L12.467 9.49637L12.467 9.49634C12.906 9.0596 13.5723 9.04479 13.9523 9.42316L14.0581 9.31687ZM14.0581 9.31687C13.6112 8.87187 12.85 8.90375 12.3612 9.39L10.2794 20.2738C9.54685 21.0063 8.58498 21.3725 7.62373 21.3725C6.66373 21.3725 5.70373 21.0069 4.9731 20.2763C3.51123 18.8138 3.51123 16.435 4.9731 14.9731L11.4794 8.50375C12.4562 7.53312 14.0087 7.50125 14.9419 8.43313C15.3975 8.88875 15.6375 9.50375 15.6181 10.1656C15.5987 10.8131 15.3319 11.4269 14.8662 11.8925L8.69185 18.0669C8.44748 18.3113 8.05248 18.3113 7.8081 18.0669C7.56373 17.8225 7.56373 17.4275 7.8081 17.1831L13.9825 11.0087C14.2219 10.7694 14.3594 10.4569 14.3687 10.1287C14.3781 9.815 14.2675 9.52625 14.0581 9.31687Z"
          fill="#A3A8AF" stroke="#A3A8AF" stroke-width="0.3"/>
</svg>
