<svg width="24" height="24" viewBox="0 0 24 24" fill="none" xmlns="http://www.w3.org/2000/svg">
<g clip-path="url(#clip0_14642_10074)">
<path d="M20.0208 7.44329C20.2286 7.44329 20.4184 7.48848 20.6082 7.5427V7.40714C20.6082 6.46724 19.84 5.69905 18.9001 5.69905H12.4383L10.9833 4.25305C10.8206 4.09038 10.6037 4 10.3778 4H5.27157C4.33166 4 3.56348 4.76819 3.56348 5.70809V7.49751C3.69904 7.4704 3.8346 7.45233 3.97016 7.45233H20.0208V7.44329Z" fill="#A3A8AF"/>
<path fill-rule="evenodd" clip-rule="evenodd" d="M3.97018 8.54587H20.0208C21.1143 8.55491 21.991 9.38636 22 10.4257V10.4528L20.8613 18.5504C20.8432 19.5716 19.9575 20.4031 18.873 20.4031H5.13601C4.04248 20.4031 3.16584 19.5807 3.14776 18.5504L2 10.4528V10.4257C2 9.38636 2.88568 8.55491 3.97018 8.54587ZM11.3629 11.7361V12.7935C13.4505 12.911 14.9508 14.7366 14.9598 17.2219C14.9598 17.3213 14.8785 17.4117 14.7791 17.4298H14.7429C14.6525 17.4298 14.5712 17.3755 14.5441 17.2852C14.0741 15.8843 13.0348 15.1704 11.3719 15.1161V16.1555C11.3719 16.2187 11.3358 16.282 11.2906 16.3181C11.2002 16.3904 11.0646 16.3814 10.9923 16.291L9.09447 13.9774C9.03121 13.8961 9.03121 13.7876 9.10351 13.7063L11.0014 11.6006C11.0375 11.5554 11.0918 11.5283 11.155 11.5283C11.2725 11.5283 11.3629 11.6186 11.3629 11.7361Z" fill="#A3A8AF"/>
</g>
<defs>
<clipPath id="clip0_14642_10074">
<rect width="20" height="16.4121" fill="white" transform="translate(2 4)"/>
</clipPath>
</defs>
</svg>
