<svg viewBox="0 0 24 24" fill="none" xmlns="http://www.w3.org/2000/svg">
    <path fill-rule="evenodd" clip-rule="evenodd"
          d="M20.5204 8.31715C20.5238 8.32736 20.5271 8.33763 20.5307 8.348C20.5615 8.4404 20.5802 8.535 20.5857 8.6318C20.5867 8.64294 20.5898 8.65338 20.5929 8.66366C20.5965 8.67571 20.6 8.68754 20.6 8.7V20.8C20.6 22.0133 19.6133 23 18.4 23H5.2C3.9867 23 3 22.0133 3 20.8V3.2C3 1.9867 3.9867 1 5.2 1H12.9C12.9125 1 12.9243 1.00352 12.9363 1.00711C12.9466 1.01018 12.9571 1.01329 12.9682 1.0143C13.0661 1.0198 13.1607 1.0396 13.2531 1.0704C13.2641 1.07417 13.275 1.07762 13.2859 1.08105C13.31 1.08862 13.3338 1.0961 13.3565 1.1067C13.4731 1.1606 13.5842 1.2277 13.6788 1.3223L20.2788 7.9223C20.3734 8.0169 20.4405 8.128 20.4944 8.2446C20.5045 8.26866 20.5124 8.29271 20.5204 8.31715ZM14 7.6H16.8446L14 4.7554V7.6ZM5.2 3.2V20.8H18.4022L18.4 9.8H12.9C12.2917 9.8 11.8 9.3083 11.8 8.7V3.2H5.2Z"
          fill="#A3A8AF"/>
    <path d="M12.9 12H10.7V14.2H8.5V16.4H10.7V18.6H12.9V16.4H15.1V14.2H12.9V12Z" fill="#A3A8AF"/>
</svg>
