<svg viewBox="0 0 24 24" fill="none" xmlns="http://www.w3.org/2000/svg">
    <g clip-path="url(#clip0_533_42)">
        <path d="M10.242 11.3202C5.80614 11.5082 3.80036 12.6606 3.20248 13.0897C3.07229 13.1813 2.99515 13.3308 2.99997 13.4899C3.07229 16.5227 5.50238 18.7503 8.95947 19.7146C9.71164 18.7647 10.2517 17.6895 10.5506 16.4986C10.9894 14.7532 10.811 12.2845 10.242 11.3202ZM6.68367 15.1775C6.1533 15.1775 5.71935 14.7435 5.71935 14.2132C5.71935 13.6828 6.1533 13.2488 6.68367 13.2488C7.21405 13.2488 7.64799 13.6828 7.64799 14.2132C7.64799 14.7483 7.21887 15.1775 6.68367 15.1775Z"
              fill="#A3A8AF"/>
        <path d="M20.9411 12.6992C20.5602 10.4909 19.1137 9.04439 14.6971 7.99328C12.4262 7.45326 11.0858 4.86406 10.7097 2.41951C10.6422 1.99039 10.1022 1.85056 9.84179 2.19772C9.41749 2.76184 9.26802 3.61044 9.34517 4.93156C9.45606 6.80717 8.7714 7.40022 7.07901 7.63166C6.66918 7.68952 6.51489 8.19097 6.81383 8.47062C8.04334 9.60369 9.7309 10.0714 11.6258 10.1244H12.0115C12.1658 10.1244 12.3153 10.1292 12.4696 10.1244H15.0105C15.3432 10.1244 15.6132 10.3944 15.6132 10.7271C15.6132 11.0598 15.3432 11.3298 15.0105 11.3298H11.5197C12.1031 13.0945 12.1803 14.9605 11.7174 16.7927C11.4281 17.9451 10.9411 19.0058 10.2806 19.9653C10.5265 19.9894 10.7724 20.0039 11.0231 20.0039H13.1108C13.2073 20.3559 13.376 20.7271 13.6701 21.0646C14.5236 22.0386 15.7386 22.0241 16.1292 21.9952C16.2111 21.9904 16.2786 21.9373 16.3027 21.8602C16.4136 21.5564 16.6161 20.7175 16.0327 19.758C19.2343 18.9769 21.5727 16.3298 20.9411 12.6992Z"
              fill="#A3A8AF"/>
    </g>
    <defs>
        <clipPath id="clip0_533_42">
            <rect width="18.0424" height="20" fill="white" transform="translate(3 2)"/>
        </clipPath>
    </defs>
</svg>
