<svg viewBox="0 0 24 24" fill="none" xmlns="http://www.w3.org/2000/svg">
    <path d="M16.2718 7.70892C15.5789 7.59925 14.881 7.66405 14.213 7.87343C12.9617 8.26226 11.6507 8.26226 10.3994 7.87343C9.73142 7.66405 9.03351 7.59925 8.34059 7.70892C5.31467 8.1825 3.25086 11.8116 4.25784 15.69C5.32962 19.8126 8.11128 22.4198 11.1422 21.9462C11.1472 21.9462 11.1522 21.9462 11.1522 21.9462C11.9199 21.8216 12.6925 21.8216 13.4602 21.9462C13.4652 21.9462 13.4702 21.9462 13.4702 21.9462C16.5011 22.4248 19.2828 19.8126 20.3545 15.69C21.3615 11.8116 19.3027 8.1825 16.2718 7.70892ZM8.33062 11.0389C7.44328 11.8066 7.09433 13.1725 7.44328 14.5185C7.6028 15.1317 7.83212 15.685 8.12125 16.1685C8.30071 16.4627 8.20599 16.8465 7.91188 17.026C7.81218 17.0858 7.70251 17.1157 7.58785 17.1157C7.37848 17.1157 7.16911 17.011 7.05445 16.8166C6.70051 16.2333 6.42633 15.5654 6.2369 14.8325C5.76831 13.028 6.2718 11.1685 7.51806 10.0968C7.77728 9.87243 8.1711 9.90234 8.39543 10.1616C8.61975 10.4208 8.58984 10.8146 8.33062 11.0389Z"
          fill="#A3A8AF"/>
    <path d="M12.9318 6.61718C13.0365 6.60223 13.1212 6.52745 13.1511 6.42276C13.2857 5.9442 13.5399 4.48857 12.1092 3.06284C10.9078 1.86145 9.3226 1.96613 8.77923 2.04091C8.66457 2.06085 8.57484 2.15058 8.55989 2.27022C8.48013 2.81359 8.38042 4.39884 9.58182 5.60023C10.7982 6.82157 12.4183 6.69694 12.9318 6.61718Z"
          fill="#A3A8AF"/>
</svg>
