<svg viewBox="0 0 24 24" fill="none" xmlns="http://www.w3.org/2000/svg">
    <path d="M3.17357 8H15V6H3.17357C2.52545 6 2 6.44773 2 6.99998C2 7.55223 2.52545 8 3.17357 8Z" fill="#A3A8AF"/>
    <path d="M3.17357 12.5H15V10.5H3.17357C2.52545 10.5 2 10.9477 2 11.5C2 12.0523 2.52545 12.5 3.17357 12.5Z"
          fill="#A3A8AF"/>
    <path d="M3.33951 15V15C2.59975 15 2 15.4477 2 16C2 16.5523 2.59975 17 3.33951 17H12.7174C12.6114 16.7565 12.5555 16.4996 12.5555 16.2361C12.5555 15.7948 12.7105 15.3715 13 15H3.33951Z"
          fill="#A3A8AF"/>
    <path d="M21.6679 15.1184C21.2252 14.576 20.5074 14.576 20.0646 15.1184L19 16.2587V4.38875C19 3.62173 18.6262 3 18 3C17.3739 3 17 3.62177 17 4.38875V16.2587L15.9354 15.1184C15.4926 14.5761 14.7748 14.576 14.3321 15.1184C13.8893 15.6607 13.8893 16.54 14.3321 17.0824L17.1982 20.5932C17.64 21.1347 18.3588 21.1365 18.8018 20.5932L21.6679 17.0824C22.1107 16.54 22.1107 15.6607 21.6679 15.1184Z"
          fill="#A3A8AF"/>
</svg>
