<svg viewBox="0 0 24 24" fill="none" xmlns="http://www.w3.org/2000/svg">
    <path d="M11.1323 16.6249C11.1323 16.2988 11.1611 15.9822 11.209 15.6753C9.13704 15.6273 7.46791 13.939 7.46791 11.8478C7.46791 9.72781 9.185 8.01072 11.305 8.01072C13.07 8.01072 14.5473 9.2098 14.9886 10.8406C15.7272 10.5336 16.5426 10.3609 17.3963 10.3609C18.0582 10.3609 18.7009 10.4664 19.3053 10.6583L20.2933 9.75659C20.629 9.44962 20.7058 8.96039 20.4756 8.5671L18.7297 5.54541C18.5091 5.15211 18.039 4.96985 17.6074 5.11374L15.8423 5.67011C15.6217 5.50704 15.3914 5.35356 15.1516 5.21926C14.9022 5.07537 14.6336 4.94107 14.365 4.81637L13.9909 3.01295C13.895 2.57168 13.5017 2.25513 13.0508 2.25513H9.55911C9.10826 2.25513 8.72455 2.57168 8.62862 3.01295L8.23533 4.81637C7.97632 4.93148 7.72691 5.05618 7.4871 5.19048C7.23769 5.33437 6.98828 5.49745 6.75806 5.67011L4.99301 5.10415C4.57093 4.96985 4.10089 5.15211 3.87067 5.53582L2.1248 8.5671C1.90417 8.9508 1.98091 9.44962 2.31666 9.75659L3.67881 11.0036C3.65004 11.2818 3.63085 11.5696 3.63085 11.8478C3.63085 12.126 3.65004 12.4138 3.67881 12.7015L2.31666 13.9486C1.98091 14.2555 1.90417 14.7448 2.1344 15.1381L3.88026 18.1598C4.10089 18.5531 4.57093 18.7353 5.0026 18.5914L6.76765 18.035C7.00747 18.2077 7.25687 18.3708 7.50628 18.5147C7.7461 18.649 7.98592 18.7737 8.23533 18.8888L8.62862 20.6922C8.72455 21.1239 9.10826 21.4404 9.55911 21.4404H13.0508C13.1468 21.4404 13.2427 21.4213 13.329 21.3925C11.9861 20.2414 11.1323 18.5339 11.1323 16.6249Z"
          fill="#A3A8AF"/>
    <path fill-rule="evenodd" clip-rule="evenodd"
          d="M19.3144 13.3061C19.1897 13.2294 19.065 13.1718 18.9307 13.1143L18.7389 12.2221C18.6909 12.0015 18.4991 11.848 18.2784 11.848H16.5613C16.3407 11.848 16.1489 12.0015 16.1009 12.2221L15.909 13.1143C15.7843 13.1718 15.6596 13.2294 15.5445 13.2965C15.4198 13.3637 15.3047 13.4404 15.1896 13.5267L14.3263 13.2486C14.1152 13.1814 13.885 13.2677 13.7795 13.4596L12.9257 14.9465C12.8106 15.1383 12.849 15.3781 13.0121 15.5316L13.6835 16.1455C13.6644 16.2894 13.6644 16.4237 13.6644 16.5676C13.6644 16.7019 13.674 16.8458 13.6835 16.9897L13.0121 17.6036C12.849 17.7571 12.8106 17.9969 12.9257 18.1888L13.7795 19.6756C13.8946 19.8675 14.1152 19.9538 14.3263 19.8867L15.1896 19.6085C15.3047 19.6948 15.4294 19.7716 15.5541 19.8483C15.6692 19.9154 15.7939 19.973 15.9186 20.0306L16.1105 20.9227C16.1585 21.1433 16.3503 21.2968 16.5709 21.2968H18.288C18.5087 21.2968 18.7005 21.1433 18.7485 20.9227L18.9403 20.0306C19.0746 19.973 19.1993 19.9059 19.324 19.8387C19.4391 19.7716 19.5543 19.6948 19.6694 19.6181L20.5327 19.8963C20.7437 19.9634 20.974 19.8771 21.0795 19.6852L21.9332 18.1984C22.0483 18.0065 22.01 17.7667 21.8469 17.6132L21.1754 16.9993C21.185 16.8362 21.185 16.7019 21.185 16.558C21.185 16.4237 21.1754 16.2798 21.1658 16.1455L21.8373 15.5316C22.0004 15.3781 22.0388 15.1383 21.9236 14.9465L21.0699 13.4596C20.9548 13.2677 20.7342 13.1814 20.5231 13.2486L19.6598 13.5267C19.5447 13.4404 19.4295 13.3733 19.3144 13.3061ZM17.4151 18.4478C18.4607 18.4478 19.3048 17.6036 19.3048 16.558C19.3048 15.5124 18.4607 14.6683 17.4151 14.6683C16.3695 14.6683 15.5253 15.5124 15.5253 16.558C15.5349 17.6036 16.3791 18.4478 17.4151 18.4478Z"
          fill="#A3A8AF"/>
</svg>
