<svg viewBox="0 0 24 24" fill="none" xmlns="http://www.w3.org/2000/svg">
    <path d="M19.7852 10.2422C19.5859 9.37891 19.2031 8.51953 18.7305 7.75C18.7109 7.71875 18.7109 7.67969 18.7266 7.64844L19.668 5.66797C19.6875 5.62891 19.6797 5.57813 19.6484 5.54688L18.3555 4.25391C18.3242 4.22266 18.2734 4.21484 18.2344 4.23438L16.2539 5.17578C16.2227 5.19141 16.1836 5.1875 16.1523 5.17188C15.3828 4.69922 14.6172 4.41016 13.7578 4.21484C13.7227 4.20703 13.6914 4.17969 13.6797 4.14453L13.0234 2.07422C13.0078 2.03125 12.9688 2 12.9219 2H11.0742C11.0273 2 10.9883 2.02734 10.9727 2.07031L10.2188 4.14453C10.207 4.17969 10.1758 4.20312 10.1406 4.21094C9.28125 4.41016 8.51172 4.79297 7.74609 5.26562C7.71484 5.28516 7.67578 5.28516 7.64453 5.26953L5.66406 4.33203C5.625 4.3125 5.57813 4.32031 5.54688 4.35156L4.25781 5.54688C4.22266 5.57813 4.21484 5.62891 4.23438 5.67188L5.17578 7.64844C5.19141 7.67969 5.1875 7.71875 5.17188 7.75C4.69922 8.51562 4.41016 9.28516 4.21484 10.1445C4.20703 10.1797 4.17969 10.2109 4.14844 10.2227L2.07031 10.9727C2.02734 10.9883 2 11.0273 2 11.0742V12.9258C2 12.9727 2.02734 13.0117 2.07031 13.0273L4.14453 13.7812C4.17969 13.793 4.20312 13.8242 4.21094 13.8594C4.41016 14.7188 4.78906 15.5781 5.17188 16.2539C5.1875 16.2852 5.19141 16.3203 5.17578 16.3516L4.23047 18.332C4.21094 18.3711 4.21875 18.4219 4.25 18.4531L5.54297 19.7461C5.57422 19.7773 5.625 19.7852 5.66406 19.7656L7.64453 18.8242C7.67578 18.8086 7.71484 18.8125 7.74609 18.8281C8.51172 19.3047 9.28125 19.6836 10.1406 19.8828C10.1758 19.8906 10.2031 19.9141 10.2148 19.9492L10.9688 21.9258C10.9844 21.9688 11.0234 21.9961 11.0703 21.9961H12.9219C12.9688 21.9961 13.0078 21.9688 13.0234 21.9258L13.7812 19.8438C13.793 19.8125 13.8164 19.7891 13.8477 19.7773C14.0859 19.6992 14.375 19.625 14.6289 19.5469C14.707 19.5234 14.7305 19.4258 14.6719 19.3672L13.2383 17.9375C13.2148 17.9141 13.1797 17.9023 13.1445 17.9062C9.57812 18.5312 6.37891 16.082 6.03125 12.625C5.66016 8.94922 8.69141 5.78125 12.3789 6.00781C15.8711 6.22266 18.4492 9.38281 17.9062 12.7422C17.9023 12.7773 17.9102 12.8125 17.9375 12.8359L19.4766 14.375C19.5312 14.4297 19.625 14.4102 19.6523 14.3359C19.7227 14.1406 19.7812 13.9766 19.793 13.7695C19.7969 13.7266 19.8242 13.6875 19.8672 13.6719C20.1992 13.5664 21.582 13.125 21.9219 13.0195C21.9648 13.0039 21.9961 12.9648 21.9961 12.918V11.0742C21.9961 11.0273 21.9648 10.9883 21.9219 10.9727L19.8594 10.3203C19.8203 10.3086 19.7969 10.2773 19.7852 10.2422Z"
          fill="#A3A8AF"/>
    <path d="M21.6016 19.3984L15.7032 13.4999C17.1016 10.3984 14.2032 7.1015 11.0039 7.99994L12.8047 9.80072C13.6055 10.6015 13.6055 11.9023 12.8047 12.6015C12.1055 13.4023 10.7032 13.4023 10.0039 12.6015L8.20316 10.9023C7.30473 13.7031 10.2032 16.9023 13.5039 15.6015L19.4024 21.4999C20.0039 22.1015 20.9024 22.1015 21.5039 21.4999C22.1016 20.9999 22.1016 19.9999 21.6016 19.3984Z"
          fill="#A3A8AF"/>
</svg>
