<svg viewBox="0 0 24 24" fill="none" xmlns="http://www.w3.org/2000/svg">
    <path d="M19.338 10.7598H19.213V10.8848V20.5651H4.78675V10.8848V10.7598H4.66175H3.2229H3.0979V10.8848V21.3773C3.0979 21.8313 3.48135 22.1896 3.9423 22.1896H20.0574C20.5184 22.1896 20.9018 21.8313 20.9018 21.3773V10.8848V10.7598H20.7768H19.338Z"
          fill="#A3A8AF" stroke="#A3A8AF" stroke-width="0.25"/>
    <path d="M20.4362 10.0725H3.56385V7.32139H20.4362V10.0725ZM21.2806 5.69678H2.71945C2.2585 5.69678 1.875 6.05507 1.875 6.50905V10.8848C1.875 11.3387 2.25845 11.6971 2.71945 11.6971H21.2806C21.7416 11.6971 22.125 11.3388 22.125 10.8848V6.50908C22.125 6.05512 21.7415 5.69678 21.2806 5.69678Z"
          fill="#A3A8AF" stroke="#A3A8AF" stroke-width="0.25"/>
    <path d="M8.28407 1.9397V1.9397H8.28304C6.78812 1.9397 5.56812 3.13418 5.56812 4.60767C5.56812 6.10427 6.786 7.32147 8.28304 7.32147H8.40804V7.19647V5.82186V5.69686H8.28304C7.73431 5.69686 7.25696 5.20318 7.25696 4.60763C7.25696 4.03041 7.71923 3.56451 8.27632 3.56423C9.28974 3.57286 10.0116 4.31863 10.4902 5.10515C10.7276 5.49522 10.8996 5.8867 11.0129 6.18315C11.0694 6.33119 11.1111 6.45504 11.1388 6.54252C11.1527 6.58625 11.163 6.62086 11.17 6.64481C11.1768 6.6683 11.1801 6.68088 11.1804 6.68177L11.1804 6.68182L11.2107 6.80076L11.3302 6.77258L12.7271 6.44313L12.8512 6.41385L12.8195 6.29034C12.7959 6.1985 12.509 5.12566 11.8101 4.06956C11.1112 3.01356 9.9856 1.95383 8.28407 1.9397Z"
          fill="#A3A8AF" stroke="#A3A8AF" stroke-width="0.25"/>
    <path d="M15.7106 1.93969L15.7096 1.9397C14.0111 1.95383 12.887 3.01368 12.189 4.06962C11.4909 5.12571 11.2039 6.19855 11.1802 6.29025L11.1483 6.41386L11.2726 6.44317L12.6695 6.77262L12.7882 6.80064L12.8191 6.68257C12.8191 6.68259 12.8225 6.66993 12.8298 6.6454C12.837 6.62139 12.8476 6.58672 12.8617 6.54293C12.89 6.45533 12.9325 6.33139 12.9899 6.18328C13.1049 5.88669 13.2789 5.49511 13.5173 5.10498C13.9984 4.31785 14.7187 3.57289 15.7174 3.56427C16.2811 3.56455 16.743 4.03089 16.743 4.60767C16.743 5.20322 16.2656 5.6969 15.7169 5.6969H15.5919V5.8219V7.19647V7.32147H15.7169C17.2139 7.32147 18.4318 6.10427 18.4318 4.60767C18.4318 3.13398 17.2116 1.9397 15.7106 1.93969Z"
          fill="#A3A8AF" stroke="#A3A8AF" stroke-width="0.25"/>
    <path d="M14.2833 6.50928V6.38428H14.1583H12.7195H12.5945V6.50928V21.3776V21.5026H12.7195H14.1583H14.2833V21.3776V6.50928Z"
          fill="#A3A8AF" stroke="#A3A8AF" stroke-width="0.25"/>
    <path d="M11.4054 6.50928V6.38428H11.2804H9.84155H9.71655V6.50928V21.3776V21.5026H9.84155H11.2804H11.4054V21.3776V6.50928Z"
          fill="#A3A8AF" stroke="#A3A8AF" stroke-width="0.25"/>
</svg>
