<svg viewBox="0 0 24 24" fill="none" xmlns="http://www.w3.org/2000/svg">
    <path d="M3.25 12.501V20.3957C3.25 21.122 3.81125 21.7115 4.5 21.7115H10.75V12.501H3.25Z" fill="#A3A8AF"/>
    <path d="M20.75 7.23783H16.795C17.0788 7.03388 17.3225 6.83125 17.4925 6.64967C18.5012 5.58257 18.5012 3.84572 17.4925 2.77862C16.5125 1.73915 14.805 1.74178 13.8263 2.77862C13.2838 3.35099 11.8463 5.68125 12.045 7.23783H11.955C12.1525 5.68125 10.715 3.35099 10.1737 2.77862C9.19375 1.74178 7.48625 1.74178 6.5075 2.77862C5.5 3.84572 5.5 5.58257 6.50625 6.64967C6.6775 6.83125 6.92125 7.03388 7.205 7.23783H3.25C2.56125 7.23783 2 7.82862 2 8.55362V10.5273C2 10.8905 2.28 11.1852 2.625 11.1852H10.75V8.55362H13.25V11.1852H21.375C21.72 11.1852 22 10.8905 22 10.5273V8.55362C22 7.82862 21.44 7.23783 20.75 7.23783ZM10.6763 7.19441C10.6763 7.19441 10.6237 7.23783 10.445 7.23783C9.58125 7.23783 7.9325 6.29309 7.39375 5.72204C6.87 5.16678 6.87 4.26151 7.39375 3.70625C7.6475 3.43783 7.98375 3.29046 8.34125 3.29046C8.6975 3.29046 9.03375 3.43783 9.2875 3.70625C10.13 4.59836 10.9675 6.8773 10.6763 7.19441ZM13.5538 7.23783C13.3763 7.23783 13.3237 7.19572 13.3237 7.19441C13.0325 6.8773 13.87 4.59836 14.7125 3.70625C15.2163 3.17072 16.0975 3.16809 16.6063 3.70625C17.1313 4.26151 17.1313 5.16678 16.6063 5.72204C16.0675 6.29309 14.4187 7.23783 13.5538 7.23783Z"
          fill="#A3A8AF"/>
    <path d="M13.25 12.501V21.7115H19.5C20.19 21.7115 20.75 21.122 20.75 20.3957V12.501H13.25Z" fill="#A3A8AF"/>
</svg>
