<svg viewBox="0 0 24 24" fill="none" xmlns="http://www.w3.org/2000/svg">
    <path d="M15.7502 2.65452L15.7502 2.65453L17.6838 6.00358C17.6838 6.00359 17.6838 6.00359 17.6838 6.0036C17.8964 6.37165 17.7703 6.84229 17.4022 7.05478L10.1711 11.2296H18.4453C18.8703 11.2296 19.2149 11.5742 19.2149 11.9992V22.3546C19.2149 22.7796 18.8703 23.1242 18.4453 23.1242H5.55469C5.1297 23.1242 4.78516 22.7796 4.78516 22.3546V14.3392L4.00587 14.7891C4.00587 14.7892 4.00587 14.7892 4.00586 14.7892C3.64029 15.0003 3.17287 14.8774 2.95837 14.5139L0.981816 11.1648L0.981806 11.1648C0.877372 10.9878 0.848018 10.7763 0.9004 10.5775C0.952774 10.3788 1.08246 10.2092 1.26065 10.1067C1.26066 10.1067 1.26066 10.1067 1.26067 10.1067L3.0797 9.05983C2.75881 8.83618 2.48816 8.54326 2.287 8.1948C1.92606 7.56976 1.83014 6.84083 2.0169 6.14366L2.01691 6.14366C2.20372 5.44644 2.65126 4.86316 3.27638 4.50227M15.7502 2.65452L3.33888 4.61053M15.7502 2.65452C15.5379 2.2868 15.0679 2.16053 14.6999 2.37236L12.9082 3.40352M15.7502 2.65452L12.9082 3.40352M3.27638 4.50227L3.33888 4.61053M3.27638 4.50227C3.27638 4.50227 3.27638 4.50228 3.27638 4.50228L3.33888 4.61053M3.27638 4.50227C4.14289 4.00201 5.20897 4.02011 6.05863 4.54933L6.05895 4.54953L6.05908 4.54961L6.0591 4.54962C6.05928 4.54974 6.06514 4.55367 6.07059 4.55779L6.0649 4.55324L6.0779 4.56135L6.13215 4.59517L6.32575 4.71583L6.91311 5.08193L7.50044 5.44799L7.56855 5.49044M3.33888 4.61053C4.16538 4.13336 5.18203 4.15059 5.99255 4.65543L7.57356 5.64085L7.56855 5.49044M7.56855 5.49044L7.69399 5.56862L7.69627 5.57004L7.63283 3.66625M7.56855 5.49044L7.50791 3.67048M7.50791 3.67048L7.63283 3.66625M7.50791 3.67048C7.47399 2.6699 7.99146 1.73705 8.85824 1.23665C10.1492 0.491298 11.8054 0.935207 12.5507 2.22609C12.7609 2.59007 12.8811 2.99158 12.9082 3.40352M7.50791 3.67048L7.5079 3.67041L7.63283 3.66625M7.63283 3.66625L12.9082 3.40352M3.50358 6.54196L3.50358 6.54197C3.42304 6.84257 3.46427 7.15581 3.61987 7.4253C3.77547 7.6948 4.02613 7.88714 4.32669 7.96768C4.56534 8.03163 4.81188 8.01856 5.03802 7.93281L6.87832 6.87372L5.2494 5.85851L5.24414 5.85588L5.24443 5.85542L3.50358 6.54196ZM3.50358 6.54196C3.58407 6.24143 3.77645 5.99076 4.04595 5.83516L3.50358 6.54196ZM13.5836 19.1555L13.5836 19.1555C13.2966 19.2743 12.9654 19.2092 12.745 18.9886C12.745 18.9886 12.7449 18.9886 12.7449 18.9886L12 18.2437L11.2551 18.9886C11.0351 19.2087 10.704 19.2746 10.4165 19.1554C10.4165 19.1554 10.4165 19.1554 10.4165 19.1554L10.4643 19.04C10.2234 18.9402 10.0664 18.7052 10.0664 18.4445L13.5836 19.1555ZM13.5836 19.1555C13.8711 19.0364 14.0586 18.7557 14.0586 18.4445V12.7688H17.6758V21.5851H6.32422V13.4506L7.50541 12.7687H9.94141L13.5836 19.1555ZM10.8877 4.56631L9.1117 5.58842L9.0461 3.6186L9.04609 3.61853C9.03146 3.18688 9.25433 2.7851 9.62776 2.56953C10.1835 2.24869 10.897 2.43987 11.2179 2.99562C11.5236 3.52515 11.3682 4.21898 10.8877 4.56631ZM11.4805 12.7687H12.5195V16.5878C12.226 16.3186 11.7741 16.3186 11.4805 16.5877V12.7687ZM3.89639 13.0752L2.70269 11.0525L14.8017 4.08955L15.9663 6.10671L3.89639 13.0752Z"
          fill="#A3A8AF" stroke="#A3A8AF" stroke-width="0.25"/>
    <path d="M22.3555 8.65125H21.8359V8.13171C21.8359 7.70673 21.4914 7.36218 21.0664 7.36218C20.6414 7.36218 20.2969 7.70673 20.2969 8.13171V8.65125H19.7773C19.3524 8.65125 19.0078 8.99579 19.0078 9.42078C19.0078 9.84577 19.3524 10.1903 19.7773 10.1903H20.2969V10.7098C20.2969 11.1348 20.6414 11.4794 21.0664 11.4794C21.4914 11.4794 21.8359 11.1348 21.8359 10.7098V10.1903H22.3555C22.7805 10.1903 23.125 9.84577 23.125 9.42078C23.125 8.99579 22.7805 8.65125 22.3555 8.65125Z"
          fill="#A3A8AF" stroke="#A3A8AF" stroke-width="0.25"/>
    <path d="M19.7344 6.32312C20.1594 6.32312 20.5039 5.97859 20.5039 5.55359C20.5039 5.12859 20.1594 4.78406 19.7344 4.78406C19.3094 4.78406 18.9648 5.12859 18.9648 5.55359C18.9648 5.97859 19.3094 6.32312 19.7344 6.32312Z"
          fill="#A3A8AF" stroke="#A3A8AF" stroke-width="0.25"/>
    <path d="M17.1562 10.1903C17.5813 10.1903 17.9258 9.84578 17.9258 9.42078C17.9258 8.99578 17.5813 8.65125 17.1562 8.65125C16.7312 8.65125 16.3867 8.99578 16.3867 9.42078C16.3867 9.84578 16.7312 10.1903 17.1562 10.1903Z"
          fill="#A3A8AF" stroke="#A3A8AF" stroke-width="0.25"/>
</svg>
