<svg viewBox="0 0 24 24" fill="none" xmlns="http://www.w3.org/2000/svg">
    <path fill-rule="evenodd" clip-rule="evenodd"
          d="M3 2C2.44772 2 2 2.44772 2 3V19C2 20.4738 3.03474 22 4.66667 22H14.6667C16.2986 22 17.3333 20.4738 17.3333 19V17H19.6667C21.2986 17 22.3333 15.4738 22.3333 14V8C22.3333 6.52618 21.2986 5 19.6667 5H17.3333V3C17.3333 2.44772 16.8856 2 16.3333 2H3ZM15.3333 6L15.3333 4H4V19C4 19.7262 4.46526 20 4.66667 20H14.6667C14.8681 20 15.3333 19.7262 15.3333 19L15.3333 16V6ZM17.3333 15V7H19.6667C19.8681 7 20.3333 7.27383 20.3333 8V14C20.3333 14.7262 19.8681 15 19.6667 15H17.3333Z"
          fill="#A3A8AF"/>
</svg>
