<svg viewBox="0 0 24 24" fill="none" xmlns="http://www.w3.org/2000/svg">
    <path d="M13.2657 6.95138C15.7015 6.95138 17.4687 7.39038 18.2806 8.17082L18.3284 8.12204V6.31727C17.1343 5.68317 15.4627 5.3905 13.2657 5.3905C9.5403 5.3905 6.43582 8.51226 6.43582 12.2193V12.6583C6.43582 16.3654 9.44478 19.4872 12.9791 19.4872C15.9881 19.4872 17.2298 18.4141 17.3254 18.3165L17.5642 18.0726V13.7314H12.8836V15.1948H16.0358V17.341C15.606 17.5849 14.6507 17.9751 12.9791 17.9751C10.2567 17.9751 7.96418 15.5362 7.96418 12.6583V12.2193C7.96418 9.39025 10.4 6.95138 13.2657 6.95138ZM12.9313 12.9022H18.4239V18.5116C17.9463 18.9994 16.3224 20.4627 12.9313 20.4627C8.9194 20.4627 5.52836 16.902 5.52836 12.7071V12.2681C5.52836 8.07326 9.06269 4.51251 13.2657 4.51251C15.2716 4.51251 17.0388 4.85395 18.3284 5.48806V3.82963C16.9433 3.29308 15.1761 3.00041 13.2657 3.00041C8.25075 2.95163 4 7.24405 4 12.2681V12.7071C4 17.7312 8.10746 21.9748 12.9791 21.9748C17.8507 21.9748 19.7612 19.3408 19.8567 19.2433L20 19.0482V11.3413H12.9313V12.9022Z"
          fill="#A3A8AF"/>
</svg>
