<svg width="24" height="24" viewBox="0 0 24 24" fill="none" xmlns="http://www.w3.org/2000/svg">
<path d="M22.0003 6.76942V0.749971C22.0003 0.335612 21.6647 0 21.2503 0H18.75C18.3356 0 18 0.335612 18 0.749971V3.08988C16.2328 2.08492 14.1872 1.49994 12 1.49994C5.3747 1.49994 -0.013101 6.78442 2.39291e-05 13.2726C0.00189893 13.6757 0.346898 13.9982 0.750023 13.9982H1.99971V22.9979C1.99971 23.551 2.44783 23.9981 3.00002 23.9981H4.9997V11.9995H18.9994V23.9991H21C21.5522 23.9991 22.0003 23.5519 22.0003 22.9988V13.9991H23.25C23.6531 13.9991 23.9981 13.6767 24 13.2735C24.0047 10.8699 23.265 8.63404 22.0003 6.76942Z" fill="#0088FF"/>
<path d="M7.74672 21.4989H16.2461C16.937 21.4989 17.4967 22.0585 17.4967 22.7494C17.4967 23.4404 16.937 24 16.2461 24H7.74672C7.05578 24 6.49609 23.4404 6.49609 22.7494C6.49703 22.0585 7.05672 21.4989 7.74672 21.4989Z" fill="#0088FF"/>
<path d="M7.74672 17.4996H16.2461C16.937 17.4996 17.4967 18.0593 17.4967 18.7502C17.4967 19.4411 16.937 20.0008 16.2461 20.0008H7.74672C7.05578 20.0008 6.49609 19.4411 6.49609 18.7502C6.49703 18.0593 7.05672 17.4996 7.74672 17.4996Z" fill="#0088FF"/>
<path d="M7.74672 13.4995H16.2461C16.937 13.4995 17.4967 14.0592 17.4967 14.7501C17.4967 15.441 16.937 16.0007 16.2461 16.0007H7.74672C7.05578 16.0007 6.49609 15.441 6.49609 14.7501C6.49703 14.0592 7.05672 13.4995 7.74672 13.4995Z" fill="#0088FF"/>
</svg>
