<svg width="24" height="21" viewBox="0 0 24 21" fill="none" xmlns="http://www.w3.org/2000/svg">
<path d="M21.7497 0H6.25012C5.00974 0 4 1.00974 4 2.25012V11.2506C4 12.491 5.00974 13.5007 6.25012 13.5007H21.7506C22.991 13.5007 24.0007 12.491 24.0007 11.2506V2.25012C23.9998 1.00974 22.991 0 21.7497 0ZM9.25028 4.50024H7.7502C7.3358 4.50024 7.00016 4.16459 7.00016 3.7502C7.00016 3.3358 7.3358 3.00016 7.7502 3.00016H9.25028C9.66467 3.00016 10.0003 3.3358 10.0003 3.7502C10.0003 4.16459 9.66374 4.50024 9.25028 4.50024ZM13.999 9.75051C12.3442 9.75051 10.9988 8.40513 10.9988 6.75036C10.9988 5.09558 12.3442 3.7502 13.999 3.7502C15.6537 3.7502 16.9991 5.09558 16.9991 6.75036C16.9991 8.40513 15.6537 9.75051 13.999 9.75051ZM20.2496 10.5006H18.7495C18.3351 10.5006 17.9995 10.1649 17.9995 9.75051C17.9995 9.33612 18.3351 9.00047 18.7495 9.00047H20.2496C20.664 9.00047 20.9996 9.33612 20.9996 9.75051C20.9996 10.1649 20.664 10.5006 20.2496 10.5006Z" fill="#0088FF"/>
<path d="M20.2495 15.0008H4.74995C3.50957 15.0008 2.49983 13.9911 2.49983 12.7507V3.98553L0.0734551 13.031C-0.238749 14.2217 0.472851 15.4583 1.66541 15.7865L17.1294 19.9285C17.3216 19.9792 17.5137 20.0017 17.7022 20.0017C18.6979 20.0017 19.6101 19.337 19.8726 18.3366L20.7933 14.9267C20.6189 14.9708 20.4389 15.0008 20.2495 15.0008Z" fill="#0088FF"/>
</svg>
