<svg width="24" height="24" viewBox="0 0 24 24" fill="none" xmlns="http://www.w3.org/2000/svg">
    <g clip-path="url(#clip0_14689_9765)">
        <path d="M8.87016 4.88513C8.76 5.23575 8.43656 5.46028 8.08734 5.46028C8.00578 5.46028 7.92328 5.4481 7.84172 5.42232L7.215 5.22591C4.85203 6.70903 3.28125 9.33778 3.28125 12.3331C3.28125 16.9648 7.03594 20.7195 11.6677 20.7195C16.2994 20.7195 20.0541 16.9648 20.0541 12.3331C20.0541 7.70138 16.2989 3.94716 11.6672 3.94716C10.6894 3.94716 9.75094 4.11497 8.87812 4.42294C8.91844 4.56919 8.91937 4.72903 8.87016 4.88513V4.88513ZM9.69141 7.5195C9.69141 7.06622 10.0589 6.69872 10.5122 6.69872C10.9655 6.69872 11.333 7.06622 11.333 7.5195V11.9858C11.333 12.3542 11.6325 12.6537 12.0009 12.6537H14.9784C15.4317 12.6537 15.7992 13.0212 15.7992 13.4745C15.7992 13.9278 15.4317 14.2953 14.9784 14.2953H12.0009C10.7273 14.2953 9.69141 13.2593 9.69141 11.9858V7.5195Z" fill="#A3A8AF"/>
        <path d="M19.9163 4.08355C17.7127 1.88042 14.783 0.66683 11.6667 0.66683C9.96609 0.66683 8.30203 1.03433 6.77813 1.73792L7.02 1.11964C7.185 0.697298 6.97641 0.221517 6.55453 0.0565171C6.13266 -0.108483 5.65641 0.100111 5.49141 0.521986L4.47937 3.11089C4.36641 3.39964 4.37859 3.72542 4.51266 4.00527C4.64672 4.28464 4.89328 4.49839 5.18906 4.5912L7.21453 5.22636C7.73344 4.90058 8.29078 4.63011 8.87766 4.42292C8.80594 4.16277 8.60859 3.94339 8.3325 3.85667L7.02328 3.44605C8.44969 2.69933 10.0383 2.30839 11.6667 2.30839C14.3447 2.30839 16.8619 3.35136 18.7556 5.24464C20.6494 7.13839 21.6919 9.65558 21.6919 12.3335C21.6919 15.0115 20.6489 17.5292 18.7556 19.4225C16.8619 21.3157 14.3447 22.3587 11.6667 22.3587C8.98875 22.3587 6.47109 21.3157 4.57781 19.4225C2.68406 17.5287 1.64156 15.0115 1.64156 12.3335C1.64156 10.7407 2.00391 9.21824 2.71828 7.80824C2.92312 7.40417 2.76141 6.91011 2.35734 6.70527C1.95328 6.50042 1.45922 6.66214 1.25437 7.0662C0.421875 8.70824 0 10.4801 0 12.3331C0 15.4493 1.21359 18.379 3.41719 20.5826C5.62078 22.7862 8.55047 23.9998 11.6667 23.9998C14.783 23.9998 17.7127 22.7862 19.9163 20.5826C22.1198 18.379 23.3334 15.4493 23.3334 12.3331C23.3334 9.21683 22.1198 6.28714 19.9163 4.08355Z" fill="#A3A8AF"/>
    </g>
    <defs>
        <clipPath id="clip0_14689_9765">
            <rect width="24" height="24" fill="white"/>
        </clipPath>
    </defs>
</svg>
