<svg viewBox="0 0 24 24" fill="none" xmlns="http://www.w3.org/2000/svg">
    <path d="M20.3336 7.64141V2.625C20.3336 2.27969 20.0539 2 19.7086 2H17.625C17.2797 2 17 2.27969 17 2.625V4.575C15.5274 3.7375 13.8227 3.25 12 3.25C6.47893 3.25 1.98908 7.65391 2.00002 13.0609C2.00158 13.3969 2.28908 13.6656 2.62502 13.6656H3.66643V21.1656C3.66643 21.6266 4.03986 21.9992 4.50002 21.9992H6.16643V12H17.8328V22H19.5C19.9602 22 20.3336 21.6273 20.3336 21.1664V13.6664H21.375C21.711 13.6664 21.9985 13.3977 22 13.0617C22.0039 11.0586 21.3875 9.19531 20.3336 7.64141Z"
          fill="#A3A8AF"/>
    <path d="M8.45796 19.9164H15.5408C16.1166 19.9164 16.583 20.3828 16.583 20.9586C16.583 21.5344 16.1166 22.0008 15.5408 22.0008H8.45796C7.88218 22.0008 7.41577 21.5344 7.41577 20.9586C7.41655 20.3828 7.88296 19.9164 8.45796 19.9164Z"
          fill="#A3A8AF"/>
    <path d="M8.45796 16.5836H15.5408C16.1166 16.5836 16.583 17.05 16.583 17.6258C16.583 18.2016 16.1166 18.668 15.5408 18.668H8.45796C7.88218 18.668 7.41577 18.2016 7.41577 17.6258C7.41655 17.05 7.88296 16.5836 8.45796 16.5836Z"
          fill="#A3A8AF"/>
    <path d="M8.45796 13.25H15.5408C16.1166 13.25 16.583 13.7164 16.583 14.2922C16.583 14.868 16.1166 15.3344 15.5408 15.3344H8.45796C7.88218 15.3344 7.41577 14.868 7.41577 14.2922C7.41655 13.7164 7.88296 13.25 8.45796 13.25Z"
          fill="#A3A8AF"/>
</svg>
