<svg viewBox="0 0 24 24" fill="none" xmlns="http://www.w3.org/2000/svg">
    <path fill-rule="evenodd" clip-rule="evenodd"
          d="M8.02936 5.7564L13.9571 11.6842C14.2091 11.9362 14.2091 12.3448 13.9571 12.5968C13.8311 12.7228 13.666 12.7858 13.5008 12.7858C13.3357 12.7858 13.1705 12.7228 13.0446 12.5968L12.5976 12.1498V17.6126C12.5976 18.4096 11.9492 19.058 11.1522 19.058H3.99393C3.19695 19.058 2.54859 18.4095 2.54859 17.6126V12.1498L2.10158 12.5968C1.9756 12.7228 1.81043 12.7858 1.6453 12.7858C1.48017 12.7858 1.31504 12.7228 1.18901 12.5968C0.936997 12.3448 0.936997 11.9362 1.18901 11.6842L4.03768 8.83555V4.64531C4.03768 4.28892 4.3266 4 4.68298 4C5.03937 4 5.32829 4.28892 5.32829 4.64531V7.54489L7.11678 5.7564C7.3688 5.50443 7.77739 5.50434 8.02936 5.7564ZM11.1522 17.7674C11.2375 17.7674 11.3069 17.6979 11.3069 17.6126H11.3069V10.8592L7.57307 7.1253L3.8392 10.8592V17.6126C3.8392 17.698 3.90864 17.7674 3.99393 17.7674H11.1522ZM16.5884 11.1638H21.5174C22.3349 11.1638 23 11.8289 23 12.6464V17.5754C23 18.3929 22.3349 19.058 21.5174 19.058H16.5884C15.7709 19.058 15.1058 18.3929 15.1058 17.5754V12.6464C15.1058 11.8289 15.7709 11.1638 16.5884 11.1638ZM21.5174 17.7674C21.6233 17.7674 21.7094 17.6813 21.7094 17.5754H21.7094V12.6464C21.7094 12.5406 21.6233 12.4544 21.5174 12.4544H19.6983V14.621C19.6983 14.9774 19.4093 15.2663 19.053 15.2663C18.6966 15.2663 18.4076 14.9774 18.4076 14.621V12.4544H16.5884C16.4826 12.4544 16.3965 12.5406 16.3965 12.6464V17.5754C16.3965 17.6813 16.4826 17.7674 16.5884 17.7674H21.5174Z"
          fill="#A3A8AF"/>
    <path d="M13.9571 11.6842L13.7804 11.861L13.7804 11.861L13.9571 11.6842ZM8.02936 5.7564L7.85255 5.93314L7.85258 5.93317L8.02936 5.7564ZM13.9571 12.5968L13.7804 12.42L13.7804 12.42L13.9571 12.5968ZM13.0446 12.5968L13.2214 12.42L13.2213 12.42L13.0446 12.5968ZM12.5976 12.1498L12.7743 11.973L12.3476 11.5462V12.1498H12.5976ZM2.54859 12.1498H2.79859V11.5462L2.37181 11.973L2.54859 12.1498ZM2.10158 12.5968L2.27836 12.7736H2.27836L2.10158 12.5968ZM1.18901 12.5968L1.01223 12.7736L1.01226 12.7736L1.18901 12.5968ZM1.18901 11.6842L1.36577 11.861L1.36579 11.861L1.18901 11.6842ZM4.03768 8.83555L4.21445 9.01232L4.28768 8.9391V8.83555H4.03768ZM5.32829 7.54489H5.07829V8.14844L5.50507 7.72167L5.32829 7.54489ZM7.11678 5.7564L6.94002 5.5796L6.94001 5.57962L7.11678 5.7564ZM11.3069 17.6126V17.3626H11.0569V17.6126H11.3069ZM11.3069 17.6126V17.8626H11.5569V17.6126H11.3069ZM11.3069 10.8592H11.5569V10.7556L11.4837 10.6824L11.3069 10.8592ZM7.57307 7.1253L7.74985 6.94852L7.57307 6.77175L7.39629 6.94852L7.57307 7.1253ZM3.8392 10.8592L3.66243 10.6824L3.5892 10.7556V10.8592H3.8392ZM23 12.6464L22.75 12.6464V12.6464H23ZM21.7094 17.5754V17.3254H21.4594V17.5754H21.7094ZM21.7094 17.5754V17.8254H21.9594V17.5754H21.7094ZM19.6983 12.4544V12.2044H19.4483V12.4544H19.6983ZM18.4076 12.4544H18.6576V12.2044H18.4076V12.4544ZM14.1339 11.5074L8.20613 5.57962L7.85258 5.93317L13.7804 11.861L14.1339 11.5074ZM14.1339 12.7736C14.4836 12.424 14.4835 11.8571 14.1339 11.5074L13.7804 11.861C13.9347 12.0154 13.9347 12.2657 13.7804 12.42L14.1339 12.7736ZM13.5008 13.0358C13.7296 13.0358 13.9592 12.9483 14.1339 12.7736L13.7804 12.42C13.7031 12.4972 13.6024 12.5358 13.5008 12.5358V13.0358ZM12.8678 12.7735C13.0425 12.9484 13.2721 13.0358 13.5008 13.0358V12.5358C13.3993 12.5358 13.2986 12.4973 13.2214 12.42L12.8678 12.7735ZM12.4208 12.3266L12.8678 12.7736L13.2213 12.42L12.7743 11.973L12.4208 12.3266ZM12.8476 17.6126V12.1498H12.3476V17.6126H12.8476ZM11.1522 19.308C12.0872 19.308 12.8476 18.5476 12.8476 17.6126H12.3476C12.3476 18.2715 11.8111 18.808 11.1522 18.808V19.308ZM3.99393 19.308H11.1522V18.808H3.99393V19.308ZM2.29859 17.6126C2.29859 18.5476 3.05886 19.308 3.99393 19.308V18.808C3.33503 18.808 2.79859 18.2715 2.79859 17.6126H2.29859ZM2.29859 12.1498V17.6126H2.79859V12.1498H2.29859ZM2.27836 12.7736L2.72537 12.3266L2.37181 11.973L1.92481 12.42L2.27836 12.7736ZM1.6453 13.0358C1.87404 13.0358 2.10362 12.9483 2.27836 12.7736L1.92481 12.42C1.84757 12.4972 1.74681 12.5358 1.6453 12.5358V13.0358ZM1.01226 12.7736C1.18701 12.9483 1.41653 13.0358 1.6453 13.0358V12.5358C1.54381 12.5358 1.44306 12.4973 1.36576 12.42L1.01226 12.7736ZM1.01225 11.5074C0.662576 11.857 0.662598 12.4239 1.01223 12.7736L1.36579 12.42C1.2114 12.2656 1.21142 12.0153 1.36577 11.861L1.01225 11.5074ZM3.8609 8.65877L1.01223 11.5074L1.36579 11.861L4.21445 9.01232L3.8609 8.65877ZM3.78768 4.64531V8.83555H4.28768V4.64531H3.78768ZM4.68298 3.75C4.18853 3.75 3.78768 4.15085 3.78768 4.64531H4.28768C4.28768 4.42699 4.46467 4.25 4.68298 4.25V3.75ZM5.57829 4.64531C5.57829 4.15085 5.17744 3.75 4.68298 3.75V4.25C4.90129 4.25 5.07829 4.42699 5.07829 4.64531H5.57829ZM5.57829 7.54489V4.64531H5.07829V7.54489H5.57829ZM6.94001 5.57962L5.15151 7.36811L5.50507 7.72167L7.29356 5.93317L6.94001 5.57962ZM8.20616 5.57965C7.85651 5.22988 7.28962 5.23007 6.94002 5.5796L7.29355 5.93319C7.44798 5.77878 7.69827 5.77881 7.85255 5.93314L8.20616 5.57965ZM11.0569 17.6126C11.0569 17.56 11.0993 17.5174 11.1522 17.5174V18.0174C11.3757 18.0174 11.5569 17.8359 11.5569 17.6126H11.0569ZM11.3069 17.3626H11.3069V17.8626H11.3069V17.3626ZM11.0569 10.8592V17.6126H11.5569V10.8592H11.0569ZM7.39629 7.30208L11.1302 11.0359L11.4837 10.6824L7.74985 6.94852L7.39629 7.30208ZM4.01598 11.0359L7.74985 7.30208L7.39629 6.94852L3.66243 10.6824L4.01598 11.0359ZM4.0892 17.6126V10.8592H3.5892V17.6126H4.0892ZM3.99393 17.5174C4.04675 17.5174 4.0892 17.5599 4.0892 17.6126H3.5892C3.5892 17.836 3.77052 18.0174 3.99393 18.0174V17.5174ZM11.1522 17.5174H3.99393V18.0174H11.1522V17.5174ZM21.5174 10.9138H16.5884V11.4138H21.5174V10.9138ZM23.25 12.6464C23.25 11.6908 22.4729 10.9138 21.5174 10.9138V11.4138C22.1968 11.4138 22.75 11.967 22.75 12.6464L23.25 12.6464ZM23.25 17.5754V12.6464H22.75V17.5754H23.25ZM21.5174 19.308C22.4729 19.308 23.25 18.531 23.25 17.5754H22.75C22.75 18.2548 22.1968 18.808 21.5174 18.808V19.308ZM16.5884 19.308H21.5174V18.808H16.5884V19.308ZM14.8558 17.5754C14.8558 18.531 15.6328 19.308 16.5884 19.308V18.808C15.909 18.808 15.3558 18.2549 15.3558 17.5754H14.8558ZM14.8558 12.6464V17.5754H15.3558V12.6464H14.8558ZM16.5884 10.9138C15.6328 10.9138 14.8558 11.6909 14.8558 12.6464H15.3558C15.3558 11.967 15.909 11.4138 16.5884 11.4138V10.9138ZM21.4594 17.5754C21.4594 17.5432 21.4852 17.5174 21.5174 17.5174V18.0174C21.7613 18.0174 21.9594 17.8193 21.9594 17.5754H21.4594ZM21.7094 17.3254H21.7094V17.8254H21.7094V17.3254ZM21.4594 12.6464V17.5754H21.9594V12.6464H21.4594ZM21.5174 12.7044C21.4852 12.7044 21.4594 12.6786 21.4594 12.6464H21.9594C21.9594 12.4025 21.7614 12.2044 21.5174 12.2044V12.7044ZM19.6983 12.7044H21.5174V12.2044H19.6983V12.7044ZM19.9483 14.621V12.4544H19.4483V14.621H19.9483ZM19.053 15.5163C19.5474 15.5163 19.9483 15.1155 19.9483 14.621H19.4483C19.4483 14.8393 19.2713 15.0163 19.053 15.0163V15.5163ZM18.1576 14.621C18.1576 15.1155 18.5585 15.5163 19.053 15.5163V15.0163C18.8346 15.0163 18.6576 14.8393 18.6576 14.621H18.1576ZM18.1576 12.4544V14.621H18.6576V12.4544H18.1576ZM16.5884 12.7044H18.4076V12.2044H16.5884V12.7044ZM16.6465 12.6464C16.6465 12.6786 16.6207 12.7044 16.5884 12.7044V12.2044C16.3445 12.2044 16.1465 12.4025 16.1465 12.6464H16.6465ZM16.6465 17.5754V12.6464H16.1465V17.5754H16.6465ZM16.5884 17.5174C16.6207 17.5174 16.6465 17.5432 16.6465 17.5754H16.1465C16.1465 17.8193 16.3445 18.0174 16.5884 18.0174V17.5174ZM21.5174 17.5174H16.5884V18.0174H21.5174V17.5174Z"
          fill="#A3A8AF"/>
</svg>
