<svg viewBox="0 0 24 24" fill="none" xmlns="http://www.w3.org/2000/svg">
    <g clip-path="url(#clip0_267_354)">
        <path d="M21.6101 2.39018C21.0899 1.87005 20.2435 1.87011 19.7232 2.39032L14.4078 7.70578L11.2482 4.5462C10.4479 3.74586 9.15025 3.74586 8.34991 4.5462L6.07442 6.82169L6.35811 7.10538L2.4245 9.6241C2.1897 9.77449 2.03568 10.0232 2.00562 10.3004C1.97555 10.5776 2.07279 10.8535 2.26996 11.0507L12.9497 21.7304C13.1233 21.9041 13.3579 22.0001 13.6007 22.0001C13.6337 22.0001 13.6668 21.9983 13.7 21.9948C13.9772 21.9648 14.2258 21.8108 14.3762 21.5759L16.8949 17.6422L17.1786 17.9259L19.4541 15.6504C20.2544 14.8501 20.2544 13.5524 19.454 12.752L16.2946 9.59252L21.61 4.27705C22.1302 3.75678 22.1302 2.91045 21.6101 2.39018ZM13.4425 19.6189L11.6135 17.7899L13.4091 15.1129L10.732 16.9084L9.19262 15.369L10.3358 13.6647L8.63143 14.8078L6.88529 13.0617L8.27241 10.9936L6.20436 12.3807L4.3815 10.5579L7.69135 8.43855L15.5619 16.3092L13.4425 19.6189Z"
              fill="#A3A8AF"/>
    </g>
    <defs>
        <clipPath id="clip0_267_354">
            <rect width="20" height="20" fill="white" transform="translate(2 2)"/>
        </clipPath>
    </defs>
</svg>
