<svg viewBox="0 0 24 24" fill="none" xmlns="http://www.w3.org/2000/svg">
    <path fill-rule="evenodd" clip-rule="evenodd"
          d="M3 3C2.44772 3 2 3.44772 2 4V6.72727C2 9.27829 4.08202 11.3616 6.63257 11.3636C7.03668 13.6483 8.80623 15.4179 11.0909 15.822V18.4545H9.36364C8.81135 18.4545 8.36364 18.9023 8.36364 19.4545C8.36364 20.0068 8.81135 20.4545 9.36364 20.4545H12.0909H14.8182C15.3705 20.4545 15.8182 20.0068 15.8182 19.4545C15.8182 18.9023 15.3705 18.4545 14.8182 18.4545H13.0909V15.822C15.3756 15.4179 17.1451 13.6483 17.5492 11.3636C20.0998 11.3616 22.1818 9.27829 22.1818 6.72727V4C22.1818 3.44772 21.7341 3 21.1818 3H3ZM12.0909 13.9091C14.0841 13.9091 15.6364 12.3568 15.6364 10.3636C15.6364 9.81135 16.0841 9.36364 16.6364 9.36364H17.5455C18.9932 9.36364 20.1818 8.17499 20.1818 6.72727V5H4V6.72727C4 8.17499 5.18865 9.36364 6.63636 9.36364H7.54545C8.09774 9.36364 8.54545 9.81135 8.54545 10.3636C8.54545 12.3568 10.0977 13.9091 12.0909 13.9091Z"
          fill="#A3A8AF"/>
</svg>
