<svg viewBox="0 0 24 24" fill="none" xmlns="http://www.w3.org/2000/svg">
    <path fill-rule="evenodd" clip-rule="evenodd"
          d="M9.22355 5.72904C9.44815 4.77447 10.3701 4 11.5001 4C12.5907 4 13.4848 4.74202 13.7908 5.78217C13.9159 6.20775 14.3065 6.5 14.7501 6.5H14.8335C15.6978 6.5 16.3335 7.13562 16.3335 8C16.3335 8.25653 16.2745 8.48036 16.1757 8.66667H6.82459C6.72575 8.48036 6.66679 8.25653 6.66679 8C6.66679 7.13562 7.30241 6.5 8.16679 6.5H8.25013C8.71418 6.5 9.11726 6.18075 9.22355 5.72904ZM6.33444 10.6667C6.33379 10.6667 6.33313 10.6667 6.33248 10.6667H5.10143C5.66237 14.095 8.34223 16.1667 11.5001 16.1667C14.658 16.1667 17.3379 14.095 17.8988 10.6667H16.6678C16.6671 10.6667 16.6665 10.6667 16.6658 10.6667H6.33444ZM18.2709 8.66667C18.3121 8.45099 18.3335 8.22803 18.3335 8C18.3335 6.24437 17.1162 4.8369 15.4566 4.55253C14.7652 3.08473 13.3117 2 11.5001 2C9.73122 2 8.18252 3.05023 7.51628 4.55732C5.8707 4.8524 4.66679 6.25403 4.66679 8C4.66679 8.22803 4.6881 8.45099 4.72938 8.66667H4.00012C3.7286 8.66667 3.46876 8.77708 3.28028 8.97253C3.09181 9.16798 2.99092 9.43167 3.00078 9.70301C3.17322 14.445 6.42165 17.6591 10.5001 18.1117V20.3333H9.00012C8.44784 20.3333 8.00012 20.781 8.00012 21.3333C8.00012 21.8856 8.44784 22.3333 9.00012 22.3333H11.4981L11.5001 22.3333L11.5021 22.3333H14.0001C14.5524 22.3333 15.0001 21.8856 15.0001 21.3333C15.0001 20.781 14.5524 20.3333 14.0001 20.3333H12.5001V18.1117C16.5786 17.6591 19.827 14.445 19.9995 9.70301C20.0093 9.43167 19.9084 9.16798 19.72 8.97253C19.5315 8.77708 19.2716 8.66667 19.0001 8.66667H18.2709Z"
          fill="#A3A8AF"/>
</svg>
