<svg width="40" height="40" viewBox="0 0 40 40" fill="none" xmlns="http://www.w3.org/2000/svg">
<path d="M31.6667 5H8.33333C6.495 5 5 6.495 5 8.33333V31.6667C5 33.505 6.495 35 8.33333 35H31.6667C33.505 35 35 33.505 35 31.6667V8.33333C35 6.495 33.505 5 31.6667 5ZM8.33333 31.6667V8.33333H31.6667L31.67 31.6667H8.33333Z" fill="#E8EAEB"/>
<path d="M16.6667 23.3333L15 21.6667L10 28.3333H30L21.6667 16.6667L16.6667 23.3333Z" fill="#E8EAEB"/>
<path d="M14.1667 18.3333C15.5474 18.3333 16.6667 17.214 16.6667 15.8333C16.6667 14.4526 15.5474 13.3333 14.1667 13.3333C12.786 13.3333 11.6667 14.4526 11.6667 15.8333C11.6667 17.214 12.786 18.3333 14.1667 18.3333Z" fill="#E8EAEB"/>
</svg>
