<svg viewBox="0 0 24 24" fill="none" xmlns="http://www.w3.org/2000/svg">
    <g clip-path="url(#clip0_6095_5900)">
        <path d="M22 11.2747V17.8206C21.9446 19.2738 20.7258 20.4117 19.2725 20.3648H4.72747C3.27424 20.4117 2.0554 19.2738 2 17.8206V11.2747C2 10.7718 2.40912 10.3669 2.90773 10.3669C3.40635 10.3669 3.81547 10.776 3.81547 11.2747V17.8206C3.87513 18.2681 4.27573 18.5877 4.72321 18.5493H19.2683C19.7157 18.5877 20.1163 18.2681 20.176 17.8206V11.2747C20.176 10.7718 20.5851 10.3669 21.0837 10.3669C21.5951 10.3627 22 10.7718 22 11.2747ZM9.81164 11.4281C9.45365 11.0701 8.87833 11.0701 8.52035 11.4281C8.16237 11.7861 8.16237 12.3614 8.52035 12.7194L11.3586 15.6003H11.4055C11.5419 15.7196 11.7166 15.7963 11.8956 15.8176H12.0703C12.2877 15.8048 12.4965 15.7111 12.6542 15.5534L15.4924 12.7151C15.6629 12.5446 15.7567 12.3102 15.7567 12.0716C15.7567 11.8287 15.6629 11.5986 15.4924 11.4281L15.4882 11.4238C15.1302 11.0701 14.5549 11.0744 14.2012 11.4281L12.9099 12.7194V4.90773C12.9099 4.40912 12.5007 4 12.0021 4C11.5035 4 11.0944 4.40912 11.0944 4.90773V12.7194L9.81164 11.4281Z"
              fill="#A3A8AF"/>
    </g>
    <defs>
        <clipPath id="clip0_6095_5900">
            <rect width="20" height="16.3648" fill="white" transform="translate(2 4)"/>
        </clipPath>
    </defs>
</svg>
