<svg viewBox="0 0 24 24" fill="none" xmlns="http://www.w3.org/2000/svg">
    <path fill-rule="evenodd" clip-rule="evenodd"
          d="M4.91416 15.2298C5.06815 14.9218 5.38294 14.7273 5.72727 14.7273H18.4545C18.7989 14.7273 19.1137 14.9218 19.2677 15.2298L21.0858 18.8662C21.2267 19.148 21.2117 19.4827 21.046 19.7507C20.8804 20.0187 20.5878 20.1818 20.2727 20.1818H3.90909C3.59402 20.1818 3.30142 20.0187 3.13577 19.7507C2.97013 19.4827 2.95507 19.148 3.09598 18.8662L4.91416 15.2298ZM6.28912 16.5455L5.38003 18.3637H18.8018L17.8927 16.5455H6.28912Z"
          fill="#A3A8AF"/>
    <path fill-rule="evenodd" clip-rule="evenodd"
          d="M8.4545 18.3636C8.95658 18.3636 9.36359 18.7707 9.36359 19.2727V21.0909C9.36359 21.593 8.95658 22 8.4545 22C7.95242 22 7.54541 21.593 7.54541 21.0909V19.2727C7.54541 18.7707 7.95242 18.3636 8.4545 18.3636Z"
          fill="#A3A8AF"/>
    <path fill-rule="evenodd" clip-rule="evenodd"
          d="M12.0909 5.63635C12.5929 5.63635 12.9999 6.04337 12.9999 6.54544V15.6364C12.9999 16.1384 12.5929 16.5454 12.0909 16.5454C11.5888 16.5454 11.1818 16.1384 11.1818 15.6364V6.54544C11.1818 6.04337 11.5888 5.63635 12.0909 5.63635Z"
          fill="#A3A8AF"/>
    <path fill-rule="evenodd" clip-rule="evenodd"
          d="M8 2.90909C8 2.40701 8.40701 2 8.90909 2H15.2727C15.7748 2 16.1818 2.40701 16.1818 2.90909V6.54545C16.1818 7.04753 15.7748 7.45455 15.2727 7.45455H8.90909C8.40701 7.45455 8 7.04753 8 6.54545V2.90909ZM9.81818 3.81818V5.63636H14.3636V3.81818H9.81818Z"
          fill="#A3A8AF"/>
    <path fill-rule="evenodd" clip-rule="evenodd"
          d="M15.7273 18.3636C16.2294 18.3636 16.6364 18.7707 16.6364 19.2727V21.0909C16.6364 21.593 16.2294 22 15.7273 22C15.2253 22 14.8182 21.593 14.8182 21.0909V19.2727C14.8182 18.7707 15.2253 18.3636 15.7273 18.3636Z"
          fill="#A3A8AF"/>
</svg>
