<svg viewBox="0 0 24 24" fill="none" xmlns="http://www.w3.org/2000/svg">
    <path d="M17.3125 7C15.9945 7 14.8039 7.54375 13.9523 8.41914L12.8172 9.58594L14.0445 10.8473L15.2133 9.6457C15.7457 9.09844 16.4902 8.75781 17.3125 8.75781C18.9277 8.75781 20.2422 10.0723 20.2422 11.6879C20.2422 13.3031 18.9277 14.6176 17.3125 14.6176C16.4902 14.6176 15.7457 14.277 15.2133 13.7293C10.6219 9.00977 10.0543 8.42617 10.0477 8.41914C9.19609 7.54375 8.00547 7 6.6875 7C4.09883 7 2 9.09883 2 11.6879C2 14.2766 4.09883 16.3754 6.6875 16.3754C8.00547 16.3754 9.19609 15.8316 10.0477 14.9562L11.1828 13.7895L9.95547 12.5281L8.78672 13.7293C8.2543 14.277 7.50977 14.6176 6.6875 14.6176C5.07227 14.6176 3.75781 13.3031 3.75781 11.6879C3.75781 10.0723 5.07227 8.75781 6.6875 8.75781C7.50977 8.75781 8.2543 9.09844 8.78672 9.6457C8.98789 9.85273 13.9039 14.9066 13.9523 14.9562C14.8039 15.8316 15.9945 16.3754 17.3125 16.3754C19.9012 16.3754 22 14.2766 22 11.6879C22 9.09883 19.9012 7 17.3125 7Z"
          fill="#A3A8AF"/>
</svg>
