<svg viewBox="0 0 24 24" fill="none" xmlns="http://www.w3.org/2000/svg">
    <path d="M11.9922 6.85562C9.15571 6.85562 6.85784 9.1546 6.85784 11.99C6.85784 14.8265 9.15571 17.1255 11.9922 17.1255C14.8265 17.1255 17.1266 14.8265 17.1266 11.99C17.1266 9.1546 14.8265 6.85562 11.9922 6.85562ZM11.9922 15.3263C10.1497 15.3263 8.65593 13.8325 8.65593 11.9911C8.65593 10.1486 10.1497 8.65593 11.9922 8.65593C13.8347 8.65593 15.3263 10.1486 15.3263 11.9911C15.3263 13.8325 13.8347 15.3263 11.9922 15.3263Z"
          fill="#A3A8AF"/>
    <path d="M17.331 7.86406C17.9922 7.86406 18.5282 7.32803 18.5282 6.66681C18.5282 6.00559 17.9922 5.46957 17.331 5.46957C16.6697 5.46957 16.1337 6.00559 16.1337 6.66681C16.1337 7.32803 16.6697 7.86406 17.331 7.86406Z"
          fill="#A3A8AF"/>
    <path d="M21.4702 5.44958C20.9494 4.10684 19.8887 3.04509 18.546 2.52643C17.7697 2.23434 16.9489 2.07774 16.1182 2.05997C15.0486 2.01333 14.7099 2 11.9978 2C9.28565 2 8.93803 2 7.87739 2.05997C7.04887 2.07663 6.22812 2.23323 5.4518 2.52643C4.10795 3.04509 3.04731 4.10684 2.52754 5.44958C2.23545 6.22701 2.07885 7.04665 2.06219 7.87739C2.01444 8.9458 2 9.28454 2 11.9978C2 14.7099 2 15.0553 2.06219 16.1182C2.07885 16.9489 2.23545 17.7685 2.52754 18.5471C3.04842 19.8887 4.10906 20.9505 5.45291 21.4702C6.2259 21.7723 7.04665 21.9434 7.87961 21.97C8.94913 22.0167 9.28787 22.0311 12 22.0311C14.7121 22.0311 15.0598 22.0311 16.1204 21.97C16.95 21.9534 17.7708 21.7956 18.5482 21.5047C19.8909 20.9838 20.9516 19.9231 21.4725 18.5804C21.7645 17.803 21.9211 16.9833 21.9378 16.1526C21.9856 15.0842 22 14.7454 22 12.0322C22 9.31897 22 8.97468 21.9378 7.91182C21.9234 7.06997 21.7679 6.2359 21.4702 5.44958ZM20.1175 16.036C20.1097 16.6757 19.9942 17.3099 19.7721 17.9107C19.4334 18.7848 18.7437 19.4756 17.8707 19.811C17.2765 20.032 16.6502 20.1475 16.016 20.1564C14.9609 20.2052 14.6633 20.2175 11.9578 20.2175C9.25011 20.2175 8.97357 20.2175 7.89849 20.1564C7.26655 20.1486 6.63794 20.032 6.04487 19.811C5.16859 19.4767 4.47446 18.7859 4.13572 17.9107C3.91804 17.3176 3.80031 16.6901 3.79032 16.0571C3.74256 15.002 3.73145 14.7044 3.73145 11.9989C3.73145 9.29232 3.73145 9.01577 3.79032 7.93958C3.79809 7.29987 3.91359 6.66681 4.13572 6.06597C4.47446 5.18969 5.16859 4.5 6.04487 4.16459C6.63794 3.94469 7.26655 3.82808 7.89849 3.81919C8.95469 3.77143 9.25122 3.75811 11.9578 3.75811C14.6644 3.75811 14.942 3.75811 16.016 3.81919C16.6502 3.82697 17.2765 3.94358 17.8707 4.16459C18.7437 4.50111 19.4334 5.19191 19.7721 6.06597C19.9898 6.65904 20.1075 7.28654 20.1175 7.91959C20.1653 8.97579 20.1775 9.27232 20.1775 11.9789C20.1775 14.6844 20.1775 14.9753 20.1297 16.0371H20.1175V16.036Z"
          fill="#A3A8AF"/>
</svg>
