<svg width="24" height="24" viewBox="0 0 24 24" fill="none" xmlns="http://www.w3.org/2000/svg">
<g clip-path="url(#clip0_12954_9628)">
<path d="M17.8333 2.83333H6.16668C5.96699 2.83563 5.77477 2.90956 5.62501 3.04166C6.21929 3.25075 6.74216 3.62396 7.133 4.11805C7.52385 4.61214 7.76668 5.20688 7.83334 5.83333C7.84608 5.94407 7.84608 6.05592 7.83334 6.16666V20.3333C7.83295 20.4927 7.87827 20.6489 7.96394 20.7833C8.04961 20.9177 8.17203 21.0247 8.31668 21.0917C8.46167 21.1584 8.62278 21.1821 8.78085 21.16C8.93892 21.1378 9.0873 21.0707 9.20834 20.9667L11.5833 18.9333L13.9583 20.9667C14.1093 21.0958 14.3014 21.1667 14.5 21.1667C14.6986 21.1667 14.8907 21.0958 15.0417 20.9667L17.4167 18.9333L19.7917 20.9667C19.9426 21.0957 20.1347 21.1667 20.3333 21.1667C20.4539 21.1658 20.573 21.1403 20.6833 21.0917C20.828 21.0247 20.9504 20.9177 21.0361 20.7833C21.1217 20.6489 21.1671 20.4927 21.1667 20.3333V6.16666C21.1667 5.28261 20.8155 4.43476 20.1904 3.80964C19.5652 3.18452 18.7174 2.83333 17.8333 2.83333ZM17 14.5H12C11.779 14.5 11.567 14.4122 11.4108 14.2559C11.2545 14.0996 11.1667 13.8877 11.1667 13.6667C11.1667 13.4456 11.2545 13.2337 11.4108 13.0774C11.567 12.9211 11.779 12.8333 12 12.8333H17C17.221 12.8333 17.433 12.9211 17.5893 13.0774C17.7455 13.2337 17.8333 13.4456 17.8333 13.6667C17.8333 13.8877 17.7455 14.0996 17.5893 14.2559C17.433 14.4122 17.221 14.5 17 14.5ZM17 11.1667H12C11.779 11.1667 11.567 11.0789 11.4108 10.9226C11.2545 10.7663 11.1667 10.5543 11.1667 10.3333C11.1667 10.1123 11.2545 9.90035 11.4108 9.74407C11.567 9.58779 11.779 9.49999 12 9.49999H17C17.221 9.49999 17.433 9.58779 17.5893 9.74407C17.7455 9.90035 17.8333 10.1123 17.8333 10.3333C17.8333 10.5543 17.7455 10.7663 17.5893 10.9226C17.433 11.0789 17.221 11.1667 17 11.1667ZM17 7.83333H12C11.779 7.83333 11.567 7.74553 11.4108 7.58925C11.2545 7.43297 11.1667 7.22101 11.1667 6.99999C11.1667 6.77898 11.2545 6.56702 11.4108 6.41074C11.567 6.25446 11.779 6.16666 12 6.16666H17C17.221 6.16666 17.433 6.25446 17.5893 6.41074C17.7455 6.56702 17.8333 6.77898 17.8333 6.99999C17.8333 7.22101 17.7455 7.43297 17.5893 7.58925C17.433 7.74553 17.221 7.83333 17 7.83333ZM6.16668 6.16666V12.8333H3.66668C3.44566 12.8333 3.2337 12.7455 3.07742 12.5893C2.92114 12.433 2.83334 12.221 2.83334 12V6.16666C2.83334 6.04999 2.83334 5.94166 2.83334 5.83333C2.87755 5.3913 3.09553 4.98494 3.43935 4.70363C3.78317 4.42233 4.22465 4.28913 4.66668 4.33333C5.1087 4.37753 5.51507 4.59552 5.79637 4.93933C6.07768 5.28315 6.21088 5.72463 6.16668 6.16666Z" fill="#A3A8AF"/>
</g>
<defs>
<clipPath id="clip0_12954_9628">
<rect width="20" height="20" fill="white" transform="translate(2 2)"/>
</clipPath>
</defs>
</svg>
