<svg viewBox="0 0 24 24" fill="none" xmlns="http://www.w3.org/2000/svg">
    <path fill-rule="evenodd" clip-rule="evenodd"
          d="M14.6056 2.55279C14.775 2.214 15.1212 2 15.5 2H18.8333C19.3856 2 19.8333 2.44772 19.8333 3C19.8333 3.55228 19.3856 4 18.8333 4H16.118L15.4514 5.33333H19.25C19.545 5.33333 19.8249 5.46357 20.0149 5.6892C21.5027 7.45595 22.3333 9.68507 22.3333 12.1667C22.3333 16.2269 19.9356 19.8348 16.4084 21.4128C16.2799 21.4703 16.1407 21.5 16 21.5H8.33333C8.19259 21.5 8.05343 21.4703 7.92496 21.4128C4.39769 19.8348 2 16.2269 2 12.1667C2 9.68507 2.83063 7.45595 4.31842 5.6892C4.50843 5.46357 4.78836 5.33333 5.08333 5.33333H13.2153L14.6056 2.55279ZM13.8117 7.33333H5.56556C4.56295 8.6728 4 10.3156 4 12.1667C4 15.3661 5.84953 18.2015 8.55367 19.5H15.7797C18.4838 18.2015 20.3333 15.3661 20.3333 12.1667C20.3333 10.3156 19.7704 8.6728 18.7678 7.33333H13.8535C13.8395 7.33362 13.8256 7.33363 13.8117 7.33333ZM8.83333 10.6667C8.46514 10.6667 8.16667 10.9651 8.16667 11.3333C8.16667 11.7015 8.46514 12 8.83333 12C9.20152 12 9.5 11.7015 9.5 11.3333C9.5 10.9651 9.20152 10.6667 8.83333 10.6667ZM6.16667 11.3333C6.16667 9.86057 7.36057 8.66667 8.83333 8.66667C10.3061 8.66667 11.5 9.86057 11.5 11.3333C11.5 12.8061 10.3061 14 8.83333 14C7.36057 14 6.16667 12.8061 6.16667 11.3333Z"
          fill="#A3A8AF"/>
</svg>
