<svg viewBox="0 0 24 24" fill="none" xmlns="http://www.w3.org/2000/svg">
    <path fill-rule="evenodd" clip-rule="evenodd"
          d="M13.0147 2.55279C13.1841 2.214 13.5303 2 13.9091 2H16.6364C17.1886 2 17.6364 2.44772 17.6364 3C17.6364 3.55228 17.1886 4 16.6364 4H14.5271L13.7089 5.63636H19.3477C19.3575 5.63622 19.3672 5.63622 19.3771 5.63636H21.1818C21.7341 5.63636 22.1818 6.08408 22.1818 6.63636C22.1818 7.18865 21.7341 7.63636 21.1818 7.63636H20.2449L19.454 13.8757C19.4545 13.8911 19.4546 13.9067 19.4544 13.9222C19.4532 14.016 19.4391 14.1065 19.4139 14.1922L18.7208 19.6596C18.5709 21.0811 17.3187 22.1818 15.9091 22.1818H8.18183C6.77095 22.1818 5.5178 21.0791 5.36971 19.6558L3.93076 7.63636H3C2.44772 7.63636 2 7.18865 2 6.63636C2 6.08408 2.44772 5.63636 3 5.63636H4.80536C4.81476 5.63623 4.82414 5.63623 4.8335 5.63636H11.4729L13.0147 2.55279ZM17.564 12.8811L18.2289 7.63636H12.111C12.0971 7.63666 12.0832 7.63666 12.0692 7.63636H5.94504L6.25323 10.2107C7.92144 10.2852 9.16263 10.4608 10.1601 10.6993C11.3339 10.9799 12.1361 11.3402 12.8466 11.6749L13.0052 11.7498C13.6376 12.0487 14.176 12.3031 14.9197 12.5051C15.5675 12.6811 16.3937 12.8218 17.564 12.8811ZM6.49441 12.2252C7.89475 12.3025 8.90866 12.4564 9.69499 12.6445C10.6718 12.878 11.3298 13.1712 11.9943 13.4842L12.1632 13.5641L12.1632 13.5641C12.7884 13.8601 13.4746 14.1851 14.3956 14.4352C15.1754 14.647 16.1027 14.8009 17.3119 14.8704L16.7352 19.4197L16.7345 19.4257L16.7322 19.4459C16.6933 19.8355 16.3128 20.1818 15.9091 20.1818H8.18183C7.7781 20.1818 7.39764 19.8355 7.35868 19.4459L7.35656 19.4266L6.49441 12.2252Z"
          fill="#A3A8AF"/>
</svg>
