<svg viewBox="0 0 24 24" fill="none" xmlns="http://www.w3.org/2000/svg">
    <path d="M16.2187 8.71856C16.9091 8.71856 17.4687 8.15891 17.4687 7.46856C17.4687 6.77821 16.9091 6.21857 16.2187 6.21857C15.5284 6.21857 14.9688 6.77821 14.9688 7.46856C14.9688 8.15891 15.5284 8.71856 16.2187 8.71856Z"
          fill="#A6AAAE"/>
    <path d="M21.7842 8.47927C21.367 7.41701 20.602 5.88432 19.3266 4.61495C18.0557 3.34996 16.5393 2.60683 15.4909 2.20613C14.34 1.76625 13.0321 2.04352 12.1591 2.91246L9.09122 5.96596C8.18181 6.87108 7.9197 8.2638 8.43896 9.43157C8.59997 9.79376 8.77509 10.148 8.9622 10.4903L2.22883 17.2236C2.0823 17.3701 2 17.5688 2 17.7761V21.2136C2 21.645 2.34976 21.9948 2.78125 21.9948H6.21873C6.65021 21.9948 6.99998 21.645 6.99998 21.2136V19.8073L8.40622 19.8073C8.83771 19.8073 9.18747 19.4575 9.18747 19.026V17.6198H10.5937C11.0252 17.6198 11.375 17.2701 11.375 16.8386C11.375 16.4071 11.0252 16.0573 10.5937 16.0573H8.40622C7.97474 16.0573 7.62498 16.4071 7.62498 16.8386V18.2448L6.21873 18.2448C5.78725 18.2448 5.43749 18.5946 5.43749 19.0261V20.4323H3.56249V18.0997L10.4904 11.1718C10.7449 10.9173 10.7926 10.5218 10.6059 10.2141C10.3352 9.76786 10.0865 9.29099 9.86676 8.79673C9.60899 8.21701 9.74032 7.52447 10.1936 7.07334L13.2614 4.01988C13.6994 3.58398 14.3556 3.44496 14.9332 3.66566C15.8403 4.01238 17.1476 4.65058 18.2244 5.72237C19.3078 6.80065 19.9674 8.12732 20.3299 9.05036C20.5561 9.62646 20.4186 10.2809 19.9797 10.7178L16.8748 13.8082C16.4226 14.2582 15.7478 14.3897 15.1554 14.1434C14.6669 13.9402 14.1937 13.6987 13.7492 13.4259C13.3815 13.2002 12.9004 13.3153 12.6747 13.6831C12.449 14.0508 12.5641 14.5319 12.9318 14.7576C13.4456 15.0729 13.9918 15.3516 14.5553 15.586C15.7328 16.0758 17.0758 15.8126 17.977 14.9157L21.0819 11.8253C21.9626 10.9488 22.2382 9.6354 21.7842 8.47927Z"
          fill="#A3A8AF"/>
</svg>
