<svg viewBox="0 0 24 24" fill="none" xmlns="http://www.w3.org/2000/svg">
    <path d="M3.44286 3V14.0442L1.58547 15.9284C1.21353 16.299 1.00309 16.8015 1 17.3265C1.00257 17.8454 1.20981 18.3422 1.57667 18.709C1.94353 19.0759 2.44036 19.2831 2.95917 19.2857H21.8408C22.3596 19.2831 22.8565 19.0759 23.2233 18.709C23.5902 18.3422 23.7974 17.8454 23.8 17.3265C23.7968 16.8011 23.5864 16.2981 23.2145 15.9268L21.3571 14.0433V3H3.44286ZM5.07143 4.62857H19.7286V13.5857H5.07143V4.62857ZM4.61299 15.2143H20.1862L22.0696 17.0717C22.1343 17.1409 22.1706 17.2318 22.1714 17.3265C22.1738 17.3706 22.1668 17.4146 22.151 17.4558C22.1353 17.497 22.111 17.5343 22.0798 17.5655C22.0486 17.5967 22.0112 17.621 21.9701 17.6368C21.9289 17.6525 21.8849 17.6595 21.8408 17.6571H2.95917C2.91514 17.6595 2.87111 17.6525 2.82993 17.6368C2.78876 17.621 2.75137 17.5967 2.72019 17.5655C2.68901 17.5343 2.66474 17.497 2.64895 17.4558C2.63317 17.4146 2.62622 17.3706 2.62857 17.3265C2.62857 17.237 2.66684 17.136 2.73036 17.0717L4.6138 15.2143H4.61299Z"
          fill="#A3A8AF"/>
    <path fill-rule="evenodd" clip-rule="evenodd"
          d="M12.3999 6.13501C12.8721 6.13501 13.2549 6.44125 13.2549 6.81901V12.291C13.2549 12.6688 12.8721 12.975 12.3999 12.975C11.9277 12.975 11.5449 12.6688 11.5449 12.291V6.81901C11.5449 6.44125 11.9277 6.13501 12.3999 6.13501Z"
          fill="#A3A8AF"/>
    <path fill-rule="evenodd" clip-rule="evenodd"
          d="M15.8201 6.13501C16.2923 6.13501 16.6751 6.44125 16.6751 6.81901V12.291C16.6751 12.6688 16.2923 12.975 15.8201 12.975C15.3479 12.975 14.9651 12.6688 14.9651 12.291V6.81901C14.9651 6.44125 15.3479 6.13501 15.8201 6.13501Z"
          fill="#A3A8AF"/>
    <path fill-rule="evenodd" clip-rule="evenodd"
          d="M8.98 6.13501C9.4522 6.13501 9.835 6.44125 9.835 6.81901V12.291C9.835 12.6688 9.4522 12.975 8.98 12.975C8.5078 12.975 8.125 12.6688 8.125 12.291V6.81901C8.125 6.44125 8.5078 6.13501 8.98 6.13501Z"
          fill="#A3A8AF"/>
</svg>
