<svg viewBox="0 0 24 24" fill="none" xmlns="http://www.w3.org/2000/svg">
    <g clip-path="url(#clip0_9216_7934)">
        <path d="M16.9997 21.9994H2.84779C2.62433 21.9981 2.41039 21.9087 2.25237 21.7507C2.09435 21.5927 2.00499 21.3788 2.00366 21.1553V2.84779C2.00499 2.62433 2.09435 2.41039 2.25237 2.25237C2.41039 2.09435 2.62433 2.00499 2.84779 2.00366H13.017C13.1374 2.00803 13.2557 2.03651 13.3649 2.0874C13.4741 2.13829 13.5719 2.21057 13.6527 2.29995L17.6775 7.04566C17.8087 7.19998 17.8834 7.3944 17.8894 7.59687V9.3763C17.8894 9.60107 17.8001 9.81664 17.6411 9.97558C17.4822 10.1345 17.2666 10.2238 17.0419 10.2238C16.8171 10.2238 16.6015 10.1345 16.4426 9.97558C16.2836 9.81664 16.1944 9.60107 16.1944 9.3763V7.88979L12.6355 3.65225H3.6953V20.3044H16.1944V17.339C16.1944 17.1142 16.2836 16.8986 16.4426 16.7397C16.6015 16.5808 16.8171 16.4915 17.0419 16.4915C17.2666 16.4915 17.4822 16.5808 17.6411 16.7397C17.8001 16.8986 17.8894 17.1142 17.8894 17.339V21.1097C17.8472 21.6162 17.4673 21.9994 16.9997 21.9994Z"
              fill="#A3A8AF"/>
        <path d="M13.2286 8.60957H6.61826C6.39348 8.60957 6.17792 8.52028 6.01898 8.36134C5.86004 8.2024 5.77075 7.98683 5.77075 7.76206C5.77075 7.53729 5.86004 7.32172 6.01898 7.16278C6.17792 7.00384 6.39348 6.91455 6.61826 6.91455H13.2286C13.452 6.9161 13.6659 7.00553 13.8238 7.1635C13.9818 7.32147 14.0712 7.53528 14.0728 7.75868C14.0765 7.87085 14.0573 7.9826 14.0162 8.08707C13.9752 8.19154 13.9133 8.28652 13.8342 8.3662C13.7552 8.44587 13.6607 8.50856 13.5566 8.55041C13.4524 8.59226 13.3408 8.61239 13.2286 8.60957Z"
              fill="#A3A8AF"/>
        <path d="M10.3046 13.1434H6.61826C6.39348 13.1434 6.17792 13.0541 6.01898 12.8952C5.86004 12.7362 5.77075 12.5206 5.77075 12.2959C5.77075 12.0711 5.86004 11.8555 6.01898 11.6966C6.17792 11.5377 6.39348 11.4484 6.61826 11.4484H10.3046C10.5293 11.4484 10.7449 11.5377 10.9039 11.6966C11.0628 11.8555 11.1521 12.0711 11.1521 12.2959C11.1521 12.5206 11.0628 12.7362 10.9039 12.8952C10.7449 13.0541 10.5293 13.1434 10.3046 13.1434Z"
              fill="#A3A8AF"/>
        <path d="M12.1271 17.6772H6.61826C6.39348 17.6772 6.17792 17.5879 6.01898 17.429C5.86004 17.27 5.77075 17.0545 5.77075 16.8297C5.77075 16.6049 5.86004 16.3893 6.01898 16.2304C6.17792 16.0715 6.39348 15.9822 6.61826 15.9822H12.1271C12.3518 15.9822 12.5674 16.0715 12.7263 16.2304C12.8853 16.3893 12.9746 16.6049 12.9746 16.8297C12.9746 17.0545 12.8853 17.27 12.7263 17.429C12.5674 17.5879 12.3518 17.6772 12.1271 17.6772Z"
              fill="#A3A8AF"/>
        <path d="M15.0924 18.6521C13.7245 18.642 12.4156 18.0941 11.4483 17.1268C10.481 16.1596 9.93313 14.8506 9.92297 13.4827C9.93313 12.1148 10.481 10.8058 11.4483 9.83856C12.4156 8.87129 13.7245 8.32339 15.0924 8.31323C16.4603 8.32339 17.7693 8.87129 18.7366 9.83856C19.7038 10.8058 20.2517 12.1148 20.2619 13.4827C20.2517 14.8506 19.7038 16.1596 18.7366 17.1268C17.7693 18.0941 16.4603 18.642 15.0924 18.6521ZM15.0924 10.0082C14.172 10.0095 13.2891 10.3735 12.6352 11.0212C12.3098 11.3418 12.0523 11.7247 11.8783 12.1471C11.7042 12.5694 11.6171 13.0225 11.6222 13.4793C11.6232 14.3998 11.9872 15.2828 12.6352 15.9366C12.9552 16.2628 13.3378 16.5211 13.76 16.6958C14.1823 16.8706 14.6355 16.9584 15.0924 16.9538C16.0138 16.9518 16.8972 16.5863 17.5505 15.9366C17.8761 15.6162 18.1336 15.2335 18.3076 14.8112C18.4817 14.389 18.5687 13.936 18.5635 13.4793C18.5641 13.0229 18.4746 12.5708 18.3002 12.149C18.1257 11.7273 17.8698 11.344 17.5471 11.0213C17.2244 10.6985 16.8411 10.4426 16.4193 10.2682C15.9975 10.0938 15.5455 10.0043 15.0891 10.0049L15.0924 10.0082Z"
              fill="#A3A8AF"/>
        <path d="M18.61 16.9994L21.1517 19.5419L18.61 16.9994Z" fill="white"/>
        <path d="M21.1516 20.3894C21.0413 20.3883 20.9323 20.3653 20.8309 20.3219C20.7295 20.2784 20.6377 20.2153 20.5607 20.1362L18.0182 17.5937C17.8655 17.4355 17.781 17.2236 17.7829 17.0037C17.7848 16.7838 17.8729 16.5734 18.0284 16.4178C18.1838 16.2623 18.3941 16.174 18.614 16.1719C18.8339 16.1699 19.0459 16.2542 19.2042 16.4068L21.7467 18.9494C21.8272 19.0258 21.8913 19.1179 21.935 19.2199C21.9788 19.3219 22.0014 19.4318 22.0014 19.5428C22.0014 19.6538 21.9788 19.7636 21.935 19.8657C21.8913 19.9677 21.8272 20.0597 21.7467 20.1362C21.5909 20.2953 21.3785 20.3863 21.1558 20.3894H21.1516Z"
              fill="#A3A8AF"/>
    </g>
    <defs>
        <clipPath id="clip0_9216_7934">
            <rect width="20" height="20" fill="white" transform="translate(2 2)"/>
        </clipPath>
    </defs>
</svg>
