<svg viewBox="0 0 24 24" fill="none" xmlns="http://www.w3.org/2000/svg">
    <g clip-path="url(#clip0_9216_7936)">
        <path d="M6.61853 11.4724H9.7639C9.79091 11.4023 9.81877 11.3339 9.84831 11.2656C10.139 10.5921 10.5553 9.98015 11.0749 9.46242C11.7324 8.79719 12.5443 8.30505 13.4383 8.0299C14.3322 7.75475 15.2804 7.70514 16.1981 7.88551V3.69507H3.69434V20.3049H16.1948V19.0758C15.8323 19.1501 15.4632 19.1874 15.0931 19.1872C14.515 19.1884 13.9401 19.1005 13.3888 18.9264C12.9998 18.8034 12.6258 18.6375 12.2736 18.4317H6.61769C6.3929 18.4317 6.17734 18.3424 6.01839 18.1835C5.85945 18.0245 5.77015 17.8089 5.77015 17.5841C5.77015 17.3594 5.85945 17.1438 6.01839 16.9848C6.17734 16.8259 6.3929 16.7366 6.61769 16.7366H10.4224C9.74511 15.7873 9.38283 14.6493 9.38656 13.4832C9.38656 13.3777 9.38656 13.2721 9.39584 13.1675H6.61684C6.39206 13.1675 6.17649 13.0782 6.01755 12.9192C5.8586 12.7603 5.7693 12.5447 5.7693 12.3199C5.7693 12.0951 5.8586 11.8796 6.01755 11.7206C6.17649 11.5617 6.39206 11.4724 6.61684 11.4724H6.61853ZM6.61853 6.20815H13.2292C13.4527 6.20948 13.6666 6.29885 13.8247 6.45687C13.9827 6.6149 14.072 6.82884 14.0734 7.05232C14.0763 7.16397 14.0564 7.27504 14.015 7.37877C13.9736 7.4825 13.9116 7.57672 13.8326 7.6557C13.7536 7.73467 13.6594 7.79675 13.5557 7.83814C13.4519 7.87954 13.3409 7.89939 13.2292 7.89649H6.61853C6.39375 7.89649 6.17817 7.80719 6.01923 7.64825C5.86028 7.4893 5.77099 7.27373 5.77099 7.04895C5.77099 6.82416 5.86028 6.60859 6.01923 6.44964C6.17817 6.29069 6.39375 6.2014 6.61853 6.2014V6.20815Z"
              fill="#A3A8AF"/>
        <path d="M17.8898 7.18825C17.89 7.32506 17.8581 7.46002 17.7968 7.58229C17.7354 7.70457 17.6462 7.81076 17.5364 7.89235C17.4266 7.97393 17.2992 8.02864 17.1644 8.05209C17.0296 8.07553 16.8912 8.06706 16.7603 8.02735C16.6117 7.98176 16.4611 7.94237 16.3086 7.90917L16.1947 7.88553V3.69509H3.69424V20.3049H16.1947V19.0758C16.2327 19.069 16.2706 19.0606 16.3086 19.0522C16.4775 19.015 16.637 18.9677 16.7983 18.9196C16.9246 18.8809 17.0583 18.8724 17.1885 18.8948C17.3188 18.9171 17.442 18.9698 17.5481 19.0485C17.6543 19.1271 17.7406 19.2296 17.7999 19.3477C17.8592 19.4658 17.89 19.5962 17.8898 19.7283V21.1102C17.8475 21.6167 17.4677 22 17 22H2.84755C2.70883 21.9998 2.57226 21.9657 2.44981 21.9005C2.32737 21.8353 2.22277 21.741 2.14519 21.626C2.13 21.6032 2.11565 21.5796 2.10214 21.556C2.03495 21.4321 1.99983 21.2934 2 21.1525V2.84754C1.99983 2.70662 2.03495 2.5679 2.10214 2.44403C2.11565 2.4204 2.13 2.39676 2.14519 2.37397C2.22277 2.25896 2.32737 2.16473 2.44981 2.09954C2.57226 2.03434 2.70883 2.00016 2.84755 2H17C17.466 2 17.8442 2.38072 17.8898 2.88975V7.18825Z"
              fill="#A3A8AF"/>
        <path d="M18.588 10.0812C18.3437 9.83605 18.0749 9.61655 17.786 9.42609C17.2974 9.10433 16.7537 8.8754 16.1821 8.75076C15.3819 8.57634 14.5506 8.607 13.7655 8.83989C12.9803 9.07278 12.2668 9.50034 11.6911 10.0829C11.2464 10.5269 10.8905 11.0518 10.6427 11.6294C10.4226 12.1377 10.2924 12.6804 10.2577 13.2333C10.251 13.3329 10.2476 13.4325 10.2476 13.5321C10.2446 14.6566 10.6369 15.7463 11.356 16.6108C11.4606 16.7391 11.5721 16.864 11.6936 16.9814C12.2491 17.5413 12.9309 17.9596 13.6817 18.2012C14.1541 18.3504 14.6467 18.4258 15.1421 18.4249C15.4928 18.4248 15.8425 18.3857 16.1846 18.3084C16.7554 18.1813 17.2987 17.9526 17.7885 17.6331C17.8544 17.5909 17.9202 17.5487 17.9835 17.4997C18.4164 17.1887 18.7956 16.8092 19.1063 16.3761C19.789 15.4401 20.1126 14.2899 20.0179 13.1353C19.9232 11.9806 19.4166 10.8985 18.5905 10.0862L18.588 10.0812ZM17.4652 15.8553C17.2225 16.097 16.9437 16.2995 16.6388 16.4555C16.6343 16.4569 16.6301 16.4589 16.6261 16.4614C16.1651 16.695 15.6556 16.817 15.1387 16.8176C14.7063 16.8222 14.2775 16.7393 13.878 16.5739C13.4785 16.4085 13.1165 16.1641 12.8138 15.8553C12.1989 15.2372 11.8527 14.4014 11.8506 13.5296C11.8464 13.0971 11.9295 12.6681 12.095 12.2685C12.2605 11.8689 12.505 11.5068 12.8138 11.2039C13.2745 10.7458 13.8603 10.4343 14.4976 10.3085C15.135 10.1826 15.7952 10.2482 16.3954 10.4968C16.9955 10.7454 17.5087 11.1661 17.8703 11.7057C18.232 12.2454 18.4258 12.88 18.4276 13.5296C18.4322 13.9621 18.3494 14.3911 18.184 14.7908C18.0186 15.1904 17.7741 15.5525 17.4652 15.8553Z"
              fill="#A3A8AF"/>
        <path d="M21.4345 18.7027L19.0286 16.2969C18.9549 16.2231 18.8674 16.1647 18.771 16.1248C18.6747 16.0849 18.5715 16.0643 18.4672 16.0643C18.363 16.0643 18.2597 16.0849 18.1634 16.1248C18.0671 16.1647 17.9796 16.2231 17.9059 16.2969C17.8321 16.3706 17.7737 16.4581 17.7338 16.5544C17.6939 16.6507 17.6733 16.754 17.6733 16.8582C17.6733 16.9625 17.6939 17.0657 17.7338 17.162C17.7737 17.2584 17.8321 17.3459 17.9059 17.4196L20.3117 19.8255C20.3848 19.9007 20.472 19.9607 20.5683 20.002C20.6647 20.0433 20.7683 20.0651 20.8731 20.0661C20.978 20.0652 21.0816 20.0434 21.178 20.0021C21.2743 19.9608 21.3615 19.9008 21.4345 19.8255C21.5105 19.7531 21.5711 19.666 21.6125 19.5695C21.6539 19.473 21.6752 19.3691 21.6752 19.2641C21.6752 19.1591 21.6539 19.0552 21.6125 18.9587C21.5711 18.8622 21.5105 18.7751 21.4345 18.7027Z"
              fill="#A3A8AF"/>
    </g>
    <defs>
        <clipPath id="clip0_9216_7936">
            <rect width="19.6758" height="20" fill="white" transform="translate(2 2)"/>
        </clipPath>
    </defs>
</svg>
