<svg viewBox="0 0 24 24" fill="none" xmlns="http://www.w3.org/2000/svg">
    <path d="M20.1595 4.51044H8.86138C7.84654 4.51044 7.02087 5.3361 7.02087 6.35219C7.02087 7.36704 7.84654 8.1927 8.86138 8.1927H20.1595C21.1743 8.1927 22 7.36704 22 6.35219C22 5.33606 21.1744 4.51044 20.1595 4.51044Z"
          fill="#A3A8AF"/>
    <path d="M3.84117 4.51044C2.82598 4.51044 2 5.33637 2 6.35157C2 7.36677 2.82598 8.1927 3.84117 8.1927C4.85637 8.1927 5.6823 7.36677 5.6823 6.35157C5.6823 5.33637 4.85637 4.51044 3.84117 4.51044Z"
          fill="#A3A8AF"/>
    <path d="M3.84117 10.1589C2.82598 10.1589 2 10.9848 2 12C2 13.0152 2.82598 13.8411 3.84117 13.8411C4.85637 13.8411 5.6823 13.0152 5.6823 12C5.6823 10.9848 4.85637 10.1589 3.84117 10.1589Z"
          fill="#A3A8AF"/>
    <path d="M3.84117 15.8073C2.82598 15.8073 2 16.6332 2 17.6484C2 18.6636 2.82598 19.4896 3.84117 19.4896C4.85637 19.4896 5.6823 18.6636 5.6823 17.6484C5.6823 16.6332 4.85637 15.8073 3.84117 15.8073Z"
          fill="#A3A8AF"/>
    <path d="M20.1595 10.1589H8.86138C7.84654 10.1589 7.02087 10.9845 7.02087 12.0006C7.02087 13.0155 7.84654 13.8411 8.86138 13.8411H20.1595C21.1743 13.8411 22 13.0155 22 12.0006C22 10.9845 21.1744 10.1589 20.1595 10.1589Z"
          fill="#A3A8AF"/>
    <path d="M20.1595 15.8073H8.86138C7.84654 15.8073 7.02087 16.633 7.02087 17.6491C7.02087 18.6639 7.84654 19.4896 8.86138 19.4896H20.1595C21.1743 19.4896 22 18.6639 22 17.6491C22 16.633 21.1744 15.8073 20.1595 15.8073Z"
          fill="#A3A8AF"/>
</svg>
