<svg width="24" height="24" viewBox="0 0 24 24" fill="none" xmlns="http://www.w3.org/2000/svg">
    <g clip-path="url(#clip0_6179_6085)">
        <path d="M5.94537 19.2617C7.12329 19.2617 8.07818 18.3068 8.07818 17.1289C8.07818 15.951 7.12329 14.9961 5.94537 14.9961C4.76745 14.9961 3.81256 15.951 3.81256 17.1289C3.81256 18.3068 4.76745 19.2617 5.94537 19.2617Z" fill="#BFC3C7"/>
        <path d="M19.6642 17.3711C20.6868 17.3711 21.5157 16.5421 21.5157 15.5195C21.5157 14.4969 20.6868 13.668 19.6642 13.668C18.6416 13.668 17.8126 14.4969 17.8126 15.5195C17.8126 16.5421 18.6416 17.3711 19.6642 17.3711Z" fill="#EFF2F5"/>
        <path d="M17.9766 8.03514C18.8202 8.03514 19.504 7.35133 19.504 6.5078C19.504 5.66427 18.8202 4.98045 17.9766 4.98045C17.1331 4.98045 16.4493 5.66427 16.4493 6.5078C16.4493 7.35133 17.1331 8.03514 17.9766 8.03514Z" fill="#E9EDF1"/>
        <path d="M4.26172 14.0547C5.51083 14.0547 6.52344 13.0666 6.52344 11.8477C6.52344 10.6287 5.51083 9.64062 4.26172 9.64062C3.01261 9.64062 2 10.6287 2 11.8477C2 13.0666 3.01261 14.0547 4.26172 14.0547Z" fill="#B5B9BF"/>
        <path d="M10.7655 22C11.9024 22 12.8241 21.1028 12.8241 19.9961C12.8241 18.8894 11.9024 17.9922 10.7655 17.9922C9.62857 17.9922 8.70691 18.8894 8.70691 19.9961C8.70691 21.1028 9.62857 22 10.7655 22Z" fill="#C8CBCF"/>
        <path d="M16.0548 21.1211C17.1335 21.1211 18.0079 20.2694 18.0079 19.2187C18.0079 18.1681 17.1335 17.3164 16.0548 17.3164C14.9761 17.3164 14.1017 18.1681 14.1017 19.2187C14.1017 20.2694 14.9761 21.1211 16.0548 21.1211Z" fill="#B9C3CD" fill-opacity="0.5"/>
        <path opacity="0.9" d="M6.71094 8.92969C8.0183 8.92969 9.07812 7.8961 9.07812 6.62109C9.07812 5.34609 8.0183 4.3125 6.71094 4.3125C5.40358 4.3125 4.34375 5.34609 4.34375 6.62109C4.34375 7.8961 5.40358 8.92969 6.71094 8.92969Z" fill="#ADB1B7"/>
        <path d="M20.2501 12.4258C21.2166 12.4258 22.0001 11.658 22.0001 10.7109C22.0001 9.76386 21.2166 8.99609 20.2501 8.99609C19.2836 8.99609 18.5001 9.76386 18.5001 10.7109C18.5001 11.658 19.2836 12.4258 20.2501 12.4258Z" fill="#EDEEEF"/>
        <path d="M12.4961 6.99219C13.8746 6.99219 14.9922 5.87465 14.9922 4.49609C14.9922 3.11754 13.8746 2 12.4961 2C11.1175 2 10 3.11754 10 4.49609C10 5.87465 11.1175 6.99219 12.4961 6.99219Z" fill="#A3A8AF"/>
    </g>
    <defs>
        <clipPath id="clip0_6179_6085">
            <rect width="20" height="20" fill="white" transform="translate(2 2)"/>
        </clipPath>
    </defs>
</svg>
