<svg width="24" height="24" viewBox="0 0 24 24" fill="none" xmlns="http://www.w3.org/2000/svg">
<g clip-path="url(#clip0_7751_99666)">
<path d="M15.3217 7.3504C15.3217 5.39099 13.7276 3.79688 11.7682 3.79688C9.80896 3.79688 8.21484 5.39099 8.21484 7.3504C8.21484 9.30963 9.80878 10.9037 11.7682 10.9037C13.7276 10.9037 15.3217 9.30963 15.3217 7.3504Z" fill="#0088FF"/>
<path d="M11.7682 19.7812C12.3188 19.064 15.5469 14.6276 16.6337 13.1453C17.9262 11.3826 19.1186 9.61395 19.1186 7.3504C19.1186 3.29095 15.8276 0.000183105 11.7682 0.000183105L11.7673 0C7.70764 0 4.41797 3.29077 4.41797 7.35022C4.41797 9.61377 5.61017 11.3826 6.90271 13.1453C7.98962 14.6276 11.7682 19.7812 11.7682 19.7812ZM6.80859 7.3504C6.80859 4.61554 9.03351 2.39062 11.7682 2.39062C14.5031 2.39062 16.728 4.61554 16.728 7.3504C16.728 10.0851 14.5031 12.31 11.7682 12.31C9.03351 12.31 6.80859 10.0851 6.80859 7.3504Z" fill="#0088FF"/>
<path d="M14.4666 18.4783C14.321 18.6771 11.7415 22.1243 11.7415 22.1243L9.0683 18.4783H5.83191L3.75 24H19.7845L17.7025 18.4783H14.4666Z" fill="#0088FF"/>
</g>
<defs>
<clipPath id="clip0_7751_99666">
<rect width="24" height="24" fill="white"/>
</clipPath>
</defs>
</svg>
