<svg viewBox="0 0 24 24" fill="none" xmlns="http://www.w3.org/2000/svg">
    <path d="M10.8061 11.1128L9.00739 10.839L8.20333 9.13205C8.18137 9.08531 8.14524 9.04748 8.10061 9.02448C7.98868 8.96662 7.85266 9.01484 7.7967 9.13205L6.99264 10.839L5.19395 11.1128C5.14437 11.1202 5.09903 11.1447 5.06431 11.1818C5.02235 11.2269 4.99922 11.2877 5.00002 11.3507C5.00082 11.4137 5.02547 11.4738 5.06856 11.5178L6.36994 12.8465L6.06248 14.7226C6.05527 14.7662 6.05988 14.8111 6.07579 14.8521C6.0917 14.8932 6.11828 14.9287 6.1525 14.9548C6.18672 14.9808 6.22722 14.9962 6.26941 14.9994C6.3116 15.0025 6.35379 14.9933 6.39119 14.9726L8.00001 14.0868L9.60884 14.9726C9.65276 14.9971 9.70377 15.0052 9.75265 14.9963C9.87592 14.9741 9.9588 14.8517 9.93755 14.7226L9.63009 12.8465L10.9315 11.5178C10.9669 11.4815 10.9903 11.434 10.9973 11.3821C11.0165 11.2522 10.93 11.1321 10.8061 11.1128Z"
          stroke="#A3A8AF" stroke-width="1.5"/>
    <rect x="1.875" y="5.875" width="20.25" height="13.25" rx="2.125" stroke="#A3A8AF" stroke-width="1.75"/>
    <path d="M14 11H19" stroke="#A3A8AF" stroke-width="1.5" stroke-linecap="round"/>
    <path d="M14 14H17" stroke="#A3A8AF" stroke-width="1.5" stroke-linecap="round"/>
</svg>
