<svg width="24" height="25" viewBox="0 0 24 25" fill="none" xmlns="http://www.w3.org/2000/svg">
<g clip-path="url(#clip0_7751_98938)">
<g clip-path="url(#clip1_7751_98938)">
<path d="M21.3464 10.6426C21.1072 9.60642 20.6478 8.57497 20.0805 7.65135C20.057 7.61384 20.057 7.56696 20.0758 7.52945L21.2057 5.15242C21.2291 5.10554 21.2198 5.04459 21.1823 5.00708L19.6304 3.45522C19.5929 3.41771 19.5319 3.40833 19.4851 3.43177L17.108 4.56168C17.0705 4.58044 17.0236 4.57575 16.9861 4.55699C16.0625 3.9897 15.1436 3.64275 14.1121 3.40833C14.0699 3.39895 14.0324 3.36614 14.0184 3.32394L13.2307 0.83908C13.212 0.787507 13.1651 0.75 13.1088 0.75H10.8912C10.8349 0.75 10.788 0.782819 10.7693 0.834391L9.86443 3.32394C9.85036 3.36614 9.81285 3.39427 9.77066 3.40364C8.73921 3.64275 7.81559 4.10222 6.89666 4.66952C6.85915 4.69296 6.81227 4.69296 6.77476 4.6742L4.39773 3.54898C4.35085 3.52554 4.29459 3.53492 4.25708 3.57243L2.7099 5.00708C2.66771 5.04459 2.65833 5.10554 2.68177 5.15711L3.81168 7.52945C3.83044 7.56696 3.82575 7.61384 3.80699 7.65135C3.2397 8.57028 2.89275 9.4939 2.65833 10.5253C2.64895 10.5675 2.61614 10.6051 2.57863 10.6191L0.0843915 11.5193C0.0328189 11.538 0 11.5849 0 11.6412V13.8635C0 13.9198 0.0328189 13.9666 0.0843915 13.9854L2.57394 14.8903C2.61614 14.9043 2.64427 14.9418 2.65364 14.984C2.89275 16.0155 3.34753 17.0469 3.80699 17.858C3.82575 17.8955 3.83044 17.9377 3.81168 17.9752L2.67709 20.3523C2.65364 20.3992 2.66302 20.4601 2.70053 20.4976L4.25239 22.0495C4.2899 22.087 4.35085 22.0964 4.39773 22.0729L6.77476 20.943C6.81227 20.9243 6.85915 20.9289 6.89666 20.9477C7.81559 21.5197 8.73921 21.9745 9.77066 22.2136C9.81285 22.2229 9.84567 22.2511 9.85974 22.2933L10.7646 24.6656C10.7834 24.7172 10.8302 24.75 10.8865 24.75H13.1088C13.1651 24.75 13.212 24.7172 13.2307 24.6656L14.1403 22.1667C14.1543 22.1292 14.1825 22.101 14.22 22.087C14.506 21.9932 14.8529 21.9041 15.1576 21.8104C15.2514 21.7822 15.2795 21.665 15.2092 21.5947L13.4886 19.8787C13.4604 19.8506 13.4182 19.8365 13.376 19.8412C9.09553 20.5914 5.25571 17.6517 4.83844 13.5025C4.39305 9.09069 8.03126 5.28839 12.4571 5.56031C16.6486 5.81818 19.7429 9.61111 19.0912 13.6431C19.0865 13.6853 19.0959 13.7275 19.1287 13.7557L20.976 15.6029C21.0416 15.6685 21.1541 15.6451 21.187 15.556C21.2713 15.3216 21.3417 15.1247 21.3557 14.8762C21.3604 14.8246 21.3932 14.7777 21.4448 14.759C21.8433 14.6324 23.503 14.1026 23.9109 13.976C23.9625 13.9573 24 13.9104 24 13.8541V11.6412C24 11.5849 23.9625 11.538 23.9109 11.5193L21.4354 10.7363C21.3886 10.7223 21.3604 10.6848 21.3464 10.6426Z" fill="#0088FF"/>
<path d="M23.519 21.628L16.4409 14.5498C18.119 10.828 14.6409 6.87171 10.8018 7.94984L12.9627 10.1108C13.9237 11.0717 13.9237 12.6326 12.9627 13.4717C12.1237 14.4326 10.4409 14.4326 9.6018 13.4717L7.44087 11.4326C6.36274 14.7936 9.84087 18.6326 13.8018 17.0717L20.8799 24.1498C21.6018 24.8717 22.6799 24.8717 23.4018 24.1498C24.119 23.5498 24.119 22.3498 23.519 21.628Z" fill="#0088FF"/>
</g>
</g>
<defs>
<clipPath id="clip0_7751_98938">
<rect width="24" height="24" fill="white" transform="translate(0 0.75)"/>
</clipPath>
<clipPath id="clip1_7751_98938">
<rect width="24" height="24" fill="white" transform="translate(0 0.75)"/>
</clipPath>
</defs>
</svg>
