<svg viewBox="0 0 24 24" fill="none" xmlns="http://www.w3.org/2000/svg">
    <path fill-rule="evenodd" clip-rule="evenodd"
          d="M11.8115 2C14.1651 2 16.3779 2.87989 18.0421 4.47759C19.7064 6.07533 20.6229 8.19956 20.6229 10.459C20.6229 15.0297 16.1211 18.8314 13.7025 20.8739L13.7024 20.874L13.7004 20.8757C13.3652 21.1588 13.0756 21.4033 12.8448 21.6103C12.5551 21.8701 12.1833 22 11.8114 22C11.4397 22 11.0678 21.8701 10.7781 21.6103C10.5468 21.4029 10.2566 21.1578 9.92048 20.874C7.50189 18.8316 3 15.0298 3 10.459C3 8.19956 3.91655 6.07533 5.58082 4.47759C7.24505 2.87989 9.45787 2 11.8115 2ZM12.0118 20.7542C12.2563 20.5349 12.5529 20.2844 12.8964 19.9944C15.1701 18.0742 19.4025 14.5 19.4025 10.459C19.4025 6.44072 15.9971 3.17161 11.8114 3.17161C7.62563 3.17161 4.2203 6.44072 4.2203 10.459C4.2203 14.5 8.4527 18.0742 10.7265 19.9943L10.7282 19.9958C11.0709 20.2852 11.367 20.5352 11.6111 20.7542C11.7235 20.8549 11.8994 20.8548 12.0118 20.7542ZM7.9284 10.1394C7.9284 8.08392 9.67035 6.41168 11.8115 6.41168C13.9527 6.41168 15.6946 8.08392 15.6946 10.1394C15.6946 12.195 13.9527 13.8672 11.8115 13.8672C9.67035 13.8672 7.9284 12.195 7.9284 10.1394ZM9.14878 10.1394C9.14878 11.5489 10.3433 12.6956 11.8115 12.6956C13.2797 12.6956 14.4742 11.5489 14.4742 10.1394C14.4742 8.72993 13.2797 7.58321 11.8115 7.58321C10.3433 7.58321 9.14878 8.72993 9.14878 10.1394Z"
          fill="#A3A8AF"/>
    <path d="M18.0421 4.47759L18.2152 4.29724L18.0421 4.47759ZM20.6229 10.459H20.8729V10.459L20.6229 10.459ZM13.7025 20.8739L13.5412 20.6829L13.5408 20.6833L13.7025 20.8739ZM13.7024 20.874L13.8638 21.0649L13.8642 21.0646L13.7024 20.874ZM13.7004 20.8757L13.8617 21.0667L13.8618 21.0666L13.7004 20.8757ZM12.8448 21.6103L13.0117 21.7964L13.0118 21.7964L12.8448 21.6103ZM10.7781 21.6103L10.945 21.4241L10.945 21.4241L10.7781 21.6103ZM9.92048 20.874L10.0818 20.683L9.92048 20.874ZM5.58082 4.47759L5.75396 4.65793L5.58082 4.47759ZM12.8964 19.9944L13.0577 20.1854L13.0577 20.1854L12.8964 19.9944ZM12.0118 20.7542L12.1786 20.9404L12.1786 20.9403L12.0118 20.7542ZM19.4025 10.459H19.1525V10.459L19.4025 10.459ZM10.7265 19.9943L10.8878 19.8034L10.8878 19.8033L10.7265 19.9943ZM10.7282 19.9958L10.5668 20.1867L10.5669 20.1868L10.7282 19.9958ZM11.6111 20.7542L11.4441 20.9403L11.4442 20.9404L11.6111 20.7542ZM18.2152 4.29724C16.5034 2.65385 14.2282 1.75 11.8115 1.75V2.25C14.102 2.25 16.2523 3.10592 17.869 4.65793L18.2152 4.29724ZM20.8729 10.459C20.8729 8.12988 19.9274 5.94101 18.2152 4.29724L17.869 4.65793C19.4853 6.20965 20.3729 8.26923 20.3729 10.459L20.8729 10.459ZM13.8638 21.0649C15.0716 20.045 16.8196 18.5696 18.2646 16.7711C19.708 14.9745 20.8729 12.8266 20.8729 10.459H20.3729C20.3729 12.6621 19.2869 14.7004 17.8748 16.458C16.4642 18.2136 14.7521 19.6603 13.5412 20.6829L13.8638 21.0649ZM13.8642 21.0646L13.8643 21.0645L13.5408 20.6833L13.5407 20.6834L13.8642 21.0646ZM13.8618 21.0666L13.8638 21.0649L13.5411 20.683L13.5391 20.6847L13.8618 21.0666ZM13.0118 21.7964C13.2392 21.5925 13.5255 21.3506 13.8617 21.0667L13.5391 20.6847C13.2049 20.9669 12.9121 21.2142 12.6779 21.4242L13.0118 21.7964ZM11.8114 22.25C12.2408 22.25 12.6732 22.1 13.0117 21.7964L12.678 21.4241C12.437 21.6402 12.1258 21.75 11.8114 21.75V22.25ZM10.6112 21.7964C10.9497 22.1 11.3821 22.25 11.8114 22.25V21.75C11.4972 21.75 11.1859 21.6402 10.945 21.4241L10.6112 21.7964ZM9.75918 21.065C10.0963 21.3496 10.3833 21.5921 10.6112 21.7964L10.945 21.4241C10.7104 21.2138 10.4169 20.966 10.0818 20.683L9.75918 21.065ZM2.75 10.459C2.75 12.8266 3.91491 14.9746 5.35838 16.7712C6.80338 18.5697 8.55146 20.0451 9.75918 21.065L10.0818 20.683C8.87091 19.6604 7.15875 18.2137 5.74816 16.458C4.33604 14.7004 3.25 12.6621 3.25 10.459H2.75ZM5.40769 4.29724C3.69548 5.941 2.75 8.12988 2.75 10.459H3.25C3.25 8.26923 4.13762 6.20965 5.75396 4.65793L5.40769 4.29724ZM11.8115 1.75C9.39479 1.75 7.11951 2.65385 5.40769 4.29724L5.75396 4.65793C7.37059 3.10592 9.52096 2.25 11.8115 2.25V1.75ZM12.7351 19.8034C12.3925 20.0926 12.0928 20.3458 11.8449 20.568L12.1786 20.9403C12.4198 20.7241 12.7133 20.4762 13.0577 20.1854L12.7351 19.8034ZM19.1525 10.459C19.1525 12.3938 18.1373 14.2417 16.8087 15.8636C15.483 17.482 13.8736 18.8419 12.7351 19.8034L13.0577 20.1854C14.1929 19.2267 15.8366 17.8394 17.1955 16.1804C18.5515 14.525 19.6525 12.5652 19.6525 10.459L19.1525 10.459ZM11.8114 3.42161C15.8688 3.42161 19.1525 6.58831 19.1525 10.459H19.6525C19.6525 6.29313 16.1255 2.92161 11.8114 2.92161V3.42161ZM4.4703 10.459C4.4703 6.58831 7.75398 3.42161 11.8114 3.42161V2.92161C7.49728 2.92161 3.9703 6.29313 3.9703 10.459H4.4703ZM10.8878 19.8033C9.74923 18.8419 8.13985 17.482 6.81412 15.8636C5.48553 14.2416 4.4703 12.3938 4.4703 10.459H3.9703C3.9703 12.5652 5.07127 14.525 6.42732 16.1804C7.78624 17.8394 9.42994 19.2267 10.5652 20.1853L10.8878 19.8033ZM10.8895 19.8048L10.8878 19.8034L10.5651 20.1853L10.5668 20.1867L10.8895 19.8048ZM11.778 20.5681C11.5305 20.3461 11.2313 20.0934 10.8895 19.8048L10.5669 20.1868C10.9106 20.477 11.2034 20.7243 11.4441 20.9403L11.778 20.5681ZM11.8449 20.568C11.8376 20.5746 11.826 20.5797 11.8114 20.5797C11.7968 20.5797 11.7853 20.5746 11.7779 20.568L11.4442 20.9404C11.6516 21.1262 11.9713 21.1261 12.1786 20.9404L11.8449 20.568ZM11.8115 6.16168C9.54199 6.16168 7.6784 7.93632 7.6784 10.1394H8.1784C8.1784 8.23151 9.7987 6.66168 11.8115 6.66168V6.16168ZM15.9446 10.1394C15.9446 7.93632 14.081 6.16168 11.8115 6.16168V6.66168C13.8243 6.66168 15.4446 8.23151 15.4446 10.1394H15.9446ZM11.8115 14.1172C14.081 14.1172 15.9446 12.3425 15.9446 10.1394H15.4446C15.4446 12.0474 13.8243 13.6172 11.8115 13.6172V14.1172ZM7.6784 10.1394C7.6784 12.3425 9.54199 14.1172 11.8115 14.1172V13.6172C9.7987 13.6172 8.1784 12.0474 8.1784 10.1394H7.6784ZM11.8115 12.4456C10.4716 12.4456 9.39878 11.4013 9.39878 10.1394H8.89878C8.89878 11.6964 10.2149 12.9456 11.8115 12.9456V12.4456ZM14.2242 10.1394C14.2242 11.4013 13.1514 12.4456 11.8115 12.4456V12.9456C13.4081 12.9456 14.7242 11.6964 14.7242 10.1394H14.2242ZM11.8115 7.83321C13.1514 7.83321 14.2242 8.87752 14.2242 10.1394H14.7242C14.7242 8.58235 13.4081 7.33321 11.8115 7.33321V7.83321ZM9.39878 10.1394C9.39878 8.87753 10.4716 7.83321 11.8115 7.83321V7.33321C10.2149 7.33321 8.89878 8.58234 8.89878 10.1394H9.39878Z"
          fill="#A3A8AF"/>
</svg>
