<svg viewBox="0 0 24 24" fill="none" xmlns="http://www.w3.org/2000/svg">
    <path fill-rule="evenodd" clip-rule="evenodd"
          d="M2.10287 3.55825C2.27116 3.21647 2.61904 3 3.00001 3H21.1818C21.5628 3 21.9107 3.21647 22.079 3.55825C22.2472 3.90003 22.2067 4.30775 21.9744 4.60971L13.0909 16.1583V19.3636H14.8182C15.3705 19.3636 15.8182 19.8113 15.8182 20.3636C15.8182 20.9159 15.3705 21.3636 14.8182 21.3636H12.0909H9.36364C8.81135 21.3636 8.36364 20.9159 8.36364 20.3636C8.36364 19.8113 8.81135 19.3636 9.36364 19.3636H11.0909V16.1583L2.20738 4.60971C1.9751 4.30775 1.93458 3.90003 2.10287 3.55825ZM7.82807 8.63636L12.0909 14.1781L16.3538 8.63636H7.82807ZM6.28961 6.63636H17.8922L19.151 5H5.03087L6.28961 6.63636Z"
          fill="#A3A8AF"/>
</svg>
