<svg viewBox="0 0 24 24" fill="none" xmlns="http://www.w3.org/2000/svg">
    <g clip-path="url(#clip0_8803_7834)">
        <path d="M6.89352 7.69201C7.28621 7.69201 7.60455 7.37367 7.60455 6.98099C7.60455 6.5883 7.28621 6.26996 6.89352 6.26996C6.50083 6.26996 6.1825 6.5883 6.1825 6.98099C6.1825 7.37367 6.50083 7.69201 6.89352 7.69201Z"
              fill="#A3A8AF"/>
        <path d="M6.89347 6.56274C6.66343 6.56274 6.47522 6.75096 6.47522 6.98099C6.47522 7.21103 6.66343 7.39925 6.89347 7.39925C7.12351 7.39925 7.31172 7.21103 7.31172 6.98099C7.31172 6.75096 7.12351 6.56274 6.89347 6.56274Z"
              fill="#A3A8AF"/>
        <path d="M8.98474 17.1863C8.59158 17.1863 8.27371 16.8685 8.27371 16.4753V15.5133H7.31173C6.91858 15.5133 6.60071 15.1955 6.60071 14.8023C6.60071 14.4091 6.91858 14.0913 7.31173 14.0913H8.27371V13.1293C8.27371 12.7361 8.59158 12.4183 8.98474 12.4183C9.37789 12.4183 9.69577 12.7361 9.69577 13.1293V14.0913H10.6577C11.0509 14.0913 11.3688 14.4091 11.3688 14.8023C11.3688 15.1955 11.0509 15.5133 10.6577 15.5133H9.69577V16.4753C9.69577 16.8685 9.37789 17.1863 8.98474 17.1863Z"
              fill="#A3A8AF"/>
        <path d="M10.6577 14.3841H9.40294V13.1293C9.40294 12.8993 9.21473 12.7111 8.98469 12.7111C8.75465 12.7111 8.56644 12.8993 8.56644 13.1293V14.3841H7.31168C7.08165 14.3841 6.89343 14.5723 6.89343 14.8023C6.89343 15.0324 7.08165 15.2206 7.31168 15.2206H8.56644V16.4753C8.56644 16.7054 8.75465 16.8936 8.98469 16.8936C9.21473 16.8936 9.40294 16.7054 9.40294 16.4753V15.2206H10.6577C10.8877 15.2206 11.0759 15.0324 11.0759 14.8023C11.0759 14.5723 10.8877 14.3841 10.6577 14.3841Z"
              fill="#A3A8AF"/>
        <path d="M18.1498 20.0863L17.8997 19.653L15.6829 15.8135L15.4331 15.3807L15.8657 15.1306L17.6893 14.0766L17.6926 14.0747L17.6926 14.0747C18.104 13.8411 18.5735 13.7125 19.0479 13.7125C20.0158 13.7125 20.9183 14.2293 21.4015 15.0723C22.1489 16.3691 21.7034 18.0333 20.4065 18.7819L18.1498 20.0863ZM18.1498 20.0863L18.5829 19.8359L20.4062 18.7821L18.1498 20.0863ZM11.3587 21.0923L11.2104 20.8688H10.9422H4.38403C3.34686 20.8688 2.5 20.022 2.5 18.9848V10.8833C2.5 10.4797 2.63308 10.0756 2.87583 9.75415L2.87681 9.75285L4.9095 7.04259L5.0095 6.90925V6.74259V5.84335V5.53773L4.73751 5.39836C4.39741 5.22409 4.173 4.86413 4.173 4.47148V2.54753C4.173 1.97044 4.64344 1.5 5.22053 1.5H12.749C13.3261 1.5 13.7966 1.97044 13.7966 2.54753V4.47148C13.7966 4.86354 13.5724 5.2253 13.2292 5.40404L12.9601 5.54415V5.84753V6.74677V6.91343L13.0601 7.04677L15.0928 9.75704L15.0937 9.75834C15.3365 10.0798 15.4696 10.4839 15.4696 10.8875V14.0076V14.8742L16.2198 14.4405L17.478 13.7132C17.4782 13.713 17.4784 13.7129 17.4786 13.7128C17.9559 13.4381 18.5014 13.2905 19.0479 13.2905C20.1658 13.2905 21.2096 13.8936 21.7687 14.8602C22.6342 16.3569 22.1177 18.284 20.6219 19.1454L20.6214 19.1457L15.5522 22.0735L15.5507 22.0743C15.0668 22.356 14.5262 22.5 13.9787 22.5C12.9303 22.5 11.936 21.9617 11.3587 21.0923ZM12.6205 17.0083L12.6204 17.0084C11.3214 17.758 10.8829 19.4231 11.6251 20.7182L11.6258 20.7194C12.1081 21.5558 13.0093 22.0779 13.9787 22.0779C14.4531 22.0779 14.9226 21.9494 15.334 21.7158L15.3369 21.7141L17.3528 20.5514L17.7861 20.3015L17.536 19.8683L15.3193 16.0287L15.0694 15.5959L14.6365 15.8456L12.6205 17.0083ZM10.3859 20.4468H10.9739L10.8794 19.8664C10.8289 19.5564 10.8252 19.2384 10.8687 18.9234L10.9471 18.3551H10.3734H3.42205H2.92205V18.8551V18.9848C2.92205 19.7921 3.57671 20.4468 4.38403 20.4468H10.3859ZM10.8878 17.9373H11.1662L11.3128 17.7007C11.5832 17.2645 11.9577 16.901 12.4036 16.6457L12.4053 16.6447L14.7935 15.2645L15.0433 15.1201V14.8316V11.8745V11.3745H14.5433H3.42205H2.92205V11.8745V17.4373V17.9373H3.42205H10.8878ZM14.4429 10.9525H15.252L14.8902 10.2289C14.8556 10.1597 14.8125 10.0849 14.7595 10.012L14.7595 10.012L14.755 10.006L12.7934 7.39191L12.6434 7.19201H12.3935H8.56653C8.44952 7.19201 8.35551 7.098 8.35551 6.98099C8.35551 6.86397 8.44952 6.76996 8.56653 6.76996H12.038H12.538V6.26996V6.01901V5.51901H12.038H5.93155H5.43155V6.01901V6.98099C5.43155 7.02856 5.4159 7.07259 5.391 7.10541L5.391 7.10541L5.38942 7.10751L3.21452 10.006L3.21447 10.006L3.21008 10.012C3.15709 10.0849 3.11399 10.1597 3.0794 10.2289L2.7176 10.9525H3.52661H14.4429ZM5.22053 1.92205C4.87328 1.92205 4.59505 2.20028 4.59505 2.54753V4.47148C4.59505 4.81873 4.87328 5.09696 5.22053 5.09696H12.749C13.0963 5.09696 13.3745 4.81873 13.3745 4.47148V2.54753C13.3745 2.20028 13.0963 1.92205 12.749 1.92205H5.22053Z"
              fill="#A3A8AF" stroke="#A6AAAE"/>
        <path d="M11.514 20.7852L11.5348 20.8202C12.3317 22.1577 14.0531 22.6059 15.4015 21.8268L15.4016 21.8267L15.4027 21.8261L15.2334 21.5319M11.514 20.7852L11.3493 18.23L11.4922 17.9729C11.7408 17.5252 12.1025 17.1562 12.5548 16.8962L12.5557 16.8957L12.5593 16.8937L12.5594 16.8936L14.8294 15.5826L15.0903 15.4318L15.1167 15.4166L15.2856 15.709L15.2868 15.7111L17.7951 20.0546L17.7963 20.0567L17.9639 20.3469L17.6758 20.5132L15.4033 21.8257L15.2334 21.5319M11.514 20.7852L11.8079 20.616M11.514 20.7852L11.5139 20.785L11.8079 20.616M15.2334 21.5319C14.033 22.2262 12.498 21.8164 11.8079 20.616M15.2334 21.5319L17.0753 20.4722L17.0757 20.4729L17.5087 20.2228L17.2593 19.7894L17.2587 19.7898L14.9992 15.8772L12.7281 17.1863C11.5319 17.8764 11.1095 19.4031 11.8079 20.616M18.1906 20.4039L18.1921 20.4065L17.758 20.6562L15.4837 21.9648L18.1906 20.4039ZM18.1906 20.4039L18.4785 20.2373L20.5508 19.0382L18.1906 20.4039ZM20.4726 18.8979C21.8236 18.1141 22.3019 16.3791 21.5137 15.011C21.5135 15.0108 21.5133 15.0105 21.5132 15.0102C20.727 13.6478 18.9878 13.1817 17.625 13.9679L20.4726 18.8979ZM20.4726 18.8979L20.3026 18.6042L20.4719 18.8983M20.4703 18.8992L18.3971 20.0967L18.1092 20.2629L20.4703 18.8992ZM21.656 14.929C21.6558 14.9288 21.6557 14.9285 21.6555 14.9283L20.553 19.037C21.9825 18.2136 22.4887 16.3738 21.656 14.929Z"
              fill="#A3A8AF" stroke="#A6AAAE"/>
    </g>
    <defs>
        <clipPath id="clip0_8803_7834">
            <rect width="20.6867" height="22" fill="white" transform="translate(2 1)"/>
        </clipPath>
    </defs>
</svg>
