<svg viewBox="0 0 24 24" fill="none" xmlns="http://www.w3.org/2000/svg">
    <g clip-path="url(#clip0_8803_7835)">
        <path d="M4.37187 5.70909C4.37187 5.44297 4.37187 5.17686 4.37187 4.89917C6.8132 4.89917 9.25452 4.89917 11.6958 4.89917C11.6958 5.16529 11.6958 5.4314 11.6958 5.70909C11.8231 5.7438 11.9504 5.76694 12.0777 5.80165C12.5752 5.94049 13.038 6.1719 13.4198 6.53057C13.8595 6.93553 14.0793 7.42148 14.0793 8.03471C14.0677 10.0479 14.0793 12.0727 14.0793 14.0859C14.0793 14.2132 14.033 14.2826 13.9289 14.3521C12.9686 14.9421 12.0082 15.5322 11.0479 16.1339C10.1223 16.7124 9.70576 17.557 9.75204 18.6331C9.75204 18.6793 9.76361 18.714 9.76361 18.7603C9.76361 18.795 9.77518 18.8413 9.77518 18.8992C9.71733 18.8992 9.67105 18.8992 9.6132 18.8992C7.94708 18.8992 6.26939 18.8992 4.60328 18.8992C3.97849 18.8992 3.3884 18.7603 2.85617 18.4132C2.43964 18.1355 2.11568 17.7769 2.02311 17.2678C1.99997 17.1521 1.99997 17.0364 1.99997 16.9207C1.99997 13.9702 1.99997 11.0198 1.9884 8.06942C1.9884 7.39834 2.25452 6.87768 2.74047 6.46115C3.16857 6.10248 3.66609 5.88264 4.19832 5.76694C4.23303 5.75537 4.26774 5.75537 4.30245 5.7438C4.33716 5.73223 4.34873 5.72066 4.37187 5.70909ZM8.05121 9.49256C6.96361 9.49256 5.87601 9.49256 4.7884 9.49256C4.49915 9.49256 4.31402 9.65454 4.31402 9.9438C4.31402 11.4595 4.31402 12.9752 4.31402 14.4793C4.31402 14.5835 4.3603 14.6992 4.41815 14.7802C4.51072 14.919 4.6727 14.9306 4.83468 14.9306C6.97518 14.9306 9.11567 14.9306 11.2446 14.9306C11.5801 14.9306 11.7537 14.7686 11.7537 14.4331C11.7537 12.9521 11.7537 11.4826 11.7537 10.0017C11.7537 9.64297 11.6033 9.49256 11.2446 9.49256C10.1801 9.49256 9.11567 9.49256 8.05121 9.49256Z"
              fill="#A6AAAE"/>
        <path d="M8.03962 4.48264C6.84788 4.48264 5.65614 4.48264 4.45284 4.48264C4.02474 4.48264 3.74705 4.23967 3.73548 3.81157C3.72391 3.09421 3.72391 2.38843 3.73548 1.67107C3.73548 1.31239 4.0016 0.988425 4.44127 0.999996C6.83631 1.01157 9.23135 0.999996 11.6264 0.999996C12.0429 0.999996 12.3206 1.26611 12.3322 1.68264C12.3437 2.38843 12.3437 3.09421 12.3322 3.78843C12.3322 4.21652 12.0545 4.47107 11.6264 4.47107C10.4347 4.48264 9.23135 4.48264 8.03962 4.48264Z"
              fill="#A6AAAE"/>
        <path d="M15.6181 17.1868C16.4165 17.2446 17.1917 17.2909 17.9553 17.3372C18.6148 17.3835 19.2628 17.4297 19.9223 17.4645C21.114 17.5339 22.0628 18.5173 22.0628 19.7091C22.0743 21.0512 20.9289 22.0926 19.5867 21.9884C18.5223 21.9074 17.4462 21.8496 16.3702 21.7686C15.9653 21.7454 15.5487 21.7339 15.1553 21.6529C14.0793 21.4446 13.3157 20.4727 13.3504 19.3851C13.3851 18.2628 14.2066 17.3488 15.3058 17.1983C15.4215 17.1983 15.5372 17.1983 15.6181 17.1868ZM17.5851 21.3173C17.7124 21.3289 17.8165 21.3405 17.9322 21.3405C18.5686 21.3868 19.1934 21.433 19.8297 21.4678C20.5818 21.5025 21.2413 21.0628 21.438 20.357C21.519 20.0909 21.5305 19.7901 21.5305 19.5124C21.5074 18.7488 20.871 18.0892 20.1074 18.0198C19.5636 17.9735 19.0198 17.9504 18.476 17.9041C18.2562 17.8926 18.0479 17.881 17.8165 17.8578C17.7355 19.0264 17.6661 20.1719 17.5851 21.3173Z"
              fill="#A6AAAE"/>
        <path d="M13.0149 20.0678C13.0727 20.2297 13.119 20.3802 13.1769 20.5537C13.0264 20.5884 12.876 20.6347 12.7256 20.6578C11.6843 20.8083 10.6777 20.2066 10.2959 19.2116C9.92562 18.2281 10.2727 17.0942 11.1636 16.5388C12.3901 15.7636 13.6165 15 14.8545 14.2479C15.6298 13.7735 16.6364 13.8545 17.3421 14.3983C18.0711 14.9653 18.395 15.9025 18.1636 16.7934C18.1289 16.9207 18.0826 16.9554 17.9438 16.9438C17.2612 16.8859 16.5669 16.8512 15.8843 16.805C15.2595 16.7587 14.6926 16.8859 14.1488 17.2331C13.8595 16.7702 13.5818 16.319 13.2926 15.8446C13.2579 15.8678 13.2116 15.8793 13.1884 15.9025C12.6099 16.2612 12.0314 16.6198 11.4529 16.9785C10.6198 17.4992 10.4 18.4364 10.9091 19.281C11.1405 19.6628 11.4182 19.9752 11.8463 20.114C12.2397 20.2413 12.6215 20.2297 13.0149 20.0678Z"
              fill="#A6AAAE"/>
        <path d="M8.05129 9.49255C9.11576 9.49255 10.1802 9.49255 11.2447 9.49255C11.6034 9.49255 11.7538 9.64297 11.7538 10.0016C11.7538 11.4826 11.7538 12.9521 11.7538 14.4331C11.7538 14.7686 11.5918 14.9306 11.2447 14.9306C9.10419 14.9306 6.96369 14.9306 4.83476 14.9306C4.67278 14.9306 4.52237 14.919 4.41823 14.7802C4.36038 14.6992 4.3141 14.5835 4.3141 14.4793C4.30253 12.9636 4.3141 11.4479 4.3141 9.94379C4.3141 9.66611 4.48766 9.49255 4.78848 9.49255C5.87609 9.49255 6.96369 9.49255 8.05129 9.49255ZM7.49592 12.7554C7.49592 13.1835 7.49592 13.6 7.49592 14.0165C7.86617 14.0165 8.21328 14.0165 8.58353 14.0165C8.58353 13.5884 8.58353 13.1835 8.58353 12.7554C9.01163 12.7554 9.41658 12.7554 9.83311 12.7554C9.83311 12.3851 9.83311 12.038 9.83311 11.6678C9.41658 11.6678 9.00006 11.6678 8.57196 11.6678C8.57196 11.2397 8.57196 10.8231 8.57196 10.4066C8.20171 10.4066 7.8546 10.4066 7.48435 10.4066C7.48435 10.8347 7.48435 11.2397 7.48435 11.6678C7.05625 11.6678 6.65129 11.6678 6.23476 11.6678C6.23476 12.038 6.23476 12.3851 6.23476 12.7438C6.66286 12.7554 7.06782 12.7554 7.49592 12.7554Z"
              fill="white"/>
        <path d="M17.5851 21.3174C17.6661 20.1604 17.7355 19.0265 17.8165 17.8694C18.0479 17.881 18.2562 17.8926 18.476 17.9157C19.0198 17.9504 19.5636 17.9851 20.1074 18.0314C20.871 18.0893 21.5074 18.7488 21.5305 19.524C21.5421 19.8017 21.519 20.1025 21.438 20.3686C21.2413 21.0628 20.5818 21.5141 19.8297 21.4794C19.1933 21.4446 18.5686 21.3984 17.9322 21.3521C17.8165 21.3405 17.7124 21.3289 17.5851 21.3174Z"
              fill="white"/>
        <path d="M7.4959 12.7553C7.0678 12.7553 6.65127 12.7553 6.23474 12.7553C6.23474 12.3967 6.23474 12.038 6.23474 11.6793C6.65127 11.6793 7.05623 11.6793 7.48433 11.6793C7.48433 11.2512 7.48433 10.8463 7.48433 10.4182C7.85458 10.4182 8.21325 10.4182 8.57193 10.4182C8.57193 10.8347 8.57193 11.2512 8.57193 11.6793C9.00003 11.6793 9.40499 11.6793 9.83309 11.6793C9.83309 12.0496 9.83309 12.3967 9.83309 12.7669C9.41656 12.7669 9.0116 12.7669 8.5835 12.7669C8.5835 13.195 8.5835 13.6115 8.5835 14.0281C8.21325 14.0281 7.86615 14.0281 7.4959 14.0281C7.4959 13.6 7.4959 13.1834 7.4959 12.7553Z"
              fill="#A6AAAE"/>
    </g>
    <defs>
        <clipPath id="clip0_8803_7835">
            <rect width="20.0628" height="21" fill="white" transform="translate(2 1)"/>
        </clipPath>
    </defs>
</svg>
