<svg viewBox="0 0 24 24" fill="none" xmlns="http://www.w3.org/2000/svg">
    <path d="M8.55469 19.5938H5.10938C4.72167 19.5938 4.40625 19.2783 4.40625 18.8906V15.5508C4.40625 15.1624 4.09146 14.8477 3.70312 14.8477C3.31479 14.8477 3 15.1624 3 15.5508V18.8906C3 20.0537 3.94627 21 5.10938 21H8.55469C8.94302 21 9.25781 20.6852 9.25781 20.2969C9.25781 19.9085 8.94302 19.5938 8.55469 19.5938Z"
          fill="#A3A8AF"/>
    <path d="M8.17145 8.37239C7.89604 8.09866 7.45082 8.1 7.17709 8.37541C6.90333 8.65083 6.9047 9.09604 7.18011 9.36977L9.15431 11.332H3.70312C3.31479 11.332 3 11.6468 3 12.0351C3 12.4235 3.31479 12.7383 3.70312 12.7383H9.09986L7.17765 14.6678C6.90357 14.9429 6.90445 15.3881 7.17955 15.6622C7.31677 15.7989 7.49627 15.8672 7.67578 15.8672C7.85617 15.8672 8.03655 15.7982 8.17391 15.6603L10.3275 13.4985C10.7259 13.1001 10.9453 12.5704 10.9453 12.0069C10.9453 11.4435 10.7259 10.9138 10.326 10.5139L8.17145 8.37239Z"
          fill="#A3A8AF"/>
    <path d="M3.70312 9.1875C4.09146 9.1875 4.40625 8.87271 4.40625 8.48438V5.10938C4.40625 4.72167 4.72167 4.40625 5.10938 4.40625H8.55469C8.94302 4.40625 9.25781 4.09146 9.25781 3.70312C9.25781 3.31479 8.94302 3 8.55469 3H5.10938C3.94627 3 3 3.94627 3 5.10938V8.48438C3 8.87271 3.31479 9.1875 3.70312 9.1875Z"
          fill="#A3A8AF"/>
    <path d="M20.2969 11.332H14.8457L16.8199 9.36978C17.0953 9.09602 17.0967 8.65084 16.8229 8.37542C16.5491 8.10001 16.104 8.09864 15.8286 8.3724L13.6725 10.5154C13.2741 10.9138 13.0547 11.4435 13.0547 12.0069C13.0547 12.5704 13.2741 13.1001 13.6716 13.4975L15.8261 15.6603C15.9635 15.7982 16.1438 15.8672 16.3242 15.8672C16.5037 15.8672 16.6832 15.7989 16.8204 15.6622C17.0955 15.3881 17.0964 14.9429 16.8223 14.6678L14.9001 12.7383H20.2969C20.6852 12.7383 21 12.4235 21 12.0352C21 11.6468 20.6852 11.332 20.2969 11.332Z"
          fill="#A3A8AF"/>
    <path d="M18.8906 3H15.4453C15.057 3 14.7422 3.31479 14.7422 3.70312C14.7422 4.09146 15.057 4.40625 15.4453 4.40625H18.8906C19.2783 4.40625 19.5938 4.72167 19.5938 5.10938V8.48438C19.5938 8.87271 19.9085 9.1875 20.2969 9.1875C20.6852 9.1875 21 8.87271 21 8.48438V5.10938C21 3.94627 20.0537 3 18.8906 3Z"
          fill="#A3A8AF"/>
    <path d="M20.2969 14.8477C19.9085 14.8477 19.5938 15.1624 19.5938 15.5508V18.8906C19.5938 19.2783 19.2783 19.5938 18.8906 19.5938H15.4453C15.057 19.5938 14.7422 19.9085 14.7422 20.2969C14.7422 20.6852 15.057 21 15.4453 21H18.8906C20.0537 21 21 20.0537 21 18.8906V15.5508C21 15.1624 20.6852 14.8477 20.2969 14.8477Z"
          fill="#A3A8AF"/>
</svg>
