<svg viewBox="0 0 24 24" fill="none" xmlns="http://www.w3.org/2000/svg">
    <path fill-rule="evenodd" clip-rule="evenodd"
          d="M19 3H5C3.897 3 3 3.897 3 5V21L7.79965 17.4C8.14585 17.1404 8.56694 17 8.9997 17H19C20.103 17 21 16.103 21 15V5C21 3.897 20.103 3 19 3ZM13.2747 6.37647L13.3867 6.94118H15.5333C15.79 6.94118 16 7.15294 16 7.41176V11.1765C16 11.4353 15.79 11.6471 15.5333 11.6471H13.116C12.892 11.6471 12.7007 11.4918 12.6587 11.2706L12.5467 10.7059H9.93333V13.5294C9.93333 13.7882 9.72333 14 9.46667 14C9.21 14 9 13.7882 9 13.5294V6.47059C9 6.21176 9.21 6 9.46667 6H12.8173C13.0413 6 13.2327 6.16 13.2747 6.37647Z"
          fill="#A3A8AF"/>
</svg>
