<svg viewBox="0 0 24 24" fill="none" xmlns="http://www.w3.org/2000/svg">
    <path fill-rule="evenodd" clip-rule="evenodd"
          d="M6.63636 2C6.08408 2 5.63636 2.44772 5.63636 3V4.4674L2.21913 8.73894C2.07728 8.91625 2 9.13656 2 9.36364V21.1818C2 21.7341 2.44772 22.1818 3 22.1818H10.2727H21.1818C21.7341 22.1818 22.1818 21.7341 22.1818 21.1818V9.36364C22.1818 9.13656 22.1045 8.91625 21.9627 8.73894L18.5455 4.4674V3C18.5455 2.44772 18.0977 2 17.5455 2H6.63636ZM11.2727 20.1818H20.1818V9.71442L16.7646 5.44288C16.6227 5.26556 16.5455 5.04525 16.5455 4.81818V4H7.63636V4.4674L11.0536 8.73894C11.1954 8.91625 11.2727 9.13656 11.2727 9.36364V20.1818ZM4 20.1818V9.71442L6.63636 6.41896L9.27273 9.71442V20.1818H4Z"
          fill="#A3A8AF"/>
</svg>
