<svg viewBox="0 0 24 24" fill="none" xmlns="http://www.w3.org/2000/svg">
    <path fill-rule="evenodd" clip-rule="evenodd"
          d="M10.25 4.25C10.25 4.11193 10.3619 4 10.5 4C10.6381 4 10.75 4.11193 10.75 4.25C10.75 4.38807 10.6381 4.5 10.5 4.5C10.3619 4.5 10.25 4.38807 10.25 4.25ZM12.7328 4.52966C12.7441 4.43803 12.75 4.3447 12.75 4.25C12.75 3.00736 11.7426 2 10.5 2C9.25736 2 8.25 3.00736 8.25 4.25C8.25 4.3447 8.25585 4.43803 8.26721 4.52966C5.98734 4.77038 4.18276 6.45171 3.76043 8.66667H3C2.44772 8.66667 2 9.11438 2 9.66667C2 10.219 2.44772 10.6667 3 10.6667H3.66667V19.6667C3.66667 21.1356 4.86438 22.3333 6.33333 22.3333H14.6667C16.1356 22.3333 17.3333 21.1356 17.3333 19.6667V19H18.8333C20.3023 19 21.5 17.8023 21.5 16.3333V13.8333C21.5 12.3644 20.3023 11.1667 18.8333 11.1667H17.3333V9.66667C17.3333 6.97258 15.345 4.80548 12.7328 4.52966ZM10.5 6.5H8.83333C7.40353 6.5 6.22857 7.39299 5.82074 8.66667H10.5H15.1793C14.7714 7.39299 13.5965 6.5 12.1667 6.5H10.5ZM9.5 15.3333V10.6667H5.66667V19.6667C5.66667 20.031 5.96895 20.3333 6.33333 20.3333H14.6667C15.031 20.3333 15.3333 20.031 15.3333 19.6667V18V12.1667V10.6667H11.5V15.3333H13C13.5523 15.3333 14 15.781 14 16.3333C14 16.8856 13.5523 17.3333 13 17.3333H8C7.44772 17.3333 7 16.8856 7 16.3333C7 15.781 7.44772 15.3333 8 15.3333H9.5ZM17.3333 13.1667V17H18.8333C19.1977 17 19.5 16.6977 19.5 16.3333V13.8333C19.5 13.469 19.1977 13.1667 18.8333 13.1667H17.3333Z"
          fill="#A3A8AF"/>
</svg>
