<svg width="24" height="24" viewBox="0 0 24 24" fill="none" xmlns="http://www.w3.org/2000/svg">
<path fill-rule="evenodd" clip-rule="evenodd" d="M19.667 6.66663H18.667C18.1147 6.66663 17.667 7.11434 17.667 7.66663V16.3333C17.667 16.8856 18.1147 17.3333 18.667 17.3333H19.667C20.2193 17.3333 20.667 16.8856 20.667 16.3333V7.66663C20.667 7.11434 20.2193 6.66663 19.667 6.66663ZM14 8.99997H15C15.5523 8.99997 16 9.44768 16 9.99997V16.3333C16 16.8856 15.5523 17.3333 15 17.3333H14C13.4477 17.3333 13 16.8856 13 16.3333V9.99997C13 9.44768 13.4477 8.99997 14 8.99997ZM10.334 11.3333H9.33398C8.7817 11.3333 8.33398 11.781 8.33398 12.3333V16.3333C8.33398 16.8856 8.7817 17.3333 9.33398 17.3333H10.334C10.8863 17.3333 11.334 16.8856 11.334 16.3333V12.3333C11.334 11.781 10.8863 11.3333 10.334 11.3333ZM5.66699 13.3333H4.66699C4.11471 13.3333 3.66699 13.781 3.66699 14.3333V16.3333C3.66699 16.8856 4.11471 17.3333 4.66699 17.3333H5.66699C6.21928 17.3333 6.66699 16.8856 6.66699 16.3333V14.3333C6.66699 13.781 6.21928 13.3333 5.66699 13.3333Z" fill="#A3A8AF"/>
</svg>
