<svg width="24" height="24" viewBox="0 0 24 24" fill="none" xmlns="http://www.w3.org/2000/svg">
<path d="M19.0806 4.93028C17.1852 3.04575 14.6797 2 12 2C9.32026 2 6.81482 3.04575 4.93028 4.93028C3.04575 6.81482 2 9.33115 2 12C2 14.6688 3.04575 17.1852 4.93028 19.0697C6.81482 20.9542 9.33115 22 12 22C14.6688 22 17.1852 20.9542 19.0697 19.0697C20.9542 17.1852 22 14.6688 22 12C22 9.33115 20.9651 6.81482 19.0806 4.93028ZM12 11.3791C13.5468 11.3791 14.8105 12.6427 14.8105 14.1895C14.8105 15.4749 13.9499 16.5643 12.7625 16.8911C12.6754 16.9129 12.6209 16.9891 12.6209 17.0763V17.5991C12.6209 17.9368 12.3595 18.22 12.0218 18.2418C11.6623 18.2636 11.3682 17.9695 11.3682 17.6209V17.0763C11.3682 16.9891 11.3137 16.9129 11.2266 16.8911C10.0501 16.5534 9.18954 15.4749 9.17865 14.2004C9.17865 13.8627 9.44009 13.5686 9.78867 13.5577C10.1373 13.5468 10.4314 13.8301 10.4314 14.1786C10.4314 15.0828 11.1939 15.8017 12.1089 15.7364C12.8824 15.6819 13.5033 15.061 13.5577 14.2876C13.6231 13.3725 12.8932 12.61 12 12.61C10.4532 12.6318 9.18954 11.3682 9.18954 9.81046C9.18954 8.53595 10.061 7.44662 11.2375 7.10893C11.3137 7.08715 11.3791 7.01089 11.3791 6.92375V6.38998C11.3791 6.05229 11.6405 5.76906 11.9782 5.74728C12.3377 5.72549 12.6318 6.01961 12.6318 6.36819V6.91285C12.6318 7 12.6863 7.07625 12.7734 7.09804C13.9499 7.43573 14.8105 8.51416 14.8214 9.78867C14.8214 10.1264 14.5599 10.4205 14.2113 10.4314C13.8627 10.4423 13.5686 10.159 13.5686 9.81046C13.5686 8.90632 12.8061 8.18736 11.8911 8.25272C11.1176 8.30719 10.4967 8.939 10.4423 9.70153C10.3769 10.6166 11.1068 11.3791 12 11.3791Z" fill="#A3A8AF"/>
</svg>
