<svg width="24" height="24" viewBox="0 0 24 24" fill="none" xmlns="http://www.w3.org/2000/svg">
<path d="M16.1665 2C12.9501 2 10.3329 4.61719 10.3329 7.83359C10.3329 11.05 12.9493 13.6672 16.1665 13.6672C19.3837 13.6672 22.0001 11.05 22.0001 7.83359C22.0001 4.61719 19.3837 2 16.1665 2ZM15.8501 7.20859H16.4837C17.4571 7.20859 18.2501 8.00078 18.2501 8.975C18.2501 9.85156 17.6188 10.5711 16.7915 10.7187V11.375C16.7915 11.7203 16.5118 12 16.1665 12C15.8212 12 15.5415 11.7203 15.5415 11.375V10.75H14.7079C14.3626 10.75 14.0829 10.4703 14.0829 10.125C14.0829 9.77969 14.3626 9.5 14.7079 9.5H16.4829C16.768 9.5 17.0001 9.26719 17.0001 8.98359C17.0001 8.69141 16.7673 8.45859 16.4837 8.45859H15.8501C14.8766 8.45859 14.0837 7.66641 14.0837 6.69219C14.0837 5.81563 14.7149 5.09609 15.5423 4.94844V4.29062C15.5423 3.94531 15.8219 3.66562 16.1673 3.66562C16.5126 3.66562 16.7923 3.94531 16.7923 4.29062V4.91562H17.6251C17.9704 4.91562 18.2501 5.19531 18.2501 5.54062C18.2501 5.88594 17.9704 6.16562 17.6251 6.16562H15.8501C15.5649 6.16562 15.3337 6.39844 15.3337 6.68203C15.3337 6.97656 15.5649 7.20859 15.8501 7.20859Z" fill="#A3A8AF"/>
<path d="M2.41016 12.0016C2.18281 12.0063 2 12.1914 2 12.4188V19.9172C2 20.1469 2.18594 20.3336 2.41641 20.3336H4.18516C4.37109 20.3336 4.53516 20.2102 4.58672 20.0313L6.43047 13.5328C6.54922 13.1125 6.32422 12.6719 5.91406 12.5227C5.15859 12.2461 4 11.975 2.41016 12.0016Z" fill="#A3A8AF"/>
<path d="M20.3336 16.5836C18.6672 16.5836 15.3336 18.6938 13.6672 18.6938C12.0008 18.6938 10.125 17.4164 10.125 17.4164C10.125 17.4164 12.3703 17.8328 13.6664 17.8328C14.9625 17.8328 15.3329 17.3906 15.3329 16.7914C15.3329 15.3328 12.8555 15.1063 11.6032 14.9164C10.3735 14.2313 9.73441 13.6898 7.69691 13.518C7.68441 13.6367 7.66566 13.7539 7.63285 13.8727L5.95941 19.7727C7.85551 20.6336 11.1203 22 12.8344 22C15.3344 22 22.0008 18.6664 22.0008 17.8336C22 17 21.1664 16.5836 20.3336 16.5836Z" fill="#A3A8AF"/>
</svg>
