<svg width="24" height="24" viewBox="0 0 24 24" fill="none" xmlns="http://www.w3.org/2000/svg">
    <path d="M10.3594 19C11.5691 19 12.5058 18.8842 13.2571 18.6475C13.2411 18.5621 13.2305 18.4747 13.2305 18.3848C13.2305 17.9829 13.3975 17.6202 13.6646 17.3594C13.3975 17.0985 13.2305 16.7358 13.2305 16.334C13.2305 15.9322 13.3975 15.5694 13.6646 15.3086C13.3975 15.0478 13.2305 14.685 13.2305 14.2832C13.2305 13.8814 13.3975 13.5186 13.6646 13.2578C13.3975 12.997 13.2305 12.6342 13.2305 12.2324C13.2305 11.7578 13.4648 11.3394 13.821 11.0779C13.5771 10.8546 13.3165 10.6544 13.043 10.4783C13.1541 10.3383 13.2305 10.169 13.2305 9.97656C13.2305 9.52347 12.8633 9.15625 12.4102 9.15625H8.30859C7.8555 9.15625 7.48828 9.52347 7.48828 9.97656C7.48828 10.1686 7.56444 10.3374 7.67488 10.4771C6.08253 11.5029 5 13.3605 5 15.3086C5 18.6175 8.0703 19 10.3594 19V19ZM10.355 15.0186C9.67642 15.0186 9.12453 14.4667 9.12453 13.7881C9.12453 13.2525 9.4706 12.8006 9.94922 12.6319V12.0273C9.94922 11.8007 10.1327 11.6172 10.3594 11.6172C10.586 11.6172 10.7695 11.8007 10.7695 12.0273V12.6347C11.2437 12.8057 11.5855 13.2558 11.5855 13.7881C11.5855 14.0149 11.402 14.1983 11.1753 14.1983C10.9485 14.1983 10.7652 14.0149 10.7652 13.7881C10.7652 13.5618 10.5812 13.378 10.355 13.378C10.1287 13.378 9.94484 13.5618 9.94484 13.7881C9.94484 14.0145 10.1287 14.1983 10.355 14.1983C11.0335 14.1983 11.5855 14.7503 11.5855 15.4288C11.5855 15.9611 11.2437 16.4112 10.7695 16.5823V16.9492C10.7695 17.1759 10.586 17.3594 10.3594 17.3594C10.1327 17.3594 9.94922 17.1759 9.94922 16.9492V16.585C9.4706 16.4164 9.12453 15.9644 9.12453 15.4288C9.12453 15.2021 9.30792 15.0186 9.53468 15.0186C9.76134 15.0186 9.94484 15.2021 9.94484 15.4288C9.94484 15.6551 10.1287 15.8389 10.355 15.8389C10.5812 15.8389 10.7652 15.6551 10.7652 15.4288C10.7652 15.2024 10.5812 15.0186 10.355 15.0186Z" fill="white"/>
    <path d="M18.3848 17.7695H14.666C14.3262 17.7695 14.0508 18.045 14.0508 18.3848C14.0508 18.7245 14.3262 19 14.666 19H18.3848C18.7245 19 19 18.7245 19 18.3848C19 18.045 18.7245 17.7695 18.3848 17.7695Z" fill="white"/>
    <path d="M18.3848 15.7188H14.666C14.3262 15.7188 14.0508 15.9942 14.0508 16.334C14.0508 16.6738 14.3262 16.9492 14.666 16.9492H18.3848C18.7245 16.9492 19 16.6738 19 16.334C19 15.9942 18.7245 15.7188 18.3848 15.7188Z" fill="white"/>
    <path d="M18.3848 13.668H14.666C14.3262 13.668 14.0508 13.9434 14.0508 14.2832C14.0508 14.623 14.3262 14.8984 14.666 14.8984H18.3848C18.7245 14.8984 19 14.623 19 14.2832C19 13.9434 18.7245 13.668 18.3848 13.668Z" fill="white"/>
    <path d="M18.3848 11.6172H14.666C14.3262 11.6172 14.0508 11.8927 14.0508 12.2324C14.0508 12.5722 14.3262 12.8477 14.666 12.8477H18.3848C18.7245 12.8477 19 12.5722 19 12.2324C19 11.8927 18.7245 11.6172 18.3848 11.6172Z" fill="white"/>
    <path d="M11.5143 5.82031C11.3444 5.34393 10.8934 5 10.3594 5C9.82468 5 9.36849 5.34286 9.19898 5.82031H7.89844C7.76664 5.82031 7.64284 5.88354 7.56562 5.99057C7.48871 6.09749 7.46746 6.23528 7.50954 6.36024L8.14988 8.33594H12.569L13.2092 6.36024C13.2513 6.23528 13.23 6.09749 13.1531 5.99057C13.0759 5.88354 12.9521 5.82031 12.8203 5.82031H11.5143Z" fill="white"/>
</svg>
