<svg viewBox="0 0 24 24" fill="none" xmlns="http://www.w3.org/2000/svg">
    <path d="M9.03987 5.71681H15.5296L16.93 4.57312C17.4074 4.18518 17.5843 3.55487 17.3831 2.96637C17.1828 2.3802 16.6583 2 16.0495 2H8.51993C7.91119 2 7.3867 2.3802 7.18556 2.96792C6.98441 3.55564 7.16127 4.18595 7.6387 4.57389L9.03987 5.71681Z"
          fill="#A3A8AF"/>
    <path d="M15.6419 7.13269H8.93053C6.71948 9.34807 4.99951 13.2321 4.99951 16.4247C4.99951 19.1999 6.43864 21.9999 9.65465 21.9999H15.1197C17.8666 21.9999 19.5729 19.8628 19.5729 16.4247C19.5729 13.2321 17.8529 9.34807 15.6419 7.13269ZM11.9788 13.9469H12.5944C13.5401 13.9469 14.3105 14.732 14.3105 15.6976C14.3105 16.5664 13.6973 17.2796 12.8934 17.4259V18.0764C12.8934 18.4186 12.6217 18.6959 12.2862 18.6959C11.9507 18.6959 11.679 18.4186 11.679 18.0764V17.4569H10.8691C10.5336 17.4569 10.2619 17.1797 10.2619 16.8374C10.2619 16.4952 10.5336 16.218 10.8691 16.218H12.5936C12.8707 16.218 13.0953 15.9872 13.0953 15.7061C13.0953 15.4165 12.8691 15.1858 12.5936 15.1858H11.978C11.0323 15.1858 10.2619 14.4006 10.2619 13.435C10.2619 12.5662 10.8752 11.853 11.679 11.7067V11.0563C11.679 10.714 11.9507 10.4368 12.2862 10.4368C12.6217 10.4368 12.8934 10.714 12.8934 11.0563V11.6757H13.7033C14.0388 11.6757 14.3105 11.9529 14.3105 12.2952C14.3105 12.6374 14.0388 12.9147 13.7033 12.9147H11.9788C11.7018 12.9147 11.4771 13.1454 11.4771 13.4265C11.4763 13.7161 11.7018 13.9469 11.9788 13.9469Z"
          fill="#A3A8AF"/>
</svg>
