<svg width="25" height="24" viewBox="0 0 25 24" fill="none" xmlns="http://www.w3.org/2000/svg">
<path d="M6.00391 10C4.90391 10 4.00391 10.9 4.00391 12C4.00391 13.1 4.90391 14 6.00391 14C7.10391 14 8.00391 13.1 8.00391 12C8.00391 10.9 7.10391 10 6.00391 10Z" fill="#A3A8AF"/>
<path d="M18.0039 10C16.9039 10 16.0039 10.9 16.0039 12C16.0039 13.1 16.9039 14 18.0039 14C19.1039 14 20.0039 13.1 20.0039 12C20.0039 10.9 19.1039 10 18.0039 10Z" fill="#A3A8AF"/>
<path d="M10.0039 12C10.0039 10.9 10.9039 10 12.0039 10C13.1039 10 14.0039 10.9 14.0039 12C14.0039 13.1 13.1039 14 12.0039 14C10.9039 14 10.0039 13.1 10.0039 12Z" fill="#A3A8AF"/>
</svg>
