<svg viewBox="0 0 25 24" fill="none" xmlns="http://www.w3.org/2000/svg">
    <path d="M13.3 12.72C13.8336 12.2581 14.2616 11.6869 14.5549 11.045C14.8482 10.4032 15 9.70571 15 9C15 7.67392 14.4732 6.40215 13.5355 5.46447C12.5979 4.52678 11.3261 4 10 4C8.67392 4 7.40215 4.52678 6.46447 5.46447C5.52678 6.40215 5 7.67392 5 9C4.99999 9.70571 5.1518 10.4032 5.44513 11.045C5.73845 11.6869 6.16642 12.2581 6.7 12.72C5.30014 13.3539 4.11247 14.3775 3.27898 15.6685C2.4455 16.9596 2.00147 18.4633 2 20C2 20.2652 2.10536 20.5196 2.29289 20.7071C2.48043 20.8946 2.73478 21 3 21C3.26522 21 3.51957 20.8946 3.70711 20.7071C3.89464 20.5196 4 20.2652 4 20C4 18.4087 4.63214 16.8826 5.75736 15.7574C6.88258 14.6321 8.4087 14 10 14C11.5913 14 13.1174 14.6321 14.2426 15.7574C15.3679 16.8826 16 18.4087 16 20C16 20.2652 16.1054 20.5196 16.2929 20.7071C16.4804 20.8946 16.7348 21 17 21C17.2652 21 17.5196 20.8946 17.7071 20.7071C17.8946 20.5196 18 20.2652 18 20C17.9985 18.4633 17.5545 16.9596 16.721 15.6685C15.8875 14.3775 14.6999 13.3539 13.3 12.72ZM10 12C9.40666 12 8.82664 11.8241 8.33329 11.4944C7.83994 11.1648 7.45542 10.6962 7.22836 10.1481C7.0013 9.59987 6.94189 8.99667 7.05764 8.41473C7.1734 7.83279 7.45912 7.29824 7.87868 6.87868C8.29824 6.45912 8.83279 6.1734 9.41473 6.05764C9.99667 5.94189 10.5999 6.0013 11.1481 6.22836C11.6962 6.45542 12.1648 6.83994 12.4944 7.33329C12.8241 7.82664 13 8.40666 13 9C13 9.79565 12.6839 10.5587 12.1213 11.1213C11.5587 11.6839 10.7956 12 10 12ZM19.74 12.32C20.38 11.5993 20.798 10.7091 20.9438 9.75634C21.0896 8.80362 20.9569 7.82907 20.5618 6.95C20.1666 6.07093 19.5258 5.3248 18.7165 4.80142C17.9071 4.27805 16.9638 3.99974 16 4C15.7348 4 15.4804 4.10536 15.2929 4.29289C15.1054 4.48043 15 4.73478 15 5C15 5.26522 15.1054 5.51957 15.2929 5.70711C15.4804 5.89464 15.7348 6 16 6C16.7956 6 17.5587 6.31607 18.1213 6.87868C18.6839 7.44129 19 8.20435 19 9C18.9986 9.52524 18.8593 10.0409 18.5961 10.4954C18.3328 10.9499 17.9549 11.3274 17.5 11.59C17.3517 11.6755 17.2279 11.7977 17.1404 11.9447C17.0528 12.0918 17.0045 12.2589 17 12.43C16.9958 12.5998 17.0349 12.7678 17.1137 12.9183C17.1924 13.0687 17.3081 13.1967 17.45 13.29L17.84 13.55L17.97 13.62C19.1754 14.1917 20.1923 15.096 20.901 16.2263C21.6096 17.3566 21.9805 18.6659 21.97 20C21.97 20.2652 22.0754 20.5196 22.2629 20.7071C22.4504 20.8946 22.7048 21 22.97 21C23.2352 21 23.4896 20.8946 23.6771 20.7071C23.8646 20.5196 23.97 20.2652 23.97 20C23.9782 18.4654 23.5938 16.9543 22.8535 15.6101C22.1131 14.2659 21.0413 13.1333 19.74 12.32Z"
          fill="#A3A8AF"/>
</svg>
