<svg viewBox="0 0 24 24" fill="none" xmlns="http://www.w3.org/2000/svg">
    <path d="M20.7903 19.3061L20.7903 19.3057L19.8525 7.4888C19.788 6.64932 19.079 5.99254 18.2371 5.99254H16.5341C16.4984 3.70204 14.6242 1.85 12.3254 1.85C10.0265 1.85 8.15241 3.70204 8.11663 5.99254H6.41377C5.57196 5.99254 4.86282 6.64907 4.79848 7.48703C4.79848 7.48709 4.79848 7.48715 4.79847 7.48721L3.86039 19.3073L3.86036 19.3077C3.78457 20.2958 4.12722 21.2791 4.80062 22.0061C5.47402 22.7331 6.42826 23.15 7.41926 23.15H17.2315C18.2224 23.15 19.1767 22.7332 19.8502 22.0061L19.7401 21.9042L19.8502 22.0061C20.5236 21.279 20.8662 20.2957 20.7903 19.3061ZM6.41377 7.5226H8.11611V8.88751C8.11611 9.31 8.45865 9.65254 8.88114 9.65254C9.30364 9.65254 9.64617 9.31 9.64617 8.88751V7.5226H15.0046V8.88751C15.0046 9.31 15.3471 9.65254 15.7696 9.65254C16.1921 9.65254 16.5347 9.31 16.5347 8.88751V7.5226H18.2371C18.2827 7.5226 18.3233 7.55899 18.327 7.60746L18.3271 7.60783L19.2648 19.4247C19.3088 19.9979 19.1183 20.5446 18.7276 20.9664C18.3369 21.3882 17.8064 21.6199 17.2315 21.6199H7.41931C6.84437 21.6199 6.31389 21.3882 5.92317 20.9664C5.53251 20.5446 5.34205 19.998 5.38588 19.4265C5.38588 19.4264 5.38589 19.4264 5.38589 19.4263L6.32389 7.60619L6.32392 7.60577C6.32745 7.55963 6.36739 7.5226 6.41377 7.5226ZM9.64699 5.99254C9.68254 4.54606 10.8706 3.38006 12.3254 3.38006C13.7802 3.38006 14.9682 4.54609 15.0038 5.99254H9.64699Z"
          fill="#A3A8AF" stroke="#A3A8AF" stroke-width="0.3"/>
    <path d="M15.1669 12.3589C14.8877 12.0797 14.435 12.0797 14.1558 12.359L11.4802 15.0345L10.495 14.0492C10.495 14.0492 10.495 14.0492 10.495 14.0492C10.2158 13.77 9.76299 13.77 9.48376 14.0492C9.20452 14.3284 9.20452 14.7812 9.48376 15.0604L10.9746 16.5513C11.1142 16.6909 11.2974 16.7607 11.4802 16.7607C11.663 16.7607 11.8462 16.6909 11.9858 16.5513C11.9858 16.5513 11.9858 16.5513 11.9858 16.5513L15.1668 13.3702C15.4461 13.0909 15.4461 12.6382 15.1669 12.3589Z"
          fill="#A3A8AF" stroke="#A3A8AF" stroke-width="0.2"/>
</svg>
