<svg width="24" height="24" viewBox="0 0 24 24" fill="none" xmlns="http://www.w3.org/2000/svg">
<path d="M8.7955 1.01965L4.16476 1.03841C3.56448 1.03841 3.00261 1.3716 2.71676 1.89596L0.296875 6.27926L8.32921 6.2605L8.7955 1.01965Z" fill="#0088FF"/>
<path d="M18.7636 6.24085L16.3151 1.85754C16.0195 1.33319 15.4674 1 14.8573 1L10.2266 1.01876L10.7125 6.25961L18.7636 6.24085Z" fill="#0088FF"/>
<path d="M8.80681 16.1356C8.80859 15.5782 9.03906 15.036 9.43835 14.6465L13.8359 10.4025C14.2254 10.0256 14.7399 9.81833 15.2839 9.81833C15.5671 9.81833 15.8422 9.87461 16.1013 9.98537C16.874 10.3177 17.3689 11.0716 17.3662 11.9077L17.3644 12.5848C17.9441 12.7054 18.5078 12.8832 19.0491 13.1136L19.058 10.7143C19.0616 10.7161 19.0652 10.717 19.0688 10.7179L19.0634 9.25378L19.0688 7.70842H19.0571V7.66107L10.2432 7.68966H8.82556L0.0116126 7.66197V7.70931L0 7.70842L0.00535965 9.25378L0 10.7188C0.0035731 10.717 0.00714621 10.7161 0.0107193 10.7152L0.0384109 18.6001C0.0384109 19.4291 0.715514 20.1053 1.53465 20.1053C1.53465 20.1053 1.53465 20.1053 1.54447 20.1053L9.53393 20.0839L11.9529 20.0901L9.43478 17.6327C9.03459 17.2415 8.80591 16.6957 8.80681 16.1356Z" fill="#0088FF"/>
<path d="M16.0122 14.1403L16.0192 11.7153C16.0192 11.5433 15.917 11.3881 15.7584 11.3199C15.6007 11.2527 15.4162 11.2863 15.2923 11.4059L10.4161 16.0977C10.3328 16.1788 10.2852 16.2885 10.2852 16.4042C10.2852 16.5198 10.3318 16.6305 10.4151 16.7116L15.2645 21.4301C15.3885 21.5507 15.5719 21.5843 15.7306 21.5191C15.8893 21.4528 15.9934 21.2976 15.9934 21.1256L16.0003 18.7016L16.8116 18.7036C19.4644 18.7115 21.9049 20.1548 23.1822 22.4691L23.1941 22.4909C23.2705 22.6302 23.4153 22.7143 23.57 22.7143C23.6047 22.7143 23.6414 22.7103 23.6761 22.7004C23.8655 22.654 23.9984 22.4829 23.9994 22.2882C24.0113 17.8544 20.4422 14.2283 16.0122 14.1403Z" fill="#0088FF"/>
</svg>
