<svg viewBox="0 0 24 24" fill="none" xmlns="http://www.w3.org/2000/svg">
    <path d="M16.0179 2H7.98216C6.35673 2 4.88094 2.65192 3.80168 3.70766C3.78536 3.72082 3.76946 3.73485 3.7543 3.75C3.73926 3.76504 3.72532 3.78078 3.71227 3.79696C2.65383 4.87661 2 6.35438 2 7.98212V16.0179C2 19.3164 4.68356 22 7.98212 22H16.0178C17.6492 22 19.1299 21.3433 20.2102 20.2807C20.2259 20.268 20.2412 20.2543 20.2559 20.2396C20.271 20.2245 20.285 20.2087 20.2982 20.1923C21.3505 19.1136 22 17.6403 22 16.0179V7.98212H22C22 4.6836 19.3164 2 16.0179 2ZM7.98216 3.17149H16.0179C17.1382 3.17149 18.1703 3.55649 18.9889 4.20102L17.352 5.8379H6.67052L5.02383 4.19122C5.8404 3.55262 6.86755 3.17149 7.98216 3.17149ZM7.01669 14.2385V12.5867H17.0089V14.2385H7.01669ZM17.0089 15.41V16.9926H7.01669V15.41H17.0089ZM7.01669 11.4153V9.87064H17.0089V11.4153H7.01669ZM7.01669 8.69915V7.00939H17.0089V8.69915H7.01669V8.69915ZM3.17149 16.0179V7.98212C3.17149 6.8654 3.55407 5.8363 4.19489 5.01899L5.84516 6.66931V17.3358L4.19707 18.9839C3.55492 18.1661 3.17149 17.136 3.17149 16.0179ZM16.0179 20.8286H7.98216C6.86888 20.8286 5.84278 20.4483 5.02672 19.811L6.6736 18.1641H17.3521L18.9878 19.7999C18.1694 20.4439 17.1378 20.8286 16.0179 20.8286ZM19.814 18.9694L18.1803 17.3358V6.6663L19.8148 5.03176C20.4498 5.84704 20.8285 6.87114 20.8285 7.98216V16.0179H20.8285C20.8285 17.1294 20.4494 18.154 19.814 18.9694Z"
          fill="#A3A8AF" stroke="#A3A8AF" stroke-width="0.5"/>
</svg>
