<svg viewBox="0 0 24 24" fill="none" xmlns="http://www.w3.org/2000/svg">
    <path d="M20.5289 20.9995L19.2226 19.6387C19.8247 18.8943 20.1882 17.9339 20.1882 16.8866C20.1882 14.9746 18.9775 13.3516 17.3128 12.8056V7.17123C17.3128 6.99025 17.2653 6.82068 17.1828 6.67506C17.1824 6.67436 17.1822 6.67361 17.1818 6.67291L14.9091 2.52015C14.731 2.19934 14.3993 2 14.0435 2H6.2698C5.9134 2 5.58138 2.1998 5.40337 2.52148L3.162 6.65772C3.0597 6.8199 3 7.01373 3 7.22185V17.5679C3 18.3662 3.62351 19.0158 4.38993 19.0158H12.4357C12.4636 19.0158 12.4908 19.0129 12.5175 19.0089C13.2263 20.2955 14.5585 21.1641 16.0818 21.1641C16.9354 21.1641 17.7288 20.8913 18.3863 20.4252L19.7333 21.8283C19.8432 21.9428 19.9871 22 20.1311 22C20.2751 22 20.4191 21.9428 20.5289 21.8283C20.7486 21.5994 20.7486 21.2283 20.5289 20.9995ZM10.7354 3.1721H13.9708L15.6231 6.19131H10.7354V3.1721ZM6.34292 3.1721H9.61014V6.19131H4.70684L6.34292 3.1721ZM11.9755 16.8865C11.9755 17.2154 12.0114 17.5357 12.0792 17.8435H4.38989V17.8436C4.24395 17.8436 4.12522 17.7199 4.12522 17.5678V7.36342H16.1876V12.6105C16.1525 12.6095 16.1172 12.6091 16.0818 12.6091C13.8176 12.6091 11.9755 14.5279 11.9755 16.8865ZM16.0819 19.9919C14.4381 19.9919 13.1007 18.5989 13.1007 16.8866C13.1007 15.1743 14.4381 13.7812 16.0819 13.7812C17.7257 13.7812 19.0629 15.1743 19.0629 16.8866C19.0629 18.5988 17.7256 19.9919 16.0819 19.9919Z"
          fill="#A3A8AF" stroke="#A3A8AF" stroke-width="0.5"/>
</svg>
