<svg viewBox="0 0 24 24" fill="none" xmlns="http://www.w3.org/2000/svg">
    <path d="M21.8372 17.041C21.6124 16.8066 21.2387 16.7975 21.0025 17.0207L20.9055 17.1123C20.6697 15.545 19.5722 14.1906 18.0196 13.6582V7.17129C18.0196 6.99031 17.9697 6.82074 17.8831 6.67512C17.8827 6.67441 17.8825 6.67367 17.882 6.67297L15.4972 2.52016C15.3102 2.19934 14.9621 2 14.5888 2H6.43127C6.05727 2 5.70886 2.1998 5.52206 2.52148L3.17 6.65773C3.06265 6.81992 3 7.01375 3 7.22187V17.6459C3 18.4442 3.65433 19.0938 4.45855 19.0938H12.4485C12.5692 19.458 12.7398 19.8085 12.9588 20.1368C13.6018 21.1005 14.5843 21.758 15.7254 21.9881C15.7651 21.9961 15.8046 22 15.8436 22C16.1185 22 16.3647 21.8083 16.4216 21.5305C16.4864 21.2133 16.28 20.9039 15.9605 20.8395C15.1285 20.6716 14.4121 20.1923 13.9433 19.4896C13.4745 18.7869 13.3095 17.9452 13.4785 17.1192C13.6475 16.2933 14.1304 15.5821 14.8383 15.1168C15.5461 14.6514 16.3942 14.4876 17.2262 14.6554C18.5202 14.9163 19.471 15.9281 19.7121 17.1404L19.6173 17.0508C19.3811 16.8277 19.0074 16.8369 18.7826 17.0713C18.5578 17.3058 18.5671 17.6768 18.8033 17.8999L19.8798 18.9168C19.8836 18.9205 19.8878 18.9236 19.8918 18.9271C19.9001 18.9345 19.9084 18.9419 19.9172 18.9489C19.9238 18.9541 19.9305 18.959 19.9372 18.9639C19.9456 18.9701 19.9541 18.9762 19.9629 18.982C19.9708 18.9871 19.9787 18.9918 19.9867 18.9965C19.9948 19.0012 20.0028 19.0059 20.0112 19.0103C20.0206 19.0152 20.0302 19.0197 20.0399 19.0241C20.0472 19.0275 20.0545 19.0309 20.0621 19.034C20.0735 19.0386 20.085 19.0427 20.0966 19.0466C20.1029 19.0487 20.1092 19.051 20.1156 19.053C20.1293 19.0571 20.1432 19.0604 20.1571 19.0635C20.1612 19.0644 20.165 19.0657 20.1692 19.0666C20.1701 19.0668 20.1711 19.0668 20.172 19.067C20.1869 19.0699 20.2019 19.072 20.2169 19.0738C20.2214 19.0743 20.2259 19.0752 20.2304 19.0757C20.2452 19.0771 20.2601 19.0775 20.2749 19.0779C20.3187 19.0788 20.3618 19.0753 20.4037 19.0669C20.5155 19.048 20.623 18.9975 20.7113 18.914L21.8166 17.8696C22.0529 17.6464 22.062 17.2755 21.8372 17.041ZM11.1173 3.17211H14.5124L16.2463 6.19133H11.1173V3.17211ZM6.50796 3.17211H9.93651V6.19133H4.79111L6.50796 3.17211ZM16.8388 13.4263C15.9042 13.3721 14.9808 13.6172 14.1863 14.1396C13.2155 14.7778 12.5532 15.7531 12.3214 16.8859C12.2507 17.2311 12.2228 17.5784 12.2362 17.9216H4.45851C4.30536 17.9216 4.18077 17.7979 4.18077 17.6459V7.36348H16.8388V13.4263Z"
          fill="#A3A8AF" stroke="#A3A8AF" stroke-width="0.5"/>
</svg>
