<svg viewBox="0 0 24 24" fill="none" xmlns="http://www.w3.org/2000/svg">
    <path fill-rule="evenodd" clip-rule="evenodd"
          d="M19.8145 5H4.18555C2.98043 5 2 6.0231 2 7.28061V16.3163C2 17.5738 2.98043 18.5969 4.18555 18.5969H19.8145C21.0196 18.5969 22 17.5738 22 16.3163V7.28061C22 6.0231 21.0196 5 19.8145 5ZM3.17203 7.28061C3.17203 6.69745 3.62668 6.22303 4.18555 6.22303H19.8145C20.3733 6.22303 20.828 6.69745 20.828 7.28061V7.82216H3.17203V7.28061ZM20.828 16.3163C20.828 16.8995 20.3733 17.3739 19.8145 17.3739H4.18555C3.62668 17.3739 3.17203 16.8994 3.17203 16.3163V12.41H20.828V16.3163H20.828ZM20.828 11.1869H3.17203V9.04507H20.828V11.1869H20.828ZM18.2281 14.2258H15.4656C15.1419 14.2258 14.8796 14.4996 14.8796 14.8373C14.8796 15.175 15.1419 15.4488 15.4656 15.4488H18.2281C18.5517 15.4488 18.8141 15.175 18.8141 14.8373C18.8141 14.4996 18.5517 14.2258 18.2281 14.2258ZM5.74795 14.2258H13.5374C13.861 14.2258 14.1234 14.4996 14.1234 14.8373C14.1234 15.175 13.861 15.4488 13.5374 15.4488H5.74795C5.42432 15.4488 5.16193 15.175 5.16193 14.8373C5.16193 14.4996 5.42432 14.2258 5.74795 14.2258Z"
          fill="#A3A8AF"/>
    <path d="M20.828 7.82216V8.07216H21.078V7.82216H20.828ZM3.17203 7.82216H2.92203V8.07216H3.17203V7.82216ZM20.828 16.3163V16.0663H20.578V16.3163H20.828ZM3.17203 12.41V12.16H2.92203V12.41H3.17203ZM20.828 12.41H21.078V12.16H20.828V12.41ZM20.828 16.3163V16.5663H21.078V16.3163H20.828ZM3.17203 11.1869H2.92203V11.4369H3.17203V11.1869ZM3.17203 9.04507V8.79507H2.92203V9.04507H3.17203ZM20.828 9.04507H21.078V8.79507H20.828V9.04507ZM20.828 11.1869V11.4369H21.078V11.1869H20.828ZM18.8141 14.8373H19.0641V14.8373L18.8141 14.8373ZM4.18555 5.25H19.8145V4.75H4.18555V5.25ZM2.25 7.28061C2.25 6.15103 3.12843 5.25 4.18555 5.25V4.75C2.83243 4.75 1.75 5.89517 1.75 7.28061H2.25ZM2.25 16.3163V7.28061H1.75V16.3163H2.25ZM4.18555 18.3469C3.12842 18.3469 2.25 17.4459 2.25 16.3163H1.75C1.75 17.7018 2.83243 18.8469 4.18555 18.8469V18.3469ZM19.8145 18.3469H4.18555V18.8469H19.8145V18.3469ZM21.75 16.3163C21.75 17.4459 20.8716 18.3469 19.8145 18.3469V18.8469C21.1676 18.8469 22.25 17.7018 22.25 16.3163H21.75ZM21.75 7.28061V16.3163H22.25V7.28061H21.75ZM19.8145 5.25C20.8716 5.25 21.75 6.15103 21.75 7.28061H22.25C22.25 5.89517 21.1676 4.75 19.8145 4.75V5.25ZM4.18555 5.97303C3.47869 5.97303 2.92203 6.56951 2.92203 7.28061H3.42203C3.42203 6.82538 3.77467 6.47303 4.18555 6.47303V5.97303ZM19.8145 5.97303H4.18555V6.47303H19.8145V5.97303ZM21.078 7.28061C21.078 6.56951 20.5213 5.97303 19.8145 5.97303V6.47303C20.2253 6.47303 20.578 6.82538 20.578 7.28061H21.078ZM21.078 7.82216V7.28061H20.578V7.82216H21.078ZM3.17203 8.07216H20.828V7.57216H3.17203V8.07216ZM2.92203 7.28061V7.82216H3.42203V7.28061H2.92203ZM19.8145 17.6239C20.5213 17.6239 21.078 17.0274 21.078 16.3163H20.578C20.578 16.7716 20.2253 17.1239 19.8145 17.1239V17.6239ZM4.18555 17.6239H19.8145V17.1239H4.18555V17.6239ZM2.92203 16.3163C2.92203 17.0274 3.47868 17.6239 4.18555 17.6239V17.1239C3.77468 17.1239 3.42203 16.7715 3.42203 16.3163H2.92203ZM2.92203 12.41V16.3163H3.42203V12.41H2.92203ZM20.828 12.16H3.17203V12.66H20.828V12.16ZM21.078 16.3163V12.41H20.578V16.3163H21.078ZM20.828 16.5663H20.828V16.0663H20.828V16.5663ZM3.17203 11.4369H20.828V10.9369H3.17203V11.4369ZM2.92203 9.04507V11.1869H3.42203V9.04507H2.92203ZM20.828 8.79507H3.17203V9.29507H20.828V8.79507ZM21.078 11.1869V9.04507H20.578V11.1869H21.078ZM20.828 11.4369H20.828V10.9369H20.828V11.4369ZM15.4656 14.4758H18.2281V13.9758H15.4656V14.4758ZM15.1296 14.8373C15.1296 14.6275 15.2899 14.4758 15.4656 14.4758V13.9758C14.9939 13.9758 14.6296 14.3716 14.6296 14.8373H15.1296ZM15.4656 15.1988C15.2899 15.1988 15.1296 15.0471 15.1296 14.8373H14.6296C14.6296 15.3029 14.9939 15.6988 15.4656 15.6988V15.1988ZM18.2281 15.1988H15.4656V15.6988H18.2281V15.1988ZM18.5641 14.8373C18.5641 15.0471 18.4037 15.1988 18.2281 15.1988V15.6988C18.6997 15.6988 19.0641 15.3029 19.0641 14.8373H18.5641ZM18.2281 14.4758C18.4037 14.4758 18.5641 14.6275 18.5641 14.8373L19.0641 14.8373C19.064 14.3717 18.6997 13.9758 18.2281 13.9758V14.4758ZM13.5374 13.9758H5.74795V14.4758H13.5374V13.9758ZM14.3734 14.8373C14.3734 14.3716 14.009 13.9758 13.5374 13.9758V14.4758C13.713 14.4758 13.8734 14.6275 13.8734 14.8373H14.3734ZM13.5374 15.6988C14.009 15.6988 14.3734 15.3029 14.3734 14.8373H13.8734C13.8734 15.0471 13.713 15.1988 13.5374 15.1988V15.6988ZM5.74795 15.6988H13.5374V15.1988H5.74795V15.6988ZM4.91193 14.8373C4.91193 15.3029 5.27632 15.6988 5.74795 15.6988V15.1988C5.57231 15.1988 5.41193 15.0471 5.41193 14.8373H4.91193ZM5.74795 13.9758C5.27632 13.9758 4.91193 14.3716 4.91193 14.8373H5.41193C5.41193 14.6275 5.57231 14.4758 5.74795 14.4758V13.9758Z"
          fill="#A3A8AF"/>
</svg>
