<svg viewBox="0 0 24 24" fill="none" xmlns="http://www.w3.org/2000/svg">
    <path fill-rule="evenodd" clip-rule="evenodd"
          d="M21.0766 7.49412L21.0921 7.51971C21.1556 7.62494 21.1811 7.74123 21.1728 7.85401C21.1737 7.8708 21.1743 7.88768 21.1743 7.90467V20.6217C21.1743 21.3817 20.5291 22 19.736 22H4.43825C3.64521 22 3 21.3817 3 20.6217V7.95112C3 7.82995 3.02283 7.71381 3.06436 7.60635C3.07789 7.55936 3.09705 7.51311 3.12363 7.46889L6.07432 2.56317C6.28338 2.21574 6.67306 2 7.09139 2H17.0834C17.5011 2 17.8904 2.21524 18.0996 2.56172L21.003 7.37213C21.0305 7.41084 21.0552 7.45158 21.0766 7.49412ZM17.055 3.17231H12.7197V6.95643H19.3389L17.055 3.17231ZM11.4964 3.17231H7.11988L4.84378 6.95643H11.4964V3.17231ZM19.736 20.8277C19.8546 20.8277 19.951 20.7353 19.951 20.6217V8.12874H4.22328V20.6217C4.22328 20.7353 4.31972 20.8277 4.43825 20.8277H19.736ZM13.9985 12.548C14.2374 12.3191 14.6247 12.3191 14.8635 12.548C15.1024 12.7769 15.1024 13.148 14.8635 13.3769L11.7 16.4086C11.5806 16.5231 11.424 16.5804 11.2675 16.5804C11.111 16.5804 10.9545 16.5231 10.835 16.4086L9.35231 14.9878C9.11345 14.7589 9.11345 14.3877 9.35231 14.1588C9.59117 13.93 9.97848 13.93 10.2173 14.1588L11.2675 15.1652L13.9985 12.548Z"
          fill="#A3A8AF"/>
    <path d="M21.0921 7.51971L20.878 7.64892L20.8781 7.64894L21.0921 7.51971ZM21.0766 7.49412L20.8533 7.60648L20.8576 7.61509L20.8626 7.62334L21.0766 7.49412ZM21.1728 7.85401L20.9235 7.83563L20.9223 7.85177L20.9232 7.86792L21.1728 7.85401ZM3.06436 7.60635L3.29755 7.69648L3.30154 7.68616L3.3046 7.67553L3.06436 7.60635ZM3.12363 7.46889L2.90939 7.34003L2.90935 7.34011L3.12363 7.46889ZM6.07432 2.56317L5.86011 2.43427L5.86009 2.43431L6.07432 2.56317ZM18.0996 2.56172L18.3136 2.43254L18.3136 2.43253L18.0996 2.56172ZM21.003 7.37213L20.7889 7.50131L20.7938 7.5094L20.7993 7.5171L21.003 7.37213ZM12.7197 3.17231V2.92231H12.4697V3.17231H12.7197ZM17.055 3.17231L17.269 3.04313L17.1961 2.92231H17.055V3.17231ZM12.7197 6.95643H12.4697V7.20643H12.7197V6.95643ZM19.3389 6.95643V7.20643H19.7818L19.5529 6.82724L19.3389 6.95643ZM7.11988 3.17231V2.92231H6.97851L6.90565 3.04345L7.11988 3.17231ZM11.4964 3.17231H11.7464V2.92231H11.4964V3.17231ZM4.84378 6.95643L4.62955 6.82757L4.40167 7.20643H4.84378V6.95643ZM11.4964 6.95643V7.20643H11.7464V6.95643H11.4964ZM19.951 8.12874H20.201V7.87874H19.951V8.12874ZM4.22328 8.12874V7.87874H3.97328V8.12874H4.22328ZM14.8635 12.548L15.0365 12.3675L14.8635 12.548ZM13.9985 12.548L13.8256 12.3675L13.8256 12.3675L13.9985 12.548ZM14.8635 13.3769L15.0365 13.5574L14.8635 13.3769ZM11.7 16.4086L11.527 16.2281L11.527 16.2282L11.7 16.4086ZM10.835 16.4086L11.008 16.2281L11.008 16.2281L10.835 16.4086ZM9.35231 14.9878L9.17933 15.1683L9.17933 15.1683L9.35231 14.9878ZM10.2173 14.1588L10.3903 13.9783H10.3903L10.2173 14.1588ZM11.2675 15.1652L11.0945 15.3457L11.2675 15.5115L11.4404 15.3457L11.2675 15.1652ZM21.3061 7.3905L21.2906 7.36491L20.8626 7.62334L20.878 7.64892L21.3061 7.3905ZM21.4221 7.87239C21.4342 7.70907 21.397 7.54103 21.3061 7.39048L20.8781 7.64894C20.9142 7.70886 20.9281 7.77339 20.9235 7.83563L21.4221 7.87239ZM21.4243 7.90467C21.4243 7.88248 21.4236 7.86093 21.4224 7.84009L20.9232 7.86792C20.9239 7.88067 20.9243 7.89287 20.9243 7.90467H21.4243ZM21.4243 20.6217V7.90467H20.9243V20.6217H21.4243ZM19.736 22.25C20.657 22.25 21.4243 21.5297 21.4243 20.6217H20.9243C20.9243 21.2337 20.4011 21.75 19.736 21.75V22.25ZM4.43825 22.25H19.736V21.75H4.43825V22.25ZM2.75 20.6217C2.75 21.5297 3.51727 22.25 4.43825 22.25V21.75C3.77314 21.75 3.25 21.2337 3.25 20.6217H2.75ZM2.75 7.95112V20.6217H3.25V7.95112H2.75ZM2.83117 7.51622C2.77884 7.65162 2.75 7.79826 2.75 7.95112H3.25C3.25 7.86163 3.26681 7.776 3.29755 7.69648L2.83117 7.51622ZM2.90935 7.34011C2.87033 7.40502 2.84298 7.47169 2.82412 7.53717L3.3046 7.67553C3.31281 7.64703 3.32377 7.62119 3.33791 7.59767L2.90935 7.34011ZM5.86009 2.43431L2.90939 7.34003L3.33786 7.59775L6.28855 2.69202L5.86009 2.43431ZM7.09139 1.75C6.58878 1.75 6.11613 2.00881 5.86011 2.43427L6.28853 2.69207C6.45063 2.42267 6.75734 2.25 7.09139 2.25V1.75ZM17.0834 1.75H7.09139V2.25H17.0834V1.75ZM18.3136 2.43253C18.0575 2.00818 17.5853 1.75 17.0834 1.75V2.25C17.4169 2.25 17.7234 2.42229 17.8856 2.69091L18.3136 2.43253ZM21.217 7.24295L18.3136 2.43254L17.8856 2.6909L20.7889 7.50131L21.217 7.24295ZM21.2999 7.38177C21.2726 7.32749 21.2413 7.27587 21.2066 7.22716L20.7993 7.5171C20.8197 7.54581 20.8378 7.57568 20.8533 7.60648L21.2999 7.38177ZM12.7197 3.42231H17.055V2.92231H12.7197V3.42231ZM12.9697 6.95643V3.17231H12.4697V6.95643H12.9697ZM19.3389 6.70643H12.7197V7.20643H19.3389V6.70643ZM16.8409 3.30149L19.1249 7.08561L19.5529 6.82724L17.269 3.04313L16.8409 3.30149ZM7.11988 3.42231H11.4964V2.92231H7.11988V3.42231ZM5.05802 7.08528L7.33411 3.30117L6.90565 3.04345L4.62955 6.82757L5.05802 7.08528ZM11.4964 6.70643H4.84378V7.20643H11.4964V6.70643ZM11.2464 3.17231V6.95643H11.7464V3.17231H11.2464ZM19.701 20.6217C19.701 20.6057 19.7081 20.5934 19.715 20.5868C19.7216 20.5804 19.7295 20.5777 19.736 20.5777V21.0777C19.9825 21.0777 20.201 20.8833 20.201 20.6217H19.701ZM19.701 8.12874V20.6217H20.201V8.12874H19.701ZM4.22328 8.37874H19.951V7.87874H4.22328V8.37874ZM4.47328 20.6217V8.12874H3.97328V20.6217H4.47328ZM4.43825 20.5777C4.44475 20.5777 4.45263 20.5804 4.45929 20.5868C4.46613 20.5934 4.47328 20.6057 4.47328 20.6217H3.97328C3.97328 20.8833 4.19178 21.0777 4.43825 21.0777V20.5777ZM19.736 20.5777H4.43825V21.0777H19.736V20.5777ZM15.0365 12.3675C14.701 12.0459 14.1611 12.0459 13.8256 12.3675L14.1715 12.7285C14.3137 12.5923 14.5484 12.5923 14.6905 12.7285L15.0365 12.3675ZM15.0365 13.5574C15.3781 13.2301 15.3781 12.6948 15.0365 12.3675L14.6905 12.7285C14.8267 12.859 14.8267 13.0659 14.6905 13.1964L15.0365 13.5574ZM11.873 16.5891L15.0365 13.5574L14.6905 13.1964L11.527 16.2281L11.873 16.5891ZM11.2675 16.8304C11.4843 16.8304 11.7041 16.751 11.873 16.5891L11.527 16.2282C11.457 16.2952 11.3637 16.3304 11.2675 16.3304V16.8304ZM10.6621 16.5891C10.8309 16.751 11.0507 16.8304 11.2675 16.8304V16.3304C11.1714 16.3304 11.078 16.2952 11.008 16.2281L10.6621 16.5891ZM9.17933 15.1683L10.6621 16.5891L11.008 16.2281L9.52528 14.8073L9.17933 15.1683ZM9.17935 13.9783C8.83776 14.3056 8.83778 14.841 9.17933 15.1683L9.52528 14.8073C9.38911 14.6768 9.38913 14.4698 9.52527 14.3393L9.17935 13.9783ZM10.3903 13.9783C10.0547 13.6568 9.51489 13.6568 9.17935 13.9783L9.52527 14.3393C9.66744 14.2031 9.90221 14.2031 10.0443 14.3393L10.3903 13.9783ZM11.4404 14.9847L10.3903 13.9783L10.0443 14.3393L11.0945 15.3457L11.4404 14.9847ZM13.8256 12.3675L11.0945 14.9847L11.4404 15.3457L14.1715 12.7285L13.8256 12.3675Z"
          fill="#A3A8AF"/>
</svg>
