<svg viewBox="0 0 24 24" fill="none" xmlns="http://www.w3.org/2000/svg">
    <path fill-rule="evenodd" clip-rule="evenodd"
          d="M20.6447 7.51971L20.6305 7.49412C20.6108 7.45158 20.5881 7.41084 20.5627 7.37209L17.8917 2.56176C17.6993 2.21527 17.3411 2 16.9568 2H7.76408C7.37914 2 7.02064 2.21578 6.82837 2.56317L4.11374 7.46889C4.08929 7.51311 4.07166 7.55936 4.05921 7.60635C4.021 7.71381 4 7.82995 4 7.95112V20.6217C4 21.3817 4.59359 22 5.32319 22H19.3972C20.1268 22 20.7203 21.3817 20.7203 20.6217V7.90467C20.7203 7.88768 20.7199 7.8708 20.719 7.85401C20.7266 7.74123 20.7032 7.62494 20.6447 7.51971ZM12.9421 3.17231H16.9306L19.0318 6.95643H12.9421V3.17231ZM7.79029 3.17231H11.8167V6.95643H5.69628L7.79029 3.17231ZM19.5949 20.6217C19.5949 20.7353 19.5062 20.8277 19.3972 20.8277H5.32319C5.21414 20.8277 5.12542 20.7353 5.12542 20.6217V8.12874H19.5949V20.6217ZM12.106 17.2895C12.0213 17.1734 11.9248 17.1154 11.8165 17.1154H8.99187V16.8602C8.99187 16.6617 9.10201 16.4525 9.32262 16.2328C9.54323 16.013 9.81087 15.7933 10.1258 15.5733C10.4406 15.3536 10.7571 15.1142 11.0754 14.8554C11.3935 14.5966 11.6627 14.2812 11.8827 13.9089C12.1027 13.5367 12.2128 13.1379 12.2128 12.7124C12.2128 12.0759 11.9878 11.5657 11.5376 11.1816C11.0875 10.7976 10.5545 10.6056 9.93871 10.6056C9.35536 10.6056 8.84907 10.785 8.42003 11.1437C7.99084 11.5024 7.77638 11.9703 7.77638 12.5469C7.77638 13.0394 7.97246 13.2855 8.36464 13.2855C8.5707 13.2855 8.73514 13.2331 8.85811 13.1281C8.98088 13.0231 9.04249 12.9017 9.04249 12.7642C9.04249 12.4457 9.12732 12.2067 9.29712 12.0474C9.46677 11.8882 9.68408 11.8084 9.94883 11.8084C10.2611 11.8084 10.497 11.9042 10.6566 12.0956C10.8161 12.2872 10.896 12.5069 10.896 12.755C10.896 13.0316 10.784 13.3081 10.5599 13.5846C10.3358 13.8612 10.0642 14.1235 9.74517 14.3716L8.77332 15.1054C8.48273 15.3528 8.23557 15.6285 8.03171 15.9324C7.82771 16.2364 7.72579 16.544 7.72579 16.855V17.8835C7.72575 18.0037 7.7886 18.1063 7.91438 18.191C8.04004 18.276 8.16585 18.3183 8.2917 18.3183H11.826C11.9318 18.3183 12.0262 18.2568 12.109 18.1337C12.1916 18.0107 12.233 17.8682 12.233 17.7063C12.2331 17.5445 12.1907 17.4055 12.106 17.2895ZM16.9327 15.3639C17.0609 15.3639 17.1622 15.4236 17.2366 15.543C17.3108 15.6623 17.348 15.8048 17.3479 15.9703C17.3479 16.1228 17.3057 16.2602 17.2213 16.3829C17.1368 16.5056 17.0406 16.5667 16.9327 16.5667H16.4566V17.8665C16.4566 18.0061 16.3923 18.1162 16.2642 18.197C16.1358 18.2778 15.9805 18.3182 15.7982 18.3182C15.6226 18.3182 15.469 18.2778 15.3374 18.197C15.2057 18.1162 15.1399 18.0061 15.1399 17.8665V16.5667H12.709C12.5806 16.5667 12.4743 16.5254 12.3899 16.4423C12.3054 16.3596 12.2633 16.2485 12.2633 16.1094C12.2633 16.0187 12.2869 15.928 12.3342 15.8373L14.7347 10.9612C14.8426 10.7242 15.0284 10.6055 15.2918 10.6055C15.4268 10.6055 15.5703 10.6566 15.7222 10.7585C15.8741 10.8605 15.9501 10.9853 15.9501 11.133C15.9501 11.1824 15.9332 11.2422 15.8995 11.3124L13.9548 15.3639H15.1399V14.203C15.1399 14.0556 15.204 13.9432 15.3323 13.8657C15.4605 13.7884 15.6159 13.7496 15.7982 13.7496C15.9806 13.7496 16.1359 13.7884 16.2642 13.8657C16.3924 13.9432 16.4566 14.0557 16.4566 14.203V15.3639H16.9327Z"
          fill="#A3A8AF"/>
    <path d="M20.6305 7.49412L20.4036 7.59913L20.4075 7.60747L20.4119 7.61552L20.6305 7.49412ZM20.6447 7.51971L20.4262 7.6411L20.4262 7.64112L20.6447 7.51971ZM20.5627 7.37209L20.3442 7.49346L20.3486 7.50137L20.3535 7.50895L20.5627 7.37209ZM17.8917 2.56176L18.1102 2.4404L18.1102 2.44039L17.8917 2.56176ZM6.82837 2.56317L6.60964 2.44211L6.60963 2.44212L6.82837 2.56317ZM4.11374 7.46889L3.895 7.34785L3.89496 7.34792L4.11374 7.46889ZM4.05921 7.60635L4.29476 7.69011L4.29823 7.68037L4.30088 7.67038L4.05921 7.60635ZM20.719 7.85401L20.4696 7.83709L20.4686 7.85196L20.4693 7.86685L20.719 7.85401ZM16.9306 3.17231L17.1491 3.05095L17.0777 2.92231H16.9306V3.17231ZM12.9421 3.17231V2.92231H12.6921V3.17231H12.9421ZM19.0318 6.95643V7.20643H19.4566L19.2504 6.83506L19.0318 6.95643ZM12.9421 6.95643H12.6921V7.20643H12.9421V6.95643ZM11.8167 3.17231H12.0667V2.92231H11.8167V3.17231ZM7.79029 3.17231V2.92231H7.64291L7.57155 3.05126L7.79029 3.17231ZM11.8167 6.95643V7.20643H12.0667V6.95643H11.8167ZM5.69628 6.95643L5.47754 6.83538L5.27222 7.20643H5.69628V6.95643ZM5.12542 8.12874V7.87874H4.87542V8.12874H5.12542ZM19.5949 8.12874H19.8449V7.87874H19.5949V8.12874ZM12.106 17.2895L11.904 17.4368L11.904 17.4368L12.106 17.2895ZM8.99187 17.1154H8.74187V17.3654H8.99187V17.1154ZM9.32262 16.2328L9.14618 16.0556L9.32262 16.2328ZM10.1258 15.5733L9.98268 15.3684L9.98266 15.3684L10.1258 15.5733ZM11.0754 14.8554L11.2331 15.0493L11.2331 15.0493L11.0754 14.8554ZM11.8827 13.9089L11.6675 13.7817L11.6674 13.7817L11.8827 13.9089ZM11.5376 11.1816L11.6999 10.9914L11.6999 10.9914L11.5376 11.1816ZM8.42003 11.1437L8.58035 11.3355L8.5804 11.3355L8.42003 11.1437ZM8.85811 13.1281L9.02045 13.3182L9.02059 13.318L8.85811 13.1281ZM9.29712 12.0474L9.46815 12.2298L9.4682 12.2297L9.29712 12.0474ZM10.6566 12.0956L10.8487 11.9356L10.8486 11.9355L10.6566 12.0956ZM10.5599 13.5846L10.3657 13.4272L10.3657 13.4272L10.5599 13.5846ZM9.74517 14.3716L9.89583 14.5711L9.89863 14.5689L9.74517 14.3716ZM8.77332 15.1054L8.62267 14.9059L8.61683 14.9103L8.61124 14.915L8.77332 15.1054ZM8.03171 15.9324L8.2393 16.0718L8.23935 16.0717L8.03171 15.9324ZM7.72579 17.8835L7.97579 17.8836V17.8835H7.72579ZM7.91438 18.191L8.05436 17.9839L8.05409 17.9837L7.91438 18.191ZM12.109 18.1337L12.3164 18.2731L12.3165 18.2731L12.109 18.1337ZM12.233 17.7063L11.983 17.7063V17.7063H12.233ZM17.2366 15.543L17.4489 15.4109L17.4488 15.4108L17.2366 15.543ZM17.3479 15.9703L17.0979 15.9702V15.9703H17.3479ZM17.2213 16.3829L17.4272 16.5248L17.4273 16.5246L17.2213 16.3829ZM16.4566 16.5667V16.3167H16.2066V16.5667H16.4566ZM16.2642 18.197L16.3974 18.4086L16.3974 18.4085L16.2642 18.197ZM15.3374 18.197L15.4681 17.9839H15.4681L15.3374 18.197ZM15.1399 16.5667H15.3899V16.3167H15.1399V16.5667ZM12.3899 16.4423L12.5653 16.2642L12.5648 16.2637L12.3899 16.4423ZM12.3342 15.8373L12.5559 15.9531L12.5585 15.9478L12.3342 15.8373ZM14.7347 10.9612L14.9591 11.0717L14.9622 11.0648L14.7347 10.9612ZM15.7222 10.7585L15.8616 10.5509L15.8615 10.5508L15.7222 10.7585ZM15.8995 11.3124L16.1249 11.4206L16.1249 11.4205L15.8995 11.3124ZM13.9548 15.3639L13.7294 15.2558L13.5575 15.6139H13.9548V15.3639ZM15.1399 15.3639V15.6139H15.3899V15.3639H15.1399ZM15.3323 13.8657L15.2032 13.6516L15.2031 13.6517L15.3323 13.8657ZM16.2642 13.8657L16.3936 13.6518L16.3932 13.6516L16.2642 13.8657ZM16.4566 15.3639H16.2066V15.6139H16.4566V15.3639ZM20.4119 7.61552L20.4262 7.6411L20.8633 7.39832L20.849 7.37273L20.4119 7.61552ZM20.3535 7.50895C20.3724 7.53781 20.3892 7.56792 20.4036 7.59913L20.8574 7.38912C20.8324 7.33525 20.8038 7.28388 20.7719 7.23523L20.3535 7.50895ZM17.6731 2.68312L20.3442 7.49346L20.7813 7.25073L18.1102 2.4404L17.6731 2.68312ZM16.9568 2.25C17.2467 2.25 17.5231 2.41292 17.6731 2.68313L18.1102 2.44039C17.8755 2.01763 17.4354 1.75 16.9568 1.75V2.25ZM7.76408 2.25H16.9568V1.75H7.76408V2.25ZM7.04711 2.68423C7.19706 2.41328 7.47359 2.25 7.76408 2.25V1.75C7.28469 1.75 6.84421 2.01828 6.60964 2.44211L7.04711 2.68423ZM4.33248 7.58993L7.04712 2.68421L6.60963 2.44212L3.895 7.34785L4.33248 7.58993ZM4.30088 7.67038C4.30876 7.64062 4.31924 7.61389 4.33252 7.58986L3.89496 7.34792C3.85934 7.41233 3.83457 7.4781 3.81755 7.54232L4.30088 7.67038ZM4.25 7.95112C4.25 7.85898 4.26594 7.77116 4.29476 7.69011L3.82366 7.52259C3.77606 7.65647 3.75 7.80091 3.75 7.95112H4.25ZM4.25 20.6217V7.95112H3.75V20.6217H4.25ZM5.32319 21.75C4.74118 21.75 4.25 21.2533 4.25 20.6217H3.75C3.75 21.51 4.446 22.25 5.32319 22.25V21.75ZM19.3972 21.75H5.32319V22.25H19.3972V21.75ZM20.4703 20.6217C20.4703 21.2533 19.9792 21.75 19.3972 21.75V22.25C20.2743 22.25 20.9703 21.51 20.9703 20.6217H20.4703ZM20.4703 7.90467V20.6217H20.9703V7.90467H20.4703ZM20.4693 7.86685C20.47 7.87988 20.4703 7.89245 20.4703 7.90467H20.9703C20.9703 7.88291 20.9697 7.86173 20.9687 7.84116L20.4693 7.86685ZM20.4262 7.64112C20.4602 7.70238 20.4741 7.77032 20.4696 7.83709L20.9684 7.87093C20.9792 7.71214 20.9461 7.54751 20.8632 7.3983L20.4262 7.64112ZM16.9306 2.92231H12.9421V3.42231H16.9306V2.92231ZM19.2504 6.83506L17.1491 3.05095L16.712 3.29367L18.8132 7.07779L19.2504 6.83506ZM12.9421 7.20643H19.0318V6.70643H12.9421V7.20643ZM12.6921 3.17231V6.95643H13.1921V3.17231H12.6921ZM11.8167 2.92231H7.79029V3.42231H11.8167V2.92231ZM12.0667 6.95643V3.17231H11.5667V6.95643H12.0667ZM5.69628 7.20643H11.8167V6.70643H5.69628V7.20643ZM7.57155 3.05126L5.47754 6.83538L5.91502 7.07747L8.00903 3.29335L7.57155 3.05126ZM19.3972 21.0777C19.6538 21.0777 19.8449 20.8637 19.8449 20.6217H19.3449C19.3449 20.6126 19.3487 20.6024 19.3566 20.5942C19.3647 20.5858 19.3791 20.5777 19.3972 20.5777V21.0777ZM5.32319 21.0777H19.3972V20.5777H5.32319V21.0777ZM4.87542 20.6217C4.87542 20.8637 5.06655 21.0777 5.32319 21.0777V20.5777C5.34129 20.5777 5.35567 20.5858 5.36376 20.5942C5.37169 20.6024 5.37542 20.6126 5.37542 20.6217H4.87542ZM4.87542 8.12874V20.6217H5.37542V8.12874H4.87542ZM19.5949 7.87874H5.12542V8.37874H19.5949V7.87874ZM19.8449 20.6217V8.12874H19.3449V20.6217H19.8449ZM11.8165 17.3654C11.8202 17.3654 11.8496 17.3623 11.904 17.4368L12.308 17.1421C12.193 16.9846 12.0293 16.8654 11.8165 16.8654V17.3654ZM8.99187 17.3654H11.8165V16.8654H8.99187V17.3654ZM8.74187 16.8602V17.1154H9.24187V16.8602H8.74187ZM9.14618 16.0556C8.90436 16.2965 8.74187 16.566 8.74187 16.8602H9.24187C9.24187 16.7575 9.29965 16.6085 9.49906 16.4099L9.14618 16.0556ZM9.98266 15.3684C9.65848 15.5948 9.37912 15.8236 9.14618 16.0556L9.49906 16.4099C9.70735 16.2024 9.96326 15.9918 10.2689 15.7783L9.98266 15.3684ZM10.9176 14.6614C10.6038 14.9167 10.2921 15.1523 9.98268 15.3684L10.2689 15.7783C10.589 15.5548 10.9104 15.3118 11.2331 15.0493L10.9176 14.6614ZM11.6674 13.7817C11.4617 14.1299 11.2116 14.4223 10.9176 14.6614L11.2331 15.0493C11.5754 14.7709 11.8637 14.4326 12.0979 14.0361L11.6674 13.7817ZM11.9628 12.7124C11.9628 13.0924 11.8651 13.4473 11.6675 13.7817L12.0979 14.0361C12.3402 13.6261 12.4628 13.1835 12.4628 12.7124H11.9628ZM11.3754 11.3717C11.7652 11.7044 11.9628 12.1428 11.9628 12.7124H12.4628C12.4628 12.009 12.2103 11.4269 11.6999 10.9914L11.3754 11.3717ZM9.93871 10.8556C10.4977 10.8556 10.9725 11.0281 11.3754 11.3718L11.6999 10.9914C11.2026 10.5671 10.6113 10.3556 9.93871 10.3556V10.8556ZM8.5804 11.3355C8.96239 11.0161 9.41123 10.8556 9.93871 10.8556V10.3556C9.29948 10.3556 8.73574 10.5538 8.25966 10.9519L8.5804 11.3355ZM8.02638 12.5469C8.02638 12.0416 8.21004 11.645 8.58035 11.3355L8.2597 10.9519C7.77164 11.3598 7.52638 11.8989 7.52638 12.5469H8.02638ZM8.36464 13.0355C8.22408 13.0355 8.15809 12.9942 8.11899 12.9451C8.07123 12.8852 8.02638 12.7666 8.02638 12.5469H7.52638C7.52638 12.8197 7.57957 13.0704 7.7279 13.2566C7.88488 13.4537 8.11302 13.5355 8.36464 13.5355V13.0355ZM8.69576 12.9379C8.62938 12.9946 8.52799 13.0355 8.36464 13.0355V13.5355C8.61341 13.5355 8.8409 13.4715 9.02045 13.3182L8.69576 12.9379ZM8.79249 12.7642C8.79249 12.8154 8.77378 12.8712 8.69562 12.9381L9.02059 13.318C9.18798 13.1749 9.29249 12.988 9.29249 12.7642H8.79249ZM9.12609 11.8651C8.88943 12.087 8.79249 12.4031 8.79249 12.7642H9.29249C9.29249 12.4884 9.36521 12.3263 9.46815 12.2298L9.12609 11.8651ZM9.94883 11.5584C9.62985 11.5584 9.34841 11.6564 9.12604 11.8651L9.4682 12.2297C9.58513 12.12 9.73832 12.0584 9.94883 12.0584V11.5584ZM10.8486 11.9355C10.6299 11.6731 10.3149 11.5584 9.94883 11.5584V12.0584C10.2073 12.0584 10.3642 12.1352 10.4645 12.2556L10.8486 11.9355ZM11.146 12.755C11.146 12.448 11.0453 12.1718 10.8487 11.9356L10.4645 12.2556C10.5869 12.4025 10.646 12.5658 10.646 12.755H11.146ZM10.7541 13.742C11.0038 13.434 11.146 13.1037 11.146 12.755H10.646C10.646 12.9596 10.5642 13.1822 10.3657 13.4272L10.7541 13.742ZM9.89863 14.5689C10.2308 14.3107 10.5165 14.0352 10.7541 13.742L10.3657 13.4272C10.1551 13.6871 9.89768 13.9363 9.59171 14.1742L9.89863 14.5689ZM8.92396 15.3049L9.89581 14.5711L9.59453 14.1721L8.62267 14.9059L8.92396 15.3049ZM8.23935 16.0717C8.4299 15.7875 8.66152 15.5289 8.93539 15.2957L8.61124 14.915C8.30394 15.1767 8.04123 15.4694 7.82408 15.7932L8.23935 16.0717ZM7.97579 16.855C7.97579 16.6019 8.05798 16.3419 8.2393 16.0718L7.82413 15.7931C7.59745 16.1309 7.47579 16.4862 7.47579 16.855H7.97579ZM7.97579 17.8835V16.855H7.47579V17.8835H7.97579ZM8.05409 17.9837C7.977 17.9318 7.97578 17.8988 7.97579 17.8836L7.47579 17.8834C7.47572 18.1086 7.6002 18.2808 7.77466 18.3984L8.05409 17.9837ZM8.2917 18.0683C8.22506 18.0683 8.14714 18.0466 8.05436 17.9839L7.7744 18.3982C7.93294 18.5053 8.10665 18.5683 8.2917 18.5683V18.0683ZM11.826 18.0683H8.2917V18.5683H11.826V18.0683ZM11.9015 17.9942C11.8731 18.0363 11.8512 18.0551 11.8395 18.0628C11.8303 18.0688 11.8273 18.0683 11.826 18.0683V18.5683C12.0457 18.5683 12.2074 18.4354 12.3164 18.2731L11.9015 17.9942ZM11.983 17.7063C11.983 17.8232 11.9539 17.9162 11.9014 17.9942L12.3165 18.2731C12.4293 18.1052 12.483 17.9133 12.483 17.7063H11.983ZM11.904 17.4368C11.9536 17.5048 11.9831 17.5905 11.983 17.7063L12.483 17.7064C12.4831 17.4984 12.4277 17.3062 12.308 17.1421L11.904 17.4368ZM17.4488 15.4108C17.334 15.2266 17.1567 15.1139 16.9327 15.1139V15.6139C16.9651 15.6139 16.9904 15.6206 17.0244 15.6752L17.4488 15.4108ZM17.5979 15.9703C17.598 15.7664 17.5518 15.5765 17.4489 15.4109L17.0243 15.675C17.0698 15.7482 17.098 15.8431 17.0979 15.9702L17.5979 15.9703ZM17.4273 16.5246C17.541 16.3592 17.5979 16.1722 17.5979 15.9703H17.0979C17.0979 16.0734 17.0704 16.1612 17.0153 16.2413L17.4273 16.5246ZM16.9327 16.8167C17.1516 16.8167 17.3151 16.6874 17.4272 16.5248L17.0155 16.2411C16.9867 16.2828 16.9642 16.3018 16.9516 16.3099C16.9412 16.3165 16.9364 16.3167 16.9327 16.3167V16.8167ZM16.4566 16.8167H16.9327V16.3167H16.4566V16.8167ZM16.7066 17.8665V16.5667H16.2066V17.8665H16.7066ZM16.3974 18.4085C16.5906 18.2868 16.7066 18.1006 16.7066 17.8665H16.2066C16.2066 17.9115 16.194 17.9457 16.1309 17.9855L16.3974 18.4085ZM15.7982 18.5682C16.018 18.5682 16.2217 18.5192 16.3974 18.4086L16.1309 17.9854C16.0499 18.0365 15.943 18.0682 15.7982 18.0682V18.5682ZM15.2066 18.4101C15.3828 18.5182 15.5829 18.5682 15.7982 18.5682V18.0682C15.6623 18.0682 15.5553 18.0374 15.4681 17.9839L15.2066 18.4101ZM14.8899 17.8665C14.8899 18.1036 15.0104 18.2897 15.2066 18.4101L15.4681 17.9839C15.4011 17.9428 15.3899 17.9086 15.3899 17.8665H14.8899ZM14.8899 16.5667V17.8665H15.3899V16.5667H14.8899ZM12.709 16.8167H15.1399V16.3167H12.709V16.8167ZM12.2145 16.6205C12.35 16.7539 12.5214 16.8167 12.709 16.8167V16.3167C12.6399 16.3167 12.5985 16.2969 12.5653 16.2642L12.2145 16.6205ZM12.0133 16.1094C12.0133 16.3026 12.0738 16.4827 12.215 16.621L12.5648 16.2637C12.5369 16.2364 12.5133 16.1944 12.5133 16.1094H12.0133ZM12.1126 15.7217C12.049 15.8436 12.0133 15.9737 12.0133 16.1094H12.5133C12.5133 16.0638 12.5248 16.0125 12.5558 15.953L12.1126 15.7217ZM14.5104 10.8508L12.1099 15.7269L12.5585 15.9478L14.959 11.0716L14.5104 10.8508ZM15.2918 10.3555C15.1218 10.3555 14.9607 10.3942 14.8204 10.4838C14.6799 10.5735 14.5774 10.7033 14.5072 10.8576L14.9622 11.0648C14.9999 10.9821 15.0443 10.9341 15.0895 10.9052C15.1349 10.8761 15.1984 10.8555 15.2918 10.8555V10.3555ZM15.8615 10.5508C15.6828 10.431 15.4912 10.3555 15.2918 10.3555V10.8555C15.3623 10.8555 15.4579 10.8822 15.583 10.9661L15.8615 10.5508ZM16.2001 11.133C16.2001 10.8817 16.0639 10.6868 15.8616 10.5509L15.5828 10.966C15.6844 11.0342 15.7001 11.089 15.7001 11.133H16.2001ZM16.1249 11.4205C16.1663 11.3343 16.2001 11.2355 16.2001 11.133H15.7001C15.7001 11.1296 15.7006 11.1336 15.6969 11.1469C15.6931 11.16 15.6862 11.179 15.6741 11.2043L16.1249 11.4205ZM14.1802 15.4721L16.1249 11.4206L15.6741 11.2042L13.7294 15.2558L14.1802 15.4721ZM15.1399 15.1139H13.9548V15.6139H15.1399V15.1139ZM14.8899 14.203V15.3639H15.3899V14.203H14.8899ZM15.2031 13.6517C15.0013 13.7735 14.8899 13.9663 14.8899 14.203H15.3899C15.3899 14.145 15.4066 14.1129 15.4616 14.0797L15.2031 13.6517ZM15.7982 13.4996C15.5803 13.4996 15.378 13.5461 15.2032 13.6516L15.4614 14.0798C15.543 14.0306 15.6515 13.9996 15.7982 13.9996V13.4996ZM16.3932 13.6516C16.2183 13.5462 16.0162 13.4996 15.7982 13.4996V13.9996C15.9449 13.9996 16.0534 14.0305 16.1351 14.0798L16.3932 13.6516ZM16.7066 14.203C16.7066 13.9662 16.5949 13.7736 16.3936 13.6518L16.1348 14.0796C16.1899 14.1129 16.2066 14.1451 16.2066 14.203H16.7066ZM16.7066 15.3639V14.203H16.2066V15.3639H16.7066ZM16.9327 15.1139H16.4566V15.6139H16.9327V15.1139Z"
          fill="#A3A8AF"/>
</svg>
