<svg viewBox="0 0 24 24" fill="none" xmlns="http://www.w3.org/2000/svg">
    <path fill-rule="evenodd" clip-rule="evenodd"
          d="M20.3235 7.49412L20.3383 7.51971C20.3991 7.62494 20.4236 7.74119 20.4156 7.85393C20.4165 7.87077 20.417 7.88764 20.417 7.90467V20.6217C20.417 21.3817 19.7987 22 19.0387 22H4.37833C3.61832 22 3 21.3817 3 20.6217V7.95112C3 7.82991 3.02191 7.71369 3.0618 7.60615C3.07481 7.5592 3.09313 7.51303 3.11856 7.46889L5.9463 2.56317C6.14654 2.21578 6.51997 2 6.92099 2H16.4967C16.897 2 17.2701 2.21527 17.4705 2.56176L20.2528 7.37205C20.2793 7.4108 20.303 7.45158 20.3235 7.49412ZM16.4694 3.17231H12.3148V6.95643H18.6581L16.4694 3.17231ZM11.1425 3.17231H6.9483L4.76708 6.95643H11.1425V3.17231ZM19.0388 20.8277C19.1524 20.8277 19.2448 20.7353 19.2448 20.6217V8.12874H4.17235V20.6217C4.17235 20.7353 4.26477 20.8277 4.37836 20.8277H19.0388ZM12.8908 15.6266C13.0911 15.3723 13.4597 15.3285 13.7139 15.5288C13.9683 15.729 14.0121 16.0976 13.8118 16.3519L12.2065 18.3903C12.0985 18.5274 11.9415 18.6025 11.78 18.6119L11.778 18.6121C11.7672 18.6126 11.7564 18.6139 11.7456 18.6139L11.7417 18.6137L11.7392 18.6138L11.7369 18.6137L11.7329 18.6139C11.7255 18.6139 11.7181 18.6133 11.7107 18.6128C11.7071 18.6125 11.7035 18.6122 11.6999 18.612L11.6975 18.6119C11.5338 18.602 11.3751 18.5248 11.2674 18.3844L9.70419 16.346C9.50715 16.0891 9.55571 15.7212 9.81258 15.5242C10.0694 15.3272 10.4374 15.3757 10.6344 15.6326L11.1531 16.309V10.9023C11.1531 10.5786 11.4156 10.3161 11.7393 10.3161C12.063 10.3161 12.3254 10.5786 12.3254 10.9023V16.3446L12.8908 15.6266Z"
          fill="#A3A8AF"/>
    <path d="M20.3383 7.51971L20.5547 7.39455L20.5547 7.39451L20.3383 7.51971ZM20.3235 7.49412L20.0983 7.6027L20.1024 7.61117L20.1071 7.61932L20.3235 7.49412ZM20.4156 7.85393L20.1662 7.83622L20.1651 7.85173L20.166 7.86725L20.4156 7.85393ZM20.417 7.90467L20.167 7.90408V7.90467H20.417ZM3.0618 7.60615L3.2962 7.69309L3.29989 7.68313L3.30272 7.6729L3.0618 7.60615ZM3.11856 7.46889L2.90196 7.34404L2.90193 7.34409L3.11856 7.46889ZM5.9463 2.56317L6.16289 2.68801L6.1629 2.68801L5.9463 2.56317ZM17.4705 2.56176L17.2541 2.68692L17.2541 2.68693L17.4705 2.56176ZM20.2528 7.37205L20.0364 7.49723L20.0411 7.50529L20.0463 7.51298L20.2528 7.37205ZM12.3148 3.17231V2.92231H12.0648V3.17231H12.3148ZM16.4694 3.17231L16.6858 3.04714L16.6136 2.92231H16.4694V3.17231ZM12.3148 6.95643H12.0648V7.20643H12.3148V6.95643ZM18.6581 6.95643V7.20643H19.0916L18.8746 6.83125L18.6581 6.95643ZM6.9483 3.17231V2.92231H6.80384L6.7317 3.04746L6.9483 3.17231ZM11.1425 3.17231H11.3925V2.92231H11.1425V3.17231ZM4.76708 6.95643L4.55048 6.83158L4.33442 7.20643H4.76708V6.95643ZM11.1425 6.95643V7.20643H11.3925V6.95643H11.1425ZM19.2448 8.12874H19.4948V7.87874H19.2448V8.12874ZM4.17235 8.12874V7.87874H3.92235V8.12874H4.17235ZM13.7139 15.5288L13.5592 15.7252L13.5593 15.7252L13.7139 15.5288ZM12.8908 15.6266L12.6944 15.4719L12.6944 15.4719L12.8908 15.6266ZM13.8118 16.3519L13.6154 16.1972L13.6154 16.1972L13.8118 16.3519ZM12.2065 18.3903L12.4029 18.545L12.4029 18.545L12.2065 18.3903ZM11.78 18.6119L11.7946 18.8615L11.7946 18.8615L11.78 18.6119ZM11.778 18.6121L11.7915 18.8617L11.7926 18.8616L11.778 18.6121ZM11.7456 18.6139L11.7357 18.8639H11.7456V18.6139ZM11.7417 18.6137L11.7516 18.3639L11.7405 18.3635L11.7295 18.364L11.7417 18.6137ZM11.7392 18.6138L11.7266 18.8635L11.739 18.8641L11.7514 18.8635L11.7392 18.6138ZM11.7369 18.6137L11.7495 18.364L11.7382 18.3635L11.727 18.3639L11.7369 18.6137ZM11.7329 18.6139V18.8641L11.7428 18.8637L11.7329 18.6139ZM11.7107 18.6128L11.6922 18.8621L11.6922 18.8621L11.7107 18.6128ZM11.6999 18.612L11.7141 18.3624L11.7119 18.3623L11.6999 18.612ZM11.6975 18.6119L11.6824 18.8615L11.6855 18.8616L11.6975 18.6119ZM11.2674 18.3844L11.4658 18.2323L11.4658 18.2323L11.2674 18.3844ZM9.70419 16.346L9.90257 16.1938L9.90255 16.1938L9.70419 16.346ZM9.81258 15.5242L9.66045 15.3258L9.66045 15.3258L9.81258 15.5242ZM10.6344 15.6326L10.436 15.7847L10.436 15.7847L10.6344 15.6326ZM11.1531 16.309L10.9548 16.4611L11.4031 17.0458V16.309H11.1531ZM12.3254 16.3446H12.0754V17.0661L12.5218 16.4992L12.3254 16.3446ZM20.5547 7.39451L20.5399 7.36893L20.1071 7.61932L20.1219 7.6449L20.5547 7.39451ZM20.665 7.87164C20.6764 7.71059 20.6413 7.54436 20.5547 7.39455L20.1219 7.64487C20.1569 7.70553 20.1708 7.7718 20.1662 7.83622L20.665 7.87164ZM20.667 7.90526C20.667 7.88288 20.6664 7.86131 20.6653 7.84061L20.166 7.86725C20.1667 7.88022 20.167 7.8924 20.167 7.90408L20.667 7.90526ZM20.667 20.6217V7.90467H20.167V20.6217H20.667ZM19.0387 22.25C19.9368 22.25 20.667 21.5197 20.667 20.6217H20.167C20.167 21.2436 19.6606 21.75 19.0387 21.75V22.25ZM4.37833 22.25H19.0387V21.75H4.37833V22.25ZM2.75 20.6217C2.75 21.5197 3.48025 22.25 4.37833 22.25V21.75C3.75639 21.75 3.25 21.2436 3.25 20.6217H2.75ZM2.75 7.95112V20.6217H3.25V7.95112H2.75ZM2.8274 7.51922C2.77743 7.65395 2.75 7.79956 2.75 7.95112H3.25C3.25 7.86025 3.2664 7.77344 3.2962 7.69309L2.8274 7.51922ZM2.90193 7.34409C2.86469 7.40873 2.83876 7.47482 2.82087 7.53941L3.30272 7.6729C3.31085 7.64358 3.32156 7.61733 3.33518 7.59369L2.90193 7.34409ZM5.72971 2.43832L2.90196 7.34404L3.33515 7.59374L6.16289 2.68801L5.72971 2.43832ZM6.92099 1.75C6.4306 1.75 5.97458 2.01349 5.72971 2.43832L6.1629 2.68801C6.31849 2.41807 6.60935 2.25 6.92099 2.25V1.75ZM16.4967 1.75H6.92099V2.25H16.4967V1.75ZM17.6869 2.4366C17.4418 2.01287 16.9862 1.75 16.4967 1.75V2.25C16.8077 2.25 17.0984 2.41768 17.2541 2.68692L17.6869 2.4366ZM20.4692 7.24688L17.6869 2.43659L17.2541 2.68693L20.0364 7.49723L20.4692 7.24688ZM20.5487 7.38555C20.5226 7.33153 20.4927 7.27995 20.4593 7.23113L20.0463 7.51298C20.0659 7.54165 20.0833 7.57164 20.0983 7.6027L20.5487 7.38555ZM12.3148 3.42231H16.4694V2.92231H12.3148V3.42231ZM12.5648 6.95643V3.17231H12.0648V6.95643H12.5648ZM18.6581 6.70643H12.3148V7.20643H18.6581V6.70643ZM16.253 3.29748L18.4417 7.0816L18.8746 6.83125L16.6858 3.04714L16.253 3.29748ZM6.9483 3.42231H11.1425V2.92231H6.9483V3.42231ZM4.98367 7.08127L7.16489 3.29716L6.7317 3.04746L4.55048 6.83158L4.98367 7.08127ZM11.1425 6.70643H4.76708V7.20643H11.1425V6.70643ZM10.8925 3.17231V6.95643H11.3925V3.17231H10.8925ZM18.9948 20.6217C18.9948 20.5973 19.0142 20.5777 19.0388 20.5777V21.0777C19.2905 21.0777 19.4948 20.8733 19.4948 20.6217H18.9948ZM18.9948 8.12874V20.6217H19.4948V8.12874H18.9948ZM4.17235 8.37874H19.2448V7.87874H4.17235V8.37874ZM4.42235 20.6217V8.12874H3.92235V20.6217H4.42235ZM4.37836 20.5777C4.40284 20.5777 4.42235 20.5972 4.42235 20.6217H3.92235C3.92235 20.8734 4.1267 21.0777 4.37836 21.0777V20.5777ZM19.0388 20.5777H4.37836V21.0777H19.0388V20.5777ZM13.8686 15.3324C13.5059 15.0466 12.9801 15.1092 12.6944 15.4719L13.0872 15.7813C13.2021 15.6354 13.4135 15.6104 13.5592 15.7252L13.8686 15.3324ZM14.0082 16.5066C14.2939 16.1438 14.2314 15.618 13.8686 15.3323L13.5593 15.7252C13.7051 15.84 13.7303 16.0514 13.6154 16.1972L14.0082 16.5066ZM12.4029 18.545L14.0082 16.5066L13.6154 16.1972L12.0101 18.2356L12.4029 18.545ZM11.7946 18.8615C12.0237 18.8481 12.2483 18.7412 12.4029 18.545L12.0101 18.2356C11.9487 18.3135 11.8594 18.3569 11.7654 18.3624L11.7946 18.8615ZM11.7926 18.8616L11.7946 18.8615L11.7654 18.3624L11.7634 18.3625L11.7926 18.8616ZM11.7456 18.8639C11.7598 18.8639 11.7721 18.8631 11.7792 18.8626C11.7892 18.8619 11.7885 18.8619 11.7915 18.8617L11.7645 18.3624C11.7595 18.3627 11.755 18.363 11.7518 18.3632C11.7503 18.3634 11.7486 18.3635 11.7475 18.3636C11.7462 18.3637 11.7453 18.3637 11.7444 18.3638C11.7407 18.364 11.7422 18.3639 11.7456 18.3639V18.8639ZM11.7318 18.8635L11.7357 18.8637L11.7555 18.3641L11.7516 18.3639L11.7318 18.8635ZM11.7514 18.8635L11.7539 18.8634L11.7295 18.364L11.727 18.3641L11.7514 18.8635ZM11.7243 18.8634L11.7266 18.8635L11.7518 18.3641L11.7495 18.364L11.7243 18.8634ZM11.7428 18.8637L11.7468 18.8635L11.727 18.3639L11.723 18.3641L11.7428 18.8637ZM11.6922 18.8621C11.6981 18.8625 11.7147 18.8639 11.7329 18.8639V18.3639C11.7353 18.3639 11.7365 18.3639 11.7357 18.3639C11.7347 18.3638 11.7333 18.3637 11.7292 18.3634L11.6922 18.8621ZM11.6858 18.8616C11.6868 18.8617 11.6882 18.8618 11.6922 18.8621L11.7293 18.3634C11.726 18.3632 11.7203 18.3628 11.7141 18.3624L11.6858 18.8616ZM11.6855 18.8616L11.6879 18.8617L11.7119 18.3623L11.7095 18.3622L11.6855 18.8616ZM11.069 18.5365C11.2232 18.7375 11.4505 18.8474 11.6824 18.8615L11.7126 18.3624C11.6172 18.3566 11.5269 18.312 11.4658 18.2323L11.069 18.5365ZM9.50581 16.4981L11.0691 18.5365L11.4658 18.2323L9.90257 16.1938L9.50581 16.4981ZM9.66045 15.3258C9.29402 15.6068 9.22474 16.1317 9.50582 16.4981L9.90255 16.1938C9.78957 16.0465 9.8174 15.8355 9.96472 15.7225L9.66045 15.3258ZM10.8328 15.4804C10.5518 15.1139 10.0268 15.0448 9.66045 15.3258L9.96472 15.7225C10.112 15.6096 10.3231 15.6374 10.436 15.7847L10.8328 15.4804ZM11.3515 16.1568L10.8328 15.4804L10.436 15.7847L10.9548 16.4611L11.3515 16.1568ZM10.9031 10.9023V16.309H11.4031V10.9023H10.9031ZM11.7393 10.0661C11.2775 10.0661 10.9031 10.4405 10.9031 10.9023H11.4031C11.4031 10.7166 11.5536 10.5661 11.7393 10.5661V10.0661ZM12.5754 10.9023C12.5754 10.4405 12.2011 10.0661 11.7393 10.0661V10.5661C11.9249 10.5661 12.0754 10.7166 12.0754 10.9023H12.5754ZM12.5754 16.3446V10.9023H12.0754V16.3446H12.5754ZM12.6944 15.4719L12.129 16.1899L12.5218 16.4992L13.0872 15.7813L12.6944 15.4719Z"
          fill="#A3A8AF"/>
</svg>
