<svg viewBox="0 0 24 24" fill="none" xmlns="http://www.w3.org/2000/svg">
    <path fill-rule="evenodd" clip-rule="evenodd"
          d="M17.3175 7.17296V13.5873C18.9341 14.1805 20.0958 15.7871 20.0959 17.6713C20.0959 20.0582 18.2317 22 15.9404 22C14.1291 22 12.5851 20.7865 12.0174 19.0991H4.39039C3.62374 19.0991 3 18.4494 3 17.6508V7.22355C3 7.01522 3.05981 6.82124 3.16222 6.65894L5.4042 2.5216C5.58228 2.19988 5.91438 2 6.27089 2H14.0471C14.4031 2 14.7349 2.19945 14.9131 2.52043L17.1865 6.67448L17.1875 6.67659C17.27 6.8223 17.3175 6.99194 17.3175 7.17296ZM13.9743 3.1725H10.7378V6.19269H15.6272L13.9743 3.1725ZM9.61225 3.1725H6.34398L4.70741 6.19269H9.61225V3.1725ZM4.39035 17.9266H11.7922C11.7875 17.8421 11.7848 17.757 11.7847 17.6713C11.7847 15.2844 13.6489 13.3426 15.9403 13.3426C16.0248 13.3426 16.1087 13.3456 16.1919 13.3508V7.36519H4.12556V17.6508C4.12556 17.8029 4.24436 17.9266 4.39035 17.9266ZM12.9104 17.6713C12.9104 19.4116 14.2696 20.8275 15.9403 20.8275C17.6111 20.8275 18.9703 19.4116 18.9703 17.6713C18.9703 15.9309 17.6111 14.5151 15.9403 14.5151C14.2696 14.5151 12.9104 15.9309 12.9104 17.6713ZM16.5029 17.085H17.7036C18.0145 17.085 18.2664 17.3475 18.2664 17.6713C18.2664 17.995 18.0144 18.2575 17.7036 18.2575H15.9401C15.6293 18.2575 15.3773 17.995 15.3773 17.6713V15.7172C15.3773 15.3934 15.6293 15.1309 15.9401 15.1309C16.2509 15.1309 16.5029 15.3934 16.5029 15.7172V17.085Z"
          fill="#A3A8AF"/>
    <path d="M17.3175 13.5873H17.0675V13.7618L17.2314 13.822L17.3175 13.5873ZM20.0959 17.6713H20.3459V17.6713L20.0959 17.6713ZM12.0174 19.0991L12.2544 19.0194L12.1971 18.8491H12.0174V19.0991ZM3.16222 6.65894L3.37365 6.79235L3.37808 6.78533L3.38203 6.77804L3.16222 6.65894ZM5.4042 2.5216L5.18546 2.40052L5.18439 2.40249L5.4042 2.5216ZM14.9131 2.52043L15.1324 2.40041L15.1317 2.3991L14.9131 2.52043ZM17.1865 6.67448L17.4122 6.56613L17.4058 6.55446L17.1865 6.67448ZM17.1875 6.67659L16.9621 6.7848L16.9658 6.79242L16.97 6.79977L17.1875 6.67659ZM10.7378 3.1725V2.9225H10.4878V3.1725H10.7378ZM13.9743 3.1725L14.1936 3.05248L14.1225 2.9225H13.9743V3.1725ZM10.7378 6.19269H10.4878V6.44269H10.7378V6.19269ZM15.6272 6.19269V6.44269H16.049L15.8465 6.07267L15.6272 6.19269ZM6.34398 3.1725V2.9225H6.19511L6.12418 3.05339L6.34398 3.1725ZM9.61225 3.1725H9.86225V2.9225H9.61225V3.1725ZM4.70741 6.19269L4.48761 6.07358L4.2876 6.44269H4.70741V6.19269ZM9.61225 6.19269V6.44269H9.86225V6.19269H9.61225ZM11.7922 17.9266V18.1766H12.0566L12.0418 17.9127L11.7922 17.9266ZM11.7847 17.6713H11.5347V17.6715L11.7847 17.6713ZM16.1919 13.3508L16.1763 13.6003L16.4419 13.6168V13.3508H16.1919ZM16.1919 7.36519H16.4419V7.11519H16.1919V7.36519ZM4.12556 7.36519V7.11519H3.87556V7.36519H4.12556ZM16.5029 17.085H16.2529V17.335H16.5029V17.085ZM17.5675 13.5873V7.17296H17.0675V13.5873H17.5675ZM20.3459 17.6713C20.3458 15.6838 19.1201 13.9825 17.4037 13.3526L17.2314 13.822C18.748 14.3785 19.8458 15.8903 19.8459 17.6713L20.3459 17.6713ZM15.9404 22.25C18.3793 22.25 20.3459 20.1865 20.3459 17.6713H19.8459C19.8459 19.9298 18.0841 21.75 15.9404 21.75V22.25ZM11.7805 19.1789C12.3794 20.9593 14.0129 22.25 15.9404 22.25V21.75C14.2454 21.75 12.7907 20.6138 12.2544 19.0194L11.7805 19.1789ZM4.39039 19.3491H12.0174V18.8491H4.39039V19.3491ZM2.75 17.6508C2.75 18.5778 3.47614 19.3491 4.39039 19.3491V18.8491C3.77133 18.8491 3.25 18.3211 3.25 17.6508H2.75ZM2.75 7.22355V17.6508H3.25V7.22355H2.75ZM2.9508 6.52553C2.8238 6.72679 2.75 6.96687 2.75 7.22355H3.25C3.25 7.06358 3.29583 6.91569 3.37365 6.79235L2.9508 6.52553ZM5.18439 2.40249L2.94242 6.53983L3.38203 6.77804L5.624 2.64071L5.18439 2.40249ZM6.27089 1.75C5.81994 1.75 5.40587 2.00238 5.18547 2.40053L5.62292 2.64268C5.7587 2.39739 6.00883 2.25 6.27089 2.25V1.75ZM14.0471 1.75H6.27089V2.25H14.0471V1.75ZM15.1317 2.3991C14.9112 2.00182 14.4974 1.75 14.0471 1.75V2.25C14.3088 2.25 14.5587 2.39709 14.6945 2.64176L15.1317 2.3991ZM17.4058 6.55446L15.1324 2.40041L14.6938 2.64045L16.9672 6.7945L17.4058 6.55446ZM17.4129 6.56839L17.4119 6.56628L16.9611 6.78269L16.9621 6.7848L17.4129 6.56839ZM17.5675 7.17296C17.5675 6.94774 17.5083 6.73578 17.405 6.55341L16.97 6.79977C17.0317 6.90881 17.0675 7.03614 17.0675 7.17296H17.5675ZM10.7378 3.4225H13.9743V2.9225H10.7378V3.4225ZM10.9878 6.19269V3.1725H10.4878V6.19269H10.9878ZM15.6272 5.94269H10.7378V6.44269H15.6272V5.94269ZM13.755 3.29252L15.4079 6.31271L15.8465 6.07267L14.1936 3.05248L13.755 3.29252ZM6.34398 3.4225H9.61225V2.9225H6.34398V3.4225ZM4.92721 6.31179L6.56378 3.2916L6.12418 3.05339L4.48761 6.07358L4.92721 6.31179ZM9.61225 5.94269H4.70741V6.44269H9.61225V5.94269ZM9.36225 3.1725V6.19269H9.86225V3.1725H9.36225ZM11.7922 17.6766H4.39035V18.1766H11.7922V17.6766ZM11.5347 17.6715C11.5348 17.7623 11.5377 17.852 11.5426 17.9406L12.0418 17.9127C12.0373 17.8322 12.0348 17.7517 12.0347 17.6711L11.5347 17.6715ZM15.9403 13.0926C13.5013 13.0926 11.5347 15.1561 11.5347 17.6713H12.0347C12.0347 15.4128 13.7965 13.5926 15.9403 13.5926V13.0926ZM16.2075 13.1012C16.1197 13.0958 16.0307 13.0926 15.9403 13.0926V13.5926C16.019 13.5926 16.0976 13.5954 16.1763 13.6003L16.2075 13.1012ZM15.9419 7.36519V13.3508H16.4419V7.36519H15.9419ZM4.12556 7.61519H16.1919V7.11519H4.12556V7.61519ZM4.37556 17.6508V7.36519H3.87556V17.6508H4.37556ZM4.39035 17.6766C4.38996 17.6766 4.38759 17.6768 4.38355 17.6726C4.37935 17.6682 4.37556 17.6609 4.37556 17.6508H3.87556C3.87556 17.9313 4.09679 18.1766 4.39035 18.1766V17.6766ZM15.9403 20.5775C14.4172 20.5775 13.1604 19.2833 13.1604 17.6713H12.6604C12.6604 19.54 14.122 21.0775 15.9403 21.0775V20.5775ZM18.7203 17.6713C18.7203 19.2833 17.4635 20.5775 15.9403 20.5775V21.0775C17.7587 21.0775 19.2203 19.54 19.2203 17.6713H18.7203ZM15.9403 14.7651C17.4635 14.7651 18.7203 16.0593 18.7203 17.6713H19.2203C19.2203 15.8026 17.7587 14.2651 15.9403 14.2651V14.7651ZM13.1604 17.6713C13.1604 16.0593 14.4172 14.7651 15.9403 14.7651V14.2651C14.122 14.2651 12.6604 15.8026 12.6604 17.6713H13.1604ZM17.7036 16.835H16.5029V17.335H17.7036V16.835ZM18.5164 17.6713C18.5164 17.2192 18.1621 16.835 17.7036 16.835V17.335C17.8668 17.335 18.0164 17.4759 18.0164 17.6713H18.5164ZM17.7036 18.5075C18.162 18.5075 18.5164 18.1234 18.5164 17.6713H18.0164C18.0164 17.8667 17.8668 18.0075 17.7036 18.0075V18.5075ZM15.9401 18.5075H17.7036V18.0075H15.9401V18.5075ZM15.1273 17.6713C15.1273 18.1234 15.4818 18.5075 15.9401 18.5075V18.0075C15.7769 18.0075 15.6273 17.8667 15.6273 17.6713H15.1273ZM15.1273 15.7172V17.6713H15.6273V15.7172H15.1273ZM15.9401 14.8809C15.4818 14.8809 15.1273 15.2651 15.1273 15.7172H15.6273C15.6273 15.5218 15.7769 15.3809 15.9401 15.3809V14.8809ZM16.7529 15.7172C16.7529 15.2651 16.3985 14.8809 15.9401 14.8809V15.3809C16.1034 15.3809 16.2529 15.5218 16.2529 15.7172H16.7529ZM16.7529 17.085V15.7172H16.2529V17.085H16.7529Z"
          fill="#A3A8AF"/>
</svg>
