<svg viewBox="0 0 24 24" fill="none" xmlns="http://www.w3.org/2000/svg">
    <path d="M8.91751 2.01776L4.74987 2.03464C4.20962 2.03464 3.70394 2.33451 3.44668 2.80643L1.2688 6.75138L8.49786 6.7345L8.91751 2.01776Z"
          fill="#A3A8AF"/>
    <path d="M17.8864 6.71673L15.6828 2.77179C15.4167 2.29987 14.9199 2 14.3708 2L10.2031 2.01688L10.6405 6.73362L17.8864 6.71673Z"
          fill="#A3A8AF"/>
    <path d="M8.92608 15.6219C8.92768 15.1203 9.1351 14.6323 9.49446 14.2818L13.4523 10.4622C13.8028 10.123 14.2659 9.93646 14.7555 9.93646C15.0103 9.93646 15.2579 9.9871 15.4911 10.0868C16.1865 10.3859 16.6319 11.0644 16.6295 11.8169L16.6279 12.4263C17.1496 12.5348 17.6569 12.6948 18.1441 12.9022L18.1521 10.7428C18.1553 10.7444 18.1586 10.7452 18.1618 10.746L18.157 9.42836L18.1618 8.03754H18.1513V7.99493L10.2188 8.02066H8.94296L1.01045 7.99574V8.03835L1 8.03754L1.00482 9.42836L1 10.7468C1.00322 10.7452 1.00643 10.7444 1.00965 10.7436L1.03457 17.84C1.03457 18.5861 1.64396 19.1947 2.38117 19.1947C2.38117 19.1947 2.38117 19.1947 2.39002 19.1947L9.58049 19.1754L11.7576 19.181L9.49125 16.9694C9.13108 16.6172 8.92527 16.126 8.92608 15.6219Z"
          fill="#A3A8AF"/>
    <path d="M15.4095 13.8261L15.4157 11.6437C15.4157 11.4889 15.3238 11.3492 15.181 11.2878C15.0391 11.2273 14.8731 11.2575 14.7615 11.3652L10.3729 15.5878C10.298 15.6607 10.2551 15.7595 10.2551 15.8636C10.2551 15.9677 10.2971 16.0673 10.372 16.1403L14.7365 20.3869C14.8481 20.4955 15.0132 20.5257 15.156 20.467C15.2988 20.4074 15.3925 20.2677 15.3925 20.1129L15.3988 17.9313L16.1288 17.9331C18.5164 17.9402 20.7129 19.2392 21.8624 21.322L21.8731 21.3416C21.9419 21.467 22.0722 21.5427 22.2114 21.5427C22.2427 21.5427 22.2757 21.5391 22.3069 21.5302C22.4774 21.4884 22.597 21.3345 22.5979 21.1592C22.6086 17.1688 19.3964 13.9053 15.4095 13.8261Z"
          fill="#A3A8AF"/>
</svg>
