<svg viewBox="0 0 24 24" fill="none" xmlns="http://www.w3.org/2000/svg">
    <path d="M9.68789 2.01825L5.64111 2.03464C5.11653 2.03464 4.62551 2.32582 4.37571 2.78405L2.26099 6.61459L9.2804 6.5982L9.68789 2.01825Z"
          fill="#A3A8AF"/>
    <path d="M18.3972 6.57995L16.2575 2.7494C15.9991 2.29117 15.5167 2 14.9836 2L10.9368 2.01639L11.3614 6.59634L18.3972 6.57995Z"
          fill="#A3A8AF"/>
    <path d="M18.6641 9.81872C18.006 9.61888 17.3066 9.51037 16.5821 9.51037C12.6767 9.51037 9.50418 12.6829 9.50418 16.5883C9.50418 17.3128 9.61269 18.0208 9.82034 18.6781L3.35049 18.6945C3.3419 18.6945 3.3419 18.6945 3.3419 18.6945C2.62606 18.6945 2.03435 18.1035 2.03435 17.3791L2 7.86169L9.70246 7.84529H10.9515L18.6539 7.82031L18.6641 9.81872Z"
          fill="#A3A8AF"/>
    <path d="M16.5823 11.1758C13.601 11.1758 11.1702 13.6074 11.1702 16.5879C11.1702 19.5691 13.6018 22 16.5823 22C19.5627 22 21.9944 19.5683 21.9944 16.5879C21.9944 13.6074 19.5635 11.1758 16.5823 11.1758ZM18.8719 17.2124H17.2068V18.8775C17.2068 19.2186 16.9234 19.502 16.5823 19.502C16.2411 19.502 15.9578 19.2186 15.9578 18.8775V17.2124H14.2927C13.9515 17.2124 13.6682 16.929 13.6682 16.5879C13.6682 16.2467 13.9515 15.9634 14.2927 15.9634H15.9578V14.2983C15.9578 13.9572 16.2411 13.6738 16.5823 13.6738C16.9234 13.6738 17.2068 13.9572 17.2068 14.2983V15.9634H18.8719C19.213 15.9634 19.4964 16.2467 19.4964 16.5879C19.4964 16.9298 19.2138 17.2124 18.8719 17.2124Z"
          fill="#A3A8AF"/>
</svg>
