<svg viewBox="0 0 24 24" fill="none" xmlns="http://www.w3.org/2000/svg">
    <path d="M20.4157 7.85406C20.4162 7.84625 20.416 7.83839 20.4162 7.83058C20.4164 7.82242 20.4168 7.81425 20.4167 7.80605C20.4166 7.79535 20.4159 7.78468 20.4152 7.77398C20.4146 7.76581 20.4142 7.75769 20.4133 7.74953C20.4122 7.73925 20.4105 7.72906 20.4089 7.71882C20.4075 7.71011 20.4061 7.7014 20.4043 7.69273C20.4024 7.68347 20.3999 7.67429 20.3975 7.66507C20.395 7.65542 20.3925 7.64578 20.3895 7.63624C20.3869 7.62816 20.3839 7.62019 20.381 7.61214C20.3771 7.60167 20.3732 7.59128 20.3688 7.58097C20.3656 7.57367 20.3621 7.56652 20.3586 7.55929C20.3535 7.54878 20.3483 7.53835 20.3426 7.52812C20.3411 7.52538 20.3399 7.52253 20.3384 7.5198L20.3236 7.49421C20.3031 7.45167 20.2794 7.41093 20.253 7.37222L17.4705 2.56172C17.2701 2.21524 16.897 2 16.4967 2H6.92092C6.52002 2 6.14658 2.21574 5.94623 2.56317L3.11848 7.4689C3.09301 7.51312 3.07465 7.55937 3.06168 7.60636C3.02188 7.71382 3 7.82996 3 7.95113V20.6217C3 20.9189 3.09484 21.1941 3.25535 21.4194C3.25953 21.4258 3.26426 21.4319 3.26871 21.4382C3.27207 21.4428 3.27543 21.4473 3.27887 21.4518C3.28387 21.4584 3.28836 21.4653 3.29367 21.4718C3.29543 21.4739 3.29742 21.4756 3.29918 21.4777C3.55188 21.7956 3.94153 22 4.37825 22H19.0387C19.7987 22 20.417 21.3817 20.417 20.6217V7.90468C20.4171 7.88769 20.4165 7.87082 20.4157 7.85406ZM12.3148 3.17231H16.4694L18.6582 6.95644H12.3148V3.17231ZM6.94823 3.17231H11.1424V6.95644H4.767L6.94823 3.17231ZM4.17235 19.986V8.12875H18.5284L4.17235 19.986ZM19.2447 20.6217C19.2447 20.7353 19.1523 20.8278 19.0387 20.8278H4.994L19.2447 9.05758V20.6217Z"
          fill="#A3A8AF" stroke="#A3A8AF" stroke-width="0.5"/>
</svg>
