<svg viewBox="0 0 24 24" fill="none" xmlns="http://www.w3.org/2000/svg">
    <path fill-rule="evenodd" clip-rule="evenodd"
          d="M20.9032 7.49408L20.9185 7.51971C20.9814 7.62494 21.0067 7.74119 20.9985 7.85393C20.9994 7.87077 20.9999 7.88764 20.9999 7.90467V20.6217C20.9999 21.3817 20.3609 22 19.5755 22H4.42446C3.63902 22 3 21.3817 3 20.6217V7.95112C3 7.82995 3.02261 7.71381 3.06374 7.60635C3.07715 7.55936 3.09612 7.51311 3.12244 7.46889L6.04483 2.56317C6.25181 2.21578 6.63774 2 7.05214 2H16.9483C17.362 2 17.7477 2.21527 17.9548 2.56176L20.8303 7.37217C20.8576 7.41084 20.882 7.45158 20.9032 7.49408ZM16.9202 3.17231H12.6265V6.95643H19.1822L16.9202 3.17231ZM11.4149 3.17231H7.08036L4.8261 6.95643H11.4149V3.17231ZM19.5755 20.8277C19.6929 20.8277 19.7884 20.7353 19.7884 20.6217V8.12874H4.21154V20.6217C4.21154 20.7353 4.30706 20.8277 4.42446 20.8277H19.5755ZM9.4435 10.6056C9.92621 10.6056 10.3131 10.72 10.6043 10.9485C10.8953 11.1772 11.041 11.5376 11.041 12.0299V13.5281C11.041 14.0206 10.8953 14.3811 10.6043 14.6096C10.3131 14.8382 9.92617 14.9525 9.4435 14.9525C8.95692 14.9525 8.5709 14.8383 8.28533 14.6096C7.99979 14.3811 7.857 14.0206 7.857 13.5281V12.0299C7.857 11.5377 7.99975 11.1772 8.28533 10.9485C8.57086 10.72 8.95692 10.6056 9.4435 10.6056ZM9.4435 14.0346C9.81047 14.0346 9.99415 13.8658 9.99415 13.5281V12.0299C9.99415 11.6923 9.81047 11.5235 9.4435 11.5235C9.08368 11.5235 8.90376 11.6923 8.90376 12.0299V13.5281C8.90376 13.8658 9.08368 14.0346 9.4435 14.0346ZM14.1812 10.3313C14.0467 10.2257 13.8993 10.173 13.7393 10.173C13.525 10.173 13.375 10.261 13.2895 10.4367L9.53026 18.0439C9.49441 18.1143 9.47673 18.1811 9.47673 18.2444C9.47673 18.385 9.53503 18.5134 9.65157 18.6295C9.76808 18.7455 9.91374 18.8036 10.0886 18.8036C10.3241 18.8036 10.4847 18.7155 10.5706 18.5398L14.3403 10.9327C14.3688 10.8765 14.3831 10.8097 14.3831 10.7322C14.3831 10.5704 14.3158 10.4367 14.1812 10.3313ZM14.3718 14.0029C14.8546 14.0029 15.2415 14.1173 15.5326 14.3458C15.8236 14.5745 15.9693 14.935 15.9693 15.4272V16.9255C15.9693 17.4179 15.8236 17.7784 15.5326 18.0069C15.2415 18.2356 14.8545 18.3498 14.3718 18.3498C13.8852 18.3498 13.4992 18.2356 13.2136 18.0069C12.9281 17.7784 12.7853 17.4179 12.7853 16.9255V15.4272C12.7853 14.935 12.9281 14.5745 13.2136 14.3458C13.4992 14.1173 13.8853 14.0029 14.3718 14.0029ZM14.3718 17.4319C14.7389 17.4319 14.9225 17.2631 14.9225 16.9255V15.4272C14.9225 15.0897 14.7389 14.9208 14.3718 14.9208C14.012 14.9208 13.8321 15.0896 13.8321 15.4272V16.9255C13.8321 17.2631 14.012 17.4319 14.3718 17.4319Z"
          fill="#A3A8AF"/>
    <path d="M20.9185 7.51971L21.1331 7.39145L21.133 7.3913L20.9185 7.51971ZM20.9032 7.49408L20.6795 7.60565L20.6837 7.61425L20.6887 7.6225L20.9032 7.49408ZM20.9985 7.85393L20.7492 7.83571L20.748 7.8517L20.7489 7.8677L20.9985 7.85393ZM3.06374 7.60635L3.29722 7.69573L3.30115 7.68548L3.30416 7.67492L3.06374 7.60635ZM3.12244 7.46889L2.90766 7.34094L2.90762 7.34102L3.12244 7.46889ZM6.04483 2.56317L5.83006 2.4352L5.83005 2.43522L6.04483 2.56317ZM17.9548 2.56176L17.7402 2.69L17.7402 2.69003L17.9548 2.56176ZM20.8303 7.37217L20.6157 7.50044L20.6205 7.50857L20.626 7.51631L20.8303 7.37217ZM12.6265 3.17231V2.92231H12.3765V3.17231H12.6265ZM16.9202 3.17231L17.1347 3.04404L17.062 2.92231H16.9202V3.17231ZM12.6265 6.95643H12.3765V7.20643H12.6265V6.95643ZM19.1822 6.95643V7.20643H19.6229L19.3968 6.82815L19.1822 6.95643ZM7.08036 3.17231V2.92231H6.93829L6.86558 3.04436L7.08036 3.17231ZM11.4149 3.17231H11.6649V2.92231H11.4149V3.17231ZM4.8261 6.95643L4.61132 6.82848L4.38617 7.20643H4.8261V6.95643ZM11.4149 6.95643V7.20643H11.6649V6.95643H11.4149ZM19.7884 8.12874H20.0384V7.87874H19.7884V8.12874ZM4.21154 8.12874V7.87874H3.96154V8.12874H4.21154ZM10.6043 10.9485L10.7588 10.7519L10.7586 10.7518L10.6043 10.9485ZM10.6043 14.6096L10.7587 14.8062L10.7587 14.8062L10.6043 14.6096ZM8.28533 14.6096L8.44159 14.4144L8.44152 14.4144L8.28533 14.6096ZM8.28533 10.9485L8.12913 10.7533L8.12906 10.7533L8.28533 10.9485ZM14.1812 10.3313L14.027 10.528L14.027 10.528L14.1812 10.3313ZM13.2895 10.4367L13.5136 10.5475L13.5143 10.5461L13.2895 10.4367ZM9.53026 18.0439L9.75308 18.1573L9.75439 18.1546L9.53026 18.0439ZM9.65157 18.6295L9.82801 18.4523L9.82795 18.4523L9.65157 18.6295ZM10.5706 18.5398L10.3465 18.4288L10.3459 18.4301L10.5706 18.5398ZM14.3403 10.9327L14.1173 10.8198L14.1163 10.8217L14.3403 10.9327ZM15.5326 14.3458L15.6871 14.1492L15.6869 14.1491L15.5326 14.3458ZM14.3718 14.0029L14.3718 14.2529H14.3718V14.0029ZM15.5326 18.0069L15.3782 17.8103L15.3782 17.8103L15.5326 18.0069ZM13.2136 18.0069L13.3699 17.8118L13.3698 17.8117L13.2136 18.0069ZM13.2136 14.3458L13.0574 14.1506L13.0574 14.1506L13.2136 14.3458ZM21.133 7.3913L21.1177 7.36567L20.6887 7.6225L20.704 7.64812L21.133 7.3913ZM21.2478 7.87214C21.2597 7.70933 21.223 7.54177 21.1331 7.39145L20.7039 7.64797C20.7399 7.70812 20.7537 7.77306 20.7492 7.83571L21.2478 7.87214ZM21.2499 7.90467C21.2499 7.88248 21.2493 7.86098 21.2481 7.84016L20.7489 7.8677C20.7496 7.88055 20.7499 7.8928 20.7499 7.90467H21.2499ZM21.2499 20.6217V7.90467H20.7499V20.6217H21.2499ZM19.5755 22.25C20.4912 22.25 21.2499 21.5274 21.2499 20.6217H20.7499C20.7499 21.2359 20.2307 21.75 19.5755 21.75V22.25ZM4.42446 22.25H19.5755V21.75H4.42446V22.25ZM2.75 20.6217C2.75 21.5274 3.50877 22.25 4.42446 22.25V21.75C3.76927 21.75 3.25 21.2359 3.25 20.6217H2.75ZM2.75 7.95112V20.6217H3.25V7.95112H2.75ZM2.83027 7.51697C2.7785 7.6522 2.75 7.79858 2.75 7.95112H3.25C3.25 7.86131 3.26671 7.77542 3.29722 7.69573L2.83027 7.51697ZM2.90762 7.34102C2.86901 7.40588 2.84196 7.47245 2.82333 7.53778L3.30416 7.67492C3.31233 7.64627 3.32323 7.62033 3.33726 7.59676L2.90762 7.34102ZM5.83005 2.43522L2.90766 7.34094L3.33722 7.59683L6.25961 2.69111L5.83005 2.43522ZM7.05214 1.75C6.55233 1.75 6.08348 2.00987 5.83006 2.4352L6.2596 2.69113C6.42013 2.42169 6.72316 2.25 7.05214 2.25V1.75ZM16.9483 1.75H7.05214V2.25H16.9483V1.75ZM18.1694 2.43352C17.9158 2.00923 17.4473 1.75 16.9483 1.75V2.25C17.2768 2.25 17.5796 2.42131 17.7402 2.69L18.1694 2.43352ZM21.0449 7.2439L18.1693 2.43349L17.7402 2.69003L20.6157 7.50044L21.0449 7.2439ZM21.1269 7.38252C21.1 7.32848 21.069 7.27686 21.0345 7.22802L20.626 7.51631C20.6461 7.54482 20.664 7.57469 20.6795 7.60565L21.1269 7.38252ZM12.6265 3.42231H16.9202V2.92231H12.6265V3.42231ZM12.8765 6.95643V3.17231H12.3765V6.95643H12.8765ZM19.1822 6.70643H12.6265V7.20643H19.1822V6.70643ZM16.7056 3.30058L18.9676 7.0847L19.3968 6.82815L17.1347 3.04404L16.7056 3.30058ZM7.08036 3.42231H11.4149V2.92231H7.08036V3.42231ZM5.04088 7.08437L7.29514 3.30026L6.86558 3.04436L4.61132 6.82848L5.04088 7.08437ZM11.4149 6.70643H4.8261V7.20643H11.4149V6.70643ZM11.1649 3.17231V6.95643H11.6649V3.17231H11.1649ZM19.5384 20.6217C19.5384 20.6066 19.5451 20.5944 19.5521 20.5877C19.559 20.581 19.5677 20.5777 19.5755 20.5777V21.0777C19.8231 21.0777 20.0384 20.8811 20.0384 20.6217H19.5384ZM19.5384 8.12874V20.6217H20.0384V8.12874H19.5384ZM4.21154 8.37874H19.7884V7.87874H4.21154V8.37874ZM4.46154 20.6217V8.12874H3.96154V20.6217H4.46154ZM4.42446 20.5777C4.43229 20.5777 4.44095 20.581 4.44782 20.5877C4.45483 20.5944 4.46154 20.6066 4.46154 20.6217H3.96154C3.96154 20.8811 4.17681 21.0777 4.42446 21.0777V20.5777ZM19.5755 20.5777H4.42446V21.0777H19.5755V20.5777ZM10.7586 10.7518C10.4117 10.4795 9.96511 10.3556 9.4435 10.3556V10.8556C9.88731 10.8556 10.2146 10.9604 10.45 11.1452L10.7586 10.7518ZM11.291 12.0299C11.291 11.4881 11.1286 11.0426 10.7588 10.7519L10.4498 11.145C10.662 11.3118 10.791 11.5872 10.791 12.0299H11.291ZM11.291 13.5281V12.0299H10.791V13.5281H11.291ZM10.7587 14.8062C11.1287 14.5157 11.291 14.07 11.291 13.5281H10.791C10.791 13.9711 10.6619 14.2465 10.4499 14.413L10.7587 14.8062ZM9.4435 15.2025C9.96502 15.2025 10.4116 15.0787 10.7587 14.8062L10.4499 14.4129C10.2145 14.5977 9.88731 14.7025 9.4435 14.7025V15.2025ZM8.12906 14.8047C8.47174 15.0791 8.91895 15.2025 9.4435 15.2025V14.7025C8.9949 14.7025 8.67007 14.5974 8.44159 14.4144L8.12906 14.8047ZM7.607 13.5281C7.607 14.0684 7.76536 14.5137 8.12913 14.8048L8.44152 14.4144C8.23421 14.2485 8.107 13.9727 8.107 13.5281H7.607ZM7.607 12.0299V13.5281H8.107V12.0299H7.607ZM8.12906 10.7533C7.76534 11.0446 7.607 11.4898 7.607 12.0299H8.107C8.107 11.5855 8.23415 11.3097 8.44159 11.1436L8.12906 10.7533ZM9.4435 10.3556C8.91886 10.3556 8.47169 10.4792 8.12913 10.7533L8.44152 11.1437C8.67004 10.9608 8.99498 10.8556 9.4435 10.8556V10.3556ZM9.74415 13.5281C9.74415 13.6527 9.71123 13.7019 9.68722 13.7239C9.65924 13.7497 9.59337 13.7846 9.4435 13.7846V14.2846C9.6606 14.2846 9.87005 14.2351 10.0257 14.092C10.1852 13.9453 10.2442 13.7412 10.2442 13.5281H9.74415ZM9.74415 12.0299V13.5281H10.2442V12.0299H9.74415ZM9.4435 11.7735C9.59337 11.7735 9.65924 11.8084 9.68722 11.8341C9.71123 11.8562 9.74415 11.9053 9.74415 12.0299H10.2442C10.2442 11.8169 10.1852 11.6128 10.0257 11.4661C9.87005 11.323 9.6606 11.2735 9.4435 11.2735V11.7735ZM9.15376 12.0299C9.15376 11.9039 9.18658 11.8542 9.20976 11.8324C9.23593 11.8079 9.29831 11.7735 9.4435 11.7735V11.2735C9.22887 11.2735 9.02138 11.3235 8.86763 11.4678C8.71089 11.6149 8.65376 11.8184 8.65376 12.0299H9.15376ZM9.15376 13.5281V12.0299H8.65376V13.5281H9.15376ZM9.4435 13.7846C9.29831 13.7846 9.23593 13.7502 9.20976 13.7257C9.18658 13.7039 9.15376 13.6542 9.15376 13.5281H8.65376C8.65376 13.7397 8.71089 13.9432 8.86763 14.0903C9.02138 14.2345 9.22887 14.2846 9.4435 14.2846V13.7846ZM13.7393 10.423C13.8394 10.423 13.9332 10.4545 14.027 10.528L14.3355 10.1345C14.1601 9.99703 13.9592 9.92297 13.7393 9.92297V10.423ZM13.5143 10.5461C13.5383 10.4969 13.5653 10.4706 13.5926 10.4546C13.6212 10.4378 13.6663 10.423 13.7393 10.423V9.92297C13.5979 9.92297 13.4609 9.95217 13.3396 10.0233C13.2169 10.0953 13.1263 10.2009 13.0647 10.3273L13.5143 10.5461ZM9.75439 18.1546L13.5136 10.5475L13.0654 10.326L9.30614 17.9331L9.75439 18.1546ZM9.72673 18.2444C9.72673 18.2286 9.73101 18.2006 9.75306 18.1573L9.30746 17.9305C9.25782 18.028 9.22673 18.1335 9.22673 18.2444H9.72673ZM9.82795 18.4523C9.74994 18.3746 9.72673 18.3073 9.72673 18.2444H9.22673C9.22673 18.4627 9.32012 18.6523 9.4752 18.8066L9.82795 18.4523ZM10.0886 18.5536C9.97527 18.5536 9.89449 18.5186 9.82801 18.4523L9.47514 18.8066C9.64167 18.9725 9.85221 19.0536 10.0886 19.0536V18.5536ZM10.3459 18.4301C10.3241 18.4748 10.2975 18.5009 10.2656 18.5183C10.2311 18.5372 10.176 18.5536 10.0886 18.5536V19.0536C10.2366 19.0536 10.3796 19.0259 10.5057 18.9569C10.6346 18.8863 10.7312 18.7805 10.7952 18.6495L10.3459 18.4301ZM14.1163 10.8217L10.3466 18.4288L10.7946 18.6508L14.5643 11.0437L14.1163 10.8217ZM14.1331 10.7322C14.1331 10.779 14.1245 10.8055 14.1173 10.8198L14.5634 11.0456C14.6131 10.9475 14.6331 10.8404 14.6331 10.7322H14.1331ZM14.027 10.528C14.1051 10.5892 14.1331 10.6522 14.1331 10.7322H14.6331C14.6331 10.4887 14.5265 10.2842 14.3355 10.1345L14.027 10.528ZM15.6869 14.1491C15.34 13.8768 14.8934 13.7529 14.3718 13.7529V14.2529C14.8157 14.2529 15.1429 14.3578 15.3783 14.5425L15.6869 14.1491ZM16.2193 15.4272C16.2193 14.8855 16.057 14.4399 15.6871 14.1492L15.3781 14.5423C15.5903 14.7091 15.7193 14.9845 15.7193 15.4272H16.2193ZM16.2193 16.9255V15.4272H15.7193V16.9255H16.2193ZM15.687 18.2036C16.057 17.913 16.2193 17.4673 16.2193 16.9255H15.7193C15.7193 17.3684 15.5903 17.6438 15.3782 17.8103L15.687 18.2036ZM14.3718 18.5998C14.8933 18.5998 15.34 18.4761 15.687 18.2036L15.3782 17.8103C15.1429 17.9951 14.8157 18.0998 14.3718 18.0998V18.5998ZM13.0574 18.2021C13.4 18.4765 13.8473 18.5998 14.3718 18.5998V18.0998C13.9232 18.0998 13.5983 17.9947 13.3699 17.8118L13.0574 18.2021ZM12.5353 16.9255C12.5353 17.4657 12.6937 17.911 13.0574 18.2021L13.3698 17.8117C13.1625 17.6458 13.0353 17.3701 13.0353 16.9255H12.5353ZM12.5353 15.4272V16.9255H13.0353V15.4272H12.5353ZM13.0574 14.1506C12.6937 14.4419 12.5353 14.8871 12.5353 15.4272H13.0353C13.0353 14.9829 13.1625 14.707 13.3699 14.5409L13.0574 14.1506ZM14.3719 13.7529C13.8472 13.7529 13.4 13.8765 13.0574 14.1506L13.3698 14.541C13.5983 14.3581 13.9233 14.2529 14.3718 14.2529L14.3719 13.7529ZM14.6725 16.9255C14.6725 17.0501 14.6396 17.0992 14.6156 17.1213C14.5876 17.147 14.5217 17.1819 14.3718 17.1819V17.6819C14.589 17.6819 14.7984 17.6324 14.954 17.4893C15.1136 17.3426 15.1725 17.1385 15.1725 16.9255H14.6725ZM14.6725 15.4272V16.9255H15.1725V15.4272H14.6725ZM14.3718 15.1708C14.5217 15.1708 14.5876 15.2057 14.6156 15.2314C14.6396 15.2535 14.6725 15.3027 14.6725 15.4272H15.1725C15.1725 15.2142 15.1136 15.0101 14.954 14.8634C14.7984 14.7203 14.589 14.6708 14.3718 14.6708V15.1708ZM14.0821 15.4272C14.0821 15.3012 14.115 15.2514 14.1381 15.2297C14.1643 15.2052 14.2267 15.1708 14.3718 15.1708V14.6708C14.1572 14.6708 13.9497 14.7208 13.796 14.8651C13.6393 15.0122 13.5821 15.2157 13.5821 15.4272H14.0821ZM14.0821 16.9255V15.4272H13.5821V16.9255H14.0821ZM14.3718 17.1819C14.2267 17.1819 14.1643 17.1476 14.1381 17.123C14.115 17.1013 14.0821 17.0515 14.0821 16.9255H13.5821C13.5821 17.137 13.6393 17.3405 13.796 17.4876C13.9497 17.6319 14.1572 17.6819 14.3718 17.6819V17.1819Z"
          fill="#A3A8AF"/>
</svg>
