<svg viewBox="0 0 24 24" fill="none" xmlns="http://www.w3.org/2000/svg">
    <path d="M9.30718 1H4.98718C4.44718 1 3.90717 1.33231 3.57487 1.74769L1.33179 5.98462H8.8918L9.30718 1Z"
          fill="#A3A8AF"/>
    <path d="M18.6956 5.98462L16.411 1.87231C16.1202 1.33231 15.5802 1 15.0402 1H10.7202L11.1356 5.98462H18.6956Z"
          fill="#A3A8AF"/>
    <path d="M19.0277 9.43221C18.28 9.22452 17.5323 9.0999 16.7431 9.0999C12.5477 9.0999 9.05847 12.5476 9.05847 16.7845C9.05847 17.5322 9.18309 18.2799 9.39078 19.0691H2.41231C1.66462 19.0276 1 18.4045 1 17.6153V7.35529H9.3077H10.72H19.0277V9.43221Z"
          fill="#A3A8AF"/>
    <path d="M20.8544 12.5476C18.5698 10.263 14.9144 10.263 12.5467 12.5476C10.2621 14.8322 10.2621 18.4876 12.5467 20.8553C14.8313 23.223 18.4867 23.14 20.8544 20.8553C23.139 18.4876 23.139 14.7907 20.8544 12.5476ZM18.0713 18.903L16.7836 17.6153L15.4959 18.903C15.2883 19.1107 14.8313 19.1107 14.5406 18.903C14.3329 18.6953 14.3329 18.2384 14.5406 17.9476L15.8283 16.6599L14.5406 15.3722C14.2913 15.123 14.2913 14.7076 14.499 14.3753C14.7067 14.1676 15.1636 14.1676 15.4544 14.3753L16.7421 15.663L18.0298 14.3753C18.2375 14.1676 18.6944 14.1676 18.9852 14.3753C19.1929 14.583 19.1929 15.0399 18.9852 15.3307L17.6975 16.6184L18.9852 17.9061C19.1929 18.1138 19.1929 18.5707 18.9852 18.8615C18.6944 19.1107 18.279 19.1107 18.0713 18.903Z"
          fill="#A3A8AF"/>
</svg>
