<svg viewBox="0 0 24 24" fill="none" xmlns="http://www.w3.org/2000/svg">
    <path fill-rule="evenodd" clip-rule="evenodd"
          d="M20.3234 7.49408L20.3382 7.51971C20.3991 7.62494 20.4235 7.74119 20.4156 7.85393C20.4165 7.87077 20.417 7.88764 20.417 7.90467V20.6217C20.417 21.3817 19.7987 22 19.0387 22H4.37833C3.61832 22 3 21.3817 3 20.6217V7.95112C3 7.82995 3.02188 7.71377 3.06172 7.60627C3.07473 7.55932 3.09305 7.51307 3.11852 7.46889L5.94626 2.56317C6.14646 2.21578 6.5199 2 6.92091 2H16.4966C16.8969 2 17.2701 2.21527 17.4704 2.56176L20.2528 7.37217C20.2793 7.41084 20.3029 7.45158 20.3234 7.49408ZM16.4694 3.17231H12.3147V6.95643H18.6581L16.4694 3.17231ZM11.1424 3.17231H6.94822L4.767 6.95643H11.1424V3.17231ZM19.0387 20.8277C19.1523 20.8277 19.2447 20.7353 19.2447 20.6217V8.12874H4.17227V20.6217C4.17227 20.7353 4.26469 20.8277 4.37829 20.8277H19.0387ZM12.3149 13.8921H14.207C14.5307 13.8921 14.7932 14.1545 14.7932 14.4782C14.7932 14.8019 14.5307 15.0644 14.207 15.0644H12.3149V16.9564C12.3149 17.2802 12.0525 17.5426 11.7288 17.5426C11.4051 17.5426 11.1427 17.2802 11.1427 16.9564V15.0644H9.2506C8.92689 15.0644 8.66446 14.8019 8.66446 14.4782C8.66446 14.1545 8.92689 13.8921 9.2506 13.8921H11.1427V12C11.1427 11.6763 11.4051 11.4139 11.7288 11.4139C12.0525 11.4139 12.3149 11.6763 12.3149 12V13.8921Z"
          fill="#A3A8AF"/>
    <path d="M20.3382 7.51971L20.5547 7.39461L20.5546 7.39439L20.3382 7.51971ZM20.3234 7.49408L20.0982 7.60273L20.1023 7.61123L20.1071 7.6194L20.3234 7.49408ZM20.4156 7.85393L20.1662 7.8363L20.1651 7.85177L20.1659 7.86725L20.4156 7.85393ZM3.06172 7.60627L3.29614 7.69316L3.29982 7.68322L3.30264 7.67302L3.06172 7.60627ZM3.11852 7.46889L3.3351 7.59375L3.33511 7.59374L3.11852 7.46889ZM5.94626 2.56317L6.16286 2.68801L6.16287 2.688L5.94626 2.56317ZM17.4704 2.56176L17.254 2.6869L17.254 2.68693L17.4704 2.56176ZM20.2528 7.37217L20.0364 7.49734L20.0411 7.50543L20.0464 7.51315L20.2528 7.37217ZM12.3147 3.17231V2.92231H12.0647V3.17231H12.3147ZM16.4694 3.17231L16.6858 3.04714L16.6136 2.92231H16.4694V3.17231ZM12.3147 6.95643H12.0647V7.20643H12.3147V6.95643ZM18.6581 6.95643V7.20643H19.0916L18.8746 6.83125L18.6581 6.95643ZM6.94822 3.17231V2.92231H6.80377L6.73163 3.04746L6.94822 3.17231ZM11.1424 3.17231H11.3924V2.92231H11.1424V3.17231ZM4.767 6.95643L4.55041 6.83158L4.33434 7.20643H4.767V6.95643ZM11.1424 6.95643V7.20643H11.3924V6.95643H11.1424ZM19.2447 8.12874H19.4947V7.87874H19.2447V8.12874ZM4.17227 8.12874V7.87874H3.92227V8.12874H4.17227ZM12.3149 13.8921H12.0649V14.1421H12.3149V13.8921ZM14.7932 14.4782L14.5432 14.4782V14.4782H14.7932ZM12.3149 15.0644V14.8144H12.0649V15.0644H12.3149ZM11.1427 15.0644H11.3927V14.8144H11.1427V15.0644ZM11.1427 13.8921V14.1421H11.3927V13.8921H11.1427ZM20.5546 7.39439L20.5397 7.36877L20.1071 7.6194L20.1219 7.64503L20.5546 7.39439ZM20.665 7.87156C20.6763 7.71057 20.6412 7.54439 20.5547 7.39461L20.1218 7.64481C20.1569 7.7055 20.1708 7.77182 20.1662 7.8363L20.665 7.87156ZM20.667 7.90467C20.667 7.88267 20.6663 7.86132 20.6652 7.84061L20.1659 7.86725C20.1666 7.88021 20.167 7.89261 20.167 7.90467H20.667ZM20.667 20.6217V7.90467H20.167V20.6217H20.667ZM19.0387 22.25C19.9367 22.25 20.667 21.5197 20.667 20.6217H20.167C20.167 21.2436 19.6606 21.75 19.0387 21.75V22.25ZM4.37833 22.25H19.0387V21.75H4.37833V22.25ZM2.75 20.6217C2.75 21.5197 3.48025 22.25 4.37833 22.25V21.75C3.75639 21.75 3.25 21.2436 3.25 20.6217H2.75ZM2.75 7.95112V20.6217H3.25V7.95112H2.75ZM2.8273 7.51939C2.77738 7.65409 2.75 7.79965 2.75 7.95112H3.25C3.25 7.86024 3.26637 7.77346 3.29614 7.69316L2.8273 7.51939ZM2.90193 7.34403C2.86458 7.40882 2.83866 7.47503 2.82079 7.53953L3.30264 7.67302C3.31079 7.64361 3.32151 7.61732 3.3351 7.59375L2.90193 7.34403ZM5.72967 2.43832L2.90192 7.34404L3.33511 7.59374L6.16286 2.68801L5.72967 2.43832ZM6.92091 1.75C6.43053 1.75 5.97449 2.01349 5.72966 2.43834L6.16287 2.688C6.31842 2.41807 6.60927 2.25 6.92091 2.25V1.75ZM16.4966 1.75H6.92091V2.25H16.4966V1.75ZM17.6869 2.43662C17.4418 2.01285 16.9861 1.75 16.4966 1.75V2.25C16.8077 2.25 17.0984 2.4177 17.254 2.6869L17.6869 2.43662ZM20.4693 7.247L17.6869 2.43659L17.254 2.68693L20.0364 7.49734L20.4693 7.247ZM20.5485 7.38544C20.5226 7.33156 20.4926 7.28002 20.4593 7.23119L20.0464 7.51315C20.0659 7.54166 20.0832 7.5716 20.0982 7.60273L20.5485 7.38544ZM12.3147 3.42231H16.4694V2.92231H12.3147V3.42231ZM12.5647 6.95643V3.17231H12.0647V6.95643H12.5647ZM18.6581 6.70643H12.3147V7.20643H18.6581V6.70643ZM16.2529 3.29748L18.4417 7.0816L18.8746 6.83125L16.6858 3.04714L16.2529 3.29748ZM6.94822 3.42231H11.1424V2.92231H6.94822V3.42231ZM4.98359 7.08127L7.16481 3.29716L6.73163 3.04746L4.55041 6.83158L4.98359 7.08127ZM11.1424 6.70643H4.767V7.20643H11.1424V6.70643ZM10.8924 3.17231V6.95643H11.3924V3.17231H10.8924ZM18.9947 20.6217C18.9947 20.5972 19.0142 20.5777 19.0387 20.5777V21.0777C19.2903 21.0777 19.4947 20.8734 19.4947 20.6217H18.9947ZM18.9947 8.12874V20.6217H19.4947V8.12874H18.9947ZM4.17227 8.37874H19.2447V7.87874H4.17227V8.37874ZM4.42227 20.6217V8.12874H3.92227V20.6217H4.42227ZM4.37829 20.5777C4.40276 20.5777 4.42227 20.5972 4.42227 20.6217H3.92227C3.92227 20.8734 4.12662 21.0777 4.37829 21.0777V20.5777ZM19.0387 20.5777H4.37829V21.0777H19.0387V20.5777ZM14.207 13.6421H12.3149V14.1421H14.207V13.6421ZM15.0432 14.4783C15.0432 14.0165 14.6688 13.6421 14.207 13.6421V14.1421C14.3927 14.1421 14.5432 14.2926 14.5432 14.4782L15.0432 14.4783ZM14.207 15.3144C14.6688 15.3144 15.0432 14.94 15.0432 14.4782H14.5432C14.5432 14.6639 14.3927 14.8144 14.207 14.8144V15.3144ZM12.3149 15.3144H14.207V14.8144H12.3149V15.3144ZM12.5649 16.9564V15.0644H12.0649V16.9564H12.5649ZM11.7288 17.7926C12.1906 17.7926 12.5649 17.4182 12.5649 16.9564H12.0649C12.0649 17.1421 11.9145 17.2926 11.7288 17.2926V17.7926ZM10.8927 16.9564C10.8927 17.4182 11.267 17.7926 11.7288 17.7926V17.2926C11.5432 17.2926 11.3927 17.1421 11.3927 16.9564H10.8927ZM10.8927 15.0644V16.9564H11.3927V15.0644H10.8927ZM9.2506 15.3144H11.1427V14.8144H9.2506V15.3144ZM8.41446 14.4782C8.41446 14.94 8.78882 15.3144 9.2506 15.3144V14.8144C9.06496 14.8144 8.91446 14.6639 8.91446 14.4782H8.41446ZM9.2506 13.6421C8.78882 13.6421 8.41446 14.0165 8.41446 14.4782H8.91446C8.91446 14.2926 9.06496 14.1421 9.2506 14.1421V13.6421ZM11.1427 13.6421H9.2506V14.1421H11.1427V13.6421ZM10.8927 12V13.8921H11.3927V12H10.8927ZM11.7288 11.1639C11.267 11.1639 10.8927 11.5382 10.8927 12H11.3927C11.3927 11.8144 11.5432 11.6639 11.7288 11.6639V11.1639ZM12.5649 12C12.5649 11.5382 12.1906 11.1639 11.7288 11.1639V11.6639C11.9145 11.6639 12.0649 11.8144 12.0649 12H12.5649ZM12.5649 13.8921V12H12.0649V13.8921H12.5649Z"
          fill="#A3A8AF"/>
</svg>
