<svg viewBox="0 0 24 24" fill="none" xmlns="http://www.w3.org/2000/svg">
    <path fill-rule="evenodd" clip-rule="evenodd"
          d="M21.0766 7.49408L21.0921 7.51971C21.1556 7.62494 21.1811 7.74119 21.1728 7.85393C21.1738 7.87077 21.1743 7.88764 21.1743 7.90467V20.6217C21.1743 21.3817 20.5291 22 19.736 22H4.43825C3.64521 22 3 21.3817 3 20.6217V7.95112C3 7.82995 3.02283 7.71381 3.06436 7.60635C3.07789 7.55936 3.09705 7.51311 3.12363 7.46889L6.07432 2.56317C6.28338 2.21574 6.67306 2 7.09139 2H17.0834C17.5011 2 17.8905 2.21524 18.0996 2.56172L21.003 7.37217C21.0305 7.41084 21.0552 7.45158 21.0766 7.49408ZM17.055 3.17231H12.7197V6.95643H19.3389L17.055 3.17231ZM11.4964 3.17231H7.11988L4.84378 6.95643H11.4964V3.17231ZM19.736 20.8277C19.8546 20.8277 19.951 20.7353 19.951 20.6217V8.12874H4.22328V20.6217C4.22328 20.7353 4.31972 20.8277 4.43825 20.8277H19.736ZM14.1422 13.3769L12.9929 14.4783L14.1422 15.5797C14.381 15.8086 14.381 16.1798 14.1422 16.4086C14.0228 16.5231 13.8662 16.5804 13.7097 16.5804C13.5532 16.5804 13.3967 16.5231 13.2772 16.4086L12.1279 15.3072L10.9786 16.4086C10.8592 16.5231 10.7027 16.5804 10.5462 16.5804C10.3896 16.5804 10.2331 16.5231 10.1137 16.4086C9.87482 16.1797 9.87482 15.8086 10.1136 15.5797L11.2629 14.4783L10.1136 13.3769C9.87474 13.148 9.87474 12.7768 10.1136 12.5479C10.3525 12.319 10.7398 12.319 10.9786 12.5479L12.1279 13.6493L13.2772 12.5479C13.516 12.319 13.9034 12.319 14.1422 12.5479C14.381 12.7768 14.381 13.148 14.1422 13.3769Z"
          fill="#A3A8AF"/>
    <path d="M21.0921 7.51971L21.3061 7.39054L21.306 7.3904L21.0921 7.51971ZM21.0766 7.49408L20.8533 7.60652L20.8576 7.61514L20.8626 7.6234L21.0766 7.49408ZM21.1728 7.85393L20.9235 7.83554L20.9223 7.85168L20.9232 7.86784L21.1728 7.85393ZM3.06436 7.60635L3.29755 7.69648L3.30154 7.68616L3.3046 7.67553L3.06436 7.60635ZM3.12363 7.46889L2.90939 7.34003L2.90935 7.34011L3.12363 7.46889ZM6.07432 2.56317L5.86011 2.43427L5.86009 2.43431L6.07432 2.56317ZM18.0996 2.56172L18.3136 2.43254L18.3136 2.43253L18.0996 2.56172ZM21.003 7.37217L20.7889 7.50135L20.7938 7.5095L20.7994 7.51724L21.003 7.37217ZM12.7197 3.17231V2.92231H12.4697V3.17231H12.7197ZM17.055 3.17231L17.269 3.04312L17.1961 2.92231H17.055V3.17231ZM12.7197 6.95643H12.4697V7.20643H12.7197V6.95643ZM19.3389 6.95643V7.20643H19.7818L19.553 6.82724L19.3389 6.95643ZM7.11988 3.17231V2.92231H6.97851L6.90565 3.04345L7.11988 3.17231ZM11.4964 3.17231H11.7464V2.92231H11.4964V3.17231ZM4.84378 6.95643L4.62955 6.82757L4.40167 7.20643H4.84378V6.95643ZM11.4964 6.95643V7.20643H11.7464V6.95643H11.4964ZM19.951 8.12874H20.201V7.87874H19.951V8.12874ZM4.22328 8.12874V7.87874H3.97328V8.12874H4.22328ZM12.9929 14.4783L12.8199 14.2978L12.6316 14.4783L12.8199 14.6588L12.9929 14.4783ZM14.1422 13.3769L13.9692 13.1964L13.9692 13.1964L14.1422 13.3769ZM14.1422 15.5797L14.3152 15.3992L14.1422 15.5797ZM14.1422 16.4086L13.9692 16.2281L13.9692 16.2282L14.1422 16.4086ZM13.2772 16.4086L13.1043 16.5891L13.1043 16.5891L13.2772 16.4086ZM12.1279 15.3072L12.3009 15.1267L12.1279 14.961L11.955 15.1267L12.1279 15.3072ZM10.9786 16.4086L10.8057 16.2281L10.8056 16.2282L10.9786 16.4086ZM10.1137 16.4086L9.94071 16.5891L10.1137 16.4086ZM10.1136 15.5797L9.94063 15.3992L9.94061 15.3992L10.1136 15.5797ZM11.2629 14.4783L11.4359 14.6588L11.6242 14.4783L11.4359 14.2978L11.2629 14.4783ZM10.1136 13.3769L9.94063 13.5574H9.94063L10.1136 13.3769ZM10.1136 12.5479L9.94064 12.3674L9.94064 12.3674L10.1136 12.5479ZM10.9786 12.5479L11.1516 12.3674L10.9786 12.5479ZM12.1279 13.6493L11.9549 13.8298L12.1279 13.9956L12.3009 13.8298L12.1279 13.6493ZM13.2772 12.5479L13.1042 12.3674L13.1042 12.3674L13.2772 12.5479ZM14.1422 12.5479L14.3152 12.3674L14.1422 12.5479ZM21.306 7.3904L21.2905 7.36477L20.8626 7.6234L20.8781 7.64902L21.306 7.3904ZM21.4221 7.87232C21.4342 7.70896 21.3969 7.54099 21.3061 7.39054L20.878 7.64888C20.9142 7.7089 20.9281 7.77343 20.9235 7.83554L21.4221 7.87232ZM21.4243 7.90467C21.4243 7.88245 21.4236 7.8609 21.4224 7.84002L20.9232 7.86784C20.9239 7.88063 20.9243 7.89283 20.9243 7.90467H21.4243ZM21.4243 20.6217V7.90467H20.9243V20.6217H21.4243ZM19.736 22.25C20.657 22.25 21.4243 21.5297 21.4243 20.6217H20.9243C20.9243 21.2337 20.4011 21.75 19.736 21.75V22.25ZM4.43825 22.25H19.736V21.75H4.43825V22.25ZM2.75 20.6217C2.75 21.5297 3.51727 22.25 4.43825 22.25V21.75C3.77314 21.75 3.25 21.2337 3.25 20.6217H2.75ZM2.75 7.95112V20.6217H3.25V7.95112H2.75ZM2.83117 7.51622C2.77884 7.65162 2.75 7.79826 2.75 7.95112H3.25C3.25 7.86163 3.26681 7.776 3.29755 7.69648L2.83117 7.51622ZM2.90935 7.34011C2.87033 7.40502 2.84298 7.47169 2.82412 7.53717L3.3046 7.67553C3.31281 7.64703 3.32377 7.62119 3.33791 7.59767L2.90935 7.34011ZM5.86009 2.43431L2.90939 7.34003L3.33786 7.59775L6.28855 2.69202L5.86009 2.43431ZM7.09139 1.75C6.58878 1.75 6.11613 2.00881 5.86011 2.43427L6.28853 2.69207C6.45063 2.42267 6.75734 2.25 7.09139 2.25V1.75ZM17.0834 1.75H7.09139V2.25H17.0834V1.75ZM18.3136 2.43253C18.0575 2.00818 17.5853 1.75 17.0834 1.75V2.25C17.417 2.25 17.7234 2.42229 17.8856 2.69091L18.3136 2.43253ZM21.217 7.24299L18.3136 2.43254L17.8856 2.6909L20.7889 7.50135L21.217 7.24299ZM21.2999 7.38165C21.2726 7.32757 21.2414 7.27593 21.2066 7.22709L20.7994 7.51724C20.8197 7.54575 20.8377 7.57559 20.8533 7.60652L21.2999 7.38165ZM12.7197 3.42231H17.055V2.92231H12.7197V3.42231ZM12.9697 6.95643V3.17231H12.4697V6.95643H12.9697ZM19.3389 6.70643H12.7197V7.20643H19.3389V6.70643ZM16.8409 3.30149L19.1249 7.08561L19.553 6.82724L17.269 3.04312L16.8409 3.30149ZM7.11988 3.42231H11.4964V2.92231H7.11988V3.42231ZM5.05802 7.08528L7.33411 3.30117L6.90565 3.04345L4.62955 6.82757L5.05802 7.08528ZM11.4964 6.70643H4.84378V7.20643H11.4964V6.70643ZM11.2464 3.17231V6.95643H11.7464V3.17231H11.2464ZM19.701 20.6217C19.701 20.6057 19.7082 20.5934 19.715 20.5868C19.7217 20.5804 19.7295 20.5777 19.736 20.5777V21.0777C19.9825 21.0777 20.201 20.8833 20.201 20.6217H19.701ZM19.701 8.12874V20.6217H20.201V8.12874H19.701ZM4.22328 8.37874H19.951V7.87874H4.22328V8.37874ZM4.47328 20.6217V8.12874H3.97328V20.6217H4.47328ZM4.43825 20.5777C4.44475 20.5777 4.45263 20.5804 4.45929 20.5868C4.46613 20.5934 4.47328 20.6057 4.47328 20.6217H3.97328C3.97328 20.8833 4.19178 21.0777 4.43825 21.0777V20.5777ZM19.736 20.5777H4.43825V21.0777H19.736V20.5777ZM13.1659 14.6588L14.3152 13.5574L13.9692 13.1964L12.8199 14.2978L13.1659 14.6588ZM14.3152 15.3992L13.1659 14.2978L12.8199 14.6588L13.9692 15.7602L14.3152 15.3992ZM14.3151 16.5891C14.6567 16.2618 14.6567 15.7265 14.3152 15.3992L13.9692 15.7602C14.1054 15.8907 14.1054 16.0977 13.9692 16.2281L14.3151 16.5891ZM13.7097 16.8304C13.9265 16.8304 14.1463 16.751 14.3152 16.5891L13.9692 16.2282C13.8992 16.2952 13.8059 16.3304 13.7097 16.3304V16.8304ZM13.1043 16.5891C13.2731 16.7509 13.4928 16.8304 13.7097 16.8304V16.3304C13.6135 16.3304 13.5202 16.2952 13.4502 16.2281L13.1043 16.5891ZM11.955 15.4877L13.1043 16.5891L13.4502 16.2281L12.3009 15.1267L11.955 15.4877ZM11.1516 16.5891L12.3009 15.4877L11.955 15.1267L10.8057 16.2281L11.1516 16.5891ZM10.5462 16.8304C10.763 16.8304 10.9828 16.751 11.1516 16.5891L10.8056 16.2282C10.7357 16.2952 10.6423 16.3304 10.5462 16.3304V16.8304ZM9.94071 16.5891C10.1096 16.7509 10.3293 16.8304 10.5462 16.8304V16.3304C10.45 16.3304 10.3567 16.2952 10.2867 16.2281L9.94071 16.5891ZM9.94061 15.3992C9.59914 15.7265 9.59916 16.2618 9.94071 16.5891L10.2867 16.2281C10.1505 16.0976 10.1505 15.8906 10.2866 15.7602L9.94061 15.3992ZM11.0899 14.2978L9.94063 15.3992L10.2866 15.7602L11.4359 14.6588L11.0899 14.2978ZM9.94063 13.5574L11.0899 14.6588L11.4359 14.2978L10.2866 13.1964L9.94063 13.5574ZM9.94064 12.3674C9.59905 12.6947 9.59908 13.23 9.94063 13.5574L10.2866 13.1964C10.1504 13.0659 10.1504 12.8589 10.2866 12.7284L9.94064 12.3674ZM11.1516 12.3674C10.816 12.0459 10.2762 12.0459 9.94064 12.3674L10.2866 12.7284C10.4287 12.5922 10.6635 12.5922 10.8056 12.7284L11.1516 12.3674ZM12.3009 13.4688L11.1516 12.3674L10.8056 12.7284L11.9549 13.8298L12.3009 13.4688ZM13.1042 12.3674L11.9549 13.4688L12.3009 13.8298L13.4502 12.7284L13.1042 12.3674ZM14.3152 12.3674C13.9796 12.0459 13.4398 12.0459 13.1042 12.3674L13.4501 12.7284C13.5923 12.5922 13.8271 12.5922 13.9692 12.7284L14.3152 12.3674ZM14.3151 13.5574C14.6567 13.2301 14.6567 12.6947 14.3152 12.3674L13.9692 12.7284C14.1054 12.8589 14.1054 13.0659 13.9692 13.1964L14.3151 13.5574Z"
          fill="#A3A8AF"/>
</svg>
