<svg viewBox="0 0 24 24" fill="none" xmlns="http://www.w3.org/2000/svg">
    <g clip-path="url(#clip0_1_1958)">
        <path d="M23.3541 17.2988H22.529V12.8986C22.529 12.1919 21.9041 11.617 21.136 11.617H12.4852V7.30137C12.4852 6.5838 11.8507 6 11.0707 6H8.37699C6.74938 6 5.34305 7.06691 5.03304 8.53684L4.45549 11.6171H4.44337L4.29634 11.6929C2.87991 12.4228 2 13.8041 2 15.2977V17.2058C2 17.9124 2.62489 18.4873 3.39292 18.4873H4.7922C5.07888 19.4929 6.07503 20.2369 7.25671 20.2369C8.43839 20.2369 9.43454 19.4929 9.72123 18.4873H15.0778C15.3644 19.4929 16.3606 20.2369 17.5423 20.2369C18.724 20.2369 19.7201 19.4929 20.0068 18.4873H23.3541C23.7108 18.4873 24 18.2212 24 17.8931C23.9999 17.5649 23.7108 17.2988 23.3541 17.2988ZM6.30246 8.75754C6.49732 7.84801 7.36882 7.18851 8.37704 7.18851H11.0707C11.1383 7.18851 11.1933 7.23915 11.1933 7.30137V11.6171H5.76643L6.30246 8.75754ZM7.25671 19.0484C6.5644 19.0484 6.00121 18.5304 6.00086 17.8936C6.00086 17.8934 6.00091 17.8932 6.00091 17.8931C6.00091 17.8929 6.00086 17.8927 6.00086 17.8925C6.00116 17.2557 6.5644 16.7377 7.25671 16.7377C7.9492 16.7377 8.51256 17.256 8.51256 17.8931C8.51256 18.5301 7.9492 19.0484 7.25671 19.0484ZM17.5423 19.0484C16.8498 19.0484 16.2865 18.5301 16.2865 17.893C16.2865 17.256 16.8498 16.7377 17.5423 16.7377C18.2348 16.7377 18.7981 17.256 18.7981 17.893C18.7981 18.5301 18.2348 19.0484 17.5423 19.0484ZM21.2371 17.2988H20.0067C19.7201 16.2932 18.7239 15.5492 17.5422 15.5492C16.3605 15.5492 15.3644 16.2932 15.0777 17.2988H9.72123C9.4345 16.2932 8.43839 15.5492 7.25671 15.5492C6.07503 15.5492 5.07888 16.2932 4.7922 17.2988H3.39292C3.33719 17.2988 3.29186 17.2571 3.29186 17.2058V15.2976C3.29186 14.2833 3.86154 13.3417 4.78893 12.8055H21.136C21.1918 12.8055 21.2371 12.8472 21.2371 12.8986V17.2988Z"
              fill="#A3A8AF" stroke="#A3A8AF" stroke-width="0.5"/>
    </g>
    <defs>
        <clipPath id="clip0_1_1958">
            <rect width="24" height="24" fill="white"/>
        </clipPath>
    </defs>
</svg>
