<svg viewBox="0 0 24 24" fill="none" xmlns="http://www.w3.org/2000/svg">
    <path d="M16.5819 11.176C13.5984 11.176 11.1699 13.6037 11.1699 16.588C11.1699 19.5723 13.5976 22 16.5819 22C19.5662 22 21.9939 19.5723 21.9939 16.588C21.9939 13.6037 19.5654 11.176 16.5819 11.176ZM18.7403 18.8447C18.6177 19.0032 18.4327 19.0859 18.2469 19.0859C18.1134 19.0859 17.9784 19.0422 17.8636 18.9548L15.9902 17.4974C15.838 17.3787 15.749 17.1976 15.749 17.0041V14.2985C15.749 13.9534 16.0284 13.674 16.3735 13.674C16.7185 13.674 16.998 13.9534 16.998 14.2985V16.6988L18.6302 17.9689C18.9026 18.1804 18.951 18.5723 18.7403 18.8447Z"
          fill="#A3A8AF"/>
    <path d="M9.68648 2.01721L5.6398 2.0336C5.11523 2.0336 4.62423 2.32477 4.37444 2.78299L2.25977 6.61344L9.27901 6.59705L9.68648 2.01721Z"
          fill="#A3A8AF"/>
    <path d="M18.3958 6.57984L16.2562 2.74939C15.9978 2.29117 15.5154 2 14.9822 2L10.9355 2.01639L11.3602 6.59623L18.3958 6.57984Z"
          fill="#A3A8AF"/>
    <path d="M18.6637 9.81855C18.0056 9.61872 17.3062 9.51021 16.5818 9.51021C12.6764 9.51021 9.504 12.6826 9.504 16.588C9.504 17.3124 9.6125 18.0204 9.82015 18.6777L3.35045 18.6941C3.34187 18.6941 3.34187 18.6941 3.34187 18.6941C2.62605 18.6941 2.03435 18.1032 2.03435 17.3788L2 7.86156L9.70227 7.84517H10.9512L18.6535 7.82019L18.6637 9.81855Z"
          fill="#A3A8AF"/>
</svg>
