<svg viewBox="0 0 24 24" fill="none" xmlns="http://www.w3.org/2000/svg">
    <path fill-rule="evenodd" clip-rule="evenodd"
          d="M21.8299 7.49412L21.8459 7.51971C21.9121 7.62494 21.9387 7.74119 21.93 7.85393C21.931 7.87077 21.9315 7.88764 21.9315 7.90467V20.6217C21.9315 21.3817 21.2595 22 20.4334 22H4.49818C3.67209 22 3 21.3817 3 20.6217V7.95112C3 7.82991 3.02382 7.71369 3.06717 7.60615C3.08131 7.5592 3.10122 7.51303 3.12886 7.46889L6.2025 2.56317C6.42015 2.21578 6.82606 2 7.26195 2H17.6703C18.1054 2 18.511 2.21527 18.7288 2.56176L21.7531 7.37205C21.7818 7.4108 21.8076 7.45158 21.8299 7.49412ZM17.6406 3.17231H13.1248V6.95643H20.0198L17.6406 3.17231ZM11.8505 3.17231H7.29163L4.92074 6.95643H11.8505V3.17231ZM20.4335 20.8277C20.5569 20.8277 20.6573 20.7353 20.6573 20.6217V8.12874H4.27429V20.6217C4.27429 20.7353 4.37475 20.8277 4.49822 20.8277H20.4335ZM7.1296 11.6404H17.8019C18.1538 11.6404 18.439 11.9029 18.439 12.2265C18.439 12.5502 18.1538 12.8127 17.8019 12.8127H7.1296C6.77773 12.8127 6.49249 12.5502 6.49249 12.2265C6.49249 11.9028 6.77773 11.6404 7.1296 11.6404ZM16.1029 16.2903H8.82861C8.47674 16.2903 8.1915 16.5527 8.1915 16.8765C8.1915 17.2002 8.47674 17.4626 8.82861 17.4626H16.1029C16.4548 17.4626 16.74 17.2002 16.74 16.8765C16.74 16.5527 16.4548 16.2903 16.1029 16.2903ZM10.2552 13.8921H14.6762C15.0281 13.8921 15.3134 14.1545 15.3133 14.4782C15.3133 14.8019 15.0281 15.0643 14.6762 15.0643H10.2552C9.90338 15.0643 9.61813 14.8019 9.61813 14.4782C9.61813 14.1545 9.90338 13.8921 10.2552 13.8921Z"
          fill="#A3A8AF"/>
    <path d="M21.8459 7.51971L22.0576 7.38666L22.0576 7.38661L21.8459 7.51971ZM21.8299 7.49412L21.6084 7.61016L21.613 7.61889L21.6182 7.62722L21.8299 7.49412ZM21.93 7.85393L21.6808 7.83468L21.6795 7.85153L21.6804 7.86841L21.93 7.85393ZM21.9315 7.90467L21.6815 7.90403V7.90467H21.9315ZM3.06717 7.60615L3.29904 7.69963L3.30328 7.6891L3.30655 7.67824L3.06717 7.60615ZM3.12886 7.46889L2.91701 7.33615L2.91698 7.33621L3.12886 7.46889ZM6.2025 2.56317L6.41435 2.6959L6.41435 2.6959L6.2025 2.56317ZM18.7288 2.56176L18.5171 2.6948L18.5171 2.69482L18.7288 2.56176ZM21.7531 7.37205L21.5414 7.50512L21.5466 7.51327L21.5523 7.521L21.7531 7.37205ZM13.1248 3.17231V2.92231H12.8748V3.17231H13.1248ZM17.6406 3.17231L17.8523 3.03924L17.7788 2.92231H17.6406V3.17231ZM13.1248 6.95643H12.8748V7.20643H13.1248V6.95643ZM20.0198 6.95643V7.20643H20.4723L20.2314 6.82336L20.0198 6.95643ZM7.29163 3.17231V2.92231H7.15324L7.07977 3.03958L7.29163 3.17231ZM11.8505 3.17231H12.1005V2.92231H11.8505V3.17231ZM4.92074 6.95643L4.70888 6.82369L4.46909 7.20643H4.92074V6.95643ZM11.8505 6.95643V7.20643H12.1005V6.95643H11.8505ZM20.6573 8.12874H20.9073V7.87874H20.6573V8.12874ZM4.27429 8.12874V7.87874H4.02429V8.12874H4.27429ZM18.439 12.2265L18.189 12.2265V12.2265H18.439ZM15.3133 14.4782L15.0633 14.4782V14.4782H15.3133ZM22.0576 7.38661L22.0415 7.36102L21.6182 7.62722L21.6343 7.65281L22.0576 7.38661ZM22.1793 7.87318C22.1921 7.70735 22.1525 7.53764 22.0576 7.38666L21.6343 7.65276C21.6717 7.71225 21.6854 7.77504 21.6808 7.83468L22.1793 7.87318ZM22.1815 7.90531C22.1816 7.88245 22.1808 7.86047 22.1796 7.83945L21.6804 7.86841C21.6812 7.88106 21.6815 7.89283 21.6815 7.90403L22.1815 7.90531ZM22.1815 20.6217V7.90467H21.6815V20.6217H22.1815ZM20.4334 22.25C21.3775 22.25 22.1815 21.539 22.1815 20.6217H21.6815C21.6815 21.2244 21.1414 21.75 20.4334 21.75V22.25ZM4.49818 22.25H20.4334V21.75H4.49818V22.25ZM2.75 20.6217C2.75 21.539 3.55405 22.25 4.49818 22.25V21.75C3.79013 21.75 3.25 21.2244 3.25 20.6217H2.75ZM2.75 7.95112V20.6217H3.25V7.95112H2.75ZM2.8353 7.51268C2.78039 7.64891 2.75 7.7968 2.75 7.95112H3.25C3.25 7.86302 3.26725 7.77847 3.29904 7.69963L2.8353 7.51268ZM2.91698 7.33621C2.87623 7.40128 2.84762 7.46823 2.82779 7.53407L3.30655 7.67824C3.315 7.65017 3.32622 7.62478 3.34075 7.60157L2.91698 7.33621ZM5.99065 2.43043L2.91701 7.33615L3.34072 7.60162L6.41435 2.6959L5.99065 2.43043ZM7.26195 1.75C6.74652 1.75 6.25739 2.0047 5.99065 2.43043L6.41435 2.6959C6.58291 2.42687 6.9056 2.25 7.26195 2.25V1.75ZM17.6703 1.75H7.26195V2.25H17.6703V1.75ZM18.9405 2.42872C18.6736 2.00408 18.1848 1.75 17.6703 1.75V2.25C18.026 2.25 18.3485 2.42647 18.5171 2.6948L18.9405 2.42872ZM21.9647 7.23899L18.9404 2.4287L18.5171 2.69482L21.5414 7.50512L21.9647 7.23899ZM22.0513 7.37809C22.0228 7.32368 21.9901 7.27192 21.9539 7.22311L21.5523 7.521C21.5736 7.54968 21.5923 7.57949 21.6084 7.61016L22.0513 7.37809ZM13.1248 3.42231H17.6406V2.92231H13.1248V3.42231ZM13.3748 6.95643V3.17231H12.8748V6.95643H13.3748ZM20.0198 6.70643H13.1248V7.20643H20.0198V6.70643ZM17.429 3.30537L19.8081 7.08949L20.2314 6.82336L17.8523 3.03924L17.429 3.30537ZM7.29163 3.42231H11.8505V2.92231H7.29163V3.42231ZM5.13259 7.08916L7.50348 3.30504L7.07977 3.03958L4.70888 6.82369L5.13259 7.08916ZM11.8505 6.70643H4.92074V7.20643H11.8505V6.70643ZM11.6005 3.17231V6.95643H12.1005V3.17231H11.6005ZM20.4073 20.6217C20.4073 20.6022 20.4164 20.5889 20.4224 20.5834C20.4281 20.5781 20.4325 20.5777 20.4335 20.5777V21.0777C20.675 21.0777 20.9073 20.8925 20.9073 20.6217H20.4073ZM20.4073 8.12874V20.6217H20.9073V8.12874H20.4073ZM4.27429 8.37874H20.6573V7.87874H4.27429V8.37874ZM4.52429 20.6217V8.12874H4.02429V20.6217H4.52429ZM4.49822 20.5777C4.49912 20.5777 4.50357 20.5781 4.50922 20.5833C4.51519 20.5888 4.52429 20.6021 4.52429 20.6217H4.02429C4.02429 20.8926 4.25671 21.0777 4.49822 21.0777V20.5777ZM20.4335 20.5777H4.49822V21.0777H20.4335V20.5777ZM17.8019 11.3904H7.1296V11.8904H17.8019V11.3904ZM18.689 12.2266C18.6891 11.7456 18.2718 11.3904 17.8019 11.3904V11.8904C18.0357 11.8904 18.189 12.0601 18.189 12.2265L18.689 12.2266ZM17.8019 13.0627C18.2718 13.0627 18.689 12.7075 18.689 12.2265H18.189C18.189 12.3929 18.0357 12.5627 17.8019 12.5627V13.0627ZM7.1296 13.0627H17.8019V12.5627H7.1296V13.0627ZM6.24249 12.2265C6.24249 12.7075 6.6597 13.0627 7.1296 13.0627V12.5627C6.89577 12.5627 6.74249 12.3929 6.74249 12.2265H6.24249ZM7.1296 11.3904C6.6597 11.3904 6.24249 11.7455 6.24249 12.2265H6.74249C6.74249 12.0601 6.89577 11.8904 7.1296 11.8904V11.3904ZM8.82861 16.5403H16.1029V16.0403H8.82861V16.5403ZM8.4415 16.8765C8.4415 16.71 8.59478 16.5403 8.82861 16.5403V16.0403C8.35871 16.0403 7.9415 16.3955 7.9415 16.8765H8.4415ZM8.82861 17.2126C8.59478 17.2126 8.4415 17.0429 8.4415 16.8765H7.9415C7.9415 17.3575 8.35871 17.7126 8.82861 17.7126V17.2126ZM16.1029 17.2126H8.82861V17.7126H16.1029V17.2126ZM16.49 16.8765C16.49 17.0429 16.3367 17.2126 16.1029 17.2126V17.7126C16.5728 17.7126 16.99 17.3575 16.99 16.8765H16.49ZM16.1029 16.5403C16.3367 16.5403 16.49 16.71 16.49 16.8765H16.99C16.99 16.3955 16.5728 16.0403 16.1029 16.0403V16.5403ZM14.6762 13.6421H10.2552V14.1421H14.6762V13.6421ZM15.5633 14.4782C15.5634 13.9972 15.1461 13.6421 14.6762 13.6421V14.1421C14.9101 14.1421 15.0634 14.3118 15.0633 14.4782L15.5633 14.4782ZM14.6762 15.3143C15.1461 15.3143 15.5633 14.9592 15.5633 14.4782H15.0633C15.0633 14.6446 14.9101 14.8143 14.6762 14.8143V15.3143ZM10.2552 15.3143H14.6762V14.8143H10.2552V15.3143ZM9.36813 14.4782C9.36813 14.9592 9.78534 15.3143 10.2552 15.3143V14.8143C10.0214 14.8143 9.86813 14.6446 9.86813 14.4782H9.36813ZM10.2552 13.6421C9.78534 13.6421 9.36813 13.9972 9.36813 14.4782H9.86813C9.86813 14.3118 10.0214 14.1421 10.2552 14.1421V13.6421Z"
          fill="#A3A8AF"/>
</svg>
