<svg viewBox="0 0 24 24" fill="none" xmlns="http://www.w3.org/2000/svg">
    <path d="M11.5737 2.01849L7.0594 2.03715C6.47422 2.03715 5.92649 2.36851 5.64783 2.88997L3.28882 7.24914L11.1191 7.23048L11.5737 2.01849Z"
          fill="#A3A8AF"/>
    <path d="M21.2907 7.21199L18.9039 2.85282C18.6156 2.33136 18.0775 2 17.4827 2L12.9685 2.01866L13.4422 7.23064L21.2907 7.21199Z"
          fill="#A3A8AF"/>
    <path d="M21.5837 10.2102L21.5889 8.6733H21.5776V8.62622L12.9854 8.65465H11.6035L3.01132 8.62622V8.6733L3 8.67241L3.00522 10.2093L3 11.6662C3.00348 11.6644 3.00697 11.6635 3.01045 11.6626L3.03744 19.5042C3.03744 20.3286 3.69751 21.001 4.49603 21.001C4.49603 21.001 4.49603 21.001 4.50561 21.001L12.294 20.9797L20.0824 21.001C20.092 21.001 20.092 21.001 20.092 21.001C20.8905 21.001 21.5506 20.3286 21.5506 19.5042L21.5776 11.6626C21.5811 11.6644 21.5845 11.6653 21.588 11.6662L21.5837 10.2102Z"
          fill="#A3A8AF"/>
</svg>
