<svg viewBox="0 0 24 24" fill="none" xmlns="http://www.w3.org/2000/svg">
    <path fill-rule="evenodd" clip-rule="evenodd"
          d="M7.98213 2H16.0179C19.3164 2 22 4.57626 22 7.74289V15.4572C22 18.6238 19.3164 21.2001 16.0179 21.2001H7.98213C4.6836 21.2001 2 18.6238 2 15.4572V7.74289C2 4.57626 4.6836 2 7.98213 2ZM7.98213 20.0755H16.0179C18.6705 20.0755 20.8286 18.0037 20.8286 15.4572H20.8285V7.74289C20.8285 5.1964 18.6705 3.12463 16.0179 3.12463H7.98213C5.32954 3.12463 3.17145 5.1964 3.17145 7.74289V15.4572C3.17145 18.0037 5.32954 20.0755 7.98213 20.0755ZM7.19127 15.355H16.8073C17.6964 15.355 18.4198 16.0495 18.4198 16.9031C18.4198 17.7567 17.6965 18.4511 16.8073 18.4511H7.19127C6.30209 18.4511 5.57873 17.7567 5.57873 16.9031C5.57873 16.0495 6.30209 15.355 7.19127 15.355ZM7.19127 17.3265H16.8073C17.0505 17.3265 17.2483 17.1366 17.2483 16.9032C17.2483 16.6697 17.0505 16.4797 16.8073 16.4797H7.19127C6.94803 16.4797 6.75022 16.6697 6.75022 16.9032C6.75022 17.1366 6.94803 17.3265 7.19127 17.3265ZM11.0062 7.22L9.44398 5.26444C9.34066 5.13506 9.19011 5.06141 9.03339 5.04739L9.0303 5.04712C9.0148 5.04581 8.99929 5.04499 8.9837 5.04487L8.97863 5.04462L8.97249 5.04435L8.96804 5.04456L8.96402 5.04476C8.7914 5.04536 8.62069 5.11845 8.50562 5.25878L6.90151 7.21437C6.70135 7.45831 6.7451 7.81186 6.99928 8.00397C7.10666 8.08516 7.2344 8.12454 7.36131 8.12454C7.53467 8.12454 7.70632 8.051 7.82186 7.91011L8.38683 7.22138V13.5669C8.38683 13.8774 8.64909 14.1292 8.97257 14.1292C9.29605 14.1292 9.55832 13.8774 9.55832 13.5669V7.25547L10.0767 7.90437C10.192 8.04875 10.366 8.12454 10.5419 8.12454C10.6663 8.12454 10.7917 8.08663 10.8979 8.0084C11.1546 7.8194 11.2031 7.46641 11.0062 7.22ZM15.462 5.26444L17.0243 7.22C17.2212 7.46641 17.1727 7.8194 16.916 8.0084C16.8097 8.08663 16.6843 8.12454 16.5599 8.12454C16.384 8.12454 16.2101 8.04875 16.0947 7.90437L15.5763 7.25547V13.5669C15.5763 13.8774 15.3141 14.1292 14.9906 14.1292C14.6671 14.1292 14.4048 13.8774 14.4048 13.5669V7.22135L13.8398 7.91007C13.7243 8.05096 13.5526 8.1245 13.3793 8.1245C13.2524 8.1245 13.1246 8.08516 13.0173 8.00394C12.7631 7.81179 12.7193 7.45827 12.9195 7.2143L14.5237 5.25874C14.6388 5.11841 14.8095 5.04536 14.9822 5.04476C14.9835 5.04474 14.9848 5.04465 14.9861 5.04456C14.9876 5.04445 14.9891 5.04435 14.9906 5.04435C14.9926 5.04435 14.9946 5.04448 14.9966 5.04462C14.9983 5.04473 15 5.04484 15.0017 5.04487C15.0173 5.04499 15.0328 5.04581 15.0483 5.04712L15.0515 5.04739C15.2082 5.06141 15.3587 5.13506 15.462 5.26444Z"
          fill="#A3A8AF"/>
    <path d="M22 7.74289L21.75 7.74288V7.74289H22ZM20.8286 15.4572L21.0786 15.4572L21.0785 15.2072H20.8286V15.4572ZM20.8285 15.4572H20.5785V15.7072H20.8285V15.4572ZM9.44398 5.26444L9.24863 5.42045L9.24865 5.42048L9.44398 5.26444ZM11.0062 7.22L10.8109 7.37604L10.8109 7.37607L11.0062 7.22ZM9.03339 5.04739L9.05568 4.79838L9.05458 4.79829L9.03339 5.04739ZM9.0303 5.04712L9.05149 4.79802L9.05139 4.79801L9.0303 5.04712ZM8.9837 5.04487L8.97107 5.29479L8.9819 5.29487L8.9837 5.04487ZM8.97863 5.04462L8.99126 4.79493L8.98955 4.79486L8.97863 5.04462ZM8.97249 5.04435L8.98342 4.79459L8.97214 4.79409L8.96087 4.79462L8.97249 5.04435ZM8.96804 5.04456L8.95641 4.79482L8.9553 4.79488L8.96804 5.04456ZM8.96402 5.04476L8.96489 5.29504L8.97675 5.29444L8.96402 5.04476ZM8.50562 5.25878L8.69891 5.41733L8.69892 5.4173L8.50562 5.25878ZM6.90151 7.21437L7.09477 7.37295L7.0948 7.37292L6.90151 7.21437ZM6.99928 8.00397L7.15005 7.80456L7.15002 7.80453L6.99928 8.00397ZM7.82186 7.91011L7.62857 7.75156L7.62856 7.75158L7.82186 7.91011ZM8.38683 7.22138H8.63683V6.52243L8.19354 7.06283L8.38683 7.22138ZM9.55832 7.25547L9.75364 7.09943L9.30832 6.542V7.25547H9.55832ZM10.0767 7.90437L10.2721 7.74836L10.272 7.74833L10.0767 7.90437ZM10.8979 8.0084L11.0462 8.20972L11.0462 8.20971L10.8979 8.0084ZM17.0243 7.22L16.829 7.37604L16.829 7.37605L17.0243 7.22ZM15.462 5.26444L15.2667 5.42045L15.2667 5.42048L15.462 5.26444ZM16.916 8.0084L16.7677 7.80708L16.7677 7.80708L16.916 8.0084ZM16.0947 7.90437L16.2901 7.74836L16.2901 7.74833L16.0947 7.90437ZM15.5763 7.25547L15.7717 7.09943L15.3263 6.542V7.25547H15.5763ZM14.4048 7.22135H14.6548V6.52243L14.2116 7.06279L14.4048 7.22135ZM13.8398 7.91007L13.6466 7.75151L13.6465 7.75154L13.8398 7.91007ZM13.0173 8.00394L13.1681 7.80455L13.168 7.80452L13.0173 8.00394ZM12.9195 7.2143L13.1128 7.37286L13.1128 7.37285L12.9195 7.2143ZM14.5237 5.25874L14.717 5.41729L14.717 5.41727L14.5237 5.25874ZM14.9822 5.04476L14.983 5.29477L14.9854 5.29474L14.9822 5.04476ZM14.9861 5.04456L14.9684 4.79519L14.9684 4.79519L14.9861 5.04456ZM14.9966 5.04462L15.0132 4.79516L15.0131 4.79516L14.9966 5.04462ZM15.0017 5.04487L14.9967 5.29484L14.9999 5.29487L15.0017 5.04487ZM15.0483 5.04712L15.0272 5.29623L15.0277 5.29627L15.0483 5.04712ZM15.0515 5.04739L15.0738 4.79838L15.0722 4.79824L15.0515 5.04739ZM16.0179 1.75H7.98213V2.25H16.0179V1.75ZM22.25 7.74289C22.25 4.42867 19.4448 1.75 16.0179 1.75V2.25C19.1881 2.25 21.75 4.72385 21.75 7.74288L22.25 7.74289ZM22.25 15.4572V7.74289H21.75V15.4572H22.25ZM16.0179 21.4501C19.4448 21.4501 22.25 18.7714 22.25 15.4572H21.75C21.75 18.4762 19.1881 20.9501 16.0179 20.9501V21.4501ZM7.98213 21.4501H16.0179V20.9501H7.98213V21.4501ZM1.75 15.4572C1.75 18.7714 4.55525 21.4501 7.98213 21.4501V20.9501C4.81196 20.9501 2.25 18.4762 2.25 15.4572H1.75ZM1.75 7.74289V15.4572H2.25V7.74289H1.75ZM7.98213 1.75C4.55525 1.75 1.75 4.42867 1.75 7.74289H2.25C2.25 4.72385 4.81196 2.25 7.98213 2.25V1.75ZM16.0179 19.8255H7.98213V20.3255H16.0179V19.8255ZM20.5786 15.4572C20.5786 17.8561 18.5421 19.8255 16.0179 19.8255V20.3255C18.7988 20.3255 21.0786 18.1513 21.0786 15.4572L20.5786 15.4572ZM20.8285 15.7072H20.8286V15.2072H20.8285V15.7072ZM20.5785 7.74289V15.4572H21.0785V7.74289H20.5785ZM16.0179 3.37463C18.5421 3.37463 20.5785 5.34399 20.5785 7.74289H21.0785C21.0785 5.04881 18.7988 2.87463 16.0179 2.87463V3.37463ZM7.98213 3.37463H16.0179V2.87463H7.98213V3.37463ZM3.42145 7.74289C3.42145 5.34399 5.4579 3.37463 7.98213 3.37463V2.87463C5.20119 2.87463 2.92145 5.04881 2.92145 7.74289H3.42145ZM3.42145 15.4572V7.74289H2.92145V15.4572H3.42145ZM7.98213 19.8255C5.4579 19.8255 3.42145 17.8561 3.42145 15.4572H2.92145C2.92145 18.1513 5.20119 20.3255 7.98213 20.3255V19.8255ZM16.8073 15.105H7.19127V15.605H16.8073V15.105ZM18.6698 16.9031C18.6698 15.9019 17.8248 15.105 16.8073 15.105V15.605C17.5681 15.605 18.1698 16.1971 18.1698 16.9031H18.6698ZM16.8073 18.7011C17.8248 18.7011 18.6698 17.9043 18.6698 16.9031H18.1698C18.1698 17.6091 17.5681 18.2011 16.8073 18.2011V18.7011ZM7.19127 18.7011H16.8073V18.2011H7.19127V18.7011ZM5.32873 16.9031C5.32873 17.9043 6.17374 18.7011 7.19127 18.7011V18.2011C6.43044 18.2011 5.82873 17.6091 5.82873 16.9031H5.32873ZM7.19127 15.105C6.17373 15.105 5.32873 15.9019 5.32873 16.9031H5.82873C5.82873 16.1971 6.43045 15.605 7.19127 15.605V15.105ZM16.8073 17.0765H7.19127V17.5765H16.8073V17.0765ZM16.9983 16.9032C16.9983 16.989 16.9221 17.0765 16.8073 17.0765V17.5765C17.1789 17.5765 17.4983 17.2841 17.4983 16.9032H16.9983ZM16.8073 16.7297C16.9222 16.7297 16.9983 16.8172 16.9983 16.9032H17.4983C17.4983 16.5221 17.1789 16.2297 16.8073 16.2297V16.7297ZM7.19127 16.7297H16.8073V16.2297H7.19127V16.7297ZM7.00022 16.9032C7.00022 16.8173 7.0764 16.7297 7.19127 16.7297V16.2297C6.81966 16.2297 6.50022 16.5221 6.50022 16.9032H7.00022ZM7.19127 17.0765C7.07638 17.0765 7.00022 16.989 7.00022 16.9032H6.50022C6.50022 17.2842 6.81967 17.5765 7.19127 17.5765V17.0765ZM9.24865 5.42048L10.8109 7.37604L11.2015 7.06396L9.6393 5.1084L9.24865 5.42048ZM9.01111 5.29639C9.10541 5.30483 9.19124 5.34859 9.24863 5.42045L9.63933 5.10843C9.49008 4.92154 9.27481 4.81799 9.05568 4.79838L9.01111 5.29639ZM9.00912 5.29622L9.0122 5.29649L9.05458 4.79829L9.05149 4.79802L9.00912 5.29622ZM8.9819 5.29487C8.98989 5.29493 8.99886 5.29536 9.00922 5.29623L9.05139 4.79801C9.03074 4.79627 9.00869 4.79505 8.98551 4.79488L8.9819 5.29487ZM8.966 5.2943L8.97108 5.29456L8.99633 4.79519L8.99126 4.79494L8.966 5.2943ZM8.96157 5.29411L8.96771 5.29438L8.98955 4.79486L8.98342 4.79459L8.96157 5.29411ZM8.97966 5.29429L8.98412 5.29408L8.96087 4.79462L8.95641 4.79483L8.97966 5.29429ZM8.97675 5.29444L8.98077 5.29423L8.9553 4.79488L8.95128 4.79509L8.97675 5.29444ZM8.69892 5.4173C8.76313 5.33901 8.86102 5.29512 8.96489 5.29476L8.96315 4.79476C8.72178 4.7956 8.47825 4.89789 8.31231 5.10025L8.69892 5.4173ZM7.0948 7.37292L8.69891 5.41733L8.31232 5.10022L6.70822 7.05582L7.0948 7.37292ZM7.15002 7.80453C7.00721 7.69659 6.98619 7.50529 7.09477 7.37295L6.70824 7.05579C6.41651 7.41133 6.48299 7.92713 6.84854 8.20342L7.15002 7.80453ZM7.36131 7.87454C7.28596 7.87454 7.2118 7.85124 7.15005 7.80456L6.84851 8.20339C7.00153 8.31909 7.18284 8.37454 7.36131 8.37454V7.87454ZM7.62856 7.75158C7.56384 7.83049 7.46523 7.87454 7.36131 7.87454V8.37454C7.60411 8.37454 7.84879 8.27151 8.01517 8.06865L7.62856 7.75158ZM8.19354 7.06283L7.62857 7.75156L8.01515 8.06867L8.58011 7.37994L8.19354 7.06283ZM8.63683 13.5669V7.22138H8.13683V13.5669H8.63683ZM8.97257 13.8792C8.77745 13.8792 8.63683 13.7298 8.63683 13.5669H8.13683C8.13683 14.025 8.52074 14.3792 8.97257 14.3792V13.8792ZM9.30832 13.5669C9.30832 13.7298 9.16769 13.8792 8.97257 13.8792V14.3792C9.4244 14.3792 9.80832 14.025 9.80832 13.5669H9.30832ZM9.30832 7.25547V13.5669H9.80832V7.25547H9.30832ZM10.272 7.74833L9.75364 7.09943L9.36299 7.41151L9.88139 8.06042L10.272 7.74833ZM10.5419 7.87454C10.4365 7.87454 10.3366 7.82912 10.2721 7.74836L9.88137 8.06039C10.0475 8.26838 10.2956 8.37454 10.5419 8.37454V7.87454ZM10.7497 7.80708C10.6885 7.85212 10.6157 7.87454 10.5419 7.87454V8.37454C10.7169 8.37454 10.8948 8.32113 11.0462 8.20972L10.7497 7.80708ZM10.8109 7.37607C10.9175 7.5095 10.8942 7.70066 10.7497 7.80709L11.0462 8.20971C11.415 7.93814 11.4887 7.42332 11.2015 7.06393L10.8109 7.37607ZM17.2196 7.06396L15.6574 5.1084L15.2667 5.42048L16.829 7.37604L17.2196 7.06396ZM17.0642 8.20972C17.4331 7.93814 17.5067 7.42331 17.2196 7.06395L16.829 7.37605C16.9356 7.50951 16.9123 7.70066 16.7677 7.80708L17.0642 8.20972ZM16.5599 8.37454C16.7349 8.37454 16.9129 8.32113 17.0642 8.20972L16.7677 7.80708C16.7066 7.85212 16.6337 7.87454 16.5599 7.87454V8.37454ZM15.8994 8.06039C16.0655 8.26838 16.3136 8.37454 16.5599 8.37454V7.87454C16.4545 7.87454 16.3546 7.82912 16.2901 7.74836L15.8994 8.06039ZM15.381 7.41151L15.8994 8.06042L16.2901 7.74833L15.7717 7.09943L15.381 7.41151ZM15.8263 13.5669V7.25547H15.3263V13.5669H15.8263ZM14.9906 14.3792C15.4424 14.3792 15.8263 14.025 15.8263 13.5669H15.3263C15.3263 13.7298 15.1857 13.8792 14.9906 13.8792V14.3792ZM14.1548 13.5669C14.1548 14.025 14.5388 14.3792 14.9906 14.3792V13.8792C14.7955 13.8792 14.6548 13.7298 14.6548 13.5669H14.1548ZM14.1548 7.22135V13.5669H14.6548V7.22135H14.1548ZM14.0331 8.06864L14.5981 7.37991L14.2116 7.06279L13.6466 7.75151L14.0331 8.06864ZM13.3793 8.3745C13.622 8.3745 13.8668 8.27149 14.0332 8.06861L13.6465 7.75154C13.5818 7.83044 13.4832 7.8745 13.3793 7.8745V8.3745ZM12.8664 8.20332C13.0195 8.31911 13.2009 8.3745 13.3793 8.3745V7.8745C13.3039 7.8745 13.2298 7.85121 13.1681 7.80455L12.8664 8.20332ZM12.7262 7.05573C12.4345 7.41132 12.501 7.92705 12.8665 8.20335L13.168 7.80452C13.0252 7.69652 13.0042 7.50522 13.1128 7.37286L12.7262 7.05573ZM14.3304 5.10018L12.7262 7.05574L13.1128 7.37285L14.717 5.41729L14.3304 5.10018ZM14.9813 4.79476C14.7399 4.7956 14.4964 4.89781 14.3304 5.10021L14.717 5.41727C14.7812 5.33902 14.8791 5.29512 14.983 5.29476L14.9813 4.79476ZM14.9684 4.79519C14.9674 4.79526 14.9686 4.79517 14.9701 4.79508C14.9718 4.79499 14.9749 4.79483 14.9789 4.79478L14.9854 5.29474C14.9952 5.29461 15.0036 5.29394 15.0039 5.29393L14.9684 4.79519ZM14.9906 4.79435C14.9787 4.79435 14.9685 4.79518 14.9684 4.79519L15.0039 5.29393C15.005 5.29385 15.0035 5.29396 15.0016 5.29406C14.9994 5.29418 14.9955 5.29435 14.9906 5.29435V4.79435ZM15.0131 4.79516C15.0124 4.79511 15.0022 4.79435 14.9906 4.79435V5.29435C14.9862 5.29435 14.9829 5.29421 14.9813 5.29413C14.9799 5.29406 14.9788 5.29398 14.9801 5.29407L15.0131 4.79516ZM15.0067 4.79492C15.0096 4.79498 15.0118 4.79509 15.0128 4.79515C15.0136 4.79519 15.0142 4.79523 15.0132 4.79516L14.9801 5.29407C14.9809 5.29412 14.9883 5.29466 14.9967 5.29482L15.0067 4.79492ZM15.0694 4.79801C15.0488 4.79627 15.0267 4.79505 15.0035 4.79488L14.9999 5.29487C15.0079 5.29493 15.0169 5.29536 15.0272 5.29623L15.0694 4.79801ZM15.0722 4.79824L15.069 4.79798L15.0277 5.29627L15.0308 5.29653L15.0722 4.79824ZM15.6574 5.10843C15.5081 4.92154 15.2929 4.818 15.0738 4.79838L15.0292 5.29639C15.1235 5.30483 15.2093 5.34858 15.2667 5.42045L15.6574 5.10843Z"
          fill="#A3A8AF"/>
</svg>
