<svg viewBox="0 0 24 24" fill="none" xmlns="http://www.w3.org/2000/svg">
    <path fill-rule="evenodd" clip-rule="evenodd"
          d="M17.3175 13.5873V7.17296C17.3175 6.99194 17.27 6.8223 17.1875 6.67663L17.1864 6.67448L14.913 2.52035C14.7348 2.19941 14.403 2 14.0471 2H6.27086C5.91434 2 5.58221 2.19988 5.40416 2.52164L3.16204 6.65921C3.05974 6.82144 3 7.01534 3 7.22355V17.6508C3 18.4494 3.62374 19.0991 4.39039 19.0991H12.0174C12.585 20.7865 14.1291 22 15.9403 22C18.2317 22 20.0959 20.0582 20.0959 17.6713C20.0958 15.7871 18.934 14.1805 17.3175 13.5873ZM10.7378 3.1725H13.9743L15.6271 6.19269H10.7378V3.1725ZM6.34398 3.1725H9.61225V6.19269H4.70733L6.34398 3.1725ZM11.7922 17.9266H4.39035V17.9266C4.24436 17.9266 4.12556 17.8029 4.12556 17.6508V7.36519H16.1919V13.3508C16.1087 13.3456 16.0248 13.3426 15.9403 13.3426C13.6489 13.3426 11.7847 15.2844 11.7847 17.6713C11.7848 17.757 11.7874 17.8421 11.7922 17.9266ZM15.9403 20.8275C14.2696 20.8275 12.9104 19.4116 12.9104 17.6713C12.9104 15.9309 14.2696 14.5151 15.9403 14.5151C17.6111 14.5151 18.9703 15.9309 18.9703 17.6713C18.9703 19.4116 17.611 20.8275 15.9403 20.8275ZM15.9403 17.046C15.6295 17.046 15.3775 17.3085 15.3775 17.6322V19.3223C15.3775 19.6461 15.6295 19.9086 15.9403 19.9086C16.2511 19.9086 16.5031 19.6461 16.5031 19.3223V17.6322C16.5031 17.3084 16.2511 17.046 15.9403 17.046ZM16.4919 15.9232C16.4956 15.9419 16.4982 15.9611 16.5001 15.9803C16.502 15.9994 16.5031 16.019 16.5031 16.0381C16.5031 16.0572 16.502 16.0764 16.5001 16.0956C16.4982 16.1147 16.4956 16.1339 16.4919 16.1526C16.4885 16.171 16.484 16.1898 16.4784 16.2081C16.4731 16.2265 16.4667 16.2445 16.46 16.2621C16.4529 16.2797 16.445 16.2973 16.4364 16.3141C16.4277 16.3309 16.4184 16.3478 16.4082 16.3633C16.3981 16.3794 16.3869 16.395 16.3752 16.4099C16.3636 16.4247 16.3512 16.4392 16.3381 16.4525C16.3253 16.4662 16.3115 16.479 16.2972 16.4912C16.2829 16.5033 16.2679 16.515 16.2525 16.5256C16.2375 16.5361 16.2214 16.5459 16.2053 16.5549C16.1891 16.5639 16.1726 16.5721 16.1557 16.5795C16.1388 16.5865 16.1212 16.5931 16.1036 16.5986C16.0863 16.604 16.0683 16.6091 16.0503 16.6126C16.0323 16.6166 16.0139 16.6193 15.9955 16.6213C15.9771 16.6232 15.9587 16.624 15.9403 16.624C15.9219 16.624 15.9032 16.6232 15.8848 16.6213C15.8668 16.6193 15.8484 16.6166 15.8304 16.6126C15.8124 16.6092 15.7943 16.6041 15.7767 16.5986C15.7595 16.5931 15.7418 16.5865 15.7249 16.5795C15.708 16.572 15.6911 16.5638 15.675 16.5549C15.6588 16.5459 15.6431 16.5361 15.6277 16.5256C15.6123 16.515 15.5973 16.5033 15.5834 16.4912C15.5691 16.479 15.5553 16.4662 15.5421 16.4525C15.529 16.4392 15.5166 16.4247 15.505 16.4099C15.4934 16.395 15.4825 16.3794 15.4724 16.3633C15.4623 16.3477 15.4525 16.3309 15.4439 16.3141C15.4353 16.2972 15.4274 16.2797 15.4206 16.2621C15.4135 16.2445 15.4071 16.2265 15.4019 16.2081C15.3966 16.1898 15.3921 16.171 15.3884 16.1526C15.3846 16.1338 15.382 16.1147 15.3801 16.0956C15.3783 16.0764 15.3775 16.0572 15.3775 16.0381C15.3775 16.0189 15.3783 15.9994 15.3801 15.9803C15.382 15.9611 15.3846 15.9419 15.3884 15.9232C15.3921 15.9048 15.3966 15.886 15.4019 15.8677C15.4071 15.8493 15.4135 15.8313 15.4206 15.8137C15.4274 15.7961 15.4353 15.7785 15.4439 15.7617C15.4525 15.7449 15.4623 15.7285 15.4724 15.7125C15.4825 15.6964 15.4934 15.6808 15.505 15.6663C15.5166 15.651 15.529 15.637 15.5421 15.6233C15.5553 15.6096 15.5692 15.5967 15.5834 15.5846C15.5973 15.5725 15.6123 15.5611 15.6277 15.5502C15.6431 15.5396 15.6589 15.5299 15.675 15.5209C15.6912 15.5119 15.708 15.5037 15.7249 15.4967C15.7418 15.4893 15.7595 15.4826 15.7767 15.4772C15.7943 15.4717 15.8124 15.467 15.8304 15.4631C15.8484 15.4592 15.8668 15.4565 15.8848 15.4545C15.9216 15.4506 15.9591 15.4506 15.9955 15.4545C16.0139 15.4565 16.0323 15.4592 16.0503 15.4631C16.0683 15.467 16.0863 15.4717 16.1036 15.4772C16.1212 15.4826 16.1388 15.4893 16.1557 15.4967C16.1726 15.5037 16.1891 15.5119 16.2053 15.5209C16.2214 15.5299 16.2375 15.5396 16.2525 15.5502C16.268 15.5611 16.283 15.5725 16.2972 15.5846C16.3115 15.5967 16.3254 15.6096 16.3381 15.6233C16.3512 15.637 16.3636 15.6511 16.3752 15.6663C16.3869 15.6808 16.3981 15.6965 16.4082 15.7125C16.4184 15.7285 16.4277 15.7449 16.4364 15.7617C16.445 15.7785 16.4529 15.7962 16.46 15.8137C16.4667 15.8313 16.4731 15.8493 16.4784 15.8677C16.484 15.886 16.4885 15.9048 16.4919 15.9232Z"
          fill="#A3A8AF"/>
    <path d="M17.3175 13.5873H17.0675V13.7618L17.2314 13.822L17.3175 13.5873ZM17.1875 6.67663L16.9629 6.78648L16.9662 6.79326L16.9699 6.79984L17.1875 6.67663ZM17.1864 6.67448L17.4112 6.56452L17.4057 6.55446L17.1864 6.67448ZM14.913 2.52035L15.1323 2.40033L15.1316 2.39899L14.913 2.52035ZM5.40416 2.52164L5.18541 2.40059L5.18436 2.40253L5.40416 2.52164ZM3.16204 6.65921L3.3735 6.79256L3.37791 6.78558L3.38184 6.77832L3.16204 6.65921ZM12.0174 19.0991L12.2543 19.0194L12.197 18.8491H12.0174V19.0991ZM20.0959 17.6713H20.3459V17.6713L20.0959 17.6713ZM13.9743 3.1725L14.1936 3.05248L14.1225 2.9225H13.9743V3.1725ZM10.7378 3.1725V2.9225H10.4878V3.1725H10.7378ZM15.6271 6.19269V6.44269H16.0489L15.8464 6.07267L15.6271 6.19269ZM10.7378 6.19269H10.4878V6.44269H10.7378V6.19269ZM9.61225 3.1725H9.86225V2.9225H9.61225V3.1725ZM6.34398 3.1725V2.9225H6.19511L6.12418 3.05339L6.34398 3.1725ZM9.61225 6.19269V6.44269H9.86225V6.19269H9.61225ZM4.70733 6.19269L4.48753 6.07358L4.28751 6.44269H4.70733V6.19269ZM4.39035 17.9266V17.6766H4.14035V17.9266H4.39035ZM11.7922 17.9266V18.1766H12.0567L12.0418 17.9125L11.7922 17.9266ZM4.39035 17.9266V18.1766H4.64035V17.9266H4.39035ZM4.12556 7.36519V7.11519H3.87556V7.36519H4.12556ZM16.1919 7.36519H16.4419V7.11519H16.1919V7.36519ZM16.1919 13.3508L16.1763 13.6003L16.4419 13.6168V13.3508H16.1919ZM11.7847 17.6713H11.5347V17.6714L11.7847 17.6713ZM16.5001 15.9803L16.7489 15.9559L16.7489 15.9559L16.5001 15.9803ZM16.4919 15.9232L16.246 15.9684L16.2467 15.9722L16.4919 15.9232ZM16.5001 16.0956L16.7489 16.1199V16.1199L16.5001 16.0956ZM16.4919 16.1526L16.2467 16.1036L16.246 16.1074L16.4919 16.1526ZM16.4784 16.2081L16.2393 16.1349L16.238 16.1395L16.4784 16.2081ZM16.46 16.2621L16.6918 16.3558L16.6934 16.3517L16.46 16.2621ZM16.4364 16.3141L16.214 16.1999L16.2139 16.2001L16.4364 16.3141ZM16.4082 16.3633L16.1986 16.2271L16.1968 16.23L16.4082 16.3633ZM16.3752 16.4099L16.1784 16.2557L16.1782 16.256L16.3752 16.4099ZM16.3381 16.4525L16.1602 16.2767L16.1555 16.2817L16.3381 16.4525ZM16.2972 16.4912L16.4588 16.6819L16.4594 16.6814L16.2972 16.4912ZM16.2525 16.5256L16.1108 16.3197L16.109 16.3209L16.2525 16.5256ZM16.2053 16.5549L16.0836 16.3365L16.0836 16.3365L16.2053 16.5549ZM16.1557 16.5795L16.2513 16.8106L16.2564 16.8083L16.1557 16.5795ZM16.1036 16.5986L16.029 16.36L16.0285 16.3602L16.1036 16.5986ZM16.0503 16.6126L16.0023 16.3672L15.9967 16.3684L16.0503 16.6126ZM15.9955 16.6213L16.0214 16.8699L16.0224 16.8698L15.9955 16.6213ZM15.8848 16.6213L15.8573 16.8698L15.8584 16.8699L15.8848 16.6213ZM15.8304 16.6126L15.8839 16.3684L15.8778 16.3672L15.8304 16.6126ZM15.7767 16.5986L15.7012 16.8369L15.7026 16.8374L15.7767 16.5986ZM15.7249 16.5795L15.624 16.8083L15.6288 16.8102L15.7249 16.5795ZM15.675 16.5549L15.5535 16.7734L15.5537 16.7735L15.675 16.5549ZM15.6277 16.5256L15.4862 16.7316L15.4863 16.7317L15.6277 16.5256ZM15.5834 16.4912L15.7478 16.3028L15.7454 16.3007L15.5834 16.4912ZM15.5421 16.4525L15.7225 16.2793L15.7202 16.277L15.5421 16.4525ZM15.505 16.4099L15.3082 16.564L15.3084 16.5643L15.505 16.4099ZM15.4724 16.3633L15.6837 16.2297L15.6824 16.2276L15.4724 16.3633ZM15.4206 16.2621L15.6541 16.1725L15.6524 16.1683L15.4206 16.2621ZM15.3884 16.1526L15.1432 16.2016L15.1435 16.2027L15.3884 16.1526ZM15.3801 16.0956L15.1313 16.1199V16.1199L15.3801 16.0956ZM15.3801 15.9803L15.629 16.0046V16.0046L15.3801 15.9803ZM15.3884 15.9232L15.1435 15.8732L15.1433 15.874L15.3884 15.9232ZM15.4019 15.8677L15.6423 15.9364L15.6423 15.9363L15.4019 15.8677ZM15.4206 15.8137L15.6524 15.9077L15.6541 15.9032L15.4206 15.8137ZM15.4439 15.7617L15.6663 15.8759L15.6665 15.8755L15.4439 15.7617ZM15.4724 15.7125L15.6836 15.8463L15.6839 15.8458L15.4724 15.7125ZM15.505 15.6663L15.6999 15.8231L15.704 15.8177L15.505 15.6663ZM15.5421 15.6233L15.3618 15.4502L15.3618 15.4502L15.5421 15.6233ZM15.5834 15.5846L15.7456 15.7748L15.7476 15.7732L15.5834 15.5846ZM15.6277 15.5502L15.4862 15.3441L15.4828 15.3465L15.6277 15.5502ZM15.675 15.5209L15.7963 15.7395L15.7965 15.7394L15.675 15.5209ZM15.7249 15.4967L15.8211 15.7275L15.8249 15.7258L15.7249 15.4967ZM15.7767 15.4772L15.7031 15.2382L15.7011 15.2389L15.7767 15.4772ZM15.8304 15.4631L15.7774 15.2188L15.7768 15.2189L15.8304 15.4631ZM15.8848 15.4545L15.8584 15.2059L15.8578 15.206L15.8848 15.4545ZM15.9955 15.4545L15.9688 15.7031L15.9691 15.7031L15.9955 15.4545ZM16.0503 15.4631L15.9973 15.7074L15.9974 15.7074L16.0503 15.4631ZM16.1036 15.4772L16.028 15.7155L16.0296 15.716L16.1036 15.4772ZM16.1557 15.4967L16.0555 15.7258L16.0597 15.7275L16.1557 15.4967ZM16.2053 15.5209L16.0836 15.7393L16.0842 15.7397L16.2053 15.5209ZM16.2525 15.5502L16.3972 15.3463L16.3967 15.346L16.2525 15.5502ZM16.2972 15.5846L16.4592 15.3941L16.4591 15.3941L16.2972 15.5846ZM16.3381 15.6233L16.155 15.7936L16.1575 15.7962L16.3381 15.6233ZM16.3752 15.6663L16.1764 15.818L16.1802 15.8227L16.3752 15.6663ZM16.4082 15.7125L16.1969 15.8461L16.1971 15.8463L16.4082 15.7125ZM16.4364 15.7617L16.2139 15.8757L16.214 15.8759L16.4364 15.7617ZM16.46 15.8137L16.6935 15.7243L16.6917 15.7198L16.46 15.8137ZM16.4784 15.8677L16.238 15.9364L16.2393 15.9409L16.4784 15.8677ZM17.0675 7.17296V13.5873H17.5675V7.17296H17.0675ZM16.9699 6.79984C17.0317 6.90881 17.0675 7.03614 17.0675 7.17296H17.5675C17.5675 6.94775 17.5083 6.73578 17.405 6.55343L16.9699 6.79984ZM16.9618 6.78433L16.9629 6.78648L17.412 6.56679L17.411 6.56464L16.9618 6.78433ZM14.6937 2.64037L16.9671 6.7945L17.4057 6.55446L15.1323 2.40033L14.6937 2.64037ZM14.0471 2.25C14.3087 2.25 14.5586 2.39706 14.6944 2.64171L15.1316 2.39899C14.911 2.00177 14.4973 1.75 14.0471 1.75V2.25ZM6.27086 2.25H14.0471V1.75H6.27086V2.25ZM5.6229 2.64268C5.75864 2.3974 6.00878 2.25 6.27086 2.25V1.75C5.81991 1.75 5.40578 2.00237 5.18542 2.4006L5.6229 2.64268ZM3.38184 6.77832L5.62396 2.64075L5.18436 2.40253L2.94224 6.5401L3.38184 6.77832ZM3.25 7.22355C3.25 7.06366 3.29577 6.91582 3.3735 6.79256L2.95057 6.52586C2.8237 6.72705 2.75 6.96703 2.75 7.22355H3.25ZM3.25 17.6508V7.22355H2.75V17.6508H3.25ZM4.39039 18.8491C3.77133 18.8491 3.25 18.3211 3.25 17.6508H2.75C2.75 18.5778 3.47614 19.3491 4.39039 19.3491V18.8491ZM12.0174 18.8491H4.39039V19.3491H12.0174V18.8491ZM15.9403 21.75C14.2453 21.75 12.7907 20.6138 12.2543 19.0194L11.7804 19.1789C12.3794 20.9593 14.0128 22.25 15.9403 22.25V21.75ZM19.8459 17.6713C19.8459 19.9298 18.0841 21.75 15.9403 21.75V22.25C18.3793 22.25 20.3459 20.1865 20.3459 17.6713H19.8459ZM17.2314 13.822C18.748 14.3785 19.8458 15.8903 19.8459 17.6713L20.3459 17.6713C20.3458 15.6838 19.1201 13.9825 17.4036 13.3526L17.2314 13.822ZM13.9743 2.9225H10.7378V3.4225H13.9743V2.9225ZM15.8464 6.07267L14.1936 3.05248L13.755 3.29252L15.4078 6.31271L15.8464 6.07267ZM10.7378 6.44269H15.6271V5.94269H10.7378V6.44269ZM10.4878 3.1725V6.19269H10.9878V3.1725H10.4878ZM9.61225 2.9225H6.34398V3.4225H9.61225V2.9225ZM9.86225 6.19269V3.1725H9.36225V6.19269H9.86225ZM4.70733 6.44269H9.61225V5.94269H4.70733V6.44269ZM6.12418 3.05339L4.48753 6.07358L4.92714 6.3118L6.56378 3.29161L6.12418 3.05339ZM4.39035 18.1766H11.7922V17.6766H4.39035V18.1766ZM4.64035 17.9266V17.9266H4.14035V17.9266H4.64035ZM3.87556 17.6508C3.87556 17.9312 4.09675 18.1766 4.39035 18.1766V17.6766C4.38999 17.6766 4.38762 17.6769 4.38356 17.6726C4.37935 17.6682 4.37556 17.6609 4.37556 17.6508H3.87556ZM3.87556 7.36519V17.6508H4.37556V7.36519H3.87556ZM16.1919 7.11519H4.12556V7.61519H16.1919V7.11519ZM16.4419 13.3508V7.36519H15.9419V13.3508H16.4419ZM15.9403 13.5926C16.019 13.5926 16.0976 13.5954 16.1763 13.6003L16.2075 13.1012C16.1197 13.0958 16.0307 13.0926 15.9403 13.0926V13.5926ZM12.0347 17.6713C12.0347 15.4128 13.7965 13.5926 15.9403 13.5926V13.0926C13.5013 13.0926 11.5347 15.1561 11.5347 17.6713H12.0347ZM12.0418 17.9125C12.0373 17.8322 12.0348 17.7518 12.0347 17.6712L11.5347 17.6714C11.5348 17.7622 11.5376 17.852 11.5426 17.9407L12.0418 17.9125ZM12.6604 17.6713C12.6604 19.54 14.122 21.0775 15.9403 21.0775V20.5775C14.4172 20.5775 13.1604 19.2833 13.1604 17.6713H12.6604ZM15.9403 14.2651C14.122 14.2651 12.6604 15.8026 12.6604 17.6713H13.1604C13.1604 16.0593 14.4172 14.7651 15.9403 14.7651V14.2651ZM19.2203 17.6713C19.2203 15.8026 17.7587 14.2651 15.9403 14.2651V14.7651C17.4635 14.7651 18.7203 16.0593 18.7203 17.6713H19.2203ZM15.9403 21.0775C17.7586 21.0775 19.2203 19.54 19.2203 17.6713H18.7203C18.7203 19.2833 17.4634 20.5775 15.9403 20.5775V21.0775ZM15.6275 17.6322C15.6275 17.4368 15.7771 17.296 15.9403 17.296V16.796C15.4819 16.796 15.1275 17.1801 15.1275 17.6322H15.6275ZM15.6275 19.3223V17.6322H15.1275V19.3223H15.6275ZM15.9403 19.6586C15.7771 19.6586 15.6275 19.5177 15.6275 19.3223H15.1275C15.1275 19.7744 15.4819 20.1586 15.9403 20.1586V19.6586ZM16.2531 19.3223C16.2531 19.5177 16.1035 19.6586 15.9403 19.6586V20.1586C16.3987 20.1586 16.7531 19.7744 16.7531 19.3223H16.2531ZM16.2531 17.6322V19.3223H16.7531V17.6322H16.2531ZM15.9403 17.296C16.1036 17.296 16.2531 17.4368 16.2531 17.6322H16.7531C16.7531 17.18 16.3987 16.796 15.9403 16.796V17.296ZM16.7489 15.9559C16.7464 15.9305 16.7428 15.9029 16.737 15.8742L16.2467 15.9722C16.2485 15.981 16.25 15.9917 16.2513 16.0046L16.7489 15.9559ZM16.7531 16.0381C16.7531 16.0094 16.7514 15.9816 16.7489 15.9559L16.2513 16.0046C16.2525 16.0173 16.2531 16.0285 16.2531 16.0381H16.7531ZM16.7489 16.1199C16.7514 16.0944 16.7531 16.0669 16.7531 16.0381H16.2531C16.2531 16.0476 16.2526 16.0584 16.2513 16.0712L16.7489 16.1199ZM16.737 16.2017C16.7428 16.173 16.7464 16.1453 16.7489 16.1199L16.2513 16.0712C16.25 16.0841 16.2485 16.0948 16.2467 16.1036L16.737 16.2017ZM16.7174 16.2814C16.726 16.2532 16.7327 16.225 16.7378 16.1978L16.246 16.1074C16.2442 16.1169 16.242 16.1263 16.2393 16.1349L16.7174 16.2814ZM16.6934 16.3517C16.7016 16.3304 16.7107 16.3049 16.7188 16.2767L16.238 16.1395C16.2355 16.1482 16.2319 16.1586 16.2266 16.1725L16.6934 16.3517ZM16.6588 16.4283C16.6714 16.4036 16.6824 16.379 16.6918 16.3558L16.2282 16.1683C16.2234 16.1804 16.2186 16.191 16.214 16.1999L16.6588 16.4283ZM16.6179 16.4995C16.6341 16.4745 16.6478 16.4497 16.6589 16.4281L16.2139 16.2001C16.2077 16.2121 16.2026 16.221 16.1986 16.2272L16.6179 16.4995ZM16.5721 16.564C16.5878 16.5439 16.6042 16.5213 16.6197 16.4967L16.1968 16.23C16.1921 16.2375 16.1859 16.2461 16.1784 16.2557L16.5721 16.564ZM16.5159 16.6282C16.5374 16.6065 16.5562 16.5844 16.5723 16.5638L16.1782 16.256C16.1711 16.2651 16.1651 16.2719 16.1603 16.2768L16.5159 16.6282ZM16.4594 16.6814C16.4789 16.6648 16.5 16.6454 16.5207 16.6233L16.1555 16.2817C16.1507 16.2869 16.144 16.2933 16.135 16.301L16.4594 16.6814ZM16.3943 16.7315C16.4177 16.7154 16.4394 16.6984 16.4588 16.6819L16.1356 16.3005C16.1265 16.3082 16.1181 16.3146 16.1108 16.3197L16.3943 16.7315ZM16.3269 16.7733C16.3481 16.7615 16.372 16.7471 16.3961 16.7302L16.109 16.3209C16.103 16.3251 16.0947 16.3303 16.0836 16.3365L16.3269 16.7733ZM16.2564 16.8083C16.2803 16.7978 16.3038 16.7861 16.3269 16.7733L16.0836 16.3365C16.0744 16.3416 16.0649 16.3463 16.0551 16.3506L16.2564 16.8083ZM16.1781 16.8372C16.2047 16.8289 16.2296 16.8195 16.2512 16.8105L16.0602 16.3484C16.048 16.3535 16.0376 16.3573 16.029 16.36L16.1781 16.8372ZM16.0982 16.858C16.1291 16.852 16.157 16.8439 16.1786 16.8371L16.0285 16.3602C16.0156 16.3642 16.0075 16.3663 16.0024 16.3673L16.0982 16.858ZM16.0224 16.8698C16.0467 16.8672 16.0745 16.8633 16.1038 16.8568L15.9967 16.3684C15.99 16.3699 15.981 16.3714 15.9685 16.3727L16.0224 16.8698ZM15.9403 16.874C15.9657 16.874 15.9929 16.8729 16.0214 16.8699L15.9696 16.3726C15.9613 16.3735 15.9517 16.374 15.9403 16.374V16.874ZM15.8584 16.8699C15.8876 16.873 15.9155 16.874 15.9403 16.874V16.374C15.9284 16.374 15.9187 16.3735 15.9112 16.3727L15.8584 16.8699ZM15.7768 16.8568C15.806 16.8632 15.8337 16.8671 15.8573 16.8698L15.9123 16.3728C15.8999 16.3714 15.8907 16.3699 15.8839 16.3684L15.7768 16.8568ZM15.7026 16.8374C15.7238 16.8439 15.7518 16.8521 15.783 16.8581L15.8778 16.3672C15.8729 16.3662 15.8649 16.3642 15.8508 16.3598L15.7026 16.8374ZM15.6288 16.8102C15.6509 16.8195 15.6756 16.8288 15.7012 16.8369L15.8523 16.3603C15.8434 16.3575 15.8327 16.3535 15.8211 16.3487L15.6288 16.8102ZM15.5537 16.7735C15.5777 16.7868 15.6016 16.7983 15.624 16.8082L15.8258 16.3507C15.8145 16.3457 15.8046 16.3408 15.7963 16.3363L15.5537 16.7735ZM15.4863 16.7317C15.508 16.7466 15.5304 16.7605 15.5535 16.7734L15.7965 16.3364C15.7873 16.3312 15.7782 16.3256 15.7691 16.3194L15.4863 16.7317ZM15.4191 16.6796C15.44 16.6978 15.4626 16.7155 15.4862 16.7316L15.7693 16.3195C15.762 16.3145 15.7546 16.3088 15.7478 16.3028L15.4191 16.6796ZM15.3618 16.6256C15.3815 16.6461 15.4016 16.6647 15.4215 16.6816L15.7454 16.3007C15.7367 16.2933 15.7291 16.2862 15.7225 16.2793L15.3618 16.6256ZM15.3084 16.5643C15.3241 16.5843 15.3427 16.6063 15.3641 16.6279L15.7202 16.277C15.7154 16.2721 15.7092 16.2651 15.7016 16.2555L15.3084 16.5643ZM15.2611 16.4969C15.275 16.519 15.2907 16.5416 15.3082 16.564L15.7018 16.2557C15.6961 16.2484 15.69 16.2398 15.6837 16.2297L15.2611 16.4969ZM15.2214 16.4281C15.2341 16.4528 15.2481 16.4768 15.2624 16.499L15.6824 16.2276C15.6765 16.2186 15.671 16.209 15.6664 16.2001L15.2214 16.4281ZM15.1873 16.3517C15.1973 16.3778 15.2088 16.4035 15.2214 16.4281L15.6664 16.2001C15.6617 16.191 15.6575 16.1815 15.654 16.1725L15.1873 16.3517ZM15.1615 16.2769C15.1696 16.3052 15.1791 16.3315 15.1889 16.3558L15.6524 16.1683C15.648 16.1574 15.6447 16.1479 15.6423 16.1394L15.1615 16.2769ZM15.1435 16.2027C15.1483 16.2265 15.1543 16.2516 15.1615 16.2769L15.6423 16.1394C15.639 16.1279 15.636 16.1155 15.6333 16.1026L15.1435 16.2027ZM15.1313 16.1199C15.1338 16.1454 15.1375 16.173 15.1432 16.2016L15.6336 16.1037C15.6318 16.0947 15.6302 16.0841 15.629 16.0712L15.1313 16.1199ZM15.1275 16.0381C15.1275 16.0637 15.1285 16.0911 15.1313 16.1199L15.629 16.0712C15.628 16.0616 15.6275 16.0507 15.6275 16.0381H15.1275ZM15.1313 15.9559C15.1285 15.9848 15.1275 16.0126 15.1275 16.0381H15.6275C15.6275 16.0252 15.628 16.014 15.629 16.0046L15.1313 15.9559ZM15.1433 15.874C15.1375 15.9028 15.1338 15.9306 15.1313 15.9559L15.629 16.0046C15.6302 15.9916 15.6318 15.981 15.6335 15.9723L15.1433 15.874ZM15.1615 15.7989C15.1543 15.8242 15.1483 15.8493 15.1435 15.8732L15.6333 15.9732C15.636 15.9604 15.639 15.9479 15.6423 15.9364L15.1615 15.7989ZM15.189 15.7198C15.1791 15.7442 15.1696 15.7707 15.1615 15.7991L15.6423 15.9363C15.6447 15.9279 15.648 15.9184 15.6523 15.9076L15.189 15.7198ZM15.2215 15.6475C15.2088 15.6722 15.1972 15.6981 15.1872 15.7243L15.6541 15.9032C15.6575 15.8942 15.6617 15.8849 15.6663 15.8759L15.2215 15.6475ZM15.2612 15.5787C15.2487 15.5984 15.2346 15.6219 15.2213 15.648L15.6665 15.8755C15.6704 15.8679 15.6758 15.8585 15.6836 15.8463L15.2612 15.5787ZM15.3102 15.5096C15.2912 15.5332 15.2748 15.5571 15.2609 15.5791L15.6839 15.8458C15.6902 15.8358 15.6956 15.8283 15.6998 15.823L15.3102 15.5096ZM15.3618 15.4502C15.3437 15.469 15.3248 15.4904 15.3061 15.5149L15.704 15.8177C15.7085 15.8117 15.7143 15.8049 15.7225 15.7964L15.3618 15.4502ZM15.4212 15.3943C15.4018 15.4109 15.3817 15.4295 15.3618 15.4502L15.7225 15.7964C15.729 15.7897 15.7366 15.7825 15.7456 15.7748L15.4212 15.3943ZM15.4828 15.3465C15.464 15.3599 15.4417 15.3765 15.4193 15.396L15.7476 15.7732C15.753 15.7685 15.7607 15.7624 15.7726 15.7539L15.4828 15.3465ZM15.5537 15.3023C15.5305 15.3152 15.508 15.3292 15.4862 15.3441L15.7693 15.7563C15.7783 15.7501 15.7873 15.7445 15.7963 15.7395L15.5537 15.3023ZM15.6288 15.2659C15.603 15.2767 15.5776 15.289 15.5535 15.3024L15.7965 15.7394C15.8047 15.7349 15.8131 15.7308 15.8211 15.7275L15.6288 15.2659ZM15.7011 15.2389C15.675 15.2471 15.6493 15.2569 15.6249 15.2676L15.8249 15.7258C15.8344 15.7217 15.8439 15.7181 15.8523 15.7155L15.7011 15.2389ZM15.7768 15.2189C15.7526 15.2242 15.7278 15.2306 15.7031 15.2382L15.8503 15.7161C15.8608 15.7128 15.8722 15.7099 15.8839 15.7073L15.7768 15.2189ZM15.8578 15.206C15.8334 15.2086 15.806 15.2126 15.7774 15.2188L15.8834 15.7074C15.8908 15.7058 15.9002 15.7043 15.9118 15.703L15.8578 15.206ZM16.0222 15.2059C15.9679 15.2001 15.9126 15.2001 15.8584 15.2059L15.9112 15.7031C15.9305 15.7011 15.9502 15.7011 15.9688 15.7031L16.0222 15.2059ZM16.1033 15.2188C16.0746 15.2126 16.047 15.2086 16.0219 15.2059L15.9691 15.7031C15.9807 15.7043 15.99 15.7058 15.9973 15.7074L16.1033 15.2188ZM16.1791 15.2389C16.1535 15.2307 16.1279 15.2241 16.1032 15.2188L15.9974 15.7074C16.0087 15.7099 16.0191 15.7127 16.028 15.7155L16.1791 15.2389ZM16.2559 15.2677C16.2314 15.2569 16.205 15.2469 16.1775 15.2384L16.0296 15.716C16.0374 15.7184 16.0463 15.7217 16.0555 15.7257L16.2559 15.2677ZM16.3269 15.3025C16.3041 15.2898 16.2789 15.2772 16.2517 15.2659L16.0597 15.7275C16.0663 15.7303 16.0742 15.7341 16.0836 15.7393L16.3269 15.3025ZM16.3967 15.346C16.3723 15.3287 16.348 15.3142 16.3263 15.3022L16.0842 15.7397C16.0949 15.7456 16.1028 15.7505 16.1084 15.7545L16.3967 15.346ZM16.4591 15.3941C16.4377 15.3759 16.4165 15.36 16.3972 15.3463L16.1079 15.7541C16.1194 15.7623 16.1283 15.7691 16.1353 15.7751L16.4591 15.3941ZM16.5212 15.453C16.5001 15.4304 16.4787 15.4107 16.4592 15.3941L16.1353 15.775C16.1443 15.7827 16.1507 15.7888 16.155 15.7935L16.5212 15.453ZM16.574 15.5147C16.5554 15.4903 16.5366 15.4691 16.5187 15.4504L16.1575 15.7962C16.1659 15.8049 16.1718 15.8118 16.1765 15.818L16.574 15.5147ZM16.6196 15.5789C16.6042 15.5546 16.5875 15.5314 16.5703 15.5099L16.1802 15.8227C16.1863 15.8302 16.192 15.8383 16.1969 15.8461L16.6196 15.5789ZM16.6589 15.6477C16.6468 15.6243 16.6337 15.6012 16.6194 15.5787L16.1971 15.8463C16.203 15.8557 16.2086 15.8655 16.2139 15.8757L16.6589 15.6477ZM16.6917 15.7198C16.6824 15.6969 16.6715 15.6723 16.6588 15.6475L16.214 15.8759C16.2185 15.8848 16.2233 15.8954 16.2283 15.9076L16.6917 15.7198ZM16.7187 15.7989C16.7107 15.7709 16.7016 15.7455 16.6935 15.7243L16.2265 15.9032C16.2319 15.9172 16.2355 15.9277 16.238 15.9364L16.7187 15.7989ZM16.7378 15.878C16.7327 15.8508 16.726 15.8226 16.7174 15.7944L16.2393 15.9409C16.242 15.9495 16.2442 15.9589 16.246 15.9684L16.7378 15.878Z"
          fill="#A3A8AF"/>
</svg>
