<svg viewBox="0 0 24 24" fill="none" xmlns="http://www.w3.org/2000/svg">
    <path d="M20.6158 7.51971L20.6016 7.49408C20.5819 7.45158 20.5593 7.41084 20.534 7.37217L17.8675 2.56176C17.6755 2.21527 17.3179 2 16.9343 2H7.75758C7.37327 2 7.01539 2.21578 6.8235 2.56317L4.11358 7.46889C4.08921 7.51303 4.07161 7.55928 4.05918 7.60619C4.021 7.71369 4 7.82987 4 7.95108V20.6217C4 21.3817 4.59256 22 5.3209 22H19.3704C20.0988 22 20.6913 21.3817 20.6913 20.6217V7.90467C20.6913 7.88764 20.6908 7.87077 20.69 7.85393C20.6976 7.74119 20.6741 7.62494 20.6158 7.51971ZM12.9267 3.17231H16.9081L19.0057 6.95643H12.9267V3.17231ZM7.78375 3.17231H11.8032V6.95643H5.69337L7.78375 3.17231ZM5.12346 13.0934H11.1199L12.4348 14.476L11.1198 15.8586H5.12346V13.0934ZM19.5679 20.6218C19.5679 20.7353 19.4793 20.8278 19.3704 20.8278H5.3209C5.21203 20.8278 5.12346 20.7353 5.12346 20.6218V17.0309H11.1439C11.426 17.0309 11.7016 16.9111 11.9003 16.7022L13.569 14.9478C13.8161 14.6876 13.816 14.2642 13.5686 14.0039L11.9003 12.2498C11.7017 12.0409 11.426 11.9212 11.1439 11.9212H5.12346V8.12881H19.5679V11.9212H15.9133C15.4816 11.9212 15.0954 12.1899 14.9295 12.6057C14.7635 13.0215 14.8527 13.4968 15.1568 13.8165L15.784 14.476L15.1568 15.1356C14.8527 15.4553 14.7635 15.9306 14.9295 16.3464C15.0954 16.7622 15.4816 17.0309 15.9133 17.0309H19.5679V20.6218ZM19.5679 15.8586H16.052L16.9256 14.9401C17.169 14.684 17.1689 14.2675 16.9255 14.0118L16.052 13.0934H19.5679V15.8586Z"
          fill="#A3A8AF" stroke="#A3A8AF" stroke-width="0.5"/>
</svg>
