<svg viewBox="0 0 24 24" fill="none" xmlns="http://www.w3.org/2000/svg">
    <mask id="path-1-inside-1_1_1760" fill="white">
        <path fill-rule="evenodd" clip-rule="evenodd"
              d="M21.0766 7.49412L21.0921 7.51971C21.1556 7.62494 21.1811 7.74123 21.1728 7.85401C21.1738 7.8708 21.1743 7.88768 21.1743 7.90467V20.6217C21.1743 21.3817 20.5291 22 19.736 22H4.43825C3.64521 22 3 21.3817 3 20.6217V7.95112C3 7.82995 3.02283 7.71381 3.06436 7.60635C3.07789 7.55936 3.09705 7.51311 3.12363 7.46889L6.07432 2.56317C6.2833 2.21578 6.67298 2 7.09139 2H17.0834C17.5011 2 17.8905 2.21527 18.0996 2.56176L21.003 7.37209C21.0305 7.41084 21.0552 7.45158 21.0766 7.49412ZM17.055 3.17231H12.7197V6.95643H19.3389L17.055 3.17231ZM11.4964 3.17231H7.11988L4.84378 6.95643H11.4964V3.17231ZM19.736 20.8277C19.8546 20.8277 19.951 20.7353 19.951 20.6217V8.12874H4.22328V20.6217C4.22328 20.7353 4.31972 20.8277 4.43825 20.8277H19.736ZM12.6513 10.5614L14.2826 12.5999C14.4882 12.8567 14.4376 13.2247 14.1694 13.4216C14.0585 13.5032 13.9275 13.5427 13.7977 13.5427C13.614 13.5427 13.4323 13.4637 13.3119 13.3132L12.7706 12.6368V18.0435C12.7706 18.3672 12.4967 18.6296 12.1589 18.6296C11.8212 18.6296 11.5473 18.3672 11.5473 18.0435V12.6013L10.9574 13.3192C10.8367 13.4661 10.6575 13.5428 10.4765 13.5428C10.344 13.5428 10.2107 13.5017 10.0985 13.4171C9.83312 13.2168 9.78739 12.8482 9.99637 12.5939L11.6715 10.5555C11.7917 10.4092 11.97 10.333 12.1503 10.3324C12.1532 10.3323 12.1561 10.332 12.159 10.332C12.161 10.332 12.163 10.3321 12.165 10.3322C12.1668 10.3323 12.1685 10.3325 12.1702 10.3325C12.1869 10.3327 12.2035 10.3335 12.22 10.3349L12.2223 10.3351C12.386 10.3497 12.5433 10.4265 12.6513 10.5614Z"/>
    </mask>
    <path fill-rule="evenodd" clip-rule="evenodd"
          d="M21.0766 7.49412L21.0921 7.51971C21.1556 7.62494 21.1811 7.74123 21.1728 7.85401C21.1738 7.8708 21.1743 7.88768 21.1743 7.90467V20.6217C21.1743 21.3817 20.5291 22 19.736 22H4.43825C3.64521 22 3 21.3817 3 20.6217V7.95112C3 7.82995 3.02283 7.71381 3.06436 7.60635C3.07789 7.55936 3.09705 7.51311 3.12363 7.46889L6.07432 2.56317C6.2833 2.21578 6.67298 2 7.09139 2H17.0834C17.5011 2 17.8905 2.21527 18.0996 2.56176L21.003 7.37209C21.0305 7.41084 21.0552 7.45158 21.0766 7.49412ZM17.055 3.17231H12.7197V6.95643H19.3389L17.055 3.17231ZM11.4964 3.17231H7.11988L4.84378 6.95643H11.4964V3.17231ZM19.736 20.8277C19.8546 20.8277 19.951 20.7353 19.951 20.6217V8.12874H4.22328V20.6217C4.22328 20.7353 4.31972 20.8277 4.43825 20.8277H19.736ZM12.6513 10.5614L14.2826 12.5999C14.4882 12.8567 14.4376 13.2247 14.1694 13.4216C14.0585 13.5032 13.9275 13.5427 13.7977 13.5427C13.614 13.5427 13.4323 13.4637 13.3119 13.3132L12.7706 12.6368V18.0435C12.7706 18.3672 12.4967 18.6296 12.1589 18.6296C11.8212 18.6296 11.5473 18.3672 11.5473 18.0435V12.6013L10.9574 13.3192C10.8367 13.4661 10.6575 13.5428 10.4765 13.5428C10.344 13.5428 10.2107 13.5017 10.0985 13.4171C9.83312 13.2168 9.78739 12.8482 9.99637 12.5939L11.6715 10.5555C11.7917 10.4092 11.97 10.333 12.1503 10.3324C12.1532 10.3323 12.1561 10.332 12.159 10.332C12.161 10.332 12.163 10.3321 12.165 10.3322C12.1668 10.3323 12.1685 10.3325 12.1702 10.3325C12.1869 10.3327 12.2035 10.3335 12.22 10.3349L12.2223 10.3351C12.386 10.3497 12.5433 10.4265 12.6513 10.5614Z"
          fill="#212B35"/>
    <path d="M21.0921 7.51971L18.5239 9.07041L18.524 9.07045L21.0921 7.51971ZM21.0766 7.49412L18.3966 8.84226L18.4486 8.9457L18.5085 9.04483L21.0766 7.49412ZM21.1728 7.85401L18.1809 7.63338L18.1666 7.82725L18.1775 8.02135L21.1728 7.85401ZM3.06436 7.60635L5.86261 8.68792L5.91047 8.5641L5.9472 8.43654L3.06436 7.60635ZM3.12363 7.46889L0.552829 5.92261L0.552299 5.92349L3.12363 7.46889ZM6.07432 2.56317L3.50364 1.01668L3.50352 1.01688L6.07432 2.56317ZM18.0996 2.56176L20.6681 1.01155L20.668 1.01145L18.0996 2.56176ZM21.003 7.37209L18.4345 8.9223L18.4927 9.01875L18.558 9.11057L21.003 7.37209ZM12.7197 3.17231V0.172309H9.71971V3.17231H12.7197ZM17.055 3.17231L19.6234 1.62211L18.7484 0.172309H17.055V3.17231ZM12.7197 6.95643H9.71971V9.95643H12.7197V6.95643ZM19.3389 6.95643V9.95643H24.6536L21.9073 5.40623L19.3389 6.95643ZM7.11988 3.17231V0.172309H5.42347L4.54909 1.62601L7.11988 3.17231ZM11.4964 3.17231H14.4964V0.172309H11.4964V3.17231ZM4.84378 6.95643L2.27299 5.41013L-0.461544 9.95643H4.84378V6.95643ZM11.4964 6.95643V9.95643H14.4964V6.95643H11.4964ZM19.951 8.12874H22.951V5.12874H19.951V8.12874ZM4.22328 8.12874V5.12874H1.22328V8.12874H4.22328ZM14.2826 12.5999L11.9404 14.4743L11.9406 14.4747L14.2826 12.5999ZM12.6513 10.5614L14.9936 8.68696L14.9935 8.68685L12.6513 10.5614ZM14.1694 13.4216L12.3934 11.0038L12.3924 11.0046L14.1694 13.4216ZM13.3119 13.3132L15.6542 11.4387L15.6541 11.4387L13.3119 13.3132ZM12.7706 12.6368L15.1128 10.7623L9.77057 4.08711V12.6368H12.7706ZM11.5473 12.6013H14.5473V4.22502L9.22948 10.6967L11.5473 12.6013ZM10.9574 13.3192L8.63954 11.4146L8.6395 11.4147L10.9574 13.3192ZM10.0985 13.4171L11.906 11.0227L11.9056 11.0224L10.0985 13.4171ZM9.99637 12.5939L7.67859 10.6892L7.67847 10.6893L9.99637 12.5939ZM11.6715 10.5555L9.35385 8.65059L9.35371 8.65077L11.6715 10.5555ZM12.1503 10.3324L12.1607 13.3324L12.1755 13.3323L12.1902 13.3321L12.1503 10.3324ZM12.165 10.3322L12.3707 7.33928L12.3697 7.33921L12.165 10.3322ZM12.1702 10.3325L12.1081 13.3319L12.1251 13.3322L12.142 13.3324L12.1702 10.3325ZM12.22 10.3349L12.4806 7.34625L12.4739 7.34569L12.22 10.3349ZM12.2223 10.3351L12.4881 7.34691L12.4829 7.34646L12.2223 10.3351ZM23.6602 5.96901L23.6448 5.94342L18.5085 9.04483L18.5239 9.07041L23.6602 5.96901ZM24.1647 8.07463C24.2177 7.3553 24.0521 6.61798 23.6602 5.96897L18.524 9.07045C18.2591 8.6319 18.1445 8.12717 18.1809 7.63338L24.1647 8.07463ZM24.1743 7.90467C24.1743 7.82533 24.1718 7.75226 24.1681 7.68666L18.1775 8.02135C18.1757 7.98935 18.1743 7.95002 18.1743 7.90467H24.1743ZM24.1743 20.6217V7.90467H18.1743V20.6217H24.1743ZM19.736 25C22.0643 25 24.1743 23.1576 24.1743 20.6217H18.1743C18.1743 19.6058 18.9938 19 19.736 19V25ZM4.43825 25H19.736V19H4.43825V25ZM0 20.6217C0 23.1576 2.10997 25 4.43825 25V19C5.18045 19 6 19.6058 6 20.6217H0ZM0 7.95112V20.6217H6V7.95112H0ZM0.26611 6.52478C0.0949841 6.96752 0 7.44978 0 7.95112H6C6 8.21011 5.95067 8.4601 5.86261 8.68792L0.26611 6.52478ZM0.552299 5.92349C0.376438 6.21609 0.258934 6.50733 0.181519 6.77616L5.9472 8.43654C5.89685 8.61138 5.81767 8.81012 5.69496 9.01429L0.552299 5.92349ZM3.50352 1.01688L0.552829 5.92261L5.69443 9.01517L8.64512 4.10945L3.50352 1.01688ZM7.09139 -1C5.66169 -1 4.27614 -0.267416 3.50364 1.01668L8.645 4.10965C8.29046 4.69898 7.68427 5 7.09139 5V-1ZM17.0834 -1H7.09139V5H17.0834V-1ZM20.668 1.01145C19.8949 -0.269306 18.5111 -1 17.0834 -1V5C16.4912 5 15.8861 4.69985 15.5313 4.11207L20.668 1.01145ZM23.5714 5.82188L20.6681 1.01155L15.5312 4.11197L18.4345 8.9223L23.5714 5.82188ZM23.7566 6.14599C23.6643 5.96241 23.5602 5.79154 23.4479 5.63361L18.558 9.11057C18.5008 9.03014 18.4461 8.94075 18.3966 8.84226L23.7566 6.14599ZM12.7197 6.17231H17.055V0.172309H12.7197V6.17231ZM15.7197 6.95643V3.17231H9.71971V6.95643H15.7197ZM19.3389 3.95643H12.7197V9.95643H19.3389V3.95643ZM14.4865 4.7225L16.7705 8.50662L21.9073 5.40623L19.6234 1.62211L14.4865 4.7225ZM7.11988 6.17231H11.4964V0.172309H7.11988V6.17231ZM7.41458 8.50272L9.69067 4.71861L4.54909 1.62601L2.27299 5.41013L7.41458 8.50272ZM11.4964 3.95643H4.84378V9.95643H11.4964V3.95643ZM8.49643 3.17231V6.95643H14.4964V3.17231H8.49643ZM16.951 20.6217C16.951 18.9594 18.3193 17.8277 19.736 17.8277V23.8277C21.3898 23.8277 22.951 22.5112 22.951 20.6217H16.951ZM16.951 8.12874V20.6217H22.951V8.12874H16.951ZM4.22328 11.1287H19.951V5.12874H4.22328V11.1287ZM7.22328 20.6217V8.12874H1.22328V20.6217H7.22328ZM4.43825 17.8277C5.85497 17.8277 7.22328 18.9594 7.22328 20.6217H1.22328C1.22328 22.5112 2.78447 23.8277 4.43825 23.8277V17.8277ZM19.736 17.8277H4.43825V23.8277H19.736V17.8277ZM16.6249 10.7254L14.9936 8.68696L10.3091 12.4359L11.9404 14.4743L16.6249 10.7254ZM15.9455 15.8394C17.5614 14.6525 17.917 12.3394 16.6247 10.725L11.9406 14.4747C11.0595 13.374 11.3138 11.7969 12.3934 11.0038L15.9455 15.8394ZM13.7977 16.5427C14.5337 16.5427 15.2943 16.3181 15.9465 15.8387L12.3924 11.0046C12.8226 10.6883 13.3214 10.5427 13.7977 10.5427V16.5427ZM10.9696 15.1877C11.7003 16.1008 12.7704 16.5427 13.7977 16.5427V10.5427C14.4575 10.5427 15.1644 10.8267 15.6542 11.4387L10.9696 15.1877ZM10.4283 14.5114L10.9696 15.1877L15.6541 11.4387L15.1128 10.7623L10.4283 14.5114ZM15.7706 18.0435V12.6368H9.77057V18.0435H15.7706ZM12.1589 21.6296C14.0321 21.6296 15.7706 20.143 15.7706 18.0435H9.77057C9.77057 16.5914 10.9614 15.6296 12.1589 15.6296V21.6296ZM8.54733 18.0435C8.54733 20.1431 10.2859 21.6296 12.1589 21.6296V15.6296C13.3564 15.6296 14.5473 16.5913 14.5473 18.0435H8.54733ZM8.54733 12.6013V18.0435H14.5473V12.6013H8.54733ZM13.2752 15.2238L13.8652 14.5059L9.22948 10.6967L8.63954 11.4146L13.2752 15.2238ZM10.4765 16.5428C11.4896 16.5428 12.5444 16.1132 13.2753 15.2238L8.6395 11.4147C9.12904 10.8189 9.82545 10.5428 10.4765 10.5428V16.5428ZM8.29103 15.8114C8.95065 16.3094 9.72618 16.5428 10.4765 16.5428V10.5428C10.9619 10.5428 11.4707 10.6941 11.906 11.0227L8.29103 15.8114ZM7.67847 10.6893C6.36775 12.2845 6.68864 14.6022 8.29144 15.8118L11.9056 11.0224C12.9776 11.8314 13.207 13.4119 12.3143 14.4984L7.67847 10.6893ZM9.35371 8.65077L7.67859 10.6892L12.3142 14.4986L13.9893 12.4602L9.35371 8.65077ZM12.1399 7.3324C11.1365 7.33588 10.085 7.761 9.35385 8.65059L13.9891 12.4603C13.4984 13.0574 12.8035 13.3301 12.1607 13.3324L12.1399 7.3324ZM12.159 7.33195C12.0926 7.33195 12.0383 7.33415 12.003 7.33596C11.9851 7.33688 11.9704 7.33779 11.9606 7.33843C11.9512 7.33904 11.9437 7.33958 11.9424 7.33967C11.9386 7.33994 11.9441 7.33955 11.9484 7.33925C11.954 7.33887 11.9649 7.33814 11.9786 7.33734C12.0055 7.33578 12.0521 7.33342 12.1103 7.33265L12.1902 13.3321C12.2499 13.3313 12.298 13.3289 12.3264 13.3273C12.3408 13.3264 12.3523 13.3256 12.3587 13.3252C12.362 13.325 12.3646 13.3248 12.3658 13.3247C12.3665 13.3247 12.367 13.3246 12.3671 13.3246C12.3674 13.3246 12.3671 13.3246 12.3669 13.3246C12.3663 13.3247 12.3595 13.3252 12.3508 13.3257C12.3417 13.3263 12.3277 13.3272 12.3106 13.3281C12.2768 13.3298 12.2239 13.332 12.159 13.332V7.33195ZM12.3697 7.33921C12.3696 7.33921 12.3677 7.33908 12.3655 7.33893C12.3631 7.33877 12.3594 7.33852 12.3548 7.33823C12.3459 7.33766 12.3318 7.33679 12.3145 7.33591C12.2802 7.33417 12.2258 7.33195 12.159 7.33195V13.332C12.0942 13.332 12.0418 13.3298 12.0096 13.3282C11.9803 13.3267 11.9557 13.3249 11.9604 13.3252L12.3697 7.33921ZM12.2324 7.33314C12.2783 7.33409 12.3154 7.33595 12.3377 7.33722C12.3578 7.33836 12.3751 7.33958 12.3707 7.33928L11.9594 13.3252C11.9595 13.3252 11.9595 13.3252 11.9595 13.3252C11.9595 13.3252 11.9596 13.3252 11.9597 13.3252C11.9598 13.3252 11.96 13.3252 11.9602 13.3252C11.9606 13.3253 11.9613 13.3253 11.9621 13.3254C11.9636 13.3255 11.9662 13.3256 11.9693 13.3258C11.9754 13.3262 11.9854 13.3269 11.9976 13.3276C12.0216 13.3289 12.0604 13.3309 12.1081 13.3319L12.2324 7.33314ZM12.4739 7.34569C12.3919 7.33872 12.2994 7.33358 12.1985 7.33263L12.142 13.3324C12.0743 13.3317 12.0151 13.3283 11.9661 13.3242L12.4739 7.34569ZM12.4829 7.34646L12.4806 7.34626L11.9594 13.3236L11.9616 13.3238L12.4829 7.34646ZM14.9935 8.68685C14.3337 7.86244 13.4 7.42804 12.4881 7.34692L11.9564 13.3233C11.3721 13.2713 10.7529 12.9905 10.3091 12.436L14.9935 8.68685Z"
          fill="#A3A8AF" mask="url(#path-1-inside-1_1_1760)"/>
</svg>
