<svg viewBox="0 0 24 24" fill="none" xmlns="http://www.w3.org/2000/svg">
    <path d="M18.125 22H6.875C5.84167 22 5 21.1592 5 20.125V11.375C5 10.3408 5.84167 9.5 6.875 9.5H18.125C19.1583 9.5 20 10.3408 20 11.375V20.125C20 21.1592 19.1583 22 18.125 22ZM7.5 11.1667C7.15583 11.1667 6.66667 11.655 6.66667 12V19.5C6.66667 19.845 7.15583 20.3333 7.5 20.3333H17.5C17.8442 20.3333 18.3333 19.845 18.3333 19.5V12C18.3333 11.655 17.8442 11.1667 17.5 11.1667H7.5Z"
          fill="#A3A8AF"/>
    <path d="M16.6667 10.75C16.3217 10.75 15.8333 10.47 15.8333 10.125V7C15.8333 4.9325 14.5675 3.66667 12.5 3.66667C10.4325 3.66667 9.16667 4.9325 9.16667 7V10.125C9.16667 10.47 8.67833 10.75 8.33333 10.75C7.98833 10.75 7.5 10.47 7.5 10.125V7C7.5 4.2425 9.7425 2 12.5 2C15.2575 2 17.5 4.2425 17.5 7V10.125C17.5 10.47 17.0117 10.75 16.6667 10.75Z"
          fill="#A3A8AF"/>
    <path d="M12.5 16.5834C11.25 16.5834 10.4166 15.75 10.4166 14.5C10.4166 13.25 11.25 12.4167 12.5 12.4167C13.75 12.4167 14.5833 13.25 14.5833 14.5C14.5833 15.75 13.75 16.5834 12.5 16.5834ZM12.5 14.0834C12.2708 14.0834 12.0833 14.27 12.0833 14.5C12.0833 14.73 12.2708 14.9167 12.5 14.9167C12.7291 14.9167 12.9166 14.73 12.9166 14.5C12.9166 14.27 12.7291 14.0834 12.5 14.0834Z"
          fill="#A3A8AF"/>
    <path d="M12.5 19.5C12.04 19.5 11.6666 19.1706 11.6666 18.7647V16.0686C11.6666 15.6627 12.04 15.3333 12.5 15.3333C12.96 15.3333 13.3333 15.6627 13.3333 16.0686V18.7647C13.3333 19.1706 12.96 19.5 12.5 19.5Z"
          fill="#A3A8AF"/>
</svg>
