<svg viewBox="0 0 24 24" fill="none" xmlns="http://www.w3.org/2000/svg">
    <path d="M18.2005 2H5.24809C4.55471 2 4 2.5571 4 3.25348V20.7465C4 21.4429 4.55471 22 5.24809 22H18.2005C18.8939 22 19.4486 21.4429 19.4486 20.7465V3.25348C19.4486 2.5571 18.8939 2 18.2005 2ZM4.8182 8.03064H11.2944V14.1727H4.8182V8.03064ZM12.1403 8.03064H18.6166V14.1727H12.1403V8.03064ZM5.24809 2.83565H18.2005C18.4363 2.83565 18.6166 3.01671 18.6166 3.25348V7.19499H4.8182V3.25348C4.8182 3.03064 5.01234 2.83565 5.24809 2.83565ZM4.8182 20.7465V15.0223H11.2944V21.1643H5.23423C5.01235 21.1643 4.8182 20.9694 4.8182 20.7465ZM18.2005 21.1643H12.1403V15.0223H18.6166V20.7465C18.6166 20.9694 18.4363 21.1643 18.2005 21.1643Z"
          fill="#A3A8AF" stroke="#A3A8AF" stroke-width="0.5"/>
    <path d="M16.8414 18.7688H14.4839C14.2482 18.7688 14.0679 18.9498 14.0679 19.1866C14.0679 19.4234 14.2482 19.6044 14.4839 19.6044H16.8414C17.0772 19.6044 17.2574 19.4234 17.2574 19.1866C17.2574 18.9498 17.0772 18.7688 16.8414 18.7688Z"
          fill="#A3A8AF" stroke="#A3A8AF" stroke-width="0.5"/>
    <path d="M16.8414 17.2785H14.4839C14.2482 17.2785 14.0679 17.4596 14.0679 17.6964C14.0679 17.9331 14.2482 18.1142 14.4839 18.1142H16.8414C17.0772 18.1142 17.2574 17.9331 17.2574 17.6964C17.2574 17.4596 17.0772 17.2785 16.8414 17.2785Z"
          fill="#A3A8AF" stroke="#A3A8AF" stroke-width="0.5"/>
    <path d="M9.24192 18.0167H8.4792V17.2507C8.4792 17.0139 8.29892 16.8328 8.06317 16.8328C7.82742 16.8328 7.64714 17.0139 7.64714 17.2507V18.0167H6.88441C6.64866 18.0167 6.46838 18.1977 6.46838 18.4345C6.46838 18.6713 6.64866 18.8523 6.88441 18.8523H7.64714V19.6184C7.64714 19.8551 7.82742 20.0362 8.06317 20.0362C8.29892 20.0362 8.4792 19.8551 8.4792 19.6184V18.8523H9.24192C9.47767 18.8523 9.65795 18.6713 9.65795 18.4345C9.67182 18.2117 9.47767 18.0167 9.24192 18.0167Z"
          fill="#A3A8AF" stroke="#A3A8AF" stroke-width="0.5"/>
    <path d="M16.9803 10.3984H14.3316C14.0958 10.3984 13.9155 10.5794 13.9155 10.8162C13.9155 11.0529 14.0958 11.234 14.3316 11.234H16.9803C17.216 11.234 17.3963 11.0529 17.3963 10.8162C17.3963 10.5794 17.216 10.3984 16.9803 10.3984Z"
          fill="#A3A8AF" stroke="#A3A8AF" stroke-width="0.5"/>
    <path d="M8.65959 10.6769L9.46391 9.86909C9.63033 9.70196 9.63033 9.43733 9.46391 9.2702C9.2975 9.10307 9.03402 9.10307 8.86761 9.2702L8.06328 10.078L7.25896 9.2702C7.09255 9.10307 6.82906 9.10307 6.66265 9.2702C6.49624 9.43733 6.49624 9.70196 6.66265 9.86909L7.46697 10.6769L6.66265 11.4847C6.49624 11.6518 6.49624 11.9164 6.66265 12.0836C6.82906 12.2507 7.09255 12.2507 7.25896 12.0836L8.06328 11.2758L8.86761 12.0836C9.03402 12.2507 9.2975 12.2507 9.46391 12.0836C9.63033 11.9164 9.63033 11.6518 9.46391 11.4847L8.65959 10.6769Z"
          fill="#A3A8AF" stroke="#A3A8AF" stroke-width="0.5"/>
    <path d="M11.3637 4.4652L11.5718 4.36771V5.87189H11.2667C11.1973 5.87189 11.1419 5.89974 11.0864 5.94152C11.0448 5.98331 11.017 6.05294 11.017 6.12258C11.017 6.19222 11.0448 6.24793 11.0864 6.30364C11.128 6.34542 11.1973 6.37328 11.2667 6.37328H12.3484C12.4177 6.37328 12.4732 6.34542 12.5286 6.30364C12.5841 6.26185 12.598 6.19222 12.598 6.12258C12.598 6.05294 12.5702 5.99723 12.5286 5.94152C12.4732 5.89974 12.4177 5.87189 12.3484 5.87189H12.1126V4.00559C12.1126 3.93595 12.0849 3.86632 12.0294 3.81061C11.9739 3.7549 11.9185 3.72704 11.8352 3.72704H11.7659C11.7104 3.72704 11.6688 3.74096 11.6272 3.76882L11.1557 4.01952C11.0587 4.0613 11.0032 4.15879 11.0032 4.25628C11.0032 4.32592 11.0309 4.39556 11.0725 4.43735C11.128 4.49306 11.2112 4.53483 11.3637 4.4652Z"
          fill="#A3A8AF" stroke="#A3A8AF" stroke-width="0.5"/>
    <path d="M14.3037 4.88301C14.2204 4.93872 14.1095 5.02229 13.9708 5.10586C13.8044 5.21728 13.6657 5.31477 13.5687 5.38441C13.4577 5.46798 13.3606 5.56547 13.2913 5.67689C13.2081 5.80224 13.1665 5.92758 13.1665 6.06686C13.1665 6.15043 13.1942 6.22006 13.2497 6.27577C13.3052 6.33148 13.3745 6.35935 13.4577 6.35935H14.8029C14.8722 6.35935 14.9277 6.33149 14.9832 6.28971C15.0386 6.24792 15.0525 6.17829 15.0525 6.10865C15.0525 6.03901 15.0248 5.98329 14.9832 5.92758C14.9277 5.8858 14.8722 5.85794 14.8029 5.85794H13.8044C13.8044 5.85794 13.8183 5.84402 13.8322 5.84402C13.9154 5.77438 14.0263 5.69082 14.1927 5.59332C14.373 5.46798 14.5255 5.37048 14.6365 5.27299C14.7613 5.1755 14.8584 5.06407 14.9416 4.93872C15.0387 4.79945 15.0803 4.66017 15.0803 4.49304C15.0803 4.33983 15.0386 4.18663 14.9554 4.06128C14.8722 3.93593 14.7613 3.83844 14.6226 3.7688C14.4839 3.69916 14.3314 3.67131 14.165 3.67131C13.8738 3.67131 13.5964 3.74094 13.3468 3.86629C13.2636 3.90808 13.222 3.99165 13.222 4.08914C13.222 4.15878 13.2497 4.21448 13.2913 4.25626C13.3606 4.3259 13.4716 4.33984 13.5687 4.29805C13.7351 4.21449 13.9292 4.18663 14.1234 4.18663C14.2898 4.18663 14.4007 4.21449 14.4701 4.2702C14.5394 4.32591 14.5671 4.40948 14.5671 4.50697C14.5671 4.56268 14.5533 4.61839 14.4978 4.68803C14.4423 4.77159 14.3869 4.8273 14.3037 4.88301Z"
          fill="#A3A8AF" stroke="#A3A8AF" stroke-width="0.5"/>
    <path d="M16.8138 5.81616C16.7028 5.87187 16.5642 5.89973 16.3978 5.89973C16.2036 5.89973 16.0372 5.87188 15.8847 5.80224C15.7737 5.76046 15.6766 5.78831 15.6073 5.85794C15.5657 5.89973 15.538 5.96937 15.538 6.03901C15.538 6.09472 15.5518 6.1365 15.5796 6.17828C15.6073 6.22007 15.6489 6.24792 15.6905 6.26184C15.9263 6.35934 16.1897 6.41504 16.4532 6.41504C16.7444 6.41504 16.9802 6.34541 17.1605 6.22006C17.3546 6.08079 17.4517 5.8858 17.4517 5.63511C17.4517 5.41227 17.3824 5.24514 17.2575 5.13372C17.2021 5.07801 17.1466 5.03623 17.0773 5.00837C17.1189 4.96659 17.1743 4.93873 17.2021 4.88302C17.2991 4.7716 17.3407 4.61841 17.3407 4.43735C17.3407 4.20058 17.2575 4.01952 17.0773 3.89417C16.9109 3.76883 16.689 3.71312 16.3978 3.71312C16.1481 3.71312 15.8985 3.78275 15.6628 3.9081C15.5796 3.94988 15.538 4.03345 15.538 4.11701C15.538 4.18665 15.5657 4.24236 15.6073 4.28414C15.6766 4.35378 15.7598 4.36771 15.8708 4.32592C16.0233 4.25629 16.1897 4.21451 16.37 4.21451C16.5226 4.21451 16.6474 4.24237 16.7167 4.29807C16.786 4.33986 16.8138 4.39557 16.8138 4.47913C16.8138 4.57662 16.7722 4.64626 16.6751 4.70197C16.5642 4.75768 16.4116 4.79946 16.1759 4.79946C16.1065 4.79946 16.0511 4.82732 15.9956 4.8691C15.954 4.91088 15.9263 4.98052 15.9263 5.05015C15.9263 5.11979 15.954 5.1755 15.9956 5.23121C16.0511 5.27299 16.1065 5.30085 16.1759 5.30085H16.2313C16.897 5.30085 16.897 5.55154 16.897 5.63511C16.9386 5.70475 16.897 5.77438 16.8138 5.81616Z"
          fill="#A3A8AF" stroke="#A3A8AF" stroke-width="0.5"/>
</svg>
