<svg viewBox="0 0 24 24" fill="none" xmlns="http://www.w3.org/2000/svg">
    <path d="M18.9355 2H5.71672C4.77253 2 4 2.77586 4 3.72414V20.2759C4 21.2241 4.77253 22 5.71672 22H18.9355C19.8797 22 20.6522 21.2241 20.6522 20.2759V3.72414C20.6522 2.77586 19.8797 2 18.9355 2ZM19.7939 20.2759C19.7939 20.75 19.4076 21.1379 18.9355 21.1379H5.71672C5.24462 21.1379 4.85836 20.75 4.85836 20.2759V3.72414C4.85836 3.25 5.24462 2.86207 5.71672 2.86207H18.9355C19.4076 2.86207 19.7939 3.25 19.7939 3.72414V20.2759Z"
          fill="#A3A8AF" stroke="#A3A8AF" stroke-width="0.5"/>
    <path d="M9.23598 17.0431H6.57506C6.33185 17.0431 6.14587 17.2299 6.14587 17.4742V19.4138C6.14587 19.6581 6.33185 19.8448 6.57506 19.8448H9.23598C9.47918 19.8448 9.66516 19.6581 9.66516 19.4138V17.4742C9.66516 17.2299 9.47918 17.0431 9.23598 17.0431ZM8.8068 18.9828H7.00424V17.9052H8.8068V18.9828Z"
          fill="#A3A8AF" stroke="#A3A8AF" stroke-width="0.5"/>
    <path d="M13.6566 17.0431H10.9957C10.7525 17.0431 10.5665 17.2299 10.5665 17.4742V19.4138C10.5665 19.6581 10.7525 19.8448 10.9957 19.8448H13.6566C13.8998 19.8448 14.0858 19.6581 14.0858 19.4138V17.4742C14.0858 17.2299 13.8855 17.0431 13.6566 17.0431ZM13.2275 18.9828H11.4249V17.9052H13.2275V18.9828Z"
          fill="#A3A8AF" stroke="#A3A8AF" stroke-width="0.5"/>
    <path d="M9.23598 13.3074H6.57506C6.33185 13.3074 6.14587 13.4942 6.14587 13.7385V15.6781C6.14587 15.9224 6.33185 16.1092 6.57506 16.1092H9.23598C9.47918 16.1092 9.66516 15.9224 9.66516 15.6781V13.7385C9.66516 13.5086 9.47918 13.3074 9.23598 13.3074ZM8.8068 15.2471H7.00424V14.1695H8.8068V15.2471Z"
          fill="#A3A8AF" stroke="#A3A8AF" stroke-width="0.5"/>
    <path d="M13.6566 13.3074H10.9957C10.7525 13.3074 10.5665 13.4942 10.5665 13.7385V15.6781C10.5665 15.9224 10.7525 16.1092 10.9957 16.1092H13.6566C13.8998 16.1092 14.0858 15.9224 14.0858 15.6781V13.7385C14.0858 13.5086 13.8855 13.3074 13.6566 13.3074ZM13.2275 15.2471H11.4249V14.1695H13.2275V15.2471Z"
          fill="#A3A8AF" stroke="#A3A8AF" stroke-width="0.5"/>
    <path d="M9.23598 9.57189H6.57506C6.33185 9.57189 6.14587 9.75867 6.14587 10.0029V11.9426C6.14587 12.1868 6.33185 12.3736 6.57506 12.3736H9.23598C9.47918 12.3736 9.66516 12.1868 9.66516 11.9426V10.0029C9.66516 9.77304 9.47918 9.57189 9.23598 9.57189ZM8.8068 11.5115H7.00424V10.434H8.8068V11.5115Z"
          fill="#A3A8AF" stroke="#A3A8AF" stroke-width="0.5"/>
    <path d="M13.6566 9.57189H10.9957C10.7525 9.57189 10.5665 9.75867 10.5665 10.0029V11.9426C10.5665 12.1868 10.7525 12.3736 10.9957 12.3736H13.6566C13.8998 12.3736 14.0858 12.1868 14.0858 11.9426V10.0029C14.0858 9.77304 13.8855 9.57189 13.6566 9.57189ZM13.2275 11.5115H11.4249V10.434H13.2275V11.5115Z"
          fill="#A3A8AF" stroke="#A3A8AF" stroke-width="0.5"/>
    <path d="M18.0629 13.3074H15.4162C15.173 13.3074 14.9871 13.4942 14.9871 13.7385V19.4138C14.9871 19.658 15.173 19.8448 15.4162 19.8448H18.0629C18.3061 19.8448 18.492 19.658 18.492 19.4138V13.7385C18.5063 13.5086 18.3061 13.3074 18.0629 13.3074ZM17.6337 18.9827H15.8454V14.1695H17.6337V18.9827Z"
          fill="#A3A8AF" stroke="#A3A8AF" stroke-width="0.5"/>
    <path d="M18.0629 9.57189H15.4162C15.173 9.57189 14.9871 9.75867 14.9871 10.0029V11.9426C14.9871 12.1868 15.173 12.3736 15.4162 12.3736H18.0629C18.3061 12.3736 18.492 12.1868 18.492 11.9426V10.0029C18.5063 9.77304 18.3061 9.57189 18.0629 9.57189ZM17.6337 11.5115H15.8454V10.434H17.6337V11.5115Z"
          fill="#A3A8AF" stroke="#A3A8AF" stroke-width="0.5"/>
    <path d="M18.0628 4.15515H6.57506C6.33185 4.15515 6.14587 4.34193 6.14587 4.58618V7.81894C6.14587 8.06319 6.33185 8.24997 6.57506 8.24997H18.0628C18.306 8.24997 18.492 8.06319 18.492 7.81894V4.58618C18.5063 4.3563 18.306 4.15515 18.0628 4.15515ZM17.6336 7.40227H7.00424V5.03158H17.6336V7.40227Z"
          fill="#A3A8AF" stroke="#A3A8AF" stroke-width="0.5"/>
</svg>
