<svg viewBox="0 0 24 24" fill="none" xmlns="http://www.w3.org/2000/svg">
    <path d="M17.8262 5.47826H16.0404V4.55435C16.0404 3.58967 16.8115 2.81522 17.7721 2.81522C18.002 2.81522 18.1779 2.63859 18.1779 2.40761C18.1779 2.17663 18.002 2 17.7721 2H10.0608C8.65382 2 7.51742 3.1413 7.51742 4.55435V5.47826H5.21757C4.54114 5.47826 4 6.02174 4 6.70109V9.6087C4 10.2609 4.51408 10.7908 5.14993 10.8315V21.5924C5.14993 21.8234 5.3258 22 5.55578 22H17.488C17.7179 22 17.8938 21.8234 17.8938 21.5924V10.8315C18.5297 10.7908 19.0437 10.2609 19.0437 9.6087V6.70109C19.0437 6.02174 18.5026 5.47826 17.8262 5.47826ZM8.32913 4.55435C8.32913 3.58967 9.10026 2.81522 10.0608 2.81522H15.9051C15.4857 3.27717 15.2287 3.88859 15.2287 4.55435V7.59783H8.32913V4.55435ZM17.0821 21.1848H5.96164V10.8315H17.0821V21.1848ZM18.232 9.6087C18.232 9.83968 18.0562 10.0163 17.8262 10.0163H5.21757C4.98758 10.0163 4.81171 9.82609 4.81171 9.6087V6.70109C4.81171 6.47011 4.98758 6.29348 5.21757 6.29348H7.51742V7.58424H6.78688C6.5569 7.58424 6.38102 7.76087 6.38102 7.99185C6.38102 8.22282 6.5569 8.39946 6.78688 8.39946H16.7574C16.9874 8.39946 17.1633 8.22282 17.1633 7.99185C17.1633 7.76087 16.9874 7.58424 16.7574 7.58424H16.0269V6.29348H17.8126C18.0426 6.29348 18.2185 6.48369 18.2185 6.70109V9.6087H18.232Z"
          fill="#A3A8AF" stroke="#A3A8AF" stroke-width="0.5"/>
    <path d="M9.00564 18.9158H7.95041C7.72043 18.9158 7.54456 19.0924 7.54456 19.3234C7.54456 19.5544 7.72043 19.731 7.95041 19.731H9.00564C9.23563 19.731 9.4115 19.5544 9.4115 19.3234C9.4115 19.0924 9.2221 18.9158 9.00564 18.9158Z"
          fill="#A3A8AF" stroke="#A3A8AF" stroke-width="0.5"/>
    <path d="M12.0496 18.9158H10.9944C10.7644 18.9158 10.5885 19.0924 10.5885 19.3234C10.5885 19.5544 10.7644 19.731 10.9944 19.731H12.0496C12.2796 19.731 12.4554 19.5544 12.4554 19.3234C12.4554 19.0924 12.266 18.9158 12.0496 18.9158Z"
          fill="#A3A8AF" stroke="#A3A8AF" stroke-width="0.5"/>
    <path d="M15.0934 18.9158H14.0382C13.8082 18.9158 13.6323 19.0924 13.6323 19.3234C13.6323 19.5544 13.8082 19.731 14.0382 19.731H15.0934C15.3234 19.731 15.4993 19.5544 15.4993 19.3234C15.4993 19.0924 15.3099 18.9158 15.0934 18.9158Z"
          fill="#A3A8AF" stroke="#A3A8AF" stroke-width="0.5"/>
    <path d="M9.00564 15.6006H7.95041C7.72043 15.6006 7.54456 15.7772 7.54456 16.0082C7.54456 16.2391 7.72043 16.4158 7.95041 16.4158H9.00564C9.23563 16.4158 9.4115 16.2391 9.4115 16.0082C9.4115 15.7908 9.2221 15.6006 9.00564 15.6006Z"
          fill="#A3A8AF" stroke="#A3A8AF" stroke-width="0.5"/>
    <path d="M12.0496 15.6006H10.9944C10.7644 15.6006 10.5885 15.7772 10.5885 16.0082C10.5885 16.2391 10.7644 16.4158 10.9944 16.4158H12.0496C12.2796 16.4158 12.4554 16.2391 12.4554 16.0082C12.4554 15.7908 12.266 15.6006 12.0496 15.6006Z"
          fill="#A3A8AF" stroke="#A3A8AF" stroke-width="0.5"/>
    <path d="M15.0934 15.6006H14.0382C13.8082 15.6006 13.6323 15.7772 13.6323 16.0082C13.6323 16.2391 13.8082 16.4158 14.0382 16.4158H15.0934C15.3234 16.4158 15.4993 16.2391 15.4993 16.0082C15.4993 15.7908 15.3099 15.6006 15.0934 15.6006Z"
          fill="#A3A8AF" stroke="#A3A8AF" stroke-width="0.5"/>
    <path d="M9.00564 12.2989H7.95041C7.72043 12.2989 7.54456 12.4755 7.54456 12.7065C7.54456 12.9375 7.72043 13.1141 7.95041 13.1141H9.00564C9.23563 13.1141 9.4115 12.9375 9.4115 12.7065C9.4115 12.4891 9.2221 12.2989 9.00564 12.2989Z"
          fill="#A3A8AF" stroke="#A3A8AF" stroke-width="0.5"/>
    <path d="M12.0496 12.2989H10.9944C10.7644 12.2989 10.5885 12.4755 10.5885 12.7065C10.5885 12.9375 10.7644 13.1141 10.9944 13.1141H12.0496C12.2796 13.1141 12.4554 12.9375 12.4554 12.7065C12.4554 12.4891 12.266 12.2989 12.0496 12.2989Z"
          fill="#A3A8AF" stroke="#A3A8AF" stroke-width="0.5"/>
    <path d="M15.0934 12.2989H14.0382C13.8082 12.2989 13.6323 12.4755 13.6323 12.7065C13.6323 12.9375 13.8082 13.1141 14.0382 13.1141H15.0934C15.3234 13.1141 15.4993 12.9375 15.4993 12.7065C15.4993 12.4891 15.3099 12.2989 15.0934 12.2989Z"
          fill="#A3A8AF" stroke="#A3A8AF" stroke-width="0.5"/>
    <path d="M9.96616 4.71745H13.5106C13.7406 4.71745 13.9165 4.54081 13.9165 4.30983C13.9165 4.07885 13.7406 3.90221 13.5106 3.90221H9.96616C9.73617 3.90221 9.5603 4.07885 9.5603 4.30983C9.5603 4.54081 9.7497 4.71745 9.96616 4.71745Z"
          fill="#A3A8AF" stroke="#A3A8AF" stroke-width="0.5"/>
    <path d="M9.96616 6.60597H13.5106C13.7406 6.60597 13.9165 6.42933 13.9165 6.19835C13.9165 5.96737 13.7406 5.79074 13.5106 5.79074H9.96616C9.73617 5.79074 9.5603 5.96737 9.5603 6.19835C9.5603 6.42933 9.7497 6.60597 9.96616 6.60597Z"
          fill="#A3A8AF" stroke="#A3A8AF" stroke-width="0.5"/>
</svg>
