<svg viewBox="0 0 24 24" fill="none" xmlns="http://www.w3.org/2000/svg">
    <path d="M19.1245 2H4.78943C3.25617 2 2 3.2616 2 4.80148V19.1985C2 20.7384 3.25617 22 4.78943 22H19.1245C20.6578 22 21.914 20.7384 21.914 19.1985V4.80148C21.914 3.2616 20.6578 2 19.1245 2ZM20.8056 4.80148V11.4434H12.5112V3.11317H19.1245C20.0482 3.11317 20.8056 3.87384 20.8056 4.80148ZM3.10838 4.80148C3.10838 3.87384 3.86578 3.11317 4.78943 3.11317H11.4028V11.4434H3.10838V4.80148ZM3.10838 19.1985V12.5566H11.4028V20.8868H4.78943C3.84731 20.8868 3.10838 20.1262 3.10838 19.1985ZM20.8056 19.1985C20.8056 20.1262 20.0482 20.8868 19.1245 20.8868H12.5112V12.5566H20.8056V19.1985Z"
          fill="#A3A8AF" stroke="#A3A8AF" stroke-width="0.5"/>
    <path d="M9.11222 6.7124H7.8191V5.4137C7.8191 5.0983 7.57895 4.85712 7.2649 4.85712C6.95086 4.85712 6.71071 5.0983 6.71071 5.4137V6.7124H5.4176C5.10355 6.7124 4.8634 6.95359 4.8634 7.26899C4.8634 7.58439 5.10355 7.82557 5.4176 7.82557H6.71071V9.12427C6.71071 9.43967 6.95086 9.68086 7.2649 9.68086C7.57895 9.68086 7.8191 9.43967 7.8191 9.12427V7.82557H9.11222C9.42626 7.82557 9.66641 7.58439 9.66641 7.26899C9.66641 6.97214 9.40779 6.7124 9.11222 6.7124Z"
          fill="#A3A8AF" stroke="#A3A8AF" stroke-width="0.5"/>
    <path d="M9.11202 16.1744H5.39892C5.08488 16.1744 4.84473 16.4155 4.84473 16.7309C4.84473 17.0463 5.08488 17.2875 5.39892 17.2875H9.11202C9.42607 17.2875 9.66622 17.0463 9.66622 16.7309C9.66622 16.4155 9.40759 16.1744 9.11202 16.1744Z"
          fill="#A3A8AF" stroke="#A3A8AF" stroke-width="0.5"/>
    <path d="M14.7093 9.23563C14.931 9.45827 15.282 9.45827 15.5037 9.23563L16.649 8.08535L17.7944 9.23563C18.016 9.45827 18.367 9.45827 18.5887 9.23563C18.8104 9.013 18.8104 8.66049 18.5887 8.43786L17.4434 7.28757L18.5887 6.13729C18.8104 5.91466 18.8104 5.56215 18.5887 5.33952C18.367 5.11688 18.016 5.11688 17.7944 5.33952L16.649 6.4898L15.5037 5.33952C15.282 5.11688 14.931 5.11688 14.7093 5.33952C14.4877 5.56215 14.4877 5.91466 14.7093 6.13729L15.8547 7.28757L14.7093 8.43786C14.5061 8.66049 14.5061 9.013 14.7093 9.23563Z"
          fill="#A3A8AF" stroke="#A3A8AF" stroke-width="0.5"/>
    <path d="M16.3719 15.3209H16.9261C17.2402 15.3209 17.4803 15.0797 17.4803 14.7643C17.4803 14.4489 17.2402 14.2078 16.9261 14.2078H16.3719C16.0579 14.2078 15.8177 14.4489 15.8177 14.7643C15.8177 15.0797 16.0764 15.3209 16.3719 15.3209Z"
          fill="#A3A8AF" stroke="#A3A8AF" stroke-width="0.5"/>
    <path d="M14.3955 17.2875H18.9214C19.2355 17.2875 19.4756 17.0463 19.4756 16.7309C19.4756 16.4155 19.2355 16.1744 18.9214 16.1744H14.3955C14.0815 16.1744 13.8413 16.4155 13.8413 16.7309C13.8413 17.0278 14.0815 17.2875 14.3955 17.2875Z"
          fill="#A3A8AF" stroke="#A3A8AF" stroke-width="0.5"/>
    <path d="M16.9261 18.1224H16.3719C16.0579 18.1224 15.8177 18.3636 15.8177 18.679C15.8177 18.9944 16.0579 19.2356 16.3719 19.2356H16.9261C17.2402 19.2356 17.4803 18.9944 17.4803 18.679C17.4803 18.3636 17.2402 18.1224 16.9261 18.1224Z"
          fill="#A3A8AF" stroke="#A3A8AF" stroke-width="0.5"/>
</svg>
