<svg viewBox="0 0 24 24" fill="none" xmlns="http://www.w3.org/2000/svg">
    <path d="M18.7957 2H5.25861C4.55938 2 4 2.5618 4 3.26404V20.736C4 21.4382 4.55938 22 5.25861 22H18.7957C19.4949 22 20.0543 21.4382 20.0543 20.736V3.26404C20.0543 2.5618 19.4809 2 18.7957 2ZM19.2152 20.736C19.2152 20.9747 19.0334 21.1573 18.7957 21.1573H5.25861C5.02087 21.1573 4.83907 20.9607 4.83907 20.736V3.26404C4.83907 3.02528 5.02087 2.8427 5.25861 2.8427H18.7957C19.0334 2.8427 19.2152 3.03933 19.2152 3.26404V20.736Z"
          fill="#A3A8AF" stroke="#A3A8AF" stroke-width="0.5"/>
    <path d="M11.0482 15.2304H6.20958C5.97184 15.2304 5.79004 15.4129 5.79004 15.6517V19.795C5.79004 20.0337 5.97184 20.2163 6.20958 20.2163H11.0622C11.3 20.2163 11.4818 20.0337 11.4818 19.795V15.6517C11.4818 15.4129 11.286 15.2304 11.0482 15.2304ZM10.6287 19.3596H6.62911V16.0731H10.6427V19.3596H10.6287Z"
          fill="#A3A8AF" stroke="#A3A8AF" stroke-width="0.5"/>
    <path d="M11.0482 9.14888H6.20958C5.97184 9.14888 5.79004 9.33146 5.79004 9.57023V13.7135C5.79004 13.9523 5.97184 14.1349 6.20958 14.1349H11.0622C11.3 14.1349 11.4818 13.9523 11.4818 13.7135V9.57023C11.4818 9.34551 11.286 9.14888 11.0482 9.14888ZM10.6287 13.2922H6.62911V9.99158H10.6427V13.2922H10.6287Z"
          fill="#A3A8AF" stroke="#A3A8AF" stroke-width="0.5"/>
    <path d="M7.74791 12.0702H9.49598C9.73371 12.0702 9.91551 11.8876 9.91551 11.6489C9.91551 11.4101 9.73371 11.2275 9.49598 11.2275H7.74791C7.51017 11.2275 7.32837 11.4101 7.32837 11.6489C7.32837 11.8736 7.52415 12.0702 7.74791 12.0702Z"
          fill="#A3A8AF" stroke="#A3A8AF" stroke-width="0.5"/>
    <path d="M7.74791 18.1376H8.2094V18.6011C8.2094 18.8399 8.3912 19.0225 8.62894 19.0225C8.86667 19.0225 9.04847 18.8399 9.04847 18.6011V18.1376H9.50997C9.7477 18.1376 9.9295 17.9551 9.9295 17.7163C9.9295 17.4775 9.7477 17.295 9.50997 17.295H9.04847V16.8315C9.04847 16.5927 8.86667 16.4101 8.62894 16.4101C8.3912 16.4101 8.2094 16.5927 8.2094 16.8315V17.295H7.74791C7.51017 17.295 7.32837 17.4775 7.32837 17.7163C7.32837 17.9551 7.52415 18.1376 7.74791 18.1376Z"
          fill="#A3A8AF" stroke="#A3A8AF" stroke-width="0.5"/>
    <path d="M17.8447 9.14888H13.2438C13.006 9.14888 12.8242 9.33146 12.8242 9.57023V19.7809C12.8242 20.0197 13.006 20.2023 13.2438 20.2023H17.8447C18.0824 20.2023 18.2642 20.0197 18.2642 19.7809V9.57023C18.2642 9.34551 18.0824 9.14888 17.8447 9.14888ZM17.4251 19.3596H13.6633V9.99158H17.4251V19.3596Z"
          fill="#A3A8AF" stroke="#A3A8AF" stroke-width="0.5"/>
    <path d="M17.8447 3.79778H6.20958C5.97184 3.79778 5.79004 3.98036 5.79004 4.21913V7.64611C5.79004 7.88488 5.97184 8.06746 6.20958 8.06746H17.8447C18.0825 8.06746 18.2643 7.88488 18.2643 7.64611V4.21913C18.2643 3.98036 18.0825 3.79778 17.8447 3.79778ZM17.4252 7.22476H6.62911V4.64048H17.4252V7.22476Z"
          fill="#A3A8AF" stroke="#A3A8AF" stroke-width="0.5"/>
    <path d="M14.7401 14.3034H16.3483C16.5861 14.3034 16.7679 14.1208 16.7679 13.882C16.7679 13.6432 16.5861 13.4607 16.3483 13.4607H14.7401C14.5024 13.4607 14.3206 13.6432 14.3206 13.882C14.3206 14.1067 14.5024 14.3034 14.7401 14.3034Z"
          fill="#A3A8AF" stroke="#A3A8AF" stroke-width="0.5"/>
    <path d="M14.7401 15.9045H16.3483C16.5861 15.9045 16.7679 15.7219 16.7679 15.4832C16.7679 15.2444 16.5861 15.0618 16.3483 15.0618H14.7401C14.5024 15.0618 14.3206 15.2444 14.3206 15.4832C14.3206 15.7219 14.5024 15.9045 14.7401 15.9045Z"
          fill="#A3A8AF" stroke="#A3A8AF" stroke-width="0.5"/>
</svg>
