<svg viewBox="0 0 24 24" fill="none" xmlns="http://www.w3.org/2000/svg">
    <path d="M18.5833 2H6.2386C5.55049 2 5 2.55287 5 3.24395V20.756C5 21.4471 5.55049 22 6.2386 22H18.5833C19.2715 22 19.8219 21.4471 19.8219 20.756V3.25778C19.8219 2.56669 19.2715 2 18.5833 2ZM18.9962 20.756C18.9962 20.991 18.8173 21.1707 18.5833 21.1707H6.2386C6.00465 21.1707 5.82573 20.9772 5.82573 20.756V3.25778C5.82573 3.02281 6.00465 2.84312 6.2386 2.84312H18.5833C18.8173 2.84312 18.9962 3.03663 18.9962 3.25778V20.756Z"
          fill="#A3A8AF" stroke="#A3A8AF" stroke-width="0.5"/>
    <path d="M17.7025 15.4209H13.6977C13.4637 15.4209 13.2848 15.6006 13.2848 15.8356V19.8577C13.2848 20.0926 13.4637 20.2723 13.6977 20.2723H17.7025C17.9364 20.2723 18.1154 20.0926 18.1154 19.8577V15.8356C18.1154 15.6144 17.9227 15.4209 17.7025 15.4209ZM17.2896 19.443H14.1105V16.2502H17.2896V19.443Z"
          fill="#A3A8AF" stroke="#A3A8AF" stroke-width="0.5"/>
    <path d="M11.1379 15.4209H7.13308C6.89912 15.4209 6.72021 15.6006 6.72021 15.8356V19.8577C6.72021 20.0926 6.89912 20.2723 7.13308 20.2723H11.1379C11.3719 20.2723 11.5508 20.0926 11.5508 19.8577V15.8356C11.5508 15.6144 11.3581 15.4209 11.1379 15.4209ZM10.725 19.443H7.54595V16.2502H10.725V19.443Z"
          fill="#A3A8AF" stroke="#A3A8AF" stroke-width="0.5"/>
    <path d="M17.7025 9.57431H13.6977C13.4637 9.57431 13.2848 9.75399 13.2848 9.98896V14.0111C13.2848 14.246 13.4637 14.4257 13.6977 14.4257H17.7025C17.9364 14.4257 18.1154 14.246 18.1154 14.0111V9.98896C18.1154 9.76781 17.9227 9.57431 17.7025 9.57431ZM17.2896 13.5964H14.1105V10.4036H17.2896V13.5964Z"
          fill="#A3A8AF" stroke="#A3A8AF" stroke-width="0.5"/>
    <path d="M11.1379 9.57431H7.13308C6.89912 9.57431 6.72021 9.75399 6.72021 9.98896V14.0111C6.72021 14.246 6.89912 14.4257 7.13308 14.4257H11.1379C11.3719 14.4257 11.5508 14.246 11.5508 14.0111V9.98896C11.5508 9.76781 11.3581 9.57431 11.1379 9.57431ZM10.725 13.5964H7.54595V10.4036H10.725V13.5964Z"
          fill="#A3A8AF" stroke="#A3A8AF" stroke-width="0.5"/>
    <path d="M17.7025 3.72771H7.13308C6.89912 3.72771 6.72021 3.90739 6.72021 4.14236V7.84658C6.72021 8.08155 6.89912 8.26124 7.13308 8.26124H17.7025C17.9365 8.26124 18.1154 8.08155 18.1154 7.84658V4.15618C18.1154 3.92121 17.9227 3.72771 17.7025 3.72771ZM17.2896 7.44575H7.54595V4.57083H17.2896V7.44575Z"
          fill="#A3A8AF" stroke="#A3A8AF" stroke-width="0.5"/>
    <path d="M14.9089 12.3248H15.3769V12.7947C15.3769 12.9606 15.5145 13.1126 15.6934 13.1126C15.8723 13.1126 16.0099 12.9744 16.0099 12.7947V12.3248H16.4778C16.643 12.3248 16.7944 12.1866 16.7944 12.0069C16.7944 11.841 16.6567 11.689 16.4778 11.689H16.0099V11.219C16.0099 11.0532 15.8723 10.9011 15.6934 10.9011C15.5145 10.9011 15.3769 11.0394 15.3769 11.219V11.689H14.9089C14.7438 11.689 14.5924 11.8272 14.5924 12.0069C14.6062 12.1727 14.7438 12.3248 14.9089 12.3248Z"
          fill="#A3A8AF" stroke="#A3A8AF" stroke-width="0.5"/>
    <path d="M8.35791 18.6275C8.48177 18.7519 8.67444 18.7519 8.7983 18.6275L9.1286 18.2958L9.45889 18.6275C9.58275 18.7519 9.77542 18.7519 9.89928 18.6275C10.0231 18.5031 10.0231 18.3096 9.89928 18.1852L9.56899 17.8535L9.89928 17.5218C10.0231 17.3974 10.0231 17.2039 9.89928 17.0795C9.77542 16.9551 9.58275 16.9551 9.45889 17.0795L9.1286 17.4112L8.7983 17.0795C8.67444 16.9551 8.48177 16.9551 8.35791 17.0795C8.23405 17.2039 8.23405 17.3974 8.35791 17.5218L8.6882 17.8535L8.35791 18.1852C8.23405 18.3096 8.23405 18.5031 8.35791 18.6275Z"
          fill="#A3A8AF" stroke="#A3A8AF" stroke-width="0.5"/>
    <path d="M8.35804 12.3248H9.92694C10.0921 12.3248 10.2435 12.1866 10.2435 12.0069C10.2435 11.8411 10.1058 11.689 9.92694 11.689H8.35804C8.19289 11.689 8.0415 11.8272 8.0415 12.0069C8.0415 12.1728 8.17913 12.3248 8.35804 12.3248Z"
          fill="#A3A8AF" stroke="#A3A8AF" stroke-width="0.5"/>
    <path d="M14.9089 18.7934H16.4778C16.643 18.7934 16.7944 18.6551 16.7944 18.4755C16.7944 18.2958 16.6567 18.1576 16.4778 18.1576H14.9089C14.7438 18.1576 14.5924 18.2958 14.5924 18.4755C14.5924 18.6551 14.7438 18.7934 14.9089 18.7934Z"
          fill="#A3A8AF" stroke="#A3A8AF" stroke-width="0.5"/>
    <path d="M14.9089 17.5356H16.4778C16.643 17.5356 16.7944 17.3973 16.7944 17.2177C16.7944 17.0518 16.6567 16.8998 16.4778 16.8998H14.9089C14.7438 16.8998 14.5924 17.038 14.5924 17.2177C14.6062 17.3973 14.7438 17.5356 14.9089 17.5356Z"
          fill="#A3A8AF" stroke="#A3A8AF" stroke-width="0.5"/>
</svg>
