<svg viewBox="0 0 24 24" fill="none" xmlns="http://www.w3.org/2000/svg">
    <path d="M19.6722 5.05849H19.0407V2.42283C19.0407 2.18323 18.8582 2 18.6196 2H9.44152C9.20295 2 9.02051 2.18323 9.02051 2.42283V5.07259H8.03814C7.72939 4.00141 6.74703 3.21212 5.56819 3.21212C4.15077 3.21212 3 4.36786 3 5.7914V19.4207C3 20.8443 4.15077 22 5.56819 22C6.733 22 7.72939 21.2107 8.03814 20.1395H19.6722C20.8931 20.1395 21.8755 19.1529 21.8755 17.9267V7.27132C21.8755 6.0592 20.8931 5.05849 19.6722 5.05849ZM9.86253 2.84567H18.1846V5.07259H9.86253V2.84567ZM5.56819 21.1543C4.61389 21.1543 3.84203 20.3791 3.84203 19.4207V5.77731C3.84203 4.81889 4.61389 4.04369 5.56819 4.04369C6.55056 4.04369 7.29435 4.87526 7.29435 5.77731V19.4066C7.29435 20.3228 6.56459 21.1543 5.56819 21.1543ZM21.0335 17.9126C21.0335 18.6596 20.43 19.2798 19.6722 19.2798H8.13638V5.91825H19.6722C20.416 5.91825 21.0335 6.52431 21.0335 7.28541V17.9126Z"
          fill="#A3A8AF" stroke="#A3A8AF" stroke-width="0.5"/>
    <path d="M11.2098 17.2925H9.91869C9.68012 17.2925 9.49768 17.4757 9.49768 17.7153C9.49768 17.9549 9.68012 18.1381 9.91869 18.1381H11.2098C11.4484 18.1381 11.6308 17.9549 11.6308 17.7153C11.6308 17.4757 11.4343 17.2925 11.2098 17.2925Z"
          fill="#A3A8AF" stroke="#A3A8AF" stroke-width="0.5"/>
    <path d="M15.2235 17.2925H13.9464C13.7078 17.2925 13.5254 17.4757 13.5254 17.7153C13.5254 17.9549 13.7078 18.1381 13.9464 18.1381H15.2235C15.4621 18.1381 15.6445 17.9549 15.6445 17.7153C15.6586 17.4757 15.4621 17.2925 15.2235 17.2925Z"
          fill="#A3A8AF" stroke="#A3A8AF" stroke-width="0.5"/>
    <path d="M19.2512 17.2925H17.9741C17.7355 17.2925 17.5531 17.4757 17.5531 17.7153C17.5531 17.9549 17.7355 18.1381 17.9741 18.1381H19.2512C19.4898 18.1381 19.6722 17.9549 19.6722 17.7153C19.6722 17.4757 19.4898 17.2925 19.2512 17.2925Z"
          fill="#A3A8AF" stroke="#A3A8AF" stroke-width="0.5"/>
    <path d="M11.2098 14.6568H9.91869C9.68012 14.6568 9.49768 14.8401 9.49768 15.0797C9.49768 15.3193 9.68012 15.5025 9.91869 15.5025H11.2098C11.4484 15.5025 11.6308 15.3193 11.6308 15.0797C11.6308 14.8401 11.4343 14.6568 11.2098 14.6568Z"
          fill="#A3A8AF" stroke="#A3A8AF" stroke-width="0.5"/>
    <path d="M15.2235 14.6568H13.9464C13.7078 14.6568 13.5254 14.8401 13.5254 15.0797C13.5254 15.3193 13.7078 15.5025 13.9464 15.5025H15.2235C15.4621 15.5025 15.6445 15.3193 15.6445 15.0797C15.6586 14.8401 15.4621 14.6568 15.2235 14.6568Z"
          fill="#A3A8AF" stroke="#A3A8AF" stroke-width="0.5"/>
    <path d="M19.2512 14.6568H17.9741C17.7355 14.6568 17.5531 14.8401 17.5531 15.0797C17.5531 15.3193 17.7355 15.5025 17.9741 15.5025H19.2512C19.4898 15.5025 19.6722 15.3193 19.6722 15.0797C19.6722 14.8401 19.4898 14.6568 19.2512 14.6568Z"
          fill="#A3A8AF" stroke="#A3A8AF" stroke-width="0.5"/>
    <path d="M11.2098 12.0211H9.91869C9.68012 12.0211 9.49768 12.2044 9.49768 12.444C9.49768 12.6836 9.68012 12.8668 9.91869 12.8668H11.2098C11.4484 12.8668 11.6308 12.6836 11.6308 12.444C11.6308 12.2044 11.4343 12.0211 11.2098 12.0211Z"
          fill="#A3A8AF" stroke="#A3A8AF" stroke-width="0.5"/>
    <path d="M15.2235 12.0211H13.9464C13.7078 12.0211 13.5254 12.2044 13.5254 12.444C13.5254 12.6836 13.7078 12.8668 13.9464 12.8668H15.2235C15.4621 12.8668 15.6445 12.6836 15.6445 12.444C15.6586 12.2044 15.4621 12.0211 15.2235 12.0211Z"
          fill="#A3A8AF" stroke="#A3A8AF" stroke-width="0.5"/>
    <path d="M19.2512 12.0211H17.9741C17.7355 12.0211 17.5531 12.2044 17.5531 12.444C17.5531 12.6836 17.7355 12.8668 17.9741 12.8668H19.2512C19.4898 12.8668 19.6722 12.6836 19.6722 12.444C19.6722 12.2044 19.4898 12.0211 19.2512 12.0211Z"
          fill="#A3A8AF" stroke="#A3A8AF" stroke-width="0.5"/>
    <path d="M19.6722 6.84846H9.49768C9.2591 6.84846 9.07666 7.03168 9.07666 7.27129V10.3439C9.07666 10.5835 9.2591 10.7667 9.49768 10.7667H19.6722C19.9108 10.7667 20.0932 10.5835 20.0932 10.3439V7.27129C20.0932 7.04578 19.9108 6.84846 19.6722 6.84846ZM19.2512 9.92104H9.91869V7.69412H19.2512V9.92104Z"
          fill="#A3A8AF" stroke="#A3A8AF" stroke-width="0.5"/>
    <path d="M5.56823 6.96128C5.32966 6.96128 5.14722 7.14451 5.14722 7.38411V17.814C5.14722 18.0536 5.32966 18.2368 5.56823 18.2368C5.80681 18.2368 5.98925 18.0536 5.98925 17.814V7.38411C5.98925 7.14451 5.80681 6.96128 5.56823 6.96128Z"
          fill="#A3A8AF" stroke="#A3A8AF" stroke-width="0.5"/>
</svg>
