<svg viewBox="0 0 24 24" fill="none" xmlns="http://www.w3.org/2000/svg">
    <path d="M17.0971 6.56743H15.805V2.38168C15.805 2.16539 15.6403 2 15.4249 2H8.81228C8.59693 2 8.43224 2.16539 8.43224 2.38168V6.56743H7.14011C6.50672 6.56743 6 7.07634 6 7.71247V20.855C6 21.4911 6.50672 22 7.14011 22H17.0971C17.7305 22 18.2372 21.4911 18.2372 20.855V7.71247C18.2372 7.08906 17.7305 6.56743 17.0971 6.56743ZM9.19232 2.76336H15.0322V8.39949H9.19232V2.76336ZM17.4771 20.855C17.4771 21.0712 17.3125 21.2366 17.0971 21.2366H7.14011C6.92476 21.2366 6.76007 21.0585 6.76007 20.855V7.71247C6.76007 7.49618 6.92476 7.33079 7.14011 7.33079H8.43224V8.39949H8.14088C7.92553 8.39949 7.76084 8.56489 7.76084 8.78117C7.76084 8.99746 7.92553 9.16285 8.14088 9.16285H16.0963C16.3117 9.16285 16.4764 8.99746 16.4764 8.78117C16.4764 8.56489 16.3117 8.39949 16.0963 8.39949H15.805V7.33079H17.0971C17.3125 7.33079 17.4771 7.50891 17.4771 7.71247V20.855Z"
          fill="#A3A8AF" stroke="#A3A8AF" stroke-width="0.5"/>
    <path d="M16.0964 10.3079H8.1409C7.92555 10.3079 7.76086 10.4733 7.76086 10.6896V12.8142C7.76086 13.0305 7.92555 13.1959 8.1409 13.1959H16.0964C16.3117 13.1959 16.4764 13.0305 16.4764 12.8142V10.6896C16.4764 10.486 16.2991 10.3079 16.0964 10.3079ZM15.7163 12.4326H8.52094V11.084H15.7163V12.4326Z"
          fill="#A3A8AF" stroke="#A3A8AF" stroke-width="0.5"/>
    <path d="M9.10364 14.4809H8.12821C7.91285 14.4809 7.74817 14.6463 7.74817 14.8626C7.74817 15.0789 7.91285 15.2443 8.12821 15.2443H9.10364C9.31899 15.2443 9.48367 15.0789 9.48367 14.8626C9.48367 14.6463 9.31899 14.4809 9.10364 14.4809Z"
          fill="#A3A8AF" stroke="#A3A8AF" stroke-width="0.5"/>
    <path d="M9.10364 16.7837H8.12821C7.91285 16.7837 7.74817 16.9491 7.74817 17.1654C7.74817 17.3817 7.91285 17.547 8.12821 17.547H9.10364C9.31899 17.547 9.48367 17.3817 9.48367 17.1654C9.48367 16.9491 9.31899 16.7837 9.10364 16.7837Z"
          fill="#A3A8AF" stroke="#A3A8AF" stroke-width="0.5"/>
    <path d="M9.10364 19.0992H8.12821C7.91285 19.0992 7.74817 19.2646 7.74817 19.4809C7.74817 19.6972 7.91285 19.8626 8.12821 19.8626H9.10364C9.31899 19.8626 9.48367 19.6972 9.48367 19.4809C9.48367 19.2646 9.31899 19.0992 9.10364 19.0992Z"
          fill="#A3A8AF" stroke="#A3A8AF" stroke-width="0.5"/>
    <path d="M12.6 14.4809H11.6245C11.4092 14.4809 11.2445 14.6463 11.2445 14.8626C11.2445 15.0789 11.4092 15.2443 11.6245 15.2443H12.6C12.8153 15.2443 12.98 15.0789 12.98 14.8626C12.98 14.6463 12.8153 14.4809 12.6 14.4809Z"
          fill="#A3A8AF" stroke="#A3A8AF" stroke-width="0.5"/>
    <path d="M12.6 16.7837H11.6245C11.4092 16.7837 11.2445 16.9491 11.2445 17.1654C11.2445 17.3817 11.4092 17.547 11.6245 17.547H12.6C12.8153 17.547 12.98 17.3817 12.98 17.1654C12.98 16.9491 12.8153 16.7837 12.6 16.7837Z"
          fill="#A3A8AF" stroke="#A3A8AF" stroke-width="0.5"/>
    <path d="M12.6 19.0992H11.6245C11.4092 19.0992 11.2445 19.2646 11.2445 19.4809C11.2445 19.6972 11.4092 19.8626 11.6245 19.8626H12.6C12.8153 19.8626 12.98 19.6972 12.98 19.4809C12.98 19.2646 12.8153 19.0992 12.6 19.0992Z"
          fill="#A3A8AF" stroke="#A3A8AF" stroke-width="0.5"/>
    <path d="M16.0964 14.4809H15.121C14.9057 14.4809 14.741 14.6463 14.741 14.8626C14.741 15.0789 14.9057 15.2443 15.121 15.2443H16.0964C16.3118 15.2443 16.4765 15.0789 16.4765 14.8626C16.4765 14.6463 16.2991 14.4809 16.0964 14.4809Z"
          fill="#A3A8AF" stroke="#A3A8AF" stroke-width="0.5"/>
    <path d="M16.0964 16.7837H15.121C14.9057 16.7837 14.741 16.9491 14.741 17.1654C14.741 17.3817 14.9057 17.547 15.121 17.547H16.0964C16.3118 17.547 16.4765 17.3817 16.4765 17.1654C16.4765 16.9491 16.2991 16.7837 16.0964 16.7837Z"
          fill="#A3A8AF" stroke="#A3A8AF" stroke-width="0.5"/>
    <path d="M16.0964 19.0992H15.121C14.9057 19.0992 14.741 19.2646 14.741 19.4809C14.741 19.6972 14.9057 19.8626 15.121 19.8626H16.0964C16.3118 19.8626 16.4765 19.6972 16.4765 19.4809C16.4765 19.2646 16.2991 19.0992 16.0964 19.0992Z"
          fill="#A3A8AF" stroke="#A3A8AF" stroke-width="0.5"/>
    <path d="M10.4845 4.87532H13.7529C13.9682 4.87532 14.1329 4.70993 14.1329 4.49364C14.1329 4.27736 13.9682 4.11196 13.7529 4.11196H10.4845C10.2692 4.11196 10.1045 4.27736 10.1045 4.49364C10.1045 4.6972 10.2692 4.87532 10.4845 4.87532Z"
          fill="#A3A8AF" stroke="#A3A8AF" stroke-width="0.5"/>
    <path d="M10.4845 7.06361H13.7529C13.9682 7.06361 14.1329 6.89821 14.1329 6.68193C14.1329 6.46564 13.9682 6.30025 13.7529 6.30025H10.4845C10.2692 6.30025 10.1045 6.46564 10.1045 6.68193C10.1045 6.88549 10.2692 7.06361 10.4845 7.06361Z"
          fill="#A3A8AF" stroke="#A3A8AF" stroke-width="0.5"/>
</svg>
