<svg viewBox="0 0 24 24" fill="none" xmlns="http://www.w3.org/2000/svg">
    <path d="M8.18721 5.98978H7.00386V4.58062C7.00386 4.29199 6.7841 4.07128 6.49671 4.07128C6.20933 4.07128 5.98957 4.29199 5.98957 4.58062V5.98978H4.80622C4.51884 5.98978 4.29907 6.2105 4.29907 6.49912C4.29907 6.78775 4.51884 7.00846 4.80622 7.00846H5.98957V8.41763C5.98957 8.70626 6.20933 8.92697 6.49671 8.92697C6.7841 8.92697 7.00386 8.70626 7.00386 8.41763V7.00846H8.18721C8.47459 7.00846 8.69436 6.78775 8.69436 6.49912C8.69436 6.22748 8.45769 5.98978 8.18721 5.98978Z"
          fill="#A3A8AF" stroke="#A3A8AF" stroke-width="0.5"/>
    <path d="M9.45508 2H3.52144C2.6762 2 2 2.67912 2 3.52801V9.48726C2 10.3362 2.6762 11.0153 3.52144 11.0153H9.45508C10.3003 11.0153 10.9765 10.3362 10.9765 9.48726V3.52801C10.9765 2.67912 10.3003 2 9.45508 2ZM9.96223 9.48726C9.96223 9.77588 9.74246 9.9966 9.45508 9.9966H3.52144C3.23406 9.9966 3.0143 9.75891 3.0143 9.48726V3.52801C3.0143 3.23939 3.23406 3.01867 3.52144 3.01867H9.45508C9.74246 3.01867 9.96223 3.25637 9.96223 3.52801V9.48726Z"
          fill="#A3A8AF" stroke="#A3A8AF" stroke-width="0.5"/>
    <path d="M20.3926 2H14.4589C13.6137 2 12.9375 2.67912 12.9375 3.52801V9.48726C12.9375 10.3362 13.6137 11.0153 14.4589 11.0153H20.3926C21.2378 11.0153 21.914 10.3362 21.914 9.48726V3.52801C21.914 2.67912 21.2378 2 20.3926 2ZM20.8997 9.48726C20.8997 9.77588 20.6799 9.9966 20.3926 9.9966H14.4589C14.1716 9.9966 13.9518 9.75891 13.9518 9.48726V3.52801C13.9518 3.23939 14.1716 3.01867 14.4589 3.01867H20.3926C20.6799 3.01867 20.8997 3.25637 20.8997 3.52801V9.48726Z"
          fill="#A3A8AF" stroke="#A3A8AF" stroke-width="0.5"/>
    <path d="M9.45508 12.9847H3.52144C2.6762 12.9847 2 13.6638 2 14.5127V20.472C2 21.3209 2.6762 22 3.52144 22H9.45508C10.3003 22 10.9765 21.3209 10.9765 20.472V14.5127C10.9765 13.6638 10.3003 12.9847 9.45508 12.9847ZM9.96223 20.472C9.96223 20.7606 9.74246 20.9813 9.45508 20.9813H3.52144C3.23406 20.9813 3.0143 20.7436 3.0143 20.472V14.5127C3.0143 14.2241 3.23406 14.0034 3.52144 14.0034H9.45508C9.74246 14.0034 9.96223 14.2411 9.96223 14.5127V20.472Z"
          fill="#A3A8AF" stroke="#A3A8AF" stroke-width="0.5"/>
    <path d="M20.3926 12.9847H14.4589C13.6137 12.9847 12.9375 13.6638 12.9375 14.5127V20.472C12.9375 21.3209 13.6137 22 14.4589 22H20.3926C21.2378 22 21.914 21.3209 21.914 20.472V14.5127C21.914 13.6638 21.2378 12.9847 20.3926 12.9847ZM20.8997 20.472C20.8997 20.7606 20.6799 20.9813 20.3926 20.9813H14.4589C14.1716 20.9813 13.9518 20.7436 13.9518 20.472V14.5127C13.9518 14.2241 14.1716 14.0034 14.4589 14.0034H20.3926C20.6799 14.0034 20.8997 14.2411 20.8997 14.5127V20.472Z"
          fill="#A3A8AF" stroke="#A3A8AF" stroke-width="0.5"/>
    <path d="M8.39005 16.9745H4.56953C4.28214 16.9745 4.06238 17.1953 4.06238 17.4839C4.06238 17.7725 4.28214 17.9932 4.56953 17.9932H8.39005C8.67743 17.9932 8.89719 17.7725 8.89719 17.4839C8.89719 17.1953 8.67743 16.9745 8.39005 16.9745Z"
          fill="#A3A8AF" stroke="#A3A8AF" stroke-width="0.5"/>
    <path d="M19.3782 4.54672C19.1753 4.34299 18.8541 4.34299 18.6513 4.54672L17.4172 5.78611L16.1831 4.54672C15.9803 4.34299 15.6591 4.34299 15.4562 4.54672C15.2534 4.75046 15.2534 5.07304 15.4562 5.27677L16.6903 6.51616L15.4562 7.75554C15.2534 7.95928 15.2534 8.28186 15.4562 8.4856C15.6591 8.68933 15.9803 8.68933 16.1831 8.4856L17.4172 7.24621L18.6513 8.4856C18.8541 8.68933 19.1753 8.68933 19.3782 8.4856C19.5811 8.28186 19.5811 7.95928 19.3782 7.75554L18.1441 6.51616L19.3782 5.27677C19.5642 5.07304 19.5642 4.75046 19.3782 4.54672Z"
          fill="#A3A8AF" stroke="#A3A8AF" stroke-width="0.5"/>
    <path d="M17.1469 16.2105H17.7048C17.9922 16.2105 18.2119 15.9898 18.2119 15.7012C18.2119 15.4126 17.9922 15.1918 17.7048 15.1918H17.1469C16.8595 15.1918 16.6398 15.4126 16.6398 15.7012C16.6229 15.9898 16.8595 16.2105 17.1469 16.2105Z"
          fill="#A3A8AF" stroke="#A3A8AF" stroke-width="0.5"/>
    <path d="M19.7503 16.9745H15.1014C14.814 16.9745 14.5942 17.1953 14.5942 17.4839C14.5942 17.7725 14.814 17.9932 15.1014 17.9932H19.7503C20.0376 17.9932 20.2574 17.7725 20.2574 17.4839C20.2574 17.1953 20.0207 16.9745 19.7503 16.9745Z"
          fill="#A3A8AF" stroke="#A3A8AF" stroke-width="0.5"/>
    <path d="M17.7047 18.7741H17.1468C16.8594 18.7741 16.6396 18.9949 16.6396 19.2835C16.6396 19.5721 16.8594 19.7928 17.1468 19.7928H17.7047C17.9921 19.7928 18.2118 19.5721 18.2118 19.2835C18.2118 18.9949 17.9921 18.7741 17.7047 18.7741Z"
          fill="#A3A8AF" stroke="#A3A8AF" stroke-width="0.5"/>
</svg>
