<svg viewBox="0 0 24 24" fill="none" xmlns="http://www.w3.org/2000/svg">
    <path d="M16.1385 11.1152H15.6631V10.6376C15.6631 10.4691 15.5232 10.3146 15.3414 10.3146C15.1736 10.3146 15.0198 10.4551 15.0198 10.6376V11.1152H14.5443C14.3765 11.1152 14.2227 11.2556 14.2227 11.4382C14.2227 11.6067 14.3625 11.7612 14.5443 11.7612H15.0198V12.2388C15.0198 12.4073 15.1596 12.5618 15.3414 12.5618C15.5092 12.5618 15.6631 12.4214 15.6631 12.2388V11.7612H16.1385C16.3064 11.7612 16.4602 11.6208 16.4602 11.4382C16.4602 11.2556 16.3203 11.1152 16.1385 11.1152Z"
          fill="#A3A8AF" stroke="#A3A8AF" stroke-width="0.5"/>
    <path d="M9.48196 10.6376C9.3561 10.5112 9.16032 10.5112 9.03445 10.6376L8.69882 10.9747L8.36319 10.6376C8.23733 10.5112 8.04155 10.5112 7.91569 10.6376C7.78982 10.764 7.78982 10.9607 7.91569 11.0871L8.25132 11.4241L7.91569 11.7612C7.78982 11.8876 7.78982 12.0843 7.91569 12.2107C8.04155 12.3371 8.23733 12.3371 8.36319 12.2107L8.69882 11.8736L9.03445 12.2107C9.16032 12.3371 9.3561 12.3371 9.48196 12.2107C9.60782 12.0843 9.60782 11.8876 9.48196 11.7612L9.14633 11.4241L9.48196 11.0871C9.60782 10.9607 9.60782 10.764 9.48196 10.6376Z"
          fill="#A3A8AF" stroke="#A3A8AF" stroke-width="0.5"/>
    <path d="M9.49597 17.1966H7.90173C7.73391 17.1966 7.58008 17.3371 7.58008 17.5197C7.58008 17.6882 7.71993 17.8427 7.90173 17.8427H9.49597C9.66378 17.8427 9.81761 17.7023 9.81761 17.5197C9.80363 17.3371 9.66378 17.1966 9.49597 17.1966Z"
          fill="#A3A8AF" stroke="#A3A8AF" stroke-width="0.5"/>
    <path d="M16.1385 17.8287H14.5443C14.3765 17.8287 14.2227 17.9691 14.2227 18.1517C14.2227 18.3343 14.3625 18.4747 14.5443 18.4747H16.1385C16.3064 18.4747 16.4602 18.3343 16.4602 18.1517C16.4602 17.9691 16.3203 17.8287 16.1385 17.8287Z"
          fill="#A3A8AF" stroke="#A3A8AF" stroke-width="0.5"/>
    <path d="M16.1385 16.5646H14.5443C14.3765 16.5646 14.2227 16.7051 14.2227 16.8876C14.2227 17.0562 14.3625 17.2107 14.5443 17.2107H16.1385C16.3064 17.2107 16.4602 17.0702 16.4602 16.8876C16.4602 16.7051 16.3203 16.5646 16.1385 16.5646Z"
          fill="#A3A8AF" stroke="#A3A8AF" stroke-width="0.5"/>
    <path d="M18.7957 2H5.25861C4.55938 2 4 2.5618 4 3.26404V20.736C4 21.4382 4.55938 22 5.25861 22H18.7957C19.4949 22 20.0543 21.4382 20.0543 20.736V3.26404C20.0543 2.5618 19.4809 2 18.7957 2ZM19.2152 20.736C19.2152 20.9747 19.0334 21.1573 18.7957 21.1573H5.25861C5.02087 21.1573 4.83907 20.9607 4.83907 20.736V3.26404C4.83907 3.02528 5.02087 2.8427 5.25861 2.8427H18.7957C19.0334 2.8427 19.2152 3.03933 19.2152 3.26404V20.736Z"
          fill="#A3A8AF" stroke="#A3A8AF" stroke-width="0.5"/>
    <path d="M8.69883 14.809C7.21646 14.809 6.01379 16.0169 6.01379 17.5056C6.01379 18.9944 7.21646 20.2023 8.69883 20.2023C10.1812 20.2023 11.3839 18.9944 11.3839 17.5056C11.3839 16.0169 10.1812 14.809 8.69883 14.809ZM8.69883 19.3596C7.67796 19.3596 6.85287 18.5309 6.85287 17.5056C6.85287 16.4803 7.67796 15.6517 8.69883 15.6517C9.7197 15.6517 10.5448 16.4803 10.5448 17.5056C10.5448 18.5309 9.7197 19.3596 8.69883 19.3596Z"
          fill="#A3A8AF" stroke="#A3A8AF" stroke-width="0.5"/>
    <path d="M15.3554 14.809C13.8731 14.809 12.6704 16.0169 12.6704 17.5056C12.6704 18.9944 13.8731 20.2023 15.3554 20.2023C16.8378 20.2023 18.0405 18.9944 18.0405 17.5056C18.0405 16.0169 16.8378 14.809 15.3554 14.809ZM15.3554 19.3596C14.3346 19.3596 13.5095 18.5309 13.5095 17.5056C13.5095 16.4803 14.3346 15.6517 15.3554 15.6517C16.3763 15.6517 17.2014 16.4803 17.2014 17.5056C17.2014 18.5309 16.3623 19.3596 15.3554 19.3596Z"
          fill="#A3A8AF" stroke="#A3A8AF" stroke-width="0.5"/>
    <path d="M8.69883 8.72755C7.21646 8.72755 6.01379 9.93542 6.01379 11.4242C6.01379 12.913 7.21646 14.1208 8.69883 14.1208C10.1812 14.1208 11.3839 12.913 11.3839 11.4242C11.3839 9.93542 10.1812 8.72755 8.69883 8.72755ZM8.69883 13.2781C7.67796 13.2781 6.85287 12.4495 6.85287 11.4242C6.85287 10.3989 7.67796 9.57025 8.69883 9.57025C9.7197 9.57025 10.5448 10.3989 10.5448 11.4242C10.5448 12.4495 9.7197 13.2781 8.69883 13.2781Z"
          fill="#A3A8AF" stroke="#A3A8AF" stroke-width="0.5"/>
    <path d="M15.3554 8.72755C13.8731 8.72755 12.6704 9.93542 12.6704 11.4242C12.6704 12.913 13.8731 14.1208 15.3554 14.1208C16.8378 14.1208 18.0405 12.913 18.0405 11.4242C18.0405 9.93542 16.8378 8.72755 15.3554 8.72755ZM15.3554 13.2781C14.3346 13.2781 13.5095 12.4495 13.5095 11.4242C13.5095 10.3989 14.3346 9.57025 15.3554 9.57025C16.3763 9.57025 17.2014 10.3989 17.2014 11.4242C17.2014 12.4495 16.3623 13.2781 15.3554 13.2781Z"
          fill="#A3A8AF" stroke="#A3A8AF" stroke-width="0.5"/>
    <path d="M17.8447 3.79778H6.20958C5.97184 3.79778 5.79004 3.98036 5.79004 4.21913V7.43544C5.79004 7.6742 5.97184 7.85679 6.20958 7.85679H17.8447C18.0825 7.85679 18.2643 7.6742 18.2643 7.43544V4.21913C18.2643 3.98036 18.0825 3.79778 17.8447 3.79778ZM17.4252 7.01409H6.62911V4.64048H17.4252V7.01409Z"
          fill="#A3A8AF" stroke="#A3A8AF" stroke-width="0.5"/>
</svg>
