<svg viewBox="0 0 24 24" fill="none" xmlns="http://www.w3.org/2000/svg">
    <path d="M18.3149 2H5.53727C4.69107 2 4 2.69405 4 3.54391V20.4561C4 21.306 4.69107 22 5.53727 22H18.3149C19.1611 22 19.8522 21.306 19.8522 20.4561V3.54391C19.8522 2.69405 19.1611 2 18.3149 2ZM19.006 20.4561C19.006 20.8385 18.6957 21.1501 18.3149 21.1501H5.53727C5.15648 21.1501 4.8462 20.8385 4.8462 20.4561V3.54391C4.8462 3.16147 5.15648 2.84986 5.53727 2.84986H18.3149C18.6957 2.84986 19.006 3.16147 19.006 3.54391V20.4561Z"
          fill="#A3A8AF" stroke="#A3A8AF" stroke-width="0.5"/>
    <path d="M17.2713 4.39374H6.58094C6.34118 4.39374 6.15784 4.57787 6.15784 4.81867V8.13311C6.15784 8.37391 6.34118 8.55804 6.58094 8.55804H17.2713C17.5111 8.55804 17.6944 8.37391 17.6944 8.13311V4.81867C17.6944 4.57787 17.497 4.39374 17.2713 4.39374ZM16.8341 7.70818H7.00404V5.24359H16.8341V7.70818Z"
          fill="#A3A8AF" stroke="#A3A8AF" stroke-width="0.5"/>
    <path d="M8.4002 11.2918H6.98987C6.75012 11.2918 6.56677 11.4759 6.56677 11.7167C6.56677 11.9575 6.75012 12.1416 6.98987 12.1416H8.4002C8.63995 12.1416 8.8233 11.9575 8.8233 11.7167C8.8233 11.4901 8.63995 11.2918 8.4002 11.2918Z"
          fill="#A3A8AF" stroke="#A3A8AF" stroke-width="0.5"/>
    <path d="M8.4002 14.6629H6.98987C6.75012 14.6629 6.56677 14.847 6.56677 15.0878C6.56677 15.3286 6.75012 15.5127 6.98987 15.5127H8.4002C8.63995 15.5127 8.8233 15.3286 8.8233 15.0878C8.8233 14.847 8.63995 14.6629 8.4002 14.6629Z"
          fill="#A3A8AF" stroke="#A3A8AF" stroke-width="0.5"/>
    <path d="M8.4002 18.0198H6.98987C6.75012 18.0198 6.56677 18.204 6.56677 18.4448C6.56677 18.6856 6.75012 18.8697 6.98987 18.8697H8.4002C8.63995 18.8697 8.8233 18.6856 8.8233 18.4448C8.8233 18.204 8.63995 18.0198 8.4002 18.0198Z"
          fill="#A3A8AF" stroke="#A3A8AF" stroke-width="0.5"/>
    <path d="M12.6313 11.2918H11.221C10.9812 11.2918 10.7979 11.4759 10.7979 11.7167C10.7979 11.9575 10.9812 12.1416 11.221 12.1416H12.6313C12.8711 12.1416 13.0544 11.9575 13.0544 11.7167C13.0544 11.4901 12.8569 11.2918 12.6313 11.2918Z"
          fill="#A3A8AF" stroke="#A3A8AF" stroke-width="0.5"/>
    <path d="M12.6313 14.6629H11.221C10.9812 14.6629 10.7979 14.847 10.7979 15.0878C10.7979 15.3286 10.9812 15.5127 11.221 15.5127H12.6313C12.8711 15.5127 13.0544 15.3286 13.0544 15.0878C13.0544 14.847 12.8569 14.6629 12.6313 14.6629Z"
          fill="#A3A8AF" stroke="#A3A8AF" stroke-width="0.5"/>
    <path d="M12.6313 18.0198H11.221C10.9812 18.0198 10.7979 18.204 10.7979 18.4448C10.7979 18.6856 10.9812 18.8697 11.221 18.8697H12.6313C12.8711 18.8697 13.0544 18.6856 13.0544 18.4448C13.0544 18.204 12.8569 18.0198 12.6313 18.0198Z"
          fill="#A3A8AF" stroke="#A3A8AF" stroke-width="0.5"/>
    <path d="M16.8624 11.2918H15.452C15.2123 11.2918 15.0289 11.4759 15.0289 11.7167C15.0289 11.9575 15.2123 12.1416 15.452 12.1416H16.8624C17.1021 12.1416 17.2855 11.9575 17.2855 11.7167C17.2855 11.4901 17.088 11.2918 16.8624 11.2918Z"
          fill="#A3A8AF" stroke="#A3A8AF" stroke-width="0.5"/>
    <path d="M16.8624 14.6629H15.452C15.2123 14.6629 15.0289 14.847 15.0289 15.0878C15.0289 15.3286 15.2123 15.5127 15.452 15.5127H16.8624C17.1021 15.5127 17.2855 15.3286 17.2855 15.0878C17.2855 14.847 17.088 14.6629 16.8624 14.6629Z"
          fill="#A3A8AF" stroke="#A3A8AF" stroke-width="0.5"/>
    <path d="M16.8624 18.0198H15.452C15.2123 18.0198 15.0289 18.204 15.0289 18.4448C15.0289 18.6856 15.2123 18.8697 15.452 18.8697H16.8624C17.1021 18.8697 17.2855 18.6856 17.2855 18.4448C17.2855 18.204 17.088 18.0198 16.8624 18.0198Z"
          fill="#A3A8AF" stroke="#A3A8AF" stroke-width="0.5"/>
</svg>
