<svg viewBox="0 0 24 24" fill="none" xmlns="http://www.w3.org/2000/svg">
    <path d="M18.5834 2H6.2386C5.55049 2 5 2.55287 5 3.24395V20.756C5 21.4471 5.55049 22 6.2386 22H18.5834C19.2715 22 19.822 21.4471 19.822 20.756V3.25778C19.822 2.56669 19.2715 2 18.5834 2ZM18.9962 20.756C18.9962 20.991 18.8173 21.1707 18.5834 21.1707H6.2386C6.00465 21.1707 5.82574 20.9772 5.82574 20.756V3.25778C5.82574 3.02281 6.00465 2.84312 6.2386 2.84312H18.5834C18.8173 2.84312 18.9962 3.03663 18.9962 3.25778V20.756Z"
          fill="#A3A8AF" stroke="#A3A8AF" stroke-width="0.5"/>
    <path d="M17.7026 3.72777H7.1332C6.89925 3.72777 6.72034 3.90745 6.72034 4.14242V8.27507C6.72034 8.51003 6.89925 8.68971 7.1332 8.68971H17.7026C17.9366 8.68971 18.1155 8.51003 18.1155 8.27507V4.15624C18.1155 3.92127 17.9228 3.72777 17.7026 3.72777ZM17.2898 7.86042H7.54607V4.57089H17.2898V7.86042Z"
          fill="#A3A8AF" stroke="#A3A8AF" stroke-width="0.5"/>
    <path d="M9.19738 10.6385C8.96343 10.6385 8.78452 10.8182 8.78452 11.0532V12.0898H7.9175C7.68355 12.0898 7.50464 12.2695 7.50464 12.5045C7.50464 12.7395 7.68355 12.9191 7.9175 12.9191H8.78452V13.9558C8.78452 14.1907 8.96343 14.3704 9.19738 14.3704C9.43134 14.3704 9.61025 14.1907 9.61025 13.9558V12.9191H10.4773C10.7112 12.9191 10.8901 12.7395 10.8901 12.5045C10.8901 12.2695 10.7112 12.0898 10.4773 12.0898H9.61025V11.0532C9.61025 10.8321 9.43134 10.6385 9.19738 10.6385Z"
          fill="#A3A8AF" stroke="#A3A8AF" stroke-width="0.5"/>
    <path d="M17.0694 18.3096H14.1931C13.9592 18.3096 13.7803 18.4893 13.7803 18.7243C13.7803 18.9592 13.9592 19.1389 14.1931 19.1389H17.0694C17.3034 19.1389 17.4823 18.9592 17.4823 18.7243C17.4823 18.5031 17.3034 18.3096 17.0694 18.3096Z"
          fill="#A3A8AF" stroke="#A3A8AF" stroke-width="0.5"/>
    <path d="M17.0694 16.3469H14.1931C13.9592 16.3469 13.7803 16.5266 13.7803 16.7616C13.7803 16.9966 13.9592 17.1762 14.1931 17.1762H17.0694C17.3034 17.1762 17.4823 16.9966 17.4823 16.7616C17.4823 16.5266 17.3034 16.3469 17.0694 16.3469Z"
          fill="#A3A8AF" stroke="#A3A8AF" stroke-width="0.5"/>
    <path d="M13.8215 13.9973C13.9866 14.1631 14.2481 14.1631 14.4133 13.9973L15.3216 13.085L16.2299 13.9973C16.395 14.1631 16.6565 14.1631 16.8217 13.9973C16.9868 13.8314 16.9868 13.5688 16.8217 13.4029L15.9134 12.4907L16.8217 11.5785C16.9868 11.4126 16.9868 11.15 16.8217 10.9841C16.6565 10.8183 16.395 10.8183 16.2299 10.9841L15.3216 11.8964L14.4133 10.9841C14.2481 10.8183 13.9866 10.8183 13.8215 10.9841C13.6563 11.15 13.6563 11.4126 13.8215 11.5785L14.7298 12.4907L13.8215 13.4029C13.6701 13.5826 13.6701 13.8452 13.8215 13.9973Z"
          fill="#A3A8AF" stroke="#A3A8AF" stroke-width="0.5"/>
    <path d="M9.72036 18.6828H9.29373C9.05977 18.6828 8.88086 18.8625 8.88086 19.0974C8.88086 19.3324 9.05977 19.5121 9.29373 19.5121H9.72036C9.95432 19.5121 10.1332 19.3324 10.1332 19.0974C10.1332 18.8625 9.95432 18.6828 9.72036 18.6828Z"
          fill="#A3A8AF" stroke="#A3A8AF" stroke-width="0.5"/>
    <path d="M11.2618 17.3283H7.75247C7.51851 17.3283 7.3396 17.5079 7.3396 17.7429C7.3396 17.9779 7.51851 18.1576 7.75247 18.1576H11.2618C11.4958 18.1576 11.6747 17.9779 11.6747 17.7429C11.6747 17.5218 11.4958 17.3283 11.2618 17.3283Z"
          fill="#A3A8AF" stroke="#A3A8AF" stroke-width="0.5"/>
    <path d="M9.29373 15.9737C9.05977 15.9737 8.88086 16.1534 8.88086 16.3884C8.88086 16.6234 9.05977 16.803 9.29373 16.803H9.72036C9.95432 16.803 10.1332 16.6234 10.1332 16.3884C10.1332 16.1534 9.95432 15.9737 9.72036 15.9737H9.29373Z"
          fill="#A3A8AF" stroke="#A3A8AF" stroke-width="0.5"/>
</svg>
