<svg viewBox="0 0 24 24" fill="none" xmlns="http://www.w3.org/2000/svg">
    <path d="M20.6868 3H3.31289C2.58351 3 2 3.58603 2 4.31856V18.7788C2 19.5113 2.58351 20.0973 3.31289 20.0973H20.6868C21.4162 20.0973 21.9997 19.5113 21.9997 18.7788V4.31856C22.0143 3.60068 21.4162 3 20.6868 3ZM21.1245 18.7934C21.1245 19.0425 20.9348 19.2329 20.6868 19.2329H3.31289C3.0649 19.2329 2.87526 19.0278 2.87526 18.7934V4.33321C2.87526 4.08415 3.0649 3.89369 3.31289 3.89369H20.6868C20.9348 3.89369 21.1245 4.0988 21.1245 4.33321V18.7934Z"
          fill="#A3A8AF" stroke="#A3A8AF" stroke-width="0.5"/>
    <path d="M7.95172 14.618H4.71326C4.46527 14.618 4.27563 14.8085 4.27563 15.0575V17.6067C4.27563 17.8558 4.46527 18.0463 4.71326 18.0463H7.95172C8.19971 18.0463 8.38935 17.8558 8.38935 17.6067V15.0575C8.38935 14.8085 8.18512 14.618 7.95172 14.618ZM7.51409 17.1672H5.16548V15.4971H7.51409V17.1672Z"
          fill="#A3A8AF" stroke="#A3A8AF" stroke-width="0.5"/>
    <path d="M7.95172 10.1641H4.71326C4.46527 10.1641 4.27563 10.3546 4.27563 10.6037V13.1529C4.27563 13.402 4.46527 13.5924 4.71326 13.5924H7.95172C8.19971 13.5924 8.38935 13.402 8.38935 13.1529V10.6037C8.38935 10.3546 8.18512 10.1641 7.95172 10.1641ZM7.51409 12.7134H5.16548V11.0432H7.51409V12.7134Z"
          fill="#A3A8AF" stroke="#A3A8AF" stroke-width="0.5"/>
    <path d="M13.6264 14.618H10.3879C10.14 14.618 9.95032 14.8085 9.95032 15.0575V17.6067C9.95032 17.8558 10.14 18.0463 10.3879 18.0463H13.6264C13.8744 18.0463 14.064 17.8558 14.064 17.6067V15.0575C14.064 14.8085 13.8598 14.618 13.6264 14.618ZM13.1742 17.1672H10.8256V15.4971H13.1742V17.1672Z"
          fill="#A3A8AF" stroke="#A3A8AF" stroke-width="0.5"/>
    <path d="M13.6264 10.1641H10.3879C10.14 10.1641 9.95032 10.3546 9.95032 10.6037V13.1529C9.95032 13.402 10.14 13.5924 10.3879 13.5924H13.6264C13.8744 13.5924 14.064 13.402 14.064 13.1529V10.6037C14.064 10.3546 13.8598 10.1641 13.6264 10.1641ZM13.1742 12.7134H10.8256V11.0432H13.1742V12.7134Z"
          fill="#A3A8AF" stroke="#A3A8AF" stroke-width="0.5"/>
    <path d="M19.3011 10.1641H16.0626C15.8146 10.1641 15.625 10.3546 15.625 10.6037V17.6067C15.625 17.8558 15.8146 18.0462 16.0626 18.0462H19.3011C19.5491 18.0462 19.7387 17.8558 19.7387 17.6067V10.6037C19.7387 10.3546 19.5345 10.1641 19.3011 10.1641ZM18.8489 17.1672H16.5003V11.0432H18.8489V17.1672Z"
          fill="#A3A8AF" stroke="#A3A8AF" stroke-width="0.5"/>
    <path d="M19.301 5.06578H4.72791C4.47992 5.06578 4.29028 5.25624 4.29028 5.5053V8.6845C4.29028 8.93356 4.47992 9.12402 4.72791 9.12402H19.301C19.549 9.12402 19.7387 8.93356 19.7387 8.6845V5.5053C19.7387 5.27089 19.5344 5.06578 19.301 5.06578ZM18.8488 8.25963H5.15096V5.95947H18.8488V8.25963Z"
          fill="#A3A8AF" stroke="#A3A8AF" stroke-width="0.5"/>
</svg>
