<svg viewBox="0 0 24 24" fill="none" xmlns="http://www.w3.org/2000/svg">
    <path d="M20.6868 3H3.31289C2.58351 3 2 3.58603 2 4.31856V18.7788C2 19.5113 2.58351 20.0974 3.31289 20.0974H20.6868C21.4162 20.0974 21.9997 19.5113 21.9997 18.7788V4.31856C22.0143 3.60068 21.4162 3 20.6868 3ZM21.1245 18.7935C21.1245 19.0425 20.9348 19.233 20.6868 19.233H3.31289C3.0649 19.233 2.87526 19.0425 2.87526 18.7935V4.33322C2.87526 4.08416 3.0649 3.8937 3.31289 3.8937H20.6868C20.9348 3.8937 21.1245 4.08416 21.1245 4.33322V18.7935Z"
          fill="#A3A8AF" stroke="#A3A8AF" stroke-width="0.5"/>
    <path d="M19.301 5.06578H4.72791C4.47992 5.06578 4.29028 5.25624 4.29028 5.5053V9.56353C4.29028 9.81259 4.47992 10.003 4.72791 10.003H19.301C19.549 10.003 19.7387 9.81259 19.7387 9.56353V5.5053C19.7387 5.27089 19.5344 5.06578 19.301 5.06578ZM18.8488 9.13866H5.15096V5.95947H18.8488V9.13866Z"
          fill="#A3A8AF" stroke="#A3A8AF" stroke-width="0.5"/>
    <path d="M9.41051 13.2115H6.4784C6.23041 13.2115 6.04077 13.402 6.04077 13.6511V17.6947C6.04077 17.9437 6.23041 18.1342 6.4784 18.1342H9.41051C9.6585 18.1342 9.84813 17.9437 9.84813 17.6947V13.6511C9.84813 13.402 9.64391 13.2115 9.41051 13.2115ZM8.97288 17.2551H6.91603V14.0906H8.97288V17.2551Z"
          fill="#A3A8AF" stroke="#A3A8AF" stroke-width="0.5"/>
    <path d="M11.1756 11.6732H4.71327C4.46528 11.6732 4.27563 11.8637 4.27563 12.1127V13.9734C4.27563 14.2224 4.46528 14.4129 4.71327 14.4129C4.96126 14.4129 5.1509 14.2224 5.1509 13.9734V12.5522H10.7234V13.9734C10.7234 14.2224 10.9131 14.4129 11.1611 14.4129C11.409 14.4129 11.5987 14.2224 11.5987 13.9734V12.1127C11.6133 11.8637 11.409 11.6732 11.1756 11.6732Z"
          fill="#A3A8AF" stroke="#A3A8AF" stroke-width="0.5"/>
    <path d="M19.301 17.2551H18.7612C18.5132 17.2551 18.3236 17.4456 18.3236 17.6947C18.3236 17.9437 18.5132 18.1342 18.7612 18.1342H19.301C19.549 18.1342 19.7386 17.9437 19.7386 17.6947C19.7386 17.4456 19.5344 17.2551 19.301 17.2551Z"
          fill="#A3A8AF" stroke="#A3A8AF" stroke-width="0.5"/>
    <path d="M19.301 14.5301H18.7612C18.5132 14.5301 18.3236 14.7205 18.3236 14.9696C18.3236 15.2187 18.5132 15.4091 18.7612 15.4091H19.301C19.549 15.4091 19.7386 15.2187 19.7386 14.9696C19.7386 14.7205 19.5344 14.5301 19.301 14.5301Z"
          fill="#A3A8AF" stroke="#A3A8AF" stroke-width="0.5"/>
    <path d="M19.301 11.8051H18.7612C18.5132 11.8051 18.3236 11.9955 18.3236 12.2446C18.3236 12.4936 18.5132 12.6841 18.7612 12.6841H19.301C19.549 12.6841 19.7386 12.4936 19.7386 12.2446C19.7386 11.9955 19.5344 11.8051 19.301 11.8051Z"
          fill="#A3A8AF" stroke="#A3A8AF" stroke-width="0.5"/>
    <path d="M16.7043 17.2551H16.1646C15.9166 17.2551 15.7269 17.4456 15.7269 17.6947C15.7269 17.9437 15.9166 18.1342 16.1646 18.1342H16.7043C16.9523 18.1342 17.1419 17.9437 17.1419 17.6947C17.1419 17.4456 16.9377 17.2551 16.7043 17.2551Z"
          fill="#A3A8AF" stroke="#A3A8AF" stroke-width="0.5"/>
    <path d="M16.7043 14.5301H16.1646C15.9166 14.5301 15.7269 14.7205 15.7269 14.9696C15.7269 15.2187 15.9166 15.4091 16.1646 15.4091H16.7043C16.9523 15.4091 17.1419 15.2187 17.1419 14.9696C17.1419 14.7205 16.9377 14.5301 16.7043 14.5301Z"
          fill="#A3A8AF" stroke="#A3A8AF" stroke-width="0.5"/>
    <path d="M16.7043 11.8051H16.1646C15.9166 11.8051 15.7269 11.9955 15.7269 12.2446C15.7269 12.4936 15.9166 12.6841 16.1646 12.6841H16.7043C16.9523 12.6841 17.1419 12.4936 17.1419 12.2446C17.1419 11.9955 16.9377 11.8051 16.7043 11.8051Z"
          fill="#A3A8AF" stroke="#A3A8AF" stroke-width="0.5"/>
    <path d="M14.1079 17.2551H13.5681C13.3201 17.2551 13.1305 17.4456 13.1305 17.6947C13.1305 17.9437 13.3201 18.1342 13.5681 18.1342H14.1079C14.3559 18.1342 14.5455 17.9437 14.5455 17.6947C14.5455 17.4456 14.3413 17.2551 14.1079 17.2551Z"
          fill="#A3A8AF" stroke="#A3A8AF" stroke-width="0.5"/>
    <path d="M14.1079 14.5301H13.5681C13.3201 14.5301 13.1305 14.7205 13.1305 14.9696C13.1305 15.2187 13.3201 15.4091 13.5681 15.4091H14.1079C14.3559 15.4091 14.5455 15.2187 14.5455 14.9696C14.5455 14.7205 14.3413 14.5301 14.1079 14.5301Z"
          fill="#A3A8AF" stroke="#A3A8AF" stroke-width="0.5"/>
    <path d="M14.1079 11.8051H13.5681C13.3201 11.8051 13.1305 11.9955 13.1305 12.2446C13.1305 12.4936 13.3201 12.6841 13.5681 12.6841H14.1079C14.3559 12.6841 14.5455 12.4936 14.5455 12.2446C14.5455 11.9955 14.3413 11.8051 14.1079 11.8051Z"
          fill="#A3A8AF" stroke="#A3A8AF" stroke-width="0.5"/>
</svg>
