<svg viewBox="0 0 24 24" fill="none" xmlns="http://www.w3.org/2000/svg">
    <path d="M18.315 2H5.53727C4.69107 2 4 2.69405 4 3.54391V20.4561C4 21.306 4.69107 22 5.53727 22H18.315C19.1612 22 19.8522 21.306 19.8522 20.4561V3.54391C19.8522 2.69405 19.1612 2 18.315 2ZM19.006 20.4561C19.006 20.8385 18.6958 21.1501 18.315 21.1501H5.53727C5.15648 21.1501 4.84621 20.8385 4.84621 20.4561V3.54391C4.84621 3.16148 5.15648 2.84986 5.53727 2.84986H18.315C18.6958 2.84986 19.006 3.16148 19.006 3.54391V20.4561Z"
          fill="#A3A8AF" stroke="#A3A8AF" stroke-width="0.5"/>
    <path d="M17.2713 4.45045H6.58094C6.34118 4.45045 6.15784 4.63459 6.15784 4.87539V9.83291C6.15784 10.0737 6.34118 10.2578 6.58094 10.2578H17.2713C17.5111 10.2578 17.6944 10.0737 17.6944 9.83291V4.87539C17.6944 4.64876 17.497 4.45045 17.2713 4.45045ZM16.8482 9.40798H7.01814V5.30032H16.8482V9.40798Z"
          fill="#A3A8AF" stroke="#A3A8AF" stroke-width="0.5"/>
    <path d="M8.18866 12.5383H7.20142C6.96166 12.5383 6.77832 12.7224 6.77832 12.9632C6.77832 13.204 6.96166 13.3881 7.20142 13.3881H8.18866C8.42842 13.3881 8.61176 13.204 8.61176 12.9632C8.61176 12.7224 8.42842 12.5383 8.18866 12.5383Z"
          fill="#A3A8AF" stroke="#A3A8AF" stroke-width="0.5"/>
    <path d="M8.18866 15.6119H7.20142C6.96166 15.6119 6.77832 15.796 6.77832 16.0368C6.77832 16.2776 6.96166 16.4618 7.20142 16.4618H8.18866C8.42842 16.4618 8.61176 16.2776 8.61176 16.0368C8.61176 15.8102 8.42842 15.6119 8.18866 15.6119Z"
          fill="#A3A8AF" stroke="#A3A8AF" stroke-width="0.5"/>
    <path d="M8.18866 18.6856H7.20142C6.96166 18.6856 6.77832 18.8697 6.77832 19.1105C6.77832 19.3513 6.96166 19.5355 7.20142 19.5355H8.18866C8.42842 19.5355 8.61176 19.3513 8.61176 19.1105C8.61176 18.8839 8.42842 18.6856 8.18866 18.6856Z"
          fill="#A3A8AF" stroke="#A3A8AF" stroke-width="0.5"/>
    <path d="M12.4197 12.5383H11.4325C11.1927 12.5383 11.0094 12.7224 11.0094 12.9632C11.0094 13.204 11.1927 13.3881 11.4325 13.3881H12.4197C12.6595 13.3881 12.8428 13.204 12.8428 12.9632C12.8428 12.7224 12.6454 12.5383 12.4197 12.5383Z"
          fill="#A3A8AF" stroke="#A3A8AF" stroke-width="0.5"/>
    <path d="M12.4197 15.6119H11.4325C11.1927 15.6119 11.0094 15.796 11.0094 16.0368C11.0094 16.2776 11.1927 16.4618 11.4325 16.4618H12.4197C12.6595 16.4618 12.8428 16.2776 12.8428 16.0368C12.8428 15.8102 12.6454 15.6119 12.4197 15.6119Z"
          fill="#A3A8AF" stroke="#A3A8AF" stroke-width="0.5"/>
    <path d="M12.4197 18.6856H11.4325C11.1927 18.6856 11.0094 18.8697 11.0094 19.1105C11.0094 19.3513 11.1927 19.5355 11.4325 19.5355H12.4197C12.6595 19.5355 12.8428 19.3513 12.8428 19.1105C12.8428 18.8839 12.6454 18.6856 12.4197 18.6856Z"
          fill="#A3A8AF" stroke="#A3A8AF" stroke-width="0.5"/>
    <path d="M16.6507 12.5383H15.6635C15.4237 12.5383 15.2404 12.7224 15.2404 12.9632C15.2404 13.204 15.4237 13.3881 15.6635 13.3881H16.6507C16.8905 13.3881 17.0738 13.204 17.0738 12.9632C17.0738 12.7224 16.8763 12.5383 16.6507 12.5383Z"
          fill="#A3A8AF" stroke="#A3A8AF" stroke-width="0.5"/>
    <path d="M16.6507 15.6119H15.6635C15.4237 15.6119 15.2404 15.796 15.2404 16.0368C15.2404 16.2776 15.4237 16.4618 15.6635 16.4618H16.6507C16.8905 16.4618 17.0738 16.2776 17.0738 16.0368C17.0738 15.8102 16.8763 15.6119 16.6507 15.6119Z"
          fill="#A3A8AF" stroke="#A3A8AF" stroke-width="0.5"/>
    <path d="M16.6507 18.6856H15.6635C15.4237 18.6856 15.2404 18.8697 15.2404 19.1105C15.2404 19.3513 15.4237 19.5355 15.6635 19.5355H16.6507C16.8905 19.5355 17.0738 19.3513 17.0738 19.1105C17.0738 18.8839 16.8763 18.6856 16.6507 18.6856Z"
          fill="#A3A8AF" stroke="#A3A8AF" stroke-width="0.5"/>
    <path d="M12.5184 6.74507L12.7441 6.63176V8.24649H12.4056C12.3351 8.24649 12.2646 8.27481 12.2223 8.33147C12.18 8.38813 12.1517 8.44478 12.1517 8.51561C12.1517 8.58643 12.18 8.65726 12.2223 8.69975C12.2787 8.74224 12.3351 8.77057 12.4056 8.77057H13.5621C13.6326 8.77057 13.7031 8.74224 13.7454 8.69975C13.8018 8.64309 13.83 8.58643 13.83 8.51561C13.83 8.44478 13.8018 8.37397 13.7595 8.33147C13.7031 8.27481 13.6467 8.26065 13.5762 8.26065H13.3082V6.24932C13.3082 6.16433 13.28 6.10768 13.2236 6.05102C13.1672 5.99437 13.0967 5.96603 13.0261 5.96603H12.9415C12.8851 5.96603 12.8428 5.98021 12.7864 6.00853L12.2787 6.27765C12.1799 6.33431 12.1235 6.41929 12.1235 6.53261C12.1235 6.60343 12.1517 6.67425 12.1941 6.73091C12.2787 6.78757 12.3633 6.81589 12.5184 6.74507Z"
          fill="#A3A8AF" stroke="#A3A8AF" stroke-width="0.5"/>
    <path d="M15.4519 7.21245C15.3673 7.28327 15.2404 7.35408 15.0993 7.45323C14.916 7.56655 14.7749 7.6657 14.6621 7.75069C14.5493 7.83567 14.4506 7.94899 14.3659 8.0623C14.2813 8.18978 14.239 8.33142 14.239 8.48723C14.239 8.57222 14.2672 8.64304 14.3236 8.69969C14.38 8.75635 14.4506 8.78468 14.5352 8.78468H15.9737C16.0442 8.78468 16.1148 8.75635 16.1571 8.71385C16.2135 8.6572 16.2417 8.60054 16.2417 8.52972C16.2417 8.4589 16.2135 8.38808 16.1571 8.34559C16.1007 8.28893 16.0442 8.27477 15.9737 8.27477H14.8878C14.9019 8.2606 14.916 8.2606 14.916 8.24644C15.0006 8.17562 15.1275 8.09063 15.2968 7.96315C15.4942 7.83567 15.6494 7.72236 15.7763 7.62321C15.9032 7.52406 16.016 7.39658 16.1007 7.2691C16.1994 7.12746 16.2417 6.97165 16.2417 6.80168C16.2417 6.63171 16.1994 6.4759 16.1148 6.34843C16.0301 6.22095 15.9173 6.1218 15.7622 6.03681C15.6211 5.96599 15.4519 5.93767 15.2827 5.93767C14.9724 5.93767 14.6762 6.00848 14.4083 6.13596C14.3236 6.17845 14.2672 6.26345 14.2672 6.36259C14.2672 6.43342 14.2954 6.49007 14.3377 6.54673C14.4083 6.61755 14.5352 6.64588 14.6339 6.58922C14.8173 6.50423 15.0147 6.46174 15.2263 6.46174C15.4096 6.46174 15.5365 6.49007 15.607 6.56089C15.6776 6.61755 15.7058 6.70253 15.7058 6.81584C15.7058 6.88666 15.6776 6.94333 15.6352 6.99999C15.5929 7.08497 15.5224 7.15579 15.4519 7.21245Z"
          fill="#A3A8AF" stroke="#A3A8AF" stroke-width="0.5"/>
</svg>
