<svg viewBox="0 0 24 24" fill="none" xmlns="http://www.w3.org/2000/svg">
    <path d="M18.8199 2H5.09415C3.3931 2 2 3.39912 2 5.10752V18.8925C2 20.6009 3.3931 22 5.09415 22H18.8199C20.5209 22 21.914 20.6009 21.914 18.8925V5.10752C21.914 3.39912 20.5209 2 18.8199 2ZM21.0342 18.8925C21.0342 20.1149 20.0517 21.1016 18.8345 21.1016H5.09415C3.87702 21.1016 2.89452 20.1149 2.89452 18.8925V5.10752C2.89452 3.88513 3.87702 2.89839 5.09415 2.89839H18.8199C20.037 2.89839 21.0195 3.88513 21.0195 5.10752V18.8925H21.0342Z"
          fill="#A3A8AF" stroke="#A3A8AF" stroke-width="0.5"/>
    <path d="M7.60179 15.5935H5.12354C4.62495 15.5935 4.21436 16.0059 4.21436 16.5066V18.8631C4.21436 19.3638 4.62495 19.7762 5.12354 19.7762H7.60179C8.10038 19.7762 8.51097 19.3638 8.51097 18.8631V16.5066C8.51097 15.9912 8.11504 15.5935 7.60179 15.5935ZM7.60179 18.8925L5.09421 18.8631L5.12354 16.4772H7.60179L7.63112 16.5066L7.60179 18.8925Z"
          fill="#A3A8AF" stroke="#A3A8AF" stroke-width="0.5"/>
    <path d="M13.189 15.5935H10.7107C10.2121 15.5935 9.80151 16.0059 9.80151 16.5066V18.8631C9.80151 19.3638 10.2121 19.7762 10.7107 19.7762H13.189C13.6875 19.7762 14.0981 19.3638 14.0981 18.8631V16.5066C14.1128 15.9912 13.7022 15.5935 13.189 15.5935ZM13.189 18.8925L10.6814 18.8631L10.7107 16.4772H13.189L13.2183 16.5066L13.189 18.8925Z"
          fill="#A3A8AF" stroke="#A3A8AF" stroke-width="0.5"/>
    <path d="M7.60179 10.0707H5.12354C4.62495 10.0707 4.21436 10.4831 4.21436 10.9838V13.3402C4.21436 13.841 4.62495 14.2533 5.12354 14.2533H7.60179C8.10038 14.2533 8.51097 13.841 8.51097 13.3402V10.9838C8.51097 10.4831 8.11504 10.0707 7.60179 10.0707ZM7.60179 13.3697L5.09421 13.3402L5.12354 10.9544H7.60179L7.63112 10.9838L7.60179 13.3697Z"
          fill="#A3A8AF" stroke="#A3A8AF" stroke-width="0.5"/>
    <path d="M13.189 10.0707H10.7107C10.2121 10.0707 9.80151 10.4831 9.80151 10.9838V13.3402C9.80151 13.841 10.2121 14.2533 10.7107 14.2533H13.189C13.6875 14.2533 14.0981 13.841 14.0981 13.3402V10.9838C14.1128 10.4831 13.7022 10.0707 13.189 10.0707ZM13.189 13.3697L10.6814 13.3402L10.7107 10.9544H13.189L13.2183 10.9838L13.189 13.3697Z"
          fill="#A3A8AF" stroke="#A3A8AF" stroke-width="0.5"/>
    <path d="M18.7759 10.0707H16.2976C15.799 10.0707 15.3884 10.4831 15.3884 10.9838V18.8483C15.3884 19.3491 15.799 19.7615 16.2976 19.7615H18.7759C19.2744 19.7615 19.685 19.3491 19.685 18.8483V10.9838C19.6997 10.4831 19.2891 10.0707 18.7759 10.0707ZM18.7759 18.8925L16.2683 18.8631L16.2976 10.9691H18.7759L18.8052 10.9986L18.7759 18.8925Z"
          fill="#A3A8AF" stroke="#A3A8AF" stroke-width="0.5"/>
    <path d="M18.7759 4.22388H5.12354C4.62495 4.22388 4.21436 4.63624 4.21436 5.13698V8.14141C4.21436 8.64215 4.62495 9.05453 5.12354 9.05453H18.7759C19.2745 9.05453 19.6851 8.64215 19.6851 8.14141V5.15171C19.6998 4.63625 19.2892 4.22388 18.7759 4.22388ZM18.8053 8.14141L18.7759 8.17087L5.09421 8.14141L5.12354 5.12226L18.8053 5.15171V8.14141Z"
          fill="#A3A8AF" stroke="#A3A8AF" stroke-width="0.5"/>
</svg>
