<svg viewBox="0 0 24 24" fill="none" xmlns="http://www.w3.org/2000/svg">
    <path d="M16.1629 2H7.83704C6.45311 2 5.33704 3.11607 5.33704 4.5V7.83706C5.33704 8.29464 5.70534 8.67411 6.17409 8.67411C6.64284 8.67411 7.01114 8.30581 7.01114 7.83706V4.5C7.01114 4.04241 7.37945 3.66295 7.8482 3.66295H16.2634C16.6763 3.66295 17.0111 3.99777 17.0111 4.41071V7.82589C17.0111 8.28348 17.3794 8.66295 17.8482 8.66295C18.3058 8.66295 18.6853 8.29464 18.6853 7.82589V4.5C18.6629 3.11607 17.5469 2 16.1629 2Z"
          fill="#A3A8AF"/>
    <path fill-rule="evenodd" clip-rule="evenodd"
          d="M16.1628 21.9998H7.83691C6.45299 21.9998 5.33691 20.8837 5.33691 19.4998V13.6627C5.33691 13.2051 5.70522 12.8257 6.17397 12.8257H17.8369C18.2945 12.8257 18.674 13.194 18.674 13.6627V19.4998C18.6628 20.8726 17.5467 21.9998 16.1628 21.9998ZM14.7122 17H9.28809C8.9421 17 8.66309 16.721 8.66309 16.375C8.66309 16.029 8.9421 15.75 9.28809 15.75H14.701C15.047 15.75 15.326 16.029 15.326 16.375C15.3372 16.721 15.0582 17 14.7122 17ZM9.288 19.5H14.7121C15.0581 19.5 15.3371 19.221 15.3259 18.875C15.3259 18.529 15.0469 18.25 14.7009 18.25H9.288C8.94202 18.25 8.663 18.529 8.663 18.875C8.663 19.221 8.94202 19.5 9.288 19.5Z"
          fill="#A3A8AF"/>
    <path fill-rule="evenodd" clip-rule="evenodd"
          d="M4.28795 7H19.7121C20.9732 7 22 8.02679 22 9.28795V14.7121C22 15.9186 21.0602 16.9106 19.8745 16.9943V12.9877C19.8745 12.4346 19.4267 12 18.8868 12H5.12444C4.57132 12 4.13672 12.4478 4.13672 12.9877V16.9839C2.94572 16.9066 2 15.922 2 14.7009V9.28795C2 8.02679 3.02679 7 4.28795 7Z"
          fill="#A3A8AF"/>
</svg>
