<svg viewBox="0 0 24 24" fill="none" xmlns="http://www.w3.org/2000/svg">
<path
    d="M28.3688 17.6775L27.2555 15.3884C27.1355 15.1411 27.1355 14.8581 27.2555 14.6114L28.3688 12.3222C28.9885 11.0479 28.4977 9.52858 27.2509 8.86415L25.012 7.67004C24.7707 7.54114 24.6052 7.31205 24.5574 7.04135L24.1196 4.53186C23.876 3.13445 22.5902 2.1958 21.193 2.39443L18.6837 2.75126C18.4127 2.78993 18.1451 2.70204 17.9487 2.51103L16.1272 0.739796C15.113 -0.246306 13.524 -0.246892 12.5098 0.739796L10.6883 2.51103C10.4919 2.70204 10.2238 2.78934 9.9533 2.75126L7.444 2.39443C6.04625 2.1958 4.761 3.13445 4.51735 4.53186L4.07961 7.04135C4.0324 7.31205 3.86686 7.54114 3.62555 7.67004L1.3867 8.86415C0.138751 9.52917 -0.352035 11.0485 0.267568 12.3228L1.38029 14.6114C1.50036 14.8581 1.50036 15.1417 1.38029 15.3884L0.267568 17.6775C-0.352035 18.9519 0.138751 20.4712 1.38553 21.1356L3.62438 22.3297C3.86569 22.4586 4.03181 22.6877 4.07903 22.9584L4.51677 25.4679C4.73885 26.7399 5.82359 27.6317 7.07096 27.6317C7.19394 27.6317 7.3181 27.6229 7.44342 27.6054L9.95272 27.2485C10.2232 27.2099 10.4913 27.2977 10.6877 27.4888L12.5092 29.26C13.0163 29.7533 13.6668 30 14.3179 30C14.9684 30 15.6195 29.7533 16.1266 29.26L17.9481 27.4888C18.1445 27.2977 18.4127 27.2104 18.6831 27.2485L21.1924 27.6054C22.5902 27.804 23.8754 26.8653 24.1191 25.4679L24.5568 22.9584C24.604 22.6877 24.7696 22.4586 25.0115 22.3297L27.2503 21.1356C28.4971 20.4712 28.9885 18.9519 28.3688 17.6775ZM10.8754 7.2142C12.6153 7.2142 14.0311 8.6374 14.0311 10.3864C14.0311 12.1353 12.6153 13.5585 10.8754 13.5585C9.13552 13.5585 7.7197 12.1353 7.7197 10.3864C7.7197 8.6374 9.13552 7.2142 10.8754 7.2142ZM9.24685 21.3214C9.07898 21.4901 8.85865 21.5751 8.63832 21.5751C8.41799 21.5751 8.19767 21.4907 8.0298 21.3214C7.69347 20.9833 7.69347 20.436 8.0298 20.098L19.3896 8.679C19.7259 8.34092 20.2703 8.34092 20.6066 8.679C20.9429 9.01707 20.9429 9.56432 20.6066 9.9024L9.24685 21.3214ZM17.7604 22.7862C16.0205 22.7862 14.6047 21.363 14.6047 19.614C14.6047 17.865 16.0205 16.4418 17.7604 16.4418C19.5003 16.4418 20.9161 17.865 20.9161 19.614C20.9161 21.363 19.5003 22.7862 17.7604 22.7862Z"
    fill="#A3A8AF"
  />
</svg>
