<svg viewBox="0 0 24 24" fill="none" xmlns="http://www.w3.org/2000/svg">
    <path d="M21.687 12.2403C22.2009 11.4053 22.0719 10.3421 21.3737 9.65451L20.6373 8.92939C20.5855 8.87836 20.5586 8.80748 20.5636 8.73518L20.6373 7.69889C20.7075 6.71718 20.0979 5.83257 19.1552 5.54834L18.1798 5.25418C18.1096 5.23291 18.0529 5.18259 18.0239 5.11525L17.6156 4.17323C17.2839 3.40842 16.529 2.91437 15.6912 2.91437C15.5579 2.91437 15.4246 2.92713 15.2942 2.95265L14.3047 3.14687C14.2891 3.1497 14.2728 3.15183 14.2565 3.15183C14.2005 3.15183 14.1452 3.13198 14.1013 3.09654L13.3138 2.46073C12.9452 2.16374 12.4788 2 11.9996 2C11.5205 2 11.0548 2.16374 10.6862 2.46144L9.89871 3.09725C9.85477 3.13269 9.79948 3.15254 9.74348 3.15254C9.72718 3.15254 9.71088 3.15112 9.69528 3.14757L8.70577 2.95336C8.57535 2.92784 8.44139 2.91508 8.30813 2.91508C7.47102 2.91508 6.71542 3.40913 6.3844 4.17394L5.97612 5.11596C5.94706 5.1833 5.89035 5.23362 5.82018 5.25489L4.84485 5.54905C3.90212 5.83328 3.29254 6.71718 3.36271 7.6996L3.43643 8.73589C3.44139 8.80819 3.41446 8.87907 3.36271 8.9301L2.62625 9.65522C1.92807 10.3428 1.79906 11.406 2.31296 12.241L2.85733 13.1263C2.8956 13.188 2.90482 13.2631 2.88214 13.3319L2.56317 14.3228C2.26263 15.257 2.64256 16.26 3.48676 16.7611L4.36923 17.2849C4.43161 17.3225 4.47485 17.3849 4.48761 17.4565L4.66127 18.4757C4.82713 19.4497 5.63235 20.1634 6.61902 20.213L7.62979 20.2634C7.70351 20.2669 7.77085 20.3024 7.81479 20.3612L8.43146 21.1721C8.82344 21.6881 9.44791 21.9957 10.1029 21.9957C10.4098 21.9957 10.7053 21.9305 10.9811 21.8015L11.8947 21.3748C11.9281 21.3592 11.9635 21.3514 11.9996 21.3514C12.0358 21.3514 12.0712 21.3592 12.1046 21.3748L13.0182 21.8015C13.2947 21.9305 13.5902 21.9957 13.8964 21.9957C14.5507 21.9957 15.1759 21.6874 15.5678 21.1721L16.1838 20.3612C16.2284 20.3031 16.2958 20.2669 16.3688 20.2634L17.3803 20.213C18.3669 20.1641 19.1715 19.4497 19.338 18.4757L19.5117 17.4572C19.5237 17.3856 19.567 17.3225 19.6294 17.2856L20.5118 16.7618C21.356 16.2607 21.7352 15.2584 21.4347 14.3235L21.1164 13.3326C21.0945 13.2631 21.103 13.188 21.1413 13.1263L21.687 12.2403ZM20.117 11.2749L19.5719 12.1602C19.2516 12.6812 19.175 13.3134 19.3621 13.8961L19.6811 14.887C19.7165 14.9976 19.6719 15.1167 19.5712 15.1762L18.6888 15.7C18.1607 16.0133 17.7985 16.5407 17.695 17.1467L17.5213 18.1653C17.5015 18.2808 17.4058 18.3659 17.2888 18.3715L16.2774 18.4219C15.6593 18.4523 15.0901 18.7529 14.7165 19.2455L14.1006 20.0564C14.0545 20.1174 13.9794 20.1542 13.9014 20.1542C13.8653 20.1542 13.8305 20.1464 13.7979 20.1315L12.8842 19.7048C12.6043 19.5744 12.3066 19.5078 11.9996 19.5078C11.6927 19.5078 11.3943 19.5737 11.115 19.7048L10.2014 20.1315C10.1688 20.1464 10.134 20.1542 10.0979 20.1542C10.0199 20.1542 9.9455 20.1181 9.89871 20.0564L9.28204 19.2455C8.90779 18.7529 8.33861 18.4531 7.72123 18.4226L6.71046 18.3723C6.5935 18.3666 6.49781 18.2815 6.47796 18.166L6.3043 17.1467C6.20082 16.5414 5.83861 16.014 5.31054 15.7L4.42807 15.1762C4.32812 15.1167 4.28276 14.9976 4.3182 14.887L4.63717 13.8961C4.82429 13.3141 4.74774 12.6812 4.42736 12.1602L3.88299 11.2749C3.82203 11.1756 3.83762 11.0495 3.91984 10.9679L4.6563 10.2421C5.09294 9.81187 5.31834 9.21505 5.27439 8.60405L5.20068 7.56776C5.19217 7.45151 5.26447 7.3459 5.37646 7.31258L6.35179 7.01842C6.94224 6.84051 7.4214 6.4138 7.66665 5.84817L8.07493 4.90615C8.11391 4.81684 8.20535 4.75659 8.30388 4.75659C8.31947 4.75659 8.33506 4.75801 8.35066 4.76084L9.34017 4.95506C9.47342 4.98128 9.60952 4.99475 9.7449 4.99475C10.2198 4.99475 10.6855 4.8296 11.0562 4.53048L11.8444 3.89467C11.8877 3.85994 11.9429 3.84009 12.0004 3.84009C12.0578 3.84009 12.1131 3.85923 12.1563 3.89467L12.9438 4.53048C13.3145 4.8296 13.7802 4.99475 14.2558 4.99475C14.3912 4.99475 14.5266 4.98128 14.6598 4.95577L15.6493 4.76155C15.6642 4.75871 15.6798 4.7573 15.6954 4.7573C15.7939 4.7573 15.8854 4.81755 15.9244 4.90686L16.3326 5.84888C16.5779 6.41451 17.0571 6.84122 17.6475 7.01913L18.6228 7.31329C18.7348 7.34731 18.8071 7.45222 18.7986 7.56846L18.7249 8.60475C18.681 9.21576 18.9064 9.81258 19.343 10.2428L20.0794 10.9679C20.1631 11.0495 20.178 11.1756 20.117 11.2749Z"
          fill="#A3A8AF"/>
    <path d="M13.8803 8.31135C13.7633 8.24543 13.6307 8.21069 13.4975 8.21069C13.2168 8.21069 12.956 8.36238 12.8177 8.60692L9.00643 15.3584C8.90436 15.5399 8.87814 15.7504 8.93413 15.951C8.99013 16.1516 9.12055 16.3188 9.30201 16.4209C9.41896 16.4868 9.55151 16.5216 9.68477 16.5216C9.96617 16.5216 10.2263 16.3699 10.3645 16.1253L14.1758 9.37386C14.3871 8.9989 14.2545 8.52257 13.8803 8.31135Z"
          fill="#A3A8AF"/>
    <path d="M14.4769 12.5316C13.2655 12.5316 12.2795 13.5176 12.2795 14.7289C12.2795 15.9403 13.2655 16.9263 14.4769 16.9263C15.6882 16.9263 16.6742 15.9403 16.6742 14.7289C16.6742 13.5176 15.6882 12.5316 14.4769 12.5316ZM14.4769 15.3669C14.1253 15.3669 13.8389 15.0805 13.8389 14.7289C13.8389 14.3774 14.1253 14.091 14.4769 14.091C14.8284 14.091 15.1148 14.3774 15.1148 14.7289C15.1148 15.0805 14.8284 15.3669 14.4769 15.3669Z"
          fill="#A3A8AF"/>
    <path d="M11.7203 9.26612C11.7203 8.05475 10.7344 7.06879 9.52301 7.06879C8.31165 7.06879 7.32568 8.05475 7.32568 9.26612C7.32568 10.4775 8.31165 11.4634 9.52301 11.4634C10.7344 11.4634 11.7203 10.4775 11.7203 9.26612ZM9.52301 8.62818C9.87459 8.62818 10.1609 8.91454 10.1609 9.26612C10.1609 9.61769 9.87459 9.90405 9.52301 9.90405C9.17144 9.90405 8.88508 9.61769 8.88508 9.26612C8.88508 8.91454 9.17144 8.62818 9.52301 8.62818Z"
          fill="#A3A8AF"/>
</svg>
