<svg viewBox="0 0 24 24" fill="none" xmlns="http://www.w3.org/2000/svg">
    <path d="M11.29 9.71C11.3851 9.80104 11.4972 9.87241 11.62 9.92C11.7397 9.97291 11.8691 10.0002 12 10.0002C12.1309 10.0002 12.2603 9.97291 12.38 9.92C12.5028 9.87241 12.6149 9.80104 12.71 9.71L15 7.46C15.1936 7.26639 15.3024 7.0038 15.3024 6.73C15.3024 6.4562 15.1936 6.19361 15 6C14.8064 5.80639 14.5438 5.69762 14.27 5.69762C13.9962 5.69762 13.7336 5.80639 13.54 6L13 6.59V3C13 2.73478 12.8946 2.48043 12.7071 2.29289C12.5196 2.10536 12.2652 2 12 2C11.7348 2 11.4804 2.10536 11.2929 2.29289C11.1054 2.48043 11 2.73478 11 3V6.59L10.46 6C10.2664 5.80639 10.0038 5.69762 9.73 5.69762C9.4562 5.69762 9.19361 5.80639 9 6C8.80639 6.19361 8.69762 6.4562 8.69762 6.73C8.69762 7.0038 8.80639 7.26639 9 7.46L11.29 9.71ZM20 8H17C16.7348 8 16.4804 8.10536 16.2929 8.29289C16.1054 8.48043 16 8.73478 16 9C16 9.26522 16.1054 9.51957 16.2929 9.70711C16.4804 9.89464 16.7348 10 17 10H20C20.2652 10 20.5196 10.1054 20.7071 10.2929C20.8946 10.4804 21 10.7348 21 11V19C21 19.2652 20.8946 19.5196 20.7071 19.7071C20.5196 19.8946 20.2652 20 20 20H4C3.73478 20 3.48043 19.8946 3.29289 19.7071C3.10536 19.5196 3 19.2652 3 19V11C3 10.7348 3.10536 10.4804 3.29289 10.2929C3.48043 10.1054 3.73478 10 4 10H7C7.26522 10 7.51957 9.89464 7.70711 9.70711C7.89464 9.51957 8 9.26522 8 9C8 8.73478 7.89464 8.48043 7.70711 8.29289C7.51957 8.10536 7.26522 8 7 8H4C3.20435 8 2.44129 8.31607 1.87868 8.87868C1.31607 9.44129 1 10.2044 1 11V19C1 19.7956 1.31607 20.5587 1.87868 21.1213C2.44129 21.6839 3.20435 22 4 22H20C20.7956 22 21.5587 21.6839 22.1213 21.1213C22.6839 20.5587 23 19.7956 23 19V11C23 10.2044 22.6839 9.44129 22.1213 8.87868C21.5587 8.31607 20.7956 8 20 8Z"
          fill="#A3A8AF"/>
    <path d="M10.8061 14.1128L9.00739 13.839L8.20333 12.1321C8.18137 12.0853 8.14524 12.0475 8.10061 12.0245C7.98868 11.9666 7.85266 12.0148 7.7967 12.1321L6.99264 13.839L5.19395 14.1128C5.14437 14.1202 5.09903 14.1447 5.06431 14.1818C5.02235 14.2269 4.99922 14.2877 5.00002 14.3507C5.00082 14.4137 5.02547 14.4738 5.06856 14.5178L6.36994 15.8465L6.06248 17.7226C6.05527 17.7662 6.05988 17.8111 6.07579 17.8521C6.0917 17.8932 6.11828 17.9287 6.1525 17.9548C6.18672 17.9808 6.22722 17.9962 6.26941 17.9994C6.3116 18.0025 6.35379 17.9933 6.39119 17.9726L8.00001 17.0868L9.60884 17.9726C9.65276 17.9971 9.70377 18.0052 9.75265 17.9963C9.87592 17.9741 9.9588 17.8517 9.93755 17.7226L9.63009 15.8465L10.9315 14.5178C10.9669 14.4815 10.9903 14.434 10.9973 14.3821C11.0165 14.2522 10.93 14.1321 10.8061 14.1128Z"
          stroke="#A3A8AF" stroke-width="1.25"/>
    <path d="M14 14H19" stroke="#A3A8AF" stroke-width="1.25" stroke-linecap="round"/>
    <path d="M14 17H17" stroke="#A3A8AF" stroke-width="1.25" stroke-linecap="round"/>
</svg>
