<svg viewBox="0 0 24 24" fill="none" xmlns="http://www.w3.org/2000/svg">
    <path d="M20.271 12.708V18.5439H21.1345V20.271H3.86355V18.5439H4.7271V12.708C4.19547 12.3532 3.75968 11.8726 3.45839 11.3089C3.1571 10.7452 2.99965 10.1158 3 9.47662C3 8.76246 3.19344 8.07421 3.54663 7.48786L5.88857 3.43177C5.96436 3.3005 6.07337 3.19149 6.20464 3.1157C6.33591 3.03991 6.48482 3 6.6364 3H18.3625C18.5141 3 18.663 3.03991 18.7943 3.1157C18.9256 3.19149 19.0346 3.3005 19.1104 3.43177L21.4437 7.47491C21.9588 8.33058 22.1244 9.35186 21.906 10.3265C21.6876 11.3011 21.102 12.154 20.271 12.708ZM18.5439 13.3384C17.9501 13.405 17.349 13.3337 16.7873 13.13C16.2257 12.9263 15.7186 12.5957 15.3056 12.164C14.9431 12.5431 14.5075 12.8449 14.0251 13.0511C13.5427 13.2572 13.0236 13.3635 12.499 13.3635C11.9746 13.3637 11.4555 13.2577 10.9732 13.0519C10.4908 12.846 10.0552 12.5446 9.6925 12.1657C9.2794 12.5973 8.77228 12.9277 8.21061 13.1313C7.64894 13.3348 7.04787 13.406 6.4542 13.3393V18.5439H18.5439V13.3393V13.3384ZM7.13554 4.7271L5.03452 8.36523C4.83036 8.86967 4.82423 9.4326 5.01736 9.94136C5.2105 10.4501 5.58864 10.8672 6.07612 11.1091C6.56359 11.3509 7.12443 11.3998 7.64639 11.2459C8.16835 11.0919 8.61293 10.7466 8.89113 10.2789C9.18042 9.55606 10.2037 9.55606 10.4939 10.2789C10.6539 10.6799 10.9305 11.0237 11.2879 11.266C11.6454 11.5082 12.0672 11.6377 12.499 11.6377C12.9308 11.6377 13.3527 11.5082 13.7101 11.266C14.0676 11.0237 14.3442 10.6799 14.5042 10.2789C14.7935 9.55606 15.8168 9.55606 16.1069 10.2789C16.219 10.5547 16.3869 10.8044 16.6002 11.0122C16.8134 11.2201 17.0673 11.3816 17.3459 11.4865C17.6245 11.5915 17.9219 11.6377 18.2192 11.6223C18.5166 11.6068 18.8075 11.53 19.0738 11.3967C19.34 11.2633 19.5758 11.0764 19.7663 10.8475C19.9568 10.6187 20.0979 10.3529 20.1807 10.0669C20.2635 9.78092 20.2863 9.48087 20.2476 9.18565C20.2089 8.89042 20.1095 8.60639 19.9558 8.35141L17.8617 4.7271H7.1364H7.13554Z"
          fill="#A3A8AF"/>
</svg>
