<svg viewBox="0 0 24 24" fill="none" xmlns="http://www.w3.org/2000/svg">
    <path d="M20.9126 13.785L20.1704 12.2589C20.0903 12.0941 20.0903 11.9054 20.1704 11.741L20.9126 10.2148C21.3256 9.36525 20.9984 8.35239 20.1673 7.90943L18.6747 7.11336C18.5138 7.02743 18.4035 6.8747 18.3716 6.69424L18.0798 5.02124C17.9173 4.08963 17.0601 3.46387 16.1287 3.59629L14.4558 3.83417C14.2751 3.85995 14.0967 3.80136 13.9658 3.67402L12.7515 2.4932C12.0753 1.8358 11.016 1.83541 10.3399 2.4932L9.12554 3.67402C8.99459 3.80136 8.81584 3.85956 8.63554 3.83417L6.96267 3.59629C6.03083 3.46387 5.174 4.08963 5.01157 5.02124L4.71974 6.69424C4.68826 6.8747 4.57791 7.02743 4.41703 7.11336L2.92447 7.90943C2.0925 8.35278 1.76531 9.36564 2.17838 10.2152L2.92019 11.741C3.00024 11.9054 3.00024 12.0945 2.92019 12.2589L2.17838 13.785C1.76531 14.6346 2.0925 15.6475 2.92369 16.0904L4.41625 16.8865C4.57713 16.9724 4.68788 17.1252 4.71935 17.3056L5.01118 18.9786C5.15923 19.8266 5.88239 20.4211 6.71397 20.4211C6.79596 20.4211 6.87873 20.4153 6.96228 20.4036L8.63515 20.1657C8.81545 20.1399 8.9942 20.1985 9.12516 20.3258L10.3395 21.5067C10.6776 21.8356 11.1112 22 11.5453 22C11.9789 22 12.413 21.8356 12.7511 21.5067L13.9654 20.3258C14.0964 20.1985 14.2751 20.1403 14.4554 20.1657L16.1283 20.4036C17.0601 20.536 17.9169 19.9102 18.0794 18.9786L18.3712 17.3056C18.4027 17.1252 18.513 16.9724 18.6743 16.8865L20.1669 16.0904C20.9981 15.6475 21.3256 14.6346 20.9126 13.785ZM9.25028 6.80947C10.4102 6.80947 11.3541 7.75827 11.3541 8.92424C11.3541 10.0902 10.4102 11.039 9.25028 11.039C8.09035 11.039 7.14647 10.0902 7.14647 8.92424C7.14647 7.75827 8.09035 6.80947 9.25028 6.80947ZM8.16457 16.2142C8.05265 16.3267 7.90577 16.3834 7.75888 16.3834C7.612 16.3834 7.46511 16.3271 7.3532 16.2142C7.12898 15.9889 7.12898 15.624 7.3532 15.3986L14.9264 7.786C15.1506 7.56062 15.5135 7.56062 15.7377 7.786C15.962 8.01138 15.962 8.37621 15.7377 8.6016L8.16457 16.2142ZM13.8403 17.1908C12.6803 17.1908 11.7365 16.242 11.7365 15.076C11.7365 13.91 12.6803 12.9612 13.8403 12.9612C15.0002 12.9612 15.9441 13.91 15.9441 15.076C15.9441 16.242 15.0002 17.1908 13.8403 17.1908Z"
          fill="#A3A8AF"/>
</svg>
