<svg width="24" height="24" viewBox="0 0 24 24" fill="none" xmlns="http://www.w3.org/2000/svg">
<path d="M17.0197 7.73696C16.8825 7.59966 16.7025 7.53098 16.5226 7.53098C16.3426 7.53098 16.1627 7.59966 16.0254 7.73696L14.9663 8.79608V1.45561C14.9663 1.06728 14.6515 0.752441 14.2632 0.752441C13.8749 0.752441 13.5601 1.06728 13.5601 1.45561V8.79608L12.5011 7.73696C12.3637 7.59966 12.1838 7.53098 12.0039 7.53098C11.824 7.53103 11.644 7.59966 11.5068 7.73696C11.2321 8.01153 11.2321 8.45678 11.5068 8.73139L13.7661 10.9909C13.9033 11.1282 14.0832 11.1968 14.2632 11.1968C14.4431 11.1968 14.6231 11.1281 14.7604 10.9909L17.0197 8.73139C17.2943 8.45682 17.2943 8.01157 17.0197 7.73696Z" fill="#0088FF"/>
<path d="M5.975 14.9625H22.5437C22.9126 14.9625 23.2187 14.6774 23.245 14.3094L23.9982 3.7657C24.0121 3.57103 23.9445 3.37931 23.8115 3.23648C23.6784 3.09361 23.4921 3.01252 23.2969 3.01252H16.3687V6.13022C16.4184 6.12675 16.4684 6.12502 16.5187 6.12502C17.0821 6.12502 17.6118 6.34444 18.0103 6.74283C18.4086 7.14127 18.6281 7.671 18.6281 8.23439C18.6281 8.79788 18.4086 9.32756 18.0102 9.72595L15.7509 11.9853C15.3524 12.3837 14.8227 12.6031 14.2593 12.6031C13.6958 12.6031 13.1661 12.3836 12.7677 11.9853L10.5085 9.72595C10.1101 9.32756 9.8906 8.79783 9.8906 8.23439C9.8906 7.67095 10.1101 7.14122 10.5085 6.74283C10.9068 6.34448 11.4366 6.12502 12 6.12502C12.0502 6.12502 12.1003 6.12675 12.1499 6.13022V3.01252H5.74335L5.54596 0.644719C5.51558 0.280313 5.21099 0 4.84527 0H0.703123C0.314812 0 0 0.314859 0 0.703125C0 1.09144 0.314812 1.40625 0.703123 1.40625H4.1983L4.40422 3.87656L5.21896 13.6544C3.95047 13.9895 3.01251 15.1464 3.01251 16.5188C3.01251 18.1523 4.34146 19.4813 5.975 19.4813H6.09172C5.81113 19.9339 5.64861 20.467 5.64861 21.0375C5.64861 22.671 6.97761 24 8.61106 24C10.2446 24 11.5735 22.671 11.5735 21.0375C11.5735 20.467 11.411 19.9339 11.1304 19.4813H17.7649C17.4843 19.9339 17.3218 20.467 17.3218 21.0375C17.3218 22.671 18.6508 24 20.2843 24C21.9179 24 23.2468 22.671 23.2468 21.0375C23.2468 20.4497 23.0739 19.9018 22.7775 19.4406C23.0507 19.3441 23.2468 19.0844 23.2468 18.7781C23.2468 18.3898 22.9319 18.075 22.5437 18.075H5.975C5.11686 18.075 4.41876 17.3769 4.41876 16.5188C4.41876 15.6607 5.11686 14.9625 5.975 14.9625ZM20.2843 19.4813C21.1424 19.4813 21.8406 20.1794 21.8406 21.0375C21.8406 21.8956 21.1424 22.5938 20.2843 22.5938C19.4261 22.5938 18.7281 21.8956 18.7281 21.0375C18.7281 20.1794 19.4262 19.4813 20.2843 19.4813ZM8.61106 19.4813C9.4692 19.4813 10.1673 20.1794 10.1673 21.0375C10.1673 21.8956 9.46915 22.5938 8.61106 22.5938C7.75292 22.5938 7.05486 21.8956 7.05486 21.0375C7.05486 20.1794 7.75292 19.4813 8.61106 19.4813Z" fill="#0088FF"/>
</svg>
