<svg viewBox="0 0 23 26" fill="none" xmlns="http://www.w3.org/2000/svg">
    <g clip-path="url(#clip0_2295_26057)">
        <path d="M22.8272 14.1562V5.3313C22.8272 2.9245 20.8288 0.989624 18.3429 0.989624L4.74371 3.16046C2.25784 3.16046 0.259399 5.09534 0.259399 7.50214V20.6687C0.259399 23.0755 2.25784 25.0104 4.74371 25.0104H18.3429C20.8288 25.0104 22.8272 23.0755 22.8272 20.6687V15.5248C22.8272 15.2888 22.8272 15.1001 22.8272 14.8641C22.7785 14.6282 22.7785 14.3922 22.8272 14.1562ZM17.563 22.1317C16.0032 23.1699 14.1023 23.689 11.8601 23.689C8.64312 23.689 5.66982 22.5564 2.98898 20.3384L5.91354 17.5069C7.71701 19.3946 9.7642 20.2912 12.1526 20.2912C13.0299 20.2912 13.9073 20.1024 14.6385 19.7249C15.6133 19.3002 16.052 18.6395 16.052 17.8844C16.052 16.7518 15.1746 15.9967 13.4199 15.6664L10.9828 15.2888C8.83809 14.9113 7.22958 14.3922 6.20599 13.7787C4.64623 12.8349 3.86635 11.5607 3.86635 9.81455C3.86635 7.87968 4.69497 6.32234 6.30348 5.14253C7.76575 4.10431 9.52048 3.58519 11.6164 3.58519C14.2973 3.58519 16.8806 4.48184 19.464 6.22795L17.0268 9.10667C15.2721 7.69091 13.5174 6.98303 11.7139 6.98303C10.8365 6.98303 10.0567 7.17179 9.32551 7.54933C8.49689 7.97406 8.05821 8.63475 8.05821 9.38982C8.05821 10.4281 8.93557 11.0887 10.6903 11.4191L14.9797 12.2214C18.4404 12.8348 20.1951 14.5338 20.1951 17.3181C20.1951 19.3474 19.3177 20.9519 17.563 22.1317Z" fill="currentColor"/>
    </g>
    <defs>
        <clipPath id="clip0_2295_26057">
            <rect width="22.5678" height="24.0208" fill="currentColor" transform="translate(0.259399 0.989624)"/>
        </clipPath>
    </defs>
</svg>
