<svg width="30" height="31" viewBox="0 0 30 31" fill="none" xmlns="http://www.w3.org/2000/svg">
<g clip-path="url(#clip0_7751_99215)">
<path d="M18.4173 14.4237V10.6289C21.7699 9.30263 24.0541 6.20789 24.5699 5.43421C24.6068 5.36053 24.5699 5.25 24.4962 5.25H6.11202C6.03833 5.25 5.96465 5.36053 6.03833 5.43421C8.17518 8.19737 10.2383 9.81842 12.1541 10.5921V14.4237H8.9857C8.65412 14.4237 8.35939 14.6447 8.2857 14.9763L6.07518 25.3289C5.96465 25.8447 6.33307 26.25 6.77518 26.25H23.7962C24.2383 26.25 24.6068 25.8447 24.4962 25.3658L22.2857 14.9763C22.212 14.6447 21.9173 14.4237 21.5857 14.4237H18.4173ZM11.5278 23.6342C11.1962 23.6342 10.9015 23.3395 10.9015 23.0079V17.7026C10.9015 17.3711 11.1962 17.0763 11.5278 17.0763C11.8594 17.0763 12.1541 17.3711 12.1541 17.7026V23.0079C12.1541 23.3395 11.8594 23.6342 11.5278 23.6342ZM14.0331 22.3079C13.7015 22.3079 13.4068 22.0132 13.4068 21.6816V17.7026C13.4068 17.3711 13.7015 17.0763 14.0331 17.0763C14.3646 17.0763 14.6594 17.3711 14.6594 17.7026V21.7184C14.6594 22.05 14.3646 22.3079 14.0331 22.3079ZM14.6594 11.2184C15.1015 11.2553 15.5068 11.2553 15.912 11.2184V14.4237H14.6594V11.2184ZM16.5383 22.3079C16.2068 22.3079 15.912 22.0132 15.912 21.6816V17.7026C15.912 17.3711 16.2068 17.0763 16.5383 17.0763C16.8699 17.0763 17.1646 17.3711 17.1646 17.7026V21.7184C17.1646 22.05 16.8699 22.3079 16.5383 22.3079ZM19.0436 23.6342C18.712 23.6342 18.4173 23.3395 18.4173 23.0079V17.7026C18.4173 17.3711 18.712 17.0763 19.0436 17.0763C19.3752 17.0763 19.6699 17.3711 19.6699 17.7026V23.0079C19.6699 23.3395 19.3752 23.6342 19.0436 23.6342Z" fill="#0088ff"/>
</g>
<defs>
<clipPath id="clip0_7751_99215">
<rect width="18.5684" height="21" fill="white" transform="translate(6 5.25)"/>
</clipPath>
</defs>
</svg>
