<svg viewBox="0 0 24 24" fill="none" xmlns="http://www.w3.org/2000/svg">
    <path fill-rule="evenodd" clip-rule="evenodd"
          d="M16.9651 13.4314C15.2179 14.2109 14 15.9632 14 18C14 18.6918 14.1405 19.3508 14.3945 19.9499H6.47004C6.27175 19.9499 6.07539 19.9109 5.89219 19.835C5.70899 19.7591 5.54253 19.6479 5.40231 19.5077C5.2621 19.3675 5.15087 19.201 5.07499 19.0178C4.9991 18.8346 4.96004 18.6382 4.96004 18.4399V14.4399C4.95734 14.2719 5.02084 14.1095 5.13685 13.9879C5.25286 13.8663 5.41205 13.7952 5.58004 13.7899C6.082 13.7771 6.57852 13.6825 7.05004 13.5099C7.54862 13.3316 8.01224 13.0677 8.42004 12.7299C8.53276 12.6373 8.67414 12.5867 8.82004 12.5867C8.96595 12.5867 9.10732 12.6373 9.22004 12.7299C9.55546 13.0088 9.9293 13.2378 10.33 13.4099C11.4925 13.8894 12.7975 13.8894 13.96 13.4099C14.3445 13.2427 14.7045 13.0241 15.03 12.7599C15.1474 12.6606 15.2962 12.606 15.45 12.606C15.6038 12.606 15.7527 12.6606 15.87 12.7599C16.2019 13.0348 16.5706 13.2607 16.9651 13.4314Z"
          fill="#A3A8AF"/>
    <path d="M21.1802 10.35C21.0874 10.69 20.926 11.0073 20.7058 11.2825C20.4857 11.5577 20.2115 11.7849 19.9002 11.95C19.5888 12.1059 19.2481 12.1945 18.9002 12.21C18.547 12.2287 18.1937 12.1735 17.8631 12.0477C17.5325 11.922 17.2318 11.7287 16.9802 11.48C16.7283 11.2354 16.5277 10.943 16.3902 10.62C16.3269 10.4162 16.2001 10.238 16.0282 10.1114C15.8564 9.98488 15.6486 9.91661 15.4352 9.91661C15.2218 9.91661 15.014 9.98488 14.8422 10.1114C14.6703 10.238 14.5435 10.4162 14.4802 10.62C14.2874 11.0931 13.9581 11.4979 13.5342 11.783C13.1103 12.068 12.611 12.2202 12.1002 12.2202C11.5894 12.2202 11.0901 12.068 10.6662 11.783C10.2423 11.4979 9.91295 11.0931 9.72019 10.62C9.65444 10.4199 9.52719 10.2457 9.3566 10.1222C9.18602 9.99874 8.98079 9.93225 8.7702 9.93225C8.5596 9.93225 8.35437 9.99874 8.18379 10.1222C8.0132 10.2457 7.88595 10.4199 7.82019 10.62C7.47735 11.1652 6.94768 11.5669 6.33019 11.75C5.70519 11.9362 5.03284 11.8789 4.44842 11.5894C3.864 11.3 3.41087 10.8 3.18019 10.19C2.93994 9.59328 2.93994 8.92672 3.18019 8.33L5.18019 4.86C5.33034 4.59993 5.54597 4.3837 5.80562 4.23282C6.06527 4.08194 6.3599 4.00167 6.66019 4H17.4802C17.7805 4.00167 18.0751 4.08194 18.3348 4.23282C18.5944 4.3837 18.81 4.59993 18.9602 4.86L20.9602 8.3C21.1331 8.60927 21.2416 8.95027 21.2795 9.30254C21.3173 9.65482 21.2835 10.0111 21.1802 10.35Z"
          fill="#A3A8AF"/>
    <path fill-rule="evenodd" clip-rule="evenodd"
          d="M20.6498 15.2762C20.5407 15.209 20.4315 15.1586 20.314 15.1083L20.1461 14.3274C20.1041 14.1343 19.9362 14 19.743 14H18.2402C18.0471 14 17.8791 14.1343 17.8372 14.3274L17.6692 15.1083C17.5601 15.1586 17.4509 15.209 17.3502 15.2678C17.241 15.3266 17.1403 15.3937 17.0395 15.4693L16.2839 15.2258C16.0992 15.167 15.8977 15.2426 15.8053 15.4105L15.0581 16.7119C14.9573 16.8798 14.9909 17.0897 15.1336 17.2241L15.7214 17.7614C15.7046 17.8873 15.7046 18.0049 15.7046 18.1308C15.7046 18.2484 15.713 18.3743 15.7214 18.5003L15.1336 19.0376C14.9909 19.1719 14.9573 19.3818 15.0581 19.5498L15.8053 20.8511C15.9061 21.0191 16.0992 21.0946 16.2839 21.0359L17.0395 20.7924C17.1403 20.8679 17.2494 20.9351 17.3586 21.0023C17.4593 21.061 17.5685 21.1114 17.6776 21.1618L17.8455 21.9426C17.8875 22.1357 18.0554 22.2701 18.2486 22.2701H19.7514C19.9445 22.2701 20.1125 22.1357 20.1544 21.9426L20.3224 21.1618C20.4399 21.1114 20.5491 21.0526 20.6582 20.9939C20.759 20.9351 20.8597 20.8679 20.9605 20.8008L21.7161 21.0442C21.9008 21.103 22.1023 21.0275 22.1947 20.8595L22.9419 19.5582C23.0427 19.3902 23.0091 19.1803 22.8664 19.046L22.2786 18.5087C22.287 18.3659 22.287 18.2484 22.287 18.1224C22.287 18.0049 22.2786 17.879 22.2702 17.7614L22.858 17.2241C23.0007 17.0897 23.0343 16.8798 22.9335 16.7119L22.1863 15.4105C22.0855 15.2426 21.8924 15.167 21.7077 15.2258L20.9521 15.4693C20.8513 15.3937 20.7506 15.335 20.6498 15.2762ZM18.9874 19.7765C19.9026 19.7765 20.6414 19.0376 20.6414 18.1224C20.6414 17.2073 19.9026 16.4684 18.9874 16.4684C18.0722 16.4684 17.3334 17.2073 17.3334 18.1224C17.3418 19.0376 18.0806 19.7765 18.9874 19.7765Z"
          fill="#A3A8AF"/>
</svg>
