<svg viewBox="0 0 24 24" fill="none" xmlns="http://www.w3.org/2000/svg">
    <path d="M15.3655 16.9167C15.5585 15.3565 14.54 14.3613 11.8518 13.5146C10.5497 13.0762 9.93638 12.5021 9.95072 11.7106C10.0051 10.8345 10.8323 10.1954 11.9294 10.1741C12.6898 10.1891 13.5344 10.3724 14.3557 10.9131C14.4533 10.9738 14.522 10.9643 14.5775 10.8814C14.6536 10.7607 14.8423 10.4709 14.9057 10.367C14.9487 10.2991 14.957 10.2115 14.8483 10.1333C14.6926 10.0193 14.2559 9.78848 14.0215 9.6917C13.3846 9.42855 12.6697 9.26286 11.9075 9.26436C10.3015 9.27103 9.03604 10.2736 8.93046 11.6116C8.86139 12.5771 9.34571 13.3614 10.3856 13.9593C10.606 14.086 11.799 14.5542 12.2735 14.7C13.7661 15.1587 14.5412 15.9808 14.3588 16.9394C14.1932 17.8091 13.266 18.3708 11.988 18.3879C10.9746 18.3497 10.0628 17.9421 9.35566 17.3993C9.33774 17.3862 9.24894 17.3182 9.23687 17.3091C9.14943 17.2415 9.05403 17.2459 8.99596 17.3333C8.95292 17.3976 8.67968 17.7871 8.61069 17.8894C8.54587 17.9794 8.58055 18.0289 8.64788 18.0841C8.94336 18.3272 9.33532 18.593 9.60264 18.7276C10.3371 19.0971 11.1343 19.2996 11.9824 19.3314C12.5277 19.3679 13.2157 19.2522 13.7289 19.0372C14.651 18.651 15.2464 17.8796 15.3655 16.9167ZM12.0483 3.16376C10.3082 3.16376 8.88985 4.78226 8.82344 6.80818H15.2731C15.2067 4.78226 13.7883 3.16376 12.0483 3.16376ZM18.6543 21.9279L18.5878 21.9285L5.3064 21.9265H5.30609C4.40272 21.8932 3.73843 21.1706 3.6478 20.2734L3.63892 20.1118L3.04507 7.21867L3.04514 7.21859C3.04431 7.20885 3.04401 7.19904 3.04401 7.18908C3.04401 6.98106 3.21296 6.812 3.42283 6.80825L7.60924 6.80818C7.71186 4.13312 9.66002 2.00009 12.0483 2.00009C14.4365 2.00009 16.3847 4.13312 16.4873 6.80818H20.6617H20.6676C20.8809 6.80818 21.0536 6.97867 21.0536 7.18908C21.0536 7.19567 21.0535 7.20219 21.0532 7.2087V7.20893L20.4025 20.1528L20.3966 20.2624C20.3179 21.1707 19.5734 21.9034 18.6543 21.9279Z"
          fill="#A3A8AF"/>
</svg>
