<svg viewBox="0 0 24 24" fill="none" xmlns="http://www.w3.org/2000/svg">
    <path fill-rule="evenodd" clip-rule="evenodd"
          d="M20.4653 2.23452C20.3597 2.16954 20.2541 2.12081 20.1404 2.07208L19.978 1.31675C19.9374 1.12995 19.775 1 19.5882 1H18.1344C17.9476 1 17.7851 1.12995 17.7445 1.31675L17.5821 2.07208C17.4765 2.12081 17.3709 2.16954 17.2734 2.2264C17.1679 2.28325 17.0704 2.34822 16.9729 2.42132L16.242 2.18579C16.0633 2.12893 15.8684 2.20203 15.779 2.36447L15.0562 3.62335C14.9587 3.78579 14.9912 3.98883 15.1293 4.11878L15.6978 4.63858C15.6816 4.76041 15.6816 4.87411 15.6816 4.99594C15.6816 5.10964 15.6897 5.23147 15.6978 5.3533L15.1293 5.8731C14.9912 6.00305 14.9587 6.20609 15.0562 6.36853L15.779 7.62741C15.8765 7.78985 16.0633 7.86294 16.242 7.80609L16.9729 7.57056C17.0704 7.64365 17.176 7.70863 17.2816 7.7736C17.379 7.83046 17.4846 7.87919 17.5902 7.92792L17.7526 8.68325C17.7932 8.87005 17.9557 9 18.1425 9H19.5963C19.7831 9 19.9455 8.87005 19.9861 8.68325L20.1486 7.92792C20.2623 7.87919 20.3679 7.82233 20.4734 7.76548C20.5709 7.70863 20.6684 7.64365 20.7658 7.57868L21.4968 7.81421C21.6755 7.87107 21.8704 7.79797 21.9597 7.63553L22.6826 6.37665C22.78 6.21421 22.7475 6.01117 22.6095 5.88122L22.0409 5.36142C22.0491 5.22335 22.0491 5.10964 22.0491 4.98782C22.0491 4.87411 22.0409 4.75228 22.0328 4.63858L22.6014 4.11878C22.7394 3.98883 22.7719 3.78579 22.6745 3.62335L21.9516 2.36447C21.8541 2.20203 21.6673 2.12893 21.4887 2.18579L20.7577 2.42132C20.6602 2.34822 20.5628 2.29137 20.4653 2.23452ZM18.8572 6.58782C19.7425 6.58782 20.4572 5.8731 20.4572 4.98782C20.4572 4.10254 19.7425 3.38782 18.8572 3.38782C17.9719 3.38782 17.2572 4.10254 17.2572 4.98782C17.2653 5.8731 17.98 6.58782 18.8572 6.58782Z"
          fill="#A3A8AF"/>
    <path fill-rule="evenodd" clip-rule="evenodd"
          d="M21.973 9.02051C22.0242 9.45266 22.0029 9.89415 21.906 10.3265C21.6876 11.3011 21.102 12.154 20.271 12.708V18.5439H21.1345V20.271H3.86355V18.5439H4.7271V12.708C4.19547 12.3532 3.75968 11.8726 3.45839 11.3089C3.1571 10.7452 2.99965 10.1158 3 9.47662C3 8.76246 3.19344 8.07421 3.54663 7.48786L5.88857 3.43177C5.96436 3.3005 6.07337 3.19149 6.20464 3.1157C6.33592 3.03991 6.48482 3 6.6364 3H14.416C14.1829 3.5336 14.0402 4.11576 14.0073 4.7271H7.1364H7.13554L5.03452 8.36523C4.83036 8.86967 4.82423 9.4326 5.01736 9.94136C5.2105 10.4501 5.58864 10.8672 6.07612 11.1091C6.56359 11.3509 7.12443 11.3998 7.6464 11.2459C8.16836 11.0919 8.61293 10.7466 8.89113 10.2789C9.18042 9.55606 10.2037 9.55606 10.4939 10.2789C10.6539 10.6799 10.9305 11.0237 11.2879 11.266C11.6454 11.5082 12.0672 11.6377 12.499 11.6377C12.9308 11.6377 13.3527 11.5082 13.7101 11.266C14.0676 11.0237 14.3442 10.6799 14.5042 10.2789C14.7935 9.55606 15.8168 9.55606 16.1069 10.2789C16.219 10.5547 16.3869 10.8044 16.6002 11.0122C16.8134 11.2201 17.0673 11.3816 17.3459 11.4865C17.6245 11.5915 17.9219 11.6377 18.2192 11.6223C18.5166 11.6068 18.8075 11.53 19.0738 11.3967C19.34 11.2633 19.5758 11.0764 19.7663 10.8475C19.9568 10.6187 20.0979 10.3529 20.1807 10.0669C20.2017 9.99443 20.2188 9.92104 20.2321 9.84705C20.8702 9.68536 21.4593 9.40098 21.973 9.02051ZM16.7873 13.13C17.349 13.3337 17.9501 13.405 18.5439 13.3384V13.3393V18.5439H6.4542V13.3393C7.04788 13.406 7.64894 13.3348 8.21061 13.1313C8.77228 12.9277 9.27941 12.5973 9.6925 12.1657C10.0552 12.5446 10.4908 12.846 10.9732 13.0519C11.4555 13.2577 11.9746 13.3637 12.499 13.3635C13.0236 13.3635 13.5427 13.2572 14.0251 13.0511C14.5075 12.8449 14.9431 12.5431 15.3056 12.164C15.7186 12.5957 16.2257 12.9263 16.7873 13.13Z"
          fill="#A3A8AF"/>
</svg>
