<svg viewBox="0 0 24 24" fill="none" xmlns="http://www.w3.org/2000/svg">
    <path fill-rule="evenodd" clip-rule="evenodd"
          d="M3 3C3 2.44772 3.44772 2 4 2H20.3636C20.9159 2 21.3636 2.44772 21.3636 3V6.63636V17.5455C21.3636 20.0977 19.2796 22.1818 16.7273 22.1818H7.63636C5.08408 22.1818 3 20.0977 3 17.5455V6.63636V3ZM19.3636 4V5.63636H8.54545H5V4H19.3636ZM7.54545 7.63636V9.36364C7.54545 9.91592 7.99317 10.3636 8.54545 10.3636C9.09774 10.3636 9.54545 9.91592 9.54545 9.36364V7.63636H19.3636V17.5455C19.3636 18.9932 18.175 20.1818 16.7273 20.1818H7.63636C6.18865 20.1818 5 18.9932 5 17.5455V7.63636H7.54545Z"
          fill="#A3A8AF"/>
</svg>
