<svg width="17" height="15" viewBox="0 0 17 15" fill="none" xmlns="http://www.w3.org/2000/svg">
    <path d="M14.8534 0.5H2.34528C1.23778 0.5 0 1.4772 0 2.38925V9.94625C0 10.7932 1.04235 11.4446 2.08469 11.5098L1.43322 14.0505L5.7329 11.5749H14.8534C15.9609 11.5749 16.9381 10.9235 16.9381 9.94625V3.88762V2.38925C16.9381 1.4772 15.8958 0.5 14.8534 0.5ZM4.23453 6.88436C3.58306 6.88436 3.12704 6.36319 3.12704 5.77687C3.12704 5.19055 3.64821 4.66938 4.23453 4.66938C4.88599 4.66938 5.34202 5.19055 5.34202 5.77687C5.34202 6.36319 4.88599 6.88436 4.23453 6.88436ZM8.46906 6.88436C7.81759 6.88436 7.36156 6.36319 7.36156 5.77687C7.36156 5.19055 7.81759 4.60423 8.46906 4.60423C9.12052 4.60423 9.57655 5.12541 9.57655 5.71173C9.57655 6.29805 9.12052 6.88436 8.46906 6.88436ZM12.7036 6.88436C12.0521 6.88436 11.5961 6.36319 11.5961 5.77687C11.5961 5.19055 12.1173 4.66938 12.7036 4.66938C13.355 4.66938 13.8111 5.19055 13.8111 5.77687C13.8111 6.36319 13.2899 6.88436 12.7036 6.88436Z" fill="#A3A8AF"/>
</svg>
