<svg viewBox="0 0 24 24" fill="none" xmlns="http://www.w3.org/2000/svg">
    <path d="M13.2 2.006C21.24 2.093 22 3.25 22 12L21.994 13.2C21.907 21.24 20.75 22 12 22L10.8 21.994C3.142 21.911 2.089 20.858 2.006 13.199L2 11.691L2.006 10.801C2.091 2.951 3.196 2.041 11.388 2.001L13.2 2.006ZM8.25 7H7.667C7.50719 6.99991 7.35266 7.0572 7.23153 7.16144C7.1104 7.26569 7.03072 7.40996 7.007 7.568L7 7.667V11.333C7 11.668 7.247 11.945 7.568 11.993L7.667 12H8.25C9.21 11.9999 10.1335 12.368 10.8302 13.0284C11.5269 13.6889 11.9438 14.5914 11.995 15.55L12 15.75V16.333C12 16.668 12.247 16.945 12.568 16.993L12.667 17H16.333C16.4928 17.0001 16.6473 16.9428 16.7685 16.8386C16.8896 16.7343 16.9693 16.59 16.993 16.432L17 16.333V15.75C16.9999 13.4741 16.1131 11.2877 14.5277 9.65484C12.9422 8.02197 10.7829 7.07111 8.508 7.004L8.25 7Z"
          fill="#A3A8AF"/>
</svg>
