<svg viewBox="0 0 24 24" fill="none" xmlns="http://www.w3.org/2000/svg">
    <path d="M11.4211 5.15789C6.77789 5.15789 3 8.93579 3 13.5789C3 18.2221 6.77789 22 11.4211 22C16.0642 22 19.8421 18.2221 19.8421 13.5789C19.8421 8.93579 16.0642 5.15789 11.4211 5.15789ZM11.4211 19.8947C7.93789 19.8947 5.10526 17.0621 5.10526 13.5789C5.10526 10.0958 7.93789 7.26316 11.4211 7.26316C14.9042 7.26316 17.7368 10.0958 17.7368 13.5789C17.7368 17.0621 14.9042 19.8947 11.4211 19.8947Z"
          fill="#A3A8AF"/>
    <path d="M10.3684 9.36842H12.4737V14.6316H10.3684V9.36842ZM8.26316 2H14.5789V4.10526H8.26316V2Z" fill="#A3A8AF"/>
    <path d="M19.0976 8.00733L16.9927 5.90235L18.4814 4.41373L20.5863 6.51871L19.0976 8.00733Z" fill="#A3A8AF"/>
</svg>
