<svg width="26" height="31" viewBox="0 0 26 31" fill="none" xmlns="http://www.w3.org/2000/svg">
<g clip-path="url(#clip0_7751_99087)">
<path d="M24.25 16.7943V7.95638C24.25 6.86386 23.3629 5.97498 22.2725 5.97498H3.72754C2.63715 5.97498 1.75 6.86386 1.75 7.95638V16.7943H24.25ZM11.9908 12.762H5.68311C5.31901 12.762 5.02393 12.4663 5.02393 12.1015C5.02393 11.7367 5.31901 11.4411 5.68311 11.4411H11.9908C12.3549 11.4411 12.65 11.7367 12.65 12.1015C12.65 12.4663 12.3549 12.762 11.9908 12.762ZM11.9908 10.655H5.68311C5.31901 10.655 5.02393 10.3592 5.02393 9.99455C5.02393 9.62975 5.31901 9.33408 5.68311 9.33408H11.9908C12.3549 9.33408 12.65 9.62975 12.65 9.99455C12.65 10.3592 12.3549 10.655 11.9908 10.655ZM11.9908 14.869H5.68311C5.31901 14.869 5.02393 14.5733 5.02393 14.2085C5.02393 13.8439 5.31901 13.548 5.68311 13.548H11.9908C12.3549 13.548 12.65 13.8439 12.65 14.2085C12.65 14.5733 12.3549 14.869 11.9908 14.869ZM16.1234 15.5649C15.7593 15.5649 15.4642 15.2692 15.4642 14.9044C15.4642 14.5398 15.7593 14.2439 16.1234 14.2439C16.4873 14.2439 16.7826 14.5398 16.7826 14.9044C16.7826 15.2692 16.4873 15.5649 16.1234 15.5649ZM17.9475 15.5649C17.5834 15.5649 17.2883 15.2692 17.2883 14.9044C17.2883 14.5398 17.5834 14.2439 17.9475 14.2439C18.3114 14.2439 18.6066 14.5398 18.6066 14.9044C18.6066 15.2692 18.3115 15.5649 17.9475 15.5649ZM20.8901 10.9431L19.3995 13.5702C19.2823 13.7768 19.0636 13.9044 18.8265 13.9044H15.7785C15.6036 13.9044 15.4357 13.8346 15.3121 13.7106C15.1885 13.5865 15.1192 13.4185 15.1193 13.2431L15.1222 10.616V9.97753H14.7793C14.4153 9.97753 14.1201 9.68169 14.1201 9.31706C14.1201 8.95225 14.4153 8.65659 14.7793 8.65659H15.7814C16.1454 8.65659 16.4406 8.95225 16.4406 9.31706V9.9562H20.3169C20.5517 9.9562 20.7687 10.0812 20.8866 10.2845C21.0047 10.4878 21.0059 10.7386 20.8901 10.9431Z" fill="#0088FF"/>
<path d="M1.75 18.1152V19.8885C1.75 20.9811 2.63715 21.8699 3.72754 21.8699H10.2194V24.2227H8.39827C8.03418 24.2227 7.73909 24.5184 7.73909 24.8832C7.73909 25.248 8.03418 25.5436 8.39827 25.5436H17.6019C17.9658 25.5436 18.2611 25.248 18.2611 24.8832C18.2611 24.5184 17.9658 24.2227 17.6019 24.2227H15.7806V21.8699H22.2725C23.3629 21.8699 24.25 20.9811 24.25 19.8885V18.1152H1.75ZM12.7152 18.732H13.2848C13.6487 18.732 13.944 19.0277 13.944 19.3925C13.944 19.7573 13.6487 20.053 13.2848 20.053H12.7152C12.3513 20.053 12.056 19.7573 12.056 19.3925C12.056 19.0277 12.3513 18.732 12.7152 18.732Z" fill="#0088FF"/>
</g>
<defs>
<clipPath id="clip0_7751_99087">
<rect width="22.5" height="22.5" fill="white" transform="translate(1.75 4.5)"/>
</clipPath>
</defs>
</svg>
