<svg width="24" height="25" viewBox="0 0 24 25" fill="none" xmlns="http://www.w3.org/2000/svg">
<path d="M22.139 12.4056V23.6997C22.139 24.0279 21.8718 24.2942 21.5426 24.2942H10.8071V15.3778C10.8071 15.0496 10.5399 14.7833 10.2107 14.7833H5.43939C5.11017 14.7833 4.84297 15.0496 4.84297 15.3778V24.2942H2.45731C2.12809 24.2942 1.8609 24.0279 1.8609 23.6997V12.4056H2.06368C2.93445 12.4056 3.73364 11.9806 4.22867 11.3059C4.2406 11.3178 4.24954 11.3357 4.25849 11.3505C4.77141 12.0192 5.54973 12.4056 6.39664 12.4056H7.14812C8.05169 12.4056 8.85387 11.9598 9.34293 11.2703C9.38169 11.3178 9.42046 11.3683 9.46221 11.4159C10.0258 12.046 10.8369 12.4056 11.6839 12.4056H12.3161C13.163 12.4056 13.9741 12.046 14.5377 11.4159C14.5795 11.3683 14.6182 11.3178 14.657 11.2703C15.146 11.9598 15.9482 12.4056 16.8518 12.4056H17.6033C18.4502 12.4056 19.2285 12.0192 19.7414 11.3505C19.7504 11.3357 19.7593 11.3178 19.7712 11.3059C20.2663 11.9806 21.0655 12.4056 21.9362 12.4056H22.139ZM19.1569 20.1332V15.3778C19.1569 15.0496 18.8897 14.7833 18.5605 14.7833H14.3856C14.0564 14.7833 13.7892 15.0496 13.7892 15.3778V20.1332C13.7892 20.4613 14.0564 20.7276 14.3856 20.7276H18.5605C18.8897 20.7276 19.1569 20.4613 19.1569 20.1332ZM4.21644 1.70593C3.74497 1.70593 3.31794 1.98264 3.12649 2.41181L0.131296 9.12736C-0.0846067 9.6133 -0.0324203 10.1468 0.274435 10.5831C0.5631 10.9933 1.05246 11.2168 1.55494 11.2168H2.06368C2.73167 11.2168 3.32212 10.768 3.50104 10.129L4.88174 5.16847L5.84793 1.70593H4.21644ZM7.0855 1.70593L4.95928 9.33243C4.83403 9.7842 4.92647 10.2568 5.20977 10.6313C5.49307 11.0028 5.92547 11.2168 6.39664 11.2168H7.14812C7.91153 11.2168 8.54671 10.6491 8.63021 9.89417L9.54571 1.70593H7.0855ZM13.2554 1.70593H10.7445L9.90356 9.23733C9.84988 9.73962 10.0109 10.2449 10.3509 10.6223C10.6938 11.0057 11.168 11.2168 11.6839 11.2168H12.3161C12.832 11.2168 13.3061 11.0057 13.649 10.6223C13.989 10.2449 14.15 9.73962 14.0964 9.23733L13.2554 1.70593ZM16.9144 1.70593H14.4542L15.3697 9.89417C15.4532 10.6491 16.0884 11.2168 16.8518 11.2168H17.6033C18.0744 11.2168 18.5068 11.0028 18.7901 10.6313C19.0734 10.2568 19.1659 9.7842 19.0406 9.33243L16.9144 1.70593ZM20.8734 2.41181C20.682 1.98264 20.2546 1.70593 19.7835 1.70593H18.152L19.1182 5.16847L20.4989 10.129C20.6778 10.768 21.2682 11.2168 21.9362 11.2168H22.445C22.9478 11.2168 23.4371 10.9933 23.7255 10.5831C24.0326 10.1468 24.0845 9.613 23.8686 9.12736L20.8734 2.41181Z" fill="#0088FF"/>
</svg>
