<svg width="24" height="25" viewBox="0 0 24 25" fill="none" xmlns="http://www.w3.org/2000/svg">
<g clip-path="url(#clip0_7751_99746)">
<path d="M16.2656 9.53125C12.0009 9.53125 8.53125 13.0009 8.53125 17.2656C8.53125 21.5304 12.0009 25 16.2656 25C20.5304 25 24 21.5304 24 17.2656C24 13.0009 20.5304 9.53125 16.2656 9.53125ZM16.2656 16.5625C17.4288 16.5625 18.375 17.5087 18.375 18.6719C18.375 19.5873 17.7854 20.3605 16.9688 20.6517V22.1875H15.5625V20.6517C14.7458 20.3605 14.1562 19.5873 14.1562 18.6719H15.5625C15.5625 19.0598 15.8777 19.375 16.2656 19.375C16.6536 19.375 16.9688 19.0598 16.9688 18.6719C16.9688 18.2839 16.6536 17.9688 16.2656 17.9688C15.1025 17.9688 14.1562 17.0225 14.1562 15.8594C14.1562 14.9439 14.7458 14.1708 15.5625 13.8795V12.3438H16.9688V13.8795C17.7854 14.1708 18.375 14.9439 18.375 15.8594H16.9688C16.9688 15.4714 16.6536 15.1562 16.2656 15.1562C15.8777 15.1562 15.5625 15.4714 15.5625 15.8594C15.5625 16.2473 15.8777 16.5625 16.2656 16.5625Z" fill="#0088FF"/>
<path d="M7.82812 9.53125C12.165 9.53125 15.5625 7.678 15.5625 5.3125C15.5625 2.947 12.165 1 7.82812 1C3.49125 1 0 2.947 0 5.3125C0 7.678 3.49125 9.53125 7.82812 9.53125Z" fill="#0088FF"/>
<path d="M0 16.8231V17.9688C0 20.3343 3.49125 22.1875 7.82812 22.1875C8.07413 22.1875 8.31248 22.1649 8.55469 22.153C8.01534 21.305 7.61311 20.364 7.37625 19.3581C4.24008 19.2715 1.51697 18.3078 0 16.8231Z" fill="#0088FF"/>
<path d="M7.1588 17.9329C7.14267 17.7118 7.125 17.4909 7.125 17.2656C7.125 16.5327 7.22105 15.8232 7.38483 15.1397C4.24477 15.0546 1.51833 14.0904 0 12.6043V13.75C0 15.99 3.15291 17.7504 7.1588 17.9329Z" fill="#0088FF"/>
<path d="M7.82812 13.75C7.82888 13.75 7.82948 13.7499 7.83028 13.7499C8.29402 12.6416 8.96813 11.6425 9.80527 10.8054C9.17025 10.8857 8.514 10.9375 7.82812 10.9375C4.48983 10.9375 1.59028 9.94203 0 8.38559V9.53126C0 11.8968 3.49125 13.75 7.82812 13.75Z" fill="#0088FF"/>
</g>
<defs>
<clipPath id="clip0_7751_99746">
<rect width="24" height="24" fill="white" transform="translate(0 1)"/>
</clipPath>
</defs>
</svg>
