<svg width="24" height="25" viewBox="0 0 24 25" fill="none" xmlns="http://www.w3.org/2000/svg">
<path d="M10.2497 6.50034H6.75C6.33562 6.50034 6 6.16471 6 5.75034C6 5.33596 6.33562 5.00034 6.75 5.00034H10.2497C10.6641 5.00034 10.9997 5.33596 10.9997 5.75034C10.9997 6.16471 10.6631 6.50034 10.2497 6.50034Z" fill="#0088FF"/>
<path d="M10.2497 11.5H6.75C6.33562 11.5 6 11.1644 6 10.75C6 10.3356 6.33562 10 6.75 10H10.2497C10.6641 10 10.9997 10.3356 10.9997 10.75C10.9997 11.1644 10.6631 11.5 10.2497 11.5Z" fill="#0088FF"/>
<path d="M15.38 8.7503H14.6197C14.2775 8.7503 14 8.47092 14 8.1203C14 7.77811 14.2794 7.50061 14.6197 7.50061H16.7497C17.1641 7.50061 17.4997 7.16499 17.4997 6.75061C17.4997 6.33624 17.1641 6.00061 16.7497 6.00061H15.7503V5.25061C15.7503 4.83624 15.4147 4.50061 15.0003 4.50061C14.5859 4.50061 14.2503 4.83624 14.2503 5.25061V6.03811C13.2575 6.2153 12.5 7.07874 12.5 8.13061C12.5 9.29874 13.4506 10.2503 14.6197 10.2503H15.38C15.7222 10.2503 15.9997 10.5297 15.9997 10.8803C15.9997 11.2225 15.7203 11.5 15.38 11.5H13.25C12.8356 11.5 12.5 11.8356 12.5 12.25C12.5 12.6644 12.8356 13 13.25 13H14.2503V13.75C14.2503 14.1644 14.5859 14.5 15.0003 14.5C15.4147 14.5 15.7503 14.1644 15.7503 13.75V12.9625C16.7431 12.7853 17.5006 11.9219 17.5006 10.87C17.5006 9.70186 16.55 8.7503 15.38 8.7503Z" fill="#0088FF"/>
<path d="M22.6078 8.26469L21.5006 7.63656V6.83594C21.5006 6.03625 21.1903 5.28344 20.6231 4.71625L17.7947 1.88219C17.2275 1.31312 16.4728 1 15.6703 1H15.42H5.74969H5.49937C3.84469 1 2.49937 2.34531 2.49937 4V7.63563L1.39219 8.26375C0.534375 8.75219 0 9.66719 0 10.6553V10.7481L4.5 13.1528V10.5409V4C4.5 3.44781 4.94812 2.99969 5.50031 2.99969H15.6703C15.9375 2.99969 16.1897 3.10281 16.3781 3.29406L19.2075 6.12719C19.3931 6.31281 19.5 6.57156 19.5 6.83406V10.6244V13.1538L24 10.7491V10.6563C24 9.66719 23.4656 8.75219 22.6078 8.26469Z" fill="#0088FF"/>
<path d="M11.9981 18.4928C11.5613 18.4928 11.1253 18.3897 10.7278 18.1825L0 12.4497V22.2503C0 23.7653 1.23281 25 2.74969 25H21.2494C22.7672 25 24 23.7653 24 22.2503V12.4497L13.2797 18.1778C12.8756 18.3878 12.4369 18.4928 11.9981 18.4928Z" fill="#0088FF"/>
</svg>
