<svg width="24" height="24" viewBox="0 0 24 24" fill="none" xmlns="http://www.w3.org/2000/svg">
<g clip-path="url(#clip0_7751_99132)">
<g clip-path="url(#clip1_7751_99132)">
<path d="M20.6488 6.22051V2.24994H11.3841V6.22051H15.3547V7.54404H5.22593C4.25074 7.54404 3.42739 8.242 3.26777 9.203L2.21094 15.5429C2.39702 15.5103 2.58591 15.4852 2.78115 15.4852H21.3105C21.5058 15.4852 21.6947 15.5103 21.8808 15.5429L20.8239 9.203C20.6643 8.24137 19.8403 7.54404 18.8658 7.54404H16.6782V6.22051H20.6488ZM7.41353 13.4999H6.09001V12.1764H7.41353V13.4999ZM7.41353 10.8529H6.09001V9.52937H7.41353V10.8529ZM10.0606 13.4999H8.73706V12.1764H10.0606V13.4999ZM10.0606 10.8529H8.73706V9.52937H10.0606V10.8529ZM18.0017 13.4999H11.3841V9.52937H18.0017V13.4999Z" fill="#0088FF"/>
<path d="M12.707 10.8529H16.6776V12.1764H12.707V10.8529Z" fill="#0088FF"/>
<path d="M21.3529 16.8087H2.73529C1.63884 16.8087 0.75 17.6976 0.75 18.794V23.4263H23.3382V18.794C23.3382 17.6976 22.4494 16.8087 21.3529 16.8087ZM15.3529 20.7793H8.7353V18.794H10.0588V19.4558H14.0294V18.794H15.3529V20.7793Z" fill="#0088FF"/>
</g>
</g>
<defs>
<clipPath id="clip0_7751_99132">
<rect width="22.5" height="21" fill="white" transform="translate(0.75 2.25)"/>
</clipPath>
<clipPath id="clip1_7751_99132">
<rect width="22.5882" height="22.5882" fill="white" transform="translate(0.75 1.54413)"/>
</clipPath>
</defs>
</svg>
