<svg width="30" height="31" viewBox="0 0 30 31" fill="none" xmlns="http://www.w3.org/2000/svg">
<g clip-path="url(#clip0_7751_98891)">
<path d="M15.8485 20.8743C17.115 19.6077 18.2162 18.5065 19.1748 17.548V13.0812C19.1748 12.0916 18.2429 11.2236 17.1806 11.2236H16.3623C16.3623 10.7687 16.3623 10.171 16.3623 9.72949H16.7969C17.5018 9.72949 18.1201 9.1234 18.1201 8.43245V5.88089C18.1201 5.22905 17.5542 4.5 16.7969 4.5H15.0813V8.41113H13.7629V4.5H12.1436V8.41113H10.8252V4.5H9.09986V8.41113H7.7815V4.5H6.17187C5.41452 4.5 4.84863 5.22905 4.84863 5.88089V8.43245C4.84863 9.1234 5.46694 9.72949 6.17187 9.72949H6.51855V11.2236H5.83213C4.80381 11.2236 3.75 12.0711 3.75 13.0812V25.0655C3.75 26.0418 4.78135 27 5.83213 27H15.9956L15.8485 26.8529C14.2002 25.2046 14.2002 22.5226 15.8485 20.8743ZM12.1436 19.771V21.9737C12.1436 22.3377 11.8484 22.6328 11.4844 22.6328C11.1203 22.6328 10.8252 22.3377 10.8252 21.9737V19.771H8.62252C8.25848 19.771 7.96334 19.4759 7.96334 19.1118C7.96334 18.7478 8.25848 18.4526 8.62252 18.4526H10.8252V16.25C10.8252 15.8859 11.1203 15.5908 11.4844 15.5908C11.8484 15.5908 12.1436 15.8859 12.1436 16.25V18.4526H14.3462C14.7103 18.4526 15.0054 18.7478 15.0054 19.1118C15.0054 19.4759 14.7103 19.771 14.3462 19.771H12.1436Z" fill="#0088FF"/>
<path d="M25.3981 17.7579L25.1708 17.5306C24.0334 16.3932 22.1875 16.3999 21.0569 17.5305L19.4336 19.1538L23.775 23.4952L25.3982 21.872C26.5324 20.7377 26.5324 18.8922 25.3981 17.7579Z" fill="#0088FF"/>
<path d="M16.7804 21.8066C15.6461 22.9409 15.6461 24.7865 16.7804 25.9208L17.0077 26.148C18.1419 27.2823 19.9875 27.2823 21.1217 26.148L22.8422 24.4275L18.5009 20.0862L16.7804 21.8066Z" fill="#0088FF"/>
</g>
<defs>
<clipPath id="clip0_7751_98891">
<rect width="22.5" height="22.5" fill="white" transform="translate(3.75 4.5)"/>
</clipPath>
</defs>
</svg>
