<svg viewBox="0 0 24 24" fill="none" xmlns="http://www.w3.org/2000/svg">
    <path d="M21.0943 5.73278L21.0944 5.73286C21.7211 6.51564 22.0625 7.48849 22.0625 8.49122V11.421C22.0625 11.6237 21.982 11.8181 21.8387 11.9614C21.6953 12.1048 21.5009 12.1853 21.2982 12.1853H20.659V19.8421C20.659 20.417 20.4306 20.9684 20.0241 21.3749C19.6175 21.7814 19.0662 22.0098 18.4912 22.0098H5.85969C5.28477 22.0098 4.73339 21.7814 4.32685 21.3749C3.92032 20.9684 3.69193 20.417 3.69193 19.8421V12.1853H2.7018C2.49911 12.1853 2.30472 12.1048 2.16139 11.9614C2.01807 11.8181 1.93755 11.6237 1.93755 11.421V8.61417V8.61402H2.00005L21.0943 5.73278ZM21.0943 5.73278L19.4037 3.6282L21.0943 5.73278ZM6.32985 2.9375L6.32986 2.9375L17.9859 2.9375L17.986 2.9375V3L6.32985 2.9375ZM6.32985 2.9375C6.07482 2.93754 5.82266 2.99127 5.58976 3.0952M6.32985 2.9375L5.58976 3.0952M6.11311 4.57871L6.11305 4.57878L4.20788 6.68394C4.20786 6.68396 4.20783 6.68399 4.20781 6.68401C3.73059 7.2136 3.46635 7.90113 3.46606 8.61402C3.46606 8.61403 3.46606 8.61404 3.46606 8.61405V10.6568H7.90245V8.16841V8.16822C7.90471 7.40877 8.11271 6.66412 8.50435 6.01344L6.11311 4.57871ZM6.11311 4.57871C6.14039 4.54848 6.17377 4.52436 6.21105 4.50796C6.24833 4.49156 6.28866 4.48324 6.32939 4.48355H6.32986H9.42294L8.50438 6.01338L6.11311 4.57871ZM18.2004 4.57598L18.2001 4.57559C18.1732 4.5416 18.1391 4.5141 18.1001 4.49513C18.0612 4.47618 18.0186 4.46623 17.9753 4.46601H14.928L15.8465 5.99583C16.2413 6.65172 16.4494 7.40297 16.4485 8.16849M18.2004 4.57598L16.386 8.16841M18.2004 4.57598L19.8916 6.68124L19.8918 6.68139C20.306 7.19379 20.5326 7.83243 20.534 8.49134M18.2004 4.57598L19.9404 6.6421C20.3636 7.16559 20.5951 7.81805 20.5965 8.49122M16.4485 8.16849L16.386 8.16841M16.4485 8.16849V8.16841H16.386M16.4485 8.16849V10.6568M16.386 8.16841V10.6568H16.4485M16.4485 10.6568V10.7193H20.534V10.6568M16.4485 10.6568H20.534M20.534 10.6568H20.5965V8.49122M20.534 10.6568V8.49134M20.534 8.49134L20.5965 8.49122M20.534 8.49134V8.49122H20.5965M5.58976 3.0952C5.35692 3.1991 5.14855 3.35085 4.97821 3.54058M5.58976 3.0952L4.97821 3.54058M4.97821 3.54058C4.97817 3.54062 4.97813 3.54066 4.97809 3.54071L4.97821 3.54058ZM9.81505 6.79702L9.81508 6.79698L11.2004 4.48004H13.1437L14.5359 6.78299C14.5359 6.78304 14.5359 6.78309 14.536 6.78314C14.7843 7.19774 14.9169 7.67134 14.92 8.15462C14.92 8.15467 14.92 8.15472 14.92 8.15477L14.92 10.6568H9.43095V8.16858C9.43403 7.68527 9.56667 7.21164 9.81505 6.79702ZM9.78183 20.4813V17.3859C9.78183 17.0303 9.92311 16.6892 10.1746 16.4377C10.4261 16.1862 10.7672 16.0449 11.1228 16.0449H13.2281C13.5837 16.0449 13.9248 16.1862 14.1763 16.4377C14.4278 16.6892 14.5691 17.0303 14.5691 17.3859V20.4813H9.78183ZM19.1305 19.8421C19.1305 20.0116 19.0631 20.1742 18.9433 20.2941C18.8234 20.414 18.6608 20.4813 18.4912 20.4813H16.0976V17.3859C16.0976 16.6249 15.7953 15.895 15.2571 15.3569C14.719 14.8187 13.9891 14.5164 13.2281 14.5164H11.1228C10.3618 14.5164 9.63192 14.8187 9.09378 15.3569C8.55565 15.895 8.25332 16.6249 8.25332 17.3859V20.4813H5.85969C5.69015 20.4813 5.52755 20.414 5.40767 20.2941C5.28779 20.1742 5.22044 20.0116 5.22044 19.8421V12.1853H19.1305V19.8421Z"
          fill="#A3A8AF" stroke="#A3A8AF" stroke-width="0.125"/>
</svg>
