<svg viewBox="0 0 24 24" fill="none" xmlns="http://www.w3.org/2000/svg">
    <path fill-rule="evenodd" clip-rule="evenodd"
          d="M21.0181 4.45004L21.971 9.72075C22.0772 10.308 21.8887 10.9106 21.4666 11.3326L11.3317 21.4675C10.9766 21.8225 10.5103 22 10.0439 22C9.57748 22 9.11115 21.8225 8.75607 21.4675L2.53251 15.2439C1.8225 14.5337 1.8225 13.3784 2.53247 12.6683L12.6675 2.53336C13.0894 2.1114 13.6921 1.923 14.2792 2.02898L19.55 2.98187C20.2937 3.11629 20.8837 3.70629 21.0181 4.45004ZM10.5023 20.6381L20.6372 10.5031C20.7875 10.3529 20.8546 10.1384 20.8168 9.92939L19.8639 4.65871C19.8161 4.39398 19.6061 4.18394 19.3414 4.13613L14.0706 3.1832C14.0323 3.17629 13.9937 3.17289 13.9554 3.17289C13.785 3.17289 13.6195 3.24011 13.4969 3.36273L3.36192 13.4977C3.10919 13.7505 3.10919 14.1617 3.36196 14.4144L9.58553 20.6381C9.83826 20.8909 10.2495 20.8909 10.5023 20.6381ZM16.0563 5.65607C16.6823 5.03005 17.7009 5.03001 18.3269 5.65607C18.6302 5.95931 18.7972 6.36252 18.7971 6.79139C18.7971 7.22025 18.6301 7.62342 18.3269 7.9267C18.0139 8.23967 17.6028 8.3962 17.1916 8.3962C16.7804 8.3962 16.3693 8.23967 16.0563 7.92666C15.4303 7.30065 15.4303 6.28209 16.0563 5.65607ZM17.4975 7.09725V7.09721C17.5792 7.01549 17.6242 6.90689 17.6242 6.79135C17.6242 6.6758 17.5792 6.56721 17.4975 6.48549C17.4132 6.40119 17.3024 6.35896 17.1916 6.35896C17.0809 6.35896 16.9701 6.40111 16.8858 6.48545C16.7171 6.65412 16.7171 6.92857 16.8858 7.09725C17.0545 7.266 17.3289 7.26592 17.4975 7.09725ZM9.4592 16.9035L8.55302 15.9973L9.08337 15.4669C9.1372 15.4131 9.15709 15.351 9.14302 15.2808C9.129 15.2105 9.09509 15.1485 9.04119 15.0946C8.98271 15.0361 8.91763 15.0004 8.84626 14.9875C8.77482 14.9746 8.71334 14.994 8.66189 15.0454L8.13154 15.5758L7.5379 14.9821L8.44763 14.0724C8.49912 14.0209 8.51615 13.9571 8.49857 13.881C8.48103 13.805 8.4383 13.7329 8.37037 13.665C8.30716 13.6018 8.2381 13.5608 8.1631 13.542C8.08822 13.5234 8.02384 13.5409 7.97001 13.5947L6.75122 14.8135C6.68563 14.8792 6.64407 14.95 6.62653 15.0261C6.60895 15.1022 6.62712 15.1671 6.68095 15.221L8.9113 17.4514C8.96525 17.5053 9.03369 17.5199 9.11681 17.4954C9.1999 17.4708 9.27888 17.421 9.35384 17.346C9.42877 17.2711 9.47853 17.1921 9.5031 17.109C9.52771 17.0259 9.51314 16.9574 9.4592 16.9035ZM12.3253 13.7212C12.3535 13.7259 12.3803 13.7411 12.4061 13.7669C12.474 13.8348 12.5016 13.936 12.4885 14.0707C12.4757 14.2054 12.4283 14.3137 12.3463 14.3957C12.2644 14.4777 12.1719 14.5022 12.0689 14.4694L10.6533 14.0163L10.4215 14.2482L11.268 15.0946C11.3219 15.1486 11.3365 15.217 11.3119 15.3001C11.2873 15.3833 11.2375 15.4623 11.1626 15.5372C11.0877 15.6121 11.0087 15.6619 10.9256 15.6864C10.8424 15.7111 10.774 15.6964 10.7201 15.6425L8.48623 13.4086C8.44178 13.3642 8.41893 13.3097 8.41776 13.2453C8.41658 13.1808 8.44057 13.1241 8.48975 13.075L9.21686 12.3479C9.79288 11.7719 10.3315 11.7344 10.8326 12.2354C11.1979 12.6007 11.2938 12.9801 11.1206 13.3734L12.3253 13.7212ZM10.0001 13.8266L10.3479 13.4788C10.4509 13.3758 10.5041 13.2722 10.5077 13.168C10.5112 13.0638 10.4545 12.9532 10.3373 12.836C10.2203 12.719 10.1096 12.6623 10.0055 12.6658C9.90123 12.6693 9.7976 12.7225 9.69459 12.8255L9.34682 13.1733L10.0001 13.8266ZM14.4818 12.0774C14.4631 12.0025 14.4221 11.9334 14.3589 11.8702C14.291 11.8023 14.219 11.7596 14.1429 11.742C14.0667 11.7245 14.0029 11.7415 13.9515 11.7929L13.0101 12.7343L12.4131 12.1372L12.9399 11.6103C12.9938 11.5565 13.0137 11.4944 12.9996 11.4241C12.9856 11.3539 12.9517 11.2919 12.8978 11.238C12.8393 11.1795 12.7742 11.1438 12.7029 11.1309C12.6314 11.118 12.5699 11.1373 12.5185 11.1888L11.9916 11.7157L11.3979 11.122L12.3393 10.1807C12.3908 10.1292 12.4078 10.0654 12.3903 9.9893C12.3727 9.91324 12.33 9.84121 12.262 9.77328C12.1988 9.71 12.1298 9.6691 12.0548 9.65031C11.9799 9.63168 11.9155 9.64922 11.8617 9.70304L10.6113 10.9534C10.5458 11.019 10.5042 11.0898 10.4866 11.1659C10.469 11.2421 10.4872 11.307 10.541 11.3609L12.7714 13.5912C12.8253 13.6452 12.8902 13.6633 12.9663 13.6457C13.0424 13.6282 13.1131 13.5866 13.1787 13.521L14.4291 12.2706C14.483 12.2168 14.5006 12.1524 14.4818 12.0774ZM16.2521 9.97708C16.3153 10.0403 16.3563 10.1094 16.375 10.1843C16.3937 10.2593 16.3761 10.3237 16.3223 10.3775L15.0719 11.6279C15.0063 11.6935 14.9356 11.7351 14.8594 11.7526C14.7834 11.7703 14.7185 11.7521 14.6646 11.6981L12.4342 9.46778C12.3804 9.41392 12.3622 9.34903 12.3798 9.27286C12.3973 9.19677 12.4389 9.12591 12.5044 9.06036L13.7548 7.80997C13.8087 7.75614 13.8731 7.7386 13.948 7.75723C14.023 7.77602 14.092 7.81692 14.1552 7.8802C14.2232 7.94813 14.2659 8.02016 14.2834 8.09622C14.301 8.17235 14.284 8.2361 14.2325 8.28762L13.2912 9.22892L13.8848 9.82255L14.4116 9.29571C14.4631 9.24423 14.5246 9.22493 14.596 9.23778C14.6674 9.25063 14.7325 9.28638 14.791 9.34485C14.8449 9.39876 14.8788 9.46075 14.8928 9.53103C14.9069 9.60126 14.8869 9.66337 14.8331 9.7172L14.3063 10.244L14.9034 10.8411L15.8446 9.89982C15.8961 9.84833 15.9599 9.83142 16.036 9.84888C16.1122 9.8665 16.1842 9.90919 16.2521 9.97708Z"
          fill="#A3A8AF"/>
    <path d="M21.971 9.72075L21.725 9.76523L21.725 9.76525L21.971 9.72075ZM21.0181 4.45004L20.7721 4.49451V4.49452L21.0181 4.45004ZM21.4666 11.3326L21.2899 11.1558L21.2899 11.1558L21.4666 11.3326ZM11.3317 21.4675L11.1549 21.2907H11.1549L11.3317 21.4675ZM8.75607 21.4675L8.5793 21.6442L8.57931 21.6442L8.75607 21.4675ZM2.53251 15.2439L2.35571 15.4206L2.35573 15.4206L2.53251 15.2439ZM2.53247 12.6683L2.35569 12.4915L2.35568 12.4915L2.53247 12.6683ZM12.6675 2.53336L12.8443 2.71013L12.8443 2.71012L12.6675 2.53336ZM14.2792 2.02898L14.3237 1.78297L14.3236 1.78296L14.2792 2.02898ZM19.55 2.98187L19.5055 3.22788L19.5055 3.22789L19.55 2.98187ZM20.6372 10.5031L20.4605 10.3264L20.6372 10.5031ZM10.5023 20.6381L10.6791 20.8149L10.6791 20.8149L10.5023 20.6381ZM20.8168 9.92939L20.5708 9.97386L20.5708 9.97389L20.8168 9.92939ZM19.8639 4.65871L19.6179 4.70318L19.6179 4.70319L19.8639 4.65871ZM19.3414 4.13613L19.2969 4.38214L19.2969 4.38215L19.3414 4.13613ZM14.0706 3.1832L14.1151 2.93719L14.115 2.93717L14.0706 3.1832ZM13.4969 3.36273L13.3201 3.18593L13.3201 3.18596L13.4969 3.36273ZM3.36192 13.4977L3.18515 13.3209L3.18513 13.3209L3.36192 13.4977ZM3.36196 14.4144L3.53874 14.2377L3.53874 14.2377L3.36196 14.4144ZM9.58553 20.6381L9.76232 20.4613L9.76231 20.4613L9.58553 20.6381ZM18.3269 5.65607L18.1501 5.83284L18.1501 5.83286L18.3269 5.65607ZM16.0563 5.65607L16.2331 5.83285L16.2331 5.83284L16.0563 5.65607ZM18.7971 6.79139L18.5471 6.79136V6.79139H18.7971ZM18.3269 7.9267L18.5036 8.10348L18.3269 7.9267ZM16.0563 7.92666L16.2331 7.7499L16.2331 7.74988L16.0563 7.92666ZM17.4975 7.09721L17.3207 6.92043L17.2475 6.99366V7.09721H17.4975ZM17.4975 7.09725L17.6743 7.274L17.7475 7.20078V7.09725H17.4975ZM17.4975 6.48549L17.6743 6.30871L17.6743 6.30867L17.4975 6.48549ZM16.8858 6.48545L17.0625 6.66223L16.8858 6.48545ZM16.8858 7.09725L17.0626 6.92049L17.0625 6.92047L16.8858 7.09725ZM8.55302 15.9973L8.37625 15.8205L8.19947 15.9973L8.37625 16.1741L8.55302 15.9973ZM9.4592 16.9035L9.28242 17.0802L9.4592 16.9035ZM9.08337 15.4669L8.9066 15.2902L9.08337 15.4669ZM9.14302 15.2808L8.89786 15.3297L8.89789 15.3299L9.14302 15.2808ZM8.84626 14.9875L8.8907 14.7415L8.89066 14.7415L8.84626 14.9875ZM8.66189 15.0454L8.83867 15.2222L8.83867 15.2222L8.66189 15.0454ZM8.13154 15.5758L7.95476 15.7525L8.13154 15.9293L8.30831 15.7525L8.13154 15.5758ZM7.5379 14.9821L7.36113 14.8053L7.18435 14.9821L7.36113 15.1589L7.5379 14.9821ZM8.44763 14.0724L8.62441 14.2492L8.62441 14.2492L8.44763 14.0724ZM8.49857 13.881L8.25496 13.9372L8.25498 13.9373L8.49857 13.881ZM8.37037 13.665L8.19353 13.8417L8.19359 13.8418L8.37037 13.665ZM8.1631 13.542L8.22385 13.2995L8.22347 13.2994L8.1631 13.542ZM7.97001 13.5947L7.79324 13.418L7.97001 13.5947ZM6.75122 14.8135L6.57444 14.6368L6.57439 14.6368L6.75122 14.8135ZM6.62653 15.0261L6.87013 15.0823L6.87015 15.0822L6.62653 15.0261ZM6.68095 15.221L6.50411 15.3977L6.50417 15.3978L6.68095 15.221ZM8.9113 17.4514L8.73453 17.6281L8.9113 17.4514ZM9.11681 17.4954L9.18757 17.7352L9.18771 17.7351L9.11681 17.4954ZM9.35384 17.346L9.17702 17.1693L9.17702 17.1693L9.35384 17.346ZM9.5031 17.109L9.26339 17.038L9.26336 17.0381L9.5031 17.109ZM12.4061 13.7669L12.5829 13.5901L12.5829 13.5901L12.4061 13.7669ZM12.3253 13.7212L12.256 13.9614L12.2699 13.9654L12.2843 13.9678L12.3253 13.7212ZM12.4885 14.0707L12.2397 14.0466L12.2397 14.047L12.4885 14.0707ZM12.3463 14.3957L12.1695 14.2189L12.1695 14.219L12.3463 14.3957ZM12.0689 14.4694L11.9926 14.7075L11.993 14.7077L12.0689 14.4694ZM10.6533 14.0163L10.7296 13.7782L10.5844 13.7318L10.4766 13.8396L10.6533 14.0163ZM10.4215 14.2482L10.2447 14.0714L10.068 14.2482L10.2447 14.425L10.4215 14.2482ZM11.3119 15.3001L11.5516 15.3712L11.5517 15.371L11.3119 15.3001ZM10.9256 15.6864L10.8547 15.4467L10.8545 15.4467L10.9256 15.6864ZM8.48623 13.4086L8.66301 13.2318L8.66301 13.2318L8.48623 13.4086ZM8.41776 13.2453L8.66772 13.2408V13.2407L8.41776 13.2453ZM8.48975 13.075L8.66645 13.2518L8.66652 13.2518L8.48975 13.075ZM9.21686 12.3479L9.39364 12.5246H9.39364L9.21686 12.3479ZM10.8326 12.2354L10.6558 12.4122L10.6558 12.4122L10.8326 12.2354ZM11.1206 13.3734L10.8918 13.2726L10.7765 13.5343L11.0512 13.6136L11.1206 13.3734ZM10.3479 13.4788L10.5247 13.6556L10.5247 13.6556L10.3479 13.4788ZM10.0001 13.8266L9.82333 14.0034L10.0001 14.1801L10.1769 14.0034L10.0001 13.8266ZM10.5077 13.168L10.7575 13.1765L10.7575 13.1764L10.5077 13.168ZM10.0055 12.6658L9.99712 12.4159L9.99702 12.4159L10.0055 12.6658ZM9.69459 12.8255L9.87137 13.0023L9.87137 13.0023L9.69459 12.8255ZM9.34682 13.1733L9.17004 12.9965L8.99327 13.1733L9.17004 13.3501L9.34682 13.1733ZM14.4818 12.0774L14.2393 12.138L14.2393 12.1381L14.4818 12.0774ZM14.1429 11.742L14.1992 11.4984L14.1988 11.4983L14.1429 11.742ZM13.9515 11.7929L13.7747 11.6162L13.9515 11.7929ZM13.0101 12.7343L12.8334 12.911L13.0101 13.0878L13.1869 12.911L13.0101 12.7343ZM12.4131 12.1372L12.2363 11.9604L12.0595 12.1372L12.2363 12.314L12.4131 12.1372ZM12.9996 11.4241L12.7545 11.4731L12.7545 11.4732L12.9996 11.4241ZM12.7029 11.1309L12.7473 10.8848L12.7471 10.8848L12.7029 11.1309ZM11.9916 11.7157L11.8148 11.8924L11.9916 12.0692L12.1684 11.8924L11.9916 11.7157ZM11.3979 11.122L11.2212 10.9453L11.0444 11.122L11.2212 11.2988L11.3979 11.122ZM12.3393 10.1807L12.5161 10.3575L12.5161 10.3575L12.3393 10.1807ZM12.3903 9.9893L12.6339 9.93317L12.6339 9.93312L12.3903 9.9893ZM12.262 9.77328L12.0852 9.94995L12.0853 9.95006L12.262 9.77328ZM12.0548 9.65031L12.1155 9.4078L12.1151 9.40771L12.0548 9.65031ZM11.8617 9.70304L11.6849 9.52627V9.52627L11.8617 9.70304ZM10.6113 10.9534L10.4345 10.7767L10.4344 10.7768L10.6113 10.9534ZM10.4866 11.1659L10.7302 11.2222L10.7302 11.2221L10.4866 11.1659ZM10.541 11.3609L10.3642 11.5376L10.3643 11.5376L10.541 11.3609ZM12.7714 13.5912L12.9482 13.4144L12.9482 13.4144L12.7714 13.5912ZM12.9663 13.6457L12.9103 13.402L12.9097 13.4022L12.9663 13.6457ZM13.1787 13.521L13.3555 13.6978L13.1787 13.521ZM14.4291 12.2706L14.2523 12.0938L14.4291 12.2706ZM16.375 10.1843L16.1324 10.2449L16.1325 10.2449L16.375 10.1843ZM16.2521 9.97708L16.0753 10.1539V10.1539L16.2521 9.97708ZM14.8594 11.7526L14.8034 11.5089L14.8029 11.5091L14.8594 11.7526ZM14.6646 11.6981L14.4878 11.8749L14.6646 11.6981ZM12.4342 9.46778L12.2574 9.6445L12.2574 9.64456L12.4342 9.46778ZM12.3798 9.27286L12.6234 9.32908L12.6234 9.32901L12.3798 9.27286ZM12.5044 9.06036L12.3277 8.88358L12.3276 8.88364L12.5044 9.06036ZM13.7548 7.80997L13.5781 7.63319V7.63319L13.7548 7.80997ZM13.948 7.75723L14.0087 7.51473L14.0083 7.51463L13.948 7.75723ZM14.1552 7.8802L13.9783 8.05687L13.9784 8.05698L14.1552 7.8802ZM14.2834 8.09622L14.527 8.04009L14.527 8.04004L14.2834 8.09622ZM14.2325 8.28762L14.4092 8.4644L14.4092 8.4644L14.2325 8.28762ZM13.2912 9.22892L13.1144 9.05214L12.9376 9.22892L13.1144 9.40569L13.2912 9.22892ZM13.8848 9.82255L13.708 9.99933L13.8848 10.1761L14.0616 9.99933L13.8848 9.82255ZM14.4116 9.29571L14.5884 9.47249L14.5884 9.47249L14.4116 9.29571ZM14.596 9.23778L14.6404 8.99174L14.6403 8.99173L14.596 9.23778ZM14.8928 9.53103L14.6476 9.57995L14.6477 9.58011L14.8928 9.53103ZM14.8331 9.7172L15.0099 9.89397L14.8331 9.7172ZM14.3063 10.244L14.1295 10.0673L13.9527 10.244L14.1295 10.4208L14.3063 10.244ZM14.9034 10.8411L14.7266 11.0179L14.9034 11.1947L15.0801 11.0179L14.9034 10.8411ZM16.036 9.84888L16.0924 9.60531L16.0919 9.6052L16.036 9.84888ZM22.217 9.67628L21.2641 4.40556L20.7721 4.49452L21.725 9.76523L22.217 9.67628ZM21.6434 11.5093C22.1234 11.0294 22.3378 10.3442 22.217 9.67626L21.725 9.76525C21.8166 10.2719 21.654 10.7917 21.2899 11.1558L21.6434 11.5093ZM11.5084 21.6442L21.6434 11.5093L21.2899 11.1558L11.1549 21.2907L11.5084 21.6442ZM10.0439 22.25C10.5736 22.25 11.1045 22.0482 11.5084 21.6442L11.1549 21.2907C10.8488 21.5968 10.4469 21.75 10.0439 21.75V22.25ZM8.57931 21.6442C8.9833 22.0482 9.51412 22.25 10.0439 22.25V21.75C9.64085 21.75 9.239 21.5968 8.93284 21.2907L8.57931 21.6442ZM2.35573 15.4206L8.5793 21.6442L8.93285 21.2907L2.70928 15.0671L2.35573 15.4206ZM2.35568 12.4915C1.5481 13.2992 1.54811 14.6129 2.35571 15.4206L2.7093 15.0671C2.0969 14.4546 2.09691 13.4575 2.70926 12.8451L2.35568 12.4915ZM12.4908 2.35658L2.35569 12.4915L2.70924 12.8451L12.8443 2.71013L12.4908 2.35658ZM14.3236 1.78296C13.656 1.66244 12.9706 1.87664 12.4907 2.35659L12.8443 2.71012C13.2082 2.34616 13.7282 2.18357 14.2348 2.275L14.3236 1.78296ZM19.5945 2.73586L14.3237 1.78297L14.2347 2.27499L19.5055 3.22788L19.5945 2.73586ZM21.2641 4.40557C21.1111 3.55918 20.4408 2.88883 19.5945 2.73586L19.5055 3.22789C20.1465 3.34374 20.6562 3.8534 20.7721 4.49451L21.2641 4.40557ZM20.4605 10.3264L10.3255 20.4613L10.6791 20.8149L20.814 10.6799L20.4605 10.3264ZM20.5708 9.97389C20.594 10.1022 20.5528 10.234 20.4605 10.3264L20.814 10.6799C21.0222 10.4718 21.1152 10.1746 21.0628 9.88488L20.5708 9.97389ZM19.6179 4.70319L20.5708 9.97386L21.0628 9.88491L20.1099 4.61423L19.6179 4.70319ZM19.2969 4.38215C19.4589 4.41141 19.5886 4.54107 19.6179 4.70318L20.1099 4.61424C20.0435 4.2469 19.7532 3.95648 19.3858 3.89011L19.2969 4.38215ZM14.0261 3.42921L19.2969 4.38214L19.3858 3.89012L14.1151 2.93719L14.0261 3.42921ZM13.9554 3.42289C13.9789 3.42289 14.0026 3.42497 14.0263 3.42924L14.115 2.93717C14.0619 2.9276 14.0085 2.92289 13.9554 2.92289V3.42289ZM13.6736 3.53954C13.7489 3.46425 13.8506 3.42289 13.9554 3.42289V2.92289C13.7194 2.92289 13.4901 3.01598 13.3201 3.18593L13.6736 3.53954ZM3.5387 13.6745L13.6736 3.53951L13.3201 3.18596L3.18515 13.3209L3.5387 13.6745ZM3.53874 14.2377C3.38359 14.0825 3.38359 13.8296 3.53871 13.6744L3.18513 13.3209C2.83478 13.6713 2.83478 14.2408 3.18518 14.5912L3.53874 14.2377ZM9.76231 20.4613L3.53874 14.2377L3.18518 14.5912L9.40875 20.8149L9.76231 20.4613ZM10.3255 20.4613C10.1703 20.6165 9.9174 20.6164 9.76232 20.4613L9.40874 20.8148C9.75912 21.1653 10.3286 21.1652 10.6791 20.8149L10.3255 20.4613ZM18.5037 5.47931C17.7801 4.7556 16.6032 4.75565 15.8796 5.4793L16.2331 5.83284C16.7615 5.30446 17.6218 5.30443 18.1501 5.83284L18.5037 5.47931ZM19.0471 6.79141C19.0472 6.29623 18.8538 5.82942 18.5037 5.47928L18.1501 5.83286C18.4065 6.08921 18.5472 6.42881 18.5471 6.79136L19.0471 6.79141ZM18.5036 8.10348C18.8538 7.75331 19.0471 7.28656 19.0471 6.79139H18.5471C18.5471 7.15395 18.4065 7.49353 18.1501 7.74993L18.5036 8.10348ZM17.1916 8.6462C17.6662 8.6462 18.1418 8.46536 18.5036 8.10348L18.1501 7.74993C17.886 8.01398 17.5394 8.1462 17.1916 8.1462V8.6462ZM15.8796 8.10343C16.2414 8.46536 16.7171 8.6462 17.1916 8.6462V8.1462C16.8438 8.1462 16.4972 8.01398 16.2331 7.7499L15.8796 8.10343ZM15.8796 5.47929C15.1559 6.20294 15.1559 7.3798 15.8796 8.10345L16.2331 7.74988C15.7047 7.2215 15.7047 6.36124 16.2331 5.83285L15.8796 5.47929ZM17.2475 7.09721V7.09725H17.7475V7.09721H17.2475ZM17.3742 6.79135C17.3742 6.84055 17.3556 6.88557 17.3207 6.92043L17.6743 7.27398C17.8029 7.14541 17.8742 6.97323 17.8742 6.79135H17.3742ZM17.3207 6.66226C17.3556 6.69712 17.3742 6.74214 17.3742 6.79135H17.8742C17.8742 6.60946 17.8029 6.43729 17.6743 6.30871L17.3207 6.66226ZM17.1916 6.60896C17.239 6.60896 17.2853 6.62683 17.3208 6.66231L17.6743 6.30867C17.5411 6.17555 17.3659 6.10896 17.1916 6.10896V6.60896ZM17.0625 6.66223C17.0979 6.62682 17.1442 6.60896 17.1916 6.60896V6.10896C17.0175 6.10896 16.8423 6.1754 16.709 6.30867L17.0625 6.66223ZM17.0625 6.92047C16.9915 6.84943 16.9915 6.73327 17.0625 6.66223L16.709 6.30867C16.4427 6.57497 16.4427 7.00772 16.709 7.27402L17.0625 6.92047ZM17.3207 6.92049C17.2497 6.99153 17.1336 6.99155 17.0626 6.92049L16.709 7.274C16.9753 7.54044 17.4081 7.5403 17.6743 7.274L17.3207 6.92049ZM8.37625 16.1741L9.28242 17.0802L9.63597 16.7267L8.7298 15.8205L8.37625 16.1741ZM8.9066 15.2902L8.37625 15.8205L8.7298 16.1741L9.26015 15.6437L8.9066 15.2902ZM8.89789 15.3299C8.89777 15.3293 8.89722 15.3261 8.89745 15.321C8.89768 15.3157 8.89867 15.3097 8.90058 15.3037C8.90467 15.291 8.9101 15.2867 8.9066 15.2902L9.26015 15.6437C9.3687 15.5352 9.41982 15.3898 9.38816 15.2317L8.89789 15.3299ZM8.86441 15.2714C8.88573 15.2927 8.89413 15.311 8.89786 15.3297L9.38819 15.2319C9.36387 15.11 9.30446 15.0043 9.21796 14.9178L8.86441 15.2714ZM8.80183 15.2335C8.81629 15.2361 8.83677 15.2438 8.86441 15.2714L9.21796 14.9178C9.12865 14.8285 9.01898 14.7647 8.8907 14.7415L8.80183 15.2335ZM8.83867 15.2222C8.83964 15.2212 8.83394 15.2269 8.8215 15.2308C8.80902 15.2348 8.80087 15.2334 8.80187 15.2335L8.89066 14.7415C8.73826 14.714 8.59424 14.7595 8.48511 14.8686L8.83867 15.2222ZM8.30831 15.7525L8.83867 15.2222L8.48511 14.8686L7.95476 15.399L8.30831 15.7525ZM7.36113 15.1589L7.95476 15.7525L8.30831 15.399L7.71468 14.8053L7.36113 15.1589ZM8.27085 13.8956L7.36113 14.8053L7.71468 15.1589L8.62441 14.2492L8.27085 13.8956ZM8.25498 13.9373C8.25625 13.9428 8.25366 13.9357 8.25742 13.9216C8.2592 13.9149 8.26185 13.9088 8.26486 13.9038C8.2678 13.8988 8.27028 13.8962 8.27085 13.8956L8.62441 14.2492C8.74185 14.1317 8.77749 13.9777 8.74215 13.8248L8.25498 13.9373ZM8.19359 13.8418C8.236 13.8842 8.25014 13.9163 8.25496 13.9372L8.74217 13.8248C8.71192 13.6937 8.64059 13.5817 8.54714 13.4882L8.19359 13.8418ZM8.10235 13.7845C8.12701 13.7907 8.15734 13.8055 8.19353 13.8417L8.5472 13.4883C8.45698 13.398 8.34919 13.3309 8.22385 13.2995L8.10235 13.7845ZM8.14679 13.7715C8.1473 13.771 8.1398 13.7782 8.12442 13.7824C8.10925 13.7865 8.10014 13.784 8.10273 13.7846L8.22347 13.2994C8.06517 13.26 7.91033 13.3009 7.79324 13.418L8.14679 13.7715ZM6.928 14.9903L8.14679 13.7715L7.79324 13.418L6.57444 14.6368L6.928 14.9903ZM6.87015 15.0822C6.87532 15.0598 6.88925 15.0291 6.92805 14.9903L6.57439 14.6368C6.48202 14.7292 6.41283 14.8402 6.38292 14.9699L6.87015 15.0822ZM6.85779 15.0443C6.85714 15.0436 6.85873 15.0451 6.86107 15.049C6.86349 15.053 6.86598 15.0583 6.86774 15.0646C6.87159 15.0784 6.86924 15.0861 6.87013 15.0823L6.38294 14.9699C6.34656 15.1275 6.38758 15.2811 6.50411 15.3977L6.85779 15.0443ZM9.08808 17.2746L6.85772 15.0442L6.50417 15.3978L8.73453 17.6281L9.08808 17.2746ZM9.04605 17.2556C9.03505 17.2588 9.04027 17.2551 9.05544 17.2583C9.06283 17.2599 9.07017 17.2627 9.07668 17.2663C9.08304 17.2699 9.08676 17.2733 9.08808 17.2746L8.73453 17.6281C8.8634 17.757 9.03135 17.7813 9.18757 17.7352L9.04605 17.2556ZM9.17702 17.1693C9.12502 17.2213 9.08097 17.2453 9.04592 17.2556L9.18771 17.7351C9.31883 17.6963 9.43275 17.6207 9.53067 17.5228L9.17702 17.1693ZM9.26336 17.0381C9.25299 17.0732 9.22907 17.1172 9.17702 17.1693L9.53067 17.5228C9.62847 17.4249 9.70407 17.3111 9.74285 17.1799L9.26336 17.0381ZM9.28242 17.0802C9.28108 17.0789 9.27771 17.0751 9.27413 17.0688C9.27047 17.0622 9.26769 17.0549 9.26611 17.0475C9.26287 17.0323 9.26664 17.027 9.26339 17.038L9.74282 17.18C9.78906 17.0238 9.76495 16.8557 9.63597 16.7267L9.28242 17.0802ZM12.5829 13.5901C12.5307 13.5379 12.4588 13.49 12.3663 13.4746L12.2843 13.9678C12.2482 13.9618 12.23 13.9443 12.2293 13.9436L12.5829 13.5901ZM12.7374 14.0947C12.7545 13.9172 12.7224 13.7298 12.5829 13.5901L12.2293 13.9436C12.2296 13.944 12.233 13.9468 12.2364 13.9593C12.2403 13.9737 12.2441 14.0012 12.2397 14.0466L12.7374 14.0947ZM12.5231 14.5725C12.6528 14.4428 12.7201 14.2769 12.7374 14.0944L12.2397 14.047C12.2314 14.1339 12.2038 14.1847 12.1695 14.2189L12.5231 14.5725ZM11.993 14.7077C12.0838 14.7366 12.1816 14.7433 12.2797 14.7172C12.3767 14.6914 12.4576 14.638 12.5231 14.5724L12.1695 14.219C12.1612 14.2273 12.1554 14.2313 12.1525 14.2331C12.1499 14.2347 12.1496 14.2345 12.1513 14.234C12.152 14.2338 12.1528 14.2337 12.1536 14.2336C12.1543 14.2335 12.1547 14.2335 12.1547 14.2335C12.1546 14.2335 12.1515 14.2334 12.1447 14.2312L11.993 14.7077ZM10.5771 14.2544L11.9926 14.7075L12.1451 14.2313L10.7296 13.7782L10.5771 14.2544ZM10.5983 14.425L10.8301 14.1931L10.4766 13.8396L10.2447 14.0714L10.5983 14.425ZM11.4447 14.9179L10.5983 14.0714L10.2447 14.425L11.0912 15.2714L11.4447 14.9179ZM11.5517 15.371C11.5979 15.2147 11.5736 15.0467 11.4447 14.9179L11.0912 15.2714C11.0899 15.2701 11.0865 15.2664 11.0829 15.26C11.0793 15.2535 11.0765 15.2461 11.0749 15.2387C11.0717 15.2235 11.0754 15.2183 11.0722 15.2293L11.5517 15.371ZM11.3394 15.7139C11.4372 15.6161 11.5128 15.5023 11.5516 15.3712L11.0722 15.2291C11.0618 15.2643 11.0378 15.3084 10.9858 15.3604L11.3394 15.7139ZM10.9964 15.9262C11.1276 15.8874 11.2415 15.8118 11.3394 15.7139L10.9858 15.3604C10.9339 15.4124 10.8898 15.4363 10.8547 15.4467L10.9964 15.9262ZM10.5433 15.8193C10.6721 15.9481 10.8401 15.9725 10.9966 15.9261L10.8545 15.4467C10.8436 15.45 10.8489 15.4462 10.8642 15.4495C10.8716 15.4511 10.879 15.4538 10.8855 15.4575C10.8919 15.4611 10.8956 15.4644 10.8969 15.4657L10.5433 15.8193ZM8.30946 13.5854L10.5433 15.8193L10.8969 15.4657L8.66301 13.2318L8.30946 13.5854ZM8.1678 13.2498C8.17012 13.3773 8.21806 13.494 8.30946 13.5854L8.66301 13.2318C8.6624 13.2312 8.66278 13.2315 8.66362 13.2327C8.66448 13.234 8.66546 13.2357 8.66631 13.2378C8.66821 13.2423 8.66778 13.2442 8.66772 13.2408L8.1678 13.2498ZM8.31304 12.8981C8.22004 12.9911 8.16529 13.1117 8.1678 13.2498L8.66772 13.2407C8.66772 13.2409 8.66772 13.2423 8.66728 13.2447C8.66683 13.247 8.66609 13.2495 8.66514 13.2517C8.66306 13.2567 8.66175 13.2565 8.66645 13.2518L8.31304 12.8981ZM9.04008 12.1711L8.31297 12.8982L8.66652 13.2518L9.39364 12.5246L9.04008 12.1711ZM11.0093 12.0587C10.7246 11.774 10.3979 11.6131 10.0355 11.6384C9.68188 11.663 9.34977 11.8614 9.04008 12.1711L9.39364 12.5246C9.65996 12.2583 9.88518 12.15 10.0702 12.1372C10.2464 12.1249 10.4394 12.1959 10.6558 12.4122L11.0093 12.0587ZM11.3494 13.4742C11.4561 13.2319 11.4839 12.9817 11.4209 12.7326C11.3588 12.4874 11.2139 12.2633 11.0093 12.0587L10.6558 12.4122C10.8165 12.5729 10.9022 12.7211 10.9362 12.8553C10.9691 12.9855 10.9583 13.1217 10.8918 13.2726L11.3494 13.4742ZM12.3946 13.481L11.1899 13.1332L11.0512 13.6136L12.256 13.9614L12.3946 13.481ZM10.1711 13.302L9.82333 13.6498L10.1769 14.0034L10.5247 13.6556L10.1711 13.302ZM10.2578 13.1595C10.2572 13.179 10.2472 13.2259 10.1711 13.3021L10.5247 13.6556C10.6546 13.5256 10.7511 13.3654 10.7575 13.1765L10.2578 13.1595ZM10.1606 13.0128C10.2568 13.1091 10.2579 13.1561 10.2578 13.1596L10.7575 13.1764C10.7645 12.9715 10.6522 12.7973 10.5141 12.6593L10.1606 13.0128ZM10.0138 12.9156C10.0173 12.9155 10.0645 12.9167 10.1606 13.0128L10.5141 12.6593C10.376 12.5212 10.2019 12.4091 9.99712 12.4159L10.0138 12.9156ZM9.87137 13.0023C9.94741 12.9263 9.9944 12.9163 10.0139 12.9156L9.99702 12.4159C9.80806 12.4223 9.64779 12.5188 9.51782 12.6488L9.87137 13.0023ZM9.5236 13.3501L9.87137 13.0023L9.51782 12.6488L9.17004 12.9965L9.5236 13.3501ZM10.1769 13.6498L9.5236 12.9965L9.17004 13.3501L9.82333 14.0034L10.1769 13.6498ZM14.1821 12.047C14.2185 12.0833 14.2332 12.1136 14.2393 12.138L14.7244 12.0169C14.693 11.8914 14.6258 11.7836 14.5357 11.6934L14.1821 12.047ZM14.0865 11.9856C14.1077 11.9905 14.1398 12.0047 14.1821 12.047L14.5357 11.6934C14.4422 11.5999 14.3303 11.5288 14.1992 11.4984L14.0865 11.9856ZM14.1282 11.9697C14.1276 11.9703 14.1249 11.9729 14.12 11.9758C14.1149 11.9788 14.1088 11.9815 14.1022 11.9832C14.0882 11.9869 14.0813 11.9844 14.087 11.9857L14.1988 11.4983C14.0463 11.4634 13.8923 11.4986 13.7747 11.6162L14.1282 11.9697ZM13.1869 12.911L14.1282 11.9697L13.7747 11.6162L12.8334 12.5575L13.1869 12.911ZM12.2363 12.314L12.8334 12.911L13.1869 12.5575L12.5898 11.9604L12.2363 12.314ZM12.7632 11.4335L12.2363 11.9604L12.5898 12.314L13.1167 11.7871L12.7632 11.4335ZM12.7545 11.4732C12.7544 11.4726 12.7538 11.4694 12.754 11.4643C12.7543 11.459 12.7553 11.453 12.7572 11.4471C12.7613 11.4343 12.7667 11.43 12.7632 11.4335L13.1167 11.7871C13.2252 11.6786 13.2764 11.5333 13.2448 11.3751L12.7545 11.4732ZM12.721 11.4147C12.7423 11.4361 12.7507 11.4544 12.7545 11.4731L13.2448 11.3752C13.2205 11.2534 13.1611 11.1477 13.0746 11.0612L12.721 11.4147ZM12.6584 11.3769C12.6729 11.3795 12.6934 11.3871 12.721 11.4147L13.0746 11.0612C12.9853 10.9719 12.8756 10.908 12.7473 10.8848L12.6584 11.3769ZM12.6952 11.3656C12.6962 11.3646 12.6905 11.3703 12.6781 11.3742C12.6656 11.3781 12.6576 11.3767 12.6586 11.3769L12.7471 10.8848C12.5948 10.8574 12.4508 10.9029 12.3417 11.012L12.6952 11.3656ZM12.1684 11.8924L12.6952 11.3656L12.3417 11.012L11.8148 11.5389L12.1684 11.8924ZM11.2212 11.2988L11.8148 11.8924L12.1684 11.5389L11.5747 10.9453L11.2212 11.2988ZM12.1625 10.0039L11.2212 10.9453L11.5747 11.2988L12.5161 10.3575L12.1625 10.0039ZM12.1466 10.0454C12.1479 10.051 12.1453 10.044 12.1491 10.0299C12.1508 10.0232 12.1535 10.0171 12.1565 10.0121C12.1594 10.0071 12.1619 10.0045 12.1625 10.0039L12.5161 10.3575C12.6335 10.24 12.6691 10.0861 12.6339 9.93317L12.1466 10.0454ZM12.0853 9.95006C12.1277 9.99247 12.1418 10.0246 12.1466 10.0455L12.6339 9.93312C12.6036 9.80192 12.5323 9.68995 12.4388 9.5965L12.0853 9.95006ZM11.994 9.89282C12.0187 9.89901 12.049 9.91378 12.0852 9.94995L12.4389 9.59661C12.3486 9.50621 12.2408 9.43919 12.1155 9.4078L11.994 9.89282ZM12.0384 9.87982C12.0389 9.87931 12.0315 9.8865 12.0161 9.89069C12.001 9.89482 11.9919 9.89228 11.9944 9.89291L12.1151 9.40771C11.9568 9.3683 11.8019 9.40923 11.6849 9.52627L12.0384 9.87982ZM10.788 11.1302L12.0384 9.87982L11.6849 9.52627L10.4345 10.7767L10.788 11.1302ZM10.7302 11.2221C10.7354 11.1997 10.7493 11.169 10.7881 11.1301L10.4344 10.7768C10.3422 10.8691 10.2729 10.98 10.243 11.1098L10.7302 11.2221ZM10.7179 11.1842C10.7172 11.1835 10.7188 11.185 10.7212 11.1888C10.7236 11.1928 10.7261 11.1982 10.7278 11.2045C10.7317 11.2183 10.7293 11.226 10.7302 11.2222L10.243 11.1097C10.2066 11.2674 10.2477 11.421 10.3642 11.5376L10.7179 11.1842ZM12.9482 13.4144L10.7178 11.1841L10.3643 11.5376L12.5946 13.768L12.9482 13.4144ZM12.9097 13.4022C12.9061 13.403 12.914 13.4006 12.9278 13.4045C12.9342 13.4063 12.9396 13.4088 12.9436 13.4112C12.9474 13.4136 12.9489 13.4151 12.9482 13.4144L12.5946 13.768C12.7112 13.8846 12.8649 13.9258 13.0228 13.8892L12.9097 13.4022ZM13.002 13.3442C12.9631 13.3831 12.9325 13.3969 12.9103 13.402L13.0223 13.8893C13.1523 13.8594 13.2632 13.7901 13.3555 13.6978L13.002 13.3442ZM14.2523 12.0938L13.002 13.3442L13.3555 13.6978L14.6059 12.4474L14.2523 12.0938ZM14.2393 12.1381C14.2399 12.1406 14.2373 12.1314 14.2415 12.1161C14.2457 12.1007 14.253 12.0932 14.2523 12.0938L14.6059 12.4474C14.7228 12.3305 14.7641 12.1756 14.7244 12.0168L14.2393 12.1381ZM16.6175 10.1237C16.5862 9.99825 16.519 9.89044 16.4288 9.8003L16.0753 10.1539C16.1116 10.1902 16.1264 10.2205 16.1324 10.2449L16.6175 10.1237ZM16.4991 10.5543C16.616 10.4374 16.6572 10.2825 16.6175 10.1237L16.1325 10.2449C16.1331 10.2475 16.1305 10.2383 16.1347 10.223C16.1389 10.2076 16.1461 10.2001 16.1455 10.2007L16.4991 10.5543ZM15.2487 11.8047L16.4991 10.5543L16.1455 10.2007L14.8951 11.4511L15.2487 11.8047ZM14.9154 11.9962C15.0455 11.9664 15.1564 11.897 15.2487 11.8047L14.8951 11.4511C14.8563 11.49 14.8257 11.5038 14.8034 11.5089L14.9154 11.9962ZM14.4878 11.8749C14.6044 11.9915 14.7581 12.0328 14.916 11.9961L14.8029 11.5091C14.7993 11.5099 14.8071 11.5076 14.821 11.5114C14.8274 11.5132 14.8328 11.5157 14.8367 11.5181C14.8406 11.5205 14.842 11.5221 14.8413 11.5214L14.4878 11.8749ZM12.2574 9.64456L14.4878 11.8749L14.8413 11.5214L12.611 9.29101L12.2574 9.64456ZM12.1362 9.21665C12.0998 9.37427 12.1408 9.52788 12.2574 9.6445L12.611 9.29107C12.6104 9.29042 12.612 9.29188 12.6143 9.29575C12.6168 9.29975 12.6192 9.3051 12.621 9.31142C12.6249 9.3252 12.6225 9.33292 12.6234 9.32908L12.1362 9.21665ZM12.3276 8.88364C12.2353 8.97598 12.1661 9.08695 12.1362 9.21671L12.6234 9.32901C12.6286 9.30658 12.6425 9.27583 12.6813 9.23708L12.3276 8.88364ZM13.5781 7.63319L12.3277 8.88358L12.6812 9.23714L13.9316 7.98674L13.5781 7.63319ZM14.0083 7.51463C13.85 7.47522 13.6951 7.51616 13.5781 7.63319L13.9316 7.98674C13.9321 7.98623 13.9246 7.99342 13.9093 7.99761C13.8942 8.00174 13.8851 7.9992 13.8876 7.99983L14.0083 7.51463ZM14.3321 7.70353C14.2418 7.61313 14.134 7.54611 14.0087 7.51473L13.8872 7.99974C13.9119 8.00593 13.9422 8.02071 13.9783 8.05687L14.3321 7.70353ZM14.527 8.04004C14.4968 7.90884 14.4255 7.79687 14.332 7.70342L13.9784 8.05698C14.0209 8.09939 14.035 8.13148 14.0398 8.1524L14.527 8.04004ZM14.4092 8.4644C14.5267 8.34688 14.5623 8.19296 14.527 8.04009L14.0398 8.15234C14.0411 8.15796 14.0385 8.15093 14.0423 8.1368C14.044 8.13014 14.0467 8.12403 14.0497 8.11897C14.0526 8.11403 14.0551 8.1114 14.0557 8.11085L14.4092 8.4644ZM13.4679 9.40569L14.4092 8.4644L14.0557 8.11085L13.1144 9.05214L13.4679 9.40569ZM14.0616 9.64577L13.4679 9.05214L13.1144 9.40569L13.708 9.99933L14.0616 9.64577ZM14.2349 9.11894L13.708 9.64577L14.0616 9.99933L14.5884 9.47249L14.2349 9.11894ZM14.6403 8.99173C14.488 8.96435 14.3441 9.00972 14.2349 9.11894L14.5884 9.47249C14.5894 9.47148 14.5837 9.47722 14.5713 9.48113C14.5588 9.48505 14.5507 9.48363 14.5518 9.48384L14.6403 8.99173ZM14.9677 9.16808C14.8784 9.07877 14.7687 9.01486 14.6404 8.99174L14.5517 9.48383C14.5661 9.48641 14.5865 9.49398 14.6142 9.52163L14.9677 9.16808ZM15.138 9.4821C15.1137 9.36025 15.0542 9.25457 14.9677 9.16808L14.6142 9.52163C14.6355 9.54295 14.6439 9.56126 14.6476 9.57995L15.138 9.4821ZM15.0099 9.89397C15.1184 9.78548 15.1696 9.64014 15.1379 9.48194L14.6477 9.58011C14.6475 9.57948 14.647 9.57631 14.6472 9.57114C14.6475 9.56584 14.6484 9.5599 14.6504 9.55393C14.6544 9.54121 14.6598 9.53692 14.6563 9.54042L15.0099 9.89397ZM14.4831 10.4208L15.0099 9.89397L14.6563 9.54042L14.1295 10.0673L14.4831 10.4208ZM15.0801 10.6643L14.4831 10.0673L14.1295 10.4208L14.7266 11.0179L15.0801 10.6643ZM15.6679 9.72304L14.7266 10.6643L15.0801 11.0179L16.0214 10.0766L15.6679 9.72304ZM16.0919 9.6052C15.9395 9.57024 15.7855 9.60537 15.6679 9.72304L16.0214 10.0766C16.0208 10.0772 16.0181 10.0797 16.0132 10.0827C16.0081 10.0857 16.002 10.0883 15.9953 10.0901C15.9813 10.0938 15.9744 10.0912 15.9802 10.0926L16.0919 9.6052ZM16.4288 9.80031C16.3354 9.70683 16.2235 9.63564 16.0924 9.60531L15.9797 10.0924C16.0009 10.0973 16.033 10.1116 16.0753 10.1539L16.4288 9.80031Z"
          fill="#A3A8AF"/>
</svg>
