<svg viewBox="0 0 24 24" fill="none" xmlns="http://www.w3.org/2000/svg">
    <path fill-rule="evenodd" clip-rule="evenodd"
          d="M5.00012 3C5.00012 2.44772 5.44784 2 6.00012 2H17.6668C18.2191 2 18.6668 2.44772 18.6668 3C18.6668 4.06948 18.6046 5.19732 18.5 6.33838C18.4997 6.39892 18.4941 6.4582 18.4835 6.51575C18.2483 8.98235 17.82 11.4996 17.3974 13.6128C17.0816 15.1915 16.766 16.5594 16.5291 17.5332C16.4106 18.0203 16.3117 18.4093 16.2422 18.6774L16.2101 18.8009L16.9488 21.0171C17.0505 21.3221 16.9993 21.6573 16.8114 21.918C16.6234 22.1788 16.3216 22.3333 16.0001 22.3333H7.66679C7.34535 22.3333 7.0435 22.1788 6.85555 21.918C6.6676 21.6573 6.61646 21.3221 6.71811 21.0171L7.46017 18.7909L7.42031 18.6256C7.35115 18.3375 7.25261 17.9203 7.13449 17.4018C6.89832 16.3653 6.58341 14.922 6.26834 13.2942C5.87458 11.2598 5.47432 8.90627 5.23158 6.68831C5.18969 6.578 5.16675 6.45834 5.16675 6.33333C5.16675 6.28106 5.17076 6.22972 5.17849 6.17961C5.06695 5.05451 5.00012 3.97422 5.00012 3ZM16.6487 4C16.6334 4.43691 16.6088 4.88241 16.5761 5.33333H10.1668H7.10906C7.07066 4.87477 7.04138 4.42871 7.0229 4H16.6487ZM9.16679 7.33333V8.83333C9.16679 9.38562 9.6145 9.83333 10.1668 9.83333C10.7191 9.83333 11.1668 9.38562 11.1668 8.83333V7.33333H16.386C16.1503 9.37106 15.7953 11.4249 15.4362 13.2206C15.127 14.7668 14.8176 16.1073 14.5857 17.0605C14.4699 17.537 14.3734 17.9162 14.3062 18.1755C14.2726 18.3051 14.2463 18.4047 14.2285 18.4715L14.2084 18.5466L14.2035 18.565L14.2023 18.5692L14.202 18.5701L14.202 18.5702L14.202 18.5703C14.1501 18.7607 14.1557 18.9623 14.2181 19.1496L14.6127 20.3333H9.05421L9.44881 19.1496C9.50895 18.9691 9.51639 18.7753 9.47027 18.5908L9.47026 18.5908L9.47022 18.5906L9.46994 18.5895L9.46872 18.5846L9.46362 18.5641L9.44327 18.4814C9.42533 18.4083 9.39886 18.2996 9.36509 18.1589C9.29753 17.8774 9.20076 17.4677 9.08451 16.9575C8.85192 15.9367 8.54184 14.5155 8.2319 12.9141C7.89144 11.1551 7.55587 9.20197 7.32117 7.33333H9.16679Z"
          fill="#A3A8AF"/>
</svg>
