<svg width="24" height="24" viewBox="0 0 24 24" fill="none" xmlns="http://www.w3.org/2000/svg">
<g clip-path="url(#clip0_7751_99741)">
<path d="M19.7126 5.14288H23.4926L18.8555 0.505737V4.28574C18.8555 4.51306 18.9458 4.73108 19.1065 4.89183C19.2673 5.05257 19.4853 5.14288 19.7126 5.14288Z" fill="#0088FF"/>
<path d="M19.716 6.85714C19.034 6.85714 18.3799 6.58622 17.8977 6.10399C17.4154 5.62175 17.1445 4.9677 17.1445 4.28571V0H7.71596C7.03397 0 6.37992 0.270918 5.89768 0.753154C5.41545 1.23539 5.14453 1.88944 5.14453 2.57143V8.74286C7.05235 8.35266 9.03616 8.62373 10.7694 9.51143C12.5026 10.3991 13.8819 11.8505 14.6801 13.6267C15.4784 15.4029 15.6481 17.3979 15.1613 19.2834C14.6744 21.1688 13.5601 22.8323 12.0017 24H21.4302C22.1122 24 22.7663 23.7291 23.2485 23.2468C23.7308 22.7646 24.0017 22.1106 24.0017 21.4286V6.85714H19.716ZM14.5731 6.85714H9.43024C9.20292 6.85714 8.9849 6.76684 8.82415 6.60609C8.66341 6.44534 8.5731 6.22733 8.5731 6C8.5731 5.77267 8.66341 5.55465 8.82415 5.39391C8.9849 5.23316 9.20292 5.14286 9.43024 5.14286H14.5731C14.8004 5.14286 15.0184 5.23316 15.1792 5.39391C15.3399 5.55465 15.4302 5.77267 15.4302 6C15.4302 6.22733 15.3399 6.44534 15.1792 6.60609C15.0184 6.76684 14.8004 6.85714 14.5731 6.85714ZM19.716 19.7143H18.0017C17.7743 19.7143 17.5563 19.624 17.3956 19.4632C17.2348 19.3025 17.1445 19.0845 17.1445 18.8571C17.1445 18.6298 17.2348 18.4118 17.3956 18.251C17.5563 18.0903 17.7743 18 18.0017 18H19.716C19.9433 18 20.1613 18.0903 20.322 18.251C20.4828 18.4118 20.5731 18.6298 20.5731 18.8571C20.5731 19.0845 20.4828 19.3025 20.322 19.4632C20.1613 19.624 19.9433 19.7143 19.716 19.7143ZM19.716 15.4286H18.0017C17.7743 15.4286 17.5563 15.3383 17.3956 15.1775C17.2348 15.0168 17.1445 14.7988 17.1445 14.5714C17.1445 14.3441 17.2348 14.1261 17.3956 13.9653C17.5563 13.8046 17.7743 13.7143 18.0017 13.7143H19.716C19.9433 13.7143 20.1613 13.8046 20.322 13.9653C20.4828 14.1261 20.5731 14.3441 20.5731 14.5714C20.5731 14.7988 20.4828 15.0168 20.322 15.1775C20.1613 15.3383 19.9433 15.4286 19.716 15.4286ZM19.716 11.1429H16.2874C16.0601 11.1429 15.842 11.0525 15.6813 10.8918C15.5205 10.7311 15.4302 10.513 15.4302 10.2857C15.4302 10.0584 15.5205 9.84037 15.6813 9.67962C15.842 9.51888 16.0601 9.42857 16.2874 9.42857H19.716C19.9433 9.42857 20.1613 9.51888 20.322 9.67962C20.4828 9.84037 20.5731 10.0584 20.5731 10.2857C20.5731 10.513 20.4828 10.7311 20.322 10.8918C20.1613 11.0525 19.9433 11.1429 19.716 11.1429Z" fill="#0088FF"/>
<path d="M6.85715 10.2857C5.50093 10.2857 4.17517 10.6879 3.04752 11.4413C1.91987 12.1948 1.04097 13.2658 0.521972 14.5187C0.00297107 15.7717 -0.132823 17.1505 0.131761 18.4806C0.396346 19.8108 1.04943 21.0326 2.00841 21.9916C2.9674 22.9506 4.18923 23.6036 5.51938 23.8682C6.84954 24.1328 8.22828 23.997 9.48126 23.478C10.7342 22.959 11.8052 22.0801 12.5587 20.9525C13.3121 19.8248 13.7143 18.4991 13.7143 17.1428C13.7143 15.3242 12.9918 13.5801 11.7059 12.2941C10.4199 11.0082 8.67577 10.2857 6.85715 10.2857ZM5.14286 14.5714C5.31239 14.5714 5.47811 14.6217 5.61906 14.7159C5.76002 14.8101 5.86988 14.9439 5.93476 15.1005C5.99963 15.2572 6.01661 15.4295 5.98353 15.5958C5.95046 15.7621 5.86883 15.9148 5.74895 16.0347C5.62908 16.1545 5.47635 16.2362 5.31008 16.2692C5.14381 16.3023 4.97147 16.2853 4.81485 16.2205C4.65822 16.1556 4.52436 16.0457 4.43017 15.9048C4.33599 15.7638 4.28572 15.5981 4.28572 15.4286C4.28572 15.2012 4.37602 14.9832 4.53677 14.8225C4.69751 14.6617 4.91553 14.5714 5.14286 14.5714ZM8.57143 19.7143C8.40191 19.7143 8.23619 19.664 8.09523 19.5698C7.95427 19.4756 7.84441 19.3418 7.77954 19.1851C7.71466 19.0285 7.69769 18.8562 7.73076 18.6899C7.76383 18.5236 7.84547 18.3709 7.96534 18.251C8.08521 18.1312 8.23794 18.0495 8.40421 18.0165C8.57048 17.9834 8.74282 18.0004 8.89945 18.0652C9.05607 18.1301 9.18994 18.24 9.28412 18.3809C9.3783 18.5219 9.42857 18.6876 9.42857 18.8571C9.42857 19.0845 9.33827 19.3025 9.17752 19.4632C9.01678 19.624 8.79876 19.7143 8.57143 19.7143ZM9.18 16.0371L5.75143 19.4657C5.67175 19.546 5.57695 19.6098 5.4725 19.6533C5.36805 19.6968 5.25601 19.7192 5.14286 19.7192C5.02971 19.7192 4.91767 19.6968 4.81322 19.6533C4.70877 19.6098 4.61397 19.546 4.53429 19.4657C4.45395 19.386 4.39018 19.2912 4.34667 19.1868C4.30315 19.0823 4.28075 18.9703 4.28075 18.8571C4.28075 18.744 4.30315 18.6319 4.34667 18.5275C4.39018 18.423 4.45395 18.3282 4.53429 18.2486L7.96286 14.82C8.12426 14.6586 8.34317 14.5679 8.57143 14.5679C8.79969 14.5679 9.0186 14.6586 9.18 14.82C9.34141 14.9814 9.43208 15.2003 9.43208 15.4286C9.43208 15.6568 9.34141 15.8757 9.18 16.0371Z" fill="#0088FF"/>
</g>
<defs>
<clipPath id="clip0_7751_99741">
<rect width="24" height="24" fill="white"/>
</clipPath>
</defs>
</svg>
