<svg viewBox="0 0 24 24" fill="none" xmlns="http://www.w3.org/2000/svg">
    <path d="M15.779 13.2211C15.8822 13.3229 15.9533 13.4526 15.9836 13.5943C16.0139 13.736 16.002 13.8835 15.9494 14.0186L13.4738 20.517C13.418 20.6634 13.3178 20.7887 13.1873 20.8752C13.0567 20.9617 12.9023 21.0052 12.7458 20.9995C12.5892 20.9938 12.4384 20.9392 12.3144 20.8434C12.1905 20.7477 12.0997 20.6155 12.0547 20.4654L11.2506 17.7854C11.248 17.7768 11.2434 17.769 11.2371 17.7626C11.2308 17.7563 11.223 17.7516 11.2144 17.749L8.53417 16.9451C8.38349 16.9014 8.25059 16.8109 8.15466 16.6868C8.05873 16.5626 8.00472 16.4112 8.00043 16.2543C7.99516 16.0979 8.03878 15.9437 8.12522 15.8132C8.21166 15.6827 8.33662 15.5824 8.48273 15.5262L14.9819 13.0506C15.1169 12.998 15.2643 12.9861 15.406 13.0164C15.5477 13.0467 15.6774 13.1179 15.779 13.2211Z"
          fill="#A3A8AF"/>
    <mask id="path-2-inside-1_9998_8651" fill="white">
        <path fill-rule="evenodd" clip-rule="evenodd"
              d="M4 7C2.89543 7 2 7.89543 2 9V15C2 16.1046 2.89543 17 4 17H7.17775C7.06902 16.7782 7.00817 16.5345 7.00089 16.2848C6.98932 15.9217 7.09087 15.5639 7.29151 15.261C7.49273 14.9572 7.78362 14.7237 8.12371 14.5928L14.6229 12.1173C14.9389 11.995 15.2838 11.9676 15.6151 12.0385C15.9456 12.1092 16.2484 12.2745 16.4864 12.5143C16.7258 12.7524 16.8909 13.055 16.9615 13.3853C17.0323 13.7166 17.005 14.0614 16.8829 14.3773L15.8837 17H20C21.1046 17 22 16.1046 22 15V9C22 7.89543 21.1046 7 20 7H4ZM14.8136 17L15.9494 14.0186C16.002 13.8835 16.0139 13.736 15.9836 13.5943C15.9533 13.4526 15.8822 13.3229 15.779 13.2211C15.6774 13.1179 15.5477 13.0467 15.406 13.0164C15.2643 12.9861 15.1169 12.998 14.9819 13.0506L8.48273 15.5262C8.33662 15.5824 8.21166 15.6827 8.12522 15.8132C8.03878 15.9437 7.99516 16.0979 8.00043 16.2543C8.00472 16.4112 8.05873 16.5626 8.15466 16.6868C8.25059 16.8109 8.38348 16.9014 8.53417 16.9451L8.71708 17H14.8136Z"/>
    </mask>
    <path fill-rule="evenodd" clip-rule="evenodd"
          d="M4 7C2.89543 7 2 7.89543 2 9V15C2 16.1046 2.89543 17 4 17H7.17775C7.06902 16.7782 7.00817 16.5345 7.00089 16.2848C6.98932 15.9217 7.09087 15.5639 7.29151 15.261C7.49273 14.9572 7.78362 14.7237 8.12371 14.5928L14.6229 12.1173C14.9389 11.995 15.2838 11.9676 15.6151 12.0385C15.9456 12.1092 16.2484 12.2745 16.4864 12.5143C16.7258 12.7524 16.8909 13.055 16.9615 13.3853C17.0323 13.7166 17.005 14.0614 16.8829 14.3773L15.8837 17H20C21.1046 17 22 16.1046 22 15V9C22 7.89543 21.1046 7 20 7H4ZM14.8136 17L15.9494 14.0186C16.002 13.8835 16.0139 13.736 15.9836 13.5943C15.9533 13.4526 15.8822 13.3229 15.779 13.2211C15.6774 13.1179 15.5477 13.0467 15.406 13.0164C15.2643 12.9861 15.1169 12.998 14.9819 13.0506L8.48273 15.5262C8.33662 15.5824 8.21166 15.6827 8.12522 15.8132C8.03878 15.9437 7.99516 16.0979 8.00043 16.2543C8.00472 16.4112 8.05873 16.5626 8.15466 16.6868C8.25059 16.8109 8.38348 16.9014 8.53417 16.9451L8.71708 17H14.8136Z"
          fill="#A6AAAE"/>
    <path d="M7.17775 17V19H10.3852L8.97366 16.1198L7.17775 17ZM7.00089 16.2848L9.00005 16.2265L8.99988 16.2212L7.00089 16.2848ZM7.29151 15.261L8.95893 16.3654L8.95893 16.3654L7.29151 15.261ZM8.12371 14.5928L7.4118 12.7238L7.40564 12.7262L8.12371 14.5928ZM14.6229 12.1173L15.3349 13.9863L15.3445 13.9825L14.6229 12.1173ZM15.6151 12.0385L16.0334 10.0827L16.0334 10.0827L15.6151 12.0385ZM16.4864 12.5143L15.0671 13.9235L15.0761 13.9324L16.4864 12.5143ZM16.9615 13.3853L15.0057 13.8033L15.0057 13.8033L16.9615 13.3853ZM16.8829 14.3773L15.0173 13.6563L15.0139 13.6653L16.8829 14.3773ZM15.8837 17L14.0148 16.288L12.9816 19H15.8837V17ZM14.8136 17V19H16.1919L16.6826 17.712L14.8136 17ZM15.9494 14.0186L14.0858 13.2928L14.0831 13.2997L14.0805 13.3066L15.9494 14.0186ZM15.9836 13.5943L17.9395 13.1764L17.9395 13.1763L15.9836 13.5943ZM15.779 13.2211L14.3537 14.6242L14.3642 14.6348L14.3748 14.6452L15.779 13.2211ZM15.406 13.0164L15.8243 11.0606L15.8243 11.0606L15.406 13.0164ZM14.9819 13.0506L15.6938 14.9196L15.7012 14.9168L15.7085 14.914L14.9819 13.0506ZM8.48273 15.5262L7.77082 13.6571L7.76469 13.6595L8.48273 15.5262ZM8.00043 16.2543L9.99972 16.1996L9.9993 16.1871L8.00043 16.2543ZM8.53417 16.9451L9.10875 15.0295L9.10027 15.0269L9.09177 15.0244L8.53417 16.9451ZM8.71708 17L8.1425 18.9157L8.4236 19H8.71708V17ZM4 9V9V5C1.79086 5 0 6.79086 0 9H4ZM4 15V9H0V15H4ZM4 15H4H0C0 17.2091 1.79086 19 4 19V15ZM7.17775 15H4V19H7.17775V15ZM5.00174 16.3432C5.01739 16.8797 5.14818 17.4034 5.38183 17.8802L8.97366 16.1198C8.98986 16.1529 8.99895 16.1892 9.00004 16.2265L5.00174 16.3432ZM5.62409 14.1566C5.19453 14.8051 4.97714 15.5711 5.0019 16.3485L8.99988 16.2212C9.0015 16.2723 8.9872 16.3227 8.95893 16.3654L5.62409 14.1566ZM7.40564 12.7262C6.6776 13.0062 6.05488 13.5062 5.62409 14.1566L8.95893 16.3654C8.93059 16.4082 8.88964 16.4411 8.84178 16.4595L7.40564 12.7262ZM13.911 10.2483L7.4118 12.7238L8.83562 16.4618L15.3348 13.9863L13.911 10.2483ZM16.0334 10.0827C15.3213 9.93043 14.5803 9.98929 13.9013 10.252L15.3445 13.9825C15.2975 14.0007 15.2462 14.0048 15.1969 13.9943L16.0334 10.0827ZM17.9057 11.1051C17.3941 10.5899 16.7436 10.2346 16.0334 10.0827L15.1969 13.9943C15.1477 13.9837 15.1026 13.9591 15.0672 13.9234L17.9057 11.1051ZM18.9174 12.9674C18.7657 12.2577 18.411 11.6077 17.8967 11.0962L15.0761 13.9324C15.0406 13.8971 15.0162 13.8523 15.0057 13.8033L18.9174 12.9674ZM18.7484 15.0983C19.0107 14.4196 19.0695 13.679 18.9174 12.9673L15.0057 13.8033C14.9952 13.7542 14.9993 13.7031 15.0174 13.6563L18.7484 15.0983ZM17.7527 17.712L18.7519 15.0893L15.0139 13.6653L14.0148 16.288L17.7527 17.712ZM20 15H15.8837V19H20V15ZM20 15V19C22.2091 19 24 17.2091 24 15H20ZM20 9V15H24V9H20ZM20 9H24C24 6.79086 22.2091 5 20 5V9ZM4 9H20V5H4V9ZM16.6826 17.712L17.8184 14.7306L14.0805 13.3066L12.9447 16.288L16.6826 17.712ZM17.8131 14.7443C18.0075 14.2452 18.0514 13.7001 17.9395 13.1764L14.0278 14.0123C13.9764 13.772 13.9966 13.5219 14.0858 13.2928L17.8131 14.7443ZM17.9395 13.1763C17.8275 12.6526 17.5646 12.1731 17.1833 11.797L14.3748 14.6452C14.1998 14.4727 14.0791 14.2527 14.0278 14.0123L17.9395 13.1763ZM17.2043 11.818C16.8282 11.436 16.3484 11.1727 15.8243 11.0606L14.9877 14.9722C14.7469 14.9207 14.5265 14.7997 14.3537 14.6242L17.2043 11.818ZM15.8243 11.0606C15.3001 10.9485 14.7546 10.9926 14.2552 11.1873L15.7085 14.914C15.4791 15.0034 15.2285 15.0237 14.9877 14.9722L15.8243 11.0606ZM14.27 11.1816L7.77082 13.6572L9.19464 17.3952L15.6938 14.9196L14.27 11.1816ZM7.76469 13.6595C7.23061 13.8649 6.7738 14.2317 6.4578 14.7088L9.79265 16.9176C9.64952 17.1337 9.44264 17.2998 9.20077 17.3928L7.76469 13.6595ZM6.4578 14.7088C6.1418 15.1859 5.98232 15.7496 6.00156 16.3216L9.9993 16.1871C10.008 16.4462 9.93577 16.7015 9.79265 16.9176L6.4578 14.7088ZM6.00118 16.3091C6.01707 16.8896 6.21697 17.45 6.57203 17.9096L9.73729 15.4639C9.90048 15.6752 9.99237 15.9328 9.99968 16.1996L6.00118 16.3091ZM6.57203 17.9096C6.92709 18.3691 7.41893 18.7039 7.97657 18.8658L9.09177 15.0244C9.34804 15.0988 9.57409 15.2527 9.73729 15.4639L6.57203 17.9096ZM7.95959 18.8608L8.1425 18.9157L9.29165 15.0843L9.10875 15.0295L7.95959 18.8608ZM14.8136 15H8.71708V19H14.8136V15Z"
          fill="#A3A8AF" mask="url(#path-2-inside-1_9998_8651)"/>
</svg>
