<svg viewBox="0 0 24 24" fill="none" xmlns="http://www.w3.org/2000/svg">
    <path d="M16.4625 18.7049L10.9482 4.44142C10.8472 4.17502 10.5916 3.99914 10.3067 4H8.17551C7.89114 4.00082 7.63643 4.17611 7.53408 4.44142L2.02312 18.7049C1.98226 18.8109 1.99613 18.93 2.0602 19.0238C2.12427 19.1174 2.23033 19.1736 2.34386 19.174H4.51994C4.66304 19.1738 4.79153 19.0863 4.84411 18.9532L5.99251 15.946C6.04369 15.8134 6.17105 15.7257 6.31325 15.7253H12.169C12.3121 15.7255 12.4406 15.8129 12.4932 15.946L13.6416 18.9532C13.6927 19.0859 13.8201 19.1735 13.9623 19.174H16.1384C16.2521 19.1736 16.3584 19.1177 16.423 19.0242C16.4876 18.9306 16.5024 18.8114 16.4625 18.7049ZM11.0723 13.3113H7.40988C7.29018 13.3118 7.17802 13.2529 7.11036 13.1542C7.0427 13.0555 7.02832 12.9296 7.07192 12.8182L8.90312 8.02803C8.95547 7.88665 9.09033 7.79277 9.24109 7.79277C9.39188 7.79277 9.5267 7.88665 9.57905 8.02803L11.4137 12.8182C11.4558 12.9302 11.4403 13.0557 11.3722 13.1541C11.304 13.2525 11.192 13.3113 11.0723 13.3113Z"
          fill="#A3A8AF"/>
    <path d="M21.9768 18.7049L19.18 11.3421C19.0783 11.0743 18.8216 10.8972 18.5351 10.8972H17.535C17.2484 10.8972 16.9918 11.0743 16.8901 11.3421L15.6348 14.6459L16.4693 16.8116C16.5227 16.777 16.5851 16.759 16.6487 16.7599H19.4214C19.5627 16.7598 19.6898 16.8459 19.7421 16.9771L20.5353 18.9566C20.5876 19.0879 20.7147 19.174 20.856 19.1739H21.6561C21.7696 19.1735 21.8757 19.1174 21.9397 19.0237C22.0038 18.9301 22.0177 18.8108 21.9768 18.7049ZM18.8627 15.3804H17.2108C17.1523 15.3809 17.0974 15.352 17.0648 15.3034C17.0322 15.2548 17.0261 15.193 17.0487 15.139L17.873 13.0767C17.8977 13.0085 17.9625 12.9631 18.035 12.9631C18.1076 12.9631 18.1724 13.0085 18.1971 13.0767L19.0248 15.139C19.0467 15.193 19.0403 15.2544 19.0078 15.3027C18.9753 15.3511 18.921 15.3803 18.8627 15.3804Z"
          fill="#A3A8AF"/>
</svg>
