<svg width="24" height="24" viewBox="0 0 24 24" fill="none" xmlns="http://www.w3.org/2000/svg">
    <path d="M10.3594 19C11.5691 19 12.5058 18.8842 13.2571 18.6475C13.2411 18.5621 13.2305 18.4747 13.2305 18.3848C13.2305 17.9829 13.3975 17.6202 13.6646 17.3594C13.3975 17.0985 13.2305 16.7358 13.2305 16.334C13.2305 15.9322 13.3975 15.5694 13.6646 15.3086C13.3975 15.0478 13.2305 14.685 13.2305 14.2832C13.2305 13.8814 13.3975 13.5186 13.6646 13.2578C13.3975 12.997 13.2305 12.6342 13.2305 12.2324C13.2305 11.7578 13.4648 11.3394 13.821 11.0779C13.5771 10.8546 13.3165 10.6544 13.043 10.4783C13.1541 10.3383 13.2305 10.169 13.2305 9.97656C13.2305 9.52347 12.8633 9.15625 12.4102 9.15625H8.30859C7.8555 9.15625 7.48828 9.52347 7.48828 9.97656C7.48828 10.1686 7.56444 10.3374 7.67488 10.4771C6.08253 11.5029 5 13.3605 5 15.3086C5 18.6175 8.0703 19 10.3594 19ZM10.355 15.0186C9.67642 15.0186 9.12453 14.4667 9.12453 13.7881C9.12453 13.2525 9.4706 12.8006 9.94922 12.6319V12.0273C9.94922 11.8007 10.1327 11.6172 10.3594 11.6172C10.586 11.6172 10.7695 11.8007 10.7695 12.0273V12.6347C11.2437 12.8057 11.5855 13.2558 11.5855 13.7881C11.5855 14.0149 11.402 14.1983 11.1753 14.1983C10.9485 14.1983 10.7652 14.0149 10.7652 13.7881C10.7652 13.5618 10.5812 13.378 10.355 13.378C10.1287 13.378 9.94484 13.5618 9.94484 13.7881C9.94484 14.0145 10.1287 14.1983 10.355 14.1983C11.0335 14.1983 11.5855 14.7503 11.5855 15.4288C11.5855 15.9611 11.2437 16.4112 10.7695 16.5823V16.9492C10.7695 17.1759 10.586 17.3594 10.3594 17.3594C10.1327 17.3594 9.94922 17.1759 9.94922 16.9492V16.585C9.4706 16.4164 9.12453 15.9644 9.12453 15.4288C9.12453 15.2021 9.30792 15.0186 9.53468 15.0186C9.76134 15.0186 9.94484 15.2021 9.94484 15.4288C9.94484 15.6551 10.1287 15.8389 10.355 15.8389C10.5812 15.8389 10.7652 15.6551 10.7652 15.4288C10.7652 15.2024 10.5812 15.0186 10.355 15.0186Z" fill="white"/>
    <path d="M18.3848 17.7695H14.666C14.3262 17.7695 14.0508 18.045 14.0508 18.3848C14.0508 18.7245 14.3262 19 14.666 19H18.3848C18.7245 19 19 18.7245 19 18.3848C19 18.045 18.7245 17.7695 18.3848 17.7695Z" fill="white"/>
    <path d="M18.3848 15.7188H14.666C14.3262 15.7188 14.0508 15.9942 14.0508 16.334C14.0508 16.6738 14.3262 16.9492 14.666 16.9492H18.3848C18.7245 16.9492 19 16.6738 19 16.334C19 15.9942 18.7245 15.7188 18.3848 15.7188Z" fill="white"/>
    <path d="M18.3848 13.668H14.666C14.3262 13.668 14.0508 13.9434 14.0508 14.2832C14.0508 14.623 14.3262 14.8984 14.666 14.8984H18.3848C18.7245 14.8984 19 14.623 19 14.2832C19 13.9434 18.7245 13.668 18.3848 13.668Z" fill="white"/>
    <path d="M18.3848 11.6172H14.666C14.3262 11.6172 14.0508 11.8927 14.0508 12.2324C14.0508 12.5722 14.3262 12.8477 14.666 12.8477H18.3848C18.7245 12.8477 19 12.5722 19 12.2324C19 11.8927 18.7245 11.6172 18.3848 11.6172Z" fill="white"/>
    <path d="M11.5143 5.82031C11.3444 5.34393 10.8934 5 10.3594 5C9.82468 5 9.36849 5.34286 9.19898 5.82031H7.89844C7.76664 5.82031 7.64284 5.88354 7.56562 5.99057C7.48871 6.09749 7.46746 6.23528 7.50954 6.36024L8.14988 8.33594H12.569L13.2092 6.36024C13.2513 6.23528 13.23 6.09749 13.1531 5.99057C13.0759 5.88354 12.9521 5.82031 12.8203 5.82031H11.5143Z" fill="white"/>
    <path d="M5.85183 9.63953C4.25256 9.6401 2.65272 9.63838 1.05345 9.64124C0.921271 9.64124 0.785662 9.6544 0.658063 9.68645C0.240365 9.79058 0.00290556 10.1493 4.46109e-05 10.6609C-0.00338853 11.1902 0.191156 11.4745 0.644903 11.601C1.11467 11.692 1.58959 11.6422 2.06107 11.6365C2.32829 11.6336 2.41469 11.6931 2.41297 11.9775C2.40153 14.2783 2.40782 16.5791 2.40954 18.8798C2.40954 19.1671 2.42499 19.4509 2.64414 19.674C2.66073 19.733 2.70193 19.7673 2.75743 19.7873C3.20832 20.2485 4.03513 20.0906 4.32924 19.4881C4.45226 19.2512 4.45226 18.9943 4.45226 18.7374C4.45226 16.4715 4.45741 14.205 4.44482 11.9392C4.44367 11.6811 4.53294 11.6336 4.75437 11.6399C5.15376 11.6513 5.5543 11.6519 5.95368 11.6393C6.22376 11.6307 6.48182 11.5712 6.65805 11.3315C6.92412 10.9693 6.96818 10.5802 6.78107 10.1762C6.60083 9.78601 6.2661 9.63953 5.85183 9.63953Z" fill="#A3A8AF"/>
    <path d="M10.0976 17.938C10.0982 15.8289 10.0982 13.7198 10.0965 11.6107C10.0965 11.3166 10.0862 11.0225 10.081 10.7289C10.0684 9.96047 9.50769 9.51187 8.77014 9.67952C8.23056 9.80197 7.96907 10.1705 7.9685 10.8308C7.96678 13.4039 7.96792 15.9765 7.9685 18.5496C7.9685 18.7402 7.96392 18.9313 7.97708 19.1213C8.00512 19.5155 8.3101 19.9435 8.65398 19.9898C9.19585 20.0631 9.629 20.0642 9.90537 19.6116C10.1743 19.171 10.0879 18.6933 10.0822 18.2218C10.0868 18.1268 10.0976 18.0324 10.0976 17.938Z" fill="#A3A8AF"/>
    <path d="M22.6166 9.98565L22.6161 9.98451C22.2699 9.55708 21.5404 9.54564 21.1816 9.85691C21.1118 9.9107 21.0277 9.95075 20.9979 10.0434C20.8537 10.2288 20.7776 10.4354 20.7782 10.6734C20.7822 13.1779 20.7839 15.6824 20.7856 18.1869C20.7856 18.4913 20.7759 18.7962 20.7811 19.1006C20.7868 19.4056 20.9304 19.6728 21.1501 19.8519C21.5009 20.138 22.1984 20.0728 22.5657 19.7707C22.5829 19.7507 22.6001 19.7312 22.6172 19.7112C22.5949 19.6511 22.5709 19.5927 22.5543 19.5344C22.5709 19.5922 22.5949 19.6511 22.6172 19.7112C22.8369 19.4846 22.8976 19.1985 22.8976 18.8998C22.901 16.2174 22.9016 13.5355 22.8987 10.8531C22.8993 10.5378 22.8507 10.2294 22.6166 9.98565ZM21.2857 19.2734C21.2857 19.2734 21.2857 19.274 21.2857 19.2734C21.2806 19.2855 21.2703 19.2992 21.2674 19.3101C21.2703 19.2992 21.2806 19.2855 21.2857 19.2734Z" fill="#A3A8AF"/>
    <path d="M18.3805 17.2547C18.3382 17.1449 18.2603 17.0653 18.1619 17.0041C18.0887 16.9171 18.0195 16.8262 17.9416 16.7438C17.2939 16.0594 16.6496 15.3711 15.9922 14.6959C15.8354 14.5351 15.8709 14.4424 16.0116 14.3057C16.5792 13.7552 17.1451 13.2036 17.6979 12.6383C18.1362 12.1897 18.6214 11.7846 18.9876 11.2668C19.2148 10.9458 19.2834 10.6013 19.1015 10.2471C18.7478 9.55878 17.9617 9.41687 17.4072 9.97361C16.736 10.6477 16.1066 11.3635 15.4618 12.0633C15.4177 12.1113 15.3273 12.1582 15.3982 12.2509L15.3937 12.2561C15.2838 12.1909 15.2398 12.2916 15.1883 12.3471C14.7934 12.7699 14.4032 13.1973 14.0101 13.6219C13.9683 13.6671 13.9369 13.7386 13.8242 13.7014C13.8242 13.587 13.8247 13.4663 13.8242 13.345C13.8219 12.4306 13.8253 11.5162 13.8144 10.6025C13.8058 9.8689 13.0906 9.53761 12.531 9.66921C11.9565 9.80482 11.6945 10.1802 11.6939 10.8588C11.6927 13.4302 11.6939 16.0016 11.6939 18.5736C11.6939 18.7544 11.6813 18.937 11.7008 19.1161C11.7883 19.9223 12.4715 20.1575 13.0963 19.9915C13.593 19.8593 13.8156 19.5109 13.8201 18.9959C13.8304 17.8916 13.8322 16.7873 13.8396 15.6824C13.8402 15.6126 13.7852 15.5159 13.8825 15.4804C13.9575 15.4529 13.9901 15.541 14.033 15.5874C14.1886 15.7545 14.3397 15.9255 14.497 16.0909C14.9554 16.5727 15.3702 17.0951 15.8594 17.5477C15.9395 17.6381 16.0196 17.7285 16.0992 17.8183C16.6479 18.4706 17.2195 19.1023 17.8209 19.7066C18.0606 19.9475 18.3462 20.0316 18.6946 20.0362C19.5501 20.0465 19.9586 19.1727 19.5318 18.501C19.2251 18.0209 18.8068 17.6318 18.3805 17.2547ZM15.6134 16.3553C15.5957 16.3203 15.567 16.2963 15.5213 16.2906C15.567 16.2963 15.5957 16.3203 15.6134 16.3553ZM15.8978 16.4966C15.9006 16.5012 15.9029 16.5063 15.9052 16.5115C15.9029 16.5063 15.9006 16.5012 15.8978 16.4966ZM18.6603 10.8611C18.6586 10.9109 18.6363 10.9418 18.5934 10.944C18.6363 10.9418 18.6586 10.9109 18.6603 10.8611C18.6563 10.8102 18.6311 10.7678 18.5825 10.7569C18.6311 10.7678 18.6563 10.8102 18.6603 10.8611ZM13.5449 15.077C13.5478 15.0661 13.5581 15.0524 13.5632 15.0404C13.5575 15.0524 13.5478 15.0661 13.5449 15.077Z" fill="#A3A8AF"/>
    <path d="M21.7088 8.58267C21.7128 8.58267 21.7168 8.58209 21.7214 8.58209C21.7168 8.58209 21.7122 8.58209 21.7076 8.58209C21.7082 8.58266 21.7082 8.58267 21.7088 8.58267Z" fill="#606060"/>
    <path d="M21.7089 4C21.3238 4 20.961 4.09556 20.6423 4.26378C20.5719 4.29525 20.505 4.33359 20.4432 4.38165C20.0329 4.65401 19.7159 5.05455 19.5488 5.5266C19.463 5.73259 19.4247 5.94888 19.4207 6.17032C19.4184 6.21037 19.4172 6.251 19.4172 6.29162C19.4172 6.74079 19.5466 7.15906 19.7697 7.51268C20.097 8.04653 20.6349 8.42132 21.2654 8.54148C21.3249 8.55292 21.3844 8.56093 21.4434 8.5678C21.4909 8.57295 21.5389 8.57752 21.5864 8.57981C21.5887 8.57981 21.591 8.57981 21.5933 8.58038C21.631 8.5821 21.6688 8.58324 21.7071 8.58324C21.7117 8.58324 21.7163 8.58324 21.7209 8.58324C21.7483 8.58324 21.7758 8.5821 21.8033 8.58096C21.8262 8.57981 21.8491 8.57867 21.8719 8.57695C21.8771 8.57638 21.8822 8.57638 21.8868 8.57581C23.069 8.48483 23.9999 7.49723 23.9999 6.2922C24.0005 5.02594 22.9746 4 21.7089 4ZM22.5042 8.078C21.5458 8.62959 20.3362 8.09459 20.0444 6.99885C19.9643 6.69845 19.9797 6.39691 19.9694 6.09365C19.9505 6.09479 19.9334 6.09422 19.9179 6.0925C19.9339 6.09422 19.9511 6.09422 19.9694 6.09365C19.9849 6.041 19.9997 5.98836 20.0152 5.93572C20.5651 5.88079 21.1161 5.92256 21.6665 5.91398C22.1609 5.90654 22.6553 5.91512 23.1496 5.91112C23.2887 5.90997 23.3791 5.93343 23.4077 6.09937C23.541 6.86381 23.1651 7.69749 22.5042 8.078Z" fill="#A3A8AF"/>
    <path d="M8.88462 4.05148C7.65383 3.97881 6.5867 5.15466 6.61703 6.34195C6.6485 7.57903 7.66127 8.58207 8.92925 8.57235C10.1349 8.56376 11.1602 7.56701 11.1734 6.31392C11.186 5.05338 10.1022 4.00628 8.88462 4.05148ZM9.53863 8.1598C8.58364 8.59237 7.50049 7.99501 7.23041 6.91758C7.21668 6.86207 7.20466 6.80657 7.19379 6.7505C7.07821 6.164 7.13371 5.97289 7.55771 5.9254H10.453C10.5514 5.95802 10.5949 6.03869 10.6092 6.18403C10.7013 7.11956 10.2567 7.8348 9.53863 8.1598Z" fill="#A3A8AF"/>
</svg>
