<svg viewBox="0 0 24 24" fill="none" xmlns="http://www.w3.org/2000/svg">
    <path d="M19.3189 23.8032H4.67669C4.35261 23.8036 4.03163 23.7429 3.73207 23.6246C3.43251 23.5064 3.16023 23.3328 2.93079 23.1139C2.70135 22.8949 2.51923 22.6349 2.39484 22.3487C2.27045 22.0624 2.20622 21.7555 2.20581 21.4455C2.20581 21.4052 2.20684 21.3648 2.2089 21.3245L2.87417 7.75861C2.90175 7.15042 3.17387 6.57594 3.63372 6.15511C4.09356 5.73429 4.70558 5.49967 5.34196 5.50025H18.6526C19.289 5.49967 19.901 5.73429 20.3609 6.15511C20.8207 6.57594 21.0928 7.15042 21.1204 7.75861L21.7888 21.3245C21.805 21.6341 21.7573 21.9438 21.6484 22.2358C21.5395 22.5277 21.3715 22.7963 21.1541 23.0262C20.9367 23.2561 20.6741 23.4428 20.3813 23.5756C20.0884 23.7084 19.7711 23.7847 19.4474 23.8002C19.4039 23.8022 19.3611 23.8032 19.3189 23.8032ZM5.34196 7.08188C5.1238 7.08188 4.91456 7.16479 4.7603 7.31236C4.60603 7.45993 4.51936 7.66008 4.51936 7.86877L3.851 21.4032C3.84547 21.5067 3.86137 21.6103 3.8978 21.7079C3.93423 21.8055 3.99046 21.8953 4.06327 21.9721C4.13607 22.0489 4.22402 22.1111 4.32205 22.1553C4.42009 22.1994 4.52628 22.2246 4.63453 22.2294H4.67669H19.3189C19.5371 22.2294 19.7463 22.1465 19.9006 21.999C20.0548 21.8514 20.1415 21.6512 20.1415 21.4425C20.1415 21.4293 20.1415 21.4155 20.1415 21.4022L19.4731 7.83631C19.4731 7.62762 19.3865 7.42747 19.2322 7.2799C19.0779 7.13233 18.8687 7.04943 18.6506 7.04943L5.34196 7.08188Z"
          fill="#A3A8AF"/>
    <path d="M4.67344 24C3.96493 24 3.2854 23.731 2.78412 23.252C2.28284 22.773 2.00082 22.1233 2 21.4456C2 21.4023 2 21.358 2.00308 21.3148L2.66836 7.74934C2.69694 7.09012 2.99137 6.46712 3.48984 6.0111C3.98831 5.55508 4.65207 5.30151 5.3418 5.3036H18.6576C19.347 5.30228 20.0102 5.55631 20.5081 6.01245C21.006 6.46858 21.3 7.0914 21.3285 7.75032L21.9968 21.3152C22.0314 21.9924 21.7837 22.655 21.3081 23.1577C20.8326 23.6604 20.1679 23.9621 19.4601 23.9966C19.4144 23.999 19.3681 23.9995 19.3234 24H4.67344ZM5.3418 5.69704C4.75806 5.69518 4.19628 5.90978 3.77445 6.29577C3.35263 6.68176 3.1036 7.20911 3.07966 7.76704L2.4113 21.3339C2.4113 21.3713 2.40821 21.4082 2.40821 21.4451C2.40855 21.7293 2.46741 22.0107 2.58144 22.2731C2.69547 22.5356 2.86243 22.7739 3.07278 22.9747C3.28313 23.1754 3.53276 23.3345 3.8074 23.4429C4.08205 23.5513 4.37633 23.6069 4.67344 23.6066H19.3193C19.3558 23.6066 19.3964 23.6066 19.4349 23.6036C20.0339 23.5743 20.5963 23.319 20.9987 22.8936C21.4011 22.4682 21.6106 21.9074 21.5814 21.3344L20.9151 7.77049C20.8912 7.21247 20.6422 6.68501 20.2204 6.29886C19.7986 5.91271 19.2368 5.69789 18.653 5.6995H5.3418V5.69704ZM19.3198 22.4262H4.67652H4.62511C4.49003 22.4199 4.35756 22.3882 4.23532 22.3329C4.11307 22.2775 4.00343 22.1996 3.9127 22.1037C3.82196 22.0078 3.75189 21.8956 3.70652 21.7738C3.66115 21.6519 3.64136 21.5226 3.64828 21.3934L4.31355 7.86393C4.31491 7.60391 4.42384 7.35499 4.61653 7.17159C4.80922 6.98819 5.06998 6.88524 5.3418 6.88524L18.6509 6.85377C18.9227 6.85376 19.1835 6.95672 19.3762 7.14012C19.5689 7.32352 19.6778 7.57244 19.6791 7.83245L20.3475 21.3939C20.3475 21.4102 20.3475 21.4269 20.3475 21.4431C20.3475 21.704 20.2392 21.9542 20.0463 22.1386C19.8535 22.3231 19.592 22.4267 19.3193 22.4267L19.3198 22.4262ZM5.3418 7.27868C5.17817 7.27868 5.02125 7.34086 4.90555 7.45154C4.78985 7.56222 4.72485 7.71233 4.72485 7.86885V7.87819L4.05649 21.4126C4.05227 21.4903 4.06417 21.5681 4.09149 21.6414C4.11881 21.7147 4.16101 21.7821 4.21568 21.8398C4.27034 21.8974 4.33639 21.9441 4.41001 21.9773C4.48363 22.0104 4.56337 22.0293 4.64465 22.0328C4.65545 22.0328 4.66573 22.0328 4.67652 22.0328H19.3198C19.4834 22.0328 19.6403 21.9706 19.756 21.8599C19.8717 21.7493 19.9367 21.5991 19.9367 21.4426C19.9367 21.4328 19.9367 21.4229 19.9367 21.4126L19.2684 7.84131V7.83688C19.2684 7.68036 19.2034 7.53025 19.0877 7.41957C18.972 7.30889 18.815 7.24672 18.6514 7.24672L5.3418 7.27868Z"
          fill="#A3A8AF"/>
    <path d="M16.9334 6.29514H15.2882V4.91809C15.2882 4.08331 14.9416 3.28272 14.3245 2.69244C13.7074 2.10216 12.8705 1.77055 11.9978 1.77055C11.1252 1.77055 10.2882 2.10216 9.67118 2.69244C9.05411 3.28272 8.70745 4.08331 8.70745 4.91809V6.29514H7.06226V4.91809C7.06226 3.66592 7.58225 2.46503 8.50785 1.57962C9.43346 0.6942 10.6888 0.196777 11.9978 0.196777C13.3068 0.196777 14.5622 0.6942 15.4878 1.57962C16.4134 2.46503 16.9334 3.66592 16.9334 4.91809V6.29514Z"
          fill="#A3A8AF"/>
    <path d="M17.1389 6.4918H15.0824V4.91803C15.0824 4.13543 14.7574 3.38487 14.1789 2.83149C13.6004 2.2781 12.8158 1.96721 11.9977 1.96721C11.1796 1.96721 10.3949 2.2781 9.81644 2.83149C9.23794 3.38487 8.91294 4.13543 8.91294 4.91803V6.4918H6.85645V4.91803C6.85645 3.61369 7.39811 2.36277 8.36228 1.44046C9.32644 0.518148 10.6341 0 11.9977 0C13.3612 0 14.6689 0.518148 15.6331 1.44046C16.5972 2.36277 17.1389 3.61369 17.1389 4.91803V6.4918ZM15.4937 6.09836H16.7276V4.91803C16.7276 4.32386 16.6053 3.7355 16.3676 3.18655C16.1299 2.6376 15.7815 2.13881 15.3422 1.71866C14.903 1.29852 14.3816 0.965238 13.8077 0.737856C13.2339 0.510475 12.6188 0.393443 11.9977 0.393443C11.3765 0.393443 10.7615 0.510475 10.1876 0.737856C9.61375 0.965238 9.09232 1.29852 8.65311 1.71866C8.21389 2.13881 7.86549 2.6376 7.62779 3.18655C7.39009 3.7355 7.26774 4.32386 7.26774 4.91803V6.09836H8.50164V4.91803C8.50164 4.03108 8.86997 3.18045 9.5256 2.55328C10.1812 1.92611 11.0705 1.57377 11.9977 1.57377C12.9249 1.57377 13.8141 1.92611 14.4697 2.55328C15.1254 3.18045 15.4937 4.03108 15.4937 4.91803V6.09836Z"
          fill="#A3A8AF"/>
    <path d="M8.9766 18.3157C9.75924 18.7653 10.6534 19.0064 11.5662 19.0141C13.0433 19.0141 13.9065 18.268 13.9065 17.1885C13.9065 16.1882 13.3091 15.6147 11.7986 15.061C9.97246 14.4413 8.84396 13.5364 8.84396 12.028C8.84396 10.3608 10.2881 9.12244 12.4624 9.12244C13.6078 9.12244 14.4376 9.3767 14.9353 9.64621L14.5374 10.7739C13.8844 10.4378 13.154 10.263 12.4125 10.2654C10.8855 10.2654 10.3046 11.1388 10.3046 11.8692C10.3046 12.8695 10.9853 13.3618 12.5287 13.9347C14.4212 14.6336 15.3836 15.5085 15.3836 17.0788C15.3836 18.7298 14.1055 20.159 11.4665 20.159C10.3868 20.159 9.20898 19.8575 8.61157 19.4764L8.9766 18.3157Z"
          fill="#A3A8AF"/>
    <path d="M11.4663 20.428C10.365 20.428 9.12652 20.1285 8.45456 19.6996L8.28027 19.5885L8.81188 17.9016L9.12446 18.086C9.86305 18.5083 10.7056 18.7354 11.566 18.7441C12.8349 18.7441 13.6225 18.1485 13.6225 17.189C13.6225 16.3283 13.1192 15.838 11.6992 15.3147C10.6895 14.9704 9.9486 14.5642 9.43448 14.069C9.15216 13.803 8.92915 13.4851 8.77892 13.1344C8.6287 12.7837 8.55438 12.4075 8.56047 12.0285C8.55647 11.5945 8.65225 11.165 8.84105 10.7704C9.02985 10.3758 9.30704 10.0258 9.65298 9.74504C10.3671 9.16078 11.3383 8.85242 12.4622 8.85242C13.8379 8.85242 14.6893 9.20258 15.0749 9.4116L15.278 9.52176L14.6986 11.1639L14.403 11.01C13.7919 10.6948 13.108 10.5313 12.4138 10.5344C11.0668 10.5344 10.5887 11.2529 10.5887 11.8677C10.5887 12.6668 11.0853 13.107 12.6323 13.6795C14.7598 14.4664 15.6657 15.4809 15.6657 17.0759C15.6657 18.0034 15.2888 18.8414 14.604 19.4365C13.8575 20.0852 12.7722 20.428 11.4663 20.428ZM8.94709 19.3509C9.56095 19.6672 10.5758 19.887 11.4663 19.887C12.6292 19.887 13.5835 19.5919 14.2246 19.0362C14.7978 18.539 15.0986 17.8613 15.0986 17.0773C15.0986 15.7249 14.3238 14.8868 12.4251 14.1855C10.9033 13.6229 10.0201 13.0618 10.0201 11.8691C10.0211 11.6318 10.072 11.3971 10.1696 11.1789C10.2671 10.9607 10.4095 10.7635 10.5882 10.5988C10.8869 10.3234 11.4457 9.99488 12.4107 9.99488C13.0864 9.993 13.7547 10.129 14.3711 10.3937L14.588 9.78094C14.1896 9.60438 13.4961 9.39291 12.4606 9.39291C10.4967 9.39291 9.12498 10.4749 9.12498 12.028C9.12498 13.2831 10.0041 14.1659 11.891 14.8057L11.8982 14.8082C13.2724 15.3137 14.1875 15.9123 14.1875 17.1885C14.1875 18.4647 13.1593 19.2845 11.5655 19.2845C10.7238 19.2787 9.89516 19.0843 9.14606 18.717L8.94709 19.3509Z"
          fill="#A3A8AF"/>
</svg>
