<svg viewBox="0 0 24 24" fill="none" xmlns="http://www.w3.org/2000/svg">
    <path d="M20.8467 17.6295C20.5226 17.6295 20.2598 17.8923 20.2598 18.2164C20.2598 18.898 19.7053 19.4525 19.0237 19.4525H8.82124C8.62948 18.8426 8.14725 18.3604 7.53737 18.1687V4.54707C7.53737 3.89418 7.12713 3.30012 6.51655 3.06895L3.79494 2.0382C3.49173 1.9234 3.15302 2.07609 3.03822 2.37918C2.92337 2.68234 3.07611 3.02109 3.37919 3.1359L6.10084 4.16656C6.25803 4.22606 6.36358 4.37895 6.36358 4.547V18.1686C5.56834 18.4186 4.98986 19.1627 4.98986 20.0394C4.98986 21.1205 5.8694 22 6.95049 22C7.82717 22 8.5712 21.4216 8.82128 20.6263H19.0238C20.3526 20.6263 21.4337 19.5452 21.4337 18.2164C21.4337 17.8923 21.1709 17.6295 20.8467 17.6295ZM6.95045 20.8262C6.51662 20.8262 6.16365 20.4733 6.16365 20.0394C6.16365 19.6056 6.51662 19.2527 6.95045 19.2527C7.38428 19.2527 7.73721 19.6056 7.73721 20.0394C7.73721 20.4733 7.38432 20.8262 6.95045 20.8262Z"
          fill="#A3A8AF" stroke="#A3A8AF" stroke-width="0.5"/>
    <path d="M17.5746 8.22974H10.5154C9.76632 8.22974 9.15698 8.83911 9.15698 9.58814V16.6473C9.15698 17.3963 9.76636 18.0057 10.5154 18.0057H17.5745C18.3236 18.0057 18.9329 17.3963 18.9329 16.6473V9.58814C18.933 8.83907 18.3236 8.22974 17.5746 8.22974ZM13.4193 9.40353H14.6707V10.7825C14.6707 11.1276 14.39 11.4082 14.045 11.4082C13.7 11.4082 13.4193 11.1275 13.4193 10.7825V9.40353H13.4193ZM17.7592 16.6473C17.7592 16.7491 17.6763 16.8319 17.5745 16.8319H10.5154C10.4136 16.8319 10.3308 16.7491 10.3308 16.6473V9.58814C10.3308 9.48634 10.4136 9.40353 10.5154 9.40353H12.2454V10.7825C12.2454 11.7748 13.0527 12.582 14.045 12.582C15.0373 12.582 15.8445 11.7748 15.8445 10.7825V9.40353H17.5746C17.6764 9.40353 17.7592 9.48634 17.7592 9.58814V16.6473H17.7592Z"
          fill="#A3A8AF" stroke="#A3A8AF" stroke-width="0.5"/>
</svg>
