<svg viewBox="0 0 24 24" fill="none" xmlns="http://www.w3.org/2000/svg">
    <path d="M20.1031 17.6295C19.7925 17.6295 19.5407 17.8923 19.5407 18.2164C19.5407 18.898 19.0093 19.4525 18.3561 19.4525H8.57869C8.39492 18.8426 7.93278 18.3604 7.34831 18.1687V4.54707C7.34831 3.89418 6.95517 3.30012 6.37002 3.06895L3.76181 2.0382C3.47124 1.9234 3.14665 2.07609 3.03662 2.37918C2.92657 2.68234 3.07294 3.02109 3.36339 3.1359L5.97164 4.16656C6.12228 4.22606 6.22343 4.37895 6.22343 4.547V18.1686C5.46133 18.4186 4.90695 19.1627 4.90695 20.0394C4.90695 21.1205 5.74984 22 6.78589 22C7.62604 22 8.33906 21.4216 8.57872 20.6263H18.3561C19.6296 20.6263 20.6656 19.5452 20.6656 18.2164C20.6656 17.8923 20.4138 17.6295 20.1031 17.6295ZM6.78585 20.8262C6.3701 20.8262 6.03183 20.4733 6.03183 20.0394C6.03183 19.6056 6.3701 19.2527 6.78585 19.2527C7.2016 19.2527 7.53983 19.6056 7.53983 20.0394C7.53983 20.4733 7.20164 20.8262 6.78585 20.8262Z"
          fill="#A3A8AF" stroke="#A3A8AF" stroke-width="0.5"/>
</svg>
