<svg viewBox="0 0 24 24" fill="none" xmlns="http://www.w3.org/2000/svg">
    <path fill-rule="evenodd" clip-rule="evenodd"
          d="M20.2597 18.2164C20.2597 17.8923 20.5225 17.6295 20.8466 17.6295C21.1708 17.6295 21.4335 17.8922 21.4335 18.2164C21.4335 19.5452 20.3524 20.6263 19.0236 20.6263H8.82114C8.5711 21.4216 7.82707 22 6.95035 22C5.8693 22 4.98977 21.1205 4.98977 20.0394C4.98977 19.1627 5.56824 18.4186 6.36348 18.1686V4.54709C6.36348 4.37905 6.25793 4.22612 6.10074 4.16663L3.37918 3.13596C3.07609 3.02116 2.9234 2.68237 3.0382 2.37924C3.15301 2.07616 3.49168 1.9233 3.79492 2.03826L6.51652 3.06889C7.12715 3.30018 7.53735 3.8942 7.53735 4.54706V18.1686C8.14723 18.3603 8.6295 18.8426 8.82121 19.4525H19.0236C19.7052 19.4525 20.2597 18.898 20.2597 18.2164ZM6.16359 20.0394C6.16359 20.4732 6.51656 20.8262 6.95039 20.8262C7.38426 20.8262 7.73719 20.4732 7.73719 20.0394C7.73719 19.6056 7.38422 19.2526 6.95039 19.2526C6.51656 19.2526 6.16359 19.6056 6.16359 20.0394ZM16.2283 11.8962H17.6036C18.4583 11.8962 19.1536 12.5916 19.1536 13.4462V16.4577C19.1536 17.3125 18.4583 18.0078 17.6036 18.0078H10.6008C9.74614 18.0078 9.05079 17.3124 9.05083 16.4577V13.4462C9.05083 12.5916 9.74618 11.8962 10.6009 11.8962H11.9761V10.4908C11.9761 9.97698 12.3942 9.55886 12.9081 9.55886H15.2964C15.8102 9.55886 16.2283 9.9769 16.2283 10.4908V11.8962ZM10.6008 16.8339H11.976V13.07H10.6008C10.3933 13.07 10.2245 13.2387 10.2245 13.4462V16.4577C10.2245 16.6652 10.3933 16.8339 10.6008 16.8339ZM13.1498 16.8339H15.0545V13.07H13.1498V16.8339ZM13.1499 11.8962H15.0545V10.7326H13.1499V11.8962ZM17.6036 16.8339C17.8111 16.8339 17.9798 16.6652 17.9798 16.4577V13.4462C17.9798 13.2388 17.8111 13.07 17.6036 13.07H16.2283V16.8339H17.6036Z"
          fill="#A3A8AF"/>
    <path d="M21.4335 18.2164L21.1835 18.2163V18.2164H21.4335ZM8.82114 20.6263V20.3763H8.63767L8.58265 20.5513L8.82114 20.6263ZM6.36348 18.1686L6.43846 18.4071L6.61348 18.3521V18.1686H6.36348ZM6.10074 4.16663L6.0122 4.40042L6.01225 4.40044L6.10074 4.16663ZM3.37918 3.13596L3.29062 3.36975L3.29064 3.36976L3.37918 3.13596ZM3.0382 2.37924L2.80441 2.29068L2.80441 2.29069L3.0382 2.37924ZM3.79492 2.03826L3.7063 2.27203L3.70639 2.27206L3.79492 2.03826ZM6.51652 3.06889L6.60508 2.8351L6.60506 2.83509L6.51652 3.06889ZM7.53735 18.1686H7.28735V18.3521L7.46236 18.4071L7.53735 18.1686ZM8.82121 19.4525L8.58272 19.5275L8.63774 19.7025H8.82121V19.4525ZM16.2283 11.8962H15.9783V12.1462H16.2283V11.8962ZM9.05083 16.4577L9.30083 16.4577V16.4577H9.05083ZM11.9761 11.8962V12.1462H12.2261V11.8962H11.9761ZM11.976 16.8339V17.0839H12.226V16.8339H11.976ZM11.976 13.07H12.226V12.82H11.976V13.07ZM15.0545 16.8339V17.0839H15.3045V16.8339H15.0545ZM13.1498 16.8339H12.8998V17.0839H13.1498V16.8339ZM15.0545 13.07H15.3045V12.82H15.0545V13.07ZM13.1498 13.07V12.82H12.8998V13.07H13.1498ZM15.0545 11.8962V12.1462H15.3045V11.8962H15.0545ZM13.1499 11.8962H12.8999V12.1462H13.1499V11.8962ZM15.0545 10.7326H15.3045V10.4826H15.0545V10.7326ZM13.1499 10.7326V10.4826H12.8999V10.7326H13.1499ZM17.6036 13.07V13.32H17.6036L17.6036 13.07ZM16.2283 13.07V12.82H15.9783V13.07H16.2283ZM16.2283 16.8339H15.9783V17.0839H16.2283V16.8339ZM20.8466 17.3795C20.3844 17.3795 20.0097 17.7542 20.0097 18.2164H20.5097C20.5097 18.0303 20.6605 17.8795 20.8466 17.8795V17.3795ZM21.6835 18.2165C21.6836 17.7541 21.3088 17.3795 20.8466 17.3795V17.8795C21.0327 17.8795 21.1835 18.0303 21.1835 18.2163L21.6835 18.2165ZM19.0236 20.8763C20.4905 20.8763 21.6835 19.6833 21.6835 18.2164H21.1835C21.1835 19.4072 20.2143 20.3763 19.0236 20.3763V20.8763ZM8.82114 20.8763H19.0236V20.3763H8.82114V20.8763ZM6.95035 22.25C7.93964 22.25 8.77786 21.5974 9.05963 20.7013L8.58265 20.5513C8.36433 21.2457 7.71451 21.75 6.95035 21.75V22.25ZM4.73977 20.0394C4.73977 21.2586 5.73123 22.25 6.95035 22.25V21.75C6.00737 21.75 5.23977 20.9824 5.23977 20.0394H4.73977ZM6.28849 17.9301C5.39236 18.2119 4.73977 19.0501 4.73977 20.0394H5.23977C5.23977 19.2752 5.74412 18.6254 6.43846 18.4071L6.28849 17.9301ZM6.11348 4.54709V18.1686H6.61348V4.54709H6.11348ZM6.01225 4.40044C6.07216 4.42311 6.11348 4.4829 6.11348 4.54709H6.61348C6.61348 4.2752 6.44371 4.02912 6.18924 3.93281L6.01225 4.40044ZM3.29064 3.36976L6.0122 4.40042L6.18928 3.93283L3.46772 2.90216L3.29064 3.36976ZM2.80441 2.29069C2.64069 2.72296 2.85844 3.20605 3.29062 3.36975L3.46773 2.90217C3.29374 2.83627 3.2061 2.64178 3.27199 2.46779L2.80441 2.29069ZM3.88354 1.8045C3.45101 1.64052 2.96807 1.85862 2.80441 2.29068L3.27199 2.4678C3.33794 2.29369 3.53235 2.20608 3.7063 2.27203L3.88354 1.8045ZM6.60506 2.83509L3.88346 1.80447L3.70639 2.27206L6.42799 3.30269L6.60506 2.83509ZM7.78735 4.54706C7.78735 3.79029 7.31287 3.10319 6.60508 2.8351L6.42797 3.30268C6.94143 3.49717 7.28735 3.99812 7.28735 4.54706H7.78735ZM7.78735 18.1686V4.54706H7.28735V18.1686H7.78735ZM9.05971 19.3775C8.84348 18.6897 8.30016 18.1464 7.61233 17.9301L7.46236 18.4071C7.9943 18.5743 8.41551 18.9955 8.58272 19.5275L9.05971 19.3775ZM19.0236 19.2025H8.82121V19.7025H19.0236V19.2025ZM20.0097 18.2164C20.0097 18.7599 19.5671 19.2025 19.0236 19.2025V19.7025C19.8433 19.7025 20.5097 19.0361 20.5097 18.2164H20.0097ZM6.95039 20.5762C6.65463 20.5762 6.41359 20.3352 6.41359 20.0394H5.91359C5.91359 20.6113 6.37849 21.0762 6.95039 21.0762V20.5762ZM7.48719 20.0394C7.48719 20.3352 7.24618 20.5762 6.95039 20.5762V21.0762C7.52234 21.0762 7.98719 20.6113 7.98719 20.0394H7.48719ZM6.95039 19.5026C7.24615 19.5026 7.48719 19.7437 7.48719 20.0394H7.98719C7.98719 19.4675 7.52229 19.0026 6.95039 19.0026V19.5026ZM6.41359 20.0394C6.41359 19.7437 6.65463 19.5026 6.95039 19.5026V19.0026C6.37849 19.0026 5.91359 19.4675 5.91359 20.0394H6.41359ZM17.6036 11.6462H16.2283V12.1462H17.6036V11.6462ZM19.4036 13.4462C19.4036 12.4535 18.5964 11.6462 17.6036 11.6462V12.1462C18.3202 12.1462 18.9036 12.7296 18.9036 13.4462H19.4036ZM19.4036 16.4577V13.4462H18.9036V16.4577H19.4036ZM17.6036 18.2578C18.5964 18.2578 19.4036 17.4505 19.4036 16.4577H18.9036C18.9036 17.1744 18.3202 17.7578 17.6036 17.7578V18.2578ZM10.6008 18.2578H17.6036V17.7578H10.6008V18.2578ZM8.80083 16.4577C8.80078 17.4505 9.60807 18.2578 10.6008 18.2578V17.7578C9.88421 17.7578 9.3008 17.1744 9.30083 16.4577L8.80083 16.4577ZM8.80083 13.4462V16.4577H9.30083V13.4462H8.80083ZM10.6009 11.6462C9.60812 11.6462 8.80083 12.4535 8.80083 13.4462H9.30083C9.30083 12.7296 9.88424 12.1462 10.6009 12.1462V11.6462ZM11.9761 11.6462H10.6009V12.1462H11.9761V11.6462ZM11.7261 10.4908V11.8962H12.2261V10.4908H11.7261ZM12.9081 9.30886C12.2561 9.30886 11.7261 9.83892 11.7261 10.4908H12.2261C12.2261 10.115 12.5322 9.80886 12.9081 9.80886V9.30886ZM15.2964 9.30886H12.9081V9.80886H15.2964V9.30886ZM16.4783 10.4908C16.4783 9.83882 15.9483 9.30886 15.2964 9.30886V9.80886C15.6722 9.80886 15.9783 10.115 15.9783 10.4908H16.4783ZM16.4783 11.8962V10.4908H15.9783V11.8962H16.4783ZM11.976 16.5839H10.6008V17.0839H11.976V16.5839ZM11.726 13.07V16.8339H12.226V13.07H11.726ZM10.6008 13.32H11.976V12.82H10.6008V13.32ZM10.4745 13.4462C10.4745 13.3768 10.5314 13.32 10.6008 13.32V12.82C10.2553 12.82 9.97454 13.1006 9.97454 13.4462H10.4745ZM10.4745 16.4577V13.4462H9.97454V16.4577H10.4745ZM10.6008 16.5839C10.5314 16.5839 10.4745 16.5271 10.4745 16.4577H9.97454C9.97454 16.8033 10.2553 17.0839 10.6008 17.0839V16.5839ZM15.0545 16.5839H13.1498V17.0839H15.0545V16.5839ZM14.8045 13.07V16.8339H15.3045V13.07H14.8045ZM13.1498 13.32H15.0545V12.82H13.1498V13.32ZM13.3998 16.8339V13.07H12.8998V16.8339H13.3998ZM15.0545 11.6462H13.1499V12.1462H15.0545V11.6462ZM14.8045 10.7326V11.8962H15.3045V10.7326H14.8045ZM13.1499 10.9826H15.0545V10.4826H13.1499V10.9826ZM13.3999 11.8962V10.7326H12.8999V11.8962H13.3999ZM17.7298 16.4577C17.7298 16.5271 17.673 16.5839 17.6036 16.5839V17.0839C17.9491 17.0839 18.2298 16.8033 18.2298 16.4577H17.7298ZM17.7298 13.4462V16.4577H18.2298V13.4462H17.7298ZM17.6036 13.32C17.673 13.32 17.7298 13.3768 17.7298 13.4462H18.2298C18.2298 13.1007 17.9492 12.82 17.6035 12.82L17.6036 13.32ZM16.2283 13.32H17.6036V12.82H16.2283V13.32ZM16.4783 16.8339V13.07H15.9783V16.8339H16.4783ZM17.6036 16.5839H16.2283V17.0839H17.6036V16.5839Z"
          fill="#A3A8AF"/>
</svg>
