<svg viewBox="0 0 24 24" fill="none" xmlns="http://www.w3.org/2000/svg">
    <path d="M21.1858 10.913C20.8334 10.913 20.5478 11.1758 20.5478 11.4999V13.5447C20.5478 14.2263 19.9451 14.7808 19.2042 14.7808H9.2755C8.53463 14.7808 7.93192 14.2263 7.93192 13.5447V4.54707C7.93192 3.89418 7.48601 3.30012 6.82233 3.06895L3.86406 2.0382C3.53454 1.9234 3.16633 2.07609 3.04154 2.37918C2.91671 2.68234 3.08273 3.02109 3.41217 3.1359L6.37052 4.16656C6.54134 4.22606 6.65606 4.37895 6.65606 4.547V16.9426C6.65606 18.1914 7.7389 19.2112 9.08601 19.2507C8.97018 19.4922 8.90534 19.7589 8.90534 20.0394C8.90534 21.1205 9.86136 22 11.0365 22C12.2116 22 13.1676 21.1205 13.1676 20.0394C13.1676 19.7596 13.1031 19.4936 12.9879 19.2526H16.7956C16.6803 19.4936 16.6158 19.7596 16.6158 20.0394C16.6158 21.1205 17.5718 22 18.747 22C19.922 22 20.878 21.1205 20.878 20.0394C20.878 18.9583 19.922 18.0787 18.747 18.0787C18.7389 18.0787 18.7309 18.0792 18.7229 18.0793C18.7188 18.0792 18.7149 18.0787 18.7108 18.0787H9.16694C8.48593 18.0787 7.93192 17.5691 7.93192 16.9425V15.6123C8.32501 15.8293 8.78463 15.9544 9.2755 15.9544H19.2043C20.6487 15.9544 21.8237 14.8733 21.8237 13.5445V11.4998C21.8237 11.1758 21.5381 10.913 21.1858 10.913ZM18.747 19.2527C19.2185 19.2527 19.6022 19.6056 19.6022 20.0394C19.6022 20.4733 19.2185 20.8262 18.747 20.8262C18.2755 20.8262 17.8918 20.4733 17.8918 20.0394C17.8918 19.6056 18.2754 19.2527 18.747 19.2527ZM11.0365 19.2527C11.5081 19.2527 11.8917 19.6056 11.8917 20.0394C11.8917 20.4733 11.5081 20.8262 11.0365 20.8262C10.565 20.8262 10.1813 20.4733 10.1813 20.0394C10.1813 19.6056 10.565 19.2527 11.0365 19.2527Z"
          fill="#A3A8AF" stroke="#A3A8AF" stroke-width="0.5"/>
    <path d="M18.6267 11.5058L18.1732 6.24931C18.1314 5.74837 17.671 5.35591 17.1248 5.35591H16.4248V5.35032C16.4248 4.25528 15.4564 3.36438 14.2661 3.36438C13.0759 3.36438 12.1075 4.25528 12.1075 5.35032V5.35591H11.4074C10.8613 5.35591 10.4008 5.74833 10.3592 6.24775L9.90544 11.5073C9.86311 12.0151 10.0546 12.5206 10.4307 12.8942C10.8069 13.2678 11.3401 13.4821 11.8936 13.4821H16.6385C17.1921 13.4821 17.7253 13.2678 18.1014 12.8942C18.4776 12.5206 18.6691 12.0151 18.6267 11.5058ZM13.3835 5.35032C13.3835 4.90251 13.7795 4.53821 14.2662 4.53821C14.7529 4.53821 15.149 4.90251 15.149 5.35032V5.35591H13.3835V5.35032ZM17.1655 12.0965C17.0281 12.2331 16.8409 12.3083 16.6386 12.3083H11.8937C11.6914 12.3083 11.5043 12.2331 11.3669 12.0965C11.2294 11.96 11.1622 11.7826 11.1776 11.5986L11.6148 6.52974H12.1076V7.28169C12.1076 7.60584 12.3932 7.86861 12.7455 7.86861C13.0978 7.86861 13.3835 7.60584 13.3835 7.28169V6.52974H15.149V7.28169C15.149 7.60584 15.4346 7.86861 15.7869 7.86861C16.1392 7.86861 16.4249 7.60584 16.4249 7.28169V6.52974H16.9176L17.3547 11.5971C17.3701 11.7826 17.303 11.96 17.1655 12.0965Z"
          fill="#A3A8AF" stroke="#A3A8AF" stroke-width="0.5"/>
</svg>
