<svg viewBox="0 0 24 24" fill="none" xmlns="http://www.w3.org/2000/svg">
    <path fill-rule="evenodd" clip-rule="evenodd"
          d="M20.0102 18.2165C20.0102 17.8923 20.2844 17.6296 20.6227 17.6296C20.9609 17.6296 21.2351 17.8923 21.2352 18.2164C21.2352 19.5452 20.1071 20.6263 18.7205 20.6263H8.07437C7.81342 21.4216 7.03708 22 6.12225 22C4.99415 22 4.07637 21.1205 4.07637 20.0394C4.07637 19.1627 4.67996 18.4186 5.50981 18.1686V4.54698C5.50981 4.37893 5.39968 4.22604 5.23566 4.16655L2.39568 3.13588C2.07942 3.02108 1.92004 2.68233 2.03988 2.37916C2.15967 2.07608 2.51315 1.92342 2.8295 2.03819L5.66943 3.06889C6.30657 3.30006 6.73464 3.89409 6.73464 4.54702V18.1687C7.37104 18.3604 7.87423 18.8427 8.07433 19.4526H18.7204C19.4316 19.4526 20.0102 18.8981 20.0102 18.2165ZM5.3012 20.0394C5.3012 20.4732 5.66951 20.8262 6.12221 20.8262C6.57494 20.8262 6.94317 20.4732 6.94317 20.0394C6.94317 19.6056 6.5749 19.2526 6.12221 19.2526C5.66951 19.2526 5.3012 19.6056 5.3012 20.0394ZM16.299 12.5087H17.0772C17.8906 12.5087 18.5522 13.1428 18.5522 13.9222V16.5876C18.5522 17.367 17.8905 18.0011 17.0772 18.0011H9.78964C8.9763 18.0011 8.31458 17.367 8.31454 16.5876V13.9222C8.31454 13.1428 8.97626 12.5087 9.7896 12.5087H10.5678V9.60359C10.5678 8.82417 11.2294 8.19003 12.0428 8.19003H14.824C15.6374 8.19003 16.299 8.82417 16.299 9.60359V12.5087ZM12.0428 9.36386C11.9049 9.36386 11.7927 9.4714 11.7927 9.60359H11.7926V12.5087H15.0742V9.60359C15.0742 9.47144 14.962 9.36386 14.8241 9.36386H12.0428ZM9.78968 16.8273H12.821V13.6825H9.78968C9.65175 13.6825 9.53949 13.79 9.53949 13.9222V16.5876C9.53949 16.7198 9.6517 16.8273 9.78968 16.8273ZM17.0772 16.8273C17.2152 16.8273 17.3274 16.7198 17.3274 16.5876V13.9222C17.3274 13.79 17.2152 13.6825 17.0772 13.6825H14.0459V16.8273H17.0772Z"
          fill="#A3A8AF"/>
    <path d="M21.2352 18.2164H21.4852V18.2163L21.2352 18.2164ZM8.07437 20.6263V20.3763H7.89328L7.83683 20.5483L8.07437 20.6263ZM5.50981 18.1686L5.58194 18.408L5.75981 18.3544V18.1686H5.50981ZM5.23566 4.16655L5.15037 4.40155L5.15041 4.40156L5.23566 4.16655ZM2.39568 3.13588L2.31038 3.37088L2.31039 3.37088L2.39568 3.13588ZM2.03988 2.37916L2.27237 2.47106L2.27238 2.47106L2.03988 2.37916ZM2.8295 2.03819L2.91479 1.80318L2.91476 1.80317L2.8295 2.03819ZM5.66943 3.06889L5.58414 3.30389L5.58416 3.3039L5.66943 3.06889ZM6.73464 18.1687H6.48464V18.3545L6.66253 18.4081L6.73464 18.1687ZM8.07433 19.4526L7.83678 19.5305L7.89324 19.7026H8.07433V19.4526ZM16.299 12.5087H16.049V12.7587H16.299V12.5087ZM8.31454 16.5876H8.06454V16.5876L8.31454 16.5876ZM10.5678 12.5087V12.7587H10.8178V12.5087H10.5678ZM11.7927 9.60359V9.85359H12.0427V9.60359H11.7927ZM11.7926 9.60359V9.35359H11.5426V9.60359H11.7926ZM11.7926 12.5087H11.5426V12.7587H11.7926V12.5087ZM15.0742 12.5087V12.7587H15.3242V12.5087H15.0742ZM12.821 16.8273V17.0773H13.071V16.8273H12.821ZM12.821 13.6825H13.071V13.4325H12.821V13.6825ZM14.0459 13.6825V13.4325H13.7959V13.6825H14.0459ZM14.0459 16.8273H13.7959V17.0773H14.0459V16.8273ZM20.6227 17.3796C20.1565 17.3796 19.7602 17.7443 19.7602 18.2165H20.2602C20.2602 18.0403 20.4124 17.8796 20.6227 17.8796V17.3796ZM21.4852 18.2163C21.485 17.7443 21.0888 17.3796 20.6227 17.3796V17.8796C20.833 17.8796 20.9851 18.0403 20.9852 18.2164L21.4852 18.2163ZM18.7205 20.8763C20.235 20.8763 21.4852 19.6932 21.4852 18.2164H20.9852C20.9852 19.3972 19.9791 20.3763 18.7205 20.3763V20.8763ZM8.07437 20.8763H18.7205V20.3763H8.07437V20.8763ZM6.12225 22.25C7.14271 22.25 8.01653 21.6044 8.31191 20.7042L7.83683 20.5483C7.61031 21.2387 6.93145 21.75 6.12225 21.75V22.25ZM3.82637 20.0394C3.82637 21.2685 4.86621 22.25 6.12225 22.25V21.75C5.12208 21.75 4.32637 20.9725 4.32637 20.0394H3.82637ZM5.43769 17.9292C4.51142 18.2083 3.82637 19.0431 3.82637 20.0394H4.32637C4.32637 19.2822 4.8485 18.6289 5.58194 18.408L5.43769 17.9292ZM5.25981 4.54698V18.1686H5.75981V4.54698H5.25981ZM5.15041 4.40156C5.22055 4.427 5.25981 4.48936 5.25981 4.54698H5.75981C5.75981 4.2685 5.57881 4.02507 5.3209 3.93153L5.15041 4.40156ZM2.31039 3.37088L5.15037 4.40155L5.32094 3.93154L2.48097 2.90088L2.31039 3.37088ZM1.80738 2.28726C1.63289 2.72868 1.86921 3.21073 2.31038 3.37088L2.48098 2.90089C2.28962 2.83142 2.20719 2.63597 2.27237 2.47106L1.80738 2.28726ZM2.91476 1.80317C2.47806 1.64474 1.97955 1.85168 1.80738 2.28727L2.27238 2.47106C2.3398 2.30047 2.54825 2.20209 2.74424 2.2732L2.91476 1.80317ZM5.75472 2.83389L2.91479 1.80318L2.74421 2.27319L5.58414 3.30389L5.75472 2.83389ZM6.98464 4.54702C6.98464 3.78362 6.48567 3.0991 5.7547 2.83388L5.58416 3.3039C6.12746 3.50102 6.48464 4.00455 6.48464 4.54702H6.98464ZM6.98464 18.1687V4.54702H6.48464V18.1687H6.98464ZM8.31187 19.3746C8.08526 18.6839 7.51807 18.1436 6.80675 17.9293L6.66253 18.4081C7.22401 18.5772 7.6632 19.0014 7.83678 19.5305L8.31187 19.3746ZM18.7204 19.2026H8.07433V19.7026H18.7204V19.2026ZM19.7602 18.2165C19.7602 18.7501 19.3037 19.2026 18.7204 19.2026V19.7026C19.5596 19.7026 20.2602 19.0461 20.2602 18.2165H19.7602ZM6.12221 20.5762C5.79745 20.5762 5.5512 20.3253 5.5512 20.0394H5.0512C5.0512 20.6212 5.54158 21.0762 6.12221 21.0762V20.5762ZM6.69317 20.0394C6.69317 20.3253 6.44697 20.5762 6.12221 20.5762V21.0762C6.7029 21.0762 7.19317 20.6212 7.19317 20.0394H6.69317ZM6.12221 19.5026C6.44694 19.5026 6.69317 19.7536 6.69317 20.0394H7.19317C7.19317 19.4576 6.70285 19.0026 6.12221 19.0026V19.5026ZM5.5512 20.0394C5.5512 19.7536 5.79745 19.5026 6.12221 19.5026V19.0026C5.54158 19.0026 5.0512 19.4576 5.0512 20.0394H5.5512ZM17.0772 12.2587H16.299V12.7587H17.0772V12.2587ZM18.8022 13.9222C18.8022 12.9948 18.0185 12.2587 17.0772 12.2587V12.7587C17.7626 12.7587 18.3022 13.2908 18.3022 13.9222H18.8022ZM18.8022 16.5876V13.9222H18.3022V16.5876H18.8022ZM17.0772 18.2511C18.0185 18.2511 18.8022 17.515 18.8022 16.5876H18.3022C18.3022 17.219 17.7626 17.7511 17.0772 17.7511V18.2511ZM9.78964 18.2511H17.0772V17.7511H9.78964V18.2511ZM8.06454 16.5876C8.06459 17.515 8.84836 18.2511 9.78964 18.2511V17.7511C9.10423 17.7511 8.56458 17.219 8.56454 16.5876L8.06454 16.5876ZM8.06454 13.9222V16.5876H8.56454V13.9222H8.06454ZM9.7896 12.2587C8.84832 12.2587 8.06454 12.9948 8.06454 13.9222H8.56454C8.56454 13.2908 9.10419 12.7587 9.7896 12.7587V12.2587ZM10.5678 12.2587H9.7896V12.7587H10.5678V12.2587ZM10.3178 9.60359V12.5087H10.8178V9.60359H10.3178ZM12.0428 7.94003C11.1015 7.94003 10.3178 8.67619 10.3178 9.60359H10.8178C10.8178 8.97216 11.3574 8.44003 12.0428 8.44003V7.94003ZM14.824 7.94003H12.0428V8.44003H14.824V7.94003ZM16.549 9.60359C16.549 8.67619 15.7653 7.94003 14.824 7.94003V8.44003C15.5094 8.44003 16.049 8.97216 16.049 9.60359H16.549ZM16.549 12.5087V9.60359H16.049V12.5087H16.549ZM12.0427 9.60359C12.0427 9.6063 12.042 9.60917 12.041 9.61147C12.0401 9.61357 12.0392 9.61449 12.039 9.61466C12.0387 9.61493 12.0396 9.61386 12.0428 9.61386V9.11386C11.777 9.11386 11.5427 9.32338 11.5427 9.60359H12.0427ZM11.7926 9.85359H11.7927V9.35359H11.7926V9.85359ZM12.0426 12.5087V9.60359H11.5426V12.5087H12.0426ZM15.0742 12.2587H11.7926V12.7587H15.0742V12.2587ZM14.8242 9.60359V12.5087H15.3242V9.60359H14.8242ZM14.8241 9.61386C14.8272 9.61386 14.8282 9.61493 14.8279 9.61466C14.8277 9.61449 14.8268 9.61357 14.8259 9.61147C14.8249 9.60917 14.8242 9.60631 14.8242 9.60359H15.3242C15.3242 9.32347 15.09 9.11386 14.8241 9.11386V9.61386ZM12.0428 9.61386H14.8241V9.11386H12.0428V9.61386ZM12.821 16.5773H9.78968V17.0773H12.821V16.5773ZM12.571 13.6825V16.8273H13.071V13.6825H12.571ZM9.78968 13.9325H12.821V13.4325H9.78968V13.9325ZM9.78949 13.9222C9.78949 13.9249 9.78885 13.9278 9.78783 13.9301C9.7869 13.9322 9.78599 13.9331 9.78582 13.9333C9.78553 13.9336 9.78647 13.9325 9.78968 13.9325V13.4325C9.52386 13.4325 9.28949 13.642 9.28949 13.9222H9.78949ZM9.78949 16.5876V13.9222H9.28949V16.5876H9.78949ZM9.78968 16.5773C9.78644 16.5773 9.78551 16.5762 9.78581 16.5765C9.78599 16.5767 9.7869 16.5776 9.78783 16.5797C9.78885 16.582 9.78949 16.5849 9.78949 16.5876H9.28949C9.28949 16.8678 9.52379 17.0773 9.78968 17.0773V16.5773ZM17.0774 16.5876C17.0774 16.5849 17.078 16.582 17.079 16.5797C17.08 16.5776 17.0809 16.5767 17.0811 16.5765C17.0814 16.5762 17.0804 16.5773 17.0772 16.5773V17.0773C17.3431 17.0773 17.5774 16.8678 17.5774 16.5876H17.0774ZM17.0774 13.9222V16.5876H17.5774V13.9222H17.0774ZM17.0772 13.9325C17.0805 13.9325 17.0814 13.9335 17.0811 13.9332C17.0809 13.9331 17.08 13.9321 17.079 13.9301C17.078 13.9278 17.0774 13.9249 17.0774 13.9222H17.5774C17.5774 13.6421 17.3432 13.4325 17.0772 13.4325V13.9325ZM14.0459 13.9325H17.0772V13.4325H14.0459V13.9325ZM14.2959 16.8273V13.6825H13.7959V16.8273H14.2959ZM17.0772 16.5773H14.0459V17.0773H17.0772V16.5773Z"
          fill="#A3A8AF"/>
</svg>
