<svg viewBox="0 0 24 24" fill="none" xmlns="http://www.w3.org/2000/svg">
    <path d="M21.7071 20.293L3.70711 2.29297L2.29289 3.70718L5.74467 7.15896C3.59084 7.71586 2 9.67218 2 12.0001C2 14.7615 4.23858 17.0001 7 17.0001H10V15.0001H7C5.34315 15.0001 4 13.6569 4 12.0001C4 10.3432 5.34315 9.00006 7 9.00006H7.58577L9.58577 11.0001H7V13.0001H11.5858L20.2929 21.7072L21.7071 20.293Z"
          fill="#A3A8AF"/>
    <path d="M18.7077 14.4669L20.1356 15.8949C21.2726 14.9784 22 13.5742 22 12.0001C22 9.23864 19.7614 7.00006 17 7.00006H14V9.00006H17C18.6569 9.00006 20 10.3432 20 12.0001C20 13.0224 19.4886 13.9253 18.7077 14.4669Z"
          fill="#A3A8AF"/>
</svg>
