<svg viewBox="0 0 24 24" fill="none" xmlns="http://www.w3.org/2000/svg">
    <path d="M20.4422 5H9.30753C8.44858 5 7.74975 5.66971 7.74975 6.49286V7.83823H4.44078C3.09492 7.83823 2 8.88753 2 10.1773V16.1234C2 16.8499 2.61676 17.4409 3.37484 17.4409H4.53195C4.80027 18.5969 5.87808 19.464 7.16394 19.464C8.44979 19.464 9.52756 18.5969 9.79592 17.4409H14.1976C14.466 18.5969 15.5438 19.464 16.8296 19.464C18.1154 19.464 19.1932 18.5969 19.4616 17.4409H20.4422C21.3012 17.4409 22 16.7712 22 15.9481V6.49286C22 5.66971 21.3011 5 20.4422 5ZM4.53195 16.3181H3.37484C3.26281 16.3181 3.17172 16.2307 3.17172 16.1234V10.1773C3.17172 9.50663 3.74101 8.96109 4.44082 8.96109H7.74979V14.3572C7.56104 14.317 7.36515 14.2951 7.16394 14.2951C5.87812 14.2951 4.80031 15.1622 4.53195 16.3181ZM7.16394 18.3411C6.323 18.3411 5.63882 17.6854 5.63882 16.8795C5.63882 16.0736 6.323 15.418 7.16394 15.418C8.00487 15.418 8.68905 16.0737 8.68905 16.8795C8.68905 17.6854 8.00487 18.3411 7.16394 18.3411ZM16.8296 18.3411C15.9887 18.3411 15.3046 17.6856 15.3045 16.8798C15.3045 16.8797 15.3045 16.8796 15.3045 16.8796C15.3045 16.8795 15.3045 16.8794 15.3045 16.8793C15.3047 16.0736 15.9888 15.418 16.8296 15.418C17.6705 15.418 18.3547 16.0737 18.3547 16.8796C18.3547 17.6854 17.6705 18.3411 16.8296 18.3411ZM20.4422 16.3181H19.4615C19.1932 15.1622 18.1154 14.2951 16.8295 14.2951C15.5438 14.2951 14.4659 15.1622 14.1976 16.3181H9.79592C9.6676 15.7654 9.35432 15.2792 8.92151 14.9218V6.49286C8.92151 6.28888 9.09467 6.12289 9.30756 6.12289H20.4422C20.655 6.12289 20.8282 6.28884 20.8282 6.49286V15.9481H20.8282C20.8282 16.1521 20.6551 16.3181 20.4422 16.3181Z"
          fill="#A3A8AF" stroke="#A3A8AF" stroke-width="0.5"/>
</svg>
