<svg viewBox="0 0 24 24" fill="none" xmlns="http://www.w3.org/2000/svg">
    <path d="M17.6746 4C15.534 4 13.752 5.63109 13.4091 7.76463H7.96297C7.21125 7.76463 6.59965 8.40278 6.59965 9.18719V10.2369H4.06969C2.92844 10.2368 2 11.2057 2 12.3965V17.5759C2 18.2761 2.54594 18.8458 3.21699 18.8458H4.05051C4.30961 19.8591 5.19648 20.6079 6.24816 20.6079C7.29984 20.6079 8.18668 19.8591 8.44582 18.8458H11.7828C12.0419 19.8591 12.9288 20.6079 13.9805 20.6079C15.0321 20.6079 15.919 19.8591 16.1781 18.8458H16.8705C17.6222 18.8458 18.2338 18.2076 18.2338 17.4232V12.9893C20.3556 12.7022 22 10.8045 22 8.51345C22 6.02476 20.0596 4 17.6746 4ZM4.05055 17.6232H3.21699C3.19195 17.6232 3.1716 17.6019 3.1716 17.5758V12.3965C3.1716 11.8798 3.57449 11.4594 4.06973 11.4594H6.59973V15.8895C6.48512 15.8709 6.36773 15.861 6.2482 15.861C5.19652 15.8611 4.30965 16.6099 4.05055 17.6232ZM6.24813 19.3853C5.64 19.3853 5.14523 18.869 5.14523 18.2345C5.14523 17.5999 5.64 17.0836 6.24813 17.0836C6.85625 17.0836 7.35102 17.5999 7.35102 18.2345C7.35102 18.869 6.85629 19.3853 6.24813 19.3853ZM13.9804 19.3853C13.3725 19.3853 12.8778 18.8693 12.8775 18.235C12.8775 18.2348 12.8776 18.2346 12.8776 18.2345L12.8775 18.2339C12.8778 17.5996 13.3725 17.0836 13.9804 17.0836C14.5886 17.0836 15.0833 17.5999 15.0833 18.2345C15.0833 18.869 14.5886 19.3853 13.9804 19.3853ZM17.0621 17.4232C17.0621 17.5334 16.9761 17.6232 16.8704 17.6232H16.178C15.9189 16.6099 15.0321 15.8611 13.9804 15.8611C12.9287 15.8611 12.0419 16.6099 11.7827 17.6232H8.44574C8.33086 17.1739 8.0927 16.7766 7.77125 16.4735V10.2368V9.18715C7.77125 9.07689 7.85723 8.98713 7.96297 8.98713H13.373C13.5794 11.0429 15.1137 12.692 17.0621 12.9814V17.4232H17.0621ZM17.6746 11.8044C15.9356 11.8044 14.5208 10.3281 14.5208 8.51345C14.5208 6.69886 15.9356 5.2225 17.6746 5.2225C19.4136 5.2225 20.8284 6.69882 20.8284 8.51345C20.8284 10.3281 19.4136 11.8044 17.6746 11.8044Z"
          fill="#A3A8AF"/>
    <path d="M13.4091 7.76463V8.01463H13.6221L13.6559 7.8043L13.4091 7.76463ZM6.59965 10.2369V10.4869H6.84965V10.2369H6.59965ZM4.06969 10.2369L4.06968 10.4869H4.06969V10.2369ZM4.05051 18.8458L4.29272 18.7838L4.24463 18.5958H4.05051V18.8458ZM8.44582 18.8458V18.5958H8.25171L8.20361 18.7838L8.44582 18.8458ZM11.7828 18.8458L12.025 18.7838L11.9769 18.5958H11.7828V18.8458ZM16.1781 18.8458V18.5958H15.984L15.9359 18.7838L16.1781 18.8458ZM18.2338 12.9893L18.2003 12.7415L17.9838 12.7708V12.9893H18.2338ZM4.05055 17.6232V17.8732H4.24467L4.29275 17.6851L4.05055 17.6232ZM6.59973 11.4594H6.84973V11.2094H6.59973V11.4594ZM6.59973 15.8895L6.55962 16.1363L6.84973 16.1834V15.8895H6.59973ZM6.2482 15.861L6.2482 15.611H6.24819L6.2482 15.861ZM12.8775 18.235H12.6275V18.2351L12.8775 18.235ZM12.8776 18.2345H13.1276V18.2252L13.1269 18.216L12.8776 18.2345ZM12.8775 18.2339L12.6275 18.2338L12.6275 18.2432L12.6282 18.2524L12.8775 18.2339ZM17.0621 17.4232H17.3121V17.1732H17.0621V17.4232ZM16.178 17.6232L15.9358 17.6851L15.9839 17.8732H16.178V17.6232ZM11.7827 17.6232V17.8732H11.9768L12.0249 17.6852L11.7827 17.6232ZM8.44574 17.6232L8.20353 17.6851L8.25162 17.8732H8.44574V17.6232ZM7.77125 16.4735H7.52125V16.5814L7.59975 16.6554L7.77125 16.4735ZM13.373 8.98713L13.6217 8.96215L13.5991 8.73713H13.373V8.98713ZM17.0621 12.9814H17.3121V12.7658L17.0988 12.7341L17.0621 12.9814ZM17.0621 17.4232H16.8121V17.6732H17.0621V17.4232ZM17.6746 3.75C15.4014 3.75 13.523 5.48019 13.1623 7.72496L13.6559 7.8043C13.9809 5.78198 15.6666 4.25 17.6746 4.25V3.75ZM13.4091 7.51463H7.96297V8.01463H13.4091V7.51463ZM7.96297 7.51463C7.06327 7.51463 6.34965 8.27484 6.34965 9.18719H6.84965C6.84965 8.53073 7.35923 8.01463 7.96297 8.01463V7.51463ZM6.34965 9.18719V10.2369H6.84965V9.18719H6.34965ZM6.59965 9.98686H4.06969V10.4869H6.59965V9.98686ZM4.0697 9.98686C2.78044 9.98681 1.75 11.0777 1.75 12.3965H2.25C2.25 11.3336 3.07643 10.4868 4.06968 10.4869L4.0697 9.98686ZM1.75 12.3965V17.5759H2.25V12.3965H1.75ZM1.75 17.5759C1.75 18.404 2.39795 19.0958 3.21699 19.0958V18.5958C2.69393 18.5958 2.25 18.1481 2.25 17.5759H1.75ZM3.21699 19.0958H4.05051V18.5958H3.21699V19.0958ZM3.8083 18.9077C4.09326 20.0222 5.0727 20.8579 6.24816 20.8579V20.3579C5.32027 20.3579 4.52596 19.6961 4.29272 18.7838L3.8083 18.9077ZM6.24816 20.8579C7.42363 20.8579 8.40303 20.0222 8.68803 18.9077L8.20361 18.7838C7.97033 19.6961 7.17606 20.3579 6.24816 20.3579V20.8579ZM8.44582 19.0958H11.7828V18.5958H8.44582V19.0958ZM11.5406 18.9077C11.8256 20.0222 12.805 20.8579 13.9805 20.8579V20.3579C13.0526 20.3579 12.2583 19.6961 12.025 18.7838L11.5406 18.9077ZM13.9805 20.8579C15.1559 20.8579 16.1353 20.0222 16.4203 18.9077L15.9359 18.7838C15.7026 19.6961 14.9084 20.3579 13.9805 20.3579V20.8579ZM16.1781 19.0958H16.8705V18.5958H16.1781V19.0958ZM16.8705 19.0958C17.7702 19.0958 18.4838 18.3355 18.4838 17.4232H17.9838C17.9838 18.0797 17.4742 18.5958 16.8705 18.5958V19.0958ZM18.4838 17.4232V12.9893H17.9838V17.4232H18.4838ZM18.2673 13.237C20.5193 12.9324 22.25 10.9232 22.25 8.51345H21.75C21.75 10.6858 20.1919 12.4721 18.2003 12.7415L18.2673 13.237ZM22.25 8.51345C22.25 5.89682 20.2076 3.75 17.6746 3.75V4.25C19.9117 4.25 21.75 6.15269 21.75 8.51345H22.25ZM4.05055 17.3732H3.21699V17.8732H4.05055V17.3732ZM3.21699 17.3732C3.34022 17.3732 3.4216 17.4743 3.4216 17.5758H2.9216C2.9216 17.7296 3.04369 17.8732 3.21699 17.8732V17.3732ZM3.4216 17.5758V12.3965H2.9216V17.5758H3.4216ZM3.4216 12.3965C3.4216 12.0077 3.72248 11.7094 4.06973 11.7094V11.2094C3.42651 11.2094 2.9216 11.7518 2.9216 12.3965H3.4216ZM4.06973 11.7094H6.59973V11.2094H4.06973V11.7094ZM6.34973 11.4594V15.8895H6.84973V11.4594H6.34973ZM6.63983 15.6427C6.51226 15.622 6.38146 15.611 6.2482 15.611V16.111C6.35401 16.111 6.45798 16.1197 6.55962 16.1363L6.63983 15.6427ZM6.24819 15.611C5.07274 15.6111 4.09329 16.4468 3.80834 17.5613L4.29275 17.6851C4.526 16.7729 5.32031 16.1111 6.24821 16.111L6.24819 15.611ZM6.24813 19.1353C5.78799 19.1353 5.39523 18.7411 5.39523 18.2345H4.89523C4.89523 18.997 5.49201 19.6353 6.24813 19.6353V19.1353ZM5.39523 18.2345C5.39523 17.7278 5.78799 17.3336 6.24813 17.3336V16.8336C5.49201 16.8336 4.89523 17.472 4.89523 18.2345H5.39523ZM6.24813 17.3336C6.70826 17.3336 7.10102 17.7278 7.10102 18.2345H7.60102C7.60102 17.472 7.00424 16.8336 6.24813 16.8336V17.3336ZM7.10102 18.2345C7.10102 18.7411 6.70829 19.1353 6.24813 19.1353V19.6353C7.00429 19.6353 7.60102 18.997 7.60102 18.2345H7.10102ZM13.9804 19.1353C13.5204 19.1353 13.1278 18.7413 13.1275 18.2349L12.6275 18.2351C12.6279 18.9973 13.2245 19.6353 13.9804 19.6353V19.1353ZM13.1275 18.235C13.1275 18.2444 13.127 18.2519 13.1267 18.2555C13.1264 18.259 13.1261 18.262 13.1261 18.2614C13.1261 18.2614 13.1261 18.2614 13.1261 18.2614C13.1261 18.2613 13.1261 18.2613 13.1261 18.2613C13.1262 18.2612 13.1262 18.2611 13.1262 18.261C13.1262 18.2607 13.1262 18.2603 13.1263 18.2598C13.1264 18.2589 13.1266 18.2572 13.1267 18.2552C13.127 18.2515 13.1276 18.244 13.1276 18.2345H12.6276C12.6276 18.225 12.6281 18.2176 12.6284 18.214C12.6287 18.2105 12.6291 18.2075 12.629 18.2081C12.629 18.2081 12.629 18.2081 12.629 18.2081C12.629 18.2081 12.629 18.2082 12.629 18.2082C12.629 18.2083 12.629 18.2084 12.6289 18.2085C12.6289 18.2087 12.6289 18.2091 12.6288 18.2096C12.6287 18.2106 12.6286 18.2122 12.6284 18.2143C12.6281 18.2179 12.6275 18.2255 12.6275 18.235H13.1275ZM13.1269 18.216L13.1269 18.2154L12.6282 18.2524L12.6283 18.253L13.1269 18.216ZM13.1275 18.234C13.1278 17.7276 13.5204 17.3336 13.9804 17.3336V16.8336C13.2245 16.8336 12.6279 17.4716 12.6275 18.2338L13.1275 18.234ZM13.9804 17.3336C14.4406 17.3336 14.8333 17.7278 14.8333 18.2345H15.3333C15.3333 17.472 14.7365 16.8336 13.9804 16.8336V17.3336ZM14.8333 18.2345C14.8333 18.7411 14.4406 19.1353 13.9804 19.1353V19.6353C14.7365 19.6353 15.3333 18.997 15.3333 18.2345H14.8333ZM16.8121 17.4232C16.8121 17.4056 16.8281 17.3732 16.8704 17.3732V17.8732C17.1242 17.8732 17.3121 17.6613 17.3121 17.4232H16.8121ZM16.8704 17.3732H16.178V17.8732H16.8704V17.3732ZM16.4203 17.5613C16.1353 16.4468 15.1559 15.6111 13.9804 15.6111V16.1111C14.9083 16.1111 15.7026 16.7729 15.9358 17.6851L16.4203 17.5613ZM13.9804 15.6111C12.8049 15.6111 11.8255 16.4468 11.5405 17.5613L12.0249 17.6852C12.2582 16.7729 13.0525 16.1111 13.9804 16.1111V15.6111ZM11.7827 17.3732H8.44574V17.8732H11.7827V17.3732ZM8.68795 17.5613C8.5613 17.066 8.29855 16.6271 7.94275 16.2916L7.59975 16.6554C7.88684 16.9261 8.10042 17.2819 8.20353 17.6851L8.68795 17.5613ZM8.02125 16.4735V10.2368H7.52125V16.4735H8.02125ZM8.02125 10.2368V9.18715H7.52125V10.2368H8.02125ZM8.02125 9.18715C8.02125 9.20482 8.00522 9.23713 7.96297 9.23713V8.73713C7.70923 8.73713 7.52125 8.94895 7.52125 9.18715H8.02125ZM7.96297 9.23713H13.373V8.73713H7.96297V9.23713ZM13.1242 9.01211C13.3415 11.1754 14.9575 12.9215 17.0253 13.2287L17.0988 12.7341C15.2698 12.4624 13.8174 10.9103 13.6217 8.96215L13.1242 9.01211ZM16.8121 12.9814V17.4232H17.3121V12.9814H16.8121ZM17.0621 17.6732H17.0621V17.1732H17.0621V17.6732ZM17.6746 11.5544C16.0836 11.5544 14.7708 10.2001 14.7708 8.51345H14.2708C14.2708 10.456 15.7876 12.0544 17.6746 12.0544V11.5544ZM14.7708 8.51345C14.7708 6.82679 16.0836 5.4725 17.6746 5.4725V4.9725C15.7876 4.9725 14.2708 6.57093 14.2708 8.51345H14.7708ZM17.6746 5.4725C19.2656 5.4725 20.5784 6.82675 20.5784 8.51345H21.0784C21.0784 6.57088 19.5616 4.9725 17.6746 4.9725V5.4725ZM20.5784 8.51345C20.5784 10.2001 19.2656 11.5544 17.6746 11.5544V12.0544C19.5616 12.0544 21.0784 10.456 21.0784 8.51345H20.5784Z"
          fill="#A3A8AF"/>
    <path d="M18.9084 7.12249C18.7864 6.95917 18.5884 6.95917 18.4663 7.12249L17.0704 8.99017L16.5337 8.272C16.4116 8.10868 16.2136 8.10868 16.0916 8.272C15.9695 8.43532 15.9695 8.70019 16.0916 8.86354L16.8494 9.87746C16.9105 9.95914 16.9905 10 17.0705 10C17.1504 10 17.2305 9.95914 17.2915 9.87746L18.9084 7.71403C19.0305 7.55068 19.0305 7.28584 18.9084 7.12249Z"
          fill="#A3A8AF" stroke="#A3A8AF" stroke-width="0.5"/>
</svg>
