<svg viewBox="0 0 24 24" fill="none" xmlns="http://www.w3.org/2000/svg">
    <path fill-rule="evenodd" clip-rule="evenodd"
          d="M13.55 7.1411C13.9272 4.7942 15.8874 3 18.2421 3C20.8656 3 23 5.22723 23 7.9648C23 10.4849 21.1911 12.5725 18.8572 12.8882V17.7655C18.8572 18.6284 18.1844 19.3303 17.3575 19.3303H16.5959C16.3109 20.445 15.3354 21.2687 14.1785 21.2687C13.0217 21.2687 12.0461 20.445 11.7611 19.3303H8.0904C7.80535 20.445 6.82983 21.2687 5.67298 21.2687C4.51613 21.2687 3.54057 20.445 3.25556 19.3303H2.33869C1.60053 19.3303 1 18.7037 1 17.9334V12.2361C1 10.9262 2.02128 9.8605 3.27666 9.86055H6.05961V8.7059C6.05961 7.84306 6.73237 7.1411 7.55927 7.1411H13.55ZM2.33869 17.9855H3.2556C3.54061 16.8708 4.51618 16.0472 5.67302 16.0471C5.80451 16.0471 5.93363 16.058 6.0597 16.0784V11.2053H3.2767C2.73194 11.2053 2.28876 11.6677 2.28876 12.2361V17.9334C2.28876 17.9621 2.31115 17.9855 2.33869 17.9855ZM4.45976 18.6579C4.45976 19.3559 5.004 19.9238 5.67294 19.9238C6.34192 19.9238 6.88612 19.3559 6.88612 18.6579C6.88612 17.9599 6.34188 17.392 5.67294 17.392C5.004 17.392 4.45976 17.9599 4.45976 18.6579ZM12.9653 18.6585C12.9656 19.3563 13.5097 19.9238 14.1785 19.9238C14.8474 19.9238 15.3917 19.3559 15.3917 18.6579C15.3917 17.9599 14.8474 17.392 14.1785 17.392C13.5097 17.392 12.9656 17.9596 12.9653 18.6573L12.9653 18.6579L12.9653 18.6585ZM17.3574 17.9855C17.4737 17.9855 17.5683 17.8868 17.5683 17.7655H17.5683V12.8796C15.425 12.5612 13.7374 10.7472 13.5103 8.48585H7.55927C7.44295 8.48585 7.34838 8.58458 7.34838 8.70586V9.8605V16.7209C7.70196 17.0542 7.96395 17.4913 8.09032 17.9855H11.761C12.0461 16.8708 13.0216 16.0472 14.1784 16.0472C15.3353 16.0472 16.3108 16.8708 16.5959 17.9855H17.3574ZM14.7729 7.9648C14.7729 9.96089 16.3292 11.5848 18.2421 11.5848C20.155 11.5848 21.7112 9.96089 21.7112 7.9648C21.7112 5.9687 20.155 4.34475 18.2421 4.34475C16.3291 4.34475 14.7729 5.96874 14.7729 7.9648ZM18.8575 7.29253H20.2322C20.588 7.29253 20.8766 7.59357 20.8766 7.96491C20.8766 8.33625 20.5881 8.63728 20.2322 8.63728H18.2131C17.8572 8.63728 17.5688 8.33625 17.5688 7.96491V5.7236C17.5688 5.35226 17.8572 5.05122 18.2131 5.05122C18.569 5.05122 18.8575 5.35226 18.8575 5.7236V7.29253Z"
          fill="#A3A8AF"/>
    <path d="M13.55 7.1411V7.3911H13.763L13.7968 7.18077L13.55 7.1411ZM18.8572 12.8882L18.8237 12.6405L18.6072 12.6697V12.8882H18.8572ZM16.5959 19.3303V19.0803H16.4018L16.3537 19.2684L16.5959 19.3303ZM11.7611 19.3303L12.0033 19.2684L11.9552 19.0803H11.7611V19.3303ZM8.0904 19.3303V19.0803H7.89629L7.8482 19.2684L8.0904 19.3303ZM3.25556 19.3303L3.49777 19.2684L3.44968 19.0803H3.25556V19.3303ZM3.27666 9.86055L3.27665 10.1105H3.27666V9.86055ZM6.05961 9.86055V10.1105H6.30961V9.86055H6.05961ZM3.2556 17.9855V18.2355H3.44972L3.49781 18.0475L3.2556 17.9855ZM5.67302 16.0471V15.7971H5.67301L5.67302 16.0471ZM6.0597 16.0784L6.01959 16.3252L6.3097 16.3724V16.0784H6.0597ZM6.0597 11.2053H6.3097V10.9553H6.0597V11.2053ZM12.9653 18.6585L12.716 18.6401L12.7153 18.6494L12.7153 18.6586L12.9653 18.6585ZM12.9653 18.6573L12.7153 18.6572L12.7153 18.6665L12.716 18.6757L12.9653 18.6573ZM12.9653 18.6579L13.2147 18.6763L13.216 18.6579L13.2147 18.6396L12.9653 18.6579ZM17.5683 17.7655H17.8183V17.5155H17.5683V17.7655ZM17.5683 17.7655H17.3183V18.0155H17.5683V17.7655ZM17.5683 12.8796H17.8183V12.6639L17.605 12.6323L17.5683 12.8796ZM13.5103 8.48585L13.759 8.46087L13.7364 8.23585H13.5103V8.48585ZM7.34838 16.7209H7.09838V16.8288L7.17688 16.9028L7.34838 16.7209ZM8.09032 17.9855L7.84811 18.0475L7.8962 18.2355H8.09032V17.9855ZM11.761 17.9855V18.2355H11.9551L12.0032 18.0475L11.761 17.9855ZM16.5959 17.9855L16.3536 18.0475L16.4017 18.2355H16.5959V17.9855ZM18.8575 7.29253H18.6075V7.54253H18.8575V7.29253ZM18.2421 2.75C15.7548 2.75 13.6982 4.6433 13.3032 7.10143L13.7968 7.18077C14.1561 4.94509 16.02 3.25 18.2421 3.25V2.75ZM23.25 7.9648C23.25 5.0993 21.0136 2.75 18.2421 2.75V3.25C20.7176 3.25 22.75 5.35517 22.75 7.9648H23.25ZM18.8907 13.1359C21.3549 12.8026 23.25 10.6037 23.25 7.9648H22.75C22.75 10.3662 21.0274 12.3423 18.8237 12.6405L18.8907 13.1359ZM19.1072 17.7655V12.8882H18.6072V17.7655H19.1072ZM17.3575 19.5803C18.3324 19.5803 19.1072 18.7563 19.1072 17.7655H18.6072C18.6072 18.5004 18.0364 19.0803 17.3575 19.0803V19.5803ZM16.5959 19.5803H17.3575V19.0803H16.5959V19.5803ZM14.1785 21.5187C15.4592 21.5187 16.5272 20.6081 16.8381 19.3923L16.3537 19.2684C16.0945 20.282 15.2116 21.0187 14.1785 21.0187V21.5187ZM11.5189 19.3923C11.8298 20.6081 12.8979 21.5187 14.1785 21.5187V21.0187C13.1455 21.0187 12.2625 20.282 12.0033 19.2684L11.5189 19.3923ZM8.0904 19.5803H11.7611V19.0803H8.0904V19.5803ZM5.67298 21.5187C6.95362 21.5187 8.0217 20.6081 8.33261 19.3923L7.8482 19.2684C7.589 20.282 6.70604 21.0187 5.67298 21.0187V21.5187ZM3.01335 19.3923C3.32422 20.6081 4.39235 21.5187 5.67298 21.5187V21.0187C4.63991 21.0187 3.75692 20.282 3.49777 19.2684L3.01335 19.3923ZM2.33869 19.5803H3.25556V19.0803H2.33869V19.5803ZM0.75 17.9334C0.75 18.8316 1.45254 19.5803 2.33869 19.5803V19.0803C1.74852 19.0803 1.25 18.5758 1.25 17.9334H0.75ZM0.75 12.2361V17.9334H1.25V12.2361H0.75ZM3.27667 9.61055C1.87329 9.6105 0.75 10.7983 0.75 12.2361H1.25C1.25 11.0542 2.16928 10.1105 3.27665 10.1105L3.27667 9.61055ZM6.05961 9.61055H3.27666V10.1105H6.05961V9.61055ZM5.80961 8.7059V9.86055H6.30961V8.7059H5.80961ZM7.55927 6.8911C6.58439 6.8911 5.80961 7.71512 5.80961 8.7059H6.30961C6.30961 7.97101 6.88036 7.3911 7.55927 7.3911V6.8911ZM13.55 6.8911H7.55927V7.3911H13.55V6.8911ZM3.2556 17.7355H2.33869V18.2355H3.2556V17.7355ZM5.67301 15.7971C4.39239 15.7972 3.32426 16.7078 3.01339 17.9236L3.49781 18.0475C3.75697 17.0339 4.63996 16.2972 5.67303 16.2971L5.67301 15.7971ZM6.09981 15.8317C5.96077 15.8091 5.81823 15.7971 5.67302 15.7971V16.2971C5.79078 16.2971 5.90649 16.3068 6.01959 16.3252L6.09981 15.8317ZM5.8097 11.2053V16.0784H6.3097V11.2053H5.8097ZM3.2767 11.4553H6.0597V10.9553H3.2767V11.4553ZM2.53876 12.2361C2.53876 11.7957 2.87993 11.4553 3.2767 11.4553V10.9553C2.58396 10.9553 2.03876 11.5398 2.03876 12.2361H2.53876ZM2.53876 17.9334V12.2361H2.03876V17.9334H2.53876ZM2.33869 17.7355C2.45941 17.7355 2.53876 17.8345 2.53876 17.9334H2.03876C2.03876 18.0898 2.16288 18.2355 2.33869 18.2355V17.7355ZM5.67294 19.6738C5.15199 19.6738 4.70976 19.228 4.70976 18.6579H4.20976C4.20976 19.4839 4.85601 20.1738 5.67294 20.1738V19.6738ZM6.63612 18.6579C6.63612 19.228 6.19392 19.6738 5.67294 19.6738V20.1738C6.48992 20.1738 7.13612 19.4839 7.13612 18.6579H6.63612ZM5.67294 17.642C6.19388 17.642 6.63612 18.0878 6.63612 18.6579H7.13612C7.13612 17.832 6.48987 17.142 5.67294 17.142V17.642ZM4.70976 18.6579C4.70976 18.0878 5.15199 17.642 5.67294 17.642V17.142C4.85601 17.142 4.20976 17.832 4.20976 18.6579H4.70976ZM14.1785 19.6738C13.6577 19.6738 13.2155 19.2283 13.2153 18.6584L12.7153 18.6586C12.7156 19.4843 13.3618 20.1738 14.1785 20.1738V19.6738ZM15.1417 18.6579C15.1417 19.228 14.6994 19.6738 14.1785 19.6738V20.1738C14.9954 20.1738 15.6417 19.4839 15.6417 18.6579H15.1417ZM14.1785 17.642C14.6994 17.642 15.1417 18.0878 15.1417 18.6579H15.6417C15.6417 17.832 14.9954 17.142 14.1785 17.142V17.642ZM13.2153 18.6574C13.2155 18.0876 13.6577 17.642 14.1785 17.642V17.142C13.3618 17.142 12.7156 17.8316 12.7153 18.6572L13.2153 18.6574ZM13.2147 18.6396L13.2146 18.639L12.716 18.6757L12.716 18.6763L13.2147 18.6396ZM13.2146 18.6769L13.2147 18.6763L12.716 18.6396L12.716 18.6401L13.2146 18.6769ZM17.3183 17.7655C17.3183 17.7604 17.3205 17.7538 17.326 17.748C17.3316 17.7421 17.3428 17.7355 17.3574 17.7355V18.2355C17.6218 18.2355 17.8183 18.0146 17.8183 17.7655H17.3183ZM17.5683 18.0155H17.5683V17.5155H17.5683V18.0155ZM17.3183 12.8796V17.7655H17.8183V12.8796H17.3183ZM13.2615 8.51083C13.4994 10.8797 15.2689 12.7907 17.5315 13.1268L17.605 12.6323C15.5812 12.3316 13.9753 10.6146 13.759 8.46087L13.2615 8.51083ZM7.55927 8.73585H13.5103V8.23585H7.55927V8.73585ZM7.59838 8.70586C7.59838 8.71099 7.59621 8.7176 7.5907 8.72335C7.58502 8.72928 7.57387 8.73585 7.55927 8.73585V8.23585C7.29496 8.23585 7.09838 8.45664 7.09838 8.70586H7.59838ZM7.59838 9.8605V8.70586H7.09838V9.8605H7.59838ZM7.59838 16.7209V9.8605H7.09838V16.7209H7.59838ZM8.33252 17.9236C8.19439 17.3834 7.90782 16.9047 7.51987 16.539L7.17688 16.9028C7.49611 17.2037 7.7335 17.5992 7.84811 18.0475L8.33252 17.9236ZM11.761 17.7355H8.09032V18.2355H11.761V17.7355ZM14.1784 15.7972C12.8978 15.7972 11.8297 16.7078 11.5188 17.9236L12.0032 18.0475C12.2624 17.0339 13.1454 16.2972 14.1784 16.2972V15.7972ZM16.8381 17.9236C16.5272 16.7078 15.4591 15.7972 14.1784 15.7972V16.2972C15.2115 16.2972 16.0945 17.0339 16.3536 18.0475L16.8381 17.9236ZM17.3574 17.7355H16.5959V18.2355H17.3574V17.7355ZM18.2421 11.3348C16.4772 11.3348 15.0229 9.83295 15.0229 7.9648H14.5229C14.5229 10.0888 16.1812 11.8348 18.2421 11.8348V11.3348ZM21.4612 7.9648C21.4612 9.83295 20.007 11.3348 18.2421 11.3348V11.8348C20.303 11.8348 21.9612 10.0888 21.9612 7.9648H21.4612ZM18.2421 4.59475C20.007 4.59475 21.4612 6.09663 21.4612 7.9648H21.9612C21.9612 5.84076 20.3029 4.09475 18.2421 4.09475V4.59475ZM15.0229 7.9648C15.0229 6.09668 16.4771 4.59475 18.2421 4.59475V4.09475C16.1811 4.09475 14.5229 5.84081 14.5229 7.9648H15.0229ZM20.2322 7.04253H18.8575V7.54253H20.2322V7.04253ZM21.1266 7.96491C21.1266 7.46561 20.736 7.04253 20.2322 7.04253V7.54253C20.4401 7.54253 20.6266 7.72153 20.6266 7.96491H21.1266ZM20.2322 8.88728C20.7361 8.88728 21.1266 8.46418 21.1266 7.96491H20.6266C20.6266 8.20831 20.4401 8.38728 20.2322 8.38728V8.88728ZM18.2131 8.88728H20.2322V8.38728H18.2131V8.88728ZM17.3188 7.96491C17.3188 8.46418 17.7092 8.88728 18.2131 8.88728V8.38728C18.0052 8.38728 17.8188 8.20831 17.8188 7.96491H17.3188ZM17.3188 5.7236V7.96491H17.8188V5.7236H17.3188ZM18.2131 4.80122C17.7092 4.80122 17.3188 5.22432 17.3188 5.7236H17.8188C17.8188 5.48019 18.0052 5.30122 18.2131 5.30122V4.80122ZM19.1075 5.7236C19.1075 5.22432 18.717 4.80122 18.2131 4.80122V5.30122C18.421 5.30122 18.6075 5.48019 18.6075 5.7236H19.1075ZM19.1075 7.29253V5.7236H18.6075V7.29253H19.1075Z"
          fill="#A3A8AF"/>
</svg>
