<svg viewBox="0 0 24 24" fill="none" xmlns="http://www.w3.org/2000/svg">
    <path fill-rule="evenodd" clip-rule="evenodd"
          d="M18.2421 3C15.8874 3 13.9272 4.71944 13.55 6.96855H7.55927C6.73237 6.96855 6.05961 7.64127 6.05961 8.46816V9.57469H3.27666C2.02128 9.57465 1 10.596 1 11.8513V17.3112C1 18.0494 1.60053 18.6499 2.33869 18.6499H3.25556C3.54057 19.7182 4.51613 20.5075 5.67298 20.5075C6.82983 20.5075 7.80535 19.7182 8.0904 18.6499H11.7611C12.0461 19.7182 13.0217 20.5075 14.1785 20.5075C15.3354 20.5075 16.3109 19.7182 16.5959 18.6499H17.3575C18.1844 18.6499 18.8572 17.9772 18.8572 17.1503V12.4762C21.1911 12.1736 23 10.1731 23 7.75793C23 5.13443 20.8656 3 18.2421 3ZM3.2556 17.3611H2.33869C2.31115 17.3611 2.28876 17.3387 2.28876 17.3112V11.8513C2.28876 11.3066 2.73194 10.8634 3.2767 10.8634H6.0597V15.5335C5.93363 15.5139 5.80451 15.5035 5.67302 15.5035C4.51618 15.5036 3.54061 16.2929 3.2556 17.3611ZM5.67294 19.2187C5.004 19.2187 4.45976 18.6744 4.45976 18.0055C4.45976 17.3366 5.004 16.7923 5.67294 16.7923C6.34188 16.7923 6.88612 17.3366 6.88612 18.0055C6.88612 18.6744 6.34192 19.2187 5.67294 19.2187ZM14.1785 19.2187C13.5097 19.2187 12.9656 18.6747 12.9653 18.0061V18.0049C12.9656 17.3363 13.5097 16.7923 14.1785 16.7923C14.8474 16.7923 15.3917 17.3366 15.3917 18.0055C15.3917 18.6744 14.8474 19.2187 14.1785 19.2187ZM17.5683 17.1503C17.5683 17.2665 17.4737 17.3611 17.3574 17.3611H16.5959C16.3108 16.2929 15.3353 15.5036 14.1784 15.5036C13.0216 15.5036 12.0461 16.2929 11.761 17.3611H8.09032C7.96395 16.8875 7.70197 16.4686 7.34838 16.1492V9.57465V8.46812C7.34838 8.35189 7.44295 8.25727 7.55927 8.25727H13.5103C13.7374 10.4244 15.425 12.1628 17.5683 12.4679L17.5683 17.1503ZM18.2421 11.2271C16.3292 11.2271 14.7729 9.67086 14.7729 7.75793C14.7729 5.84505 16.3291 4.28872 18.2421 4.28872C20.155 4.28872 21.7112 5.845 21.7112 7.75793C21.7112 9.67086 20.155 11.2271 18.2421 11.2271ZM18.2128 7.06082C17.857 7.06082 17.5685 7.34931 17.5685 7.70517V9.56288C17.5685 9.91875 17.857 10.2072 18.2128 10.2072C18.5687 10.2072 18.8572 9.91875 18.8572 9.56288V7.70517C18.8572 7.34935 18.5687 7.06082 18.2128 7.06082ZM18.8445 5.82712C18.8483 5.84779 18.8518 5.8688 18.8535 5.88981C18.8557 5.91048 18.857 5.93196 18.8569 5.95302C18.8569 5.97407 18.8556 5.99556 18.8534 6.01661C18.8517 6.03719 18.8483 6.05829 18.8444 6.07892C18.8401 6.09954 18.835 6.12017 18.8289 6.14036C18.8225 6.16013 18.8156 6.18032 18.8075 6.19966C18.7993 6.21899 18.7903 6.2379 18.7804 6.25638C18.7705 6.27528 18.7598 6.29333 18.7482 6.31095C18.7366 6.32818 18.7237 6.34536 18.7108 6.36169C18.697 6.37802 18.6829 6.39392 18.6678 6.40896C18.548 6.5288 18.3822 6.59755 18.2125 6.59755C18.1914 6.59755 18.1699 6.5963 18.1489 6.59411C18.1283 6.59196 18.1072 6.589 18.0866 6.58466C18.066 6.58083 18.0453 6.57563 18.0251 6.56923C18.0054 6.56322 17.9852 6.5563 17.9658 6.54818C17.9465 6.53997 17.9272 6.53095 17.9087 6.52111C17.8902 6.51122 17.8722 6.50048 17.8545 6.48888C17.8369 6.47728 17.8202 6.46439 17.8038 6.4515C17.7875 6.43818 17.7716 6.42357 17.7566 6.40896C17.742 6.39392 17.7274 6.37802 17.714 6.36169C17.7007 6.34536 17.6883 6.32813 17.6767 6.31095C17.6651 6.29329 17.6539 6.27524 17.6444 6.25638C17.6345 6.23794 17.6255 6.21899 17.6174 6.19966C17.6092 6.18032 17.6023 6.16013 17.5959 6.14036C17.5899 6.12017 17.5847 6.0995 17.5804 6.07892C17.5765 6.05829 17.5731 6.03719 17.571 6.01661C17.5688 5.99556 17.5679 5.97407 17.5679 5.95302C17.5679 5.93196 17.5688 5.91048 17.571 5.88985C17.5731 5.8688 17.5765 5.84774 17.5804 5.82712C17.5847 5.80649 17.5899 5.78587 17.5959 5.76567C17.6023 5.74591 17.6092 5.72567 17.6174 5.70638C17.6255 5.68704 17.6345 5.66813 17.6444 5.64966C17.6539 5.63071 17.6651 5.61266 17.6767 5.59504C17.6883 5.57786 17.7007 5.56067 17.714 5.54434C17.7274 5.52801 17.742 5.51211 17.7566 5.49708C17.7716 5.48247 17.7875 5.46786 17.8038 5.45454C17.8202 5.44126 17.8369 5.4288 17.8545 5.41715C17.8722 5.40555 17.8902 5.39434 17.9087 5.3845C17.9272 5.37461 17.9465 5.36559 17.9658 5.35786C17.9852 5.34969 18.0054 5.34239 18.0251 5.33637C18.0453 5.3304 18.066 5.32524 18.0866 5.3209C18.1072 5.31704 18.1283 5.3136 18.1489 5.31145C18.1909 5.30715 18.2335 5.30715 18.2756 5.31145C18.2966 5.3136 18.3177 5.31704 18.3383 5.3209C18.359 5.3252 18.3796 5.33036 18.3993 5.33637C18.4195 5.34239 18.4393 5.34969 18.4591 5.35786C18.4784 5.36559 18.4973 5.37461 18.5158 5.3845C18.5343 5.39438 18.5527 5.40555 18.5699 5.41715C18.5875 5.42875 18.6047 5.44122 18.6211 5.45454C18.6374 5.46781 18.6533 5.48247 18.6679 5.49708C18.6829 5.51211 18.6971 5.52801 18.7109 5.54434C18.7238 5.56067 18.7366 5.5779 18.7483 5.59504C18.7599 5.6127 18.7706 5.63075 18.7805 5.64966C18.7904 5.66809 18.7994 5.68704 18.8075 5.70638C18.8157 5.72567 18.8226 5.74591 18.829 5.76567C18.835 5.78587 18.8402 5.80654 18.8445 5.82712Z"
          fill="#A3A8AF"/>
    <path d="M13.55 6.96855V7.21855H13.7616L13.7966 7.0099L13.55 6.96855ZM6.05961 9.57469V9.82469H6.30961V9.57469H6.05961ZM3.27666 9.57469L3.27665 9.82469H3.27666V9.57469ZM3.25556 18.6499L3.49711 18.5855L3.4476 18.3999H3.25556V18.6499ZM8.0904 18.6499V18.3999H7.89837L7.84885 18.5854L8.0904 18.6499ZM11.7611 18.6499L12.0026 18.5855L11.9531 18.3999H11.7611V18.6499ZM16.5959 18.6499V18.3999H16.4039L16.3544 18.5855L16.5959 18.6499ZM18.8572 12.4762L18.825 12.2283L18.6072 12.2565V12.4762H18.8572ZM3.2556 17.3611V17.6111H3.44765L3.49715 17.4256L3.2556 17.3611ZM6.0597 10.8634H6.3097V10.6134H6.0597V10.8634ZM6.0597 15.5335L6.02122 15.7805L6.3097 15.8255V15.5335H6.0597ZM5.67302 15.5035V15.2535H5.67301L5.67302 15.5035ZM12.9653 18.0061H12.7153V18.0062L12.9653 18.0061ZM12.9653 18.0049L12.7153 18.0048V18.0049H12.9653ZM17.5683 17.1503H17.8183V17.1503L17.5683 17.1503ZM16.5959 17.3611L16.3543 17.4256L16.4038 17.6111H16.5959V17.3611ZM11.761 17.3611V17.6111H11.953L12.0026 17.4256L11.761 17.3611ZM8.09032 17.3611L7.84877 17.4256L7.89827 17.6111H8.09032V17.3611ZM7.34838 16.1492H7.09838V16.2602L7.18077 16.3347L7.34838 16.1492ZM13.5103 8.25727L13.7589 8.23121L13.7354 8.00727H13.5103V8.25727ZM17.5683 12.4679L17.8183 12.4679L17.8183 12.251L17.6035 12.2204L17.5683 12.4679ZM18.8572 7.70517L18.6072 7.70514V7.70517H18.8572ZM18.8535 5.88981L18.6043 5.91019L18.6049 5.91565L18.8535 5.88981ZM18.8445 5.82712L19.0904 5.78162L19.0892 5.77602L18.8445 5.82712ZM18.8569 5.95302L18.6069 5.952V5.95302H18.8569ZM18.8534 6.01661L18.6047 5.99124L18.6043 5.99581L18.8534 6.01661ZM18.8444 6.07892L19.0892 6.12992L19.0901 6.12498L18.8444 6.07892ZM18.8289 6.14036L19.0667 6.21789L19.0685 6.21173L18.8289 6.14036ZM18.7804 6.25638L18.5599 6.13845L18.5588 6.14057L18.7804 6.25638ZM18.7482 6.31095L18.9556 6.45057L18.957 6.44845L18.7482 6.31095ZM18.7108 6.36169L18.9021 6.52281L18.907 6.5166L18.7108 6.36169ZM18.6678 6.40896L18.491 6.23218L18.491 6.23218L18.6678 6.40896ZM18.1489 6.59411L18.123 6.84277L18.123 6.84277L18.1489 6.59411ZM18.0866 6.58466L18.1381 6.33994L18.1322 6.33885L18.0866 6.58466ZM18.0251 6.56923L18.1007 6.3309L18.0979 6.33006L18.0251 6.56923ZM17.9658 6.54818L17.8682 6.77831L17.869 6.77867L17.9658 6.54818ZM17.9087 6.52111L17.7908 6.74155L17.7912 6.74177L17.9087 6.52111ZM17.8545 6.48888L17.992 6.28009L17.992 6.28008L17.8545 6.48888ZM17.8038 6.4515L17.6458 6.64524L17.6489 6.64772L17.8038 6.4515ZM17.7566 6.40896L17.5772 6.58322L17.5824 6.58828L17.7566 6.40896ZM17.6767 6.31095L17.4677 6.44823L17.4694 6.45081L17.6767 6.31095ZM17.6444 6.25638L17.868 6.14433L17.8648 6.13824L17.6444 6.25638ZM17.5959 6.14036L17.3562 6.21176L17.3582 6.21786L17.5959 6.14036ZM17.5804 6.07892L17.3346 6.12499L17.3357 6.13001L17.5804 6.07892ZM17.571 6.01661L17.3222 6.04198L17.3223 6.04258L17.571 6.01661ZM17.571 5.88985L17.8196 5.91575L17.8197 5.91524L17.571 5.88985ZM17.5804 5.82712L17.3356 5.77612L17.3347 5.78106L17.5804 5.82712ZM17.5959 5.76567L17.3581 5.68815L17.3563 5.6943L17.5959 5.76567ZM17.6174 5.70638L17.8476 5.8038L17.8477 5.80361L17.6174 5.70638ZM17.6444 5.64966L17.865 5.76763L17.8681 5.76125L17.6444 5.64966ZM17.6767 5.59504L17.4694 5.45517L17.4679 5.45754L17.6767 5.59504ZM17.7566 5.49708L17.5823 5.31768L17.5773 5.32288L17.7566 5.49708ZM17.8038 5.45454L17.6461 5.26057L17.6458 5.26082L17.8038 5.45454ZM17.8545 5.41715L17.717 5.20836L17.7167 5.20859L17.8545 5.41715ZM17.9087 5.3845L18.0262 5.60516L18.0266 5.60494L17.9087 5.3845ZM17.9658 5.35786L18.0587 5.59002L18.0631 5.58817L17.9658 5.35786ZM18.0251 5.33637L17.9542 5.09663L17.9523 5.0972L18.0251 5.33637ZM18.0866 5.3209L18.0405 5.07513L18.0351 5.07626L18.0866 5.3209ZM18.1489 5.31145L18.1235 5.06274L18.123 5.0628L18.1489 5.31145ZM18.2756 5.31145L18.2502 5.56016L18.2502 5.56016L18.2756 5.31145ZM18.3383 5.3209L18.3893 5.07611L18.3844 5.07519L18.3383 5.3209ZM18.3993 5.33637L18.3266 5.57555L18.328 5.57597L18.3993 5.33637ZM18.4591 5.35786L18.3636 5.58894L18.3662 5.58998L18.4591 5.35786ZM18.5158 5.3845L18.6337 5.16405L18.6337 5.16405L18.5158 5.3845ZM18.5699 5.41715L18.43 5.62438L18.4324 5.62594L18.5699 5.41715ZM18.6211 5.45454L18.463 5.64825L18.4633 5.6485L18.6211 5.45454ZM18.6679 5.49708L18.8447 5.32031L18.8447 5.32029L18.6679 5.49708ZM18.7109 5.54434L18.9072 5.38936L18.9021 5.38331L18.7109 5.54434ZM18.7483 5.59504L18.9572 5.45778L18.9553 5.45493L18.7483 5.59504ZM18.7805 5.64966L18.5589 5.76549L18.5601 5.76778L18.7805 5.64966ZM18.8075 5.70638L18.5772 5.80363L18.5773 5.8038L18.8075 5.70638ZM18.829 5.76567L19.0687 5.6943L19.0667 5.68815L18.829 5.76567ZM13.7966 7.0099C14.1539 4.87902 16.0118 3.25 18.2421 3.25V2.75C15.7631 2.75 13.7005 4.55986 13.3035 6.9272L13.7966 7.0099ZM7.55927 7.21855H13.55V6.71855H7.55927V7.21855ZM6.30961 8.46816C6.30961 7.77935 6.87044 7.21855 7.55927 7.21855V6.71855C6.59431 6.71855 5.80961 7.50319 5.80961 8.46816H6.30961ZM6.30961 9.57469V8.46816H5.80961V9.57469H6.30961ZM3.27666 9.82469H6.05961V9.32469H3.27666V9.82469ZM1.25 11.8513C1.25 10.734 2.15936 9.82465 3.27665 9.82469L3.27666 9.32469C1.88321 9.32464 0.75 10.4579 0.75 11.8513H1.25ZM1.25 17.3112V11.8513H0.75V17.3112H1.25ZM2.33869 18.3999C1.7386 18.3999 1.25 17.9113 1.25 17.3112H0.75C0.75 18.1874 1.46246 18.8999 2.33869 18.8999V18.3999ZM3.25556 18.3999H2.33869V18.8999H3.25556V18.3999ZM5.67298 20.2575C4.63251 20.2575 3.75374 19.5473 3.49711 18.5855L3.01401 18.7144C3.3274 19.889 4.39976 20.7575 5.67298 20.7575V20.2575ZM7.84885 18.5854C7.59218 19.5473 6.71345 20.2575 5.67298 20.2575V20.7575C6.94621 20.7575 8.01851 19.889 8.33195 18.7144L7.84885 18.5854ZM11.7611 18.3999H8.0904V18.8999H11.7611V18.3999ZM14.1785 20.2575C13.138 20.2575 12.2593 19.5473 12.0026 18.5855L11.5195 18.7144C11.8329 19.889 12.9053 20.7575 14.1785 20.7575V20.2575ZM16.3544 18.5855C16.0977 19.5473 15.219 20.2575 14.1785 20.2575V20.7575C15.4517 20.7575 16.524 19.889 16.8375 18.7144L16.3544 18.5855ZM17.3575 18.3999H16.5959V18.8999H17.3575V18.3999ZM18.6072 17.1503C18.6072 17.8391 18.0463 18.3999 17.3575 18.3999V18.8999C18.3225 18.8999 19.1072 18.1153 19.1072 17.1503H18.6072ZM18.6072 12.4762V17.1503H19.1072V12.4762H18.6072ZM22.75 7.75793C22.75 10.0457 21.0362 11.9416 18.825 12.2283L18.8893 12.7241C21.3461 12.4056 23.25 10.3005 23.25 7.75793H22.75ZM18.2421 3.25C20.7275 3.25 22.75 5.2725 22.75 7.75793H23.25C23.25 4.99636 21.0037 2.75 18.2421 2.75V3.25ZM2.33869 17.6111H3.2556V17.1111H2.33869V17.6111ZM2.03876 17.3112C2.03876 17.4765 2.1728 17.6111 2.33869 17.6111V17.1111C2.4495 17.1111 2.53876 17.2009 2.53876 17.3112H2.03876ZM2.03876 11.8513V17.3112H2.53876V11.8513H2.03876ZM3.2767 10.6134C2.59388 10.6134 2.03876 11.1685 2.03876 11.8513H2.53876C2.53876 11.4447 2.87001 11.1134 3.2767 11.1134V10.6134ZM6.0597 10.6134H3.2767V11.1134H6.0597V10.6134ZM6.3097 15.5335V10.8634H5.8097V15.5335H6.3097ZM5.67302 15.7535C5.79136 15.7535 5.90761 15.7628 6.02122 15.7805L6.09817 15.2865C5.95964 15.2649 5.81766 15.2535 5.67302 15.2535V15.7535ZM3.49715 17.4256C3.75378 16.4637 4.63255 15.7536 5.67303 15.7535L5.67301 15.2535C4.3998 15.2536 3.32745 16.1221 3.01405 17.2967L3.49715 17.4256ZM4.20976 18.0055C4.20976 18.8125 4.86593 19.4687 5.67294 19.4687V18.9687C5.14207 18.9687 4.70976 18.5364 4.70976 18.0055H4.20976ZM5.67294 16.5423C4.86593 16.5423 4.20976 17.1985 4.20976 18.0055H4.70976C4.70976 17.4746 5.14207 17.0423 5.67294 17.0423V16.5423ZM7.13612 18.0055C7.13612 17.1985 6.47995 16.5423 5.67294 16.5423V17.0423C6.2038 17.0423 6.63612 17.4746 6.63612 18.0055H7.13612ZM5.67294 19.4687C6.48 19.4687 7.13612 18.8125 7.13612 18.0055H6.63612C6.63612 18.5364 6.20384 18.9687 5.67294 18.9687V19.4687ZM12.7153 18.0062C12.7157 18.8129 13.3717 19.4687 14.1785 19.4687V18.9687C13.6477 18.9687 13.2155 18.5366 13.2153 18.0059L12.7153 18.0062ZM12.7153 18.0049V18.0061H13.2153V18.0049H12.7153ZM14.1785 16.5423C13.3717 16.5423 12.7157 17.1981 12.7153 18.0048L13.2153 18.0051C13.2155 17.4744 13.6477 17.0423 14.1785 17.0423V16.5423ZM15.6417 18.0055C15.6417 17.1985 14.9855 16.5423 14.1785 16.5423V17.0423C14.7093 17.0423 15.1417 17.4746 15.1417 18.0055H15.6417ZM14.1785 19.4687C14.9855 19.4687 15.6417 18.8125 15.6417 18.0055H15.1417C15.1417 18.5364 14.7093 18.9687 14.1785 18.9687V19.4687ZM17.3574 17.6111C17.6119 17.6111 17.8183 17.4045 17.8183 17.1503H17.3183C17.3183 17.1285 17.3356 17.1111 17.3574 17.1111V17.6111ZM16.5959 17.6111H17.3574V17.1111H16.5959V17.6111ZM14.1784 15.7536C15.2189 15.7536 16.0977 16.4637 16.3543 17.4256L16.8374 17.2967C16.524 16.1221 15.4517 15.2536 14.1784 15.2536V15.7536ZM12.0026 17.4256C12.2592 16.4637 13.138 15.7536 14.1784 15.7536V15.2536C12.9052 15.2536 11.8329 16.1221 11.5195 17.2967L12.0026 17.4256ZM8.09032 17.6111H11.761V17.1111H8.09032V17.6111ZM7.18077 16.3347C7.49943 16.6226 7.73514 16.9997 7.84877 17.4256L8.33187 17.2967C8.19275 16.7753 7.9045 16.3147 7.51598 15.9637L7.18077 16.3347ZM7.09838 9.57465V16.1492H7.59838V9.57465H7.09838ZM7.09838 8.46812V9.57465H7.59838V8.46812H7.09838ZM7.55927 8.00727C7.30488 8.00727 7.09838 8.21382 7.09838 8.46812H7.59838C7.59838 8.48996 7.58102 8.50727 7.55927 8.50727V8.00727ZM13.5103 8.00727H7.55927V8.50727H13.5103V8.00727ZM17.6035 12.2204C15.5733 11.9314 13.974 10.2838 13.7589 8.23121L13.2616 8.28332C13.5007 10.5649 15.2768 12.3942 17.533 12.7154L17.6035 12.2204ZM17.8183 17.1503L17.8183 12.4679L17.3183 12.4679L17.3183 17.1503L17.8183 17.1503ZM14.5229 7.75793C14.5229 9.80893 16.1911 11.4771 18.2421 11.4771V10.9771C16.4673 10.9771 15.0229 9.53278 15.0229 7.75793H14.5229ZM18.2421 4.03872C16.1911 4.03872 14.5229 5.70698 14.5229 7.75793H15.0229C15.0229 5.98311 16.4672 4.53872 18.2421 4.53872V4.03872ZM21.9612 7.75793C21.9612 5.70693 20.293 4.03872 18.2421 4.03872V4.53872C20.0169 4.53872 21.4612 5.98307 21.4612 7.75793H21.9612ZM18.2421 11.4771C20.2931 11.4771 21.9612 9.80893 21.9612 7.75793H21.4612C21.4612 9.53278 20.0169 10.9771 18.2421 10.9771V11.4771ZM17.8185 7.70517C17.8185 7.48738 17.995 7.31082 18.2128 7.31082V6.81082C17.7189 6.81082 17.3185 7.21124 17.3185 7.70517H17.8185ZM17.8185 9.56288V7.70517H17.3185V9.56288H17.8185ZM18.2128 9.95724C17.995 9.95724 17.8185 9.78068 17.8185 9.56288H17.3185C17.3185 10.0568 17.7189 10.4572 18.2128 10.4572V9.95724ZM18.6072 9.56288C18.6072 9.78068 18.4306 9.95724 18.2128 9.95724V10.4572C18.7068 10.4572 19.1072 10.0568 19.1072 9.56288H18.6072ZM18.6072 7.70517V9.56288H19.1072V7.70517H18.6072ZM18.2128 7.31082C18.4307 7.31082 18.6072 7.48743 18.6072 7.70514L19.1072 7.7052C19.1073 7.21127 18.7068 6.81082 18.2128 6.81082V7.31082ZM19.1027 5.86943C19.0999 5.83551 19.0946 5.80452 19.0903 5.78163L18.5987 5.8726C18.6021 5.89105 18.6037 5.90208 18.6044 5.91019L19.1027 5.86943ZM19.1069 5.95404C19.107 5.92242 19.1051 5.89182 19.1022 5.86397L18.6049 5.91565C18.6063 5.92913 18.6069 5.94151 18.6069 5.952L19.1069 5.95404ZM19.1021 6.04198C19.105 6.01412 19.1069 5.98403 19.1069 5.95302H18.6069C18.6069 5.96411 18.6062 5.97699 18.6047 5.99124L19.1021 6.04198ZM19.0901 6.12498C19.0946 6.10123 19.0998 6.07049 19.1026 6.03741L18.6043 5.99581C18.6036 6.00389 18.602 6.01535 18.5987 6.03285L19.0901 6.12498ZM19.0685 6.21173C19.0767 6.18442 19.0835 6.15698 19.0892 6.12991L18.5997 6.02792C18.5967 6.0421 18.5932 6.05591 18.5894 6.06899L19.0685 6.21173ZM19.0378 6.29689C19.0502 6.26737 19.0598 6.23885 19.0666 6.21786L18.5913 6.06286C18.5852 6.0814 18.581 6.09328 18.5771 6.10242L19.0378 6.29689ZM19.0008 6.3743C19.0143 6.34907 19.0266 6.32326 19.0378 6.29689L18.5771 6.10242C18.572 6.11473 18.5662 6.12673 18.56 6.13845L19.0008 6.3743ZM18.957 6.44845C18.9727 6.42448 18.9878 6.3992 19.002 6.37218L18.5588 6.14057C18.5532 6.15137 18.5468 6.16218 18.5394 6.17344L18.957 6.44845ZM18.907 6.5166C18.9223 6.49723 18.9393 6.47472 18.9555 6.45057L18.5408 6.17133C18.5338 6.18163 18.525 6.1935 18.5146 6.20679L18.907 6.5166ZM18.8446 6.58574C18.8662 6.5641 18.8854 6.54251 18.902 6.52273L18.5196 6.20066C18.5087 6.21353 18.4995 6.22374 18.491 6.23218L18.8446 6.58574ZM18.2125 6.84755C18.4485 6.84755 18.6779 6.75244 18.8446 6.58574L18.491 6.23218C18.4181 6.30515 18.3158 6.34755 18.2125 6.34755V6.84755ZM18.123 6.84277C18.1516 6.84574 18.1818 6.84755 18.2125 6.84755V6.34755C18.2011 6.34755 18.1883 6.34686 18.1748 6.34545L18.123 6.84277ZM18.0351 6.8293C18.0665 6.83591 18.0965 6.84001 18.123 6.84277L18.1748 6.34546C18.16 6.34392 18.1479 6.34209 18.1381 6.34002L18.0351 6.8293ZM17.9496 6.80754C17.9793 6.81695 18.0099 6.8247 18.041 6.83047L18.1322 6.33885C18.122 6.33697 18.1114 6.33432 18.1007 6.33092L17.9496 6.80754ZM17.869 6.77867C17.8985 6.79107 17.9272 6.80076 17.9523 6.8084L18.0979 6.33006C18.0835 6.32567 18.0718 6.32153 18.0626 6.31768L17.869 6.77867ZM17.7912 6.74177C17.8174 6.75572 17.8435 6.76784 17.8682 6.7783L18.0635 6.31805C18.0495 6.3121 18.037 6.30618 18.0262 6.30045L17.7912 6.74177ZM17.717 6.69767C17.741 6.71343 17.7656 6.72806 17.7908 6.74155L18.0266 6.30066C18.0149 6.29439 18.0034 6.28754 17.992 6.28009L17.717 6.69767ZM17.6489 6.64772C17.6662 6.66137 17.69 6.67985 17.7171 6.69768L17.992 6.28008C17.9839 6.27471 17.9741 6.26741 17.9587 6.25527L17.6489 6.64772ZM17.5824 6.58828C17.6005 6.60593 17.622 6.62583 17.6458 6.64522L17.9619 6.25778C17.953 6.25053 17.9427 6.24121 17.9308 6.22964L17.5824 6.58828ZM17.5203 6.51973C17.5397 6.54349 17.5596 6.56498 17.5772 6.58315L17.9359 6.23477C17.9243 6.22285 17.915 6.21255 17.9077 6.20366L17.5203 6.51973ZM17.4694 6.45081C17.484 6.47238 17.501 6.49603 17.5203 6.51973L17.9077 6.20366C17.9004 6.1947 17.8925 6.18389 17.8839 6.17109L17.4694 6.45081ZM17.4209 6.36838C17.4368 6.40001 17.4541 6.42742 17.4677 6.44822L17.8856 6.17368C17.8761 6.15915 17.871 6.15047 17.8679 6.14437L17.4209 6.36838ZM17.387 6.29689C17.3981 6.32312 17.4104 6.34905 17.4241 6.37451L17.8648 6.13824C17.8586 6.12683 17.8529 6.11487 17.8477 6.10242L17.387 6.29689ZM17.3582 6.21786C17.365 6.23885 17.3746 6.26737 17.387 6.29689L17.8477 6.10242C17.8438 6.09328 17.8396 6.0814 17.8336 6.06286L17.3582 6.21786ZM17.3357 6.13001C17.3413 6.15689 17.3481 6.18435 17.3563 6.21173L17.8355 6.06899C17.8316 6.05598 17.8281 6.04211 17.8251 6.02782L17.3357 6.13001ZM17.3223 6.04258C17.3254 6.07246 17.3302 6.10084 17.3347 6.12498L17.8261 6.03285C17.8229 6.01574 17.8208 6.00192 17.8196 5.99064L17.3223 6.04258ZM17.3179 5.95302C17.3179 5.98065 17.3191 6.0108 17.3222 6.04198L17.8197 5.99124C17.8185 5.98031 17.8179 5.96749 17.8179 5.95302H17.3179ZM17.3223 5.86396C17.319 5.89513 17.3179 5.92551 17.3179 5.95302H17.8179C17.8179 5.93841 17.8186 5.92583 17.8196 5.91575L17.3223 5.86396ZM17.3347 5.78106C17.3302 5.80521 17.3254 5.83378 17.3222 5.86446L17.8197 5.91524C17.8208 5.90381 17.8229 5.89028 17.8261 5.87318L17.3347 5.78106ZM17.3563 5.6943C17.3481 5.72161 17.3413 5.74906 17.3357 5.77613L17.8251 5.87811C17.8281 5.86393 17.8316 5.85012 17.8355 5.83704L17.3563 5.6943ZM17.3871 5.60896C17.3746 5.63862 17.365 5.66735 17.3582 5.68817L17.8336 5.84317C17.8397 5.82446 17.8438 5.81272 17.8476 5.8038L17.3871 5.60896ZM17.424 5.53173C17.4105 5.55696 17.3982 5.58277 17.387 5.60914L17.8477 5.80361C17.8529 5.79131 17.8586 5.7793 17.8649 5.76758L17.424 5.53173ZM17.4679 5.45754C17.4541 5.47848 17.4367 5.50608 17.4207 5.53806L17.8681 5.76125C17.8711 5.75534 17.876 5.74684 17.8854 5.73255L17.4679 5.45754ZM17.5203 5.3863C17.5011 5.40987 17.4841 5.43342 17.4694 5.45518L17.8839 5.7349C17.8924 5.72229 17.9003 5.71147 17.9077 5.70238L17.5203 5.3863ZM17.5773 5.32288C17.5596 5.34105 17.5397 5.36254 17.5203 5.3863L17.9077 5.70238C17.915 5.69349 17.9243 5.68318 17.9359 5.67127L17.5773 5.32288ZM17.6458 5.26082C17.622 5.28021 17.6005 5.3001 17.5824 5.31775L17.9308 5.6764C17.9427 5.66483 17.953 5.65551 17.9619 5.64825L17.6458 5.26082ZM17.7167 5.20859C17.6914 5.2253 17.668 5.24275 17.6461 5.26057L17.9616 5.64851C17.9723 5.63977 17.9824 5.63229 17.9924 5.62572L17.7167 5.20859ZM17.7912 5.16384C17.7632 5.17875 17.738 5.19458 17.717 5.20836L17.9921 5.62594C18.0064 5.61652 18.0172 5.60992 18.0262 5.60516L17.7912 5.16384ZM17.873 5.12574C17.8449 5.13696 17.8172 5.14989 17.7908 5.16405L18.0266 5.60494C18.0371 5.59934 18.0481 5.59422 18.0587 5.58997L17.873 5.12574ZM17.9523 5.0972C17.9243 5.10574 17.8959 5.11601 17.8686 5.12754L18.0631 5.58817C18.0744 5.58338 18.0865 5.57903 18.0979 5.57554L17.9523 5.0972ZM18.0351 5.07626C18.0084 5.08189 17.9812 5.08865 17.9542 5.09664L18.096 5.57611C18.1094 5.57215 18.1235 5.5686 18.1381 5.56555L18.0351 5.07626ZM18.123 5.0628C18.093 5.06592 18.0646 5.07067 18.0405 5.07519L18.1327 5.56662C18.1498 5.5634 18.1635 5.56128 18.1748 5.56011L18.123 5.0628ZM18.301 5.06274C18.242 5.05672 18.1824 5.05672 18.1235 5.06274L18.1743 5.56016C18.1995 5.55759 18.225 5.55758 18.2502 5.56016L18.301 5.06274ZM18.3844 5.07519C18.3602 5.07066 18.3317 5.06587 18.301 5.06274L18.2502 5.56016C18.2616 5.56132 18.2752 5.56342 18.2923 5.56662L18.3844 5.07519ZM18.4721 5.0972C18.4443 5.08872 18.4163 5.08178 18.3893 5.07616L18.2873 5.56565C18.3016 5.56862 18.3149 5.57199 18.3266 5.57554L18.4721 5.0972ZM18.5545 5.12679C18.5291 5.11631 18.5011 5.10583 18.4707 5.09678L18.328 5.57597C18.338 5.57894 18.3495 5.58308 18.3636 5.58892L18.5545 5.12679ZM18.6337 5.16405C18.6086 5.15061 18.5813 5.13747 18.5519 5.12574L18.3662 5.58998C18.3756 5.59371 18.386 5.59862 18.3979 5.60494L18.6337 5.16405ZM18.7098 5.20994C18.6857 5.19366 18.6599 5.17806 18.6337 5.16405L18.3979 5.60494C18.4086 5.6107 18.4198 5.61744 18.4301 5.62436L18.7098 5.20994ZM18.7791 5.26083C18.7554 5.24151 18.7313 5.22406 18.7074 5.20836L18.4324 5.62594C18.4438 5.63345 18.4541 5.64093 18.463 5.64825L18.7791 5.26083ZM18.8447 5.32029C18.8253 5.30092 18.803 5.28028 18.7788 5.26057L18.4633 5.6485C18.4718 5.65535 18.4813 5.66402 18.4911 5.67386L18.8447 5.32029ZM18.9021 5.38331C18.8854 5.36351 18.8663 5.34193 18.8447 5.32031L18.4911 5.67384C18.4996 5.6823 18.5088 5.69251 18.5196 5.70538L18.9021 5.38331ZM18.9553 5.45493C18.9393 5.43132 18.9226 5.40902 18.9071 5.38944L18.5146 5.69925C18.525 5.71232 18.534 5.72448 18.5412 5.73516L18.9553 5.45493ZM19.002 5.53383C18.9879 5.50683 18.9729 5.48164 18.9572 5.45779L18.5393 5.7323C18.5468 5.74377 18.5533 5.75467 18.5589 5.76548L19.002 5.53383ZM19.0379 5.60912C19.0268 5.58291 19.0145 5.55699 19.0008 5.53154L18.5601 5.76778C18.5663 5.7792 18.572 5.79117 18.5772 5.80363L19.0379 5.60912ZM19.0667 5.68815C19.0599 5.66737 19.0503 5.63863 19.0378 5.60896L18.5773 5.8038C18.5811 5.81271 18.5852 5.82445 18.5914 5.84319L19.0667 5.68815ZM19.0892 5.77602C19.0836 5.74913 19.0768 5.72168 19.0686 5.69432L18.5894 5.83702C18.5933 5.85006 18.5968 5.86394 18.5998 5.87821L19.0892 5.77602Z"
          fill="#A3A8AF"/>
</svg>
