<svg viewBox="0 0 24 24" fill="none" xmlns="http://www.w3.org/2000/svg">
    <path d="M21.9999 13.2311V18.3794C21.9999 18.7039 21.7304 18.9735 21.4059 18.9735H20.9462C20.9856 18.7834 21.0093 18.5851 21.0093 18.3794C21.0093 16.7398 19.6786 15.4091 18.039 15.4091C16.3993 15.4091 15.0686 16.7398 15.0686 18.3794C15.0686 18.5458 15.0842 18.7039 15.1161 18.8547C14.9661 18.7522 14.8711 18.5777 14.8711 18.3794V10.0625C14.8711 9.73794 15.1407 9.46838 15.4652 9.46838H18.2372C20.3128 9.46838 21.9999 11.1555 21.9999 13.2311Z"
          fill="#A3A8AF"/>
    <path d="M18.0393 20.5582C16.8378 20.5582 15.8613 19.5817 15.8613 18.3802C15.8613 17.1787 16.8378 16.2022 18.0393 16.2022C19.2408 16.2022 20.2173 17.1787 20.2173 18.3802C20.2173 19.581 19.2408 20.5582 18.0393 20.5582Z"
          fill="#A3A8AF"/>
    <path d="M6.75223 20.5582C5.55072 20.5582 4.57422 19.5817 4.57422 18.3802C4.57422 17.1787 5.55072 16.2029 6.75223 16.2029C7.95373 16.2029 8.93024 17.1787 8.93024 18.3795C8.93024 19.5802 7.95373 20.5582 6.75223 20.5582Z"
          fill="#A3A8AF"/>
    <path d="M2 12.6422C2 12.9341 2.23689 13.1717 2.52946 13.1717H9.93677C10.2286 13.1717 10.4662 12.9348 10.4662 12.6422V8.93896H2V12.6422Z"
          fill="#A3A8AF"/>
    <path d="M4.42752 8.23275H5.87928V4H3.76439C3.54532 4 3.34928 4.13441 3.27057 4.33788L2.0349 7.51244C2.01262 7.57036 2.00074 7.63199 2 7.69363V8.23275H2.52946H4.42752Z"
          fill="#A3A8AF"/>
    <path d="M10.4303 7.51244L9.19539 4.33788C9.11667 4.13441 8.92137 4 8.70231 4H6.58594V8.23275H8.0377H9.93723H10.466V7.69289C10.4652 7.63199 10.4533 7.57036 10.4303 7.51244Z"
          fill="#A3A8AF"/>
    <path d="M13.4852 7.09222H11.5411C11.6124 7.27713 11.6503 7.47169 11.654 7.67218V7.7509V12.6431C11.654 13.5899 10.8839 14.3599 9.9364 14.3599H2.99023V18.3796C2.99023 18.7041 3.25979 18.9736 3.5843 18.9736H3.84421C3.80485 18.7835 3.78109 18.5852 3.78109 18.3796C3.78109 16.7399 5.11181 15.4092 6.75144 15.4092C8.39107 15.4092 9.72179 16.7399 9.72179 18.3796C9.72179 18.5852 9.69802 18.7835 9.65867 18.9736H13.4845C13.809 18.9736 14.0785 18.7041 14.0785 18.3796V7.68629C14.0793 7.36178 13.8105 7.09222 13.4852 7.09222Z"
          fill="#A3A8AF"/>
</svg>
