<svg viewBox="0 0 24 24" fill="none" xmlns="http://www.w3.org/2000/svg">
    <g clip-path="url(#clip0_350_2)">
        <path d="M17.4466 8.30127C16.8888 8.09803 16.2993 7.99605 15.7056 8.00012C13.7859 8.00012 12.4301 8.96717 12.4205 10.3554C12.4085 11.3752 13.384 11.9499 14.1219 12.2907C14.879 12.641 15.1321 12.8618 15.1297 13.1749C15.1249 13.6513 14.525 13.8672 13.9671 13.8672C13.2004 13.8672 12.7817 13.7605 12.1374 13.4929L11.8986 13.3813L11.6263 14.9795C12.093 15.1738 12.9341 15.3406 13.8027 15.355C15.8436 15.355 17.1778 14.394 17.1934 12.917C17.2102 12.1023 16.6823 11.4868 15.5713 10.9781C14.8958 10.6481 14.477 10.4274 14.477 10.0926C14.477 9.79625 14.8358 9.4795 15.5857 9.4795C16.0847 9.46742 16.5807 9.56106 17.041 9.75425L17.221 9.83464L17.4934 8.29047L17.4466 8.30127ZM22.4282 8.1297H20.9285C20.4617 8.1297 20.1102 8.25808 19.9062 8.72121L17.0218 15.2554H19.0627L19.4707 14.184L21.9615 14.1864C22.0203 14.4372 22.2003 15.2554 22.2003 15.2554H24L22.4282 8.1297ZM9.65975 8.06971H11.6047L10.388 15.199H8.44553L9.65975 8.06731V8.06971ZM4.72249 11.9991L4.92406 12.989L6.82458 8.1297H8.88467L5.82393 15.2458H3.76863L2.08889 9.22033C2.06168 9.12098 1.99779 9.03565 1.91011 8.98157C1.30469 8.66882 0.663195 8.43149 0 8.27487L0.026396 8.1249H3.15673C3.58146 8.14169 3.92341 8.27488 4.03739 8.72841L4.72129 12.0027V11.9991H4.72249ZM20.0286 12.7262L20.8037 10.7321C20.7941 10.7537 20.9633 10.3206 21.0616 10.053L21.1948 10.6685L21.6448 12.725H20.0274V12.7262H20.0286Z"
              fill="#A3A8AF"/>
    </g>
    <defs>
        <clipPath id="clip0_350_2">
            <rect width="24" height="24" fill="white"/>
        </clipPath>
    </defs>
</svg>
