<svg viewBox="0 0 24 24" fill="none" xmlns="http://www.w3.org/2000/svg">
    <path d="M22.3654 9.65381C22.7159 9.65381 23 9.36966 23 9.01921V5.6346C23 5.28411 22.7158 5 22.3654 5H8.40386V8.17307C8.40386 8.52356 8.11971 8.80767 7.76925 8.80767C7.4188 8.80767 7.13465 8.52352 7.13465 8.17307V5H1.63465C1.28415 5 1 5.28411 1 5.6346V9.01921C1 9.3697 1.28415 9.65381 1.63461 9.65381C2.68438 9.65381 3.53846 10.5079 3.53846 11.5577C3.53846 12.6075 2.68442 13.4615 1.63461 13.4615C1.28415 13.4615 1 13.7456 1 14.0961V17.4807C1 17.8312 1.28415 18.1153 1.63461 18.1153H7.13461V14.9423C7.13461 14.5918 7.41876 14.3077 7.76921 14.3077C8.11966 14.3077 8.40382 14.5918 8.40382 14.9423V18.1153H22.3654C22.7158 18.1153 23 17.8312 23 17.4807V14.0961C23 13.7456 22.7158 13.4615 22.3654 13.4615C21.3156 13.4615 20.4615 12.6075 20.4615 11.5577C20.4615 10.5079 21.3156 9.65381 22.3654 9.65381ZM8.40386 12.4038C8.40386 12.7543 8.11971 13.0384 7.76925 13.0384C7.4188 13.0384 7.13465 12.7543 7.13465 12.4038V10.7115C7.13465 10.361 7.4188 10.0769 7.76925 10.0769C8.11971 10.0769 8.40386 10.361 8.40386 10.7115V12.4038Z"
          fill="#A3A8AF"/>
</svg>
