<svg viewBox="0 0 24 24" fill="none" xmlns="http://www.w3.org/2000/svg">
    <path fill-rule="evenodd" clip-rule="evenodd"
          d="M8.5 3C8.5 2.44772 8.94772 2 9.5 2H14.5C15.0523 2 15.5 2.44772 15.5 3V5.79815L17.5547 7.16795C17.8329 7.35342 18 7.66565 18 8V9.66667C18 10.2964 17.7799 10.8763 17.4126 11.3333C17.7799 11.7904 18 12.3703 18 13V14.6667C18 15.2964 17.7799 15.8763 17.4126 16.3333C17.7799 16.7904 18 17.3703 18 18V19.6667C18 21.1356 16.8023 22.3333 15.3333 22.3333H8.66667C7.19772 22.3333 6 21.1356 6 19.6667V18C6 17.3703 6.22012 16.7904 6.58736 16.3333C6.22012 15.8763 6 15.2964 6 14.6667V13C6 12.3703 6.22012 11.7904 6.58736 11.3333C6.22012 10.8763 6 10.2964 6 9.66667V8C6 7.66565 6.1671 7.35342 6.4453 7.16795L8.5 5.79815V3ZM10.5 5.33333H13.5V4H10.5V5.33333ZM9.80278 7.33333L8 8.53518V9.66667C8 10.031 8.30228 10.3333 8.66667 10.3333H15.3333C15.6977 10.3333 16 10.031 16 9.66667V8.53518L14.1972 7.33333H9.80278ZM8 13C8 12.6356 8.30228 12.3333 8.66667 12.3333H15.3333C15.6977 12.3333 16 12.6356 16 13V14.6667C16 15.031 15.6977 15.3333 15.3333 15.3333H8.66667C8.30228 15.3333 8 15.031 8 14.6667V13ZM8.66667 17.3333C8.30228 17.3333 8 17.6356 8 18V19.6667C8 20.031 8.30228 20.3333 8.66667 20.3333H15.3333C15.6977 20.3333 16 20.031 16 19.6667V18C16 17.6356 15.6977 17.3333 15.3333 17.3333H8.66667Z"
          fill="#A3A8AF"/>
</svg>
