<svg viewBox="0 0 24 24" fill="none" xmlns="http://www.w3.org/2000/svg">
    <path fill-rule="evenodd" clip-rule="evenodd"
          d="M3.25892 2.32859C3.44848 2.11935 3.71766 2 4 2H20.3636C20.646 2 20.9152 2.11935 21.1047 2.32859C21.2943 2.53783 21.3866 2.81745 21.3588 3.09842L19.7224 19.6439L19.7223 19.645C19.5795 21.0736 18.3235 22.1818 16.9091 22.1818H7.45455C6.04011 22.1818 4.78419 21.0736 4.64133 19.645L4.64123 19.6439L3.00486 3.09842C2.97707 2.81745 3.06935 2.53783 3.25892 2.32859ZM5.10378 4L5.26562 5.63636H9.45455H19.098L19.2599 4H5.10378ZM8.45455 7.63636V9.36364C8.45455 9.91592 8.90227 10.3636 9.45455 10.3636C10.0068 10.3636 10.4545 9.91592 10.4545 9.36364V7.63636H18.9002L17.7322 19.446L17.7322 19.4465C17.6929 19.8358 17.3126 20.1818 16.9091 20.1818H7.45455C7.051 20.1818 6.67071 19.8358 6.63146 19.4465L6.63141 19.446L5.46342 7.63636H8.45455Z"
          fill="#A3A8AF"/>
</svg>
