<svg viewBox="0 0 24 24" fill="none" xmlns="http://www.w3.org/2000/svg">
    <path fill-rule="evenodd" clip-rule="evenodd"
          d="M6.63636 2C4.08408 2 2 4.08408 2 6.63636V8.45455C2 9.00683 2.44772 9.45455 3 9.45455C3.55228 9.45455 4 9.00683 4 8.45455V6.63636C4 5.18865 5.18865 4 6.63636 4H8.36364V6.19854C6.06783 8.41456 4.72727 11.7874 4.72727 14.8182C4.72727 17.1747 5.64949 19.3128 7.06559 20.9312C7.25548 21.1482 7.52981 21.2727 7.81817 21.2727H19.0909C19.3793 21.2727 19.6536 21.1482 19.8435 20.9312C21.2596 19.3128 22.1818 17.1747 22.1818 14.8182C22.1818 11.9352 20.9689 8.74279 18.8745 6.53091L21.0727 3.6C21.3 3.29698 21.3365 2.89157 21.1672 2.55279C20.9978 2.214 20.6515 2 20.2727 2H9.9091H9.36364H6.63636ZM18.2727 4L17.0455 5.63636H10.3636V4H18.2727ZM9.75385 7.63636C7.87124 9.4529 6.72727 12.2958 6.72727 14.8182C6.72727 16.4865 7.32384 18.0335 8.28877 19.2727H18.6203C19.5852 18.0335 20.1818 16.4865 20.1818 14.8182C20.1818 12.2958 19.0379 9.4529 17.1552 7.63636H9.75385Z"
          fill="#A3A8AF"/>
</svg>
