<svg width="24" height="24" viewBox="0 0 24 24" fill="none" xmlns="http://www.w3.org/2000/svg">
    <path d="M5.76626 5.63386C6.19527 5.63386 6.54305 5.28608 6.54305 4.85708C6.54305 4.42807 6.19527 4.08029 5.76626 4.08029C5.33726 4.08029 4.98948 4.42807 4.98948 4.85708C4.98948 5.28608 5.33726 5.63386 5.76626 5.63386Z" fill="#A3A8AF" stroke="#A3A8AF" stroke-width="0.125"/>
    <path d="M7.91308 17.989L7.97451 17.9775L7.91308 17.989C8.04534 18.6942 8.66107 19.2053 9.37865 19.2053H14.6216C15.3391 19.2053 15.9549 18.6942 16.0871 17.989L16.8907 13.7033C17.0627 12.7856 16.3588 11.9374 15.4252 11.9374H14.9191C14.8858 10.3538 13.5916 9.08029 12.0001 9.08029C10.4085 9.08029 9.11435 10.3538 9.08109 11.9374H8.57508C7.64143 11.9374 6.93746 12.7857 7.10952 13.7033L7.91308 17.989ZM9.43052 17.6517L8.65039 13.491H15.3498L14.5697 17.6517H9.43052ZM12.0001 10.6339C12.7336 10.6339 13.3321 11.212 13.3647 11.9374H10.6354C10.6681 11.212 11.2665 10.6339 12.0001 10.6339Z" fill="#A3A8AF" stroke="#A3A8AF" stroke-width="0.125"/>
    <path d="M4.14286 1.9375C2.92488 1.9375 1.9375 2.92488 1.9375 4.14286V19.8571C1.9375 21.0752 2.92488 22.0625 4.14286 22.0625H19.8571C21.0752 22.0625 22.0625 21.0752 22.0625 19.8571V4.14286C22.0625 2.92488 21.0752 1.9375 19.8571 1.9375H4.14286ZM20.5089 4.14286V6.22321H3.49107V4.14286C3.49107 3.78289 3.78289 3.49107 4.14286 3.49107H19.8571C20.2171 3.49107 20.5089 3.78289 20.5089 4.14286ZM3.49107 7.77679H20.5089V19.8571C20.5089 20.2171 20.2171 20.5089 19.8571 20.5089H4.14286C3.78289 20.5089 3.49107 20.2171 3.49107 19.8571V7.77679Z" fill="#A3A8AF" stroke="#A3A8AF" stroke-width="0.125"/>
</svg>
