<svg viewBox="0 0 24 24" fill="none" xmlns="http://www.w3.org/2000/svg">
    <path fill-rule="evenodd" clip-rule="evenodd"
          d="M14.3285 4.73703C16.2609 5.71941 17.5956 7.78969 17.5956 10.1794C17.5956 13.3177 15.2937 15.9052 12.3592 16.2008V18.4052C13.0598 18.6507 13.5662 19.3419 13.5662 20.1547C13.5662 21.1722 12.7729 22 11.7978 22C10.8227 22 10.0293 21.1722 10.0293 20.1547C10.0293 19.8311 10.2807 19.5688 10.5908 19.5688C10.9009 19.5688 11.1522 19.8311 11.1522 20.1547C11.1522 20.5261 11.4418 20.8283 11.7978 20.8283C12.1538 20.8283 12.4434 20.5261 12.4434 20.1547C12.4434 19.7832 12.1538 19.4811 11.7978 19.4811C11.4877 19.4811 11.2364 19.2188 11.2364 18.8952V16.2008C8.30191 15.9052 6 13.3177 6 10.1794C6 7.7898 7.33467 5.71953 9.26691 4.73715C9.26681 4.7345 9.26672 4.73185 9.26663 4.7292C9.26563 4.70059 9.26462 4.67196 9.26462 4.64332C9.26462 3.18578 10.401 2 11.7978 2C13.1946 2 14.331 3.18582 14.331 4.64332C14.331 4.66804 14.3301 4.69274 14.3292 4.71745C14.329 4.72397 14.3287 4.7305 14.3285 4.73703ZM13.1692 4.3009C13.0209 3.6541 12.4625 3.17168 11.7978 3.17168C11.1332 3.17168 10.5748 3.6541 10.4265 4.3009C10.8664 4.18918 11.3255 4.12949 11.7978 4.12949C12.2702 4.12949 12.7293 4.18914 13.1692 4.3009ZM12.3592 14.0803V15.0223C13.2125 14.9152 13.9958 14.5674 14.6446 14.0459L13.9853 13.358C13.766 13.1292 13.766 12.7582 13.9853 12.5295C14.2046 12.3007 14.5601 12.3006 14.7793 12.5295L15.4464 13.2255C15.9776 12.534 16.3324 11.689 16.4388 10.7653H15.5361C15.2261 10.7653 14.9747 10.503 14.9747 10.1794C14.9747 9.85586 15.2261 9.59355 15.5361 9.59355H16.4388C16.335 8.69207 15.9947 7.86539 15.4845 7.18336L14.8167 7.88016C14.7071 7.99453 14.5634 8.05176 14.4197 8.05176C14.2761 8.05176 14.1324 7.99457 14.0228 7.88016C13.8035 7.65137 13.8035 7.28039 14.0228 7.05164L14.6932 6.35211C14.035 5.80875 13.2338 5.44621 12.3592 5.33645V6.2784C12.3592 6.60195 12.1078 6.86426 11.7978 6.86426C11.4877 6.86426 11.2363 6.60195 11.2363 6.2784V5.33645C10.3511 5.44754 9.54127 5.8177 8.87859 6.37207L9.52981 7.0516C9.74907 7.28043 9.74907 7.65137 9.52981 7.88012C9.42024 7.99449 9.27649 8.05172 9.13285 8.05172C8.98921 8.05172 8.84554 7.99453 8.73589 7.88012L8.09239 7.20863C7.59263 7.88578 7.25927 8.70309 7.15666 9.59352H8.05937C8.36944 9.59352 8.62082 9.85582 8.62082 10.1794C8.62082 10.5029 8.36944 10.7652 8.05937 10.7652H7.15666C7.26186 11.6779 7.60929 12.5138 8.13001 13.2007L8.77333 12.5294C8.99262 12.3006 9.34814 12.3005 9.56732 12.5294C9.78658 12.7582 9.78658 13.1291 9.56721 13.3579L8.92651 14.0264C9.58012 14.5588 10.3723 14.9139 11.2363 15.0223V14.0803C11.2363 13.7568 11.4877 13.4945 11.7977 13.4945C12.1078 13.4945 12.3592 13.7568 12.3592 14.0803ZM11.2363 8.16997C11.2363 7.84641 11.4877 7.58411 11.7978 7.58411C12.1078 7.58411 12.3592 7.84641 12.3592 8.16993V10.1794C12.3592 10.503 12.1078 10.7653 11.7978 10.7653C11.4876 10.7653 11.2363 10.503 11.2363 10.1794V8.16997Z"
          fill="#A3A8AF"/>
    <path d="M14.3285 4.73703L14.0787 4.72864L14.0733 4.88774L14.2152 4.95989L14.3285 4.73703ZM12.3592 16.2008L12.3341 15.9521L12.1092 15.9747V16.2008H12.3592ZM12.3592 18.4052H12.1092V18.5825L12.2765 18.6412L12.3592 18.4052ZM11.2364 16.2008H11.4864V15.9747L11.2614 15.9521L11.2364 16.2008ZM9.26691 4.73715L9.38021 4.96L9.52229 4.88776L9.51676 4.72847L9.26691 4.73715ZM9.26663 4.7292L9.51648 4.72045L9.51648 4.72044L9.26663 4.7292ZM14.3292 4.71745L14.579 4.72646L14.579 4.72645L14.3292 4.71745ZM13.1692 4.3009L13.1076 4.5432L13.5044 4.644L13.4129 4.24502L13.1692 4.3009ZM10.4265 4.3009L10.1828 4.24501L10.0913 4.64397L10.488 4.54321L10.4265 4.3009ZM12.3592 15.0223H12.1092V15.3056L12.3903 15.2703L12.3592 15.0223ZM14.6446 14.0459L14.8012 14.2408L15.0139 14.0699L14.8251 13.873L14.6446 14.0459ZM13.9853 13.358L13.8048 13.5309L13.8048 13.531L13.9853 13.358ZM13.9853 12.5295L13.8048 12.3564L13.8048 12.3565L13.9853 12.5295ZM14.7793 12.5295L14.5987 12.7024L14.5988 12.7024L14.7793 12.5295ZM15.4464 13.2255L15.2659 13.3985L15.4673 13.6086L15.6446 13.3778L15.4464 13.2255ZM16.4388 10.7653L16.6872 10.7939L16.7193 10.5153H16.4388V10.7653ZM16.4388 9.59355V9.84355H16.7193L16.6872 9.56494L16.4388 9.59355ZM15.4845 7.18336L15.6847 7.03361L15.508 6.79747L15.304 7.01038L15.4845 7.18336ZM14.8167 7.88016L14.6362 7.70718L14.6362 7.70721L14.8167 7.88016ZM14.0228 7.88016L14.2033 7.70718V7.70718L14.0228 7.88016ZM14.0228 7.05164L14.2033 7.22463L14.2033 7.22462L14.0228 7.05164ZM14.6932 6.35211L14.8737 6.52509L15.0599 6.33071L14.8523 6.15931L14.6932 6.35211ZM12.3592 5.33645L12.3903 5.08839L12.1092 5.05311V5.33645H12.3592ZM11.2363 5.33645H11.4863V5.05311L11.2052 5.08839L11.2363 5.33645ZM8.87859 6.37207L8.71818 6.18032L8.51304 6.35194L8.6981 6.54505L8.87859 6.37207ZM9.52981 7.0516L9.71032 6.87864L9.71031 6.87862L9.52981 7.0516ZM9.52981 7.88012L9.34933 7.70713L9.34929 7.70717L9.52981 7.88012ZM8.73589 7.88012L8.91639 7.70714V7.70714L8.73589 7.88012ZM8.09239 7.20863L8.27288 7.03566L8.0675 6.82135L7.89124 7.06018L8.09239 7.20863ZM7.15666 9.59352L6.90831 9.5649L6.8762 9.84352H7.15666V9.59352ZM7.15666 10.7652V10.5152H6.87619L6.90831 10.7939L7.15666 10.7652ZM8.13001 13.2007L7.93079 13.3517L8.10779 13.5852L8.31051 13.3736L8.13001 13.2007ZM8.77333 12.5294L8.59286 12.3564L8.59283 12.3564L8.77333 12.5294ZM9.56732 12.5294L9.38678 12.7023L9.38682 12.7024L9.56732 12.5294ZM9.56721 13.3579L9.38677 13.1848L9.38671 13.1849L9.56721 13.3579ZM8.92651 14.0264L8.74601 13.8534L8.5585 14.0491L8.76863 14.2202L8.92651 14.0264ZM11.2363 15.0223L11.2052 15.2703L11.4863 15.3056V15.0223H11.2363ZM17.8456 10.1794C17.8456 7.69584 16.4583 5.53931 14.4418 4.51418L14.2152 4.95989C16.0635 5.89952 17.3456 7.88353 17.3456 10.1794H17.8456ZM12.3842 16.4496C15.4536 16.1403 17.8456 13.4388 17.8456 10.1794H17.3456C17.3456 13.1965 15.1338 15.67 12.3341 15.9521L12.3842 16.4496ZM12.6092 18.4052V16.2008H12.1092V18.4052H12.6092ZM13.8162 20.1547C13.8162 19.2377 13.2446 18.4506 12.4419 18.1693L12.2765 18.6412C12.8751 18.8509 13.3162 19.4462 13.3162 20.1547H13.8162ZM11.7978 22.25C12.9209 22.25 13.8162 21.3001 13.8162 20.1547H13.3162C13.3162 21.0443 12.6249 21.75 11.7978 21.75V22.25ZM9.77934 20.1547C9.77934 21.3002 10.6747 22.25 11.7978 22.25V21.75C10.9707 21.75 10.2793 21.0443 10.2793 20.1547H9.77934ZM10.5908 19.3188C10.1327 19.3188 9.77934 19.7032 9.77934 20.1547H10.2793C10.2793 19.9591 10.4287 19.8188 10.5908 19.8188V19.3188ZM11.4022 20.1547C11.4022 19.7032 11.0489 19.3188 10.5908 19.3188V19.8188C10.7529 19.8188 10.9022 19.9591 10.9022 20.1547H11.4022ZM11.7978 20.5783C11.5898 20.5783 11.4022 20.3982 11.4022 20.1547H10.9022C10.9022 20.6541 11.2938 21.0783 11.7978 21.0783V20.5783ZM12.1934 20.1547C12.1934 20.3982 12.0058 20.5783 11.7978 20.5783V21.0783C12.3018 21.0783 12.6934 20.6541 12.6934 20.1547H12.1934ZM11.7978 19.7311C12.0058 19.7311 12.1934 19.9112 12.1934 20.1547H12.6934C12.6934 19.6553 12.3018 19.2311 11.7978 19.2311V19.7311ZM10.9864 18.8952C10.9864 19.3467 11.3397 19.7311 11.7978 19.7311V19.2311C11.6357 19.2311 11.4864 19.0908 11.4864 18.8952H10.9864ZM10.9864 16.2008V18.8952H11.4864V16.2008H10.9864ZM5.75 10.1794C5.75 13.4388 8.14204 16.1403 11.2113 16.4496L11.2614 15.9521C8.46178 15.67 6.25 13.1965 6.25 10.1794H5.75ZM9.15361 4.5143C7.13727 5.53944 5.75 7.69597 5.75 10.1794H6.25C6.25 7.88364 7.53206 5.89963 9.38021 4.96L9.15361 4.5143ZM9.01678 4.73795C9.01688 4.74061 9.01697 4.74322 9.01706 4.74583L9.51676 4.72847C9.51666 4.72578 9.51657 4.7231 9.51648 4.72045L9.01678 4.73795ZM9.01462 4.64332C9.01462 4.67707 9.01581 4.71008 9.01678 4.73796L9.51648 4.72044C9.51545 4.69111 9.51462 4.66685 9.51462 4.64332H9.01462ZM11.7978 1.75C10.253 1.75 9.01462 3.05784 9.01462 4.64332H9.51462C9.51462 3.31372 10.549 2.25 11.7978 2.25V1.75ZM14.581 4.64332C14.581 3.05789 13.3426 1.75 11.7978 1.75V2.25C13.0466 2.25 14.081 3.31375 14.081 4.64332H14.581ZM14.579 4.72645C14.5799 4.70249 14.581 4.67329 14.581 4.64332H14.081C14.081 4.66279 14.0803 4.68298 14.0794 4.70844L14.579 4.72645ZM14.5784 4.74542C14.5786 4.73926 14.5788 4.73304 14.579 4.72646L14.0794 4.70843C14.0791 4.71491 14.0789 4.72175 14.0787 4.72864L14.5784 4.74542ZM11.7978 3.42168C12.3362 3.42168 12.801 3.81383 12.9255 4.35678L13.4129 4.24502C13.2407 3.49437 12.5888 2.92168 11.7978 2.92168V3.42168ZM10.6702 4.35679C10.7947 3.81382 11.2595 3.42168 11.7978 3.42168V2.92168C11.0069 2.92168 10.355 3.49438 10.1828 4.24501L10.6702 4.35679ZM11.7978 3.87949C11.3044 3.87949 10.8245 3.94187 10.3649 4.05859L10.488 4.54321C10.9082 4.43649 11.3467 4.37949 11.7978 4.37949V3.87949ZM13.2308 4.0586C12.7712 3.94182 12.2913 3.87949 11.7978 3.87949V4.37949C12.249 4.37949 12.6875 4.43646 13.1076 4.5432L13.2308 4.0586ZM12.6092 15.0223V14.0803H12.1092V15.0223H12.6092ZM14.488 13.8511C13.8735 14.3449 13.1332 14.6732 12.3281 14.7742L12.3903 15.2703C13.2918 15.1572 14.118 14.7898 14.8012 14.2408L14.488 13.8511ZM13.8048 13.531L14.4641 14.2189L14.8251 13.873L14.1658 13.185L13.8048 13.531ZM13.8048 12.3565C13.4929 12.682 13.4929 13.2055 13.8048 13.5309L14.1658 13.185C14.0392 13.0529 14.0392 12.8345 14.1658 12.7024L13.8048 12.3565ZM14.9598 12.3565C14.6421 12.0249 14.1225 12.0251 13.8048 12.3564L14.1657 12.7025C14.2867 12.5763 14.478 12.5764 14.5987 12.7024L14.9598 12.3565ZM15.6269 13.0525L14.9598 12.3565L14.5988 12.7024L15.2659 13.3985L15.6269 13.0525ZM16.1905 10.7366C16.0893 11.6146 15.7522 12.4171 15.2481 13.0732L15.6446 13.3778C16.203 12.651 16.5755 11.7633 16.6872 10.7939L16.1905 10.7366ZM15.5361 11.0153H16.4388V10.5153H15.5361V11.0153ZM14.7247 10.1794C14.7247 10.6309 15.0781 11.0153 15.5361 11.0153V10.5153C15.374 10.5153 15.2247 10.375 15.2247 10.1794H14.7247ZM15.5361 9.34355C15.0781 9.34355 14.7247 9.72792 14.7247 10.1794H15.2247C15.2247 9.9838 15.374 9.84355 15.5361 9.84355V9.34355ZM16.4388 9.34355H15.5361V9.84355H16.4388V9.34355ZM15.2843 7.33311C15.7684 7.98029 16.0917 8.7653 16.1905 9.62217L16.6872 9.56494C16.5782 8.61885 16.2209 7.7505 15.6847 7.03361L15.2843 7.33311ZM14.9972 8.05313L15.665 7.35634L15.304 7.01038L14.6362 7.70718L14.9972 8.05313ZM14.4197 8.30176C14.6304 8.30176 14.8397 8.2175 14.9972 8.0531L14.6362 7.70721C14.5745 7.77156 14.4963 7.80176 14.4197 7.80176V8.30176ZM13.8423 8.05313C13.9998 8.21753 14.2091 8.30176 14.4197 8.30176V7.80176C14.3432 7.80176 14.265 7.77161 14.2033 7.70718L13.8423 8.05313ZM13.8423 6.87865C13.5303 7.20411 13.5304 7.72765 13.8423 8.05313L14.2033 7.70718C14.0767 7.57508 14.0767 7.35667 14.2033 7.22463L13.8423 6.87865ZM14.5127 6.17913L13.8423 6.87866L14.2033 7.22462L14.8737 6.52509L14.5127 6.17913ZM12.3281 5.5845C13.1534 5.68807 13.9106 6.03024 14.534 6.54491L14.8523 6.15931C14.1594 5.58727 13.3143 5.20435 12.3903 5.08839L12.3281 5.5845ZM12.6092 6.2784V5.33645H12.1092V6.2784H12.6092ZM11.7978 7.11426C12.2558 7.11426 12.6092 6.72989 12.6092 6.2784H12.1092C12.1092 6.47402 11.9598 6.61426 11.7978 6.61426V7.11426ZM10.9863 6.2784C10.9863 6.72989 11.3397 7.11426 11.7978 7.11426V6.61426C11.6357 6.61426 11.4863 6.47402 11.4863 6.2784H10.9863ZM10.9863 5.33645V6.2784H11.4863V5.33645H10.9863ZM9.03901 6.56382C9.66675 6.03866 10.4322 5.68932 11.2674 5.5845L11.2052 5.08839C10.27 5.20576 9.41578 5.59673 8.71818 6.18032L9.03901 6.56382ZM9.71031 6.87862L9.05909 6.19909L8.6981 6.54505L9.34931 7.22458L9.71031 6.87862ZM9.71029 8.05311C10.0223 7.72764 10.0222 7.20415 9.71032 6.87864L9.3493 7.22456C9.47592 7.35671 9.47588 7.5751 9.34933 7.70713L9.71029 8.05311ZM9.13285 8.30172C9.34353 8.30172 9.55284 8.21746 9.71034 8.05306L9.34929 7.70717C9.28764 7.77152 9.20945 7.80172 9.13285 7.80172V8.30172ZM8.55539 8.05309C8.71294 8.21749 8.92216 8.30172 9.13285 8.30172V7.80172C9.05627 7.80172 8.97813 7.77157 8.91639 7.70714L8.55539 8.05309ZM7.91189 7.38161L8.55539 8.05309L8.91639 7.70714L8.27288 7.03566L7.91189 7.38161ZM7.40502 9.62213C7.50255 8.77579 7.81929 7.99967 8.29354 7.35709L7.89124 7.06018C7.36597 7.77189 7.016 8.63038 6.90831 9.5649L7.40502 9.62213ZM8.05937 9.34352H7.15666V9.84352H8.05937V9.34352ZM8.87082 10.1794C8.87082 9.72788 8.51743 9.34352 8.05937 9.34352V9.84352C8.22145 9.84352 8.37082 9.98376 8.37082 10.1794H8.87082ZM8.05937 11.0152C8.51743 11.0152 8.87082 10.6309 8.87082 10.1794H8.37082C8.37082 10.375 8.22145 10.5152 8.05937 10.5152V11.0152ZM7.15666 11.0152H8.05937V10.5152H7.15666V11.0152ZM8.32923 13.0496C7.83513 12.3979 7.50501 11.6041 7.40502 10.7366L6.90831 10.7939C7.0187 11.7516 7.38345 12.6297 7.93079 13.3517L8.32923 13.0496ZM8.59283 12.3564L7.94951 13.0277L8.31051 13.3736L8.95382 12.7024L8.59283 12.3564ZM9.74786 12.3564C9.43019 12.0248 8.9105 12.025 8.59286 12.3564L8.95379 12.7024C9.07474 12.5762 9.26609 12.5763 9.38678 12.7023L9.74786 12.3564ZM9.74765 13.5309C10.0598 13.2054 10.0597 12.6819 9.74782 12.3564L9.38682 12.7024C9.51341 12.8344 9.51339 13.0528 9.38677 13.1848L9.74765 13.5309ZM9.10701 14.1994L9.74771 13.5308L9.38671 13.1849L8.74601 13.8534L9.10701 14.1994ZM11.2674 14.7742C10.4522 14.6719 9.70346 14.3368 9.0844 13.8326L8.76863 14.2202C9.45679 14.7808 10.2925 15.1558 11.2052 15.2703L11.2674 14.7742ZM10.9863 14.0803V15.0223H11.4863V14.0803H10.9863ZM11.7977 13.2445C11.3397 13.2445 10.9863 13.6288 10.9863 14.0803H11.4863C11.4863 13.8847 11.6356 13.7445 11.7977 13.7445V13.2445ZM12.6092 14.0803C12.6092 13.6288 12.2558 13.2445 11.7977 13.2445V13.7445C11.9598 13.7445 12.1092 13.8847 12.1092 14.0803H12.6092ZM11.7978 7.33411C11.3397 7.33411 10.9863 7.71847 10.9863 8.16997H11.4863C11.4863 7.97435 11.6357 7.83411 11.7978 7.83411V7.33411ZM12.6092 8.16993C12.6092 7.71846 12.2558 7.33411 11.7978 7.33411V7.83411C11.9599 7.83411 12.1092 7.97436 12.1092 8.16993H12.6092ZM12.6092 10.1794V8.16993H12.1092V10.1794H12.6092ZM11.7978 11.0153C12.2558 11.0153 12.6092 10.6309 12.6092 10.1794H12.1092C12.1092 10.375 11.9598 10.5153 11.7978 10.5153V11.0153ZM10.9863 10.1794C10.9863 10.6309 11.3396 11.0153 11.7978 11.0153V10.5153C11.6356 10.5153 11.4863 10.375 11.4863 10.1794H10.9863ZM10.9863 8.16997V10.1794H11.4863V8.16997H10.9863Z"
          fill="#A3A8AF"/>
</svg>
