<svg viewBox="0 0 24 24" fill="none" xmlns="http://www.w3.org/2000/svg">
    <path fill-rule="evenodd" clip-rule="evenodd"
          d="M21.4114 19.457L16.8303 8.57543L16.8256 8.56457C16.597 8.05074 16.0858 7.71871 15.5234 7.71871H14.3431C14.8859 7.11125 15.2164 6.31031 15.2164 5.43348C15.2164 3.54023 13.6762 2 11.783 2C9.88976 2 8.34957 3.54023 8.34957 5.43344C8.34957 6.31027 8.68011 7.11125 9.22289 7.71867H8.04265C7.48023 7.71867 6.96902 8.0507 6.74039 8.56461L2.15468 19.457C1.90726 20.0184 1.95894 20.6602 2.29335 21.175C2.62894 21.6916 3.19706 22 3.81308 22H19.753C20.369 22 20.9371 21.6916 21.2727 21.175C21.6071 20.6602 21.6588 20.0184 21.4114 19.457ZM11.783 3.17172C13.0301 3.17172 14.0447 4.18633 14.0447 5.43344C14.0447 6.68059 13.0301 7.6952 11.783 7.6952C10.5359 7.6952 9.52128 6.68059 9.52128 5.43344C9.52128 4.18633 10.5359 3.17172 11.783 3.17172ZM20.2901 20.5367C20.1697 20.722 19.9739 20.8283 19.753 20.8283H3.81304C3.5921 20.8283 3.39628 20.722 3.27593 20.5367C3.15554 20.3514 3.138 20.1293 3.22789 19.9274L7.81273 9.03703C7.85425 8.94781 7.94402 8.89039 8.04265 8.89039H15.5233C15.622 8.89039 15.7118 8.94785 15.7533 9.03715L20.3334 19.9166L20.3381 19.9274C20.428 20.1293 20.4105 20.3514 20.2901 20.5367ZM11.7965 17.4458L9.98184 14.682L11.4719 12.8174C11.5163 12.7619 11.5385 12.6925 11.5385 12.6092C11.5385 12.476 11.4691 12.3499 11.3304 12.2305C11.1916 12.1112 11.0529 12.0515 10.9142 12.0515C10.792 12.0515 10.6922 12.1043 10.6145 12.2097L8.81645 14.657V12.3845C8.81645 12.2735 8.7636 12.1903 8.65829 12.1347C8.55282 12.0793 8.4252 12.0515 8.27536 12.0515C8.12547 12.0515 7.99782 12.0793 7.89243 12.1347C7.78692 12.1903 7.73426 12.2735 7.73426 12.3845V17.7953C7.73426 17.9008 7.78696 17.984 7.89243 18.045C7.99778 18.1062 8.12547 18.1366 8.27536 18.1366C8.41961 18.1366 8.5459 18.1062 8.65411 18.045C8.76235 17.984 8.81641 17.9008 8.81641 17.7953V16.1637L9.2659 15.5977L10.8309 17.9701C10.9141 18.1089 11.039 18.1782 11.2055 18.1782C11.3664 18.1782 11.5148 18.1214 11.6509 18.0076C11.7868 17.8939 11.8548 17.7704 11.8548 17.6372C11.8548 17.5651 11.8353 17.5013 11.7965 17.4458ZM14.2936 14.94H15.7086C15.8141 14.94 15.8973 14.9748 15.9584 15.0441C16.0194 15.1136 16.05 15.1953 16.05 15.2896V16.2803C16.05 16.9407 15.8723 17.4236 15.5172 17.7287C15.1621 18.034 14.6875 18.1866 14.0938 18.1866C13.4999 18.1866 13.0268 18.034 12.6745 17.7287C12.322 17.4236 12.1459 16.9408 12.1459 16.2803V13.9577C12.1459 13.303 12.322 12.8215 12.6745 12.5135C13.0268 12.2055 13.4888 12.0514 14.0605 12.0514C14.6487 12.0514 15.1273 12.1959 15.4964 12.4843C15.8655 12.7729 16.05 13.1615 16.05 13.6497C16.05 13.8495 16.0069 13.9855 15.921 14.0576C15.8348 14.1298 15.6975 14.1659 15.5089 14.1659C15.1537 14.1659 14.9733 14.0521 14.9678 13.8245C14.9511 13.5804 14.8817 13.3821 14.7597 13.2293C14.6375 13.0768 14.4184 13.0004 14.1021 13.0004C13.5194 13.0004 13.228 13.3196 13.228 13.9577V16.2803C13.228 16.9185 13.5165 17.2376 14.0937 17.2376C14.3712 17.2376 14.5862 17.1572 14.7389 16.9962C14.8914 16.8353 14.9678 16.5966 14.9678 16.2803V15.7891H14.2935C14.188 15.7891 14.1062 15.7475 14.0479 15.6643C13.9897 15.581 13.9605 15.4812 13.9605 15.3646C13.9605 15.2537 13.991 15.1552 14.0521 15.0691C14.1132 14.9831 14.1936 14.94 14.2936 14.94Z"
          fill="#A3A8AF"/>
    <path d="M16.8303 8.57543L17.0608 8.47842L17.0596 8.47566L16.8303 8.57543ZM21.4114 19.457L21.1809 19.554L21.1826 19.5579L21.4114 19.457ZM16.8256 8.56457L17.0549 8.4648L17.054 8.46294L16.8256 8.56457ZM14.3431 7.71871L14.1567 7.55214L13.7845 7.96871H14.3431V7.71871ZM9.22289 7.71867V7.96867H9.78155L9.4093 7.55209L9.22289 7.71867ZM6.74039 8.56461L6.51192 8.46297L6.50997 8.46761L6.74039 8.56461ZM2.15468 19.457L2.38348 19.5579L2.3851 19.554L2.15468 19.457ZM2.29335 21.175L2.0837 21.3111L2.0837 21.3111L2.29335 21.175ZM21.2727 21.175L21.0631 21.0388L21.0631 21.0388L21.2727 21.175ZM20.2901 20.5367L20.4998 20.6729L20.4998 20.6729L20.2901 20.5367ZM3.27593 20.5367L3.4856 20.4006L3.48558 20.4005L3.27593 20.5367ZM3.22789 19.9274L3.45632 20.0291L3.4583 20.0244L3.22789 19.9274ZM7.81273 9.03703L7.58592 8.93147L7.58232 8.94003L7.81273 9.03703ZM15.7533 9.03715L15.9839 8.94008L15.98 8.93174L15.7533 9.03715ZM20.3334 19.9166L20.103 20.0136L20.104 20.016L20.3334 19.9166ZM20.3381 19.9274L20.1087 20.0268L20.1097 20.0291L20.3381 19.9274ZM9.98184 14.682L9.78654 14.5259L9.67332 14.6676L9.77286 14.8192L9.98184 14.682ZM11.7965 17.4458L11.5875 17.583L11.5915 17.5889L11.7965 17.4458ZM11.4719 12.8174L11.2767 12.6612L11.2766 12.6613L11.4719 12.8174ZM11.3304 12.2305L11.4935 12.041L11.4934 12.0409L11.3304 12.2305ZM10.6145 12.2097L10.4133 12.0613L10.413 12.0616L10.6145 12.2097ZM8.81645 14.657H8.56645V15.4196L9.01792 14.8051L8.81645 14.657ZM8.65829 12.1347L8.77492 11.9136L8.77453 11.9134L8.65829 12.1347ZM7.89243 12.1347L7.77612 11.9134L7.77596 11.9135L7.89243 12.1347ZM7.89243 18.045L8.0179 17.8288L8.01762 17.8287L7.89243 18.045ZM8.65411 18.045L8.53134 17.8273L8.53113 17.8274L8.65411 18.045ZM8.81641 16.1637L8.62063 16.0083L8.56641 16.0765V16.1637H8.81641ZM9.2659 15.5977L9.47459 15.46L9.28464 15.1721L9.07012 15.4422L9.2659 15.5977ZM10.8309 17.9701L11.0455 17.8414L11.0396 17.8325L10.8309 17.9701ZM11.6509 18.0076L11.8112 18.1994L11.8113 18.1993L11.6509 18.0076ZM15.9584 15.0441L16.1462 14.8791L16.146 14.8788L15.9584 15.0441ZM15.5172 17.7287L15.3543 17.5391L15.3543 17.5391L15.5172 17.7287ZM12.6745 17.7287L12.8382 17.5398L12.8381 17.5397L12.6745 17.7287ZM12.6745 12.5135L12.839 12.7017L12.839 12.7017L12.6745 12.5135ZM15.4964 12.4843L15.6504 12.2874L15.6504 12.2873L15.4964 12.4843ZM15.921 14.0576L16.0816 14.2492L16.0816 14.2492L15.921 14.0576ZM14.9678 13.8245L15.218 13.8185L15.2172 13.8075L14.9678 13.8245ZM14.7597 13.2293L14.955 13.0733L14.9548 13.0731L14.7597 13.2293ZM14.7389 16.9962L14.9203 17.1682L14.9203 17.1682L14.7389 16.9962ZM14.9678 15.7891H15.2178V15.5391H14.9678V15.7891ZM14.0479 15.6643L13.8431 15.8076L13.8431 15.8076L14.0479 15.6643ZM14.0521 15.0691L13.8483 14.9244L13.8482 14.9245L14.0521 15.0691ZM16.5999 8.67243L21.181 19.554L21.6418 19.36L17.0608 8.47843L16.5999 8.67243ZM16.5964 8.66434L16.6011 8.6752L17.0596 8.47566L17.0549 8.4648L16.5964 8.66434ZM15.5234 7.96871C15.987 7.96871 16.4087 8.24262 16.5972 8.6662L17.054 8.46294C16.7852 7.85887 16.1845 7.46871 15.5234 7.46871V7.96871ZM14.3431 7.96871H15.5234V7.46871H14.3431V7.96871ZM14.9664 5.43348C14.9664 6.24628 14.6603 6.98854 14.1567 7.55214L14.5295 7.88528C15.1115 7.23396 15.4664 6.37435 15.4664 5.43348H14.9664ZM11.783 2.25C13.5382 2.25 14.9664 3.6783 14.9664 5.43348H15.4664C15.4664 3.40217 13.8143 1.75 11.783 1.75V2.25ZM8.59957 5.43344C8.59957 3.6783 10.0278 2.25 11.783 2.25V1.75C9.75169 1.75 8.09957 3.40217 8.09957 5.43344H8.59957ZM9.4093 7.55209C8.90573 6.98854 8.59957 6.24624 8.59957 5.43344H8.09957C8.09957 6.37431 8.4545 7.23396 9.03647 7.88525L9.4093 7.55209ZM8.04265 7.96867H9.22289V7.46867H8.04265V7.96867ZM6.9688 8.66623C7.15728 8.24257 7.57898 7.96867 8.04265 7.96867V7.46867C7.38148 7.46867 6.78075 7.85884 6.51197 8.46299L6.9688 8.66623ZM2.3851 19.554L6.9708 8.66161L6.50997 8.46761L1.92427 19.36L2.3851 19.554ZM2.503 21.0388C2.21453 20.5947 2.17004 20.0421 2.38345 19.5579L1.92591 19.3562C1.64448 19.9948 1.70335 20.7256 2.0837 21.3111L2.503 21.0388ZM3.81308 21.75C3.28172 21.75 2.79248 21.4844 2.503 21.0388L2.0837 21.3111C2.4654 21.8987 3.11241 22.25 3.81308 22.25V21.75ZM19.753 21.75H3.81308V22.25H19.753V21.75ZM21.0631 21.0388C20.7736 21.4844 20.2844 21.75 19.753 21.75V22.25C20.4537 22.25 21.1007 21.8988 21.4824 21.3111L21.0631 21.0388ZM21.1826 19.5579C21.396 20.0421 21.3515 20.5947 21.0631 21.0388L21.4824 21.3111C21.8627 20.7256 21.9216 19.9948 21.6401 19.3562L21.1826 19.5579ZM14.2947 5.43344C14.2947 4.04826 13.1682 2.92172 11.783 2.92172V3.42172C12.892 3.42172 13.7947 4.3244 13.7947 5.43344H14.2947ZM11.783 7.9452C13.1681 7.9452 14.2947 6.81866 14.2947 5.43344H13.7947C13.7947 6.54251 12.892 7.4452 11.783 7.4452V7.9452ZM9.27128 5.43344C9.27128 6.81866 10.3979 7.9452 11.783 7.9452V7.4452C10.674 7.4452 9.77128 6.54251 9.77128 5.43344H9.27128ZM11.783 2.92172C10.3979 2.92172 9.27128 4.04825 9.27128 5.43344H9.77128C9.77128 4.3244 10.674 3.42172 11.783 3.42172V2.92172ZM19.753 21.0783C20.0586 21.0783 20.3333 20.9292 20.4998 20.6729L20.0805 20.4005C20.0062 20.5149 19.8893 20.5783 19.753 20.5783V21.0783ZM3.81304 21.0783H19.753V20.5783H3.81304V21.0783ZM3.06627 20.6729C3.23274 20.9292 3.50747 21.0783 3.81304 21.0783V20.5783C3.67674 20.5783 3.55983 20.5149 3.4856 20.4006L3.06627 20.6729ZM2.9995 19.8257C2.87516 20.105 2.89979 20.4166 3.06629 20.6729L3.48558 20.4005C3.41129 20.2862 3.40084 20.1536 3.45627 20.0291L2.9995 19.8257ZM7.58232 8.94003L2.99747 19.8304L3.4583 20.0244L8.04314 9.13404L7.58232 8.94003ZM8.04265 8.64039C7.84659 8.64039 7.66853 8.75436 7.58607 8.93154L8.03938 9.14252C8.03997 9.14126 8.04145 9.14039 8.04265 9.14039V8.64039ZM15.5233 8.64039H8.04265V9.14039H15.5233V8.64039ZM15.98 8.93174C15.8976 8.75445 15.7195 8.64039 15.5233 8.64039V9.14039C15.5245 9.14039 15.526 9.14126 15.5266 9.14256L15.98 8.93174ZM20.5638 19.8196L15.9837 8.94015L15.5229 9.13415L20.103 20.0136L20.5638 19.8196ZM20.5675 19.828L20.5628 19.8172L20.104 20.016L20.1087 20.0268L20.5675 19.828ZM20.4998 20.6729C20.6662 20.4166 20.6908 20.105 20.5665 19.8257L20.1097 20.0291C20.1652 20.1536 20.1547 20.2862 20.0804 20.4006L20.4998 20.6729ZM9.77286 14.8192L11.5875 17.583L12.0055 17.3085L10.1908 14.5448L9.77286 14.8192ZM11.2766 12.6613L9.78654 14.5259L10.1771 14.8381L11.6672 12.9734L11.2766 12.6613ZM11.2885 12.6092C11.2885 12.6458 11.2797 12.6574 11.2767 12.6612L11.6671 12.9735C11.7528 12.8665 11.7885 12.7391 11.7885 12.6092H11.2885ZM11.1673 12.4199C11.2726 12.5106 11.2885 12.5733 11.2885 12.6092H11.7885C11.7885 12.3787 11.6656 12.1892 11.4935 12.041L11.1673 12.4199ZM10.9142 12.3015C10.9761 12.3015 11.0593 12.3271 11.1674 12.4201L11.4934 12.0409C11.324 11.8953 11.1296 11.8015 10.9142 11.8015V12.3015ZM10.8157 12.358C10.8503 12.3111 10.8781 12.3015 10.9142 12.3015V11.8015C10.706 11.8015 10.534 11.8975 10.4133 12.0613L10.8157 12.358ZM9.01792 14.8051L10.816 12.3577L10.413 12.0616L8.61498 14.509L9.01792 14.8051ZM8.56645 12.3845V14.657H9.06645V12.3845H8.56645ZM8.54165 12.3559C8.56381 12.3675 8.56713 12.3749 8.5657 12.3726C8.56524 12.3719 8.56513 12.3714 8.56531 12.372C8.56554 12.3729 8.56645 12.3766 8.56645 12.3845H9.06645C9.06645 12.2876 9.04283 12.1915 8.98802 12.105C8.93384 12.0195 8.85807 11.9575 8.77492 11.9136L8.54165 12.3559ZM8.27536 12.3015C8.39468 12.3015 8.48033 12.3237 8.54205 12.3561L8.77453 11.9134C8.6253 11.835 8.45572 11.8015 8.27536 11.8015V12.3015ZM8.00874 12.356C8.07031 12.3237 8.15595 12.3015 8.27536 12.3015V11.8015C8.095 11.8015 7.92533 11.835 7.77612 11.9134L8.00874 12.356ZM7.98426 12.3845C7.98426 12.3766 7.98518 12.3728 7.98542 12.3719C7.9856 12.3712 7.98549 12.3718 7.985 12.3726C7.98351 12.3749 7.98674 12.3676 8.00889 12.3559L7.77596 11.9135C7.69261 11.9574 7.61675 12.0195 7.56256 12.1051C7.50776 12.1916 7.48426 12.2878 7.48426 12.3845H7.98426ZM7.98426 17.7953V12.3845H7.48426V17.7953H7.98426ZM8.01762 17.8287C7.99166 17.8136 7.98525 17.8035 7.985 17.8031C7.98482 17.8028 7.98482 17.8028 7.98489 17.8029C7.98495 17.8031 7.98497 17.8032 7.98493 17.803C7.98491 17.8029 7.98426 17.8007 7.98426 17.7953H7.48426C7.48426 18.0054 7.59881 18.164 7.76724 18.2614L8.01762 17.8287ZM8.27536 17.8866C8.15923 17.8866 8.07711 17.8632 8.0179 17.8288L7.76695 18.2613C7.91845 18.3492 8.09172 18.3866 8.27536 18.3866V17.8866ZM8.53113 17.8274C8.46626 17.864 8.38372 17.8866 8.27536 17.8866V18.3866C8.45551 18.3866 8.62555 18.3483 8.77708 18.2627L8.53113 17.8274ZM8.56641 17.7953C8.56641 17.8001 8.56583 17.8018 8.56595 17.8014C8.5661 17.8009 8.56638 17.8004 8.56622 17.8006C8.56597 17.801 8.559 17.8117 8.53134 17.8273L8.77687 18.2628C8.9471 18.1669 9.06641 18.0086 9.06641 17.7953H8.56641ZM8.56641 16.1637V17.7953H9.06641V16.1637H8.56641ZM9.07012 15.4422L8.62063 16.0083L9.01219 16.3192L9.46168 15.7531L9.07012 15.4422ZM11.0396 17.8325L9.47459 15.46L9.05722 15.7353L10.6222 18.1078L11.0396 17.8325ZM11.2055 17.9282C11.1236 17.9282 11.0817 17.9023 11.0453 17.8415L10.6165 18.0987C10.7466 18.3155 10.9544 18.4282 11.2055 18.4282V17.9282ZM11.4905 17.8158C11.3945 17.8961 11.3017 17.9282 11.2055 17.9282V18.4282C11.4311 18.4282 11.6351 18.3467 11.8112 18.1994L11.4905 17.8158ZM11.6048 17.6372C11.6048 17.6737 11.5896 17.7329 11.4905 17.8158L11.8113 18.1993C11.984 18.0549 12.1048 17.867 12.1048 17.6372H11.6048ZM11.5915 17.5889C11.5992 17.5999 11.6048 17.6132 11.6048 17.6372H12.1048C12.1048 17.5171 12.0713 17.4026 12.0015 17.3026L11.5915 17.5889ZM15.7086 14.69H14.2936V15.19H15.7086V14.69ZM16.146 14.8788C16.0305 14.7478 15.8748 14.69 15.7086 14.69V15.19C15.7534 15.19 15.7641 15.2017 15.7708 15.2094L16.146 14.8788ZM16.3 15.2896C16.3 15.1358 16.248 14.995 16.1462 14.8791L15.7706 15.2091C15.7908 15.2321 15.8 15.2549 15.8 15.2896H16.3ZM16.3 16.2803V15.2896H15.8V16.2803H16.3ZM15.6802 17.9183C16.1103 17.5486 16.3 16.9826 16.3 16.2803H15.8C15.8 16.8988 15.6343 17.2985 15.3543 17.5391L15.6802 17.9183ZM14.0938 18.4366C14.7308 18.4366 15.2686 18.2721 15.6802 17.9183L15.3543 17.5391C15.0556 17.7959 14.6442 17.9366 14.0938 17.9366V18.4366ZM12.5108 17.9177C12.9199 18.2721 13.4567 18.4366 14.0938 18.4366V17.9366C13.5431 17.9366 13.1337 17.7958 12.8382 17.5398L12.5108 17.9177ZM11.8959 16.2803C11.8959 16.982 12.0836 17.5478 12.5109 17.9177L12.8381 17.5397C12.5604 17.2993 12.3959 16.8995 12.3959 16.2803H11.8959ZM11.8959 13.9577V16.2803H12.3959V13.9577H11.8959ZM12.51 12.3252C12.0841 12.6974 11.8959 13.2607 11.8959 13.9577H12.3959C12.3959 13.3452 12.5599 12.9456 12.839 12.7017L12.51 12.3252ZM14.0605 11.8014C13.4423 11.8014 12.9173 11.9691 12.5099 12.3253L12.839 12.7017C13.1362 12.4418 13.5354 12.3014 14.0605 12.3014V11.8014ZM15.6504 12.2873C15.2271 11.9566 14.69 11.8014 14.0605 11.8014V12.3014C14.6073 12.3014 15.0275 12.4351 15.3425 12.6813L15.6504 12.2873ZM16.3 13.6497C16.3 13.0883 16.083 12.6257 15.6504 12.2874L15.3424 12.6813C15.648 12.9202 15.8 13.2346 15.8 13.6497H16.3ZM16.0816 14.2492C16.2557 14.1033 16.3 13.8691 16.3 13.6497H15.8C15.8 13.7334 15.7908 13.7901 15.7794 13.8261C15.7684 13.861 15.7582 13.8678 15.7604 13.866L16.0816 14.2492ZM15.5089 14.4159C15.7195 14.4159 15.9286 14.3774 16.0816 14.2492L15.7604 13.866C15.7411 13.8822 15.6754 13.9159 15.5089 13.9159V14.4159ZM14.7179 13.8305C14.7225 14.0213 14.8073 14.187 14.9738 14.292C15.1224 14.3857 15.3122 14.4159 15.5089 14.4159V13.9159C15.3504 13.9159 15.2723 13.8891 15.2406 13.8691C15.228 13.8612 15.2251 13.8559 15.2243 13.8543C15.223 13.8521 15.2183 13.8425 15.2177 13.8185L14.7179 13.8305ZM14.5644 13.3854C14.6475 13.4894 14.7043 13.6354 14.7184 13.8416L15.2172 13.8075C15.198 13.5253 15.1159 13.2747 14.955 13.0733L14.5644 13.3854ZM14.1021 13.2504C14.389 13.2504 14.5128 13.321 14.5645 13.3856L14.9548 13.0731C14.7623 12.8326 14.4478 12.7504 14.1021 12.7504V13.2504ZM13.478 13.9577C13.478 13.6719 13.5437 13.5041 13.6312 13.4084C13.7146 13.3169 13.8554 13.2504 14.1021 13.2504V12.7504C13.766 12.7504 13.4698 12.8435 13.2619 13.0712C13.0579 13.2946 12.978 13.6055 12.978 13.9577H13.478ZM13.478 16.2803V13.9577H12.978V16.2803H13.478ZM14.0937 16.9876C13.8505 16.9876 13.7121 16.9215 13.6298 16.8306C13.5433 16.7349 13.478 16.5667 13.478 16.2803H12.978C12.978 16.632 13.057 16.9426 13.259 17.1659C13.4653 17.3941 13.7598 17.4876 14.0937 17.4876V16.9876ZM14.5575 16.8241C14.4633 16.9235 14.3209 16.9876 14.0937 16.9876V17.4876C14.4214 17.4876 14.7091 17.3909 14.9203 17.1682L14.5575 16.8241ZM14.7178 16.2803C14.7178 16.5598 14.6503 16.7263 14.5575 16.8242L14.9203 17.1682C15.1326 16.9442 15.2178 16.6334 15.2178 16.2803H14.7178ZM14.7178 15.7891V16.2803H15.2178V15.7891H14.7178ZM14.2935 16.0391H14.9678V15.5391H14.2935V16.0391ZM13.8431 15.8076C13.9502 15.9606 14.1101 16.0391 14.2935 16.0391V15.5391C14.2743 15.5391 14.2673 15.5356 14.2664 15.5351C14.2658 15.5348 14.2609 15.5326 14.2527 15.5209L13.8431 15.8076ZM13.7105 15.3646C13.7105 15.5247 13.7513 15.6764 13.8431 15.8076L14.2528 15.5209C14.2281 15.4856 14.2105 15.4376 14.2105 15.3646H13.7105ZM13.8482 14.9245C13.7555 15.0551 13.7105 15.2047 13.7105 15.3646H14.2105C14.2105 15.3026 14.2265 15.2553 14.256 15.2137L13.8482 14.9245ZM14.2936 14.69C14.1073 14.69 13.953 14.7768 13.8483 14.9244L14.2559 15.2138C14.2676 15.1975 14.275 15.1934 14.2761 15.1928C14.2768 15.1924 14.2808 15.19 14.2936 15.19V14.69Z"
          fill="#A3A8AF"/>
</svg>
