<svg width="18" height="18" viewBox="0 0 18 18" fill="none" xmlns="http://www.w3.org/2000/svg">
<path d="M9 0C4.0275 0 0 4.0275 0 9C0 10.98 0.63 12.8025 1.71 14.2875L0.4725 17.55L4.05 16.515C5.4675 17.46 7.1775 18 9 18C13.9725 18 18 13.9725 18 9C18 4.0275 13.9725 0 9 0ZM13.7925 12.735L12.825 13.68C11.8125 14.6925 9.135 13.59 6.7725 11.205C4.41 8.8425 3.3525 6.165 4.2975 5.175L5.265 4.2075C5.625 3.8475 6.2325 3.8475 6.615 4.2075L8.0325 5.625C8.5275 6.12 8.325 6.975 7.6725 7.1775C7.2225 7.335 6.9075 7.83 7.065 8.28C7.3125 9.3375 8.685 10.6425 9.6975 10.89C10.1475 11.0025 10.665 10.7325 10.8 10.2825C11.0025 9.63 11.8575 9.4275 12.3525 9.9225L13.77 11.34C14.13 11.7225 14.13 12.33 13.7925 12.735Z" fill="#A3A8AF"/>
</svg>
