<svg width="24" height="24" viewBox="0 0 24 24" fill="none" xmlns="http://www.w3.org/2000/svg">
    <path fill-rule="evenodd" clip-rule="evenodd" d="M12.33 8.60802C14.5459 8.60811 16.677 9.45955 18.283 10.9863C18.4039 11.1042 18.5972 11.1027 18.7163 10.983L19.8723 9.81635C19.9326 9.75563 19.9662 9.67338 19.9657 9.58779C19.9652 9.50221 19.9306 9.42036 19.8696 9.36035C15.6545 5.3208 9.00473 5.3208 4.78963 9.36035C4.72857 9.42032 4.69393 9.50215 4.69337 9.58773C4.6928 9.67331 4.72637 9.75558 4.78663 9.81635L5.94297 10.983C6.06199 11.1029 6.25544 11.1044 6.3763 10.9863C7.98245 9.45945 10.1139 8.60801 12.33 8.60802ZM12.33 12.4037C13.5475 12.4036 14.7215 12.8561 15.624 13.6733C15.746 13.7893 15.9383 13.7868 16.0573 13.6677L17.212 12.501C17.2728 12.4398 17.3065 12.3568 17.3056 12.2705C17.3048 12.1843 17.2693 12.102 17.2073 12.042C14.4591 9.48563 10.2032 9.48563 7.45497 12.042C7.39289 12.102 7.35747 12.1843 7.35665 12.2706C7.35584 12.3569 7.3897 12.4399 7.45063 12.501L8.60497 13.6677C8.72395 13.7868 8.91624 13.7893 9.0383 13.6733C9.94017 12.8567 11.1133 12.4042 12.33 12.4037ZM14.643 14.9575C14.6447 15.044 14.6107 15.1274 14.549 15.188L12.5516 17.2037C12.4931 17.2629 12.4133 17.2963 12.33 17.2963C12.2467 17.2963 12.1668 17.2629 12.1083 17.2037L10.1106 15.188C10.0489 15.1274 10.015 15.0439 10.0168 14.9574C10.0186 14.8709 10.0561 14.789 10.1203 14.731C11.3959 13.6521 13.2641 13.6521 14.5396 14.731C14.6038 14.7891 14.6412 14.871 14.643 14.9575Z" fill="#A3A8AF"/>
</svg>
