<svg viewBox="0 0 24 24" fill="none" xmlns="http://www.w3.org/2000/svg">
    <path fill-rule="evenodd" clip-rule="evenodd"
          d="M8.66667 4H8.86037L8.58483 9.02862C8.58383 9.04684 8.58333 9.06509 8.58333 9.08333C8.58333 9.6231 8.28884 10.1539 7.79482 10.4904C6.65896 11.1837 6 12.4272 6 13.75V21.3333C6 21.8856 6.44772 22.3333 7 22.3333H17C17.5523 22.3333 18 21.8856 18 21.3333V13.75C18 12.4273 17.3412 11.1839 16.2056 10.4906C15.7681 10.1913 15.4783 9.67213 15.4141 9.00931L15.1396 4H15.3333C15.8856 4 16.3333 3.55228 16.3333 3C16.3333 2.44772 15.8856 2 15.3333 2H14.0833H9.91667H8.66667C8.11438 2 7.66667 2.44772 7.66667 3C7.66667 3.55228 8.11438 4 8.66667 4ZM10.5832 9.11296L10.8634 4H13.1366L13.4182 9.13805C13.4188 9.15 13.4197 9.16194 13.4208 9.17387C13.5257 10.3285 14.0619 11.4653 15.112 12.1654C15.1252 12.1742 15.1386 12.1827 15.1522 12.1908C15.6683 12.5005 16 13.0821 16 13.75V20.3333H8V13.75C8 13.0821 8.33174 12.5005 8.84783 12.1908C8.86143 12.1827 8.87483 12.1742 8.88803 12.1654C9.87661 11.5063 10.5726 10.3884 10.5832 9.11296ZM11.3333 16.3333C11.3333 15.9651 11.6318 15.6667 12 15.6667C12.3682 15.6667 12.6667 15.9651 12.6667 16.3333C12.6667 16.7015 12.3682 17 12 17C11.6318 17 11.3333 16.7015 11.3333 16.3333ZM12 13.6667C10.5272 13.6667 9.33333 14.8606 9.33333 16.3333C9.33333 17.8061 10.5272 19 12 19C13.4728 19 14.6667 17.8061 14.6667 16.3333C14.6667 14.8606 13.4728 13.6667 12 13.6667Z"
          fill="#A3A8AF"/>
</svg>
