<svg viewBox="0 0 24 24" fill="none" xmlns="http://www.w3.org/2000/svg">
    <path fill-rule="evenodd" clip-rule="evenodd"
          d="M4.1861 2.5742C4.35104 2.22371 4.70356 2 5.09092 2H19.2727C19.6601 2 20.0126 2.22371 20.1775 2.5742C20.9715 4.26135 21.3636 6.1352 21.3636 8C21.3636 13.4262 17.8145 17.1215 13.1818 17.5867V20.1818H14.9091C15.4614 20.1818 15.9091 20.6295 15.9091 21.1818C15.9091 21.7341 15.4614 22.1818 14.9091 22.1818L12.1818 22.1818L9.45455 22.1818C8.90226 22.1818 8.45455 21.7341 8.45455 21.1818C8.45455 20.6295 8.90226 20.1818 9.45455 20.1818H11.1818V17.5867C6.54909 17.1215 3 13.4262 3 8C3 6.1352 3.39215 4.26135 4.1861 2.5742ZM19.3636 8C19.3636 12.7349 16.1606 15.6364 12.1818 15.6364C8.20299 15.6364 5 12.7349 5 8C5 7.87871 5.00195 7.75747 5.00585 7.63636H19.3578C19.3617 7.75747 19.3636 7.87871 19.3636 8ZM19.112 5.63636C18.9904 5.07582 18.825 4.52766 18.6162 4H5.74743C5.53863 4.52766 5.3732 5.07582 5.25162 5.63636H19.112Z"
          fill="#A3A8AF"/>
</svg>
