<svg viewBox="0 0 24 24" fill="none" xmlns="http://www.w3.org/2000/svg">
    <path fill-rule="evenodd" clip-rule="evenodd"
          d="M12.3433 4.25256C12.68 3.91581 13.1377 3.91581 13.4745 4.25256L19.929 10.7071C20.2658 11.0439 20.2658 11.5016 19.929 11.8383C19.5923 12.1751 19.1346 12.1751 18.7978 11.8383L15.8207 8.86121C15.7723 8.75405 15.7041 8.65367 15.6161 8.56562C15.528 8.47757 15.4276 8.40937 15.3205 8.36102L12.3433 5.38379C12.0065 5.04704 12.0065 4.58931 12.3433 4.25256ZM13.4493 9.31822L10.929 6.798C9.81125 5.68021 9.81125 3.95614 10.929 2.83835C12.0468 1.72055 13.7709 1.72055 14.8887 2.83835L21.3433 9.2929C22.4611 10.4107 22.4611 12.1348 21.3433 13.2526C20.2255 14.3704 18.5014 14.3704 17.3836 13.2526L14.8635 10.7324L10.7704 14.8255L11.0856 17.898C11.1204 18.2374 10.9797 18.5711 10.7125 18.7832C10.4453 18.9954 10.0883 19.0566 9.76569 18.9457L5.427 17.4542L5.63101 19.4434C5.6617 19.7427 5.55605 20.0399 5.34334 20.2526L3.70698 21.8889C3.31646 22.2794 2.6833 22.2794 2.29277 21.8889C1.90225 21.4984 1.90225 20.8652 2.29277 20.4747L3.59294 19.1745L3.27782 16.102C3.24301 15.7626 3.38364 15.4289 3.65087 15.2168C3.91809 15.0046 4.27503 14.9434 4.59768 15.0543L8.93638 16.5457L8.73236 14.5566C8.70167 14.2573 8.80733 13.9602 9.02004 13.7474L13.4493 9.31822Z"
          fill="#A3A8AF"/>
</svg>
