<svg viewBox="0 0 24 24" fill="none" xmlns="http://www.w3.org/2000/svg">
    <path fill-rule="evenodd" clip-rule="evenodd"
          d="M9.83346 2C9.28117 2 8.83346 2.44772 8.83346 3V6.33333C8.83346 6.8291 9.19422 7.2406 9.66755 7.31963C9.60595 7.61612 9.47681 7.85918 9.25222 8.0196C9.21941 8.04303 9.12188 8.09712 8.91435 8.17053C8.71669 8.24045 8.47222 8.30997 8.17841 8.38628C8.03377 8.42385 7.87602 8.4632 7.70966 8.50471L7.70964 8.50471C7.23392 8.62339 6.68781 8.75962 6.17671 8.92188C5.4862 9.14108 4.72456 9.44607 4.12282 9.92746C3.48614 10.4368 3.00012 11.1725 3.00012 12.1667C3.00012 14.9852 4.39907 17.4903 5.70012 19.225C6.35994 20.1048 7.0181 20.8176 7.51177 21.3113C7.75914 21.5586 7.96665 21.7524 8.11437 21.8861C8.18826 21.9529 8.24731 22.0048 8.28904 22.041C8.30991 22.0591 8.32645 22.0732 8.33837 22.0834L8.35274 22.0955L8.35725 22.0993L8.35882 22.1006L8.35944 22.1011C8.3597 22.1014 8.35994 22.1016 9.00012 21.3333L8.35994 22.1016C8.53965 22.2513 8.76619 22.3333 9.00012 22.3333H15.6668C15.9007 22.3333 16.1273 22.2513 16.307 22.1016L15.6668 21.3333C16.307 22.1016 16.3072 22.1014 16.3075 22.1011L16.3081 22.1006L16.3097 22.0993L16.3142 22.0955L16.3285 22.0834C16.3405 22.0732 16.357 22.0591 16.3779 22.041C16.4196 22.0048 16.4786 21.9529 16.5525 21.8861C16.7003 21.7524 16.9078 21.5586 17.1551 21.3113C17.6488 20.8176 18.307 20.1048 18.9668 19.225C20.2678 17.4903 21.6668 14.9852 21.6668 12.1667C21.6668 11.1725 21.1808 10.4368 20.5441 9.92746C19.9423 9.44607 19.1807 9.14108 18.4902 8.92188C17.9791 8.75962 17.433 8.62338 16.9573 8.50471L16.9573 8.50471L16.9572 8.5047C16.7909 8.4632 16.6331 8.42385 16.4885 8.38628C16.1947 8.30997 15.9502 8.24045 15.7526 8.17053C15.545 8.09712 15.4475 8.04303 15.4147 8.0196C15.1901 7.85918 15.061 7.61612 14.9994 7.31963C15.4727 7.2406 15.8335 6.8291 15.8335 6.33333V3C15.8335 2.44772 15.3857 2 14.8335 2H9.83346ZM11.6869 7.33333H12.98C12.982 7.35209 12.9841 7.37097 12.9864 7.38998C13.0667 8.05894 13.3512 9.00351 14.2522 9.64707C14.5111 9.83196 14.8146 9.96017 15.0856 10.056C15.3664 10.1554 15.6779 10.2421 15.9857 10.3221C16.1683 10.3695 16.3499 10.4148 16.5306 10.4599L16.5306 10.4599C16.9878 10.5739 17.4388 10.6864 17.885 10.8281C18.507 11.0256 18.985 11.2414 19.2947 11.4892C19.5695 11.709 19.6668 11.9109 19.6668 12.1667C19.6668 14.3481 18.5657 16.4264 17.3668 18.025C16.7766 18.8119 16.1848 19.4532 15.7409 19.8971C15.5609 20.0771 15.4062 20.2237 15.287 20.3333H9.37987C9.26074 20.2237 9.10601 20.0771 8.92598 19.8971C8.48214 19.4532 7.8903 18.8119 7.30012 18.025C6.10118 16.4264 5.00012 14.3481 5.00012 12.1667C5.00012 11.9109 5.09743 11.709 5.37221 11.4892C5.68193 11.2414 6.15988 11.0256 6.78187 10.8281C7.22816 10.6864 7.67914 10.5739 8.13627 10.4599L8.13637 10.4599C8.31699 10.4148 8.49857 10.3695 8.68121 10.3221C8.98896 10.2421 9.30049 10.1554 9.58133 10.056C9.85232 9.96017 10.1558 9.83196 10.4147 9.64707C11.3157 9.00351 11.6002 8.05894 11.6805 7.38998C11.6828 7.37097 11.6849 7.35209 11.6869 7.33333ZM10.8335 5.33333V4H13.8335V5.33333H10.8335Z"
          fill="#A3A8AF"/>
</svg>
