<svg viewBox="0 0 24 24" fill="none" xmlns="http://www.w3.org/2000/svg">
    <path fill-rule="evenodd" clip-rule="evenodd"
          d="M7.66679 3C7.66679 3.4955 8.02717 3.90683 8.50012 3.98617V8.80499C7.03634 9.22341 6.00012 10.5468 6.00012 12.1667V21.3333C6.00012 21.8856 6.44784 22.3333 7.00012 22.3333H17.0001C17.5524 22.3333 18.0001 21.8856 18.0001 21.3333V18V13.8333V12.1667C18.0001 10.5468 16.9639 9.22341 15.5001 8.80499V3.98617C15.9731 3.90683 16.3335 3.4955 16.3335 3C16.3335 2.44772 15.8857 2 15.3335 2H14.5001H9.50012H8.66679C8.1145 2 7.66679 2.44772 7.66679 3ZM16.0001 12.8333V12.1667C16.0001 11.3023 15.3645 10.6667 14.5001 10.6667C13.9478 10.6667 13.5001 10.219 13.5001 9.66667V4H10.5001V9.66667C10.5001 10.219 10.0524 10.6667 9.50012 10.6667C8.63574 10.6667 8.00012 11.3023 8.00012 12.1667V20.3333H16.0001V19H12.8335C12.2812 19 11.8335 18.5523 11.8335 18V13.8333C11.8335 13.281 12.2812 12.8333 12.8335 12.8333H16.0001ZM16.0001 17H13.8335V14.8333H16.0001V17Z"
          fill="#A3A8AF"/>
</svg>
