<svg width="24" height="24" viewBox="0 0 24 24" fill="none" xmlns="http://www.w3.org/2000/svg">
    <path d="M5.08541 1.11039C5.83999 0.991606 6.60739 0.990894 7.36981 1.00796L7.30426 1.06842C6.3067 1.72064 5.47944 2.61611 4.88162 3.64388C3.68313 5.70154 3.24634 8.13475 3.34538 10.4933C3.44371 12.4137 3.90544 14.3447 4.88447 16.014C5.04836 16.3128 5.32126 16.5766 5.32553 16.9394C5.35617 17.7175 4.97069 18.4508 4.44911 19.007C4.48331 19.0426 4.5168 19.0781 4.551 19.1137C5.03909 19.6457 5.55996 20.1457 6.05589 20.6706C6.76059 21.4658 7.56362 22.17 8.25408 22.9794C7.10546 22.9964 5.94331 23.0498 4.80823 22.8357C3.37959 22.559 2.11126 21.5704 1.5056 20.2489C1.13865 19.485 1.02891 18.6308 1.00041 17.7936C0.9997 13.9286 0.9997 10.0644 1.00041 6.20013C1.01609 4.90849 1.35882 3.55711 2.26945 2.59904C2.99054 1.7875 4.01161 1.25975 5.08541 1.11039Z" fill="#0068FF"/>
    <path d="M15.5468 8.20728C15.8525 8.20728 16.1581 8.20728 16.4645 8.20728C16.4595 9.99466 16.4595 11.7828 16.4645 13.5701C16.1653 13.5282 15.6672 13.7195 15.5546 13.3219C15.5361 11.6177 15.5532 9.91216 15.5468 8.20728Z" fill="#0068FF"/>
    <path d="M6.19567 8.27065C7.61791 8.26923 9.03871 8.25998 10.4602 8.26994C10.4503 8.54804 10.4346 8.85104 10.2479 9.07579C9.27599 10.2835 8.32475 11.5069 7.35355 12.7146C8.38602 12.721 9.4185 12.7167 10.451 12.7167C10.4317 12.9578 10.5165 13.2388 10.3598 13.4479C10.2614 13.583 10.0833 13.5709 9.9358 13.5724C8.64396 13.5652 7.35213 13.5788 6.061 13.5652C6.06457 13.2928 6.06742 12.9913 6.25838 12.7743C7.21888 11.5716 8.19079 10.3774 9.14702 9.17181C8.16442 9.17324 7.18112 9.16541 6.19852 9.17608C6.19211 8.87451 6.19425 8.57222 6.19567 8.27065Z" fill="#0068FF"/>
    <path d="M18.7398 9.45414C19.763 9.22583 20.8731 9.89654 21.1531 10.9023C21.5044 11.9485 20.8631 13.1925 19.8036 13.5111C18.9036 13.8277 17.8263 13.4144 17.3596 12.5865C16.9933 11.9748 16.9712 11.174 17.304 10.5445C17.5862 9.989 18.1313 9.58288 18.7398 9.45414ZM18.7227 10.3603C18.0985 10.5801 17.7622 11.3383 18.0058 11.9506C18.2075 12.5296 18.8865 12.8838 19.4765 12.706C20.1499 12.5453 20.5567 11.7579 20.318 11.1128C20.1185 10.4741 19.3454 10.1057 18.7227 10.3603Z" fill="#0068FF"/>
    <path d="M11.1598 10.1988C11.6521 9.58993 12.5143 9.28978 13.2739 9.50672C13.5247 9.57002 13.752 9.6952 13.9715 9.8282C13.9693 9.76135 13.9643 9.62834 13.9622 9.56148C14.2493 9.56006 14.5358 9.56077 14.8229 9.55935C14.8215 10.8965 14.8201 12.2337 14.8237 13.5715C14.6127 13.5659 14.3983 13.5907 14.1909 13.5481C14.0456 13.489 14.0007 13.3304 13.943 13.201C13.1506 13.8155 11.9058 13.6761 11.2474 12.9279C10.5456 12.2031 10.5092 10.9683 11.1598 10.1988ZM12.3198 10.378C11.66 10.6099 11.34 11.4584 11.6742 12.0701C11.9592 12.6661 12.7616 12.9165 13.3352 12.5879C13.8674 12.3091 14.1132 11.617 13.8845 11.0637C13.6629 10.4619 12.9155 10.1248 12.3198 10.378Z" fill="#0068FF"/>
    <path d="M7.30425 1.06839C7.46386 1.02287 7.63059 1.00864 7.7959 1.00366C10.6454 1.01433 13.4948 1.00224 16.3443 1.00722C17.106 1.01646 17.8719 0.965254 18.6279 1.08119C19.6747 1.16085 20.6822 1.60325 21.461 2.30242C22.4386 3.23487 22.9602 4.57772 22.9766 5.91702C22.9773 9.68739 22.9752 13.4606 22.9787 17.2295C22.9687 17.2516 22.9495 17.2971 22.9395 17.3199C21.9242 18.4536 20.5589 19.2211 19.1317 19.7175C17.2086 20.3719 15.1486 20.5824 13.1271 20.4288C11.1057 20.2552 9.0685 19.7282 7.35413 18.6129C6.4777 19.002 5.51079 19.1926 4.55099 19.1137C4.51679 19.0781 4.4833 19.0425 4.4491 19.007C4.97068 18.4508 5.35616 17.7175 5.32553 16.9394C5.32125 16.5766 5.04835 16.3127 4.88446 16.014C3.90543 14.3447 3.44371 12.4136 3.34537 10.4932C3.24633 8.13471 3.68312 5.70151 4.88161 3.64384C5.47943 2.61608 6.30669 1.72061 7.30425 1.06839ZM15.5469 8.20726C15.5533 9.91214 15.5362 11.6177 15.5548 13.3219C15.6673 13.7195 16.1654 13.5282 16.4647 13.5701C16.4597 11.7827 16.4597 9.99465 16.4647 8.20726C16.1583 8.20726 15.8526 8.20726 15.5469 8.20726ZM6.19554 8.27056C6.19411 8.57214 6.19197 8.87442 6.19839 9.17599C7.18098 9.16532 8.16429 9.17315 9.14688 9.17172C8.19065 10.3773 7.21875 11.5715 6.25824 12.7742C6.06728 12.9912 6.06443 13.2927 6.06087 13.5652C7.35199 13.5787 8.64383 13.5652 9.93566 13.5723C10.0832 13.5708 10.2613 13.5829 10.3596 13.4478C10.5164 13.2387 10.4316 12.9577 10.4508 12.7166C9.41836 12.7166 8.38589 12.7209 7.35342 12.7145C8.32461 11.5068 9.27585 10.2834 10.2478 9.07571C10.4344 8.85095 10.4501 8.54795 10.4601 8.26985C9.03857 8.25989 7.61777 8.26914 6.19554 8.27056ZM18.7398 9.45409C18.1313 9.58283 17.5862 9.98896 17.304 10.5444C16.9713 11.1739 16.9934 11.9748 17.3596 12.5865C17.8263 13.4144 18.9037 13.8276 19.8036 13.5111C20.8632 13.1925 21.5045 11.9485 21.1532 10.9022C20.8732 9.89649 19.763 9.22578 18.7398 9.45409ZM11.1598 10.1988C10.5093 10.9684 10.5456 12.2031 11.2474 12.9279C11.9058 13.6761 13.1506 13.8155 13.943 13.201C14.0007 13.3304 14.0456 13.489 14.191 13.5481C14.3983 13.5908 14.6128 13.5659 14.8237 13.5716C14.8201 12.2337 14.8216 10.8965 14.823 9.55936C14.5358 9.56078 14.2494 9.56007 13.9622 9.56149C13.9644 9.62835 13.9694 9.76136 13.9715 9.82821C13.752 9.69521 13.5247 9.57003 13.2739 9.50673C12.5143 9.28979 11.6522 9.58994 11.1598 10.1988Z" fill="white"/>
    <path d="M12.3197 10.378C12.9154 10.1248 13.6629 10.4619 13.8845 11.0636C14.1132 11.617 13.8674 12.309 13.3351 12.5878C12.7615 12.9164 11.9592 12.6661 11.6742 12.07C11.34 11.4584 11.6599 10.6098 12.3197 10.378Z" fill="white"/>
    <path d="M18.7225 10.3602C19.3452 10.1055 20.1183 10.474 20.3178 11.1127C20.5565 11.7578 20.1497 12.5451 19.4763 12.7059C18.8863 12.8837 18.2073 12.5295 18.0056 11.9505C17.762 11.3381 18.0983 10.5799 18.7225 10.3602Z" fill="white"/>
    <path d="M22.9396 17.3199L22.9959 17.2587C23.0251 18.3704 22.9047 19.5305 22.3582 20.5198C21.7226 21.6806 20.5697 22.5426 19.2729 22.8186C18.5454 22.9687 17.7993 23.0021 17.0583 22.9929C14.7789 22.9936 12.4994 22.9929 10.22 22.9936C9.56449 22.9829 8.90753 23.0135 8.25413 22.9794C7.56368 22.1699 6.76064 21.4658 6.05594 20.6706C5.56001 20.1457 5.03915 19.6457 4.55106 19.1137C5.51085 19.1926 6.47777 19.002 7.35419 18.613C9.06856 19.7282 11.1057 20.2552 13.1272 20.4288C15.1487 20.5824 17.2086 20.3719 19.1318 19.7175C20.559 19.2211 21.9242 18.4536 22.9396 17.3199Z" fill="#005BE0"/>
</svg>
